<svg width="389" height="389" viewBox="0 0 389 389" fill="none" xmlns="http://www.w3.org/2000/svg">
<rect width="389" height="388" transform="translate(0 0.108398)" fill="#FFFF00"/>
<path d="M31.0397 200.631V210.755H32.6863L32.5395 214.619H31.2027V212.043H22.3342V214.619H20.9974L20.8669 210.755H21.894C23.3395 208.951 24.0622 206.359 24.0622 202.979V200.631H31.0397ZM29.5073 210.755V201.919H25.5947V203.337C25.5947 204.957 25.4588 206.332 25.1871 207.462C24.9045 208.636 24.4155 209.733 23.7199 210.755H29.5073ZM35.1688 206.207H33.7994C33.7994 205.555 34.0168 204.957 34.4515 204.413C34.9732 203.761 35.9296 203.435 37.3208 203.435C38.1359 203.435 38.8532 203.598 39.4727 203.924C39.8314 204.098 40.1139 204.386 40.3204 204.788C40.5269 205.19 40.6248 205.669 40.6139 206.223L40.5324 210.054C40.5324 210.369 40.565 210.614 40.6302 210.788C40.728 210.962 40.9834 211.043 41.3964 211.032V212.043C41.2334 212.086 41.016 212.108 40.7443 212.108C40.2661 212.108 39.9183 212.027 39.7009 211.864C39.4944 211.701 39.3477 211.38 39.2608 210.902C38.7282 211.88 37.7827 212.369 36.4241 212.369C35.4895 212.369 34.7667 212.163 34.2559 211.75C33.756 211.326 33.506 210.701 33.506 209.875C33.506 209.092 33.7886 208.5 34.3537 208.098C34.9189 207.674 35.9894 207.391 37.5653 207.25C38.2935 207.196 38.7282 207.125 38.8695 207.038C39.076 206.897 39.1793 206.587 39.1793 206.109C39.1793 205 38.5598 204.446 37.3208 204.446C35.8535 204.446 35.1362 205.033 35.1688 206.207ZM39.1467 208.505L39.1793 207.804C39.0162 207.924 38.7771 208.022 38.462 208.098C37.9837 208.13 37.6142 208.168 37.3534 208.212C36.4513 208.364 35.9025 208.489 35.7068 208.587C35.2286 208.815 34.9895 209.228 34.9895 209.826C34.9895 210.304 35.1308 210.679 35.4134 210.951C35.7068 211.222 36.0981 211.358 36.5872 211.358C36.9023 211.358 37.1904 211.315 37.4512 211.228C37.7229 211.141 37.9837 211 38.2337 210.804C38.4946 210.597 38.7011 210.299 38.8532 209.907C39.0162 209.516 39.1141 209.049 39.1467 208.505ZM48.6141 208.179H44.5222V212.043H43.0875V203.761H44.5222V207.169H48.6141V203.761H50.0487V212.043H48.6141V208.179ZM57.9275 208.179H53.8356V212.043H52.401V203.761H53.8356V207.169H57.9275V203.761H59.3622V212.043H57.9275V208.179ZM61.7144 212.043V203.761H63.1491V207.038H65.2358C65.8988 207.038 66.453 207.103 66.8986 207.234C67.9637 207.505 68.518 208.283 68.5615 209.565C68.5615 210.326 68.3278 210.929 67.8605 211.375C67.404 211.82 66.6921 212.043 65.7249 212.043H61.7144ZM64.8934 208.049H63.1491V211.032H65.1543C66.4367 211.032 67.078 210.511 67.078 209.467C67.078 208.956 66.9095 208.587 66.5726 208.359C66.4639 208.272 66.2846 208.201 66.0346 208.147C65.7738 208.081 65.3934 208.049 64.8934 208.049ZM69.5723 212.043V203.761H71.0069V212.043H69.5723ZM74.7869 203.761V210.364L79.1071 203.761H80.7047V212.043H79.2701V205.424L74.9662 212.043H73.3523V203.761H74.7869ZM78.5691 200.631H79.7918C79.5635 201.827 78.8462 202.528 77.6398 202.734C77.4333 202.767 77.216 202.783 76.9877 202.783C75.5857 202.783 74.6891 202.213 74.2978 201.071C74.2652 200.995 74.2272 200.849 74.1837 200.631H75.4064C75.3738 200.914 75.4716 201.18 75.6998 201.43C75.8629 201.604 76.0531 201.734 76.2704 201.821C76.4661 201.886 76.7052 201.919 76.9877 201.919C77.4551 201.919 77.8409 201.805 78.1452 201.577C78.4495 201.338 78.5908 201.022 78.5691 200.631ZM86.8528 212.043V203.761H90.798C92.5478 203.761 93.4227 204.419 93.4227 205.734C93.4227 206.679 92.9228 207.326 91.9229 207.674V207.723C92.5967 207.886 93.0641 208.147 93.3249 208.505C93.5966 208.864 93.7325 209.326 93.7325 209.891C93.7325 210.793 93.401 211.391 92.738 211.684C92.1946 211.923 91.5316 212.043 90.7491 212.043H86.8528ZM90.3415 204.772H88.2874V207.217H90.2763C90.8524 207.217 91.2762 207.103 91.5479 206.875C91.8305 206.636 91.9718 206.326 91.9718 205.946C91.9718 205.163 91.4284 204.772 90.3415 204.772ZM90.3415 208.228H88.2874V211.032H90.3905C91.6294 211.032 92.2489 210.608 92.2489 209.761C92.2489 208.739 91.6131 208.228 90.3415 208.228ZM97.0755 203.761V210.364L101.396 203.761H102.993V212.043H101.559V205.424L97.2548 212.043H95.6409V203.761H97.0755ZM104.293 214.195L104.163 211.032H105.206C106.108 209.706 106.559 207.745 106.559 205.147V203.761H112.493V211.032H113.928L113.814 214.195H112.607V212.043H105.499V214.195H104.293ZM111.059 211.032V204.772H107.896V205.93C107.896 206.81 107.798 207.723 107.602 208.668C107.429 209.603 107.135 210.391 106.722 211.032H111.059ZM124.589 204.772H120.399V212.043H118.964V203.761H126.023V212.043H124.589V204.772ZM127.411 212.043V210.983C128.227 211.222 128.803 210.837 129.14 209.826C129.226 209.576 129.286 209.266 129.319 208.897L129.384 207.902C129.395 207.728 129.4 207.386 129.4 206.875V203.761H135.139V212.043H133.704V204.772H130.737V206.875C130.737 207.56 130.721 208.136 130.688 208.603C130.656 209.06 130.574 209.56 130.444 210.103C130.259 210.875 129.927 211.423 129.449 211.75C128.971 212.076 128.292 212.173 127.411 212.043ZM138.572 206.207H137.203C137.203 205.555 137.42 204.957 137.855 204.413C138.376 203.761 139.333 203.435 140.724 203.435C141.539 203.435 142.256 203.598 142.876 203.924C143.235 204.098 143.517 204.386 143.724 204.788C143.93 205.19 144.028 205.669 144.017 206.223L143.936 210.054C143.936 210.369 143.968 210.614 144.033 210.788C144.131 210.962 144.387 211.043 144.8 211.032V212.043C144.637 212.086 144.419 212.108 144.148 212.108C143.669 212.108 143.322 212.027 143.104 211.864C142.898 211.701 142.751 211.38 142.664 210.902C142.131 211.88 141.186 212.369 139.827 212.369C138.893 212.369 138.17 212.163 137.659 211.75C137.159 211.326 136.909 210.701 136.909 209.875C136.909 209.092 137.192 208.5 137.757 208.098C138.322 207.674 139.393 207.391 140.969 207.25C141.697 207.196 142.131 207.125 142.273 207.038C142.479 206.897 142.582 206.587 142.582 206.109C142.582 205 141.963 204.446 140.724 204.446C139.257 204.446 138.539 205.033 138.572 206.207ZM142.55 208.505L142.582 207.804C142.419 207.924 142.18 208.022 141.865 208.098C141.387 208.13 141.017 208.168 140.757 208.212C139.855 208.364 139.306 208.489 139.11 208.587C138.632 208.815 138.393 209.228 138.393 209.826C138.393 210.304 138.534 210.679 138.817 210.951C139.11 211.222 139.501 211.358 139.99 211.358C140.306 211.358 140.594 211.315 140.854 211.228C141.126 211.141 141.387 211 141.637 210.804C141.898 210.597 142.104 210.299 142.256 209.907C142.419 209.516 142.517 209.049 142.55 208.505ZM152.294 209.092H153.664C153.62 209.723 153.381 210.386 152.947 211.081C152.707 211.472 152.332 211.788 151.822 212.027C151.322 212.255 150.735 212.369 150.061 212.369C149.833 212.369 149.67 212.364 149.572 212.353C149.094 212.331 148.605 212.206 148.105 211.978C146.714 211.282 146.018 209.902 146.018 207.837C146.018 206.75 146.268 205.783 146.768 204.935C147.387 203.935 148.452 203.435 149.963 203.435C151.028 203.435 151.876 203.707 152.506 204.25C153.137 204.783 153.501 205.484 153.599 206.353H152.229C152.012 205.082 151.267 204.446 149.996 204.446C149.17 204.446 148.55 204.75 148.137 205.359C147.735 205.957 147.534 206.783 147.534 207.837C147.534 208.859 147.746 209.701 148.17 210.364C148.594 211.027 149.235 211.358 150.094 211.358C150.833 211.358 151.371 211.125 151.708 210.657C152.066 210.19 152.262 209.668 152.294 209.092ZM157.043 212.043V204.772H154.174V203.761H161.347V204.772H158.478V212.043H157.043ZM163.878 203.761V210.364L168.198 203.761H169.795V212.043H168.361V205.424L164.057 212.043H162.443V203.761H163.878ZM173.573 203.761V207.38L177.111 203.761H178.79L174.91 207.609L179.002 212.043H177.29L173.573 207.902V212.043H172.139V203.761H173.573ZM181.207 206.207H179.838C179.838 205.555 180.055 204.957 180.49 204.413C181.011 203.761 181.968 203.435 183.359 203.435C184.174 203.435 184.891 203.598 185.511 203.924C185.869 204.098 186.152 204.386 186.359 204.788C186.565 205.19 186.663 205.669 186.652 206.223L186.57 210.054C186.57 210.369 186.603 210.614 186.668 210.788C186.766 210.962 187.022 211.043 187.435 211.032V212.043C187.272 212.086 187.054 212.108 186.782 212.108C186.304 212.108 185.956 212.027 185.739 211.864C185.533 211.701 185.386 211.38 185.299 210.902C184.766 211.88 183.821 212.369 182.462 212.369C181.528 212.369 180.805 212.163 180.294 211.75C179.794 211.326 179.544 210.701 179.544 209.875C179.544 209.092 179.827 208.5 180.392 208.098C180.957 207.674 182.028 207.391 183.603 207.25C184.332 207.196 184.766 207.125 184.908 207.038C185.114 206.897 185.217 206.587 185.217 206.109C185.217 205 184.598 204.446 183.359 204.446C181.892 204.446 181.174 205.033 181.207 206.207ZM185.185 208.505L185.217 207.804C185.054 207.924 184.815 208.022 184.5 208.098C184.022 208.13 183.652 208.168 183.392 208.212C182.489 208.364 181.941 208.489 181.745 208.587C181.267 208.815 181.028 209.228 181.028 209.826C181.028 210.304 181.169 210.679 181.452 210.951C181.745 211.222 182.136 211.358 182.625 211.358C182.94 211.358 183.228 211.315 183.489 211.228C183.761 211.141 184.022 211 184.272 210.804C184.533 210.597 184.739 210.299 184.891 209.907C185.054 209.516 185.152 209.049 185.185 208.505ZM194.365 203.761V210.364L198.685 203.761H200.283V212.043H198.848V205.424L194.545 212.043H192.931V203.761H194.365ZM208.43 209.092H209.799C209.756 209.723 209.517 210.386 209.082 211.081C208.843 211.472 208.468 211.788 207.957 212.027C207.457 212.255 206.87 212.369 206.196 212.369C205.968 212.369 205.805 212.364 205.707 212.353C205.229 212.331 204.74 212.206 204.24 211.978C202.849 211.282 202.153 209.902 202.153 207.837C202.153 206.75 202.403 205.783 202.903 204.935C203.523 203.935 204.588 203.435 206.099 203.435C207.164 203.435 208.011 203.707 208.642 204.25C209.272 204.783 209.636 205.484 209.734 206.353H208.365C208.147 205.082 207.403 204.446 206.131 204.446C205.305 204.446 204.686 204.75 204.273 205.359C203.871 205.957 203.67 206.783 203.67 207.837C203.67 208.859 203.881 209.701 204.305 210.364C204.729 211.027 205.37 211.358 206.229 211.358C206.968 211.358 207.506 211.125 207.843 210.657C208.202 210.19 208.397 209.668 208.43 209.092ZM217.182 204.772H212.992V212.043H211.558V203.761H218.617V212.043H217.182V204.772ZM220.706 209.532C220.423 208.369 220.434 207.245 220.738 206.158C221.043 205.071 221.684 204.294 222.662 203.826C223.205 203.566 223.841 203.435 224.569 203.435C225.298 203.435 225.933 203.566 226.477 203.826C227.455 204.283 228.102 205.098 228.417 206.272C228.558 206.815 228.629 207.364 228.629 207.918C228.64 208.462 228.574 209 228.433 209.532C228.303 210.054 228.069 210.532 227.732 210.967C227.406 211.402 226.988 211.744 226.477 211.994C225.922 212.244 225.287 212.369 224.569 212.369C223.852 212.369 223.216 212.244 222.662 211.994C221.716 211.538 221.064 210.717 220.706 209.532ZM222.222 206.256C222.081 206.69 222.01 207.234 222.01 207.886C222.01 208.527 222.081 209.076 222.222 209.532C222.363 209.989 222.526 210.331 222.711 210.559C223.102 210.994 223.548 211.25 224.048 211.326C224.395 211.38 224.743 211.38 225.091 211.326C225.243 211.315 225.455 211.239 225.727 211.097C226.02 210.945 226.259 210.755 226.444 210.527C226.629 210.299 226.787 209.967 226.917 209.532C227.058 209.076 227.129 208.527 227.129 207.886C227.129 207.234 227.058 206.69 226.917 206.256C226.765 205.777 226.596 205.435 226.412 205.229C226.238 205.022 226.02 204.848 225.759 204.707C225.499 204.566 225.276 204.479 225.091 204.446C224.743 204.392 224.395 204.392 224.048 204.446C223.896 204.457 223.678 204.538 223.396 204.691C222.841 204.962 222.45 205.484 222.222 206.256ZM229.557 212.043V210.983C230.372 211.222 230.948 210.837 231.285 209.826C231.372 209.576 231.432 209.266 231.464 208.897L231.53 207.902C231.54 207.728 231.546 207.386 231.546 206.875V203.761H237.284V212.043H235.85V204.772H232.883V206.875C232.883 207.56 232.866 208.136 232.834 208.603C232.801 209.06 232.72 209.56 232.589 210.103C232.404 210.875 232.073 211.423 231.595 211.75C231.117 212.076 230.437 212.173 229.557 212.043ZM239.625 212.043V203.761H241.06V207.054H243.13C243.945 207.054 244.646 207.174 245.233 207.413C246.048 207.706 246.456 208.391 246.456 209.467C246.456 210.358 246.195 211.021 245.674 211.456C245.456 211.63 245.201 211.76 244.907 211.847C244.516 211.978 244.087 212.043 243.619 212.043H239.625ZM242.804 208.065H241.06V211.032H243.049C243.723 211.032 244.217 210.896 244.532 210.625C244.848 210.309 244.994 209.924 244.973 209.467C244.973 208.967 244.809 208.598 244.483 208.359C244.375 208.283 244.201 208.217 243.962 208.163C243.701 208.098 243.359 208.065 242.935 208.065H242.804ZM247.252 209.5H248.621C248.621 210.043 248.817 210.489 249.208 210.837C249.599 211.184 250.137 211.358 250.822 211.358C251.496 211.358 252.023 211.222 252.403 210.951C252.784 210.668 252.974 210.261 252.974 209.728C252.974 208.739 252.349 208.244 251.099 208.244H249.877V207.234H250.936C252.088 207.234 252.664 206.804 252.664 205.946C252.664 205.805 252.642 205.663 252.599 205.522C252.566 205.381 252.49 205.223 252.371 205.049C252.262 204.864 252.072 204.718 251.8 204.609C251.528 204.5 251.192 204.446 250.789 204.446C250.072 204.446 249.567 204.614 249.273 204.951C248.98 205.288 248.833 205.652 248.833 206.044H247.464C247.496 205.478 247.643 205.006 247.904 204.625C248.165 204.245 248.502 203.973 248.915 203.81C249.588 203.56 250.241 203.435 250.871 203.435C251.425 203.435 251.914 203.5 252.338 203.631C252.762 203.75 253.083 203.897 253.3 204.071C253.528 204.245 253.708 204.451 253.838 204.691C253.979 204.93 254.066 205.142 254.099 205.326C254.131 205.5 254.148 205.674 254.148 205.848C254.148 206.815 253.67 207.418 252.713 207.658V207.706C253.224 207.783 253.642 208.005 253.968 208.375C254.294 208.744 254.458 209.228 254.458 209.826C254.458 210.434 254.24 210.989 253.805 211.489C253.273 212.076 252.316 212.369 250.936 212.369C249.773 212.369 248.887 212.124 248.279 211.635C247.594 211.038 247.252 210.326 247.252 209.5ZM256.429 215.043V213.983C256.842 214.037 257.081 214.064 257.146 214.064C257.559 214.064 257.852 213.912 258.026 213.608C258.135 213.445 258.206 213.309 258.238 213.2C258.271 213.146 258.341 212.967 258.45 212.662L258.646 212.043L255.059 203.761H256.771L259.428 210.462L261.629 203.761H263.064L259.771 213.021C259.51 213.76 259.287 214.244 259.102 214.472C258.733 214.907 258.233 215.124 257.602 215.124C257.113 215.124 256.722 215.097 256.429 215.043ZM270.205 209.646H271.574C271.444 210.375 271.091 211.01 270.515 211.554C269.939 212.097 269.086 212.369 267.955 212.369C266.423 212.369 265.298 211.864 264.581 210.853C264.222 210.32 263.988 209.75 263.88 209.141C263.804 208.717 263.765 208.315 263.765 207.935C263.765 207.207 263.874 206.522 264.092 205.881C264.233 205.424 264.439 205.027 264.711 204.691C265.004 204.332 265.423 204.033 265.966 203.794C266.51 203.555 267.124 203.435 267.809 203.435C269.026 203.435 269.944 203.772 270.564 204.446C270.824 204.729 271.036 205.087 271.199 205.522C271.439 206.152 271.585 206.919 271.64 207.821C271.64 207.853 271.64 207.924 271.64 208.033C271.65 208.141 271.656 208.206 271.656 208.228H265.282C265.282 209.054 265.499 209.782 265.934 210.413C266.368 211.043 267.026 211.358 267.906 211.358C268.537 211.358 269.053 211.201 269.455 210.885C269.857 210.57 270.107 210.157 270.205 209.646ZM265.282 207.217H270.14C270.129 206.576 269.977 205.984 269.683 205.44C269.346 204.777 268.732 204.446 267.841 204.446C266.83 204.446 266.135 204.783 265.754 205.457C265.439 206 265.282 206.587 265.282 207.217ZM275.443 212.043V204.772H272.574V203.761H279.747V204.772H276.878V212.043H275.443ZM286.52 209.092H287.889C287.846 209.723 287.606 210.386 287.172 211.081C286.933 211.472 286.558 211.788 286.047 212.027C285.547 212.255 284.96 212.369 284.286 212.369C284.058 212.369 283.895 212.364 283.797 212.353C283.319 212.331 282.83 212.206 282.33 211.978C280.939 211.282 280.243 209.902 280.243 207.837C280.243 206.75 280.493 205.783 280.993 204.935C281.613 203.935 282.678 203.435 284.188 203.435C285.253 203.435 286.101 203.707 286.732 204.25C287.362 204.783 287.726 205.484 287.824 206.353H286.454C286.237 205.082 285.493 204.446 284.221 204.446C283.395 204.446 282.775 204.75 282.362 205.359C281.96 205.957 281.759 206.783 281.759 207.837C281.759 208.859 281.971 209.701 282.395 210.364C282.819 211.027 283.46 211.358 284.319 211.358C285.058 211.358 285.596 211.125 285.933 210.657C286.291 210.19 286.487 209.668 286.52 209.092ZM294.717 208.782H292.826L290.658 212.043H289.077L291.359 208.766C290.729 208.701 290.218 208.456 289.827 208.033C289.435 207.609 289.24 207.054 289.24 206.37C289.24 205.728 289.408 205.169 289.745 204.691C290.147 204.071 290.908 203.761 292.027 203.761H296.152V212.043H294.717V208.782ZM294.717 207.772V204.772H292.647C291.364 204.772 290.723 205.288 290.723 206.321C290.723 206.745 290.881 207.092 291.196 207.364C291.511 207.636 292.011 207.772 292.696 207.772H294.717ZM20.9974 232.195L20.8669 229.032H21.9103C22.8124 227.706 23.2634 225.745 23.2634 223.147V221.761H29.1975V229.032H30.6322L30.518 232.195H29.3117V230.043H22.2038V232.195H20.9974ZM27.7629 229.032V222.772H24.6002V223.93C24.6002 224.81 24.5024 225.723 24.3068 226.668C24.1329 227.603 23.8394 228.391 23.4264 229.032H27.7629ZM31.3157 230.043V228.983C32.1308 229.222 32.7069 228.837 33.0438 227.826C33.1307 227.576 33.1905 227.266 33.2231 226.897L33.2883 225.902C33.2992 225.728 33.3046 225.386 33.3046 224.875V221.761H39.0431V230.043H37.6085V222.772H34.6414V224.875C34.6414 225.56 34.6251 226.136 34.5925 226.603C34.5599 227.06 34.4784 227.56 34.348 228.103C34.1632 228.875 33.8317 229.423 33.3535 229.75C32.8753 230.076 32.1961 230.173 31.3157 230.043ZM46.4541 226.782H44.563L42.3948 230.043H40.8135L43.0958 226.766C42.4655 226.701 41.9546 226.456 41.5634 226.033C41.1721 225.609 40.9765 225.054 40.9765 224.37C40.9765 223.728 41.1449 223.169 41.4819 222.691C41.884 222.071 42.6448 221.761 43.7642 221.761H47.8888V230.043H46.4541V226.782ZM46.4541 225.772V222.772H44.3837C43.1013 222.772 42.46 223.288 42.46 224.321C42.46 224.745 42.6176 225.092 42.9328 225.364C43.248 225.636 43.7479 225.772 44.4326 225.772H46.4541ZM55.4754 221.761V228.364L59.7956 221.761H61.3932V230.043H59.9586V223.424L55.6547 230.043H54.0408V221.761H55.4754ZM63.0842 227.5H64.4536C64.4536 228.043 64.6493 228.489 65.0405 228.837C65.4318 229.184 65.9698 229.358 66.6545 229.358C67.3283 229.358 67.8554 229.222 68.2358 228.951C68.6162 228.668 68.8064 228.261 68.8064 227.728C68.8064 226.739 68.1815 226.244 66.9316 226.244H65.7089V225.234H66.7686C67.9207 225.234 68.4967 224.804 68.4967 223.946C68.4967 223.805 68.4749 223.663 68.4315 223.522C68.3989 223.381 68.3228 223.223 68.2032 223.049C68.0945 222.864 67.9044 222.718 67.6326 222.609C67.3609 222.5 67.024 222.446 66.6219 222.446C65.9046 222.446 65.3992 222.614 65.1058 222.951C64.8123 223.288 64.6656 223.652 64.6656 224.044H63.2962C63.3288 223.478 63.4755 223.006 63.7363 222.625C63.9972 222.245 64.3341 221.973 64.7471 221.81C65.4209 221.56 66.073 221.435 66.7034 221.435C67.2577 221.435 67.7468 221.5 68.1706 221.631C68.5945 221.75 68.9151 221.897 69.1325 222.071C69.3607 222.245 69.54 222.451 69.6705 222.691C69.8117 222.93 69.8987 223.142 69.9313 223.326C69.9639 223.5 69.9802 223.674 69.9802 223.848C69.9802 224.815 69.502 225.418 68.5456 225.658V225.706C69.0564 225.783 69.4748 226.005 69.8009 226.375C70.1269 226.744 70.29 227.228 70.29 227.826C70.29 228.434 70.0726 228.989 69.6379 229.489C69.1053 230.076 68.1489 230.369 66.7686 230.369C65.6057 230.369 64.7199 230.124 64.1113 229.635C63.4266 229.038 63.0842 228.326 63.0842 227.5ZM77.8315 222.772H73.5929V230.043H72.1582V221.761H77.8315V222.772ZM78.5362 227.532C78.2536 226.369 78.2645 225.245 78.5688 224.158C78.8731 223.071 79.5144 222.294 80.4925 221.826C81.0359 221.566 81.6717 221.435 82.3999 221.435C83.1281 221.435 83.7639 221.566 84.3073 221.826C85.2855 222.283 85.9321 223.098 86.2473 224.272C86.3886 224.815 86.4593 225.364 86.4593 225.918C86.4701 226.462 86.4049 227 86.2636 227.532C86.1332 228.054 85.8995 228.532 85.5626 228.967C85.2366 229.402 84.8181 229.744 84.3073 229.994C83.753 230.244 83.1172 230.369 82.3999 230.369C81.6826 230.369 81.0468 230.244 80.4925 229.994C79.547 229.538 78.8949 228.717 78.5362 227.532ZM80.0524 224.256C79.9111 224.69 79.8404 225.234 79.8404 225.886C79.8404 226.527 79.9111 227.076 80.0524 227.532C80.1936 227.989 80.3567 228.331 80.5414 228.559C80.9327 228.994 81.3783 229.25 81.8782 229.326C82.226 229.38 82.5738 229.38 82.9216 229.326C83.0738 229.315 83.2857 229.239 83.5574 229.097C83.8508 228.945 84.09 228.755 84.2747 228.527C84.4595 228.299 84.6171 227.967 84.7475 227.532C84.8888 227.076 84.9594 226.527 84.9594 225.886C84.9594 225.234 84.8888 224.69 84.7475 224.256C84.5953 223.777 84.4269 223.435 84.2421 223.229C84.0682 223.022 83.8508 222.848 83.59 222.707C83.3292 222.566 83.1064 222.479 82.9216 222.446C82.5738 222.392 82.226 222.392 81.8782 222.446C81.7261 222.457 81.5087 222.538 81.2261 222.691C80.6719 222.962 80.2806 223.484 80.0524 224.256ZM89.7473 230.043V222.772H86.878V221.761H94.0511V222.772H91.1819V230.043H89.7473ZM94.8706 227.532C94.588 226.369 94.5989 225.245 94.9032 224.158C95.2075 223.071 95.8487 222.294 96.8269 221.826C97.3703 221.566 98.0061 221.435 98.7343 221.435C99.4625 221.435 100.098 221.566 100.642 221.826C101.62 222.283 102.267 223.098 102.582 224.272C102.723 224.815 102.794 225.364 102.794 225.918C102.804 226.462 102.739 227 102.598 227.532C102.468 228.054 102.234 228.532 101.897 228.967C101.571 229.402 101.152 229.744 100.642 229.994C100.087 230.244 99.4516 230.369 98.7343 230.369C98.017 230.369 97.3812 230.244 96.8269 229.994C95.8813 229.538 95.2292 228.717 94.8706 227.532ZM96.3867 224.256C96.2454 224.69 96.1748 225.234 96.1748 225.886C96.1748 226.527 96.2454 227.076 96.3867 227.532C96.528 227.989 96.691 228.331 96.8758 228.559C97.2671 228.994 97.7127 229.25 98.2126 229.326C98.5604 229.38 98.9082 229.38 99.256 229.326C99.4081 229.315 99.6201 229.239 99.8918 229.097C100.185 228.945 100.424 228.755 100.609 228.527C100.794 228.299 100.951 227.967 101.082 227.532C101.223 227.076 101.294 226.527 101.294 225.886C101.294 225.234 101.223 224.69 101.082 224.256C100.93 223.777 100.761 223.435 100.576 223.229C100.403 223.022 100.185 222.848 99.9244 222.707C99.6635 222.566 99.4407 222.479 99.256 222.446C98.9082 222.392 98.5604 222.392 98.2126 222.446C98.0605 222.457 97.8431 222.538 97.5605 222.691C97.0062 222.962 96.615 223.484 96.3867 224.256ZM104.684 230.043V221.761H108.629C110.379 221.761 111.254 222.419 111.254 223.734C111.254 224.679 110.754 225.326 109.754 225.674V225.723C110.428 225.886 110.895 226.147 111.156 226.505C111.428 226.864 111.563 227.326 111.563 227.891C111.563 228.793 111.232 229.391 110.569 229.684C110.025 229.923 109.363 230.043 108.58 230.043H104.684ZM108.172 222.772H106.118V225.217H108.107C108.683 225.217 109.107 225.103 109.379 224.875C109.661 224.636 109.803 224.326 109.803 223.946C109.803 223.163 109.259 222.772 108.172 222.772ZM108.172 226.228H106.118V229.032H108.221C109.46 229.032 110.08 228.608 110.08 227.761C110.08 226.739 109.444 226.228 108.172 226.228ZM112.51 230.043V228.983C113.325 229.222 113.901 228.837 114.238 227.826C114.325 227.576 114.385 227.266 114.417 226.897L114.483 225.902C114.493 225.728 114.499 225.386 114.499 224.875V221.761H120.237V230.043H118.803V222.772H115.836V224.875C115.836 225.56 115.819 226.136 115.787 226.603C115.754 227.06 115.673 227.56 115.542 228.103C115.357 228.875 115.026 229.423 114.548 229.75C114.07 230.076 113.39 230.173 112.51 230.043ZM128.545 227.646H129.914C129.784 228.375 129.431 229.01 128.855 229.554C128.279 230.097 127.426 230.369 126.295 230.369C124.763 230.369 123.638 229.864 122.921 228.853C122.562 228.32 122.328 227.75 122.22 227.141C122.144 226.717 122.105 226.315 122.105 225.935C122.105 225.207 122.214 224.522 122.432 223.881C122.573 223.424 122.779 223.027 123.051 222.691C123.344 222.332 123.763 222.033 124.306 221.794C124.85 221.555 125.464 221.435 126.149 221.435C127.366 221.435 128.284 221.772 128.904 222.446C129.164 222.729 129.376 223.087 129.539 223.522C129.779 224.152 129.925 224.919 129.98 225.821C129.98 225.853 129.98 225.924 129.98 226.033C129.99 226.141 129.996 226.206 129.996 226.228H123.622C123.622 227.054 123.839 227.782 124.274 228.413C124.708 229.043 125.366 229.358 126.246 229.358C126.877 229.358 127.393 229.201 127.795 228.885C128.197 228.57 128.447 228.157 128.545 227.646ZM123.622 225.217H128.48C128.469 224.576 128.317 223.984 128.023 223.44C127.686 222.777 127.072 222.446 126.181 222.446C125.17 222.446 124.475 222.783 124.094 223.457C123.779 224 123.622 224.587 123.622 225.217ZM137.402 226.179H133.31V230.043H131.876V221.761H133.31V225.169H137.402V221.761H138.837V230.043H137.402V226.179ZM142.624 221.761V228.364L146.944 221.761H148.542V230.043H147.107V223.424L142.803 230.043H141.189V221.761H142.624ZM155.955 226.782H154.064L151.896 230.043H150.314L152.597 226.766C151.966 226.701 151.455 226.456 151.064 226.033C150.673 225.609 150.477 225.054 150.477 224.37C150.477 223.728 150.646 223.169 150.983 222.691C151.385 222.071 152.146 221.761 153.265 221.761H157.389V230.043H155.955V226.782ZM155.955 225.772V222.772H153.884C152.602 222.772 151.961 223.288 151.961 224.321C151.961 224.745 152.118 225.092 152.434 225.364C152.749 225.636 153.249 225.772 153.933 225.772H155.955ZM163.281 227.532C162.998 226.369 163.009 225.245 163.313 224.158C163.618 223.071 164.259 222.294 165.237 221.826C165.78 221.566 166.416 221.435 167.144 221.435C167.873 221.435 168.508 221.566 169.052 221.826C170.03 222.283 170.677 223.098 170.992 224.272C171.133 224.815 171.204 225.364 171.204 225.918C171.215 226.462 171.149 227 171.008 227.532C170.878 228.054 170.644 228.532 170.307 228.967C169.981 229.402 169.563 229.744 169.052 229.994C168.497 230.244 167.862 230.369 167.144 230.369C166.427 230.369 165.791 230.244 165.237 229.994C164.291 229.538 163.639 228.717 163.281 227.532ZM164.797 224.256C164.656 224.69 164.585 225.234 164.585 225.886C164.585 226.527 164.656 227.076 164.797 227.532C164.938 227.989 165.101 228.331 165.286 228.559C165.677 228.994 166.123 229.25 166.623 229.326C166.97 229.38 167.318 229.38 167.666 229.326C167.818 229.315 168.03 229.239 168.302 229.097C168.595 228.945 168.834 228.755 169.019 228.527C169.204 228.299 169.362 227.967 169.492 227.532C169.633 227.076 169.704 226.527 169.704 225.886C169.704 225.234 169.633 224.69 169.492 224.256C169.34 223.777 169.171 223.435 168.987 223.229C168.813 223.022 168.595 222.848 168.334 222.707C168.074 222.566 167.851 222.479 167.666 222.446C167.318 222.392 166.97 222.392 166.623 222.446C166.471 222.457 166.253 222.538 165.971 222.691C165.416 222.962 165.025 223.484 164.797 224.256ZM172.05 232.195L171.92 229.032H172.963C173.865 227.706 174.316 225.745 174.316 223.147V221.761H180.251V229.032H181.685L181.571 232.195H180.365V230.043H173.257V232.195H172.05ZM178.816 229.032V222.772H175.653V223.93C175.653 224.81 175.555 225.723 175.36 226.668C175.186 227.603 174.892 228.391 174.479 229.032H178.816ZM188.443 226.179H184.351V230.043H182.917V221.761H184.351V225.169H188.443V221.761H189.878V230.043H188.443V226.179ZM191.969 227.532C191.687 226.369 191.698 225.245 192.002 224.158C192.306 223.071 192.947 222.294 193.926 221.826C194.469 221.566 195.105 221.435 195.833 221.435C196.561 221.435 197.197 221.566 197.74 221.826C198.719 222.283 199.365 223.098 199.68 224.272C199.822 224.815 199.892 225.364 199.892 225.918C199.903 226.462 199.838 227 199.697 227.532C199.566 228.054 199.333 228.532 198.996 228.967C198.67 229.402 198.251 229.744 197.74 229.994C197.186 230.244 196.55 230.369 195.833 230.369C195.116 230.369 194.48 230.244 193.926 229.994C192.98 229.538 192.328 228.717 191.969 227.532ZM193.485 224.256C193.344 224.69 193.274 225.234 193.274 225.886C193.274 226.527 193.344 227.076 193.485 227.532C193.627 227.989 193.79 228.331 193.975 228.559C194.366 228.994 194.811 229.25 195.311 229.326C195.659 229.38 196.007 229.38 196.355 229.326C196.507 229.315 196.719 229.239 196.99 229.097C197.284 228.945 197.523 228.755 197.708 228.527C197.893 228.299 198.05 227.967 198.181 227.532C198.322 227.076 198.393 226.527 198.393 225.886C198.393 225.234 198.322 224.69 198.181 224.256C198.028 223.777 197.86 223.435 197.675 223.229C197.501 223.022 197.284 222.848 197.023 222.707C196.762 222.566 196.539 222.479 196.355 222.446C196.007 222.392 195.659 222.392 195.311 222.446C195.159 222.457 194.942 222.538 194.659 222.691C194.105 222.962 193.714 223.484 193.485 224.256ZM201.782 233.059V221.761H203.119V222.902H203.168C203.82 221.924 204.733 221.435 205.907 221.435C206.983 221.435 207.874 221.81 208.581 222.56C209.287 223.321 209.64 224.435 209.64 225.902C209.64 227.402 209.282 228.521 208.564 229.26C207.858 229.999 206.983 230.369 205.94 230.369C205.614 230.369 205.217 230.298 204.749 230.157C204.065 229.951 203.554 229.516 203.217 228.853V233.059H201.782ZM203.119 225.935C203.119 227.087 203.38 227.951 203.902 228.527C204.445 229.081 205.037 229.358 205.679 229.358C206.353 229.358 206.929 229.087 207.407 228.543C207.885 227.978 208.124 227.098 208.124 225.902C208.124 224.815 207.901 223.968 207.456 223.359C207.021 222.75 206.401 222.446 205.597 222.446C205.173 222.446 204.777 222.56 204.407 222.788C203.549 223.299 203.119 224.348 203.119 225.935ZM212.602 224.207H211.233C211.233 223.555 211.45 222.957 211.885 222.413C212.406 221.761 213.363 221.435 214.754 221.435C215.569 221.435 216.286 221.598 216.906 221.924C217.265 222.098 217.547 222.386 217.754 222.788C217.96 223.19 218.058 223.669 218.047 224.223L217.966 228.054C217.966 228.369 217.998 228.614 218.063 228.788C218.161 228.962 218.417 229.043 218.83 229.032V230.043C218.667 230.086 218.449 230.108 218.178 230.108C217.699 230.108 217.352 230.027 217.134 229.864C216.928 229.701 216.781 229.38 216.694 228.902C216.161 229.88 215.216 230.369 213.857 230.369C212.923 230.369 212.2 230.163 211.689 229.75C211.189 229.326 210.939 228.701 210.939 227.875C210.939 227.092 211.222 226.5 211.787 226.098C212.352 225.674 213.423 225.391 214.999 225.25C215.727 225.196 216.161 225.125 216.303 225.038C216.509 224.897 216.612 224.587 216.612 224.109C216.612 223 215.993 222.446 214.754 222.446C213.287 222.446 212.569 223.033 212.602 224.207ZM216.58 226.505L216.612 225.804C216.449 225.924 216.21 226.022 215.895 226.098C215.417 226.13 215.047 226.168 214.787 226.212C213.885 226.364 213.336 226.489 213.14 226.587C212.662 226.815 212.423 227.228 212.423 227.826C212.423 228.304 212.564 228.679 212.847 228.951C213.14 229.222 213.531 229.358 214.02 229.358C214.336 229.358 214.624 229.315 214.884 229.228C215.156 229.141 215.417 229 215.667 228.804C215.928 228.597 216.134 228.299 216.286 227.907C216.449 227.516 216.547 227.049 216.58 226.505ZM219.869 227.5H221.238C221.238 228.043 221.434 228.489 221.825 228.837C222.216 229.184 222.754 229.358 223.439 229.358C224.113 229.358 224.64 229.222 225.02 228.951C225.401 228.668 225.591 228.261 225.591 227.728C225.591 226.739 224.966 226.244 223.716 226.244H222.493V225.234H223.553C224.705 225.234 225.281 224.804 225.281 223.946C225.281 223.805 225.259 223.663 225.216 223.522C225.183 223.381 225.107 223.223 224.988 223.049C224.879 222.864 224.689 222.718 224.417 222.609C224.145 222.5 223.808 222.446 223.406 222.446C222.689 222.446 222.184 222.614 221.89 222.951C221.597 223.288 221.45 223.652 221.45 224.044H220.081C220.113 223.478 220.26 223.006 220.521 222.625C220.782 222.245 221.119 221.973 221.532 221.81C222.205 221.56 222.857 221.435 223.488 221.435C224.042 221.435 224.531 221.5 224.955 221.631C225.379 221.75 225.7 221.897 225.917 222.071C226.145 222.245 226.324 222.451 226.455 222.691C226.596 222.93 226.683 223.142 226.716 223.326C226.748 223.5 226.765 223.674 226.765 223.848C226.765 224.815 226.286 225.418 225.33 225.658V225.706C225.841 225.783 226.259 226.005 226.585 226.375C226.911 226.744 227.074 227.228 227.074 227.826C227.074 228.434 226.857 228.989 226.422 229.489C225.89 230.076 224.933 230.369 223.553 230.369C222.39 230.369 221.504 230.124 220.896 229.635C220.211 229.038 219.869 228.326 219.869 227.5ZM228.682 227.532C228.399 226.369 228.41 225.245 228.714 224.158C229.019 223.071 229.66 222.294 230.638 221.826C231.182 221.566 231.817 221.435 232.546 221.435C233.274 221.435 233.909 221.566 234.453 221.826C235.431 222.283 236.078 223.098 236.393 224.272C236.534 224.815 236.605 225.364 236.605 225.918C236.616 226.462 236.551 227 236.409 227.532C236.279 228.054 236.045 228.532 235.708 228.967C235.382 229.402 234.964 229.744 234.453 229.994C233.899 230.244 233.263 230.369 232.546 230.369C231.828 230.369 231.192 230.244 230.638 229.994C229.693 229.538 229.04 228.717 228.682 227.532ZM230.198 224.256C230.057 224.69 229.986 225.234 229.986 225.886C229.986 226.527 230.057 227.076 230.198 227.532C230.339 227.989 230.502 228.331 230.687 228.559C231.078 228.994 231.524 229.25 232.024 229.326C232.372 229.38 232.719 229.38 233.067 229.326C233.219 229.315 233.431 229.239 233.703 229.097C233.996 228.945 234.236 228.755 234.42 228.527C234.605 228.299 234.763 227.967 234.893 227.532C235.034 227.076 235.105 226.527 235.105 225.886C235.105 225.234 235.034 224.69 234.893 224.256C234.741 223.777 234.572 223.435 234.388 223.229C234.214 223.022 233.996 222.848 233.736 222.707C233.475 222.566 233.252 222.479 233.067 222.446C232.719 222.392 232.372 222.392 232.024 222.446C231.872 222.457 231.654 222.538 231.372 222.691C230.817 222.962 230.426 223.484 230.198 224.256ZM238.495 230.043V221.761H242.44C244.19 221.761 245.065 222.419 245.065 223.734C245.065 224.679 244.565 225.326 243.565 225.674V225.723C244.239 225.886 244.706 226.147 244.967 226.505C245.239 226.864 245.375 227.326 245.375 227.891C245.375 228.793 245.043 229.391 244.38 229.684C243.837 229.923 243.174 230.043 242.391 230.043H238.495ZM241.984 222.772H239.93V225.217H241.918C242.494 225.217 242.918 225.103 243.19 224.875C243.473 224.636 243.614 224.326 243.614 223.946C243.614 223.163 243.07 222.772 241.984 222.772ZM241.984 226.228H239.93V229.032H242.033C243.272 229.032 243.891 228.608 243.891 227.761C243.891 226.739 243.255 226.228 241.984 226.228ZM247.283 230.043V221.761H248.718V225.038H250.804C251.467 225.038 252.022 225.103 252.467 225.234C253.532 225.505 254.087 226.283 254.13 227.565C254.13 228.326 253.896 228.929 253.429 229.375C252.973 229.82 252.261 230.043 251.293 230.043H247.283ZM250.462 226.049H248.718V229.032H250.723C252.005 229.032 252.647 228.511 252.647 227.467C252.647 226.956 252.478 226.587 252.141 226.359C252.032 226.272 251.853 226.201 251.603 226.147C251.342 226.081 250.962 226.049 250.462 226.049ZM255.141 230.043V221.761H256.575V230.043H255.141ZM259.573 221.761L261.692 224.826L263.812 221.761H265.409L262.507 225.723L265.637 230.043H264.04L261.692 226.636L259.345 230.043H257.747L260.877 225.723L257.975 221.761H259.573ZM27.9259 236.093H29.1486C29.1052 236.887 28.7356 237.414 28.0401 237.675C27.6597 237.805 27.3336 237.892 27.0619 237.935C25.8446 238.088 25.1382 238.191 24.9426 238.245C24.2035 238.452 23.6384 238.827 23.2471 239.37C22.8559 239.903 22.6494 240.669 22.6276 241.669H22.6602C23.1819 240.267 24.2524 239.566 25.8718 239.566C27.1869 239.566 28.1705 240 28.8226 240.87C29.4855 241.728 29.817 242.783 29.817 244.033C29.817 245.228 29.4747 246.25 28.79 247.097C28.1053 247.945 27.0891 248.369 25.7414 248.369C24.2524 248.369 23.1493 247.804 22.432 246.674C22.0733 246.054 21.8288 245.358 21.6984 244.587C21.6114 243.978 21.568 243.375 21.568 242.777C21.568 240.68 21.8886 239.212 22.5298 238.376C23.095 237.647 23.8612 237.18 24.8285 236.974C25.7414 236.767 26.5131 236.648 27.1434 236.615C27.5673 236.561 27.8281 236.387 27.9259 236.093ZM23.0841 244.13C23.0841 244.848 23.2471 245.538 23.5732 246.201C23.9536 246.972 24.6654 247.358 25.7088 247.358C26.5348 247.358 27.1706 247.081 27.6162 246.527C28.0727 245.962 28.3009 245.185 28.3009 244.196C28.3009 243.38 28.1596 242.625 27.877 241.93C27.5184 241.027 26.7956 240.576 25.7088 240.576C24.622 240.576 23.8883 241.017 23.508 241.897C23.2254 242.571 23.0841 243.315 23.0841 244.13ZM31.6958 251.043V249.983C32.1088 250.037 32.3479 250.064 32.4131 250.064C32.8261 250.064 33.1195 249.912 33.2934 249.608C33.4021 249.445 33.4727 249.309 33.5053 249.2C33.538 249.146 33.6086 248.967 33.7173 248.662L33.9129 248.043L30.3264 239.761H32.0381L34.6954 246.462L36.8963 239.761H38.3309L35.0378 249.021C34.7769 249.76 34.5541 250.244 34.3694 250.472C33.9999 250.907 33.4999 251.124 32.8695 251.124C32.3805 251.124 31.9892 251.097 31.6958 251.043ZM41.6835 248.043V240.772H38.8142V239.761H45.9873V240.772H43.1181V248.043H41.6835ZM47.0836 248.043V239.761H48.5182V243.038H50.6049C51.2679 243.038 51.8222 243.103 52.2678 243.234C53.3329 243.505 53.8872 244.283 53.9306 245.565C53.9306 246.326 53.697 246.929 53.2296 247.375C52.7731 247.82 52.0613 248.043 51.094 248.043H47.0836ZM50.2626 244.049H48.5182V247.032H50.5234C51.8059 247.032 52.4471 246.511 52.4471 245.467C52.4471 244.956 52.2786 244.587 51.9417 244.359C51.833 244.272 51.6537 244.201 51.4037 244.147C51.1429 244.081 50.7625 244.049 50.2626 244.049ZM54.9414 248.043V239.761H56.376V248.043H54.9414ZM57.7596 248.043V246.983C58.5747 247.222 59.1507 246.837 59.4876 245.826C59.5746 245.576 59.6343 245.266 59.6669 244.897L59.7322 243.902C59.743 243.728 59.7485 243.386 59.7485 242.875V239.761H65.4869V248.043H64.0523V240.772H61.0853V242.875C61.0853 243.56 61.069 244.136 61.0364 244.603C61.0038 245.06 60.9222 245.56 60.7918 246.103C60.6071 246.875 60.2756 247.423 59.7974 247.75C59.3192 248.076 58.6399 248.173 57.7596 248.043ZM67.567 245.532C67.2845 244.369 67.2953 243.245 67.5997 242.158C67.904 241.071 68.5452 240.294 69.5234 239.826C70.0668 239.566 70.7026 239.435 71.4307 239.435C72.1589 239.435 72.7947 239.566 73.3381 239.826C74.3163 240.283 74.963 241.098 75.2781 242.272C75.4194 242.815 75.4901 243.364 75.4901 243.918C75.5009 244.462 75.4357 245 75.2944 245.532C75.164 246.054 74.9304 246.532 74.5934 246.967C74.2674 247.402 73.849 247.744 73.3381 247.994C72.7839 248.244 72.1481 248.369 71.4307 248.369C70.7134 248.369 70.0776 248.244 69.5234 247.994C68.5778 247.538 67.9257 246.717 67.567 245.532ZM69.0832 242.256C68.9419 242.69 68.8712 243.234 68.8712 243.886C68.8712 244.527 68.9419 245.076 69.0832 245.532C69.2245 245.989 69.3875 246.331 69.5723 246.559C69.9635 246.994 70.4091 247.25 70.9091 247.326C71.2569 247.38 71.6046 247.38 71.9524 247.326C72.1046 247.315 72.3165 247.239 72.5882 247.097C72.8817 246.945 73.1208 246.755 73.3055 246.527C73.4903 246.299 73.6479 245.967 73.7783 245.532C73.9196 245.076 73.9902 244.527 73.9902 243.886C73.9902 243.234 73.9196 242.69 73.7783 242.256C73.6262 241.777 73.4577 241.435 73.2729 241.229C73.099 241.022 72.8817 240.848 72.6208 240.707C72.36 240.566 72.1372 240.479 71.9524 240.446C71.6046 240.392 71.2569 240.392 70.9091 240.446C70.7569 240.457 70.5395 240.538 70.257 240.691C69.7027 240.962 69.3114 241.484 69.0832 242.256ZM78.8148 239.761V243.38L82.3524 239.761H84.0316L80.1516 243.609L84.2435 248.043H82.5317L78.8148 243.902V248.043H77.3801V239.761H78.8148ZM94.7856 240.772H90.5959V248.043H89.1613V239.761H96.2203V248.043H94.7856V240.772ZM98.3094 245.532C98.0268 244.369 98.0377 243.245 98.342 242.158C98.6463 241.071 99.2876 240.294 100.266 239.826C100.809 239.566 101.445 239.435 102.173 239.435C102.901 239.435 103.537 239.566 104.08 239.826C105.059 240.283 105.705 241.098 106.02 242.272C106.162 242.815 106.232 243.364 106.232 243.918C106.243 244.462 106.178 245 106.037 245.532C105.906 246.054 105.673 246.532 105.336 246.967C105.01 247.402 104.591 247.744 104.08 247.994C103.526 248.244 102.89 248.369 102.173 248.369C101.456 248.369 100.82 248.244 100.266 247.994C99.3202 247.538 98.6681 246.717 98.3094 245.532ZM99.8255 242.256C99.6842 242.69 99.6136 243.234 99.6136 243.886C99.6136 244.527 99.6842 245.076 99.8255 245.532C99.9668 245.989 100.13 246.331 100.315 246.559C100.706 246.994 101.151 247.25 101.651 247.326C101.999 247.38 102.347 247.38 102.695 247.326C102.847 247.315 103.059 247.239 103.331 247.097C103.624 246.945 103.863 246.755 104.048 246.527C104.233 246.299 104.39 245.967 104.521 245.532C104.662 245.076 104.733 244.527 104.733 243.886C104.733 243.234 104.662 242.69 104.521 242.256C104.369 241.777 104.2 241.435 104.015 241.229C103.841 241.022 103.624 240.848 103.363 240.707C103.102 240.566 102.88 240.479 102.695 240.446C102.347 240.392 101.999 240.392 101.651 240.446C101.499 240.457 101.282 240.538 100.999 240.691C100.445 240.962 100.054 241.484 99.8255 242.256ZM107.079 250.195L106.949 247.032H107.992C108.894 245.706 109.345 243.745 109.345 241.147V239.761H115.279V247.032H116.714L116.6 250.195H115.393V248.043H108.286V250.195H107.079ZM113.845 247.032V240.772H110.682V241.93C110.682 242.81 110.584 243.723 110.389 244.668C110.215 245.603 109.921 246.391 109.508 247.032H113.845ZM127.277 244.179H123.185V248.043H121.75V239.761H123.185V243.169H127.277V239.761H128.712V248.043H127.277V244.179ZM132.156 242.207H130.787C130.787 241.555 131.004 240.957 131.439 240.413C131.96 239.761 132.917 239.435 134.308 239.435C135.123 239.435 135.84 239.598 136.46 239.924C136.819 240.098 137.101 240.386 137.308 240.788C137.514 241.19 137.612 241.669 137.601 242.223L137.52 246.054C137.52 246.369 137.552 246.614 137.617 246.788C137.715 246.962 137.971 247.043 138.384 247.032V248.043C138.221 248.086 138.003 248.108 137.732 248.108C137.253 248.108 136.906 248.027 136.688 247.864C136.482 247.701 136.335 247.38 136.248 246.902C135.716 247.88 134.77 248.369 133.411 248.369C132.477 248.369 131.754 248.163 131.243 247.75C130.743 247.326 130.493 246.701 130.493 245.875C130.493 245.092 130.776 244.5 131.341 244.098C131.906 243.674 132.977 243.391 134.553 243.25C135.281 243.196 135.716 243.125 135.857 243.038C136.063 242.897 136.167 242.587 136.167 242.109C136.167 241 135.547 240.446 134.308 240.446C132.841 240.446 132.124 241.033 132.156 242.207ZM136.134 244.505L136.167 243.804C136.004 243.924 135.764 244.022 135.449 244.098C134.971 244.13 134.601 244.168 134.341 244.212C133.439 244.364 132.89 244.489 132.694 244.587C132.216 244.815 131.977 245.228 131.977 245.826C131.977 246.304 132.118 246.679 132.401 246.951C132.694 247.222 133.085 247.358 133.574 247.358C133.89 247.358 134.178 247.315 134.438 247.228C134.71 247.141 134.971 247 135.221 246.804C135.482 246.597 135.688 246.299 135.84 245.907C136.004 245.516 136.101 245.049 136.134 244.505ZM145.699 240.772H141.509V248.043H140.075V239.761H147.134V248.043H145.699V240.772ZM150.918 239.761V246.364L155.239 239.761H156.836V248.043H155.402V241.424L151.098 248.043H149.484V239.761H150.918ZM161.087 248.043V240.772H158.217V239.761H165.391V240.772H162.521V248.043H161.087ZM168.017 239.761V243.38L171.555 239.761H173.234L169.354 243.609L173.446 248.043H171.734L168.017 243.902V248.043H166.582V239.761H168.017ZM175.993 239.761V246.364L180.313 239.761H181.911V248.043H180.476V241.424L176.172 248.043H174.558V239.761H175.993Z" fill="black"/>
<path d="M214.313 293.553H208.406V296.487H205.453V299.422H202.499V308.225H205.453V311.159H208.406V314.094H211.36V317.028H214.313V319.963H217.267V322.897H220.22V319.963H223.174V317.028H226.127V314.094H229.081V311.159H232.034V308.225H234.988V299.422H232.034V296.487H229.081V293.553H223.174V296.487H220.22V299.422H217.267V296.487H214.313V293.553ZM214.313 296.487V299.422H217.267V302.356H220.22V299.422H223.174V296.487H229.081V299.422H232.034V308.225H229.081V311.159H226.127V314.094H223.174V317.028H220.22V319.963H217.267V317.028H214.313V314.094H211.36V311.159H208.406V308.225H205.453V299.422H208.406V296.487H214.313Z" fill="black"/>
<path d="M211.156 336.902H205.417V347.026H203.885V335.615H212.688V347.026H211.156V336.902ZM215.247 350.042V338.745H216.584V339.886H216.633C217.285 338.908 218.198 338.419 219.371 338.419C220.447 338.419 221.339 338.794 222.045 339.544C222.752 340.304 223.105 341.418 223.105 342.886C223.105 344.385 222.746 345.505 222.029 346.244C221.322 346.983 220.447 347.352 219.404 347.352C219.078 347.352 218.681 347.282 218.214 347.14C217.529 346.934 217.018 346.499 216.682 345.836V350.042H215.247ZM216.584 342.918C216.584 344.07 216.845 344.934 217.366 345.51C217.91 346.065 218.502 346.342 219.143 346.342C219.817 346.342 220.393 346.07 220.871 345.527C221.35 344.961 221.589 344.081 221.589 342.886C221.589 341.799 221.366 340.951 220.92 340.342C220.486 339.734 219.866 339.429 219.062 339.429C218.638 339.429 218.241 339.544 217.872 339.772C217.013 340.283 216.584 341.331 216.584 342.918ZM226.409 338.745V345.347L230.729 338.745H232.327V347.026H230.892V340.408L226.588 347.026H224.974V338.745H226.409ZM240.343 339.755H236.105V347.026H234.67V338.745H240.343V339.755ZM241.048 344.516C240.765 343.353 240.776 342.228 241.08 341.141C241.385 340.054 242.026 339.277 243.004 338.81C243.548 338.549 244.183 338.419 244.912 338.419C245.64 338.419 246.276 338.549 246.819 338.81C247.797 339.266 248.444 340.081 248.759 341.255C248.9 341.799 248.971 342.348 248.971 342.902C248.982 343.445 248.917 343.983 248.775 344.516C248.645 345.037 248.411 345.516 248.074 345.95C247.748 346.385 247.33 346.727 246.819 346.977C246.265 347.227 245.629 347.352 244.912 347.352C244.194 347.352 243.558 347.227 243.004 346.977C242.059 346.521 241.407 345.7 241.048 344.516ZM242.564 341.239C242.423 341.674 242.352 342.217 242.352 342.869C242.352 343.51 242.423 344.059 242.564 344.516C242.705 344.972 242.868 345.315 243.053 345.543C243.444 345.978 243.89 346.233 244.39 346.309C244.738 346.363 245.085 346.363 245.433 346.309C245.585 346.298 245.797 346.222 246.069 346.081C246.362 345.929 246.602 345.738 246.786 345.51C246.971 345.282 247.129 344.951 247.259 344.516C247.4 344.059 247.471 343.51 247.471 342.869C247.471 342.217 247.4 341.674 247.259 341.239C247.107 340.761 246.939 340.418 246.754 340.212C246.58 340.005 246.362 339.832 246.102 339.69C245.841 339.549 245.618 339.462 245.433 339.429C245.085 339.375 244.738 339.375 244.39 339.429C244.238 339.44 244.02 339.522 243.738 339.674C243.183 339.946 242.792 340.467 242.564 341.239ZM249.818 349.178L249.687 346.016H250.731C251.633 344.69 252.084 342.728 252.084 340.13V338.745H258.018V346.016H259.452L259.338 349.178H258.132V347.026H251.024V349.178H249.818ZM256.583 346.016V339.755H253.42V340.913C253.42 341.793 253.323 342.706 253.127 343.652C252.953 344.586 252.66 345.374 252.247 346.016H256.583ZM266.651 344.63H268.02C267.89 345.358 267.536 345.994 266.96 346.537C266.384 347.081 265.531 347.352 264.401 347.352C262.868 347.352 261.744 346.847 261.026 345.836C260.668 345.304 260.434 344.733 260.325 344.125C260.249 343.701 260.211 343.299 260.211 342.918C260.211 342.19 260.32 341.505 260.537 340.864C260.678 340.408 260.885 340.011 261.157 339.674C261.45 339.315 261.869 339.016 262.412 338.777C262.955 338.538 263.569 338.419 264.254 338.419C265.471 338.419 266.39 338.756 267.009 339.429C267.27 339.712 267.482 340.071 267.645 340.505C267.884 341.136 268.031 341.902 268.085 342.804C268.085 342.837 268.085 342.907 268.085 343.016C268.096 343.125 268.102 343.19 268.102 343.212H261.727C261.727 344.038 261.945 344.766 262.379 345.396C262.814 346.026 263.472 346.342 264.352 346.342C264.982 346.342 265.499 346.184 265.901 345.869C266.303 345.554 266.553 345.141 266.651 344.63ZM261.727 342.201H266.585C266.575 341.56 266.422 340.967 266.129 340.424C265.792 339.761 265.178 339.429 264.287 339.429C263.276 339.429 262.58 339.766 262.2 340.44C261.885 340.984 261.727 341.57 261.727 342.201ZM275.508 343.163H271.416V347.026H269.981V338.745H271.416V342.152H275.508V338.745H276.943V347.026H275.508V343.163ZM202.629 367.178L202.499 364.016H203.542C204.444 362.69 204.895 360.728 204.895 358.13V356.745H210.83V364.016H212.264L212.15 367.178H210.944V365.026H203.836V367.178H202.629ZM209.395 364.016V357.755H206.232V358.913C206.232 359.793 206.134 360.706 205.939 361.652C205.765 362.586 205.472 363.374 205.059 364.016H209.395ZM212.948 365.026V363.967C213.763 364.206 214.339 363.82 214.676 362.809C214.763 362.559 214.823 362.25 214.855 361.88L214.92 360.886C214.931 360.712 214.937 360.369 214.937 359.858V356.745H220.675V365.026H219.241V357.755H216.274V359.858C216.274 360.543 216.257 361.119 216.225 361.587C216.192 362.043 216.11 362.543 215.98 363.086C215.795 363.858 215.464 364.407 214.986 364.733C214.507 365.059 213.828 365.157 212.948 365.026ZM228.086 361.766H226.195L224.027 365.026H222.446L224.728 361.75C224.098 361.684 223.587 361.44 223.195 361.016C222.804 360.592 222.609 360.038 222.609 359.353C222.609 358.712 222.777 358.152 223.114 357.674C223.516 357.054 224.277 356.745 225.396 356.745H229.521V365.026H228.086V361.766ZM228.086 360.755V357.755H226.016C224.733 357.755 224.092 358.272 224.092 359.304C224.092 359.728 224.25 360.076 224.565 360.348C224.88 360.619 225.38 360.755 226.065 360.755H228.086ZM241.297 357.755H237.107V365.026H235.673V356.745H242.732V365.026H241.297V357.755ZM251.049 362.63H252.418C252.288 363.358 251.934 363.994 251.358 364.537C250.782 365.081 249.929 365.352 248.799 365.352C247.266 365.352 246.142 364.847 245.424 363.836C245.066 363.304 244.832 362.733 244.723 362.125C244.647 361.701 244.609 361.299 244.609 360.918C244.609 360.19 244.718 359.505 244.935 358.864C245.076 358.408 245.283 358.011 245.555 357.674C245.848 357.315 246.267 357.016 246.81 356.777C247.353 356.538 247.967 356.419 248.652 356.419C249.869 356.419 250.788 356.756 251.407 357.429C251.668 357.712 251.88 358.071 252.043 358.505C252.282 359.136 252.429 359.902 252.483 360.804C252.483 360.837 252.483 360.907 252.483 361.016C252.494 361.125 252.499 361.19 252.499 361.212H246.125C246.125 362.038 246.343 362.766 246.777 363.396C247.212 364.026 247.87 364.342 248.75 364.342C249.38 364.342 249.897 364.184 250.299 363.869C250.701 363.554 250.951 363.141 251.049 362.63ZM246.125 360.201H250.983C250.972 359.56 250.82 358.967 250.527 358.424C250.19 357.761 249.576 357.429 248.685 357.429C247.674 357.429 246.978 357.766 246.598 358.44C246.283 358.984 246.125 359.57 246.125 360.201ZM254.379 368.042V356.745H255.716V357.886H255.765C256.417 356.908 257.33 356.419 258.504 356.419C259.58 356.419 260.471 356.794 261.178 357.544C261.884 358.304 262.237 359.418 262.237 360.886C262.237 362.385 261.879 363.505 261.161 364.244C260.455 364.983 259.58 365.352 258.537 365.352C258.21 365.352 257.814 365.282 257.346 365.14C256.662 364.934 256.151 364.499 255.814 363.836V368.042H254.379ZM255.716 360.918C255.716 362.07 255.977 362.934 256.499 363.51C257.042 364.065 257.634 364.342 258.276 364.342C258.95 364.342 259.526 364.07 260.004 363.527C260.482 362.961 260.721 362.081 260.721 360.886C260.721 359.799 260.498 358.951 260.053 358.342C259.618 357.734 258.998 357.429 258.194 357.429C257.77 357.429 257.374 357.544 257.004 357.772C256.145 358.283 255.716 359.331 255.716 360.918ZM270.073 362.63H271.443C271.312 363.358 270.959 363.994 270.383 364.537C269.807 365.081 268.954 365.352 267.824 365.352C266.291 365.352 265.166 364.847 264.449 363.836C264.09 363.304 263.857 362.733 263.748 362.125C263.672 361.701 263.634 361.299 263.634 360.918C263.634 360.19 263.743 359.505 263.96 358.864C264.101 358.408 264.308 358.011 264.58 357.674C264.873 357.315 265.291 357.016 265.835 356.777C266.378 356.538 266.992 356.419 267.677 356.419C268.894 356.419 269.813 356.756 270.432 357.429C270.693 357.712 270.905 358.071 271.068 358.505C271.307 359.136 271.454 359.902 271.508 360.804C271.508 360.837 271.508 360.907 271.508 361.016C271.519 361.125 271.524 361.19 271.524 361.212H265.15C265.15 362.038 265.367 362.766 265.802 363.396C266.237 364.026 266.894 364.342 267.775 364.342C268.405 364.342 268.921 364.184 269.324 363.869C269.726 363.554 269.976 363.141 270.073 362.63ZM265.15 360.201H270.008C269.997 359.56 269.845 358.967 269.552 358.424C269.215 357.761 268.601 357.429 267.71 357.429C266.699 357.429 266.003 357.766 265.623 358.44C265.308 358.984 265.15 359.57 265.15 360.201ZM273.404 368.042V356.745H274.741V357.886H274.79C275.442 356.908 276.355 356.419 277.529 356.419C278.605 356.419 279.496 356.794 280.202 357.544C280.909 358.304 281.262 359.418 281.262 360.886C281.262 362.385 280.903 363.505 280.186 364.244C279.48 364.983 278.605 365.352 277.561 365.352C277.235 365.352 276.839 365.282 276.371 365.14C275.687 364.934 275.176 364.499 274.839 363.836V368.042H273.404ZM274.741 360.918C274.741 362.07 275.002 362.934 275.524 363.51C276.067 364.065 276.659 364.342 277.301 364.342C277.974 364.342 278.55 364.07 279.029 363.527C279.507 362.961 279.746 362.081 279.746 360.886C279.746 359.799 279.523 358.951 279.078 358.342C278.643 357.734 278.023 357.429 277.219 357.429C276.795 357.429 276.399 357.544 276.029 357.772C275.17 358.283 274.741 359.331 274.741 360.918ZM284.224 359.19H282.855C282.855 358.538 283.072 357.94 283.507 357.397C284.028 356.745 284.985 356.419 286.376 356.419C287.191 356.419 287.908 356.582 288.528 356.908C288.886 357.082 289.169 357.37 289.376 357.772C289.582 358.174 289.68 358.652 289.669 359.206L289.587 363.037C289.587 363.353 289.62 363.597 289.685 363.771C289.783 363.945 290.039 364.026 290.452 364.016V365.026C290.288 365.07 290.071 365.092 289.799 365.092C289.321 365.092 288.973 365.01 288.756 364.847C288.55 364.684 288.403 364.363 288.316 363.885C287.783 364.863 286.838 365.352 285.479 365.352C284.545 365.352 283.822 365.146 283.311 364.733C282.811 364.309 282.561 363.684 282.561 362.858C282.561 362.076 282.844 361.483 283.409 361.081C283.974 360.657 285.045 360.375 286.62 360.233C287.349 360.179 287.783 360.108 287.925 360.021C288.131 359.88 288.234 359.57 288.234 359.092C288.234 357.984 287.615 357.429 286.376 357.429C284.909 357.429 284.191 358.016 284.224 359.19ZM288.202 361.489L288.234 360.788C288.071 360.907 287.832 361.005 287.517 361.081C287.039 361.114 286.669 361.152 286.408 361.195C285.506 361.347 284.958 361.472 284.762 361.57C284.284 361.798 284.045 362.211 284.045 362.809C284.045 363.287 284.186 363.662 284.468 363.934C284.762 364.206 285.153 364.342 285.642 364.342C285.957 364.342 286.245 364.298 286.506 364.211C286.778 364.124 287.039 363.983 287.289 363.787C287.55 363.581 287.756 363.282 287.908 362.891C288.071 362.499 288.169 362.032 288.202 361.489ZM298.028 353.077H299.251C299.207 353.87 298.838 354.397 298.142 354.658C297.762 354.788 297.436 354.875 297.164 354.919C295.947 355.071 295.24 355.174 295.044 355.229C294.305 355.435 293.74 355.81 293.349 356.353C292.958 356.886 292.751 357.652 292.73 358.652H292.762C293.284 357.25 294.354 356.549 295.974 356.549C297.289 356.549 298.272 356.984 298.924 357.853C299.587 358.712 299.919 359.766 299.919 361.016C299.919 362.211 299.577 363.233 298.892 364.081C298.207 364.929 297.191 365.352 295.843 365.352C294.354 365.352 293.251 364.787 292.534 363.657C292.175 363.037 291.931 362.342 291.8 361.57C291.713 360.962 291.67 360.358 291.67 359.761C291.67 357.663 291.99 356.196 292.632 355.359C293.197 354.631 293.963 354.163 294.93 353.957C295.843 353.75 296.615 353.631 297.245 353.598C297.669 353.544 297.93 353.37 298.028 353.077ZM293.186 361.114C293.186 361.831 293.349 362.521 293.675 363.184C294.055 363.956 294.767 364.342 295.811 364.342C296.637 364.342 297.273 364.065 297.718 363.51C298.175 362.945 298.403 362.168 298.403 361.179C298.403 360.364 298.262 359.608 297.979 358.913C297.62 358.011 296.898 357.56 295.811 357.56C294.724 357.56 293.99 358 293.61 358.88C293.327 359.554 293.186 360.299 293.186 361.114ZM301.53 362.516C301.247 361.353 301.258 360.228 301.562 359.141C301.867 358.054 302.508 357.277 303.486 356.81C304.029 356.549 304.665 356.419 305.393 356.419C306.121 356.419 306.757 356.549 307.301 356.81C308.279 357.266 308.925 358.081 309.241 359.255C309.382 359.799 309.453 360.348 309.453 360.902C309.463 361.445 309.398 361.983 309.257 362.516C309.127 363.037 308.893 363.516 308.556 363.95C308.23 364.385 307.811 364.727 307.301 364.977C306.746 365.227 306.111 365.352 305.393 365.352C304.676 365.352 304.04 365.227 303.486 364.977C302.54 364.521 301.888 363.7 301.53 362.516ZM303.046 359.239C302.904 359.674 302.834 360.217 302.834 360.869C302.834 361.51 302.904 362.059 303.046 362.516C303.187 362.972 303.35 363.315 303.535 363.543C303.926 363.978 304.372 364.233 304.872 364.309C305.219 364.363 305.567 364.363 305.915 364.309C306.067 364.298 306.279 364.222 306.551 364.081C306.844 363.929 307.083 363.738 307.268 363.51C307.453 363.282 307.61 362.951 307.741 362.516C307.882 362.059 307.953 361.51 307.953 360.869C307.953 360.217 307.882 359.674 307.741 359.239C307.589 358.761 307.42 358.418 307.235 358.212C307.062 358.005 306.844 357.832 306.583 357.69C306.323 357.549 306.1 357.462 305.915 357.429C305.567 357.375 305.219 357.375 304.872 357.429C304.719 357.44 304.502 357.522 304.22 357.674C303.665 357.946 303.274 358.467 303.046 359.239ZM312.741 365.026V357.755H309.871V356.745H317.044V357.755H314.175V365.026H312.741ZM319.671 356.745V360.364L323.209 356.745H324.888L321.008 360.592L325.1 365.026H323.388L319.671 360.886V365.026H318.236V356.745H319.671ZM327.647 356.745V363.347L331.967 356.745H333.565V365.026H332.13V358.408L327.826 365.026H326.212V356.745H327.647Z" fill="black"/>
<path d="M37.9994 290.944H35.0353V293.908H32.0712V296.873H29.1071V299.837H26.143V302.801H23.1789V305.765H20.2148V308.729H23.1789V311.693H26.143V314.657H29.1071V317.621H32.0712V320.585H35.0353V323.549H37.9994V320.585H40.9635V317.621H43.9276V314.657H46.8917V311.693H49.8558V308.729H52.8199V305.765H49.8558V302.801H46.8917V299.837H43.9276V296.873H40.9635V293.908H37.9994V290.944ZM37.9994 293.908V296.873H40.9635V299.837H43.9276V302.801H46.8917V305.765H49.8558V308.729H46.8917V311.693H43.9276V314.657H40.9635V317.621H37.9994V320.585H35.0353V317.621H32.0712V314.657H29.1071V311.693H26.143V308.729H23.1789V305.765H26.143V302.801H29.1071V299.837H32.0712V296.873H35.0353V293.908H37.9994ZM37.9994 299.837H35.0353V308.729H37.9994V299.837ZM37.9994 311.693H35.0353V314.657H37.9994V311.693Z" fill="black"/>
<path d="M22.2364 335.615L25.5132 342.478L28.252 335.615H29.8659L26.0022 344.989C25.5566 346.021 25.0621 346.662 24.5187 346.912C24.1166 347.097 23.6438 347.189 23.1004 347.189C22.6222 347.189 22.1983 347.135 21.8288 347.026V345.69C22.1874 345.809 22.5461 345.869 22.9048 345.869C23.1656 345.869 23.383 345.842 23.5569 345.787C23.7416 345.733 23.9427 345.575 24.1601 345.315C24.3774 345.054 24.5567 344.679 24.698 344.19L20.3616 335.615H22.2364ZM36.32 347.026H35.2114L32.4073 340.375H32.3747L32.4073 340.815V347.026H30.9727V338.745H32.9453L35.7657 345.478L38.586 338.745H40.5586V347.026H39.124V340.815L39.1729 340.375H39.124L36.32 347.026ZM48.8798 344.63H50.2492C50.1188 345.358 49.7655 345.994 49.1895 346.537C48.6135 347.081 47.7603 347.352 46.63 347.352C45.0976 347.352 43.9727 346.847 43.2554 345.836C42.8967 345.304 42.6631 344.733 42.5544 344.125C42.4783 343.701 42.4403 343.299 42.4403 342.918C42.4403 342.19 42.549 341.505 42.7663 340.864C42.9076 340.408 43.1141 340.011 43.3858 339.674C43.6793 339.315 44.0977 339.016 44.6411 338.777C45.1845 338.538 45.7986 338.419 46.4833 338.419C47.7006 338.419 48.6189 338.756 49.2384 339.429C49.4993 339.712 49.7112 340.071 49.8742 340.505C50.1133 341.136 50.2601 341.902 50.3144 342.804C50.3144 342.837 50.3144 342.907 50.3144 343.016C50.3253 343.125 50.3307 343.19 50.3307 343.212H43.9564C43.9564 344.038 44.1738 344.766 44.6085 345.396C45.0432 346.026 45.7008 346.342 46.5811 346.342C47.2115 346.342 47.7277 346.184 48.1299 345.869C48.532 345.554 48.782 345.141 48.8798 344.63ZM43.9564 342.201H48.8146C48.8037 341.56 48.6515 340.967 48.3581 340.424C48.0212 339.761 47.4071 339.429 46.5159 339.429C45.5052 339.429 44.8096 339.766 44.4292 340.44C44.114 340.984 43.9564 341.57 43.9564 342.201ZM52.2106 350.042V338.745H53.5474V339.886H53.5963C54.2484 338.908 55.1613 338.419 56.3351 338.419C57.4111 338.419 58.3023 338.794 59.0087 339.544C59.7152 340.304 60.0684 341.418 60.0684 342.886C60.0684 344.385 59.7097 345.505 58.9924 346.244C58.286 346.983 57.4111 347.352 56.3677 347.352C56.0417 347.352 55.645 347.282 55.1776 347.14C54.4929 346.934 53.9821 346.499 53.6452 345.836V350.042H52.2106ZM53.5474 342.918C53.5474 344.07 53.8082 344.934 54.3299 345.51C54.8733 346.065 55.4657 346.342 56.1069 346.342C56.7807 346.342 57.3567 346.07 57.835 345.527C58.3132 344.961 58.5523 344.081 58.5523 342.886C58.5523 341.799 58.3295 340.951 57.8839 340.342C57.4491 339.734 56.8296 339.429 56.0254 339.429C55.6015 339.429 55.2048 339.544 54.8353 339.772C53.9767 340.283 53.5474 341.331 53.5474 342.918ZM67.9047 344.63H69.2741C69.1437 345.358 68.7905 345.994 68.2144 346.537C67.6384 347.081 66.7852 347.352 65.6549 347.352C64.1225 347.352 62.9976 346.847 62.2803 345.836C61.9217 345.304 61.688 344.733 61.5793 344.125C61.5032 343.701 61.4652 343.299 61.4652 342.918C61.4652 342.19 61.5739 341.505 61.7912 340.864C61.9325 340.408 62.139 340.011 62.4107 339.674C62.7042 339.315 63.1226 339.016 63.666 338.777C64.2094 338.538 64.8235 338.419 65.5082 338.419C66.7255 338.419 67.6438 338.756 68.2633 339.429C68.5242 339.712 68.7361 340.071 68.8991 340.505C69.1382 341.136 69.285 341.902 69.3393 342.804C69.3393 342.837 69.3393 342.907 69.3393 343.016C69.3502 343.125 69.3556 343.19 69.3556 343.212H62.9813C62.9813 344.038 63.1987 344.766 63.6334 345.396C64.0682 346.026 64.7257 346.342 65.606 346.342C66.2364 346.342 66.7526 346.184 67.1548 345.869C67.5569 345.554 67.8069 345.141 67.9047 344.63ZM62.9813 342.201H67.8395C67.8286 341.56 67.6765 340.967 67.383 340.424C67.0461 339.761 66.432 339.429 65.5408 339.429C64.5301 339.429 63.8345 339.766 63.4541 340.44C63.1389 340.984 62.9813 341.57 62.9813 342.201ZM76.7621 343.163H72.6701V347.026H71.2355V338.745H72.6701V342.152H76.7621V338.745H78.1967V347.026H76.7621V343.163ZM86.0755 343.163H81.9836V347.026H80.5489V338.745H81.9836V342.152H86.0755V338.745H87.5101V347.026H86.0755V343.163ZM89.8624 347.026V338.745H91.297V342.021H93.3837C94.0467 342.021 94.601 342.087 95.0466 342.217C96.1117 342.489 96.666 343.266 96.7095 344.548C96.7095 345.309 96.4758 345.912 96.0085 346.358C95.552 346.804 94.8401 347.026 93.8728 347.026H89.8624ZM93.0414 343.032H91.297V346.016H93.3022C94.5847 346.016 95.2259 345.494 95.2259 344.451C95.2259 343.94 95.0575 343.57 94.7206 343.342C94.6119 343.255 94.4325 343.184 94.1826 343.13C93.9217 343.065 93.5413 343.032 93.0414 343.032ZM97.7202 347.026V338.745H99.1548V347.026H97.7202ZM102.935 338.745V345.347L107.255 338.745H108.853V347.026H107.418V340.408L103.114 347.026H101.5V338.745H102.935ZM106.717 335.615H107.94C107.712 336.81 106.994 337.511 105.788 337.718C105.581 337.75 105.364 337.767 105.136 337.767C103.734 337.767 102.837 337.196 102.446 336.055C102.413 335.979 102.375 335.832 102.332 335.615H103.554C103.522 335.897 103.62 336.163 103.848 336.413C104.011 336.587 104.201 336.718 104.418 336.805C104.614 336.87 104.853 336.902 105.136 336.902C105.603 336.902 105.989 336.788 106.293 336.56C106.597 336.321 106.739 336.006 106.717 335.615ZM21.6984 368.026V366.966C22.1114 367.021 22.3505 367.048 22.4157 367.048C22.8287 367.048 23.1221 366.896 23.296 366.591C23.4047 366.428 23.4753 366.293 23.508 366.184C23.5406 366.13 23.6112 365.95 23.7199 365.646L23.9155 365.026L20.329 356.745H22.0407L24.698 363.445L26.8989 356.745H28.3335L25.0404 366.005C24.7796 366.744 24.5567 367.227 24.372 367.455C24.0025 367.89 23.5025 368.108 22.8722 368.108C22.3831 368.108 21.9918 368.08 21.6984 368.026ZM29.508 368.042V356.745H30.8449V357.886H30.8938C31.5459 356.908 32.4588 356.419 33.6326 356.419C34.7086 356.419 35.5998 356.794 36.3062 357.544C37.0126 358.304 37.3659 359.418 37.3659 360.886C37.3659 362.385 37.0072 363.505 36.2899 364.244C35.5835 364.983 34.7086 365.352 33.6652 365.352C33.3391 365.352 32.9424 365.282 32.4751 365.14C31.7904 364.934 31.2796 364.499 30.9427 363.836V368.042H29.508ZM30.8449 360.918C30.8449 362.07 31.1057 362.934 31.6274 363.51C32.1708 364.065 32.7631 364.342 33.4043 364.342C34.0782 364.342 34.6542 364.07 35.1324 363.527C35.6106 362.961 35.8497 362.081 35.8497 360.886C35.8497 359.799 35.6269 358.951 35.1813 358.342C34.7466 357.734 34.1271 357.429 33.3228 357.429C32.899 357.429 32.5023 357.544 32.1328 357.772C31.2742 358.283 30.8449 359.331 30.8449 360.918ZM38.9746 362.516C38.692 361.353 38.7029 360.228 39.0072 359.141C39.3115 358.054 39.9527 357.277 40.9309 356.81C41.4743 356.549 42.1101 356.419 42.8383 356.419C43.5665 356.419 44.2023 356.549 44.7457 356.81C45.7238 357.266 46.3705 358.081 46.6857 359.255C46.827 359.799 46.8976 360.348 46.8976 360.902C46.9085 361.445 46.8433 361.983 46.702 362.516C46.5716 363.037 46.3379 363.516 46.001 363.95C45.6749 364.385 45.2565 364.727 44.7457 364.977C44.1914 365.227 43.5556 365.352 42.8383 365.352C42.121 365.352 41.4852 365.227 40.9309 364.977C39.9853 364.521 39.3332 363.7 38.9746 362.516ZM40.4907 359.239C40.3494 359.674 40.2788 360.217 40.2788 360.869C40.2788 361.51 40.3494 362.059 40.4907 362.516C40.632 362.972 40.795 363.315 40.9798 363.543C41.3711 363.978 41.8167 364.233 42.3166 364.309C42.6644 364.363 43.0122 364.363 43.36 364.309C43.5121 364.298 43.7241 364.222 43.9958 364.081C44.2892 363.929 44.5283 363.738 44.7131 363.51C44.8978 363.282 45.0554 362.951 45.1859 362.516C45.3271 362.059 45.3978 361.51 45.3978 360.869C45.3978 360.217 45.3271 359.674 45.1859 359.239C45.0337 358.761 44.8652 358.418 44.6805 358.212C44.5066 358.005 44.2892 357.832 44.0284 357.69C43.7675 357.549 43.5447 357.462 43.36 357.429C43.0122 357.375 42.6644 357.375 42.3166 357.429C42.1645 357.44 41.9471 357.522 41.6645 357.674C41.1102 357.946 40.719 358.467 40.4907 359.239ZM48.7877 365.026V356.745H52.7329C54.4827 356.745 55.3576 357.402 55.3576 358.717C55.3576 359.663 54.8577 360.31 53.8578 360.657V360.706C54.5316 360.869 54.9989 361.13 55.2598 361.489C55.5315 361.847 55.6674 362.309 55.6674 362.874C55.6674 363.777 55.3359 364.374 54.6729 364.668C54.1295 364.907 53.4665 365.026 52.684 365.026H48.7877ZM52.2764 357.755H50.2223V360.201H52.2112C52.7872 360.201 53.2111 360.087 53.4828 359.858C53.7654 359.619 53.9067 359.31 53.9067 358.929C53.9067 358.147 53.3633 357.755 52.2764 357.755ZM52.2764 361.212H50.2223V364.016H52.3253C53.5643 364.016 54.1838 363.592 54.1838 362.744C54.1838 361.722 53.548 361.212 52.2764 361.212ZM63.5425 362.63H64.9119C64.7815 363.358 64.4283 363.994 63.8522 364.537C63.2762 365.081 62.4231 365.352 61.2927 365.352C59.7603 365.352 58.6354 364.847 57.9181 363.836C57.5595 363.304 57.3258 362.733 57.2171 362.125C57.141 361.701 57.103 361.299 57.103 360.918C57.103 360.19 57.2117 359.505 57.429 358.864C57.5703 358.408 57.7768 358.011 58.0485 357.674C58.342 357.315 58.7604 357.016 59.3038 356.777C59.8473 356.538 60.4613 356.419 61.146 356.419C62.3633 356.419 63.2817 356.756 63.9011 357.429C64.162 357.712 64.3739 358.071 64.5369 358.505C64.776 359.136 64.9228 359.902 64.9771 360.804C64.9771 360.837 64.9771 360.907 64.9771 361.016C64.988 361.125 64.9934 361.19 64.9934 361.212H58.6191C58.6191 362.038 58.8365 362.766 59.2712 363.396C59.706 364.026 60.3635 364.342 61.2438 364.342C61.8742 364.342 62.3904 364.184 62.7926 363.869C63.1947 363.554 63.4447 363.141 63.5425 362.63ZM58.6191 360.201H63.4773C63.4664 359.56 63.3143 358.967 63.0208 358.424C62.6839 357.761 62.0698 357.429 61.1786 357.429C60.1679 357.429 59.4723 357.766 59.0919 358.44C58.7767 358.984 58.6191 359.57 58.6191 360.201ZM72.3999 361.163H68.3079V365.026H66.8733V356.745H68.3079V360.152H72.3999V356.745H73.8345V365.026H72.3999V361.163ZM76.1868 365.026V356.745H77.6214V360.038H79.6918C80.5069 360.038 81.2079 360.157 81.7948 360.396C82.6099 360.69 83.0175 361.375 83.0175 362.451C83.0175 363.342 82.7567 364.005 82.235 364.439C82.0176 364.613 81.7622 364.744 81.4688 364.831C81.0775 364.961 80.6482 365.026 80.1809 365.026H76.1868ZM79.3657 361.049H77.6214V364.016H79.6103C80.2841 364.016 80.7786 363.88 81.0938 363.608C81.409 363.293 81.5557 362.907 81.534 362.451C81.534 361.951 81.371 361.581 81.0449 361.342C80.9362 361.266 80.7623 361.201 80.5232 361.146C80.2624 361.081 79.92 361.049 79.4962 361.049H79.3657ZM88.105 362.516C87.8225 361.353 87.8333 360.228 88.1376 359.141C88.442 358.054 89.0832 357.277 90.0613 356.81C90.6048 356.549 91.2406 356.419 91.9687 356.419C92.6969 356.419 93.3327 356.549 93.8761 356.81C94.8543 357.266 95.501 358.081 95.8161 359.255C95.9574 359.799 96.0281 360.348 96.0281 360.902C96.0389 361.445 95.9737 361.983 95.8324 362.516C95.702 363.037 95.4683 363.516 95.1314 363.95C94.8054 364.385 94.3869 364.727 93.8761 364.977C93.3218 365.227 92.6861 365.352 91.9687 365.352C91.2514 365.352 90.6156 365.227 90.0613 364.977C89.1158 364.521 88.4637 363.7 88.105 362.516ZM89.6212 359.239C89.4799 359.674 89.4092 360.217 89.4092 360.869C89.4092 361.51 89.4799 362.059 89.6212 362.516C89.7625 362.972 89.9255 363.315 90.1103 363.543C90.5015 363.978 90.9471 364.233 91.4471 364.309C91.7948 364.363 92.1426 364.363 92.4904 364.309C92.6426 364.298 92.8545 364.222 93.1262 364.081C93.4197 363.929 93.6588 363.738 93.8435 363.51C94.0283 363.282 94.1859 362.951 94.3163 362.516C94.4576 362.059 94.5282 361.51 94.5282 360.869C94.5282 360.217 94.4576 359.674 94.3163 359.239C94.1641 358.761 93.9957 358.418 93.8109 358.212C93.637 358.005 93.4197 357.832 93.1588 357.69C92.898 357.549 92.6752 357.462 92.4904 357.429C92.1426 357.375 91.7948 357.375 91.4471 357.429C91.2949 357.44 91.0775 357.522 90.795 357.674C90.2407 357.946 89.8494 358.467 89.6212 359.239ZM103.543 357.755H99.3528V365.026H97.9181V356.745H104.977V365.026H103.543V357.755ZM108.419 359.19H107.05C107.05 358.538 107.267 357.94 107.702 357.397C108.224 356.745 109.18 356.419 110.571 356.419C111.386 356.419 112.104 356.582 112.723 356.908C113.082 357.082 113.364 357.37 113.571 357.772C113.777 358.174 113.875 358.652 113.864 359.206L113.783 363.037C113.783 363.353 113.816 363.597 113.881 363.771C113.979 363.945 114.234 364.026 114.647 364.016V365.026C114.484 365.07 114.267 365.092 113.995 365.092C113.517 365.092 113.169 365.01 112.951 364.847C112.745 364.684 112.598 364.363 112.511 363.885C111.979 364.863 111.033 365.352 109.675 365.352C108.74 365.352 108.017 365.146 107.506 364.733C107.007 364.309 106.757 363.684 106.757 362.858C106.757 362.076 107.039 361.483 107.604 361.081C108.169 360.657 109.24 360.375 110.816 360.233C111.544 360.179 111.979 360.108 112.12 360.021C112.327 359.88 112.43 359.57 112.43 359.092C112.43 357.984 111.81 357.429 110.571 357.429C109.104 357.429 108.387 358.016 108.419 359.19ZM112.397 361.489L112.43 360.788C112.267 360.907 112.028 361.005 111.712 361.081C111.234 361.114 110.865 361.152 110.604 361.195C109.702 361.347 109.153 361.472 108.957 361.57C108.479 361.798 108.24 362.211 108.24 362.809C108.24 363.287 108.381 363.662 108.664 363.934C108.957 364.206 109.349 364.342 109.838 364.342C110.153 364.342 110.441 364.298 110.702 364.211C110.973 364.124 111.234 363.983 111.484 363.787C111.745 363.581 111.952 363.282 112.104 362.891C112.267 362.499 112.365 362.032 112.397 361.489ZM122.142 362.076H123.511C123.468 362.706 123.229 363.369 122.794 364.065C122.555 364.456 122.18 364.771 121.669 365.01C121.169 365.238 120.582 365.352 119.908 365.352C119.68 365.352 119.517 365.347 119.419 365.336C118.941 365.314 118.452 365.189 117.952 364.961C116.561 364.266 115.865 362.885 115.865 360.82C115.865 359.733 116.115 358.766 116.615 357.918C117.235 356.919 118.3 356.419 119.811 356.419C120.876 356.419 121.723 356.69 122.354 357.234C122.984 357.766 123.348 358.467 123.446 359.337H122.077C121.859 358.065 121.115 357.429 119.843 357.429C119.017 357.429 118.398 357.734 117.985 358.342C117.583 358.94 117.381 359.766 117.381 360.82C117.381 361.842 117.593 362.684 118.017 363.347C118.441 364.01 119.082 364.342 119.941 364.342C120.68 364.342 121.218 364.108 121.555 363.641C121.914 363.173 122.109 362.652 122.142 362.076ZM130.796 361.163H126.704V365.026H125.269V356.745H126.704V360.152H130.796V356.745H132.231V365.026H130.796V361.163ZM134.322 362.516C134.039 361.353 134.05 360.228 134.355 359.141C134.659 358.054 135.3 357.277 136.278 356.81C136.822 356.549 137.458 356.419 138.186 356.419C138.914 356.419 139.55 356.549 140.093 356.81C141.071 357.266 141.718 358.081 142.033 359.255C142.174 359.799 142.245 360.348 142.245 360.902C142.256 361.445 142.191 361.983 142.049 362.516C141.919 363.037 141.685 363.516 141.348 363.95C141.022 364.385 140.604 364.727 140.093 364.977C139.539 365.227 138.903 365.352 138.186 365.352C137.468 365.352 136.833 365.227 136.278 364.977C135.333 364.521 134.681 363.7 134.322 362.516ZM135.838 359.239C135.697 359.674 135.626 360.217 135.626 360.869C135.626 361.51 135.697 362.059 135.838 362.516C135.979 362.972 136.143 363.315 136.327 363.543C136.719 363.978 137.164 364.233 137.664 364.309C138.012 364.363 138.36 364.363 138.707 364.309C138.86 364.298 139.072 364.222 139.343 364.081C139.637 363.929 139.876 363.738 140.061 363.51C140.245 363.282 140.403 362.951 140.533 362.516C140.675 362.059 140.745 361.51 140.745 360.869C140.745 360.217 140.675 359.674 140.533 359.239C140.381 358.761 140.213 358.418 140.028 358.212C139.854 358.005 139.637 357.832 139.376 357.69C139.115 357.549 138.892 357.462 138.707 357.429C138.36 357.375 138.012 357.375 137.664 357.429C137.512 357.44 137.295 357.522 137.012 357.674C136.458 357.946 136.066 358.467 135.838 359.239ZM149.939 362.076H151.308C151.265 362.706 151.026 363.369 150.591 364.065C150.352 364.456 149.977 364.771 149.466 365.01C148.966 365.238 148.379 365.352 147.705 365.352C147.477 365.352 147.314 365.347 147.216 365.336C146.738 365.314 146.249 365.189 145.749 364.961C144.358 364.266 143.662 362.885 143.662 360.82C143.662 359.733 143.912 358.766 144.412 357.918C145.032 356.919 146.097 356.419 147.608 356.419C148.673 356.419 149.52 356.69 150.151 357.234C150.781 357.766 151.145 358.467 151.243 359.337H149.874C149.656 358.065 148.912 357.429 147.64 357.429C146.814 357.429 146.195 357.734 145.782 358.342C145.38 358.94 145.179 359.766 145.179 360.82C145.179 361.842 145.39 362.684 145.814 363.347C146.238 364.01 146.879 364.342 147.738 364.342C148.477 364.342 149.015 364.108 149.352 363.641C149.711 363.173 149.906 362.652 149.939 362.076ZM154.687 365.026V357.755H151.818V356.745H158.991V357.755H156.122V365.026H154.687ZM161.522 356.745V363.347L165.842 356.745H167.44V365.026H166.005V358.408L161.701 365.026H160.087V356.745H161.522Z" fill="black"/>
<path d="M112.797 38.6709V22.6944H119.302C122.908 22.6944 124.711 24.2236 124.711 27.282C124.711 30.6294 122.84 32.3031 119.096 32.3031H114.943V38.6709H112.797ZM118.868 24.4975H114.943V30.5001H118.868C120.131 30.5001 121.052 30.2414 121.63 29.7241C122.223 29.1915 122.52 28.3927 122.52 27.3276C122.52 26.3386 122.223 25.6234 121.63 25.1822C121.036 24.7257 120.116 24.4975 118.868 24.4975ZM129.519 24.4975V29.5187H137.896V31.3217H129.519V36.8678H139.014V38.6709H127.374V22.6944H138.763V24.4975H129.519ZM144.909 38.6709V24.4975H139.706V22.6944H152.236V24.4975H147.055V38.6709H144.909ZM151.1 38.6709V36.1831H153.36V39.3784C153.36 40.1392 153.147 40.7402 152.721 41.1815C152.295 41.6227 151.755 41.9118 151.1 42.0488V40.7935C151.42 40.7631 151.686 40.6033 151.899 40.3142C152.127 40.0403 152.241 39.7284 152.241 39.3784V38.6709H151.1ZM157.709 38.6709V22.6944H164.213C167.82 22.6944 169.623 24.2236 169.623 27.282C169.623 30.6294 167.751 32.3031 164.008 32.3031H159.854V38.6709H157.709ZM163.78 24.4975H159.854V30.5001H163.78C165.043 30.5001 165.963 30.2414 166.541 29.7241C167.135 29.1915 167.432 28.3927 167.432 27.3276C167.432 26.3386 167.135 25.6234 166.541 25.1822C165.948 24.7257 165.027 24.4975 163.78 24.4975ZM174.431 24.4975V29.5187H182.807V31.3217H174.431V36.8678H183.925V38.6709H172.285V22.6944H183.674V24.4975H174.431ZM189.821 38.6709V24.4975H184.617V22.6944H197.147V24.4975H191.966V38.6709H189.821ZM201.534 24.4975V29.5187H209.91V31.3217H201.534V36.8678H211.028V38.6709H199.388V22.6944H210.777V24.4975H201.534ZM212.861 42.8933H211.423L219.571 22.6944H221.009L212.861 42.8933ZM233.127 24.4975H225.093V38.6709H222.947V22.6944H235.272V38.6709H233.127V24.4975ZM242.78 31.3217V29.5187H250.312C250.312 28.697 250.152 27.883 249.833 27.0765C249.528 26.2093 248.988 25.4941 248.212 24.9311C247.451 24.3529 246.44 24.0486 245.177 24.0182C243.868 24.0182 242.811 24.3301 242.004 24.954C241.213 25.5626 240.749 26.3614 240.612 27.3504H238.467C238.588 25.9354 239.189 24.7333 240.27 23.7443C241.38 22.7249 242.948 22.2151 244.971 22.2151C246.143 22.2151 247.2 22.3977 248.144 22.7629C249.087 23.1129 249.84 23.5845 250.403 24.178C250.936 24.7105 251.377 25.3724 251.727 26.1636C252.305 27.4265 252.594 28.872 252.594 30.5001C252.594 32.1282 252.343 33.5965 251.841 34.905C251.522 35.7114 251.096 36.419 250.563 37.0276C250.015 37.6514 249.262 38.1612 248.304 38.5568C247.36 38.9524 246.28 39.1502 245.063 39.1502C244.104 39.1502 243.237 39.0133 242.461 38.7394C241.685 38.4807 241.053 38.146 240.566 37.7351C240.079 37.3243 239.661 36.845 239.311 36.2973C238.976 35.7343 238.725 35.2017 238.558 34.6996C238.406 34.1823 238.299 33.6573 238.238 33.1248H240.384C240.49 33.8399 240.718 34.517 241.068 35.1561C241.951 36.6168 243.313 37.3471 245.154 37.3471C246.721 37.3471 247.916 36.9211 248.737 36.069C249.696 35.0648 250.221 33.7334 250.312 32.0749C250.342 31.8162 250.342 31.5652 250.312 31.3217H242.78ZM259.116 38.6709V24.4975H253.912V22.6944H266.443V24.4975H261.262V38.6709H259.116ZM268.784 38.6709V36.1831H271.044V39.3784C271.044 40.1392 270.831 40.7402 270.405 41.1815C269.979 41.6227 269.438 41.9118 268.784 42.0488V40.7935C269.104 40.7631 269.37 40.6033 269.583 40.3142C269.811 40.0403 269.925 39.7284 269.925 39.3784V38.6709H268.784ZM285.572 24.4975H277.538V38.6709H275.393V22.6944H287.717V38.6709H285.572V24.4975ZM295.225 31.3217V29.5187H302.757C302.757 28.697 302.597 27.883 302.278 27.0765C301.973 26.2093 301.433 25.4941 300.657 24.9311C299.897 24.3529 298.885 24.0486 297.622 24.0182C296.313 24.0182 295.256 24.3301 294.449 24.954C293.658 25.5626 293.194 26.3614 293.057 27.3504H290.912C291.033 25.9354 291.634 24.7333 292.715 23.7443C293.825 22.7249 295.393 22.2151 297.416 22.2151C298.588 22.2151 299.645 22.3977 300.589 22.7629C301.532 23.1129 302.285 23.5845 302.848 24.178C303.381 24.7105 303.822 25.3724 304.172 26.1636C304.75 27.4265 305.039 28.872 305.039 30.5001C305.039 32.1282 304.788 33.5965 304.286 34.905C303.967 35.7114 303.541 36.419 303.008 37.0276C302.46 37.6514 301.707 38.1612 300.749 38.5568C299.805 38.9524 298.725 39.1502 297.508 39.1502C296.549 39.1502 295.682 39.0133 294.906 38.7394C294.13 38.4807 293.498 38.146 293.011 37.7351C292.525 37.3243 292.106 36.845 291.756 36.2973C291.421 35.7343 291.17 35.2017 291.003 34.6996C290.851 34.1823 290.744 33.6573 290.683 33.1248H292.829C292.935 33.8399 293.164 34.517 293.514 35.1561C294.396 36.6168 295.758 37.3471 297.599 37.3471C299.166 37.3471 300.361 36.9211 301.182 36.069C302.141 35.0648 302.666 33.7334 302.757 32.0749C302.787 31.8162 302.787 31.5652 302.757 31.3217H295.225ZM311.561 38.6709V24.4975H306.357V22.6944H318.888V24.4975H313.707V38.6709H311.561ZM329.103 39.2643H326.957V36.8678H326.067C325.702 36.8678 325.421 36.8602 325.223 36.845C324.219 36.7233 323.351 36.5407 322.621 36.2973C320.095 35.293 318.832 33.3682 318.832 30.5229C318.832 30.1882 318.84 29.9371 318.855 29.7697C318.977 28.8872 319.19 28.1264 319.494 27.4874C320.651 25.2963 322.842 24.2008 326.067 24.2008H326.957V21.7815H329.103V24.2008H329.993C331.347 24.2008 332.587 24.429 333.713 24.8855C335.996 25.7376 337.167 27.6167 337.228 30.5229C337.243 31.8162 336.977 32.9118 336.429 33.8095C335.897 34.692 335.212 35.3615 334.375 35.818C333.903 36.1071 333.363 36.3353 332.755 36.5027C331.72 36.7461 330.799 36.8678 329.993 36.8678H329.103V39.2643ZM326.364 35.1789H326.957V25.8897H326.364C324.553 25.8897 323.184 26.3234 322.256 27.1907C321.921 27.495 321.662 27.9058 321.48 28.4231C321.236 29.0926 321.115 29.7925 321.115 30.5229V31.162C321.16 31.7858 321.305 32.3564 321.548 32.8737C322.279 34.4105 323.884 35.1789 326.364 35.1789ZM329.103 25.8897V35.1789H329.719C333.204 35.1789 334.946 33.6269 334.946 30.5229C334.946 27.4341 333.204 25.8897 329.719 25.8897H329.103ZM122.976 47.4975H114.943V61.6709H112.797V45.6944H125.122V61.6709H122.976V47.4975ZM128.339 58.1561C127.944 56.528 127.959 54.9532 128.385 53.4316C128.811 51.91 129.709 50.8221 131.078 50.1678C131.839 49.8027 132.729 49.6201 133.748 49.6201C134.768 49.6201 135.658 49.8027 136.419 50.1678C137.788 50.8069 138.693 51.9481 139.135 53.5914C139.332 54.3522 139.431 55.1205 139.431 55.8965C139.447 56.6573 139.355 57.4105 139.157 58.1561C138.975 58.8864 138.648 59.5559 138.176 60.1645C137.72 60.7732 137.134 61.2525 136.419 61.6024C135.643 61.9524 134.753 62.1274 133.748 62.1274C132.744 62.1274 131.854 61.9524 131.078 61.6024C129.754 60.9634 128.841 59.8146 128.339 58.1561ZM130.462 53.5685C130.264 54.1772 130.165 54.938 130.165 55.8509C130.165 56.7486 130.264 57.517 130.462 58.1561C130.66 58.7951 130.888 59.2744 131.146 59.594C131.694 60.2026 132.318 60.5602 133.018 60.6667C133.505 60.7427 133.992 60.7427 134.479 60.6667C134.692 60.6514 134.988 60.5449 135.369 60.3471C135.78 60.1341 136.114 59.8678 136.373 59.5483C136.632 59.2288 136.852 58.7647 137.035 58.1561C137.233 57.517 137.332 56.7486 137.332 55.8509C137.332 54.938 137.233 54.1772 137.035 53.5685C136.822 52.8991 136.586 52.4198 136.327 52.1307C136.084 51.8416 135.78 51.5981 135.414 51.4003C135.049 51.2025 134.737 51.0808 134.479 51.0351C133.992 50.9591 133.505 50.9591 133.018 51.0351C132.805 51.0503 132.501 51.1645 132.105 51.3775C131.329 51.7579 130.781 52.4882 130.462 53.5685ZM140.731 61.6709V60.1874C141.872 60.5221 142.678 59.982 143.15 58.5669C143.272 58.2169 143.356 57.7833 143.401 57.266L143.493 55.8737C143.508 55.6303 143.515 55.151 143.515 54.4358V50.0765H151.549V61.6709H149.541V51.4916H145.387V54.4358C145.387 55.3944 145.364 56.2009 145.318 56.8551C145.273 57.4942 145.159 58.1941 144.976 58.9549C144.717 60.0352 144.253 60.8036 143.584 61.2601C142.914 61.7165 141.963 61.8535 140.731 61.6709ZM156.835 50.0765V59.3201L162.883 50.0765H165.12V61.6709H163.111V52.4045L157.086 61.6709H154.827V50.0765H156.835ZM176.274 56.353H171.276V54.938H176.274C176.259 54.2533 176.16 53.6598 175.978 53.1577C175.795 52.6556 175.582 52.2752 175.339 52.0165C175.095 51.7579 174.806 51.5525 174.471 51.4003C174.137 51.2329 173.855 51.134 173.627 51.1036C173.414 51.058 173.201 51.0351 172.988 51.0351C171.999 51.0351 171.2 51.2862 170.591 51.7883C169.998 52.2752 169.671 52.9143 169.61 53.7055H167.693C167.891 52.1078 168.644 50.9438 169.952 50.2135C170.287 50.0005 170.652 49.8635 171.048 49.8027C171.672 49.6809 172.25 49.6201 172.782 49.6201C176.525 49.6201 178.397 51.7351 178.397 55.965C178.397 60.0733 176.564 62.1274 172.897 62.1274C171.999 62.1274 171.215 62.0133 170.546 61.785C168.994 61.2981 168.012 59.9211 167.601 57.654H169.519C169.777 59.6929 170.903 60.7123 172.897 60.7123C173.627 60.7123 174.243 60.5525 174.745 60.233C175.247 59.8983 175.597 59.457 175.795 58.9093C176.115 58.0115 176.274 57.1594 176.274 56.353ZM183.419 61.6709V51.4916H179.402V50.0765H189.444V51.4916H185.427V61.6709H183.419ZM192.987 50.0765V59.3201L199.035 50.0765H201.272V61.6709H199.264V52.4045L193.238 61.6709H190.979V50.0765H192.987ZM203.206 61.6709V60.1874C204.347 60.5221 205.153 59.982 205.625 58.5669C205.747 58.2169 205.831 57.7833 205.876 57.266L205.967 55.8737C205.983 55.6303 205.99 55.151 205.99 54.4358V50.0765H214.024V61.6709H212.016V51.4916H207.862V54.4358C207.862 55.3944 207.839 56.2009 207.793 56.8551C207.748 57.4942 207.634 58.1941 207.451 58.9549C207.192 60.0352 206.728 60.8036 206.059 61.2601C205.389 61.7165 204.438 61.8535 203.206 61.6709ZM225.655 58.3158H227.572C227.389 59.3353 226.895 60.2254 226.089 60.9862C225.282 61.747 224.088 62.1274 222.505 62.1274C220.36 62.1274 218.785 61.4198 217.781 60.0048C217.279 59.2592 216.952 58.4604 216.799 57.6083C216.693 57.0149 216.64 56.4519 216.64 55.9194C216.64 54.8999 216.792 53.9413 217.096 53.0436C217.294 52.4045 217.583 51.8492 217.963 51.3775C218.374 50.8754 218.96 50.4569 219.721 50.1222C220.482 49.7874 221.341 49.6201 222.3 49.6201C224.004 49.6201 225.29 50.0918 226.157 51.0351C226.522 51.4307 226.819 51.9329 227.047 52.5415C227.382 53.424 227.587 54.4967 227.663 55.7596C227.663 55.8053 227.663 55.9042 227.663 56.0563C227.679 56.2085 227.686 56.2998 227.686 56.3302H218.762C218.762 57.4866 219.067 58.506 219.675 59.3885C220.284 60.2711 221.204 60.7123 222.437 60.7123C223.319 60.7123 224.042 60.4917 224.605 60.0504C225.168 59.6092 225.518 59.031 225.655 58.3158ZM218.762 54.9151H225.564C225.548 54.0174 225.335 53.1882 224.925 52.4274C224.453 51.4992 223.593 51.0351 222.345 51.0351C220.93 51.0351 219.957 51.5068 219.424 52.4502C218.983 53.211 218.762 54.0326 218.762 54.9151ZM238.055 56.2617H232.327V61.6709H230.318V50.0765H232.327V54.8467H238.055V50.0765H240.064V61.6709H238.055V56.2617ZM246.027 61.6709V51.4916H242.01V50.0765H252.053V51.4916H248.036V61.6709H246.027ZM261.762 58.3158H263.68C263.497 59.3353 263.003 60.2254 262.196 60.9862C261.39 61.747 260.195 62.1274 258.613 62.1274C256.467 62.1274 254.893 61.4198 253.888 60.0048C253.386 59.2592 253.059 58.4604 252.907 57.6083C252.8 57.0149 252.747 56.4519 252.747 55.9194C252.747 54.8999 252.899 53.9413 253.204 53.0436C253.401 52.4045 253.691 51.8492 254.071 51.3775C254.482 50.8754 255.068 50.4569 255.828 50.1222C256.589 49.7874 257.449 49.6201 258.407 49.6201C260.112 49.6201 261.397 50.0918 262.265 51.0351C262.63 51.4307 262.926 51.9329 263.155 52.5415C263.489 53.424 263.695 54.4967 263.771 55.7596C263.771 55.8053 263.771 55.9042 263.771 56.0563C263.786 56.2085 263.794 56.2998 263.794 56.3302H254.87C254.87 57.4866 255.174 58.506 255.783 59.3885C256.391 60.2711 257.312 60.7123 258.544 60.7123C259.427 60.7123 260.15 60.4917 260.713 60.0504C261.276 59.6092 261.625 59.031 261.762 58.3158ZM254.87 54.9151H261.671C261.656 54.0174 261.443 53.1882 261.032 52.4274C260.56 51.4992 259.701 51.0351 258.453 51.0351C257.038 51.0351 256.064 51.5068 255.532 52.4502C255.09 53.211 254.87 54.0326 254.87 54.9151ZM266.426 65.8933V50.0765H268.297V51.6742H268.366C269.279 50.3048 270.557 49.6201 272.2 49.6201C273.706 49.6201 274.954 50.145 275.943 51.1949C276.932 52.26 277.427 53.8196 277.427 55.8737C277.427 57.9735 276.924 59.5407 275.92 60.5754C274.931 61.61 273.706 62.1274 272.246 62.1274C271.789 62.1274 271.234 62.0285 270.579 61.8307C269.621 61.5416 268.906 60.9329 268.434 60.0048V65.8933H266.426ZM268.297 55.9194C268.297 57.5322 268.662 58.7419 269.393 59.5483C270.153 60.3243 270.983 60.7123 271.88 60.7123C272.824 60.7123 273.63 60.3319 274.3 59.5711C274.969 58.7799 275.304 57.5474 275.304 55.8737C275.304 54.3522 274.992 53.1653 274.368 52.3133C273.76 51.4612 272.892 51.0351 271.766 51.0351C271.173 51.0351 270.617 51.1949 270.1 51.5144C268.898 52.2296 268.297 53.6979 268.297 55.9194ZM288.397 58.3158H290.315C290.132 59.3353 289.637 60.2254 288.831 60.9862C288.025 61.747 286.83 62.1274 285.248 62.1274C283.102 62.1274 281.527 61.4198 280.523 60.0048C280.021 59.2592 279.694 58.4604 279.542 57.6083C279.435 57.0149 279.382 56.4519 279.382 55.9194C279.382 54.8999 279.534 53.9413 279.839 53.0436C280.036 52.4045 280.325 51.8492 280.706 51.3775C281.117 50.8754 281.702 50.4569 282.463 50.1222C283.224 49.7874 284.084 49.6201 285.042 49.6201C286.746 49.6201 288.032 50.0918 288.899 51.0351C289.265 51.4307 289.561 51.9329 289.79 52.5415C290.124 53.424 290.33 54.4967 290.406 55.7596C290.406 55.8053 290.406 55.9042 290.406 56.0563C290.421 56.2085 290.429 56.2998 290.429 56.3302H281.505C281.505 57.4866 281.809 58.506 282.418 59.3885C283.026 60.2711 283.947 60.7123 285.179 60.7123C286.062 60.7123 286.784 60.4917 287.347 60.0504C287.91 59.6092 288.26 59.031 288.397 58.3158ZM281.505 54.9151H288.306C288.291 54.0174 288.078 53.1882 287.667 52.4274C287.195 51.4992 286.336 51.0351 285.088 51.0351C283.673 51.0351 282.699 51.5068 282.167 52.4502C281.725 53.211 281.505 54.0326 281.505 54.9151ZM301.482 65.8933H299.474V61.9676C298.15 61.9372 297.009 61.7546 296.05 61.4198C295.107 61.0699 294.377 60.5982 293.859 60.0048C293.342 59.4114 292.969 58.7723 292.741 58.0876C292.513 57.4029 292.399 56.6421 292.399 55.8053C292.399 54.6945 292.634 53.6598 293.106 52.7013C294.034 50.7232 296.157 49.757 299.474 49.8027V45.6944H301.482V49.8027C302.852 49.7722 304.061 49.97 305.111 50.3961C305.796 50.6547 306.374 50.9971 306.846 51.4231C307.363 51.8492 307.774 52.4502 308.078 53.2262C308.398 53.987 308.558 54.8467 308.558 55.8053C308.558 57.7224 307.979 59.2136 306.823 60.2787C305.667 61.3438 303.886 61.9067 301.482 61.9676V65.8933ZM299.474 60.5525V51.2177C298.317 51.1416 297.245 51.3927 296.256 51.9709C295.099 52.6708 294.521 53.9413 294.521 55.7824C294.521 57.3344 294.932 58.4984 295.754 59.2744C296.727 60.1569 297.968 60.583 299.474 60.5525ZM301.482 51.2177V60.5525C303.445 60.5525 304.792 59.9972 305.522 58.8864C306.131 57.9583 306.435 56.9236 306.435 55.7824C306.435 55.4173 306.405 55.0521 306.344 54.6869C306.283 54.3065 306.138 53.8881 305.91 53.4316C305.697 52.9751 305.416 52.5871 305.066 52.2676C304.731 51.9329 304.252 51.6666 303.628 51.4688C303.019 51.2558 302.304 51.1721 301.482 51.2177ZM313.272 61.6709V51.4916H309.255V50.0765H319.297V51.4916H315.28V61.6709H313.272ZM322.183 53.5001H320.266C320.266 52.5871 320.57 51.7503 321.179 50.9895C321.909 50.0765 323.248 49.6201 325.196 49.6201C326.337 49.6201 327.341 49.8483 328.208 50.3048C328.71 50.5482 329.106 50.9514 329.395 51.5144C329.684 52.0774 329.821 52.7469 329.806 53.5229L329.692 58.8864C329.692 59.3277 329.738 59.67 329.829 59.9135C329.966 60.1569 330.323 60.2711 330.902 60.2558V61.6709C330.673 61.7318 330.369 61.7622 329.989 61.7622C329.319 61.7622 328.832 61.6481 328.528 61.4198C328.239 61.1916 328.033 60.7427 327.912 60.0733C327.166 61.4427 325.842 62.1274 323.94 62.1274C322.632 62.1274 321.62 61.8383 320.905 61.2601C320.205 60.6667 319.855 59.7918 319.855 58.6354C319.855 57.5398 320.251 56.7106 321.042 56.1476C321.833 55.5542 323.332 55.1586 325.538 54.9608C326.557 54.8847 327.166 54.7858 327.364 54.6641C327.653 54.4663 327.798 54.0326 327.798 53.3631C327.798 51.8111 326.93 51.0351 325.196 51.0351C323.142 51.0351 322.137 51.8568 322.183 53.5001ZM327.752 56.7182L327.798 55.7368C327.569 55.9042 327.235 56.0411 326.793 56.1476C326.124 56.1933 325.606 56.2465 325.241 56.3074C323.978 56.5204 323.21 56.6954 322.936 56.8323C322.267 57.1518 321.932 57.73 321.932 58.5669C321.932 59.2364 322.13 59.7613 322.525 60.1417C322.936 60.5221 323.484 60.7123 324.169 60.7123C324.61 60.7123 325.013 60.6514 325.378 60.5297C325.759 60.408 326.124 60.2102 326.474 59.9363C326.839 59.6472 327.128 59.2288 327.341 58.681C327.569 58.1333 327.706 57.479 327.752 56.7182ZM331.922 61.6709V60.1874C333.064 60.5221 333.87 59.982 334.342 58.5669C334.464 58.2169 334.547 57.7833 334.593 57.266L334.684 55.8737C334.699 55.6303 334.707 55.151 334.707 54.4358V50.0765H342.741V61.6709H340.732V51.4916H336.578V54.4358C336.578 55.3944 336.556 56.2009 336.51 56.8551C336.464 57.4942 336.35 58.1941 336.168 58.9549C335.909 60.0352 335.445 60.8036 334.775 61.2601C334.106 61.7165 333.155 61.8535 331.922 61.6709ZM347.547 53.5001H345.63C345.63 52.5871 345.934 51.7503 346.543 50.9895C347.273 50.0765 348.612 49.6201 350.56 49.6201C351.701 49.6201 352.705 49.8483 353.573 50.3048C354.075 50.5482 354.47 50.9514 354.76 51.5144C355.049 52.0774 355.186 52.7469 355.17 53.5229L355.056 58.8864C355.056 59.3277 355.102 59.67 355.193 59.9135C355.33 60.1569 355.688 60.2711 356.266 60.2558V61.6709C356.038 61.7318 355.733 61.7622 355.353 61.7622C354.684 61.7622 354.197 61.6481 353.892 61.4198C353.603 61.1916 353.398 60.7427 353.276 60.0733C352.53 61.4427 351.207 62.1274 349.305 62.1274C347.996 62.1274 346.984 61.8383 346.269 61.2601C345.569 60.6667 345.219 59.7918 345.219 58.6354C345.219 57.5398 345.615 56.7106 346.406 56.1476C347.197 55.5542 348.696 55.1586 350.902 54.9608C351.922 54.8847 352.53 54.7858 352.728 54.6641C353.017 54.4663 353.162 54.0326 353.162 53.3631C353.162 51.8111 352.295 51.0351 350.56 51.0351C348.506 51.0351 347.502 51.8568 347.547 53.5001ZM353.116 56.7182L353.162 55.7368C352.934 55.9042 352.599 56.0411 352.158 56.1476C351.488 56.1933 350.971 56.2465 350.606 56.3074C349.343 56.5204 348.574 56.6954 348.301 56.8323C347.631 57.1518 347.296 57.73 347.296 58.5669C347.296 59.2364 347.494 59.7613 347.89 60.1417C348.301 60.5221 348.848 60.7123 349.533 60.7123C349.974 60.7123 350.377 60.6514 350.743 60.5297C351.123 60.408 351.488 60.2102 351.838 59.9363C352.203 59.6472 352.492 59.2288 352.705 58.681C352.934 58.1333 353.071 57.479 353.116 56.7182ZM360.591 61.6709V51.4916H356.574V50.0765H366.616V51.4916H362.599V61.6709H360.591Z" fill="black"/>
<path d="M57.474 132.999H53.8223V131.88H54.3016C55.3058 131.88 56.1579 131.622 56.8578 131.104C57.573 130.572 57.9914 129.88 58.1131 129.027H59.6195V145.004H57.474V132.999Z" fill="black"/>
<path d="M27.0595 157.028C26.5791 156.198 26.329 155.254 26.3351 154.293C26.3413 153.333 26.6035 152.393 27.0946 151.568L35.7199 136.88L37.672 145.509L42.962 144.305L38.9134 126.409L21.0681 130.469L22.2683 135.774L31.2777 133.724L22.4203 148.808C21.4499 150.46 20.9324 152.341 20.92 154.259C20.9077 156.176 21.401 158.063 22.35 159.728C23.2991 161.393 24.67 162.777 26.3241 163.739C27.9781 164.702 29.8565 165.208 31.7688 165.208H45.7425L51.1669 159.769H31.7688C30.8114 159.775 29.8699 159.524 29.0419 159.042C28.2139 158.56 27.5294 157.865 27.0595 157.028ZM63.5133 105.469L72.6241 120.984L64.309 119.683L63.4727 125.057L81.553 127.886L84.3737 109.755L79.0142 108.916L77.5101 118.584L68.1876 102.708C67.2294 101.076 65.8628 99.7231 64.2232 98.7831C62.5836 97.8431 60.7277 97.3486 58.839 97.3486C56.9504 97.3486 55.0945 97.8431 53.4548 98.7831C51.8152 99.7231 50.4487 101.076 49.4904 102.708L42.7203 114.237L44.4844 121.953L54.1646 105.469C54.6437 104.653 55.327 103.976 56.1467 103.506C56.9665 103.036 57.8944 102.789 58.8387 102.789C59.783 102.789 60.7109 103.036 61.5306 103.506C62.3504 103.976 63.0342 104.653 63.5133 105.469ZM95.2581 148.808L87.144 134.99L80.1689 133.832L90.5839 151.568C91.0691 152.395 91.3279 153.335 91.3341 154.294C91.3403 155.253 91.0936 156.196 90.619 157.028C90.1445 157.861 89.459 158.553 88.6319 159.034C87.8048 159.515 86.8656 159.769 85.9095 159.769H67.0166L73.519 153.248L69.6834 149.402L56.7442 162.378L69.6834 175.354L73.519 171.507L67.2382 165.209H85.9095C87.8218 165.209 89.7001 164.702 91.3541 163.74C93.0082 162.777 94.3792 161.393 95.3282 159.729C96.2772 158.064 96.7705 156.177 96.7582 154.259C96.7459 152.341 96.2285 150.46 95.2581 148.808Z" fill="black"/>
</svg>
