<svg width="595" height="595" viewBox="0 0 595 595" fill="none" xmlns="http://www.w3.org/2000/svg">
<rect width="595" height="595" fill="#FFFF00"/>
<path d="M47.6 307.5V323.025H50.125L49.9 328.95H47.85V325H34.25V328.95H32.2L32 323.025H33.575C35.7917 320.258 36.9 316.283 36.9 311.1V307.5H47.6ZM45.25 323.025V309.475H39.25V311.65C39.25 314.133 39.0417 316.242 38.625 317.975C38.1917 319.775 37.4417 321.458 36.375 323.025H45.25ZM53.932 316.05H51.832C51.832 315.05 52.1654 314.133 52.832 313.3C53.632 312.3 55.0987 311.8 57.232 311.8C58.482 311.8 59.582 312.05 60.532 312.55C61.082 312.817 61.5154 313.258 61.832 313.875C62.1487 314.492 62.2987 315.225 62.282 316.075L62.157 321.95C62.157 322.433 62.207 322.808 62.307 323.075C62.457 323.342 62.8487 323.467 63.482 323.45V325C63.232 325.067 62.8987 325.1 62.482 325.1C61.7487 325.1 61.2154 324.975 60.882 324.725C60.5654 324.475 60.3404 323.983 60.207 323.25C59.3904 324.75 57.9404 325.5 55.857 325.5C54.4237 325.5 53.3154 325.183 52.532 324.55C51.7654 323.9 51.382 322.942 51.382 321.675C51.382 320.475 51.8154 319.567 52.682 318.95C53.5487 318.3 55.1904 317.867 57.607 317.65C58.7237 317.567 59.3904 317.458 59.607 317.325C59.9237 317.108 60.082 316.633 60.082 315.9C60.082 314.2 59.132 313.35 57.232 313.35C54.982 313.35 53.882 314.25 53.932 316.05ZM60.032 319.575L60.082 318.5C59.832 318.683 59.4654 318.833 58.982 318.95C58.2487 319 57.682 319.058 57.282 319.125C55.8987 319.358 55.057 319.55 54.757 319.7C54.0237 320.05 53.657 320.683 53.657 321.6C53.657 322.333 53.8737 322.908 54.307 323.325C54.757 323.742 55.357 323.95 56.107 323.95C56.5904 323.95 57.032 323.883 57.432 323.75C57.8487 323.617 58.2487 323.4 58.632 323.1C59.032 322.783 59.3487 322.325 59.582 321.725C59.832 321.125 59.982 320.408 60.032 319.575ZM74.5504 319.075H68.2754V325H66.0754V312.3H68.2754V317.525H74.5504V312.3H76.7504V325H74.5504V319.075ZM88.8326 319.075H82.5576V325H80.3576V312.3H82.5576V317.525H88.8326V312.3H91.0326V325H88.8326V319.075ZM94.6398 325V312.3H96.8398V317.325H100.04C101.057 317.325 101.907 317.425 102.59 317.625C104.223 318.042 105.073 319.233 105.14 321.2C105.14 322.367 104.782 323.292 104.065 323.975C103.365 324.658 102.273 325 100.79 325H94.6398ZM99.5148 318.875H96.8398V323.45H99.9148C101.882 323.45 102.865 322.65 102.865 321.05C102.865 320.267 102.607 319.7 102.09 319.35C101.923 319.217 101.648 319.108 101.265 319.025C100.865 318.925 100.282 318.875 99.5148 318.875ZM106.69 325V312.3H108.89V325H106.69ZM114.687 312.3V322.425L121.312 312.3H123.762V325H121.562V314.85L114.962 325H112.487V312.3H114.687ZM120.487 307.5H122.362C122.012 309.333 120.912 310.408 119.062 310.725C118.745 310.775 118.412 310.8 118.062 310.8C115.912 310.8 114.537 309.925 113.937 308.175C113.887 308.058 113.828 307.833 113.762 307.5H115.637C115.587 307.933 115.737 308.342 116.087 308.725C116.337 308.992 116.628 309.192 116.962 309.325C117.262 309.425 117.628 309.475 118.062 309.475C118.778 309.475 119.37 309.3 119.837 308.95C120.303 308.583 120.52 308.1 120.487 307.5ZM133.19 325V312.3H139.24C141.923 312.3 143.265 313.308 143.265 315.325C143.265 316.775 142.498 317.767 140.965 318.3V318.375C141.998 318.625 142.715 319.025 143.115 319.575C143.531 320.125 143.74 320.833 143.74 321.7C143.74 323.083 143.231 324 142.215 324.45C141.381 324.817 140.365 325 139.165 325H133.19ZM138.54 313.85H135.39V317.6H138.44C139.323 317.6 139.973 317.425 140.39 317.075C140.823 316.708 141.04 316.233 141.04 315.65C141.04 314.45 140.206 313.85 138.54 313.85ZM138.54 319.15H135.39V323.45H138.615C140.515 323.45 141.465 322.8 141.465 321.5C141.465 319.933 140.49 319.15 138.54 319.15ZM148.866 312.3V322.425L155.491 312.3H157.941V325H155.741V314.85L149.141 325H146.666V312.3H148.866ZM159.934 328.3L159.734 323.45H161.334C162.718 321.417 163.409 318.408 163.409 314.425V312.3H172.509V323.45H174.709L174.534 328.3H172.684V325H161.784V328.3H159.934ZM170.309 323.45V313.85H165.459V315.625C165.459 316.975 165.309 318.375 165.009 319.825C164.743 321.258 164.293 322.467 163.659 323.45H170.309ZM191.058 313.85H184.633V325H182.433V312.3H193.258V325H191.058V313.85ZM195.387 325V323.375C196.637 323.742 197.52 323.15 198.037 321.6C198.17 321.217 198.262 320.742 198.312 320.175L198.412 318.65C198.428 318.383 198.437 317.858 198.437 317.075V312.3H207.237V325H205.037V313.85H200.487V317.075C200.487 318.125 200.462 319.008 200.412 319.725C200.362 320.425 200.237 321.192 200.037 322.025C199.753 323.208 199.245 324.05 198.512 324.55C197.778 325.05 196.737 325.2 195.387 325ZM212.501 316.05H210.401C210.401 315.05 210.735 314.133 211.401 313.3C212.201 312.3 213.668 311.8 215.801 311.8C217.051 311.8 218.151 312.05 219.101 312.55C219.651 312.817 220.085 313.258 220.401 313.875C220.718 314.492 220.868 315.225 220.851 316.075L220.726 321.95C220.726 322.433 220.776 322.808 220.876 323.075C221.026 323.342 221.418 323.467 222.051 323.45V325C221.801 325.067 221.468 325.1 221.051 325.1C220.318 325.1 219.785 324.975 219.451 324.725C219.135 324.475 218.91 323.983 218.776 323.25C217.96 324.75 216.51 325.5 214.426 325.5C212.993 325.5 211.885 325.183 211.101 324.55C210.335 323.9 209.951 322.942 209.951 321.675C209.951 320.475 210.385 319.567 211.251 318.95C212.118 318.3 213.76 317.867 216.176 317.65C217.293 317.567 217.96 317.458 218.176 317.325C218.493 317.108 218.651 316.633 218.651 315.9C218.651 314.2 217.701 313.35 215.801 313.35C213.551 313.35 212.451 314.25 212.501 316.05ZM218.601 319.575L218.651 318.5C218.401 318.683 218.035 318.833 217.551 318.95C216.818 319 216.251 319.058 215.851 319.125C214.468 319.358 213.626 319.55 213.326 319.7C212.593 320.05 212.226 320.683 212.226 321.6C212.226 322.333 212.443 322.908 212.876 323.325C213.326 323.742 213.926 323.95 214.676 323.95C215.16 323.95 215.601 323.883 216.001 323.75C216.418 323.617 216.818 323.4 217.201 323.1C217.601 322.783 217.918 322.325 218.151 321.725C218.401 321.125 218.551 320.408 218.601 319.575ZM233.545 320.475H235.645C235.578 321.442 235.211 322.458 234.545 323.525C234.178 324.125 233.603 324.608 232.82 324.975C232.053 325.325 231.153 325.5 230.12 325.5C229.77 325.5 229.52 325.492 229.37 325.475C228.636 325.442 227.886 325.25 227.12 324.9C224.986 323.833 223.92 321.717 223.92 318.55C223.92 316.883 224.303 315.4 225.07 314.1C226.02 312.567 227.653 311.8 229.97 311.8C231.603 311.8 232.903 312.217 233.87 313.05C234.836 313.867 235.395 314.942 235.545 316.275H233.445C233.111 314.325 231.97 313.35 230.02 313.35C228.753 313.35 227.803 313.817 227.17 314.75C226.553 315.667 226.245 316.933 226.245 318.55C226.245 320.117 226.57 321.408 227.22 322.425C227.87 323.442 228.853 323.95 230.17 323.95C231.303 323.95 232.128 323.592 232.645 322.875C233.195 322.158 233.495 321.358 233.545 320.475ZM240.827 325V313.85H236.427V312.3H247.427V313.85H243.027V325H240.827ZM251.308 312.3V322.425L257.933 312.3H260.383V325H258.183V314.85L251.583 325H249.108V312.3H251.308ZM266.176 312.3V317.85L271.601 312.3H274.176L268.226 318.2L274.501 325H271.876L266.176 318.65V325H263.976V312.3H266.176ZM277.882 316.05H275.782C275.782 315.05 276.116 314.133 276.782 313.3C277.582 312.3 279.049 311.8 281.182 311.8C282.432 311.8 283.532 312.05 284.482 312.55C285.032 312.817 285.466 313.258 285.782 313.875C286.099 314.492 286.249 315.225 286.232 316.075L286.107 321.95C286.107 322.433 286.157 322.808 286.257 323.075C286.407 323.342 286.799 323.467 287.432 323.45V325C287.182 325.067 286.849 325.1 286.432 325.1C285.699 325.1 285.166 324.975 284.832 324.725C284.516 324.475 284.291 323.983 284.157 323.25C283.341 324.75 281.891 325.5 279.807 325.5C278.374 325.5 277.266 325.183 276.482 324.55C275.716 323.9 275.332 322.942 275.332 321.675C275.332 320.475 275.766 319.567 276.632 318.95C277.499 318.3 279.141 317.867 281.557 317.65C282.674 317.567 283.341 317.458 283.557 317.325C283.874 317.108 284.032 316.633 284.032 315.9C284.032 314.2 283.082 313.35 281.182 313.35C278.932 313.35 277.832 314.25 277.882 316.05ZM283.982 319.575L284.032 318.5C283.782 318.683 283.416 318.833 282.932 318.95C282.199 319 281.632 319.058 281.232 319.125C279.849 319.358 279.007 319.55 278.707 319.7C277.974 320.05 277.607 320.683 277.607 321.6C277.607 322.333 277.824 322.908 278.257 323.325C278.707 323.742 279.307 323.95 280.057 323.95C280.541 323.95 280.982 323.883 281.382 323.75C281.799 323.617 282.199 323.4 282.582 323.1C282.982 322.783 283.299 322.325 283.532 321.725C283.782 321.125 283.932 320.408 283.982 319.575ZM298.061 312.3V322.425L304.686 312.3H307.136V325H304.936V314.85L298.336 325H295.861V312.3H298.061ZM319.629 320.475H321.729C321.662 321.442 321.295 322.458 320.629 323.525C320.262 324.125 319.687 324.608 318.904 324.975C318.137 325.325 317.237 325.5 316.204 325.5C315.854 325.5 315.604 325.492 315.454 325.475C314.72 325.442 313.97 325.25 313.204 324.9C311.07 323.833 310.004 321.717 310.004 318.55C310.004 316.883 310.387 315.4 311.154 314.1C312.104 312.567 313.737 311.8 316.054 311.8C317.687 311.8 318.987 312.217 319.954 313.05C320.92 313.867 321.479 314.942 321.629 316.275H319.529C319.195 314.325 318.054 313.35 316.104 313.35C314.837 313.35 313.887 313.817 313.254 314.75C312.637 315.667 312.329 316.933 312.329 318.55C312.329 320.117 312.654 321.408 313.304 322.425C313.954 323.442 314.937 323.95 316.254 323.95C317.387 323.95 318.212 323.592 318.729 322.875C319.279 322.158 319.579 321.358 319.629 320.475ZM333.05 313.85H326.625V325H324.425V312.3H335.25V325H333.05V313.85ZM338.454 321.15C338.02 319.367 338.037 317.642 338.504 315.975C338.97 314.308 339.954 313.117 341.454 312.4C342.287 312 343.262 311.8 344.379 311.8C345.495 311.8 346.47 312 347.304 312.4C348.804 313.1 349.795 314.35 350.279 316.15C350.495 316.983 350.604 317.825 350.604 318.675C350.62 319.508 350.52 320.333 350.304 321.15C350.104 321.95 349.745 322.683 349.229 323.35C348.729 324.017 348.087 324.542 347.304 324.925C346.454 325.308 345.479 325.5 344.379 325.5C343.279 325.5 342.304 325.308 341.454 324.925C340.004 324.225 339.004 322.967 338.454 321.15ZM340.779 316.125C340.562 316.792 340.454 317.625 340.454 318.625C340.454 319.608 340.562 320.45 340.779 321.15C340.995 321.85 341.245 322.375 341.529 322.725C342.129 323.392 342.812 323.783 343.579 323.9C344.112 323.983 344.645 323.983 345.179 323.9C345.412 323.883 345.737 323.767 346.154 323.55C346.604 323.317 346.97 323.025 347.254 322.675C347.537 322.325 347.779 321.817 347.979 321.15C348.195 320.45 348.304 319.608 348.304 318.625C348.304 317.625 348.195 316.792 347.979 316.125C347.745 315.392 347.487 314.867 347.204 314.55C346.937 314.233 346.604 313.967 346.204 313.75C345.804 313.533 345.462 313.4 345.179 313.35C344.645 313.267 344.112 313.267 343.579 313.35C343.345 313.367 343.012 313.492 342.579 313.725C341.729 314.142 341.129 314.942 340.779 316.125ZM352.027 325V323.375C353.277 323.742 354.16 323.15 354.677 321.6C354.81 321.217 354.902 320.742 354.952 320.175L355.052 318.65C355.069 318.383 355.077 317.858 355.077 317.075V312.3H363.877V325H361.677V313.85H357.127V317.075C357.127 318.125 357.102 319.008 357.052 319.725C357.002 320.425 356.877 321.192 356.677 322.025C356.394 323.208 355.885 324.05 355.152 324.55C354.419 325.05 353.377 325.2 352.027 325ZM367.467 325V312.3H369.667V317.35H372.842C374.092 317.35 375.167 317.533 376.067 317.9C377.317 318.35 377.942 319.4 377.942 321.05C377.942 322.417 377.542 323.433 376.742 324.1C376.409 324.367 376.017 324.567 375.567 324.7C374.967 324.9 374.309 325 373.592 325H367.467ZM372.342 318.9H369.667V323.45H372.717C373.75 323.45 374.509 323.242 374.992 322.825C375.475 322.342 375.7 321.75 375.667 321.05C375.667 320.283 375.417 319.717 374.917 319.35C374.75 319.233 374.484 319.133 374.117 319.05C373.717 318.95 373.192 318.9 372.542 318.9H372.342ZM379.162 321.1H381.262C381.262 321.933 381.562 322.617 382.162 323.15C382.762 323.683 383.587 323.95 384.637 323.95C385.671 323.95 386.479 323.742 387.062 323.325C387.646 322.892 387.937 322.267 387.937 321.45C387.937 319.933 386.979 319.175 385.062 319.175H383.187V317.625H384.812C386.579 317.625 387.462 316.967 387.462 315.65C387.462 315.433 387.429 315.217 387.362 315C387.312 314.783 387.196 314.542 387.012 314.275C386.846 313.992 386.554 313.767 386.137 313.6C385.721 313.433 385.204 313.35 384.587 313.35C383.487 313.35 382.712 313.608 382.262 314.125C381.812 314.642 381.587 315.2 381.587 315.8H379.487C379.537 314.933 379.762 314.208 380.162 313.625C380.562 313.042 381.079 312.625 381.712 312.375C382.746 311.992 383.746 311.8 384.712 311.8C385.562 311.8 386.312 311.9 386.962 312.1C387.612 312.283 388.104 312.508 388.437 312.775C388.787 313.042 389.062 313.358 389.262 313.725C389.479 314.092 389.612 314.417 389.662 314.7C389.712 314.967 389.737 315.233 389.737 315.5C389.737 316.983 389.004 317.908 387.537 318.275V318.35C388.321 318.467 388.962 318.808 389.462 319.375C389.962 319.942 390.212 320.683 390.212 321.6C390.212 322.533 389.879 323.383 389.212 324.15C388.396 325.05 386.929 325.5 384.812 325.5C383.029 325.5 381.671 325.125 380.737 324.375C379.687 323.458 379.162 322.367 379.162 321.1ZM393.235 329.6V327.975C393.868 328.058 394.235 328.1 394.335 328.1C394.968 328.1 395.418 327.867 395.685 327.4C395.852 327.15 395.96 326.942 396.01 326.775C396.06 326.692 396.168 326.417 396.335 325.95L396.635 325L391.135 312.3H393.76L397.835 322.575L401.21 312.3H403.41L398.36 326.5C397.96 327.633 397.618 328.375 397.335 328.725C396.768 329.392 396.002 329.725 395.035 329.725C394.285 329.725 393.685 329.683 393.235 329.6ZM414.361 321.325H416.461C416.261 322.442 415.719 323.417 414.836 324.25C413.953 325.083 412.644 325.5 410.911 325.5C408.561 325.5 406.836 324.725 405.736 323.175C405.186 322.358 404.828 321.483 404.661 320.55C404.544 319.9 404.486 319.283 404.486 318.7C404.486 317.583 404.653 316.533 404.986 315.55C405.203 314.85 405.519 314.242 405.936 313.725C406.386 313.175 407.028 312.717 407.861 312.35C408.694 311.983 409.636 311.8 410.686 311.8C412.553 311.8 413.961 312.317 414.911 313.35C415.311 313.783 415.636 314.333 415.886 315C416.253 315.967 416.478 317.142 416.561 318.525C416.561 318.575 416.561 318.683 416.561 318.85C416.578 319.017 416.586 319.117 416.586 319.15H406.811C406.811 320.417 407.144 321.533 407.811 322.5C408.478 323.467 409.486 323.95 410.836 323.95C411.803 323.95 412.594 323.708 413.211 323.225C413.828 322.742 414.211 322.108 414.361 321.325ZM406.811 317.6H414.261C414.244 316.617 414.011 315.708 413.561 314.875C413.044 313.858 412.103 313.35 410.736 313.35C409.186 313.35 408.119 313.867 407.536 314.9C407.053 315.733 406.811 316.633 406.811 317.6ZM422.394 325V313.85H417.994V312.3H428.994V313.85H424.594V325H422.394ZM439.38 320.475H441.48C441.413 321.442 441.046 322.458 440.38 323.525C440.013 324.125 439.438 324.608 438.655 324.975C437.888 325.325 436.988 325.5 435.955 325.5C435.605 325.5 435.355 325.492 435.205 325.475C434.471 325.442 433.721 325.25 432.955 324.9C430.821 323.833 429.755 321.717 429.755 318.55C429.755 316.883 430.138 315.4 430.905 314.1C431.855 312.567 433.488 311.8 435.805 311.8C437.438 311.8 438.738 312.217 439.705 313.05C440.671 313.867 441.23 314.942 441.38 316.275H439.28C438.946 314.325 437.805 313.35 435.855 313.35C434.588 313.35 433.638 313.817 433.005 314.75C432.388 315.667 432.08 316.933 432.08 318.55C432.08 320.117 432.405 321.408 433.055 322.425C433.705 323.442 434.688 323.95 436.005 323.95C437.138 323.95 437.963 323.592 438.48 322.875C439.03 322.158 439.33 321.358 439.38 320.475ZM451.951 320H449.051L445.726 325H443.301L446.801 319.975C445.834 319.875 445.051 319.5 444.451 318.85C443.851 318.2 443.551 317.35 443.551 316.3C443.551 315.317 443.809 314.458 444.326 313.725C444.943 312.775 446.109 312.3 447.826 312.3H454.151V325H451.951V320ZM451.951 318.45V313.85H448.776C446.809 313.85 445.826 314.642 445.826 316.225C445.826 316.875 446.068 317.408 446.551 317.825C447.034 318.242 447.801 318.45 448.851 318.45H451.951ZM32.2 356.3L32 351.45H33.6C34.9833 349.417 35.675 346.408 35.675 342.425V340.3H44.775V351.45H46.975L46.8 356.3H44.95V353H34.05V356.3H32.2ZM42.575 351.45V341.85H37.725V343.625C37.725 344.975 37.575 346.375 37.275 347.825C37.0083 349.258 36.5583 350.467 35.925 351.45H42.575ZM48.0232 353V351.375C49.2732 351.742 50.1566 351.15 50.6732 349.6C50.8066 349.217 50.8982 348.742 50.9482 348.175L51.0482 346.65C51.0649 346.383 51.0732 345.858 51.0732 345.075V340.3H59.8732V353H57.6732V341.85H53.1232V345.075C53.1232 346.125 53.0982 347.008 53.0482 347.725C52.9982 348.425 52.8732 349.192 52.6732 350.025C52.3899 351.208 51.8816 352.05 51.1482 352.55C50.4149 353.05 49.3732 353.2 48.0232 353ZM71.2381 348H68.3381L65.0131 353H62.5881L66.0881 347.975C65.1214 347.875 64.3381 347.5 63.7381 346.85C63.1381 346.2 62.8381 345.35 62.8381 344.3C62.8381 343.317 63.0964 342.458 63.6131 341.725C64.2298 340.775 65.3964 340.3 67.1131 340.3H73.4381V353H71.2381V348ZM71.2381 346.45V341.85H68.0631C66.0964 341.85 65.1131 342.642 65.1131 344.225C65.1131 344.875 65.3548 345.408 65.8381 345.825C66.3214 346.242 67.0881 346.45 68.1381 346.45H71.2381ZM85.0723 340.3V350.425L91.6973 340.3H94.1473V353H91.9473V342.85L85.3473 353H82.8723V340.3H85.0723ZM96.7404 349.1H98.8404C98.8404 349.933 99.1404 350.617 99.7404 351.15C100.34 351.683 101.165 351.95 102.215 351.95C103.249 351.95 104.057 351.742 104.64 351.325C105.224 350.892 105.515 350.267 105.515 349.45C105.515 347.933 104.557 347.175 102.64 347.175H100.765V345.625H102.39C104.157 345.625 105.04 344.967 105.04 343.65C105.04 343.433 105.007 343.217 104.94 343C104.89 342.783 104.774 342.542 104.59 342.275C104.424 341.992 104.132 341.767 103.715 341.6C103.299 341.433 102.782 341.35 102.165 341.35C101.065 341.35 100.29 341.608 99.8404 342.125C99.3904 342.642 99.1654 343.2 99.1654 343.8H97.0654C97.1154 342.933 97.3404 342.208 97.7404 341.625C98.1404 341.042 98.6571 340.625 99.2904 340.375C100.324 339.992 101.324 339.8 102.29 339.8C103.14 339.8 103.89 339.9 104.54 340.1C105.19 340.283 105.682 340.508 106.015 340.775C106.365 341.042 106.64 341.358 106.84 341.725C107.057 342.092 107.19 342.417 107.24 342.7C107.29 342.967 107.315 343.233 107.315 343.5C107.315 344.983 106.582 345.908 105.115 346.275V346.35C105.899 346.467 106.54 346.808 107.04 347.375C107.54 347.942 107.79 348.683 107.79 349.6C107.79 350.533 107.457 351.383 106.79 352.15C105.974 353.05 104.507 353.5 102.39 353.5C100.607 353.5 99.2488 353.125 98.3154 352.375C97.2654 351.458 96.7404 350.367 96.7404 349.1ZM119.355 341.85H112.855V353H110.655V340.3H119.355V341.85ZM120.436 349.15C120.003 347.367 120.019 345.642 120.486 343.975C120.953 342.308 121.936 341.117 123.436 340.4C124.269 340 125.244 339.8 126.361 339.8C127.478 339.8 128.453 340 129.286 340.4C130.786 341.1 131.778 342.35 132.261 344.15C132.478 344.983 132.586 345.825 132.586 346.675C132.603 347.508 132.503 348.333 132.286 349.15C132.086 349.95 131.728 350.683 131.211 351.35C130.711 352.017 130.069 352.542 129.286 352.925C128.436 353.308 127.461 353.5 126.361 353.5C125.261 353.5 124.286 353.308 123.436 352.925C121.986 352.225 120.986 350.967 120.436 349.15ZM122.761 344.125C122.544 344.792 122.436 345.625 122.436 346.625C122.436 347.608 122.544 348.45 122.761 349.15C122.978 349.85 123.228 350.375 123.511 350.725C124.111 351.392 124.794 351.783 125.561 351.9C126.094 351.983 126.628 351.983 127.161 351.9C127.394 351.883 127.719 351.767 128.136 351.55C128.586 351.317 128.953 351.025 129.236 350.675C129.519 350.325 129.761 349.817 129.961 349.15C130.178 348.45 130.286 347.608 130.286 346.625C130.286 345.625 130.178 344.792 129.961 344.125C129.728 343.392 129.469 342.867 129.186 342.55C128.919 342.233 128.586 341.967 128.186 341.75C127.786 341.533 127.444 341.4 127.161 341.35C126.628 341.267 126.094 341.267 125.561 341.35C125.328 341.367 124.994 341.492 124.561 341.725C123.711 342.142 123.111 342.942 122.761 344.125ZM137.628 353V341.85H133.228V340.3H144.228V341.85H139.828V353H137.628ZM145.485 349.15C145.052 347.367 145.068 345.642 145.535 343.975C146.002 342.308 146.985 341.117 148.485 340.4C149.318 340 150.293 339.8 151.41 339.8C152.527 339.8 153.502 340 154.335 340.4C155.835 341.1 156.827 342.35 157.31 344.15C157.527 344.983 157.635 345.825 157.635 346.675C157.652 347.508 157.552 348.333 157.335 349.15C157.135 349.95 156.777 350.683 156.26 351.35C155.76 352.017 155.118 352.542 154.335 352.925C153.485 353.308 152.51 353.5 151.41 353.5C150.31 353.5 149.335 353.308 148.485 352.925C147.035 352.225 146.035 350.967 145.485 349.15ZM147.81 344.125C147.593 344.792 147.485 345.625 147.485 346.625C147.485 347.608 147.593 348.45 147.81 349.15C148.027 349.85 148.277 350.375 148.56 350.725C149.16 351.392 149.843 351.783 150.61 351.9C151.143 351.983 151.677 351.983 152.21 351.9C152.443 351.883 152.768 351.767 153.185 351.55C153.635 351.317 154.002 351.025 154.285 350.675C154.568 350.325 154.81 349.817 155.01 349.15C155.227 348.45 155.335 347.608 155.335 346.625C155.335 345.625 155.227 344.792 155.01 344.125C154.777 343.392 154.518 342.867 154.235 342.55C153.968 342.233 153.635 341.967 153.235 341.75C152.835 341.533 152.493 341.4 152.21 341.35C151.677 341.267 151.143 341.267 150.61 341.35C150.377 341.367 150.043 341.492 149.61 341.725C148.76 342.142 148.16 342.942 147.81 344.125ZM160.533 353V340.3H166.583C169.267 340.3 170.608 341.308 170.608 343.325C170.608 344.775 169.842 345.767 168.308 346.3V346.375C169.342 346.625 170.058 347.025 170.458 347.575C170.875 348.125 171.083 348.833 171.083 349.7C171.083 351.083 170.575 352 169.558 352.45C168.725 352.817 167.708 353 166.508 353H160.533ZM165.883 341.85H162.733V345.6H165.783C166.667 345.6 167.317 345.425 167.733 345.075C168.167 344.708 168.383 344.233 168.383 343.65C168.383 342.45 167.55 341.85 165.883 341.85ZM165.883 347.15H162.733V351.45H165.958C167.858 351.45 168.808 350.8 168.808 349.5C168.808 347.933 167.833 347.15 165.883 347.15ZM172.535 353V351.375C173.785 351.742 174.668 351.15 175.185 349.6C175.318 349.217 175.41 348.742 175.46 348.175L175.56 346.65C175.577 346.383 175.585 345.858 175.585 345.075V340.3H184.385V353H182.185V341.85H177.635V345.075C177.635 346.125 177.61 347.008 177.56 347.725C177.51 348.425 177.385 349.192 177.185 350.025C176.902 351.208 176.393 352.05 175.66 352.55C174.927 353.05 173.885 353.2 172.535 353ZM197.125 349.325H199.225C199.025 350.442 198.483 351.417 197.6 352.25C196.716 353.083 195.408 353.5 193.675 353.5C191.325 353.5 189.6 352.725 188.5 351.175C187.95 350.358 187.591 349.483 187.425 348.55C187.308 347.9 187.25 347.283 187.25 346.7C187.25 345.583 187.416 344.533 187.75 343.55C187.966 342.85 188.283 342.242 188.7 341.725C189.15 341.175 189.791 340.717 190.625 340.35C191.458 339.983 192.4 339.8 193.45 339.8C195.316 339.8 196.725 340.317 197.675 341.35C198.075 341.783 198.4 342.333 198.65 343C199.016 343.967 199.241 345.142 199.325 346.525C199.325 346.575 199.325 346.683 199.325 346.85C199.341 347.017 199.35 347.117 199.35 347.15H189.575C189.575 348.417 189.908 349.533 190.575 350.5C191.241 351.467 192.25 351.95 193.6 351.95C194.566 351.95 195.358 351.708 195.975 351.225C196.591 350.742 196.975 350.108 197.125 349.325ZM189.575 345.6H197.025C197.008 344.617 196.775 343.708 196.325 342.875C195.808 341.858 194.866 341.35 193.5 341.35C191.95 341.35 190.883 341.867 190.3 342.9C189.816 343.733 189.575 344.633 189.575 345.6ZM210.708 347.075H204.433V353H202.233V340.3H204.433V345.525H210.708V340.3H212.908V353H210.708V347.075ZM218.715 340.3V350.425L225.34 340.3H227.79V353H225.59V342.85L218.99 353H216.515V340.3H218.715ZM239.158 348H236.258L232.933 353H230.508L234.008 347.975C233.041 347.875 232.258 347.5 231.658 346.85C231.058 346.2 230.758 345.35 230.758 344.3C230.758 343.317 231.016 342.458 231.533 341.725C232.15 340.775 233.316 340.3 235.033 340.3H241.358V353H239.158V348ZM239.158 346.45V341.85H235.983C234.016 341.85 233.033 342.642 233.033 344.225C233.033 344.875 233.275 345.408 233.758 345.825C234.241 346.242 235.008 346.45 236.058 346.45H239.158ZM250.392 349.15C249.959 347.367 249.976 345.642 250.442 343.975C250.909 342.308 251.892 341.117 253.392 340.4C254.226 340 255.201 339.8 256.317 339.8C257.434 339.8 258.409 340 259.242 340.4C260.742 341.1 261.734 342.35 262.217 344.15C262.434 344.983 262.542 345.825 262.542 346.675C262.559 347.508 262.459 348.333 262.242 349.15C262.042 349.95 261.684 350.683 261.167 351.35C260.667 352.017 260.026 352.542 259.242 352.925C258.392 353.308 257.417 353.5 256.317 353.5C255.217 353.5 254.242 353.308 253.392 352.925C251.942 352.225 250.942 350.967 250.392 349.15ZM252.717 344.125C252.501 344.792 252.392 345.625 252.392 346.625C252.392 347.608 252.501 348.45 252.717 349.15C252.934 349.85 253.184 350.375 253.467 350.725C254.067 351.392 254.751 351.783 255.517 351.9C256.051 351.983 256.584 351.983 257.117 351.9C257.351 351.883 257.676 351.767 258.092 351.55C258.542 351.317 258.909 351.025 259.192 350.675C259.476 350.325 259.717 349.817 259.917 349.15C260.134 348.45 260.242 347.608 260.242 346.625C260.242 345.625 260.134 344.792 259.917 344.125C259.684 343.392 259.426 342.867 259.142 342.55C258.876 342.233 258.542 341.967 258.142 341.75C257.742 341.533 257.401 341.4 257.117 341.35C256.584 341.267 256.051 341.267 255.517 341.35C255.284 341.367 254.951 341.492 254.517 341.725C253.667 342.142 253.067 342.942 252.717 344.125ZM263.841 356.3L263.641 351.45H265.241C266.624 349.417 267.316 346.408 267.316 342.425V340.3H276.416V351.45H278.616L278.441 356.3H276.591V353H265.691V356.3H263.841ZM274.216 351.45V341.85H269.366V343.625C269.366 344.975 269.216 346.375 268.916 347.825C268.649 349.258 268.199 350.467 267.566 351.45H274.216ZM288.979 347.075H282.704V353H280.504V340.3H282.704V345.525H288.979V340.3H291.179V353H288.979V347.075ZM294.386 349.15C293.953 347.367 293.97 345.642 294.436 343.975C294.903 342.308 295.886 341.117 297.386 340.4C298.22 340 299.195 339.8 300.311 339.8C301.428 339.8 302.403 340 303.236 340.4C304.736 341.1 305.728 342.35 306.211 344.15C306.428 344.983 306.536 345.825 306.536 346.675C306.553 347.508 306.453 348.333 306.236 349.15C306.036 349.95 305.678 350.683 305.161 351.35C304.661 352.017 304.02 352.542 303.236 352.925C302.386 353.308 301.411 353.5 300.311 353.5C299.211 353.5 298.236 353.308 297.386 352.925C295.936 352.225 294.936 350.967 294.386 349.15ZM296.711 344.125C296.495 344.792 296.386 345.625 296.386 346.625C296.386 347.608 296.495 348.45 296.711 349.15C296.928 349.85 297.178 350.375 297.461 350.725C298.061 351.392 298.745 351.783 299.511 351.9C300.045 351.983 300.578 351.983 301.111 351.9C301.345 351.883 301.67 351.767 302.086 351.55C302.536 351.317 302.903 351.025 303.186 350.675C303.47 350.325 303.711 349.817 303.911 349.15C304.128 348.45 304.236 347.608 304.236 346.625C304.236 345.625 304.128 344.792 303.911 344.125C303.678 343.392 303.42 342.867 303.136 342.55C302.87 342.233 302.536 341.967 302.136 341.75C301.736 341.533 301.395 341.4 301.111 341.35C300.578 341.267 300.045 341.267 299.511 341.35C299.278 341.367 298.945 341.492 298.511 341.725C297.661 342.142 297.061 342.942 296.711 344.125ZM309.435 357.625V340.3H311.485V342.05H311.56C312.56 340.55 313.96 339.8 315.76 339.8C317.41 339.8 318.776 340.375 319.86 341.525C320.943 342.692 321.485 344.4 321.485 346.65C321.485 348.95 320.935 350.667 319.835 351.8C318.751 352.933 317.41 353.5 315.81 353.5C315.31 353.5 314.701 353.392 313.985 353.175C312.935 352.858 312.151 352.192 311.635 351.175V357.625H309.435ZM311.485 346.7C311.485 348.467 311.885 349.792 312.685 350.675C313.518 351.525 314.426 351.95 315.41 351.95C316.443 351.95 317.326 351.533 318.06 350.7C318.793 349.833 319.16 348.483 319.16 346.65C319.16 344.983 318.818 343.683 318.135 342.75C317.468 341.817 316.518 341.35 315.285 341.35C314.635 341.35 314.026 341.525 313.46 341.875C312.143 342.658 311.485 344.267 311.485 346.7ZM326.027 344.05H323.927C323.927 343.05 324.26 342.133 324.927 341.3C325.727 340.3 327.193 339.8 329.327 339.8C330.577 339.8 331.677 340.05 332.627 340.55C333.177 340.817 333.61 341.258 333.927 341.875C334.243 342.492 334.393 343.225 334.377 344.075L334.252 349.95C334.252 350.433 334.302 350.808 334.402 351.075C334.552 351.342 334.943 351.467 335.577 351.45V353C335.327 353.067 334.993 353.1 334.577 353.1C333.843 353.1 333.31 352.975 332.977 352.725C332.66 352.475 332.435 351.983 332.302 351.25C331.485 352.75 330.035 353.5 327.952 353.5C326.518 353.5 325.41 353.183 324.627 352.55C323.86 351.9 323.477 350.942 323.477 349.675C323.477 348.475 323.91 347.567 324.777 346.95C325.643 346.3 327.285 345.867 329.702 345.65C330.818 345.567 331.485 345.458 331.702 345.325C332.018 345.108 332.177 344.633 332.177 343.9C332.177 342.2 331.227 341.35 329.327 341.35C327.077 341.35 325.977 342.25 326.027 344.05ZM332.127 347.575L332.177 346.5C331.927 346.683 331.56 346.833 331.077 346.95C330.343 347 329.777 347.058 329.377 347.125C327.993 347.358 327.152 347.55 326.852 347.7C326.118 348.05 325.752 348.683 325.752 349.6C325.752 350.333 325.968 350.908 326.402 351.325C326.852 351.742 327.452 351.95 328.202 351.95C328.685 351.95 329.127 351.883 329.527 351.75C329.943 351.617 330.343 351.4 330.727 351.1C331.127 350.783 331.443 350.325 331.677 349.725C331.927 349.125 332.077 348.408 332.127 347.575ZM337.17 349.1H339.27C339.27 349.933 339.57 350.617 340.17 351.15C340.77 351.683 341.595 351.95 342.645 351.95C343.678 351.95 344.487 351.742 345.07 351.325C345.653 350.892 345.945 350.267 345.945 349.45C345.945 347.933 344.987 347.175 343.07 347.175H341.195V345.625H342.82C344.587 345.625 345.47 344.967 345.47 343.65C345.47 343.433 345.437 343.217 345.37 343C345.32 342.783 345.203 342.542 345.02 342.275C344.853 341.992 344.562 341.767 344.145 341.6C343.728 341.433 343.212 341.35 342.595 341.35C341.495 341.35 340.72 341.608 340.27 342.125C339.82 342.642 339.595 343.2 339.595 343.8H337.495C337.545 342.933 337.77 342.208 338.17 341.625C338.57 341.042 339.087 340.625 339.72 340.375C340.753 339.992 341.753 339.8 342.72 339.8C343.57 339.8 344.32 339.9 344.97 340.1C345.62 340.283 346.112 340.508 346.445 340.775C346.795 341.042 347.07 341.358 347.27 341.725C347.487 342.092 347.62 342.417 347.67 342.7C347.72 342.967 347.745 343.233 347.745 343.5C347.745 344.983 347.012 345.908 345.545 346.275V346.35C346.328 346.467 346.97 346.808 347.47 347.375C347.97 347.942 348.22 348.683 348.22 349.6C348.22 350.533 347.887 351.383 347.22 352.15C346.403 353.05 344.937 353.5 342.82 353.5C341.037 353.5 339.678 353.125 338.745 352.375C337.695 351.458 337.17 350.367 337.17 349.1ZM350.685 349.15C350.252 347.367 350.268 345.642 350.735 343.975C351.202 342.308 352.185 341.117 353.685 340.4C354.518 340 355.493 339.8 356.61 339.8C357.727 339.8 358.702 340 359.535 340.4C361.035 341.1 362.027 342.35 362.51 344.15C362.727 344.983 362.835 345.825 362.835 346.675C362.852 347.508 362.752 348.333 362.535 349.15C362.335 349.95 361.977 350.683 361.46 351.35C360.96 352.017 360.318 352.542 359.535 352.925C358.685 353.308 357.71 353.5 356.61 353.5C355.51 353.5 354.535 353.308 353.685 352.925C352.235 352.225 351.235 350.967 350.685 349.15ZM353.01 344.125C352.793 344.792 352.685 345.625 352.685 346.625C352.685 347.608 352.793 348.45 353.01 349.15C353.227 349.85 353.477 350.375 353.76 350.725C354.36 351.392 355.043 351.783 355.81 351.9C356.343 351.983 356.877 351.983 357.41 351.9C357.643 351.883 357.968 351.767 358.385 351.55C358.835 351.317 359.202 351.025 359.485 350.675C359.768 350.325 360.01 349.817 360.21 349.15C360.427 348.45 360.535 347.608 360.535 346.625C360.535 345.625 360.427 344.792 360.21 344.125C359.977 343.392 359.718 342.867 359.435 342.55C359.168 342.233 358.835 341.967 358.435 341.75C358.035 341.533 357.693 341.4 357.41 341.35C356.877 341.267 356.343 341.267 355.81 341.35C355.577 341.367 355.243 341.492 354.81 341.725C353.96 342.142 353.36 342.942 353.01 344.125ZM365.734 353V340.3H371.784C374.467 340.3 375.809 341.308 375.809 343.325C375.809 344.775 375.042 345.767 373.509 346.3V346.375C374.542 346.625 375.259 347.025 375.659 347.575C376.075 348.125 376.284 348.833 376.284 349.7C376.284 351.083 375.775 352 374.759 352.45C373.925 352.817 372.909 353 371.709 353H365.734ZM371.084 341.85H367.934V345.6H370.984C371.867 345.6 372.517 345.425 372.934 345.075C373.367 344.708 373.584 344.233 373.584 343.65C373.584 342.45 372.75 341.85 371.084 341.85ZM371.084 347.15H367.934V351.45H371.159C373.059 351.45 374.009 350.8 374.009 349.5C374.009 347.933 373.034 347.15 371.084 347.15ZM379.21 353V340.3H381.41V345.325H384.61C385.627 345.325 386.477 345.425 387.16 345.625C388.793 346.042 389.643 347.233 389.71 349.2C389.71 350.367 389.352 351.292 388.635 351.975C387.935 352.658 386.843 353 385.36 353H379.21ZM384.085 346.875H381.41V351.45H384.485C386.452 351.45 387.435 350.65 387.435 349.05C387.435 348.267 387.177 347.7 386.66 347.35C386.493 347.217 386.218 347.108 385.835 347.025C385.435 346.925 384.852 346.875 384.085 346.875ZM391.26 353V340.3H393.46V353H391.26ZM398.057 340.3L401.307 345L404.557 340.3H407.007L402.557 346.375L407.357 353H404.907L401.307 347.775L397.707 353H395.257L400.057 346.375L395.607 340.3H398.057ZM42.825 362.675H44.7C44.6333 363.892 44.0667 364.7 43 365.1C42.4167 365.3 41.9167 365.433 41.5 365.5C39.6333 365.733 38.55 365.892 38.25 365.975C37.1167 366.292 36.25 366.867 35.65 367.7C35.05 368.517 34.7333 369.692 34.7 371.225H34.75C35.55 369.075 37.1917 368 39.675 368C41.6917 368 43.2 368.667 44.2 370C45.2167 371.317 45.725 372.933 45.725 374.85C45.725 376.683 45.2 378.25 44.15 379.55C43.1 380.85 41.5417 381.5 39.475 381.5C37.1917 381.5 35.5 380.633 34.4 378.9C33.85 377.95 33.475 376.883 33.275 375.7C33.1417 374.767 33.075 373.842 33.075 372.925C33.075 369.708 33.5667 367.458 34.55 366.175C35.4167 365.058 36.5917 364.342 38.075 364.025C39.475 363.708 40.6583 363.525 41.625 363.475C42.275 363.392 42.675 363.125 42.825 362.675ZM35.4 375C35.4 376.1 35.65 377.158 36.15 378.175C36.7333 379.358 37.825 379.95 39.425 379.95C40.6917 379.95 41.6667 379.525 42.35 378.675C43.05 377.808 43.4 376.617 43.4 375.1C43.4 373.85 43.1833 372.692 42.75 371.625C42.2 370.242 41.0917 369.55 39.425 369.55C37.7583 369.55 36.6333 370.225 36.05 371.575C35.6167 372.608 35.4 373.75 35.4 375ZM48.6061 385.6V383.975C49.2394 384.058 49.6061 384.1 49.7061 384.1C50.3394 384.1 50.7894 383.867 51.0561 383.4C51.2227 383.15 51.3311 382.942 51.3811 382.775C51.4311 382.692 51.5394 382.417 51.7061 381.95L52.0061 381L46.5061 368.3H49.1311L53.2061 378.575L56.5811 368.3H58.7811L53.7311 382.5C53.3311 383.633 52.9894 384.375 52.7061 384.725C52.1394 385.392 51.3727 385.725 50.4061 385.725C49.6561 385.725 49.0561 385.683 48.6061 385.6ZM63.9223 381V369.85H59.5223V368.3H70.5223V369.85H66.1223V381H63.9223ZM72.2033 381V368.3H74.4033V373.325H77.6033C78.62 373.325 79.47 373.425 80.1533 373.625C81.7867 374.042 82.6367 375.233 82.7033 377.2C82.7033 378.367 82.345 379.292 81.6283 379.975C80.9283 380.658 79.8367 381 78.3533 381H72.2033ZM77.0783 374.875H74.4033V379.45H77.4783C79.445 379.45 80.4283 378.65 80.4283 377.05C80.4283 376.267 80.17 375.7 79.6533 375.35C79.4867 375.217 79.2117 375.108 78.8283 375.025C78.4283 374.925 77.845 374.875 77.0783 374.875ZM84.2533 381V368.3H86.4533V381H84.2533ZM88.575 381V379.375C89.825 379.742 90.7083 379.15 91.225 377.6C91.3583 377.217 91.45 376.742 91.5 376.175L91.6 374.65C91.6167 374.383 91.625 373.858 91.625 373.075V368.3H100.425V381H98.225V369.85H93.675V373.075C93.675 374.125 93.65 375.008 93.6 375.725C93.55 376.425 93.425 377.192 93.225 378.025C92.9417 379.208 92.4333 380.05 91.7 380.55C90.9667 381.05 89.925 381.2 88.575 381ZM103.615 377.15C103.182 375.367 103.198 373.642 103.665 371.975C104.132 370.308 105.115 369.117 106.615 368.4C107.448 368 108.423 367.8 109.54 367.8C110.657 367.8 111.632 368 112.465 368.4C113.965 369.1 114.957 370.35 115.44 372.15C115.657 372.983 115.765 373.825 115.765 374.675C115.782 375.508 115.682 376.333 115.465 377.15C115.265 377.95 114.907 378.683 114.39 379.35C113.89 380.017 113.248 380.542 112.465 380.925C111.615 381.308 110.64 381.5 109.54 381.5C108.44 381.5 107.465 381.308 106.615 380.925C105.165 380.225 104.165 378.967 103.615 377.15ZM105.94 372.125C105.723 372.792 105.615 373.625 105.615 374.625C105.615 375.608 105.723 376.45 105.94 377.15C106.157 377.85 106.407 378.375 106.69 378.725C107.29 379.392 107.973 379.783 108.74 379.9C109.273 379.983 109.807 379.983 110.34 379.9C110.573 379.883 110.898 379.767 111.315 379.55C111.765 379.317 112.132 379.025 112.415 378.675C112.698 378.325 112.94 377.817 113.14 377.15C113.357 376.45 113.465 375.608 113.465 374.625C113.465 373.625 113.357 372.792 113.14 372.125C112.907 371.392 112.648 370.867 112.365 370.55C112.098 370.233 111.765 369.967 111.365 369.75C110.965 369.533 110.623 369.4 110.34 369.35C109.807 369.267 109.273 369.267 108.74 369.35C108.507 369.367 108.173 369.492 107.74 369.725C106.89 370.142 106.29 370.942 105.94 372.125ZM120.863 368.3V373.85L126.288 368.3H128.863L122.913 374.2L129.188 381H126.563L120.863 374.65V381H118.663V368.3H120.863ZM145.355 369.85H138.93V381H136.73V368.3H147.555V381H145.355V369.85ZM150.758 377.15C150.325 375.367 150.342 373.642 150.808 371.975C151.275 370.308 152.258 369.117 153.758 368.4C154.592 368 155.567 367.8 156.683 367.8C157.8 367.8 158.775 368 159.608 368.4C161.108 369.1 162.1 370.35 162.583 372.15C162.8 372.983 162.908 373.825 162.908 374.675C162.925 375.508 162.825 376.333 162.608 377.15C162.408 377.95 162.05 378.683 161.533 379.35C161.033 380.017 160.392 380.542 159.608 380.925C158.758 381.308 157.783 381.5 156.683 381.5C155.583 381.5 154.608 381.308 153.758 380.925C152.308 380.225 151.308 378.967 150.758 377.15ZM153.083 372.125C152.867 372.792 152.758 373.625 152.758 374.625C152.758 375.608 152.867 376.45 153.083 377.15C153.3 377.85 153.55 378.375 153.833 378.725C154.433 379.392 155.117 379.783 155.883 379.9C156.417 379.983 156.95 379.983 157.483 379.9C157.717 379.883 158.042 379.767 158.458 379.55C158.908 379.317 159.275 379.025 159.558 378.675C159.842 378.325 160.083 377.817 160.283 377.15C160.5 376.45 160.608 375.608 160.608 374.625C160.608 373.625 160.5 372.792 160.283 372.125C160.05 371.392 159.792 370.867 159.508 370.55C159.242 370.233 158.908 369.967 158.508 369.75C158.108 369.533 157.767 369.4 157.483 369.35C156.95 369.267 156.417 369.267 155.883 369.35C155.65 369.367 155.317 369.492 154.883 369.725C154.033 370.142 153.433 370.942 153.083 372.125ZM164.207 384.3L164.007 379.45H165.607C166.99 377.417 167.682 374.408 167.682 370.425V368.3H176.782V379.45H178.982L178.807 384.3H176.957V381H166.057V384.3H164.207ZM174.582 379.45V369.85H169.732V371.625C169.732 372.975 169.582 374.375 169.282 375.825C169.015 377.258 168.565 378.467 167.932 379.45H174.582ZM195.18 375.075H188.905V381H186.705V368.3H188.905V373.525H195.18V368.3H197.38V381H195.18V375.075ZM202.663 372.05H200.563C200.563 371.05 200.896 370.133 201.563 369.3C202.363 368.3 203.829 367.8 205.963 367.8C207.213 367.8 208.313 368.05 209.263 368.55C209.813 368.817 210.246 369.258 210.563 369.875C210.879 370.492 211.029 371.225 211.013 372.075L210.888 377.95C210.888 378.433 210.938 378.808 211.038 379.075C211.188 379.342 211.579 379.467 212.213 379.45V381C211.963 381.067 211.629 381.1 211.213 381.1C210.479 381.1 209.946 380.975 209.613 380.725C209.296 380.475 209.071 379.983 208.938 379.25C208.121 380.75 206.671 381.5 204.588 381.5C203.154 381.5 202.046 381.183 201.263 380.55C200.496 379.9 200.113 378.942 200.113 377.675C200.113 376.475 200.546 375.567 201.413 374.95C202.279 374.3 203.921 373.867 206.338 373.65C207.454 373.567 208.121 373.458 208.338 373.325C208.654 373.108 208.813 372.633 208.813 371.9C208.813 370.2 207.863 369.35 205.963 369.35C203.713 369.35 202.613 370.25 202.663 372.05ZM208.763 375.575L208.813 374.5C208.563 374.683 208.196 374.833 207.713 374.95C206.979 375 206.413 375.058 206.013 375.125C204.629 375.358 203.788 375.55 203.488 375.7C202.754 376.05 202.388 376.683 202.388 377.6C202.388 378.333 202.604 378.908 203.038 379.325C203.488 379.742 204.088 379.95 204.838 379.95C205.321 379.95 205.763 379.883 206.163 379.75C206.579 379.617 206.979 379.4 207.363 379.1C207.763 378.783 208.079 378.325 208.313 377.725C208.563 377.125 208.713 376.408 208.763 375.575ZM223.431 369.85H217.006V381H214.806V368.3H225.631V381H223.431V369.85ZM231.435 368.3V378.425L238.06 368.3H240.51V381H238.31V370.85L231.71 381H229.235V368.3H231.435ZM247.028 381V369.85H242.628V368.3H253.628V369.85H249.228V381H247.028ZM257.655 368.3V373.85L263.08 368.3H265.655L259.705 374.2L265.98 381H263.355L257.655 374.65V381H255.455V368.3H257.655ZM269.887 368.3V378.425L276.512 368.3H278.962V381H276.762V370.85L270.162 381H267.687V368.3H269.887Z" fill="black"/>
<path d="M327.182 450H318.091V454.5H313.545V459H309V472.5H313.545V477H318.091V481.5H322.636V486H327.182V490.5H331.727V495H336.273V490.5H340.818V486H345.364V481.5H349.909V477H354.455V472.5H359V459H354.455V454.5H349.909V450H340.818V454.5H336.273V459H331.727V454.5H327.182V450ZM327.182 454.5V459H331.727V463.5H336.273V459H340.818V454.5H349.909V459H354.455V472.5H349.909V477H345.364V481.5H340.818V486H336.273V490.5H331.727V486H327.182V481.5H322.636V477H318.091V472.5H313.545V459H318.091V454.5H327.182Z" fill="black"/>
<path d="M322.275 516.475H313.475V532H311.125V514.5H324.625V532H322.275V516.475ZM328.549 536.625V519.3H330.599V521.05H330.674C331.674 519.55 333.074 518.8 334.874 518.8C336.524 518.8 337.891 519.375 338.974 520.525C340.057 521.692 340.599 523.4 340.599 525.65C340.599 527.95 340.049 529.667 338.949 530.8C337.866 531.933 336.524 532.5 334.924 532.5C334.424 532.5 333.816 532.392 333.099 532.175C332.049 531.858 331.266 531.192 330.749 530.175V536.625H328.549ZM330.599 525.7C330.599 527.467 330.999 528.792 331.799 529.675C332.632 530.525 333.541 530.95 334.524 530.95C335.557 530.95 336.441 530.533 337.174 529.7C337.907 528.833 338.274 527.483 338.274 525.65C338.274 523.983 337.932 522.683 337.249 521.75C336.582 520.817 335.632 520.35 334.399 520.35C333.749 520.35 333.141 520.525 332.574 520.875C331.257 521.658 330.599 523.267 330.599 525.7ZM345.666 519.3V529.425L352.291 519.3H354.741V532H352.541V521.85L345.941 532H343.466V519.3H345.666ZM367.034 520.85H360.534V532H358.334V519.3H367.034V520.85ZM368.115 528.15C367.682 526.367 367.698 524.642 368.165 522.975C368.632 521.308 369.615 520.117 371.115 519.4C371.948 519 372.923 518.8 374.04 518.8C375.157 518.8 376.132 519 376.965 519.4C378.465 520.1 379.457 521.35 379.94 523.15C380.157 523.983 380.265 524.825 380.265 525.675C380.282 526.508 380.182 527.333 379.965 528.15C379.765 528.95 379.407 529.683 378.89 530.35C378.39 531.017 377.748 531.542 376.965 531.925C376.115 532.308 375.14 532.5 374.04 532.5C372.94 532.5 371.965 532.308 371.115 531.925C369.665 531.225 368.665 529.967 368.115 528.15ZM370.44 523.125C370.223 523.792 370.115 524.625 370.115 525.625C370.115 526.608 370.223 527.45 370.44 528.15C370.657 528.85 370.907 529.375 371.19 529.725C371.79 530.392 372.473 530.783 373.24 530.9C373.773 530.983 374.307 530.983 374.84 530.9C375.073 530.883 375.398 530.767 375.815 530.55C376.265 530.317 376.632 530.025 376.915 529.675C377.198 529.325 377.44 528.817 377.64 528.15C377.857 527.45 377.965 526.608 377.965 525.625C377.965 524.625 377.857 523.792 377.64 523.125C377.407 522.392 377.148 521.867 376.865 521.55C376.598 521.233 376.265 520.967 375.865 520.75C375.465 520.533 375.123 520.4 374.84 520.35C374.307 520.267 373.773 520.267 373.24 520.35C373.007 520.367 372.673 520.492 372.24 520.725C371.39 521.142 370.79 521.942 370.44 523.125ZM381.563 535.3L381.363 530.45H382.963C384.347 528.417 385.038 525.408 385.038 521.425V519.3H394.138V530.45H396.338L396.163 535.3H394.313V532H383.413V535.3H381.563ZM391.938 530.45V520.85H387.088V522.625C387.088 523.975 386.938 525.375 386.638 526.825C386.372 528.258 385.922 529.467 385.288 530.45H391.938ZM407.377 528.325H409.477C409.277 529.442 408.735 530.417 407.852 531.25C406.968 532.083 405.66 532.5 403.927 532.5C401.577 532.5 399.852 531.725 398.752 530.175C398.202 529.358 397.843 528.483 397.677 527.55C397.56 526.9 397.502 526.283 397.502 525.7C397.502 524.583 397.668 523.533 398.002 522.55C398.218 521.85 398.535 521.242 398.952 520.725C399.402 520.175 400.043 519.717 400.877 519.35C401.71 518.983 402.652 518.8 403.702 518.8C405.568 518.8 406.977 519.317 407.927 520.35C408.327 520.783 408.652 521.333 408.902 522C409.268 522.967 409.493 524.142 409.577 525.525C409.577 525.575 409.577 525.683 409.577 525.85C409.593 526.017 409.602 526.117 409.602 526.15H399.827C399.827 527.417 400.16 528.533 400.827 529.5C401.493 530.467 402.502 530.95 403.852 530.95C404.818 530.95 405.61 530.708 406.227 530.225C406.843 529.742 407.227 529.108 407.377 528.325ZM399.827 524.6H407.277C407.26 523.617 407.027 522.708 406.577 521.875C406.06 520.858 405.118 520.35 403.752 520.35C402.202 520.35 401.135 520.867 400.552 521.9C400.068 522.733 399.827 523.633 399.827 524.6ZM420.96 526.075H414.685V532H412.485V519.3H414.685V524.525H420.96V519.3H423.16V532H420.96V526.075ZM309.2 563.3L309 558.45H310.6C311.983 556.417 312.675 553.408 312.675 549.425V547.3H321.775V558.45H323.975L323.8 563.3H321.95V560H311.05V563.3H309.2ZM319.575 558.45V548.85H314.725V550.625C314.725 551.975 314.575 553.375 314.275 554.825C314.008 556.258 313.558 557.467 312.925 558.45H319.575ZM325.023 560V558.375C326.273 558.742 327.157 558.15 327.673 556.6C327.807 556.217 327.898 555.742 327.948 555.175L328.048 553.65C328.065 553.383 328.073 552.858 328.073 552.075V547.3H336.873V560H334.673V548.85H330.123V552.075C330.123 553.125 330.098 554.008 330.048 554.725C329.998 555.425 329.873 556.192 329.673 557.025C329.39 558.208 328.882 559.05 328.148 559.55C327.415 560.05 326.373 560.2 325.023 560ZM348.238 555H345.338L342.013 560H339.588L343.088 554.975C342.121 554.875 341.338 554.5 340.738 553.85C340.138 553.2 339.838 552.35 339.838 551.3C339.838 550.317 340.096 549.458 340.613 548.725C341.23 547.775 342.396 547.3 344.113 547.3H350.438V560H348.238V555ZM348.238 553.45V548.85H345.063C343.096 548.85 342.113 549.642 342.113 551.225C342.113 551.875 342.355 552.408 342.838 552.825C343.321 553.242 344.088 553.45 345.138 553.45H348.238ZM368.497 548.85H362.072V560H359.872V547.3H370.697V560H368.497V548.85ZM383.451 556.325H385.551C385.351 557.442 384.809 558.417 383.926 559.25C383.043 560.083 381.734 560.5 380.001 560.5C377.651 560.5 375.926 559.725 374.826 558.175C374.276 557.358 373.918 556.483 373.751 555.55C373.634 554.9 373.576 554.283 373.576 553.7C373.576 552.583 373.743 551.533 374.076 550.55C374.293 549.85 374.609 549.242 375.026 548.725C375.476 548.175 376.118 547.717 376.951 547.35C377.784 546.983 378.726 546.8 379.776 546.8C381.643 546.8 383.051 547.317 384.001 548.35C384.401 548.783 384.726 549.333 384.976 550C385.343 550.967 385.568 552.142 385.651 553.525C385.651 553.575 385.651 553.683 385.651 553.85C385.668 554.017 385.676 554.117 385.676 554.15H375.901C375.901 555.417 376.234 556.533 376.901 557.5C377.568 558.467 378.576 558.95 379.926 558.95C380.893 558.95 381.684 558.708 382.301 558.225C382.918 557.742 383.301 557.108 383.451 556.325ZM375.901 552.6H383.351C383.334 551.617 383.101 550.708 382.651 549.875C382.134 548.858 381.193 548.35 379.826 548.35C378.276 548.35 377.209 548.867 376.626 549.9C376.143 550.733 375.901 551.633 375.901 552.6ZM388.559 564.625V547.3H390.609V549.05H390.684C391.684 547.55 393.084 546.8 394.884 546.8C396.534 546.8 397.9 547.375 398.984 548.525C400.067 549.692 400.609 551.4 400.609 553.65C400.609 555.95 400.059 557.667 398.959 558.8C397.875 559.933 396.534 560.5 394.934 560.5C394.434 560.5 393.825 560.392 393.109 560.175C392.059 559.858 391.275 559.192 390.759 558.175V564.625H388.559ZM390.609 553.7C390.609 555.467 391.009 556.792 391.809 557.675C392.642 558.525 393.55 558.95 394.534 558.95C395.567 558.95 396.45 558.533 397.184 557.7C397.917 556.833 398.284 555.483 398.284 553.65C398.284 551.983 397.942 550.683 397.259 549.75C396.592 548.817 395.642 548.35 394.409 548.35C393.759 548.35 393.15 548.525 392.584 548.875C391.267 549.658 390.609 551.267 390.609 553.7ZM412.626 556.325H414.726C414.526 557.442 413.984 558.417 413.101 559.25C412.217 560.083 410.909 560.5 409.176 560.5C406.826 560.5 405.101 559.725 404.001 558.175C403.451 557.358 403.092 556.483 402.926 555.55C402.809 554.9 402.751 554.283 402.751 553.7C402.751 552.583 402.917 551.533 403.251 550.55C403.467 549.85 403.784 549.242 404.201 548.725C404.651 548.175 405.292 547.717 406.126 547.35C406.959 546.983 407.901 546.8 408.951 546.8C410.817 546.8 412.226 547.317 413.176 548.35C413.576 548.783 413.901 549.333 414.151 550C414.517 550.967 414.742 552.142 414.826 553.525C414.826 553.575 414.826 553.683 414.826 553.85C414.842 554.017 414.851 554.117 414.851 554.15H405.076C405.076 555.417 405.409 556.533 406.076 557.5C406.742 558.467 407.751 558.95 409.101 558.95C410.067 558.95 410.859 558.708 411.476 558.225C412.092 557.742 412.476 557.108 412.626 556.325ZM405.076 552.6H412.526C412.509 551.617 412.276 550.708 411.826 549.875C411.309 548.858 410.367 548.35 409.001 548.35C407.451 548.35 406.384 548.867 405.801 549.9C405.317 550.733 405.076 551.633 405.076 552.6ZM417.734 564.625V547.3H419.784V549.05H419.859C420.859 547.55 422.259 546.8 424.059 546.8C425.709 546.8 427.075 547.375 428.159 548.525C429.242 549.692 429.784 551.4 429.784 553.65C429.784 555.95 429.234 557.667 428.134 558.8C427.05 559.933 425.709 560.5 424.109 560.5C423.609 560.5 423 560.392 422.284 560.175C421.234 559.858 420.45 559.192 419.934 558.175V564.625H417.734ZM419.784 553.7C419.784 555.467 420.184 556.792 420.984 557.675C421.817 558.525 422.725 558.95 423.709 558.95C424.742 558.95 425.625 558.533 426.359 557.7C427.092 556.833 427.459 555.483 427.459 553.65C427.459 551.983 427.117 550.683 426.434 549.75C425.767 548.817 424.817 548.35 423.584 548.35C422.934 548.35 422.325 548.525 421.759 548.875C420.442 549.658 419.784 551.267 419.784 553.7ZM434.326 551.05H432.226C432.226 550.05 432.559 549.133 433.226 548.3C434.026 547.3 435.492 546.8 437.626 546.8C438.876 546.8 439.976 547.05 440.926 547.55C441.476 547.817 441.909 548.258 442.226 548.875C442.542 549.492 442.692 550.225 442.676 551.075L442.551 556.95C442.551 557.433 442.601 557.808 442.701 558.075C442.851 558.342 443.242 558.467 443.876 558.45V560C443.626 560.067 443.292 560.1 442.876 560.1C442.142 560.1 441.609 559.975 441.276 559.725C440.959 559.475 440.734 558.983 440.601 558.25C439.784 559.75 438.334 560.5 436.251 560.5C434.817 560.5 433.709 560.183 432.926 559.55C432.159 558.9 431.776 557.942 431.776 556.675C431.776 555.475 432.209 554.567 433.076 553.95C433.942 553.3 435.584 552.867 438.001 552.65C439.117 552.567 439.784 552.458 440.001 552.325C440.317 552.108 440.476 551.633 440.476 550.9C440.476 549.2 439.526 548.35 437.626 548.35C435.376 548.35 434.276 549.25 434.326 551.05ZM440.426 554.575L440.476 553.5C440.226 553.683 439.859 553.833 439.376 553.95C438.642 554 438.076 554.058 437.676 554.125C436.292 554.358 435.451 554.55 435.151 554.7C434.417 555.05 434.051 555.683 434.051 556.6C434.051 557.333 434.267 557.908 434.701 558.325C435.151 558.742 435.751 558.95 436.501 558.95C436.984 558.95 437.426 558.883 437.826 558.75C438.242 558.617 438.642 558.4 439.026 558.1C439.426 557.783 439.742 557.325 439.976 556.725C440.226 556.125 440.376 555.408 440.426 554.575ZM455.494 541.675H457.369C457.302 542.892 456.736 543.7 455.669 544.1C455.086 544.3 454.586 544.433 454.169 544.5C452.302 544.733 451.219 544.892 450.919 544.975C449.786 545.292 448.919 545.867 448.319 546.7C447.719 547.517 447.402 548.692 447.369 550.225H447.419C448.219 548.075 449.861 547 452.344 547C454.361 547 455.869 547.667 456.869 549C457.886 550.317 458.394 551.933 458.394 553.85C458.394 555.683 457.869 557.25 456.819 558.55C455.769 559.85 454.211 560.5 452.144 560.5C449.861 560.5 448.169 559.633 447.069 557.9C446.519 556.95 446.144 555.883 445.944 554.7C445.811 553.767 445.744 552.842 445.744 551.925C445.744 548.708 446.236 546.458 447.219 545.175C448.086 544.058 449.261 543.342 450.744 543.025C452.144 542.708 453.327 542.525 454.294 542.475C454.944 542.392 455.344 542.125 455.494 541.675ZM448.069 554C448.069 555.1 448.319 556.158 448.819 557.175C449.402 558.358 450.494 558.95 452.094 558.95C453.361 558.95 454.336 558.525 455.019 557.675C455.719 556.808 456.069 555.617 456.069 554.1C456.069 552.85 455.852 551.692 455.419 550.625C454.869 549.242 453.761 548.55 452.094 548.55C450.427 548.55 449.302 549.225 448.719 550.575C448.286 551.608 448.069 552.75 448.069 554ZM460.864 556.15C460.431 554.367 460.447 552.642 460.914 550.975C461.381 549.308 462.364 548.117 463.864 547.4C464.697 547 465.672 546.8 466.789 546.8C467.906 546.8 468.881 547 469.714 547.4C471.214 548.1 472.206 549.35 472.689 551.15C472.906 551.983 473.014 552.825 473.014 553.675C473.031 554.508 472.931 555.333 472.714 556.15C472.514 556.95 472.156 557.683 471.639 558.35C471.139 559.017 470.497 559.542 469.714 559.925C468.864 560.308 467.889 560.5 466.789 560.5C465.689 560.5 464.714 560.308 463.864 559.925C462.414 559.225 461.414 557.967 460.864 556.15ZM463.189 551.125C462.972 551.792 462.864 552.625 462.864 553.625C462.864 554.608 462.972 555.45 463.189 556.15C463.406 556.85 463.656 557.375 463.939 557.725C464.539 558.392 465.222 558.783 465.989 558.9C466.522 558.983 467.056 558.983 467.589 558.9C467.822 558.883 468.147 558.767 468.564 558.55C469.014 558.317 469.381 558.025 469.664 557.675C469.947 557.325 470.189 556.817 470.389 556.15C470.606 555.45 470.714 554.608 470.714 553.625C470.714 552.625 470.606 551.792 470.389 551.125C470.156 550.392 469.897 549.867 469.614 549.55C469.347 549.233 469.014 548.967 468.614 548.75C468.214 548.533 467.872 548.4 467.589 548.35C467.056 548.267 466.522 548.267 465.989 548.35C465.756 548.367 465.422 548.492 464.989 548.725C464.139 549.142 463.539 549.942 463.189 551.125ZM478.056 560V548.85H473.656V547.3H484.656V548.85H480.256V560H478.056ZM488.684 547.3V552.85L494.109 547.3H496.684L490.734 553.2L497.009 560H494.384L488.684 553.65V560H486.484V547.3H488.684ZM500.915 547.3V557.425L507.54 547.3H509.99V560H507.79V549.85L501.19 560H498.715V547.3H500.915Z" fill="black"/>
<path d="M58.2727 446H53.7273V450.545H49.1818V455.091H44.6364V459.636H40.0909V464.182H35.5455V468.727H31V473.273H35.5455V477.818H40.0909V482.364H44.6364V486.909H49.1818V491.455H53.7273V496H58.2727V491.455H62.8182V486.909H67.3636V482.364H71.9091V477.818H76.4545V473.273H81V468.727H76.4545V464.182H71.9091V459.636H67.3636V455.091H62.8182V450.545H58.2727V446ZM58.2727 450.545V455.091H62.8182V459.636H67.3636V464.182H71.9091V468.727H76.4545V473.273H71.9091V477.818H67.3636V482.364H62.8182V486.909H58.2727V491.455H53.7273V486.909H49.1818V482.364H44.6364V477.818H40.0909V473.273H35.5455V468.727H40.0909V464.182H44.6364V459.636H49.1818V455.091H53.7273V450.545H58.2727ZM58.2727 459.636H53.7273V473.273H58.2727V459.636ZM58.2727 477.818H53.7273V482.364H58.2727V477.818Z" fill="black"/>
<path d="M34.1 514.5L39.125 525.025L43.325 514.5H45.8L39.875 528.875C39.1917 530.458 38.4333 531.442 37.6 531.825C36.9833 532.108 36.2583 532.25 35.425 532.25C34.6917 532.25 34.0417 532.167 33.475 532V529.95C34.025 530.133 34.575 530.225 35.125 530.225C35.525 530.225 35.8583 530.183 36.125 530.1C36.4083 530.017 36.7167 529.775 37.05 529.375C37.3833 528.975 37.6583 528.4 37.875 527.65L31.225 514.5H34.1ZM55.6973 532H53.9973L49.6973 521.8H49.6473L49.6973 522.475V532H47.4973V519.3H50.5223L54.8473 529.625L59.1723 519.3H62.1973V532H59.9973V522.475L60.0723 521.8H59.9973L55.6973 532ZM74.9578 528.325H77.0578C76.8578 529.442 76.3161 530.417 75.4328 531.25C74.5495 532.083 73.2411 532.5 71.5078 532.5C69.1578 532.5 67.4328 531.725 66.3328 530.175C65.7828 529.358 65.4245 528.483 65.2578 527.55C65.1411 526.9 65.0828 526.283 65.0828 525.7C65.0828 524.583 65.2495 523.533 65.5828 522.55C65.7995 521.85 66.1161 521.242 66.5328 520.725C66.9828 520.175 67.6245 519.717 68.4578 519.35C69.2911 518.983 70.2328 518.8 71.2828 518.8C73.1495 518.8 74.5578 519.317 75.5078 520.35C75.9078 520.783 76.2328 521.333 76.4828 522C76.8495 522.967 77.0745 524.142 77.1578 525.525C77.1578 525.575 77.1578 525.683 77.1578 525.85C77.1745 526.017 77.1828 526.117 77.1828 526.15H67.4078C67.4078 527.417 67.7411 528.533 68.4078 529.5C69.0745 530.467 70.0828 530.95 71.4328 530.95C72.3995 530.95 73.1911 530.708 73.8078 530.225C74.4245 529.742 74.8078 529.108 74.9578 528.325ZM67.4078 524.6H74.8578C74.8411 523.617 74.6078 522.708 74.1578 521.875C73.6411 520.858 72.6995 520.35 71.3328 520.35C69.7828 520.35 68.7161 520.867 68.1328 521.9C67.6495 522.733 67.4078 523.633 67.4078 524.6ZM80.0656 536.625V519.3H82.1156V521.05H82.1906C83.1906 519.55 84.5906 518.8 86.3906 518.8C88.0406 518.8 89.4073 519.375 90.4906 520.525C91.574 521.692 92.1156 523.4 92.1156 525.65C92.1156 527.95 91.5656 529.667 90.4656 530.8C89.3823 531.933 88.0406 532.5 86.4406 532.5C85.9406 532.5 85.3323 532.392 84.6156 532.175C83.5656 531.858 82.7823 531.192 82.2656 530.175V536.625H80.0656ZM82.1156 525.7C82.1156 527.467 82.5156 528.792 83.3156 529.675C84.149 530.525 85.0573 530.95 86.0406 530.95C87.074 530.95 87.9573 530.533 88.6906 529.7C89.424 528.833 89.7906 527.483 89.7906 525.65C89.7906 523.983 89.449 522.683 88.7656 521.75C88.099 520.817 87.149 520.35 85.9156 520.35C85.2656 520.35 84.6573 520.525 84.0906 520.875C82.774 521.658 82.1156 523.267 82.1156 525.7ZM104.133 528.325H106.233C106.033 529.442 105.491 530.417 104.608 531.25C103.724 532.083 102.416 532.5 100.683 532.5C98.3326 532.5 96.6076 531.725 95.5076 530.175C94.9576 529.358 94.5993 528.483 94.4326 527.55C94.316 526.9 94.2576 526.283 94.2576 525.7C94.2576 524.583 94.4243 523.533 94.7576 522.55C94.9743 521.85 95.291 521.242 95.7076 520.725C96.1576 520.175 96.7993 519.717 97.6326 519.35C98.466 518.983 99.4076 518.8 100.458 518.8C102.324 518.8 103.733 519.317 104.683 520.35C105.083 520.783 105.408 521.333 105.658 522C106.024 522.967 106.249 524.142 106.333 525.525C106.333 525.575 106.333 525.683 106.333 525.85C106.349 526.017 106.358 526.117 106.358 526.15H96.5826C96.5826 527.417 96.916 528.533 97.5826 529.5C98.2493 530.467 99.2576 530.95 100.608 530.95C101.574 530.95 102.366 530.708 102.983 530.225C103.599 529.742 103.983 529.108 104.133 528.325ZM96.5826 524.6H104.033C104.016 523.617 103.783 522.708 103.333 521.875C102.816 520.858 101.874 520.35 100.508 520.35C98.9576 520.35 97.891 520.867 97.3076 521.9C96.8243 522.733 96.5826 523.633 96.5826 524.6ZM117.715 526.075H111.44V532H109.24V519.3H111.44V524.525H117.715V519.3H119.915V532H117.715V526.075ZM131.998 526.075H125.723V532H123.523V519.3H125.723V524.525H131.998V519.3H134.198V532H131.998V526.075ZM137.805 532V519.3H140.005V524.325H143.205C144.222 524.325 145.072 524.425 145.755 524.625C147.388 525.042 148.238 526.233 148.305 528.2C148.305 529.367 147.947 530.292 147.23 530.975C146.53 531.658 145.438 532 143.955 532H137.805ZM142.68 525.875H140.005V530.45H143.08C145.047 530.45 146.03 529.65 146.03 528.05C146.03 527.267 145.772 526.7 145.255 526.35C145.088 526.217 144.813 526.108 144.43 526.025C144.03 525.925 143.447 525.875 142.68 525.875ZM149.855 532V519.3H152.055V532H149.855ZM157.852 519.3V529.425L164.477 519.3H166.927V532H164.727V521.85L158.127 532H155.652V519.3H157.852ZM163.652 514.5H165.527C165.177 516.333 164.077 517.408 162.227 517.725C161.91 517.775 161.577 517.8 161.227 517.8C159.077 517.8 157.702 516.925 157.102 515.175C157.052 515.058 156.993 514.833 156.927 514.5H158.802C158.752 514.933 158.902 515.342 159.252 515.725C159.502 515.992 159.793 516.192 160.127 516.325C160.427 516.425 160.793 516.475 161.227 516.475C161.943 516.475 162.535 516.3 163.002 515.95C163.468 515.583 163.685 515.1 163.652 514.5ZM33.275 564.6V562.975C33.9083 563.058 34.275 563.1 34.375 563.1C35.0083 563.1 35.4583 562.867 35.725 562.4C35.8917 562.15 36 561.942 36.05 561.775C36.1 561.692 36.2083 561.417 36.375 560.95L36.675 560L31.175 547.3H33.8L37.875 557.575L41.25 547.3H43.45L38.4 561.5C38 562.633 37.6583 563.375 37.375 563.725C36.8083 564.392 36.0417 564.725 35.075 564.725C34.325 564.725 33.725 564.683 33.275 564.6ZM45.2512 564.625V547.3H47.3012V549.05H47.3762C48.3762 547.55 49.7762 546.8 51.5762 546.8C53.2262 546.8 54.5928 547.375 55.6762 548.525C56.7595 549.692 57.3012 551.4 57.3012 553.65C57.3012 555.95 56.7512 557.667 55.6512 558.8C54.5678 559.933 53.2262 560.5 51.6262 560.5C51.1262 560.5 50.5178 560.392 49.8012 560.175C48.7512 559.858 47.9678 559.192 47.4512 558.175V564.625H45.2512ZM47.3012 553.7C47.3012 555.467 47.7012 556.792 48.5012 557.675C49.3345 558.525 50.2428 558.95 51.2262 558.95C52.2595 558.95 53.1428 558.533 53.8762 557.7C54.6095 556.833 54.9762 555.483 54.9762 553.65C54.9762 551.983 54.6345 550.683 53.9512 549.75C53.2845 548.817 52.3345 548.35 51.1012 548.35C50.4512 548.35 49.8428 548.525 49.2762 548.875C47.9595 549.658 47.3012 551.267 47.3012 553.7ZM59.7682 556.15C59.3348 554.367 59.3515 552.642 59.8182 550.975C60.2848 549.308 61.2682 548.117 62.7682 547.4C63.6015 547 64.5765 546.8 65.6932 546.8C66.8098 546.8 67.7848 547 68.6182 547.4C70.1182 548.1 71.1098 549.35 71.5932 551.15C71.8098 551.983 71.9182 552.825 71.9182 553.675C71.9348 554.508 71.8348 555.333 71.6182 556.15C71.4182 556.95 71.0598 557.683 70.5432 558.35C70.0432 559.017 69.4015 559.542 68.6182 559.925C67.7682 560.308 66.7932 560.5 65.6932 560.5C64.5932 560.5 63.6182 560.308 62.7682 559.925C61.3182 559.225 60.3182 557.967 59.7682 556.15ZM62.0932 551.125C61.8765 551.792 61.7682 552.625 61.7682 553.625C61.7682 554.608 61.8765 555.45 62.0932 556.15C62.3098 556.85 62.5598 557.375 62.8432 557.725C63.4432 558.392 64.1265 558.783 64.8932 558.9C65.4265 558.983 65.9598 558.983 66.4932 558.9C66.7265 558.883 67.0515 558.767 67.4682 558.55C67.9182 558.317 68.2848 558.025 68.5682 557.675C68.8515 557.325 69.0932 556.817 69.2932 556.15C69.5098 555.45 69.6182 554.608 69.6182 553.625C69.6182 552.625 69.5098 551.792 69.2932 551.125C69.0598 550.392 68.8015 549.867 68.5182 549.55C68.2515 549.233 67.9182 548.967 67.5182 548.75C67.1182 548.533 66.7765 548.4 66.4932 548.35C65.9598 548.267 65.4265 548.267 64.8932 548.35C64.6598 548.367 64.3265 548.492 63.8932 548.725C63.0432 549.142 62.4432 549.942 62.0932 551.125ZM74.8166 560V547.3H80.8666C83.5499 547.3 84.8916 548.308 84.8916 550.325C84.8916 551.775 84.1249 552.767 82.5916 553.3V553.375C83.6249 553.625 84.3416 554.025 84.7416 554.575C85.1583 555.125 85.3666 555.833 85.3666 556.7C85.3666 558.083 84.8583 559 83.8416 559.45C83.0083 559.817 81.9916 560 80.7916 560H74.8166ZM80.1666 548.85H77.0166V552.6H80.0666C80.9499 552.6 81.5999 552.425 82.0166 552.075C82.4499 551.708 82.6666 551.233 82.6666 550.65C82.6666 549.45 81.8333 548.85 80.1666 548.85ZM80.1666 554.15H77.0166V558.45H80.2416C82.1416 558.45 83.0916 557.8 83.0916 556.5C83.0916 554.933 82.1166 554.15 80.1666 554.15ZM97.4432 556.325H99.5432C99.3432 557.442 98.8015 558.417 97.9182 559.25C97.0348 560.083 95.7265 560.5 93.9932 560.5C91.6432 560.5 89.9182 559.725 88.8182 558.175C88.2682 557.358 87.9098 556.483 87.7432 555.55C87.6265 554.9 87.5682 554.283 87.5682 553.7C87.5682 552.583 87.7348 551.533 88.0682 550.55C88.2848 549.85 88.6015 549.242 89.0182 548.725C89.4682 548.175 90.1098 547.717 90.9432 547.35C91.7765 546.983 92.7182 546.8 93.7682 546.8C95.6348 546.8 97.0432 547.317 97.9932 548.35C98.3932 548.783 98.7182 549.333 98.9682 550C99.3348 550.967 99.5598 552.142 99.6432 553.525C99.6432 553.575 99.6432 553.683 99.6432 553.85C99.6598 554.017 99.6682 554.117 99.6682 554.15H89.8932C89.8932 555.417 90.2265 556.533 90.8932 557.5C91.5598 558.467 92.5682 558.95 93.9182 558.95C94.8848 558.95 95.6765 558.708 96.2932 558.225C96.9098 557.742 97.2932 557.108 97.4432 556.325ZM89.8932 552.6H97.3432C97.3265 551.617 97.0932 550.708 96.6432 549.875C96.1265 548.858 95.1848 548.35 93.8182 548.35C92.2682 548.35 91.2015 548.867 90.6182 549.9C90.1348 550.733 89.8932 551.633 89.8932 552.6ZM111.026 554.075H104.751V560H102.551V547.3H104.751V552.525H111.026V547.3H113.226V560H111.026V554.075ZM116.833 560V547.3H119.033V552.35H122.208C123.458 552.35 124.533 552.533 125.433 552.9C126.683 553.35 127.308 554.4 127.308 556.05C127.308 557.417 126.908 558.433 126.108 559.1C125.775 559.367 125.383 559.567 124.933 559.7C124.333 559.9 123.675 560 122.958 560H116.833ZM121.708 553.9H119.033V558.45H122.083C123.117 558.45 123.875 558.242 124.358 557.825C124.842 557.342 125.067 556.75 125.033 556.05C125.033 555.283 124.783 554.717 124.283 554.35C124.117 554.233 123.85 554.133 123.483 554.05C123.083 553.95 122.558 553.9 121.908 553.9H121.708ZM135.11 556.15C134.677 554.367 134.693 552.642 135.16 550.975C135.627 549.308 136.61 548.117 138.11 547.4C138.943 547 139.918 546.8 141.035 546.8C142.152 546.8 143.127 547 143.96 547.4C145.46 548.1 146.452 549.35 146.935 551.15C147.152 551.983 147.26 552.825 147.26 553.675C147.277 554.508 147.177 555.333 146.96 556.15C146.76 556.95 146.402 557.683 145.885 558.35C145.385 559.017 144.743 559.542 143.96 559.925C143.11 560.308 142.135 560.5 141.035 560.5C139.935 560.5 138.96 560.308 138.11 559.925C136.66 559.225 135.66 557.967 135.11 556.15ZM137.435 551.125C137.218 551.792 137.11 552.625 137.11 553.625C137.11 554.608 137.218 555.45 137.435 556.15C137.652 556.85 137.902 557.375 138.185 557.725C138.785 558.392 139.468 558.783 140.235 558.9C140.768 558.983 141.302 558.983 141.835 558.9C142.068 558.883 142.393 558.767 142.81 558.55C143.26 558.317 143.627 558.025 143.91 557.675C144.193 557.325 144.435 556.817 144.635 556.15C144.852 555.45 144.96 554.608 144.96 553.625C144.96 552.625 144.852 551.792 144.635 551.125C144.402 550.392 144.143 549.867 143.86 549.55C143.593 549.233 143.26 548.967 142.86 548.75C142.46 548.533 142.118 548.4 141.835 548.35C141.302 548.267 140.768 548.267 140.235 548.35C140.002 548.367 139.668 548.492 139.235 548.725C138.385 549.142 137.785 549.942 137.435 551.125ZM158.783 548.85H152.358V560H150.158V547.3H160.983V560H158.783V548.85ZM166.262 551.05H164.162C164.162 550.05 164.495 549.133 165.162 548.3C165.962 547.3 167.429 546.8 169.562 546.8C170.812 546.8 171.912 547.05 172.862 547.55C173.412 547.817 173.845 548.258 174.162 548.875C174.479 549.492 174.629 550.225 174.612 551.075L174.487 556.95C174.487 557.433 174.537 557.808 174.637 558.075C174.787 558.342 175.179 558.467 175.812 558.45V560C175.562 560.067 175.229 560.1 174.812 560.1C174.079 560.1 173.545 559.975 173.212 559.725C172.895 559.475 172.67 558.983 172.537 558.25C171.72 559.75 170.27 560.5 168.187 560.5C166.754 560.5 165.645 560.183 164.862 559.55C164.095 558.9 163.712 557.942 163.712 556.675C163.712 555.475 164.145 554.567 165.012 553.95C165.879 553.3 167.52 552.867 169.937 552.65C171.054 552.567 171.72 552.458 171.937 552.325C172.254 552.108 172.412 551.633 172.412 550.9C172.412 549.2 171.462 548.35 169.562 548.35C167.312 548.35 166.212 549.25 166.262 551.05ZM172.362 554.575L172.412 553.5C172.162 553.683 171.795 553.833 171.312 553.95C170.579 554 170.012 554.058 169.612 554.125C168.229 554.358 167.387 554.55 167.087 554.7C166.354 555.05 165.987 555.683 165.987 556.6C165.987 557.333 166.204 557.908 166.637 558.325C167.087 558.742 167.687 558.95 168.437 558.95C168.92 558.95 169.362 558.883 169.762 558.75C170.179 558.617 170.579 558.4 170.962 558.1C171.362 557.783 171.679 557.325 171.912 556.725C172.162 556.125 172.312 555.408 172.362 554.575ZM187.305 555.475H189.405C189.339 556.442 188.972 557.458 188.305 558.525C187.939 559.125 187.364 559.608 186.58 559.975C185.814 560.325 184.914 560.5 183.88 560.5C183.53 560.5 183.28 560.492 183.13 560.475C182.397 560.442 181.647 560.25 180.88 559.9C178.747 558.833 177.68 556.717 177.68 553.55C177.68 551.883 178.064 550.4 178.83 549.1C179.78 547.567 181.414 546.8 183.73 546.8C185.364 546.8 186.664 547.217 187.63 548.05C188.597 548.867 189.155 549.942 189.305 551.275H187.205C186.872 549.325 185.73 548.35 183.78 548.35C182.514 548.35 181.564 548.817 180.93 549.75C180.314 550.667 180.005 551.933 180.005 553.55C180.005 555.117 180.33 556.408 180.98 557.425C181.63 558.442 182.614 558.95 183.93 558.95C185.064 558.95 185.889 558.592 186.405 557.875C186.955 557.158 187.255 556.358 187.305 555.475ZM200.577 554.075H194.302V560H192.102V547.3H194.302V552.525H200.577V547.3H202.777V560H200.577V554.075ZM205.984 556.15C205.551 554.367 205.567 552.642 206.034 550.975C206.501 549.308 207.484 548.117 208.984 547.4C209.817 547 210.792 546.8 211.909 546.8C213.026 546.8 214.001 547 214.834 547.4C216.334 548.1 217.326 549.35 217.809 551.15C218.026 551.983 218.134 552.825 218.134 553.675C218.151 554.508 218.051 555.333 217.834 556.15C217.634 556.95 217.276 557.683 216.759 558.35C216.259 559.017 215.617 559.542 214.834 559.925C213.984 560.308 213.009 560.5 211.909 560.5C210.809 560.5 209.834 560.308 208.984 559.925C207.534 559.225 206.534 557.967 205.984 556.15ZM208.309 551.125C208.092 551.792 207.984 552.625 207.984 553.625C207.984 554.608 208.092 555.45 208.309 556.15C208.526 556.85 208.776 557.375 209.059 557.725C209.659 558.392 210.342 558.783 211.109 558.9C211.642 558.983 212.176 558.983 212.709 558.9C212.942 558.883 213.267 558.767 213.684 558.55C214.134 558.317 214.501 558.025 214.784 557.675C215.067 557.325 215.309 556.817 215.509 556.15C215.726 555.45 215.834 554.608 215.834 553.625C215.834 552.625 215.726 551.792 215.509 551.125C215.276 550.392 215.017 549.867 214.734 549.55C214.467 549.233 214.134 548.967 213.734 548.75C213.334 548.533 212.992 548.4 212.709 548.35C212.176 548.267 211.642 548.267 211.109 548.35C210.876 548.367 210.542 548.492 210.109 548.725C209.259 549.142 208.659 549.942 208.309 551.125ZM229.932 555.475H232.032C231.966 556.442 231.599 557.458 230.932 558.525C230.566 559.125 229.991 559.608 229.207 559.975C228.441 560.325 227.541 560.5 226.507 560.5C226.157 560.5 225.907 560.492 225.757 560.475C225.024 560.442 224.274 560.25 223.507 559.9C221.374 558.833 220.307 556.717 220.307 553.55C220.307 551.883 220.691 550.4 221.457 549.1C222.407 547.567 224.041 546.8 226.357 546.8C227.991 546.8 229.291 547.217 230.257 548.05C231.224 548.867 231.782 549.942 231.932 551.275H229.832C229.499 549.325 228.357 548.35 226.407 548.35C225.141 548.35 224.191 548.817 223.557 549.75C222.941 550.667 222.632 551.933 222.632 553.55C222.632 555.117 222.957 556.408 223.607 557.425C224.257 558.442 225.241 558.95 226.557 558.95C227.691 558.95 228.516 558.592 229.032 557.875C229.582 557.158 229.882 556.358 229.932 555.475ZM237.214 560V548.85H232.814V547.3H243.814V548.85H239.414V560H237.214ZM247.695 547.3V557.425L254.32 547.3H256.77V560H254.57V549.85L247.97 560H245.495V547.3H247.695Z" fill="black"/>
<path d="M172.975 59V34.5H182.95C188.48 34.5 191.245 36.845 191.245 41.535C191.245 46.6683 188.375 49.235 182.635 49.235H176.265V59H172.975ZM182.285 37.265H176.265V46.47H182.285C184.222 46.47 185.633 46.0733 186.52 45.28C187.43 44.4633 187.885 43.2383 187.885 41.605C187.885 40.0883 187.43 38.9917 186.52 38.315C185.61 37.615 184.198 37.265 182.285 37.265ZM198.619 37.265V44.965H211.464V47.73H198.619V56.235H213.179V59H195.329V34.5H212.794V37.265H198.619ZM222.219 59V37.265H214.239V34.5H233.454V37.265H225.509V59H222.219ZM231.713 59V55.185H235.178V60.085C235.178 61.2517 234.851 62.1733 234.198 62.85C233.545 63.5267 232.716 63.97 231.713 64.18V62.255C232.203 62.2083 232.611 61.9633 232.938 61.52C233.288 61.1 233.463 60.6217 233.463 60.085V59H231.713ZM250.016 59V34.5H259.991C265.521 34.5 268.286 36.845 268.286 41.535C268.286 46.6683 265.416 49.235 259.676 49.235H253.306V59H250.016ZM259.326 37.265H253.306V46.47H259.326C261.263 46.47 262.674 46.0733 263.561 45.28C264.471 44.4633 264.926 43.2383 264.926 41.605C264.926 40.0883 264.471 38.9917 263.561 38.315C262.651 37.615 261.239 37.265 259.326 37.265ZM275.66 37.265V44.965H288.505V47.73H275.66V56.235H290.22V59H272.37V34.5H289.835V37.265H275.66ZM299.26 59V37.265H291.28V34.5H310.495V37.265H302.55V59H299.26ZM317.222 37.265V44.965H330.067V47.73H317.222V56.235H331.782V59H313.932V34.5H331.397V37.265H317.222ZM375.48 37.265H363.16V59H359.87V34.5H378.77V59H375.48V37.265ZM390.283 47.73V44.965H401.833C401.833 43.705 401.588 42.4567 401.098 41.22C400.631 39.89 399.803 38.7933 398.613 37.93C397.446 37.0433 395.895 36.5767 393.958 36.53C391.951 36.53 390.33 37.0083 389.093 37.965C387.88 38.8983 387.168 40.1233 386.958 41.64H383.668C383.855 39.47 384.776 37.6267 386.433 36.11C388.136 34.5467 390.54 33.765 393.643 33.765C395.44 33.765 397.061 34.045 398.508 34.605C399.955 35.1417 401.11 35.865 401.973 36.775C402.79 37.5917 403.466 38.6067 404.003 39.82C404.89 41.7567 405.333 43.9733 405.333 46.47C405.333 48.9667 404.948 51.2183 404.178 53.225C403.688 54.4617 403.035 55.5467 402.218 56.48C401.378 57.4367 400.223 58.2183 398.753 58.825C397.306 59.4317 395.65 59.735 393.783 59.735C392.313 59.735 390.983 59.525 389.793 59.105C388.603 58.7083 387.635 58.195 386.888 57.565C386.141 56.935 385.5 56.2 384.963 55.36C384.45 54.4967 384.065 53.68 383.808 52.91C383.575 52.1167 383.411 51.3117 383.318 50.495H386.608C386.771 51.5917 387.121 52.63 387.658 53.61C389.011 55.85 391.1 56.97 393.923 56.97C396.326 56.97 398.158 56.3167 399.418 55.01C400.888 53.47 401.693 51.4283 401.833 48.885C401.88 48.4883 401.88 48.1033 401.833 47.73H390.283ZM415.334 59V37.265H407.354V34.5H426.569V37.265H418.624V59H415.334ZM430.16 59V55.185H433.625V60.085C433.625 61.2517 433.299 62.1733 432.645 62.85C431.992 63.5267 431.164 63.97 430.16 64.18V62.255C430.65 62.2083 431.059 61.9633 431.385 61.52C431.735 61.1 431.91 60.6217 431.91 60.085V59H430.16ZM464.073 37.265H451.753V59H448.463V34.5H467.363V59H464.073V37.265ZM478.877 47.73V44.965H490.427C490.427 43.705 490.182 42.4567 489.692 41.22C489.225 39.89 488.397 38.7933 487.207 37.93C486.04 37.0433 484.489 36.5767 482.552 36.53C480.545 36.53 478.924 37.0083 477.687 37.965C476.474 38.8983 475.762 40.1233 475.552 41.64H472.262C472.449 39.47 473.37 37.6267 475.027 36.11C476.73 34.5467 479.134 33.765 482.237 33.765C484.034 33.765 485.655 34.045 487.102 34.605C488.549 35.1417 489.704 35.865 490.567 36.775C491.384 37.5917 492.06 38.6067 492.597 39.82C493.484 41.7567 493.927 43.9733 493.927 46.47C493.927 48.9667 493.542 51.2183 492.772 53.225C492.282 54.4617 491.629 55.5467 490.812 56.48C489.972 57.4367 488.817 58.2183 487.347 58.825C485.9 59.4317 484.244 59.735 482.377 59.735C480.907 59.735 479.577 59.525 478.387 59.105C477.197 58.7083 476.229 58.195 475.482 57.565C474.735 56.935 474.094 56.2 473.557 55.36C473.044 54.4967 472.659 53.68 472.402 52.91C472.169 52.1167 472.005 51.3117 471.912 50.495H475.202C475.365 51.5917 475.715 52.63 476.252 53.61C477.605 55.85 479.694 56.97 482.517 56.97C484.92 56.97 486.752 56.3167 488.012 55.01C489.482 53.47 490.287 51.4283 490.427 48.885C490.474 48.4883 490.474 48.1033 490.427 47.73H478.877ZM503.928 59V37.265H495.948V34.5H515.163V37.265H507.218V59H503.928ZM530.828 59.91H527.538V56.235H526.173C525.613 56.235 525.182 56.2233 524.878 56.2C523.338 56.0133 522.008 55.7333 520.888 55.36C517.015 53.82 515.078 50.8683 515.078 46.505C515.078 45.9917 515.09 45.6067 515.113 45.35C515.3 43.9967 515.627 42.83 516.093 41.85C517.867 38.49 521.227 36.81 526.173 36.81H527.538V33.1H530.828V36.81H532.193C534.27 36.81 536.172 37.16 537.898 37.86C541.398 39.1667 543.195 42.0483 543.288 46.505C543.312 48.4883 542.903 50.1683 542.063 51.545C541.247 52.8983 540.197 53.925 538.913 54.625C538.19 55.0683 537.362 55.4183 536.428 55.675C534.842 56.0483 533.43 56.235 532.193 56.235H530.828V59.91ZM526.628 53.645H527.538V39.4H526.628C523.852 39.4 521.752 40.065 520.328 41.395C519.815 41.8617 519.418 42.4917 519.138 43.285C518.765 44.3117 518.578 45.385 518.578 46.505V47.485C518.648 48.4417 518.87 49.3167 519.243 50.11C520.363 52.4667 522.825 53.645 526.628 53.645ZM530.828 39.4V53.645H531.773C537.117 53.645 539.788 51.265 539.788 46.505C539.788 41.7683 537.117 39.4 531.773 39.4H530.828ZM188.585 72.265H176.265V94H172.975V69.5H191.875V94H188.585V72.265ZM196.809 88.61C196.202 86.1133 196.225 83.6983 196.879 81.365C197.532 79.0317 198.909 77.3633 201.009 76.36C202.175 75.8 203.54 75.52 205.104 75.52C206.667 75.52 208.032 75.8 209.199 76.36C211.299 77.34 212.687 79.09 213.364 81.61C213.667 82.7767 213.819 83.955 213.819 85.145C213.842 86.3117 213.702 87.4667 213.399 88.61C213.119 89.73 212.617 90.7567 211.894 91.69C211.194 92.6233 210.295 93.3583 209.199 93.895C208.009 94.4317 206.644 94.7 205.104 94.7C203.564 94.7 202.199 94.4317 201.009 93.895C198.979 92.915 197.579 91.1533 196.809 88.61ZM200.064 81.575C199.76 82.5083 199.609 83.675 199.609 85.075C199.609 86.4517 199.76 87.63 200.064 88.61C200.367 89.59 200.717 90.325 201.114 90.815C201.954 91.7483 202.91 92.2967 203.984 92.46C204.73 92.5767 205.477 92.5767 206.224 92.46C206.55 92.4367 207.005 92.2733 207.589 91.97C208.219 91.6433 208.732 91.235 209.129 90.745C209.525 90.255 209.864 89.5433 210.144 88.61C210.447 87.63 210.599 86.4517 210.599 85.075C210.599 83.675 210.447 82.5083 210.144 81.575C209.817 80.5483 209.455 79.8133 209.059 79.37C208.685 78.9267 208.219 78.5533 207.659 78.25C207.099 77.9467 206.62 77.76 206.224 77.69C205.477 77.5733 204.73 77.5733 203.984 77.69C203.657 77.7133 203.19 77.8883 202.584 78.215C201.394 78.7983 200.554 79.9183 200.064 81.575ZM215.811 94V91.725C217.561 92.2383 218.798 91.41 219.521 89.24C219.708 88.7033 219.836 88.0383 219.906 87.245L220.046 85.11C220.07 84.7367 220.081 84.0017 220.081 82.905V76.22H232.401V94H229.321V78.39H222.951V82.905C222.951 84.375 222.916 85.6117 222.846 86.615C222.776 87.595 222.601 88.6683 222.321 89.835C221.925 91.4917 221.213 92.67 220.186 93.37C219.16 94.07 217.701 94.28 215.811 94ZM240.507 76.22V90.395L249.782 76.22H253.212V94H250.132V79.79L240.892 94H237.427V76.22H240.507ZM270.318 85.845H262.653V83.675H270.318C270.294 82.625 270.143 81.715 269.863 80.945C269.583 80.175 269.256 79.5917 268.883 79.195C268.509 78.7983 268.066 78.4833 267.553 78.25C267.039 77.9933 266.608 77.8417 266.258 77.795C265.931 77.725 265.604 77.69 265.278 77.69C263.761 77.69 262.536 78.075 261.603 78.845C260.693 79.5917 260.191 80.5717 260.098 81.785H257.158C257.461 79.335 258.616 77.55 260.623 76.43C261.136 76.1033 261.696 75.8933 262.303 75.8C263.259 75.6133 264.146 75.52 264.963 75.52C270.703 75.52 273.573 78.7633 273.573 85.25C273.573 91.55 270.761 94.7 265.138 94.7C263.761 94.7 262.559 94.525 261.533 94.175C259.153 93.4283 257.648 91.3167 257.018 87.84H259.958C260.354 90.9667 262.081 92.53 265.138 92.53C266.258 92.53 267.203 92.285 267.973 91.795C268.743 91.2817 269.279 90.605 269.583 89.765C270.073 88.3883 270.318 87.0817 270.318 85.845ZM281.273 94V78.39H275.113V76.22H290.513V78.39H284.353V94H281.273ZM295.947 76.22V90.395L305.222 76.22H308.652V94H305.572V79.79L296.332 94H292.867V76.22H295.947ZM311.617 94V91.725C313.367 92.2383 314.604 91.41 315.327 89.24C315.514 88.7033 315.642 88.0383 315.712 87.245L315.852 85.11C315.875 84.7367 315.887 84.0017 315.887 82.905V76.22H328.207V94H325.127V78.39H318.757V82.905C318.757 84.375 318.722 85.6117 318.652 86.615C318.582 87.595 318.407 88.6683 318.127 89.835C317.73 91.4917 317.019 92.67 315.992 93.37C314.965 94.07 313.507 94.28 311.617 94ZM346.043 88.855H348.983C348.703 90.4183 347.945 91.7833 346.708 92.95C345.471 94.1167 343.64 94.7 341.213 94.7C337.923 94.7 335.508 93.615 333.968 91.445C333.198 90.3017 332.696 89.0767 332.463 87.77C332.3 86.86 332.218 85.9967 332.218 85.18C332.218 83.6167 332.451 82.1467 332.918 80.77C333.221 79.79 333.665 78.9383 334.248 78.215C334.878 77.445 335.776 76.8033 336.943 76.29C338.11 75.7767 339.428 75.52 340.898 75.52C343.511 75.52 345.483 76.2433 346.813 77.69C347.373 78.2967 347.828 79.0667 348.178 80C348.691 81.3533 349.006 82.9983 349.123 84.935C349.123 85.005 349.123 85.1567 349.123 85.39C349.146 85.6233 349.158 85.7633 349.158 85.81H335.473C335.473 87.5833 335.94 89.1467 336.873 90.5C337.806 91.8533 339.218 92.53 341.108 92.53C342.461 92.53 343.57 92.1917 344.433 91.515C345.296 90.8383 345.833 89.9517 346.043 88.855ZM335.473 83.64H345.903C345.88 82.2633 345.553 80.9917 344.923 79.825C344.2 78.4017 342.881 77.69 340.968 77.69C338.798 77.69 337.305 78.4133 336.488 79.86C335.811 81.0267 335.473 82.2867 335.473 83.64ZM365.059 85.705H356.274V94H353.194V76.22H356.274V83.535H365.059V76.22H368.139V94H365.059V85.705ZM377.284 94V78.39H371.124V76.22H386.524V78.39H380.364V94H377.284ZM401.414 88.855H404.354C404.074 90.4183 403.316 91.7833 402.079 92.95C400.842 94.1167 399.011 94.7 396.584 94.7C393.294 94.7 390.879 93.615 389.339 91.445C388.569 90.3017 388.067 89.0767 387.834 87.77C387.671 86.86 387.589 85.9967 387.589 85.18C387.589 83.6167 387.822 82.1467 388.289 80.77C388.592 79.79 389.036 78.9383 389.619 78.215C390.249 77.445 391.147 76.8033 392.314 76.29C393.481 75.7767 394.799 75.52 396.269 75.52C398.882 75.52 400.854 76.2433 402.184 77.69C402.744 78.2967 403.199 79.0667 403.549 80C404.062 81.3533 404.377 82.9983 404.494 84.935C404.494 85.005 404.494 85.1567 404.494 85.39C404.517 85.6233 404.529 85.7633 404.529 85.81H390.844C390.844 87.5833 391.311 89.1467 392.244 90.5C393.177 91.8533 394.589 92.53 396.479 92.53C397.832 92.53 398.941 92.1917 399.804 91.515C400.667 90.8383 401.204 89.9517 401.414 88.855ZM390.844 83.64H401.274C401.251 82.2633 400.924 80.9917 400.294 79.825C399.571 78.4017 398.252 77.69 396.339 77.69C394.169 77.69 392.676 78.4133 391.859 79.86C391.182 81.0267 390.844 82.2867 390.844 83.64ZM408.565 100.475V76.22H411.435V78.67H411.54C412.94 76.57 414.9 75.52 417.42 75.52C419.73 75.52 421.643 76.325 423.16 77.935C424.677 79.5683 425.435 81.96 425.435 85.11C425.435 88.33 424.665 90.7333 423.125 92.32C421.608 93.9067 419.73 94.7 417.49 94.7C416.79 94.7 415.938 94.5483 414.935 94.245C413.465 93.8017 412.368 92.8683 411.645 91.445V100.475H408.565ZM411.435 85.18C411.435 87.6533 411.995 89.5083 413.115 90.745C414.282 91.935 415.553 92.53 416.93 92.53C418.377 92.53 419.613 91.9467 420.64 90.78C421.667 89.5667 422.18 87.6767 422.18 85.11C422.18 82.7767 421.702 80.9567 420.745 79.65C419.812 78.3433 418.482 77.69 416.755 77.69C415.845 77.69 414.993 77.935 414.2 78.425C412.357 79.5217 411.435 81.7733 411.435 85.18ZM442.259 88.855H445.199C444.919 90.4183 444.16 91.7833 442.924 92.95C441.687 94.1167 439.855 94.7 437.429 94.7C434.139 94.7 431.724 93.615 430.184 91.445C429.414 90.3017 428.912 89.0767 428.679 87.77C428.515 86.86 428.434 85.9967 428.434 85.18C428.434 83.6167 428.667 82.1467 429.134 80.77C429.437 79.79 429.88 78.9383 430.464 78.215C431.094 77.445 431.992 76.8033 433.159 76.29C434.325 75.7767 435.644 75.52 437.114 75.52C439.727 75.52 441.699 76.2433 443.029 77.69C443.589 78.2967 444.044 79.0667 444.394 80C444.907 81.3533 445.222 82.9983 445.339 84.935C445.339 85.005 445.339 85.1567 445.339 85.39C445.362 85.6233 445.374 85.7633 445.374 85.81H431.689C431.689 87.5833 432.155 89.1467 433.089 90.5C434.022 91.8533 435.434 92.53 437.324 92.53C438.677 92.53 439.785 92.1917 440.649 91.515C441.512 90.8383 442.049 89.9517 442.259 88.855ZM431.689 83.64H442.119C442.095 82.2633 441.769 80.9917 441.139 79.825C440.415 78.4017 439.097 77.69 437.184 77.69C435.014 77.69 433.52 78.4133 432.704 79.86C432.027 81.0267 431.689 82.2867 431.689 83.64ZM462.325 100.475H459.245V94.455C457.215 94.4083 455.465 94.1283 453.995 93.615C452.548 93.0783 451.428 92.355 450.635 91.445C449.841 90.535 449.27 89.555 448.92 88.505C448.57 87.455 448.395 86.2883 448.395 85.005C448.395 83.3017 448.756 81.715 449.48 80.245C450.903 77.2117 454.158 75.73 459.245 75.8V69.5H462.325V75.8C464.425 75.7533 466.28 76.0567 467.89 76.71C468.94 77.1067 469.826 77.6317 470.55 78.285C471.343 78.9383 471.973 79.86 472.44 81.05C472.93 82.2167 473.175 83.535 473.175 85.005C473.175 87.945 472.288 90.2317 470.515 91.865C468.741 93.4983 466.011 94.3617 462.325 94.455V100.475ZM459.245 92.285V77.97C457.471 77.8533 455.826 78.2383 454.31 79.125C452.536 80.1983 451.65 82.1467 451.65 84.97C451.65 87.35 452.28 89.135 453.54 90.325C455.033 91.6783 456.935 92.3317 459.245 92.285ZM462.325 77.97V92.285C465.335 92.285 467.4 91.4333 468.52 89.73C469.453 88.3067 469.92 86.72 469.92 84.97C469.92 84.41 469.873 83.85 469.78 83.29C469.686 82.7067 469.465 82.065 469.115 81.365C468.788 80.665 468.356 80.07 467.82 79.58C467.306 79.0667 466.571 78.6583 465.615 78.355C464.681 78.0283 463.585 77.9 462.325 77.97ZM480.404 94V78.39H474.244V76.22H489.644V78.39H483.484V94H480.404ZM494.069 81.47H491.129C491.129 80.07 491.596 78.7867 492.529 77.62C493.649 76.22 495.702 75.52 498.689 75.52C500.439 75.52 501.979 75.87 503.309 76.57C504.079 76.9433 504.686 77.5617 505.129 78.425C505.572 79.2883 505.782 80.315 505.759 81.505L505.584 89.73C505.584 90.4067 505.654 90.9317 505.794 91.305C506.004 91.6783 506.552 91.8533 507.439 91.83V94C507.089 94.0933 506.622 94.14 506.039 94.14C505.012 94.14 504.266 93.965 503.799 93.615C503.356 93.265 503.041 92.5767 502.854 91.55C501.711 93.65 499.681 94.7 496.764 94.7C494.757 94.7 493.206 94.2567 492.109 93.37C491.036 92.46 490.499 91.1183 490.499 89.345C490.499 87.665 491.106 86.3933 492.319 85.53C493.532 84.62 495.831 84.0133 499.214 83.71C500.777 83.5933 501.711 83.4417 502.014 83.255C502.457 82.9517 502.679 82.2867 502.679 81.26C502.679 78.88 501.349 77.69 498.689 77.69C495.539 77.69 493.999 78.95 494.069 81.47ZM502.609 86.405L502.679 84.9C502.329 85.1567 501.816 85.3667 501.139 85.53C500.112 85.6 499.319 85.6817 498.759 85.775C496.822 86.1017 495.644 86.37 495.224 86.58C494.197 87.07 493.684 87.9567 493.684 89.24C493.684 90.2667 493.987 91.0717 494.594 91.655C495.224 92.2383 496.064 92.53 497.114 92.53C497.791 92.53 498.409 92.4367 498.969 92.25C499.552 92.0633 500.112 91.76 500.649 91.34C501.209 90.8967 501.652 90.255 501.979 89.415C502.329 88.575 502.539 87.5717 502.609 86.405ZM509.005 94V91.725C510.755 92.2383 511.991 91.41 512.715 89.24C512.901 88.7033 513.03 88.0383 513.1 87.245L513.24 85.11C513.263 84.7367 513.275 84.0017 513.275 82.905V76.22H525.595V94H522.515V78.39H516.145V82.905C516.145 84.375 516.11 85.6117 516.04 86.615C515.97 87.595 515.795 88.6683 515.515 89.835C515.118 91.4917 514.406 92.67 513.38 93.37C512.353 94.07 510.895 94.28 509.005 94ZM532.966 81.47H530.026C530.026 80.07 530.492 78.7867 531.426 77.62C532.546 76.22 534.599 75.52 537.586 75.52C539.336 75.52 540.876 75.87 542.206 76.57C542.976 76.9433 543.582 77.5617 544.026 78.425C544.469 79.2883 544.679 80.315 544.656 81.505L544.481 89.73C544.481 90.4067 544.551 90.9317 544.691 91.305C544.901 91.6783 545.449 91.8533 546.336 91.83V94C545.986 94.0933 545.519 94.14 544.936 94.14C543.909 94.14 543.162 93.965 542.696 93.615C542.252 93.265 541.937 92.5767 541.751 91.55C540.607 93.65 538.577 94.7 535.661 94.7C533.654 94.7 532.102 94.2567 531.006 93.37C529.932 92.46 529.396 91.1183 529.396 89.345C529.396 87.665 530.002 86.3933 531.216 85.53C532.429 84.62 534.727 84.0133 538.111 83.71C539.674 83.5933 540.607 83.4417 540.911 83.255C541.354 82.9517 541.576 82.2867 541.576 81.26C541.576 78.88 540.246 77.69 537.586 77.69C534.436 77.69 532.896 78.95 532.966 81.47ZM541.506 86.405L541.576 84.9C541.226 85.1567 540.712 85.3667 540.036 85.53C539.009 85.6 538.216 85.6817 537.656 85.775C535.719 86.1017 534.541 86.37 534.121 86.58C533.094 87.07 532.581 87.9567 532.581 89.24C532.581 90.2667 532.884 91.0717 533.491 91.655C534.121 92.2383 534.961 92.53 536.011 92.53C536.687 92.53 537.306 92.4367 537.866 92.25C538.449 92.0633 539.009 91.76 539.546 91.34C540.106 90.8967 540.549 90.255 540.876 89.415C541.226 88.575 541.436 87.5717 541.506 86.405ZM552.968 94V78.39H546.808V76.22H562.208V78.39H556.048V94H552.968Z" fill="black"/>
<path d="M341.205 61.975H339L351.495 31H353.7L341.205 61.975Z" fill="black"/>
<path d="M141.031 230.02L132.719 215.06L125.727 218.94L134.039 233.908C134.676 235.042 135.004 236.325 134.988 237.626C134.971 238.928 134.612 240.202 133.947 241.32C132.587 243.624 130.183 245 127.507 245H98.3189L108.639 234.64L102.999 229L82.999 249L102.999 269L108.639 263.36L98.3189 253H127.511C130.207 253.014 132.859 252.317 135.199 250.978C137.539 249.64 139.484 247.707 140.839 245.376C142.22 243.059 142.965 240.419 142.999 237.722C143.033 235.025 142.354 232.371 141.031 230.02ZM46.4913 245C45.1889 245.008 43.9077 244.671 42.7769 244.025C41.6462 243.379 40.706 242.446 40.0513 241.32C39.3862 240.201 39.0278 238.927 39.0124 237.626C38.9969 236.324 39.3249 235.042 39.9633 233.908L56.4032 204.308L60.5992 218.388L68.2471 216.12L60.2112 189L33.0914 197.032L35.3594 204.68L49.3313 200.56L32.9714 230.02C31.6478 232.37 30.9681 235.028 31.0011 237.725C31.0342 240.422 31.7787 243.063 33.1594 245.38C34.5145 247.711 36.4608 249.643 38.8017 250.981C41.1425 252.319 43.7951 253.015 46.4913 253H70.9991V245H46.4913ZM125.039 179.616L120.847 193.692L100.399 156.88C97.6549 151.948 92.6469 149 86.999 149C81.351 149 76.3391 151.948 73.5991 156.884L61.2792 179.06L68.2751 182.94L80.595 160.768C81.899 158.408 84.295 157 86.999 157C89.703 157 92.0949 158.412 93.4069 160.768L113.775 197.436L99.7989 193.316L97.5349 200.968L124.655 209L132.687 181.88L125.039 179.616Z" fill="black"/>
<path d="M79.2768 206.15V203.875H79.7668C81.4702 203.875 82.9052 203.467 84.0718 202.65C85.2618 201.833 85.9502 200.783 86.1368 199.5H89.4268V224H84.9468V206.15H79.2768Z" fill="black"/>
</svg>
