<svg width="319" height="320" viewBox="0 0 319 320" fill="none" xmlns="http://www.w3.org/2000/svg">
<rect width="318.681" height="318.681" transform="translate(0 0.988281)" fill="#FFFF00"/>
<path d="M25.494 165.366V173.681H26.8464L26.7259 176.855H25.6279V174.739H18.3438V176.855H17.2458L17.1387 173.681H17.9822C19.1695 172.2 19.7631 170.071 19.7631 167.294V165.366H25.494ZM24.2353 173.681V166.424H21.0218V167.589C21.0218 168.919 20.9102 170.048 20.687 170.977C20.4549 171.941 20.0532 172.842 19.4819 173.681H24.2353ZM28.8854 169.946H27.7607C27.7607 169.41 27.9392 168.919 28.2963 168.473C28.7247 167.937 29.5103 167.669 30.6529 167.669C31.3224 167.669 31.9115 167.803 32.4204 168.071C32.7149 168.214 32.947 168.45 33.1166 168.781C33.2863 169.111 33.3666 169.504 33.3577 169.959L33.2907 173.106C33.2907 173.365 33.3175 173.565 33.3711 173.708C33.4514 173.851 33.6612 173.918 34.0004 173.909V174.739C33.8665 174.775 33.6879 174.793 33.4648 174.793C33.072 174.793 32.7864 174.726 32.6078 174.592C32.4382 174.458 32.3177 174.195 32.2463 173.802C31.8089 174.605 31.0323 175.007 29.9164 175.007C29.1488 175.007 28.5551 174.837 28.1356 174.498C27.725 174.15 27.5196 173.637 27.5196 172.958C27.5196 172.316 27.7517 171.829 28.2159 171.499C28.6801 171.151 29.5594 170.919 30.8537 170.803C31.4518 170.758 31.8089 170.7 31.9249 170.629C32.0945 170.512 32.1793 170.258 32.1793 169.865C32.1793 168.955 31.6705 168.5 30.6529 168.5C29.4478 168.5 28.8586 168.982 28.8854 169.946ZM32.1526 171.834L32.1793 171.258C32.0454 171.356 31.8491 171.436 31.5902 171.499C31.1974 171.526 30.8939 171.557 30.6797 171.593C29.9388 171.718 29.488 171.82 29.3273 171.901C28.9345 172.088 28.7381 172.427 28.7381 172.918C28.7381 173.311 28.8542 173.619 29.0863 173.842C29.3273 174.065 29.6486 174.177 30.0503 174.177C30.3092 174.177 30.5458 174.141 30.76 174.07C30.9832 173.998 31.1974 173.882 31.4027 173.722C31.617 173.552 31.7866 173.307 31.9115 172.985C32.0454 172.664 32.1258 172.28 32.1526 171.834ZM39.9286 171.566H36.5677V174.739H35.3894V167.937H36.5677V170.736H39.9286V167.937H41.1069V174.739H39.9286V171.566ZM47.5781 171.566H44.2172V174.739H43.0389V167.937H44.2172V170.736H47.5781V167.937H48.7564V174.739H47.5781V171.566ZM50.6884 174.739V167.937H51.8668V170.629H53.5807C54.1252 170.629 54.5805 170.682 54.9464 170.789C55.8213 171.012 56.2765 171.651 56.3122 172.704C56.3122 173.329 56.1203 173.824 55.7365 174.19C55.3615 174.556 54.7768 174.739 53.9824 174.739H50.6884ZM53.2995 171.459H51.8668V173.909H53.5137C54.5671 173.909 55.0937 173.481 55.0937 172.624C55.0937 172.204 54.9554 171.901 54.6786 171.713C54.5894 171.642 54.4421 171.584 54.2368 171.539C54.0225 171.486 53.7101 171.459 53.2995 171.459ZM57.1424 174.739V167.937H58.3207V174.739H57.1424ZM61.4254 167.937V173.36L64.9737 167.937H66.2859V174.739H65.1076V169.303L61.5727 174.739H60.2471V167.937H61.4254ZM64.5319 165.366H65.5361C65.3487 166.348 64.7595 166.924 63.7686 167.094C63.599 167.12 63.4205 167.134 63.233 167.134C62.0815 167.134 61.3451 166.665 61.0237 165.728C60.9969 165.665 60.9657 165.545 60.93 165.366H61.9342C61.9074 165.598 61.9878 165.817 62.1752 166.022C62.3091 166.165 62.4653 166.272 62.6439 166.344C62.8046 166.397 63.0009 166.424 63.233 166.424C63.6169 166.424 63.9338 166.33 64.1837 166.143C64.4337 165.947 64.5497 165.688 64.5319 165.366ZM71.3356 174.739V167.937H74.576C76.0132 167.937 76.7318 168.477 76.7318 169.557C76.7318 170.334 76.3212 170.865 75.4999 171.151V171.191C76.0534 171.325 76.4372 171.539 76.6514 171.834C76.8746 172.128 76.9862 172.508 76.9862 172.972C76.9862 173.713 76.7139 174.204 76.1694 174.445C75.7231 174.641 75.1785 174.739 74.5358 174.739H71.3356ZM74.2011 168.767H72.5139V170.776H74.1475C74.6206 170.776 74.9688 170.682 75.1919 170.495C75.424 170.298 75.5401 170.044 75.5401 169.731C75.5401 169.089 75.0937 168.767 74.2011 168.767ZM74.2011 171.606H72.5139V173.909H74.2413C75.2589 173.909 75.7677 173.561 75.7677 172.865C75.7677 172.026 75.2455 171.606 74.2011 171.606ZM79.732 167.937V173.36L83.2803 167.937H84.5925V174.739H83.4142V169.303L79.8793 174.739H78.5536V167.937H79.732ZM85.6601 176.507L85.5529 173.909H86.4099C87.1508 172.82 87.5213 171.209 87.5213 169.075V167.937H92.3952V173.909H93.5735L93.4798 176.507H92.4889V174.739H86.6509V176.507H85.6601ZM91.2169 173.909V168.767H88.6192V169.718C88.6192 170.441 88.5389 171.191 88.3782 171.968C88.2354 172.735 87.9944 173.382 87.6552 173.909H91.2169ZM102.33 168.767H98.8885V174.739H97.7102V167.937H103.508V174.739H102.33V168.767ZM104.648 174.739V173.869C105.318 174.065 105.791 173.748 106.067 172.918C106.139 172.713 106.188 172.459 106.215 172.155L106.268 171.338C106.277 171.195 106.282 170.914 106.282 170.495V167.937H110.995V174.739H109.817V168.767H107.38V170.495C107.38 171.057 107.366 171.53 107.34 171.914C107.313 172.289 107.246 172.7 107.139 173.146C106.987 173.78 106.715 174.23 106.322 174.498C105.929 174.766 105.371 174.846 104.648 174.739ZM113.815 169.946H112.69C112.69 169.41 112.869 168.919 113.226 168.473C113.654 167.937 114.44 167.669 115.582 167.669C116.252 167.669 116.841 167.803 117.35 168.071C117.644 168.214 117.876 168.45 118.046 168.781C118.216 169.111 118.296 169.504 118.287 169.959L118.22 173.106C118.22 173.365 118.247 173.565 118.3 173.708C118.381 173.851 118.591 173.918 118.93 173.909V174.739C118.796 174.775 118.617 174.793 118.394 174.793C118.001 174.793 117.716 174.726 117.537 174.592C117.368 174.458 117.247 174.195 117.176 173.802C116.738 174.605 115.962 175.007 114.846 175.007C114.078 175.007 113.485 174.837 113.065 174.498C112.654 174.15 112.449 173.637 112.449 172.958C112.449 172.316 112.681 171.829 113.145 171.499C113.61 171.151 114.489 170.919 115.783 170.803C116.381 170.758 116.738 170.7 116.854 170.629C117.024 170.512 117.109 170.258 117.109 169.865C117.109 168.955 116.6 168.5 115.582 168.5C114.377 168.5 113.788 168.982 113.815 169.946ZM117.082 171.834L117.109 171.258C116.975 171.356 116.778 171.436 116.52 171.499C116.127 171.526 115.823 171.557 115.609 171.593C114.868 171.718 114.417 171.82 114.257 171.901C113.864 172.088 113.668 172.427 113.668 172.918C113.668 173.311 113.784 173.619 114.016 173.842C114.257 174.065 114.578 174.177 114.98 174.177C115.239 174.177 115.475 174.141 115.689 174.07C115.913 173.998 116.127 173.882 116.332 173.722C116.546 173.552 116.716 173.307 116.841 172.985C116.975 172.664 117.055 172.28 117.082 171.834ZM125.086 172.316H126.21C126.175 172.833 125.978 173.378 125.621 173.949C125.425 174.271 125.117 174.529 124.697 174.726C124.287 174.913 123.805 175.007 123.251 175.007C123.064 175.007 122.93 175.003 122.849 174.994C122.457 174.976 122.055 174.873 121.644 174.686C120.502 174.114 119.93 172.981 119.93 171.285C119.93 170.392 120.136 169.598 120.546 168.901C121.055 168.08 121.93 167.669 123.171 167.669C124.046 167.669 124.742 167.893 125.26 168.339C125.777 168.776 126.076 169.352 126.157 170.066H125.032C124.854 169.022 124.242 168.5 123.198 168.5C122.519 168.5 122.01 168.749 121.671 169.249C121.341 169.74 121.176 170.419 121.176 171.285C121.176 172.124 121.35 172.816 121.698 173.36C122.046 173.905 122.573 174.177 123.278 174.177C123.885 174.177 124.327 173.985 124.604 173.601C124.898 173.217 125.059 172.789 125.086 172.316ZM128.986 174.739V168.767H126.629V167.937H132.521V168.767H130.164V174.739H128.986ZM134.599 167.937V173.36L138.148 167.937H139.46V174.739H138.282V169.303L134.747 174.739H133.421V167.937H134.599ZM142.563 167.937V170.91L145.468 167.937H146.848L143.661 171.097L147.022 174.739H145.616L142.563 171.338V174.739H141.384V167.937H142.563ZM148.833 169.946H147.708C147.708 169.41 147.886 168.919 148.244 168.473C148.672 167.937 149.458 167.669 150.6 167.669C151.27 167.669 151.859 167.803 152.368 168.071C152.662 168.214 152.894 168.45 153.064 168.781C153.233 169.111 153.314 169.504 153.305 169.959L153.238 173.106C153.238 173.365 153.265 173.565 153.318 173.708C153.399 173.851 153.608 173.918 153.948 173.909V174.739C153.814 174.775 153.635 174.793 153.412 174.793C153.019 174.793 152.734 174.726 152.555 174.592C152.385 174.458 152.265 174.195 152.194 173.802C151.756 174.605 150.98 175.007 149.864 175.007C149.096 175.007 148.502 174.837 148.083 174.498C147.672 174.15 147.467 173.637 147.467 172.958C147.467 172.316 147.699 171.829 148.163 171.499C148.627 171.151 149.507 170.919 150.801 170.803C151.399 170.758 151.756 170.7 151.872 170.629C152.042 170.512 152.127 170.258 152.127 169.865C152.127 168.955 151.618 168.5 150.6 168.5C149.395 168.5 148.806 168.982 148.833 169.946ZM152.1 171.834L152.127 171.258C151.993 171.356 151.796 171.436 151.537 171.499C151.145 171.526 150.841 171.557 150.627 171.593C149.886 171.718 149.435 171.82 149.275 171.901C148.882 172.088 148.685 172.427 148.685 172.918C148.685 173.311 148.801 173.619 149.034 173.842C149.275 174.065 149.596 174.177 149.998 174.177C150.256 174.177 150.493 174.141 150.707 174.07C150.93 173.998 151.145 173.882 151.35 173.722C151.564 173.552 151.734 173.307 151.859 172.985C151.993 172.664 152.073 172.28 152.1 171.834ZM159.64 167.937V173.36L163.188 167.937H164.501V174.739H163.322V169.303L159.787 174.739H158.462V167.937H159.64ZM171.192 172.316H172.317C172.281 172.833 172.085 173.378 171.728 173.949C171.531 174.271 171.223 174.529 170.804 174.726C170.393 174.913 169.911 175.007 169.358 175.007C169.17 175.007 169.036 175.003 168.956 174.994C168.563 174.976 168.161 174.873 167.751 174.686C166.608 174.114 166.037 172.981 166.037 171.285C166.037 170.392 166.242 169.598 166.653 168.901C167.162 168.08 168.036 167.669 169.277 167.669C170.152 167.669 170.848 167.893 171.366 168.339C171.884 168.776 172.183 169.352 172.263 170.066H171.138C170.96 169.022 170.348 168.5 169.304 168.5C168.626 168.5 168.117 168.749 167.778 169.249C167.447 169.74 167.282 170.419 167.282 171.285C167.282 172.124 167.456 172.816 167.804 173.36C168.152 173.905 168.679 174.177 169.384 174.177C169.991 174.177 170.433 173.985 170.71 173.601C171.005 173.217 171.165 172.789 171.192 172.316ZM178.38 168.767H174.939V174.739H173.761V167.937H179.559V174.739H178.38V168.767ZM181.275 172.677C181.043 171.722 181.051 170.798 181.301 169.905C181.551 169.013 182.078 168.375 182.881 167.991C183.328 167.776 183.85 167.669 184.448 167.669C185.046 167.669 185.568 167.776 186.015 167.991C186.818 168.366 187.349 169.035 187.608 169.999C187.724 170.446 187.782 170.896 187.782 171.352C187.791 171.798 187.738 172.24 187.621 172.677C187.514 173.106 187.322 173.498 187.046 173.856C186.778 174.213 186.434 174.494 186.015 174.699C185.559 174.904 185.037 175.007 184.448 175.007C183.859 175.007 183.337 174.904 182.881 174.699C182.105 174.324 181.569 173.65 181.275 172.677ZM182.52 169.986C182.404 170.343 182.346 170.789 182.346 171.325C182.346 171.851 182.404 172.302 182.52 172.677C182.636 173.052 182.77 173.333 182.922 173.521C183.243 173.878 183.609 174.088 184.02 174.15C184.305 174.195 184.591 174.195 184.877 174.15C185.002 174.141 185.176 174.079 185.399 173.963C185.64 173.838 185.836 173.681 185.988 173.494C186.14 173.307 186.269 173.034 186.376 172.677C186.492 172.302 186.55 171.851 186.55 171.325C186.55 170.789 186.492 170.343 186.376 169.986C186.251 169.593 186.113 169.312 185.961 169.142C185.818 168.973 185.64 168.83 185.426 168.714C185.211 168.598 185.028 168.526 184.877 168.5C184.591 168.455 184.305 168.455 184.02 168.5C183.895 168.508 183.716 168.575 183.484 168.7C183.029 168.924 182.707 169.352 182.52 169.986ZM188.545 174.739V173.869C189.214 174.065 189.687 173.748 189.964 172.918C190.035 172.713 190.084 172.459 190.111 172.155L190.165 171.338C190.174 171.195 190.178 170.914 190.178 170.495V167.937H194.891V174.739H193.713V168.767H191.276V170.495C191.276 171.057 191.263 171.53 191.236 171.914C191.209 172.289 191.142 172.7 191.035 173.146C190.883 173.78 190.611 174.23 190.218 174.498C189.826 174.766 189.268 174.846 188.545 174.739ZM196.814 174.739V167.937H197.992V170.642H199.693C200.362 170.642 200.938 170.74 201.42 170.937C202.09 171.178 202.424 171.74 202.424 172.624C202.424 173.356 202.21 173.9 201.782 174.257C201.603 174.4 201.393 174.507 201.152 174.579C200.831 174.686 200.478 174.739 200.095 174.739H196.814ZM199.425 171.472H197.992V173.909H199.626C200.179 173.909 200.586 173.797 200.844 173.574C201.103 173.315 201.224 172.999 201.206 172.624C201.206 172.213 201.072 171.91 200.804 171.713C200.715 171.651 200.572 171.597 200.376 171.552C200.162 171.499 199.88 171.472 199.532 171.472H199.425ZM203.078 172.65H204.203C204.203 173.097 204.363 173.463 204.685 173.748C205.006 174.034 205.448 174.177 206.01 174.177C206.564 174.177 206.997 174.065 207.309 173.842C207.622 173.61 207.778 173.275 207.778 172.838C207.778 172.026 207.265 171.619 206.238 171.619H205.234V170.789H206.104C207.05 170.789 207.524 170.437 207.524 169.731C207.524 169.615 207.506 169.499 207.47 169.383C207.443 169.267 207.381 169.138 207.283 168.995C207.193 168.843 207.037 168.723 206.814 168.633C206.591 168.544 206.314 168.5 205.984 168.5C205.395 168.5 204.979 168.638 204.738 168.915C204.497 169.191 204.377 169.49 204.377 169.812H203.252C203.279 169.348 203.399 168.959 203.614 168.647C203.828 168.334 204.105 168.111 204.444 167.977C204.997 167.772 205.533 167.669 206.051 167.669C206.506 167.669 206.908 167.723 207.256 167.83C207.604 167.928 207.867 168.049 208.046 168.192C208.233 168.334 208.38 168.504 208.488 168.7C208.604 168.897 208.675 169.071 208.702 169.223C208.729 169.365 208.742 169.508 208.742 169.651C208.742 170.446 208.349 170.941 207.564 171.137V171.178C207.983 171.24 208.327 171.423 208.595 171.727C208.863 172.03 208.996 172.427 208.996 172.918C208.996 173.418 208.818 173.873 208.461 174.284C208.023 174.766 207.238 175.007 206.104 175.007C205.149 175.007 204.422 174.806 203.922 174.405C203.359 173.914 203.078 173.329 203.078 172.65ZM210.615 177.203V176.333C210.955 176.377 211.151 176.4 211.205 176.4C211.544 176.4 211.785 176.275 211.928 176.025C212.017 175.891 212.075 175.779 212.102 175.69C212.128 175.645 212.186 175.498 212.276 175.248L212.436 174.739L209.491 167.937H210.897L213.079 173.44L214.887 167.937H216.065L213.36 175.543C213.146 176.15 212.963 176.547 212.811 176.734C212.508 177.091 212.097 177.27 211.579 177.27C211.178 177.27 210.856 177.248 210.615 177.203ZM221.93 172.771H223.055C222.948 173.369 222.658 173.891 222.185 174.338C221.712 174.784 221.011 175.007 220.083 175.007C218.824 175.007 217.9 174.592 217.311 173.762C217.016 173.324 216.824 172.856 216.735 172.356C216.673 172.008 216.641 171.677 216.641 171.365C216.641 170.767 216.731 170.205 216.909 169.678C217.025 169.303 217.195 168.977 217.418 168.7C217.659 168.406 218.003 168.16 218.449 167.964C218.895 167.768 219.4 167.669 219.962 167.669C220.962 167.669 221.716 167.946 222.225 168.5C222.439 168.732 222.613 169.026 222.747 169.383C222.944 169.901 223.064 170.53 223.109 171.271C223.109 171.298 223.109 171.356 223.109 171.445C223.118 171.535 223.122 171.588 223.122 171.606H217.887C217.887 172.284 218.065 172.883 218.422 173.4C218.779 173.918 219.319 174.177 220.043 174.177C220.56 174.177 220.984 174.047 221.315 173.789C221.645 173.53 221.85 173.19 221.93 172.771ZM217.887 170.776H221.877C221.868 170.249 221.743 169.763 221.502 169.316C221.225 168.772 220.721 168.5 219.989 168.5C219.159 168.5 218.587 168.776 218.275 169.33C218.016 169.776 217.887 170.258 217.887 170.776ZM226.233 174.739V168.767H223.876V167.937H229.768V168.767H227.411V174.739H226.233ZM235.33 172.316H236.455C236.419 172.833 236.223 173.378 235.866 173.949C235.67 174.271 235.362 174.529 234.942 174.726C234.531 174.913 234.049 175.007 233.496 175.007C233.308 175.007 233.175 175.003 233.094 174.994C232.701 174.976 232.3 174.873 231.889 174.686C230.747 174.114 230.175 172.981 230.175 171.285C230.175 170.392 230.381 169.598 230.791 168.901C231.3 168.08 232.175 167.669 233.416 167.669C234.29 167.669 234.987 167.893 235.504 168.339C236.022 168.776 236.321 169.352 236.402 170.066H235.277C235.098 169.022 234.487 168.5 233.442 168.5C232.764 168.5 232.255 168.749 231.916 169.249C231.586 169.74 231.421 170.419 231.421 171.285C231.421 172.124 231.595 172.816 231.943 173.36C232.291 173.905 232.818 174.177 233.523 174.177C234.13 174.177 234.572 173.985 234.848 173.601C235.143 173.217 235.304 172.789 235.33 172.316ZM242.064 172.061H240.51L238.729 174.739H237.431L239.305 172.048C238.787 171.994 238.368 171.793 238.047 171.445C237.725 171.097 237.565 170.642 237.565 170.08C237.565 169.553 237.703 169.093 237.98 168.7C238.31 168.192 238.935 167.937 239.854 167.937H243.242V174.739H242.064V172.061ZM242.064 171.231V168.767H240.363C239.31 168.767 238.783 169.191 238.783 170.039C238.783 170.388 238.912 170.673 239.171 170.896C239.43 171.12 239.841 171.231 240.403 171.231H242.064ZM17.2458 191.507L17.1387 188.909H17.9956C18.7365 187.82 19.107 186.209 19.107 184.075V182.937H23.9809V188.909H25.1593L25.0655 191.507H24.0747V189.739H18.2366V191.507H17.2458ZM22.8026 188.909V183.767H20.205V184.718C20.205 185.441 20.1246 186.191 19.964 186.968C19.8211 187.735 19.5801 188.382 19.2409 188.909H22.8026ZM25.7207 189.739V188.869C26.3902 189.065 26.8633 188.748 27.14 187.918C27.2114 187.713 27.2605 187.459 27.2873 187.155L27.3409 186.338C27.3498 186.195 27.3543 185.914 27.3543 185.495V182.937H32.0675V189.739H30.8892V183.767H28.4522V185.495C28.4522 186.057 28.4388 186.53 28.4121 186.914C28.3853 187.289 28.3183 187.7 28.2112 188.146C28.0595 188.78 27.7872 189.23 27.3944 189.498C27.0017 189.766 26.4437 189.846 25.7207 189.739ZM38.1545 187.061H36.6013L34.8204 189.739H33.5216L35.3962 187.048C34.8784 186.994 34.4589 186.793 34.1375 186.445C33.8162 186.097 33.6555 185.642 33.6555 185.08C33.6555 184.553 33.7938 184.093 34.0706 183.7C34.4009 183.192 35.0257 182.937 35.9452 182.937H39.3328V189.739H38.1545V187.061ZM38.1545 186.231V183.767H36.454C35.4006 183.767 34.874 184.191 34.874 185.039C34.874 185.388 35.0034 185.673 35.2623 185.896C35.5212 186.12 35.9318 186.231 36.4942 186.231H38.1545ZM45.5641 182.937V188.36L49.1124 182.937H50.4246V189.739H49.2463V184.303L45.7114 189.739H44.3857V182.937H45.5641ZM51.8135 187.65H52.9383C52.9383 188.097 53.0989 188.463 53.4203 188.748C53.7417 189.034 54.1835 189.177 54.7459 189.177C55.2994 189.177 55.7323 189.065 56.0447 188.842C56.3572 188.61 56.5134 188.275 56.5134 187.838C56.5134 187.026 56.0001 186.619 54.9735 186.619H53.9693V185.789H54.8396C55.7859 185.789 56.259 185.437 56.259 184.731C56.259 184.615 56.2411 184.499 56.2054 184.383C56.1786 184.267 56.1161 184.138 56.018 183.995C55.9287 183.843 55.7725 183.723 55.5493 183.633C55.3261 183.544 55.0494 183.5 54.7191 183.5C54.13 183.5 53.7149 183.638 53.4739 183.915C53.2328 184.191 53.1123 184.49 53.1123 184.812H51.9876C52.0144 184.348 52.1349 183.959 52.3491 183.647C52.5633 183.334 52.8401 183.111 53.1793 182.977C53.7327 182.772 54.2683 182.669 54.7861 182.669C55.2413 182.669 55.643 182.723 55.9912 182.83C56.3393 182.928 56.6026 183.049 56.7812 183.192C56.9686 183.334 57.1159 183.504 57.223 183.7C57.3391 183.897 57.4105 184.071 57.4373 184.223C57.4641 184.365 57.4775 184.508 57.4775 184.651C57.4775 185.446 57.0847 185.941 56.2991 186.137V186.178C56.7187 186.24 57.0624 186.423 57.3302 186.727C57.598 187.03 57.7319 187.427 57.7319 187.918C57.7319 188.418 57.5533 188.873 57.1963 189.284C56.7589 189.766 55.9733 190.007 54.8396 190.007C53.8845 190.007 53.157 189.806 52.6571 189.405C52.0947 188.914 51.8135 188.329 51.8135 187.65ZM63.9261 183.767H60.4447V189.739H59.2664V182.937H63.9261V183.767ZM64.5049 187.677C64.2728 186.722 64.2817 185.798 64.5317 184.905C64.7816 184.013 65.3083 183.375 66.1117 182.991C66.558 182.776 67.0802 182.669 67.6783 182.669C68.2764 182.669 68.7986 182.776 69.2449 182.991C70.0483 183.366 70.5794 184.035 70.8383 184.999C70.9544 185.446 71.0124 185.896 71.0124 186.352C71.0213 186.798 70.9678 187.24 70.8517 187.677C70.7446 188.106 70.5527 188.498 70.2759 188.856C70.0081 189.213 69.6645 189.494 69.2449 189.699C68.7897 189.904 68.2675 190.007 67.6783 190.007C67.0891 190.007 66.5669 189.904 66.1117 189.699C65.3351 189.324 64.7995 188.65 64.5049 187.677ZM65.7501 184.986C65.6341 185.343 65.5761 185.789 65.5761 186.325C65.5761 186.851 65.6341 187.302 65.7501 187.677C65.8662 188.052 66.0001 188.333 66.1518 188.521C66.4732 188.878 66.8392 189.088 67.2498 189.15C67.5355 189.195 67.8211 189.195 68.1068 189.15C68.2317 189.141 68.4058 189.079 68.629 188.963C68.87 188.838 69.0664 188.681 69.2181 188.494C69.3699 188.307 69.4993 188.034 69.6064 187.677C69.7225 187.302 69.7805 186.851 69.7805 186.325C69.7805 185.789 69.7225 185.343 69.6064 184.986C69.4815 184.593 69.3431 184.312 69.1914 184.142C69.0485 183.973 68.87 183.83 68.6558 183.714C68.4415 183.598 68.2585 183.526 68.1068 183.5C67.8211 183.455 67.5355 183.455 67.2498 183.5C67.1248 183.508 66.9463 183.575 66.7142 183.7C66.259 183.924 65.9376 184.352 65.7501 184.986ZM73.713 189.739V183.767H71.3563V182.937H77.2479V183.767H74.8913V189.739H73.713ZM77.921 187.677C77.6889 186.722 77.6978 185.798 77.9478 184.905C78.1977 184.013 78.7244 183.375 79.5278 182.991C79.9741 182.776 80.4963 182.669 81.0944 182.669C81.6925 182.669 82.2147 182.776 82.661 182.991C83.4644 183.366 83.9955 184.035 84.2544 184.999C84.3705 185.446 84.4285 185.896 84.4285 186.352C84.4374 186.798 84.3839 187.24 84.2678 187.677C84.1607 188.106 83.9688 188.498 83.692 188.856C83.4242 189.213 83.0806 189.494 82.661 189.699C82.2058 189.904 81.6836 190.007 81.0944 190.007C80.5052 190.007 79.983 189.904 79.5278 189.699C78.7512 189.324 78.2156 188.65 77.921 187.677ZM79.1662 184.986C79.0502 185.343 78.9922 185.789 78.9922 186.325C78.9922 186.851 79.0502 187.302 79.1662 187.677C79.2823 188.052 79.4162 188.333 79.5679 188.521C79.8893 188.878 80.2553 189.088 80.6659 189.15C80.9516 189.195 81.2372 189.195 81.5229 189.15C81.6478 189.141 81.8219 189.079 82.0451 188.963C82.2861 188.838 82.4825 188.681 82.6342 188.494C82.786 188.307 82.9154 188.034 83.0225 187.677C83.1386 187.302 83.1966 186.851 83.1966 186.325C83.1966 185.789 83.1386 185.343 83.0225 184.986C82.8976 184.593 82.7592 184.312 82.6075 184.142C82.4646 183.973 82.2861 183.83 82.0719 183.714C81.8576 183.598 81.6746 183.526 81.5229 183.5C81.2372 183.455 80.9516 183.455 80.6659 183.5C80.5409 183.508 80.3624 183.575 80.1303 183.7C79.6751 183.924 79.3537 184.352 79.1662 184.986ZM85.9809 189.739V182.937H89.2213C90.6584 182.937 91.377 183.477 91.377 184.557C91.377 185.334 90.9664 185.865 90.1452 186.151V186.191C90.6986 186.325 91.0825 186.539 91.2967 186.834C91.5199 187.128 91.6314 187.508 91.6314 187.972C91.6314 188.713 91.3592 189.204 90.8147 189.445C90.3683 189.641 89.8238 189.739 89.1811 189.739H85.9809ZM88.8463 183.767H87.1592V185.776H88.7928C89.2659 185.776 89.614 185.682 89.8372 185.495C90.0693 185.298 90.1853 185.044 90.1853 184.731C90.1853 184.089 89.739 183.767 88.8463 183.767ZM88.8463 186.606H87.1592V188.909H88.8865C89.9041 188.909 90.413 188.561 90.413 187.865C90.413 187.026 89.8908 186.606 88.8463 186.606ZM92.4089 189.739V188.869C93.0784 189.065 93.5515 188.748 93.8282 187.918C93.8996 187.713 93.9487 187.459 93.9755 187.155L94.0291 186.338C94.038 186.195 94.0425 185.914 94.0425 185.495V182.937H98.7557V189.739H97.5774V183.767H95.1405V185.495C95.1405 186.057 95.1271 186.53 95.1003 186.914C95.0735 187.289 95.0066 187.7 94.8994 188.146C94.7477 188.78 94.4754 189.23 94.0826 189.498C93.6899 189.766 93.132 189.846 92.4089 189.739ZM105.579 187.771H106.704C106.597 188.369 106.307 188.891 105.834 189.338C105.36 189.784 104.66 190.007 103.731 190.007C102.473 190.007 101.549 189.592 100.96 188.762C100.665 188.324 100.473 187.856 100.384 187.356C100.321 187.008 100.29 186.677 100.29 186.365C100.29 185.767 100.379 185.205 100.558 184.678C100.674 184.303 100.844 183.977 101.067 183.7C101.308 183.406 101.651 183.16 102.098 182.964C102.544 182.768 103.048 182.669 103.611 182.669C104.611 182.669 105.365 182.946 105.874 183.5C106.088 183.732 106.262 184.026 106.396 184.383C106.592 184.901 106.713 185.53 106.757 186.271C106.757 186.298 106.757 186.356 106.757 186.445C106.766 186.535 106.771 186.588 106.771 186.606H101.535C101.535 187.284 101.714 187.883 102.071 188.4C102.428 188.918 102.968 189.177 103.691 189.177C104.209 189.177 104.633 189.047 104.963 188.789C105.294 188.53 105.499 188.19 105.579 187.771ZM101.535 185.776H105.526C105.517 185.249 105.392 184.763 105.151 184.316C104.874 183.772 104.37 183.5 103.638 183.5C102.807 183.5 102.236 183.776 101.924 184.33C101.665 184.776 101.535 185.258 101.535 185.776ZM112.854 186.566H109.493V189.739H108.315V182.937H109.493V185.736H112.854V182.937H114.032V189.739H112.854V186.566ZM117.143 182.937V188.36L120.691 182.937H122.003V189.739H120.825V184.303L117.29 189.739H115.964V182.937H117.143ZM128.092 187.061H126.539L124.758 189.739H123.459L125.334 187.048C124.816 186.994 124.396 186.793 124.075 186.445C123.754 186.097 123.593 185.642 123.593 185.08C123.593 184.553 123.731 184.093 124.008 183.7C124.338 183.192 124.963 182.937 125.883 182.937H129.27V189.739H128.092V187.061ZM128.092 186.231V183.767H126.392C125.338 183.767 124.812 184.191 124.812 185.039C124.812 185.388 124.941 185.673 125.2 185.896C125.459 186.12 125.869 186.231 126.432 186.231H128.092ZM134.109 187.677C133.877 186.722 133.886 185.798 134.136 184.905C134.386 184.013 134.912 183.375 135.716 182.991C136.162 182.776 136.684 182.669 137.282 182.669C137.881 182.669 138.403 182.776 138.849 182.991C139.653 183.366 140.184 184.035 140.443 184.999C140.559 185.446 140.617 185.896 140.617 186.352C140.626 186.798 140.572 187.24 140.456 187.677C140.349 188.106 140.157 188.498 139.88 188.856C139.612 189.213 139.269 189.494 138.849 189.699C138.394 189.904 137.872 190.007 137.282 190.007C136.693 190.007 136.171 189.904 135.716 189.699C134.939 189.324 134.404 188.65 134.109 187.677ZM135.354 184.986C135.238 185.343 135.18 185.789 135.18 186.325C135.18 186.851 135.238 187.302 135.354 187.677C135.47 188.052 135.604 188.333 135.756 188.521C136.077 188.878 136.443 189.088 136.854 189.15C137.14 189.195 137.425 189.195 137.711 189.15C137.836 189.141 138.01 189.079 138.233 188.963C138.474 188.838 138.671 188.681 138.822 188.494C138.974 188.307 139.104 188.034 139.211 187.677C139.327 187.302 139.385 186.851 139.385 186.325C139.385 185.789 139.327 185.343 139.211 184.986C139.086 184.593 138.947 184.312 138.796 184.142C138.653 183.973 138.474 183.83 138.26 183.714C138.046 183.598 137.863 183.526 137.711 183.5C137.425 183.455 137.14 183.455 136.854 183.5C136.729 183.508 136.551 183.575 136.318 183.7C135.863 183.924 135.542 184.352 135.354 184.986ZM141.312 191.507L141.205 188.909H142.062C142.803 187.82 143.173 186.209 143.173 184.075V182.937H148.047V188.909H149.225L149.132 191.507H148.141V189.739H142.303V191.507H141.312ZM146.869 188.909V183.767H144.271V184.718C144.271 185.441 144.191 186.191 144.03 186.968C143.887 187.735 143.646 188.382 143.307 188.909H146.869ZM154.776 186.566H151.415V189.739H150.237V182.937H151.415V185.736H154.776V182.937H155.954V189.739H154.776V186.566ZM157.672 187.677C157.44 186.722 157.449 185.798 157.699 184.905C157.949 184.013 158.476 183.375 159.279 182.991C159.725 182.776 160.248 182.669 160.846 182.669C161.444 182.669 161.966 182.776 162.412 182.991C163.216 183.366 163.747 184.035 164.006 184.999C164.122 185.446 164.18 185.896 164.18 186.352C164.189 186.798 164.135 187.24 164.019 187.677C163.912 188.106 163.72 188.498 163.443 188.856C163.175 189.213 162.832 189.494 162.412 189.699C161.957 189.904 161.435 190.007 160.846 190.007C160.256 190.007 159.734 189.904 159.279 189.699C158.502 189.324 157.967 188.65 157.672 187.677ZM158.917 184.986C158.801 185.343 158.743 185.789 158.743 186.325C158.743 186.851 158.801 187.302 158.917 187.677C159.034 188.052 159.167 188.333 159.319 188.521C159.641 188.878 160.007 189.088 160.417 189.15C160.703 189.195 160.988 189.195 161.274 189.15C161.399 189.141 161.573 189.079 161.796 188.963C162.037 188.838 162.234 188.681 162.385 188.494C162.537 188.307 162.667 188.034 162.774 187.677C162.89 187.302 162.948 186.851 162.948 186.325C162.948 185.789 162.89 185.343 162.774 184.986C162.649 184.593 162.51 184.312 162.359 184.142C162.216 183.973 162.037 183.83 161.823 183.714C161.609 183.598 161.426 183.526 161.274 183.5C160.988 183.455 160.703 183.455 160.417 183.5C160.292 183.508 160.114 183.575 159.882 183.7C159.426 183.924 159.105 184.352 158.917 184.986ZM165.732 192.216V182.937H166.83V183.874H166.87C167.406 183.071 168.156 182.669 169.12 182.669C170.004 182.669 170.736 182.977 171.316 183.593C171.896 184.218 172.186 185.133 172.186 186.338C172.186 187.57 171.892 188.49 171.302 189.097C170.722 189.704 170.004 190.007 169.147 190.007C168.879 190.007 168.553 189.949 168.169 189.833C167.607 189.663 167.187 189.306 166.91 188.762V192.216H165.732ZM166.83 186.365C166.83 187.311 167.044 188.021 167.473 188.494C167.919 188.949 168.406 189.177 168.932 189.177C169.486 189.177 169.959 188.954 170.352 188.507C170.744 188.043 170.941 187.32 170.941 186.338C170.941 185.446 170.758 184.749 170.392 184.249C170.035 183.749 169.526 183.5 168.865 183.5C168.517 183.5 168.191 183.593 167.888 183.781C167.183 184.2 166.83 185.062 166.83 186.365ZM174.619 184.946H173.494C173.494 184.41 173.673 183.919 174.03 183.473C174.458 182.937 175.244 182.669 176.386 182.669C177.056 182.669 177.645 182.803 178.154 183.071C178.448 183.214 178.68 183.45 178.85 183.781C179.02 184.111 179.1 184.504 179.091 184.959L179.024 188.106C179.024 188.365 179.051 188.565 179.104 188.708C179.185 188.851 179.395 188.918 179.734 188.909V189.739C179.6 189.775 179.421 189.793 179.198 189.793C178.805 189.793 178.52 189.726 178.341 189.592C178.172 189.458 178.051 189.195 177.98 188.802C177.542 189.605 176.766 190.007 175.65 190.007C174.882 190.007 174.289 189.837 173.869 189.498C173.458 189.15 173.253 188.637 173.253 187.958C173.253 187.316 173.485 186.829 173.949 186.499C174.413 186.151 175.293 185.919 176.587 185.803C177.185 185.758 177.542 185.7 177.658 185.629C177.828 185.512 177.913 185.258 177.913 184.865C177.913 183.955 177.404 183.5 176.386 183.5C175.181 183.5 174.592 183.982 174.619 184.946ZM177.886 186.834L177.913 186.258C177.779 186.356 177.582 186.436 177.324 186.499C176.931 186.526 176.627 186.557 176.413 186.593C175.672 186.718 175.221 186.82 175.061 186.901C174.668 187.088 174.471 187.427 174.471 187.918C174.471 188.311 174.588 188.619 174.82 188.842C175.061 189.065 175.382 189.177 175.784 189.177C176.043 189.177 176.279 189.141 176.493 189.07C176.717 188.998 176.931 188.882 177.136 188.722C177.35 188.552 177.52 188.307 177.645 187.985C177.779 187.664 177.859 187.28 177.886 186.834ZM180.587 187.65H181.712C181.712 188.097 181.873 188.463 182.194 188.748C182.515 189.034 182.957 189.177 183.52 189.177C184.073 189.177 184.506 189.065 184.818 188.842C185.131 188.61 185.287 188.275 185.287 187.838C185.287 187.026 184.774 186.619 183.747 186.619H182.743V185.789H183.613C184.559 185.789 185.033 185.437 185.033 184.731C185.033 184.615 185.015 184.499 184.979 184.383C184.952 184.267 184.89 184.138 184.792 183.995C184.702 183.843 184.546 183.723 184.323 183.633C184.1 183.544 183.823 183.5 183.493 183.5C182.904 183.5 182.489 183.638 182.247 183.915C182.006 184.191 181.886 184.49 181.886 184.812H180.761C180.788 184.348 180.908 183.959 181.123 183.647C181.337 183.334 181.614 183.111 181.953 182.977C182.506 182.772 183.042 182.669 183.56 182.669C184.015 182.669 184.417 182.723 184.765 182.83C185.113 182.928 185.376 183.049 185.555 183.192C185.742 183.334 185.89 183.504 185.997 183.7C186.113 183.897 186.184 184.071 186.211 184.223C186.238 184.365 186.251 184.508 186.251 184.651C186.251 185.446 185.858 185.941 185.073 186.137V186.178C185.492 186.24 185.836 186.423 186.104 186.727C186.372 187.03 186.505 187.427 186.505 187.918C186.505 188.418 186.327 188.873 185.97 189.284C185.532 189.766 184.747 190.007 183.613 190.007C182.658 190.007 181.931 189.806 181.431 189.405C180.868 188.914 180.587 188.329 180.587 187.65ZM187.826 187.677C187.594 186.722 187.603 185.798 187.853 184.905C188.102 184.013 188.629 183.375 189.433 182.991C189.879 182.776 190.401 182.669 190.999 182.669C191.597 182.669 192.119 182.776 192.566 182.991C193.369 183.366 193.9 184.035 194.159 184.999C194.275 185.446 194.333 185.896 194.333 186.352C194.342 186.798 194.289 187.24 194.173 187.677C194.065 188.106 193.874 188.498 193.597 188.856C193.329 189.213 192.985 189.494 192.566 189.699C192.111 189.904 191.588 190.007 190.999 190.007C190.41 190.007 189.888 189.904 189.433 189.699C188.656 189.324 188.12 188.65 187.826 187.677ZM189.071 184.986C188.955 185.343 188.897 185.789 188.897 186.325C188.897 186.851 188.955 187.302 189.071 187.677C189.187 188.052 189.321 188.333 189.473 188.521C189.794 188.878 190.16 189.088 190.571 189.15C190.856 189.195 191.142 189.195 191.428 189.15C191.553 189.141 191.727 189.079 191.95 188.963C192.191 188.838 192.387 188.681 192.539 188.494C192.691 188.307 192.82 188.034 192.927 187.677C193.043 187.302 193.101 186.851 193.101 186.325C193.101 185.789 193.043 185.343 192.927 184.986C192.802 184.593 192.664 184.312 192.512 184.142C192.369 183.973 192.191 183.83 191.977 183.714C191.762 183.598 191.579 183.526 191.428 183.5C191.142 183.455 190.856 183.455 190.571 183.5C190.446 183.508 190.267 183.575 190.035 183.7C189.58 183.924 189.258 184.352 189.071 184.986ZM195.886 189.739V182.937H199.126C200.563 182.937 201.282 183.477 201.282 184.557C201.282 185.334 200.871 185.865 200.05 186.151V186.191C200.603 186.325 200.987 186.539 201.201 186.834C201.425 187.128 201.536 187.508 201.536 187.972C201.536 188.713 201.264 189.204 200.719 189.445C200.273 189.641 199.729 189.739 199.086 189.739H195.886ZM198.751 183.767H197.064V185.776H198.698C199.171 185.776 199.519 185.682 199.742 185.495C199.974 185.298 200.09 185.044 200.09 184.731C200.09 184.089 199.644 183.767 198.751 183.767ZM198.751 186.606H197.064V188.909H198.791C199.809 188.909 200.318 188.561 200.318 187.865C200.318 187.026 199.796 186.606 198.751 186.606ZM203.104 189.739V182.937H204.282V185.629H205.996C206.54 185.629 206.996 185.682 207.362 185.789C208.237 186.012 208.692 186.651 208.727 187.704C208.727 188.329 208.536 188.824 208.152 189.19C207.777 189.556 207.192 189.739 206.398 189.739H203.104ZM205.715 186.459H204.282V188.909H205.929C206.982 188.909 207.509 188.481 207.509 187.624C207.509 187.204 207.371 186.901 207.094 186.713C207.005 186.642 206.857 186.584 206.652 186.539C206.438 186.486 206.125 186.459 205.715 186.459ZM209.558 189.739V182.937H210.736V189.739H209.558ZM213.198 182.937L214.939 185.454L216.679 182.937H217.992L215.608 186.191L218.179 189.739H216.867L214.939 186.941L213.01 189.739H211.698L214.269 186.191L211.886 182.937H213.198ZM22.9365 194.924H23.9408C23.9051 195.576 23.6016 196.009 23.0302 196.223C22.7178 196.33 22.45 196.402 22.2269 196.437C21.2271 196.562 20.6468 196.647 20.4862 196.692C19.8791 196.862 19.415 197.169 19.0936 197.616C18.7722 198.053 18.6026 198.683 18.5848 199.504H18.6116C19.04 198.352 19.9193 197.776 21.2494 197.776C22.3295 197.776 23.1374 198.134 23.673 198.848C24.2175 199.553 24.4898 200.419 24.4898 201.445C24.4898 202.427 24.2086 203.266 23.6462 203.963C23.0838 204.659 22.2492 205.007 21.1423 205.007C19.9193 205.007 19.0133 204.543 18.4241 203.615C18.1295 203.106 17.9287 202.534 17.8216 201.901C17.7501 201.401 17.7144 200.905 17.7144 200.414C17.7144 198.691 17.9778 197.486 18.5044 196.799C18.9686 196.201 19.598 195.817 20.3924 195.647C21.1423 195.478 21.7761 195.38 22.2938 195.353C22.6419 195.308 22.8562 195.165 22.9365 194.924ZM18.9597 201.526C18.9597 202.115 19.0936 202.682 19.3614 203.226C19.6738 203.86 20.2585 204.177 21.1155 204.177C21.7939 204.177 22.3161 203.949 22.6821 203.494C23.057 203.03 23.2445 202.392 23.2445 201.579C23.2445 200.91 23.1284 200.289 22.8963 199.718C22.6018 198.977 22.0081 198.607 21.1155 198.607C20.2228 198.607 19.6203 198.968 19.3078 199.691C19.0758 200.245 18.9597 200.856 18.9597 201.526ZM26.0328 207.203V206.333C26.3721 206.377 26.5684 206.4 26.622 206.4C26.9612 206.4 27.2022 206.275 27.3451 206.025C27.4343 205.891 27.4923 205.779 27.5191 205.69C27.5459 205.645 27.6039 205.498 27.6932 205.248L27.8539 204.739L24.9081 197.937H26.314L28.4966 203.44L30.3042 197.937H31.4825L28.7778 205.543C28.5635 206.15 28.3805 206.547 28.2288 206.734C27.9253 207.091 27.5147 207.27 26.9969 207.27C26.5952 207.27 26.2739 207.248 26.0328 207.203ZM34.2362 204.739V198.767H31.8795V197.937H37.7711V198.767H35.4145V204.739H34.2362ZM38.6715 204.739V197.937H39.8498V200.629H41.5637C42.1082 200.629 42.5635 200.682 42.9295 200.789C43.8043 201.012 44.2596 201.651 44.2953 202.704C44.2953 203.329 44.1033 203.824 43.7195 204.19C43.3446 204.556 42.7599 204.739 41.9654 204.739H38.6715ZM41.2825 201.459H39.8498V203.909H41.4968C42.5501 203.909 43.0768 203.481 43.0768 202.624C43.0768 202.204 42.9384 201.901 42.6617 201.713C42.5724 201.642 42.4251 201.584 42.2198 201.539C42.0056 201.486 41.6932 201.459 41.2825 201.459ZM45.1254 204.739V197.937H46.3038V204.739H45.1254ZM47.4401 204.739V203.869C48.1096 204.065 48.5827 203.748 48.8595 202.918C48.9309 202.713 48.98 202.459 49.0067 202.155L49.0603 201.338C49.0692 201.195 49.0737 200.914 49.0737 200.495V197.937H53.787V204.739H52.6086V198.767H50.1717V200.495C50.1717 201.057 50.1583 201.53 50.1315 201.914C50.1047 202.289 50.0378 202.7 49.9307 203.146C49.7789 203.78 49.5066 204.23 49.1139 204.498C48.7211 204.766 48.1632 204.846 47.4401 204.739ZM55.4954 202.677C55.2633 201.722 55.2723 200.798 55.5222 199.905C55.7722 199.013 56.2988 198.375 57.1022 197.991C57.5486 197.776 58.0708 197.669 58.6688 197.669C59.2669 197.669 59.7891 197.776 60.2355 197.991C61.0389 198.366 61.57 199.035 61.8289 199.999C61.9449 200.446 62.0029 200.896 62.0029 201.352C62.0119 201.798 61.9583 202.24 61.8423 202.677C61.7351 203.106 61.5432 203.498 61.2665 203.856C60.9987 204.213 60.655 204.494 60.2355 204.699C59.7802 204.904 59.258 205.007 58.6688 205.007C58.0797 205.007 57.5575 204.904 57.1022 204.699C56.3256 204.324 55.79 203.65 55.4954 202.677ZM56.7407 199.986C56.6246 200.343 56.5666 200.789 56.5666 201.325C56.5666 201.851 56.6246 202.302 56.7407 202.677C56.8567 203.052 56.9906 203.333 57.1424 203.521C57.4638 203.878 57.8297 204.088 58.2404 204.15C58.526 204.195 58.8117 204.195 59.0973 204.15C59.2223 204.141 59.3964 204.079 59.6195 203.963C59.8606 203.838 60.0569 203.681 60.2087 203.494C60.3604 203.307 60.4899 203.034 60.597 202.677C60.713 202.302 60.7711 201.851 60.7711 201.325C60.7711 200.789 60.713 200.343 60.597 199.986C60.472 199.593 60.3337 199.312 60.1819 199.142C60.0391 198.973 59.8606 198.83 59.6463 198.714C59.4321 198.598 59.2491 198.526 59.0973 198.5C58.8117 198.455 58.526 198.455 58.2404 198.5C58.1154 198.508 57.9369 198.575 57.7048 198.7C57.2495 198.924 56.9282 199.352 56.7407 199.986ZM64.7337 197.937V200.91L67.6393 197.937H69.0184L65.8316 201.097L69.1925 204.739H67.7866L64.7337 201.338V204.739H63.5553V197.937H64.7337ZM77.8512 198.767H74.41V204.739H73.2317V197.937H79.0295V204.739H77.8512V198.767ZM80.7454 202.677C80.5133 201.722 80.5223 200.798 80.7722 199.905C81.0221 199.013 81.5488 198.375 82.3522 197.991C82.7985 197.776 83.3208 197.669 83.9188 197.669C84.5169 197.669 85.0391 197.776 85.4855 197.991C86.2889 198.366 86.82 199.035 87.0789 199.999C87.1949 200.446 87.2529 200.896 87.2529 201.352C87.2619 201.798 87.2083 202.24 87.0923 202.677C86.9851 203.106 86.7932 203.498 86.5165 203.856C86.2487 204.213 85.905 204.494 85.4855 204.699C85.0302 204.904 84.508 205.007 83.9188 205.007C83.3297 205.007 82.8075 204.904 82.3522 204.699C81.5756 204.324 81.04 203.65 80.7454 202.677ZM81.9907 199.986C81.8746 200.343 81.8166 200.789 81.8166 201.325C81.8166 201.851 81.8746 202.302 81.9907 202.677C82.1067 203.052 82.2406 203.333 82.3924 203.521C82.7137 203.878 83.0797 204.088 83.4904 204.15C83.776 204.195 84.0617 204.195 84.3473 204.15C84.4723 204.141 84.6464 204.079 84.8695 203.963C85.1105 203.838 85.3069 203.681 85.4587 203.494C85.6104 203.307 85.7399 203.034 85.847 202.677C85.963 202.302 86.0211 201.851 86.0211 201.325C86.0211 200.789 85.963 200.343 85.847 199.986C85.722 199.593 85.5837 199.312 85.4319 199.142C85.2891 198.973 85.1105 198.83 84.8963 198.714C84.6821 198.598 84.4991 198.526 84.3473 198.5C84.0617 198.455 83.776 198.455 83.4904 198.5C83.3654 198.508 83.1869 198.575 82.9548 198.7C82.4995 198.924 82.1781 199.352 81.9907 199.986ZM87.9484 206.507L87.8413 203.909H88.6982C89.4391 202.82 89.8096 201.209 89.8096 199.075V197.937H94.6835V203.909H95.8618L95.7681 206.507H94.7772V204.739H88.9392V206.507H87.9484ZM93.5052 203.909V198.767H90.9076V199.718C90.9076 200.441 90.8272 201.191 90.6665 201.968C90.5237 202.735 90.2827 203.382 89.9435 203.909H93.5052ZM104.538 201.566H101.177V204.739H99.9985V197.937H101.177V200.736H104.538V197.937H105.716V204.739H104.538V201.566ZM108.545 199.946H107.42C107.42 199.41 107.599 198.919 107.956 198.473C108.384 197.937 109.17 197.669 110.313 197.669C110.982 197.669 111.571 197.803 112.08 198.071C112.375 198.214 112.607 198.45 112.776 198.781C112.946 199.111 113.026 199.504 113.017 199.959L112.95 203.106C112.95 203.365 112.977 203.565 113.031 203.708C113.111 203.851 113.321 203.918 113.66 203.909V204.739C113.526 204.775 113.348 204.793 113.125 204.793C112.732 204.793 112.446 204.726 112.268 204.592C112.098 204.458 111.977 204.195 111.906 203.802C111.469 204.605 110.692 205.007 109.576 205.007C108.808 205.007 108.215 204.837 107.795 204.498C107.385 204.15 107.179 203.637 107.179 202.958C107.179 202.316 107.411 201.829 107.876 201.499C108.34 201.151 109.219 200.919 110.513 200.803C111.112 200.758 111.469 200.7 111.585 200.629C111.754 200.512 111.839 200.258 111.839 199.865C111.839 198.955 111.33 198.5 110.313 198.5C109.108 198.5 108.518 198.982 108.545 199.946ZM111.812 201.834L111.839 201.258C111.705 201.356 111.509 201.436 111.25 201.499C110.857 201.526 110.554 201.557 110.339 201.593C109.598 201.718 109.148 201.82 108.987 201.901C108.594 202.088 108.398 202.427 108.398 202.918C108.398 203.311 108.514 203.619 108.746 203.842C108.987 204.065 109.308 204.177 109.71 204.177C109.969 204.177 110.206 204.141 110.42 204.07C110.643 203.998 110.857 203.882 111.062 203.722C111.277 203.552 111.446 203.307 111.571 202.985C111.705 202.664 111.786 202.28 111.812 201.834ZM119.669 198.767H116.227V204.739H115.049V197.937H120.847V204.739H119.669V198.767ZM123.955 197.937V203.36L127.504 197.937H128.816V204.739H127.638V199.303L124.103 204.739H122.777V197.937H123.955ZM132.307 204.739V198.767H129.95V197.937H135.842V198.767H133.485V204.739H132.307ZM137.999 197.937V200.91L140.905 197.937H142.284L139.097 201.097L142.458 204.739H141.052L137.999 201.338V204.739H136.821V197.937H137.999ZM144.55 197.937V203.36L148.099 197.937H149.411V204.739H148.233V199.303L144.698 204.739H143.372V197.937H144.55Z" fill="black"/>
<path d="M175.203 242.007H170.351V244.417H167.925V246.827H165.5V254.058H167.925V256.468H170.351V258.878H172.777V261.288H175.203V263.699H177.629V266.109H180.055V263.699H182.48V261.288H184.906V258.878H187.332V256.468H189.758V254.058H192.184V246.827H189.758V244.417H187.332V242.007H182.48V244.417H180.055V246.827H177.629V244.417H175.203V242.007ZM175.203 244.417V246.827H177.629V249.237H180.055V246.827H182.48V244.417H187.332V246.827H189.758V254.058H187.332V256.468H184.906V258.878H182.48V261.288H180.055V263.699H177.629V261.288H175.203V258.878H172.777V256.468H170.351V254.058H167.925V246.827H170.351V244.417H175.203Z" fill="black"/>
<path d="M172.61 277.291H167.896V285.606H166.638V276.233H173.868V285.606H172.61V277.291ZM175.97 288.084V278.804H177.068V279.742H177.108C177.644 278.938 178.394 278.537 179.358 278.537C180.241 278.537 180.973 278.845 181.554 279.46C182.134 280.085 182.424 281 182.424 282.205C182.424 283.437 182.129 284.357 181.54 284.964C180.96 285.571 180.241 285.874 179.384 285.874C179.117 285.874 178.791 285.816 178.407 285.7C177.845 285.531 177.425 285.174 177.148 284.629V288.084H175.97ZM177.068 282.232C177.068 283.178 177.282 283.888 177.711 284.361C178.157 284.816 178.643 285.044 179.17 285.044C179.724 285.044 180.197 284.821 180.589 284.375C180.982 283.91 181.179 283.187 181.179 282.205C181.179 281.313 180.996 280.616 180.63 280.117C180.273 279.617 179.764 279.367 179.103 279.367C178.755 279.367 178.429 279.46 178.126 279.648C177.421 280.067 177.068 280.929 177.068 282.232ZM185.138 278.804V284.227L188.686 278.804H189.998V285.606H188.82V280.17L185.285 285.606H183.959V278.804H185.138ZM196.582 279.635H193.101V285.606H191.923V278.804H196.582V279.635ZM197.161 283.544C196.929 282.589 196.938 281.665 197.188 280.773C197.438 279.88 197.965 279.242 198.768 278.858C199.214 278.644 199.737 278.537 200.335 278.537C200.933 278.537 201.455 278.644 201.901 278.858C202.705 279.233 203.236 279.902 203.495 280.866C203.611 281.313 203.669 281.764 203.669 282.219C203.678 282.665 203.624 283.107 203.508 283.544C203.401 283.973 203.209 284.366 202.932 284.723C202.665 285.08 202.321 285.361 201.901 285.566C201.446 285.772 200.924 285.874 200.335 285.874C199.746 285.874 199.223 285.772 198.768 285.566C197.991 285.191 197.456 284.517 197.161 283.544ZM198.407 280.853C198.291 281.21 198.232 281.656 198.232 282.192C198.232 282.719 198.291 283.169 198.407 283.544C198.523 283.919 198.657 284.201 198.808 284.388C199.13 284.745 199.496 284.955 199.906 285.017C200.192 285.062 200.478 285.062 200.763 285.017C200.888 285.008 201.062 284.946 201.285 284.83C201.526 284.705 201.723 284.549 201.875 284.361C202.026 284.174 202.156 283.901 202.263 283.544C202.379 283.169 202.437 282.719 202.437 282.192C202.437 281.656 202.379 281.21 202.263 280.853C202.138 280.46 202 280.179 201.848 280.009C201.705 279.84 201.526 279.697 201.312 279.581C201.098 279.465 200.915 279.394 200.763 279.367C200.478 279.322 200.192 279.322 199.906 279.367C199.781 279.376 199.603 279.443 199.371 279.568C198.915 279.791 198.594 280.219 198.407 280.853ZM204.364 287.374L204.257 284.776H205.114C205.855 283.687 206.225 282.076 206.225 279.942V278.804H211.099V284.776H212.278L212.184 287.374H211.193V285.606H205.355V287.374H204.364ZM209.921 284.776V279.635H207.323V280.585C207.323 281.308 207.243 282.058 207.082 282.835C206.94 283.602 206.699 284.25 206.359 284.776H209.921ZM218.19 283.638H219.315C219.208 284.236 218.917 284.758 218.444 285.205C217.971 285.651 217.27 285.874 216.342 285.874C215.083 285.874 214.16 285.459 213.57 284.629C213.276 284.192 213.084 283.723 212.995 283.223C212.932 282.875 212.901 282.545 212.901 282.232C212.901 281.634 212.99 281.072 213.169 280.545C213.285 280.17 213.454 279.844 213.677 279.568C213.918 279.273 214.262 279.028 214.709 278.831C215.155 278.635 215.659 278.537 216.222 278.537C217.221 278.537 217.976 278.813 218.484 279.367C218.699 279.599 218.873 279.893 219.007 280.25C219.203 280.768 219.324 281.398 219.368 282.138C219.368 282.165 219.368 282.223 219.368 282.313C219.377 282.402 219.382 282.455 219.382 282.473H214.146C214.146 283.152 214.325 283.75 214.682 284.267C215.039 284.785 215.579 285.044 216.302 285.044C216.82 285.044 217.244 284.915 217.574 284.656C217.904 284.397 218.11 284.058 218.19 283.638ZM214.146 281.643H218.136C218.127 281.116 218.002 280.63 217.761 280.184C217.485 279.639 216.98 279.367 216.248 279.367C215.418 279.367 214.847 279.643 214.534 280.197C214.276 280.643 214.146 281.125 214.146 281.643ZM225.465 282.433H222.104V285.606H220.926V278.804H222.104V281.603H225.465V278.804H226.643V285.606H225.465V282.433ZM165.607 302.374L165.5 299.776H166.356C167.097 298.687 167.468 297.076 167.468 294.942V293.804H172.342V299.776H173.52L173.426 302.374H172.436V300.606H166.597V302.374H165.607ZM171.163 299.776V294.635H168.566V295.585C168.566 296.308 168.485 297.058 168.325 297.835C168.182 298.602 167.941 299.25 167.602 299.776H171.163ZM174.082 300.606V299.736C174.751 299.932 175.224 299.616 175.501 298.785C175.572 298.58 175.621 298.326 175.648 298.022L175.702 297.205C175.711 297.063 175.715 296.781 175.715 296.362V293.804H180.428V300.606H179.25V294.635H176.813V296.362C176.813 296.924 176.8 297.397 176.773 297.781C176.746 298.156 176.679 298.567 176.572 299.013C176.42 299.647 176.148 300.098 175.755 300.365C175.362 300.633 174.805 300.714 174.082 300.606ZM186.515 297.928H184.962L183.181 300.606H181.882L183.757 297.915C183.239 297.862 182.82 297.661 182.498 297.313C182.177 296.964 182.016 296.509 182.016 295.947C182.016 295.42 182.155 294.96 182.431 294.568C182.762 294.059 183.387 293.804 184.306 293.804H187.694V300.606H186.515V297.928ZM186.515 297.098V294.635H184.815C183.761 294.635 183.235 295.059 183.235 295.907C183.235 296.255 183.364 296.54 183.623 296.764C183.882 296.987 184.293 297.098 184.855 297.098H186.515ZM197.366 294.635H193.925V300.606H192.747V293.804H198.544V300.606H197.366V294.635ZM205.375 298.638H206.5C206.393 299.236 206.103 299.758 205.63 300.205C205.157 300.651 204.456 300.874 203.527 300.874C202.269 300.874 201.345 300.459 200.756 299.629C200.461 299.192 200.269 298.723 200.18 298.223C200.118 297.875 200.086 297.545 200.086 297.232C200.086 296.634 200.176 296.072 200.354 295.545C200.47 295.17 200.64 294.844 200.863 294.568C201.104 294.273 201.448 294.028 201.894 293.831C202.34 293.635 202.845 293.537 203.407 293.537C204.407 293.537 205.161 293.813 205.67 294.367C205.884 294.599 206.058 294.893 206.192 295.25C206.388 295.768 206.509 296.398 206.554 297.138C206.554 297.165 206.554 297.223 206.554 297.313C206.563 297.402 206.567 297.455 206.567 297.473H201.332C201.332 298.152 201.51 298.75 201.867 299.267C202.224 299.785 202.764 300.044 203.487 300.044C204.005 300.044 204.429 299.915 204.759 299.656C205.09 299.397 205.295 299.058 205.375 298.638ZM201.332 296.643H205.322C205.313 296.116 205.188 295.63 204.947 295.184C204.67 294.639 204.166 294.367 203.434 294.367C202.604 294.367 202.032 294.643 201.72 295.197C201.461 295.643 201.332 296.125 201.332 296.643ZM208.111 303.084V293.804H209.209V294.742H209.249C209.785 293.938 210.535 293.537 211.499 293.537C212.382 293.537 213.114 293.845 213.695 294.46C214.275 295.085 214.565 296 214.565 297.205C214.565 298.437 214.27 299.357 213.681 299.964C213.101 300.571 212.382 300.874 211.525 300.874C211.258 300.874 210.932 300.816 210.548 300.7C209.986 300.531 209.566 300.174 209.289 299.629V303.084H208.111ZM209.209 297.232C209.209 298.178 209.423 298.888 209.852 299.361C210.298 299.816 210.785 300.044 211.311 300.044C211.865 300.044 212.338 299.821 212.731 299.375C213.123 298.91 213.32 298.187 213.32 297.205C213.32 296.313 213.137 295.616 212.771 295.117C212.414 294.617 211.905 294.367 211.244 294.367C210.896 294.367 210.57 294.46 210.267 294.648C209.562 295.067 209.209 295.929 209.209 297.232ZM221.001 298.638H222.126C222.019 299.236 221.729 299.758 221.256 300.205C220.783 300.651 220.082 300.874 219.153 300.874C217.895 300.874 216.971 300.459 216.382 299.629C216.087 299.192 215.895 298.723 215.806 298.223C215.743 297.875 215.712 297.545 215.712 297.232C215.712 296.634 215.801 296.072 215.98 295.545C216.096 295.17 216.266 294.844 216.489 294.568C216.73 294.273 217.074 294.028 217.52 293.831C217.966 293.635 218.471 293.537 219.033 293.537C220.033 293.537 220.787 293.813 221.296 294.367C221.51 294.599 221.684 294.893 221.818 295.25C222.014 295.768 222.135 296.398 222.18 297.138C222.18 297.165 222.18 297.223 222.18 297.313C222.189 297.402 222.193 297.455 222.193 297.473H216.957C216.957 298.152 217.136 298.75 217.493 299.267C217.85 299.785 218.39 300.044 219.113 300.044C219.631 300.044 220.055 299.915 220.385 299.656C220.716 299.397 220.921 299.058 221.001 298.638ZM216.957 296.643H220.948C220.939 296.116 220.814 295.63 220.573 295.184C220.296 294.639 219.792 294.367 219.06 294.367C218.23 294.367 217.658 294.643 217.346 295.197C217.087 295.643 216.957 296.125 216.957 296.643ZM223.737 303.084V293.804H224.835V294.742H224.875C225.411 293.938 226.161 293.537 227.125 293.537C228.008 293.537 228.74 293.845 229.321 294.46C229.901 295.085 230.191 296 230.191 297.205C230.191 298.437 229.896 299.357 229.307 299.964C228.727 300.571 228.008 300.874 227.151 300.874C226.884 300.874 226.558 300.816 226.174 300.7C225.612 300.531 225.192 300.174 224.915 299.629V303.084H223.737ZM224.835 297.232C224.835 298.178 225.049 298.888 225.478 299.361C225.924 299.816 226.411 300.044 226.937 300.044C227.491 300.044 227.964 299.821 228.357 299.375C228.749 298.91 228.946 298.187 228.946 297.205C228.946 296.313 228.763 295.616 228.397 295.117C228.04 294.617 227.531 294.367 226.87 294.367C226.522 294.367 226.196 294.46 225.893 294.648C225.188 295.067 224.835 295.929 224.835 297.232ZM232.624 295.813H231.499C231.499 295.277 231.677 294.786 232.034 294.34C232.463 293.804 233.248 293.537 234.391 293.537C235.061 293.537 235.65 293.67 236.159 293.938C236.453 294.081 236.685 294.318 236.855 294.648C237.024 294.978 237.105 295.371 237.096 295.826L237.029 298.973C237.029 299.232 237.056 299.433 237.109 299.575C237.19 299.718 237.399 299.785 237.739 299.776V300.606C237.605 300.642 237.426 300.66 237.203 300.66C236.81 300.66 236.525 300.593 236.346 300.459C236.176 300.325 236.056 300.062 235.985 299.669C235.547 300.473 234.77 300.874 233.655 300.874C232.887 300.874 232.293 300.705 231.874 300.365C231.463 300.017 231.258 299.504 231.258 298.826C231.258 298.183 231.49 297.696 231.954 297.366C232.418 297.018 233.298 296.786 234.592 296.67C235.19 296.625 235.547 296.567 235.663 296.496C235.833 296.38 235.918 296.125 235.918 295.733C235.918 294.822 235.409 294.367 234.391 294.367C233.186 294.367 232.597 294.849 232.624 295.813ZM235.891 297.701L235.918 297.125C235.784 297.223 235.587 297.304 235.328 297.366C234.936 297.393 234.632 297.424 234.418 297.46C233.677 297.585 233.226 297.687 233.065 297.768C232.673 297.955 232.476 298.294 232.476 298.785C232.476 299.178 232.592 299.486 232.824 299.709C233.065 299.932 233.387 300.044 233.789 300.044C234.047 300.044 234.284 300.008 234.498 299.937C234.721 299.866 234.936 299.749 235.141 299.589C235.355 299.419 235.525 299.174 235.65 298.852C235.784 298.531 235.864 298.147 235.891 297.701ZM243.961 290.792H244.966C244.93 291.443 244.626 291.876 244.055 292.09C243.743 292.198 243.475 292.269 243.252 292.305C242.252 292.43 241.672 292.514 241.511 292.559C240.904 292.729 240.44 293.037 240.118 293.483C239.797 293.92 239.627 294.55 239.61 295.371H239.636C240.065 294.219 240.944 293.644 242.274 293.644C243.354 293.644 244.162 294.001 244.698 294.715C245.242 295.42 245.515 296.286 245.515 297.313C245.515 298.294 245.233 299.134 244.671 299.83C244.109 300.526 243.274 300.874 242.167 300.874C240.944 300.874 240.038 300.41 239.449 299.482C239.154 298.973 238.954 298.402 238.846 297.768C238.775 297.268 238.739 296.772 238.739 296.281C238.739 294.559 239.003 293.354 239.529 292.666C239.993 292.068 240.623 291.684 241.417 291.515C242.167 291.345 242.801 291.247 243.319 291.22C243.667 291.175 243.881 291.033 243.961 290.792ZM239.985 297.393C239.985 297.982 240.118 298.549 240.386 299.093C240.699 299.727 241.283 300.044 242.14 300.044C242.819 300.044 243.341 299.816 243.707 299.361C244.082 298.897 244.269 298.259 244.269 297.446C244.269 296.777 244.153 296.157 243.921 295.585C243.627 294.844 243.033 294.474 242.14 294.474C241.248 294.474 240.645 294.835 240.333 295.558C240.101 296.112 239.985 296.723 239.985 297.393ZM246.837 298.544C246.605 297.589 246.614 296.665 246.864 295.773C247.114 294.88 247.641 294.242 248.444 293.858C248.891 293.644 249.413 293.537 250.011 293.537C250.609 293.537 251.131 293.644 251.578 293.858C252.381 294.233 252.912 294.902 253.171 295.866C253.287 296.313 253.345 296.764 253.345 297.219C253.354 297.665 253.3 298.107 253.184 298.544C253.077 298.973 252.885 299.366 252.609 299.723C252.341 300.08 251.997 300.361 251.578 300.566C251.122 300.772 250.6 300.874 250.011 300.874C249.422 300.874 248.9 300.772 248.444 300.566C247.668 300.191 247.132 299.517 246.837 298.544ZM248.083 295.853C247.967 296.21 247.909 296.656 247.909 297.192C247.909 297.719 247.967 298.169 248.083 298.544C248.199 298.919 248.333 299.201 248.484 299.388C248.806 299.745 249.172 299.955 249.582 300.017C249.868 300.062 250.154 300.062 250.439 300.017C250.564 300.008 250.738 299.946 250.962 299.83C251.203 299.705 251.399 299.549 251.551 299.361C251.702 299.174 251.832 298.901 251.939 298.544C252.055 298.169 252.113 297.719 252.113 297.192C252.113 296.656 252.055 296.21 251.939 295.853C251.814 295.46 251.676 295.179 251.524 295.009C251.381 294.84 251.203 294.697 250.988 294.581C250.774 294.465 250.591 294.394 250.439 294.367C250.154 294.322 249.868 294.322 249.582 294.367C249.457 294.376 249.279 294.443 249.047 294.568C248.592 294.791 248.27 295.219 248.083 295.853ZM256.046 300.606V294.635H253.689V293.804H259.581V294.635H257.224V300.606H256.046ZM261.738 293.804V296.777L264.643 293.804H266.022L262.836 296.964L266.197 300.606H264.791L261.738 297.205V300.606H260.559V293.804H261.738ZM268.289 293.804V299.227L271.837 293.804H273.149V300.606H271.971V295.17L268.436 300.606H267.11V293.804H268.289Z" fill="black"/>
<path d="M31.2107 239.864H28.7762V242.299H26.3417V244.733H23.9071V247.168H21.4726V249.602H19.0381V252.037H16.6035V254.471H19.0381V256.906H21.4726V259.341H23.9071V261.775H26.3417V264.21H28.7762V266.644H31.2107V264.21H33.6453V261.775H36.0798V259.341H38.5143V256.906H40.9489V254.471H43.3834V252.037H40.9489V249.602H38.5143V247.168H36.0798V244.733H33.6453V242.299H31.2107V239.864ZM31.2107 242.299V244.733H33.6453V247.168H36.0798V249.602H38.5143V252.037H40.9489V254.471H38.5143V256.906H36.0798V259.341H33.6453V261.775H31.2107V264.21H28.7762V261.775H26.3417V259.341H23.9071V256.906H21.4726V254.471H19.0381V252.037H21.4726V249.602H23.9071V247.168H26.3417V244.733H28.7762V242.299H31.2107ZM31.2107 247.168H28.7762V254.471H31.2107V247.168ZM31.2107 256.906H28.7762V259.341H31.2107V256.906Z" fill="black"/>
<path d="M18.2639 276.233L20.9552 281.871L23.2048 276.233H24.5304L21.3569 283.933C20.991 284.781 20.5848 285.307 20.1385 285.513C19.8082 285.664 19.4199 285.74 18.9735 285.74C18.5808 285.74 18.2326 285.696 17.9291 285.606V284.508C18.2237 284.607 18.5183 284.656 18.8129 284.656C19.0271 284.656 19.2056 284.633 19.3485 284.589C19.5002 284.544 19.6654 284.415 19.8439 284.201C20.0224 283.986 20.1697 283.678 20.2858 283.277L16.724 276.233H18.2639ZM29.8313 285.606H28.9208L26.6177 280.143H26.591L26.6177 280.505V285.606H25.4394V278.804H27.0596L29.3761 284.334L31.6925 278.804H33.3127V285.606H32.1344V280.505L32.1746 280.143H32.1344L29.8313 285.606ZM40.1472 283.638H41.272C41.1649 284.236 40.8747 284.758 40.4016 285.205C39.9285 285.651 39.2278 285.874 38.2994 285.874C37.0408 285.874 36.1169 285.459 35.5277 284.629C35.2331 284.192 35.0412 283.723 34.9519 283.223C34.8894 282.875 34.8582 282.545 34.8582 282.232C34.8582 281.634 34.9475 281.072 35.126 280.545C35.242 280.17 35.4116 279.844 35.6348 279.568C35.8758 279.273 36.2195 279.028 36.6658 278.831C37.1122 278.635 37.6165 278.537 38.1789 278.537C39.1787 278.537 39.933 278.813 40.4418 279.367C40.656 279.599 40.8301 279.893 40.964 280.25C41.1604 280.768 41.2809 281.398 41.3255 282.138C41.3255 282.165 41.3255 282.223 41.3255 282.313C41.3345 282.402 41.3389 282.455 41.3389 282.473H36.1035C36.1035 283.152 36.282 283.75 36.6391 284.267C36.9961 284.785 37.5362 285.044 38.2592 285.044C38.777 285.044 39.201 284.915 39.5313 284.656C39.8616 284.397 40.0669 284.058 40.1472 283.638ZM36.1035 281.643H40.0937C40.0847 281.116 39.9598 280.63 39.7187 280.184C39.442 279.639 38.9377 279.367 38.2057 279.367C37.3755 279.367 36.8042 279.643 36.4918 280.197C36.2329 280.643 36.1035 281.125 36.1035 281.643ZM42.883 288.084V278.804H43.9809V279.742H44.0211C44.5567 278.938 45.3065 278.537 46.2706 278.537C47.1544 278.537 47.8863 278.845 48.4666 279.46C49.0468 280.085 49.3369 281 49.3369 282.205C49.3369 283.437 49.0423 284.357 48.4532 284.964C47.8729 285.571 47.1544 285.874 46.2974 285.874C46.0296 285.874 45.7038 285.816 45.3199 285.7C44.7576 285.531 44.338 285.174 44.0613 284.629V288.084H42.883ZM43.9809 282.232C43.9809 283.178 44.1952 283.888 44.6237 284.361C45.07 284.816 45.5565 285.044 46.0832 285.044C46.6366 285.044 47.1097 284.821 47.5025 284.375C47.8953 283.91 48.0917 283.187 48.0917 282.205C48.0917 281.313 47.9087 280.616 47.5427 280.117C47.1856 279.617 46.6768 279.367 46.0162 279.367C45.6681 279.367 45.3422 279.46 45.0387 279.648C44.3335 280.067 43.9809 280.929 43.9809 282.232ZM55.7732 283.638H56.8979C56.7908 284.236 56.5007 284.758 56.0276 285.205C55.5545 285.651 54.8537 285.874 53.9254 285.874C52.6667 285.874 51.7428 285.459 51.1537 284.629C50.8591 284.192 50.6672 283.723 50.5779 283.223C50.5154 282.875 50.4842 282.545 50.4842 282.232C50.4842 281.634 50.5734 281.072 50.752 280.545C50.868 280.17 51.0376 279.844 51.2608 279.568C51.5018 279.273 51.8455 279.028 52.2918 278.831C52.7381 278.635 53.2425 278.537 53.8049 278.537C54.8047 278.537 55.559 278.813 56.0678 279.367C56.282 279.599 56.4561 279.893 56.59 280.25C56.7864 280.768 56.9069 281.398 56.9515 282.138C56.9515 282.165 56.9515 282.223 56.9515 282.313C56.9604 282.402 56.9649 282.455 56.9649 282.473H51.7294C51.7294 283.152 51.908 283.75 52.265 284.267C52.6221 284.785 53.1622 285.044 53.8852 285.044C54.403 285.044 54.827 284.915 55.1573 284.656C55.4875 284.397 55.6929 284.058 55.7732 283.638ZM51.7294 281.643H55.7196C55.7107 281.116 55.5857 280.63 55.3447 280.184C55.068 279.639 54.5636 279.367 53.8316 279.367C53.0015 279.367 52.4302 279.643 52.1177 280.197C51.8589 280.643 51.7294 281.125 51.7294 281.643ZM63.0481 282.433H59.6872V285.606H58.5089V278.804H59.6872V281.603H63.0481V278.804H64.2264V285.606H63.0481V282.433ZM70.6976 282.433H67.3368V285.606H66.1585V278.804H67.3368V281.603H70.6976V278.804H71.876V285.606H70.6976V282.433ZM73.808 285.606V278.804H74.9863V281.496H76.7002C77.2447 281.496 77.7 281.549 78.066 281.656C78.9408 281.88 79.3961 282.518 79.4318 283.571C79.4318 284.196 79.2398 284.691 78.856 285.057C78.4811 285.423 77.8964 285.606 77.1019 285.606H73.808ZM76.419 282.326H74.9863V284.776H76.6333C77.6866 284.776 78.2133 284.348 78.2133 283.491C78.2133 283.071 78.0749 282.768 77.7982 282.58C77.7089 282.509 77.5616 282.451 77.3563 282.406C77.1421 282.353 76.8297 282.326 76.419 282.326ZM80.2619 285.606V278.804H81.4403V285.606H80.2619ZM84.5449 278.804V284.227L88.0933 278.804H89.4055V285.606H88.2272V280.17L84.6922 285.606H83.3666V278.804H84.5449ZM87.6514 276.233H88.6557C88.4682 277.215 87.879 277.791 86.8882 277.961C86.7186 277.988 86.54 278.001 86.3526 278.001C85.201 278.001 84.4646 277.532 84.1432 276.595C84.1165 276.533 84.0852 276.412 84.0495 276.233H85.0538C85.027 276.466 85.1073 276.684 85.2948 276.89C85.4287 277.032 85.5849 277.14 85.7634 277.211C85.9241 277.265 86.1205 277.291 86.3526 277.291C86.7364 277.291 87.0533 277.198 87.3033 277.01C87.5532 276.814 87.6693 276.555 87.6514 276.233ZM17.822 303.07V302.2C18.1612 302.244 18.3576 302.267 18.4112 302.267C18.7504 302.267 18.9914 302.142 19.1342 301.892C19.2235 301.758 19.2815 301.646 19.3083 301.557C19.3351 301.512 19.3931 301.365 19.4824 301.115L19.643 300.606L16.6972 293.804H18.1032L20.2858 299.308L22.0934 293.804H23.2717L20.5669 301.41C20.3527 302.017 20.1697 302.414 20.018 302.602C19.7144 302.959 19.3038 303.137 18.7861 303.137C18.3844 303.137 18.063 303.115 17.822 303.07ZM24.2364 303.084V293.804H25.3344V294.742H25.3746C25.9102 293.938 26.66 293.537 27.6241 293.537C28.5078 293.537 29.2398 293.845 29.82 294.46C30.4003 295.085 30.6904 296 30.6904 297.205C30.6904 298.437 30.3958 299.357 29.8066 299.964C29.2264 300.571 28.5078 300.874 27.6508 300.874C27.3831 300.874 27.0572 300.816 26.6734 300.7C26.111 300.531 25.6915 300.174 25.4147 299.629V303.084H24.2364ZM25.3344 297.232C25.3344 298.178 25.5486 298.888 25.9771 299.361C26.4234 299.816 26.9099 300.044 27.4366 300.044C27.9901 300.044 28.4632 299.821 28.8559 299.375C29.2487 298.91 29.4451 298.187 29.4451 297.205C29.4451 296.313 29.2621 295.616 28.8961 295.117C28.539 294.617 28.0302 294.367 27.3697 294.367C27.0215 294.367 26.6957 294.46 26.3922 294.648C25.687 295.067 25.3344 295.929 25.3344 297.232ZM32.0117 298.544C31.7796 297.589 31.7885 296.665 32.0385 295.773C32.2884 294.88 32.8151 294.242 33.6185 293.858C34.0648 293.644 34.587 293.537 35.1851 293.537C35.7832 293.537 36.3054 293.644 36.7517 293.858C37.5551 294.233 38.0863 294.902 38.3451 295.866C38.4612 296.313 38.5192 296.764 38.5192 297.219C38.5281 297.665 38.4746 298.107 38.3585 298.544C38.2514 298.973 38.0595 299.366 37.7828 299.723C37.515 300.08 37.1713 300.361 36.7517 300.566C36.2965 300.772 35.7743 300.874 35.1851 300.874C34.5959 300.874 34.0737 300.772 33.6185 300.566C32.8419 300.191 32.3063 299.517 32.0117 298.544ZM33.2569 295.853C33.1409 296.21 33.0829 296.656 33.0829 297.192C33.0829 297.719 33.1409 298.169 33.2569 298.544C33.373 298.919 33.5069 299.201 33.6586 299.388C33.98 299.745 34.346 299.955 34.7566 300.017C35.0423 300.062 35.3279 300.062 35.6136 300.017C35.7386 300.008 35.9126 299.946 36.1358 299.83C36.3768 299.705 36.5732 299.549 36.7249 299.361C36.8767 299.174 37.0061 298.901 37.1133 298.544C37.2293 298.169 37.2873 297.719 37.2873 297.192C37.2873 296.656 37.2293 296.21 37.1133 295.853C36.9883 295.46 36.8499 295.179 36.6982 295.009C36.5553 294.84 36.3768 294.697 36.1626 294.581C35.9483 294.465 35.7653 294.394 35.6136 294.367C35.3279 294.322 35.0423 294.322 34.7566 294.367C34.6316 294.376 34.4531 294.443 34.221 294.568C33.7658 294.791 33.4444 295.219 33.2569 295.853ZM40.0716 300.606V293.804H43.312C44.7492 293.804 45.4677 294.344 45.4677 295.425C45.4677 296.201 45.0571 296.732 44.2359 297.018V297.058C44.7893 297.192 45.1732 297.406 45.3874 297.701C45.6106 297.995 45.7222 298.375 45.7222 298.839C45.7222 299.58 45.4499 300.071 44.9054 300.312C44.459 300.508 43.9145 300.606 43.2718 300.606H40.0716ZM42.937 294.635H41.2499V296.643H42.8835C43.3566 296.643 43.7047 296.549 43.9279 296.362C44.16 296.165 44.276 295.911 44.276 295.599C44.276 294.956 43.8297 294.635 42.937 294.635ZM42.937 297.473H41.2499V299.776H42.9772C43.9949 299.776 44.5037 299.428 44.5037 298.732C44.5037 297.893 43.9815 297.473 42.937 297.473ZM52.1903 298.638H53.3151C53.208 299.236 52.9179 299.758 52.4447 300.205C51.9716 300.651 51.2709 300.874 50.3425 300.874C49.0839 300.874 48.16 300.459 47.5708 299.629C47.2762 299.192 47.0843 298.723 46.995 298.223C46.9325 297.875 46.9013 297.545 46.9013 297.232C46.9013 296.634 46.9906 296.072 47.1691 295.545C47.2851 295.17 47.4548 294.844 47.6779 294.568C47.9189 294.273 48.2626 294.028 48.7089 293.831C49.1553 293.635 49.6596 293.537 50.222 293.537C51.2218 293.537 51.9761 293.813 52.4849 294.367C52.6992 294.599 52.8732 294.893 53.0071 295.25C53.2035 295.768 53.324 296.398 53.3686 297.138C53.3686 297.165 53.3686 297.223 53.3686 297.313C53.3776 297.402 53.382 297.455 53.382 297.473H48.1466C48.1466 298.152 48.3251 298.75 48.6822 299.267C49.0392 299.785 49.5793 300.044 50.3024 300.044C50.8201 300.044 51.2441 299.915 51.5744 299.656C51.9047 299.397 52.11 299.058 52.1903 298.638ZM48.1466 296.643H52.1368C52.1278 296.116 52.0029 295.63 51.7619 295.184C51.4851 294.639 50.9808 294.367 50.2488 294.367C49.4186 294.367 48.8473 294.643 48.5349 295.197C48.276 295.643 48.1466 296.125 48.1466 296.643ZM59.4653 297.433H56.1044V300.606H54.9261V293.804H56.1044V296.603H59.4653V293.804H60.6436V300.606H59.4653V297.433ZM62.5756 300.606V293.804H63.7539V296.509H65.4544C66.1239 296.509 66.6997 296.607 67.1817 296.804C67.8512 297.045 68.186 297.607 68.186 298.491C68.186 299.223 67.9717 299.767 67.5433 300.124C67.3647 300.267 67.155 300.374 66.9139 300.446C66.5926 300.553 66.24 300.606 65.8561 300.606H62.5756ZM65.1866 297.339H63.7539V299.776H65.3875C65.9409 299.776 66.3471 299.665 66.606 299.442C66.8648 299.183 66.9854 298.866 66.9675 298.491C66.9675 298.08 66.8336 297.777 66.5658 297.58C66.4765 297.518 66.3337 297.464 66.1373 297.42C65.9231 297.366 65.6419 297.339 65.2938 297.339H65.1866ZM72.3646 298.544C72.1325 297.589 72.1414 296.665 72.3914 295.773C72.6413 294.88 73.168 294.242 73.9714 293.858C74.4177 293.644 74.9399 293.537 75.538 293.537C76.1361 293.537 76.6583 293.644 77.1046 293.858C77.908 294.233 78.4392 294.902 78.698 295.866C78.8141 296.313 78.8721 296.764 78.8721 297.219C78.881 297.665 78.8275 298.107 78.7114 298.544C78.6043 298.973 78.4124 299.366 78.1357 299.723C77.8679 300.08 77.5242 300.361 77.1046 300.566C76.6494 300.772 76.1272 300.874 75.538 300.874C74.9489 300.874 74.4266 300.772 73.9714 300.566C73.1948 300.191 72.6592 299.517 72.3646 298.544ZM73.6099 295.853C73.4938 296.21 73.4358 296.656 73.4358 297.192C73.4358 297.719 73.4938 298.169 73.6099 298.544C73.7259 298.919 73.8598 299.201 74.0116 299.388C74.3329 299.745 74.6989 299.955 75.1095 300.017C75.3952 300.062 75.6808 300.062 75.9665 300.017C76.0915 300.008 76.2655 299.946 76.4887 299.83C76.7297 299.705 76.9261 299.549 77.0779 299.361C77.2296 299.174 77.359 298.901 77.4662 298.544C77.5822 298.169 77.6402 297.719 77.6402 297.192C77.6402 296.656 77.5822 296.21 77.4662 295.853C77.3412 295.46 77.2028 295.179 77.0511 295.009C76.9082 294.84 76.7297 294.697 76.5155 294.581C76.3012 294.465 76.1182 294.394 75.9665 294.367C75.6808 294.322 75.3952 294.322 75.1095 294.367C74.9846 294.376 74.806 294.443 74.5739 294.568C74.1187 294.791 73.7973 295.219 73.6099 295.853ZM85.044 294.635H81.6028V300.606H80.4245V293.804H86.2223V300.606H85.044V294.635ZM89.0496 295.813H87.9249C87.9249 295.277 88.1034 294.786 88.4605 294.34C88.8889 293.804 89.6745 293.537 90.8171 293.537C91.4866 293.537 92.0757 293.67 92.5846 293.938C92.8791 294.081 93.1112 294.318 93.2808 294.648C93.4504 294.978 93.5308 295.371 93.5219 295.826L93.4549 298.973C93.4549 299.232 93.4817 299.433 93.5353 299.575C93.6156 299.718 93.8254 299.785 94.1646 299.776V300.606C94.0307 300.642 93.8521 300.66 93.629 300.66C93.2362 300.66 92.9506 300.593 92.772 300.459C92.6024 300.325 92.4819 300.062 92.4105 299.669C91.9731 300.473 91.1965 300.874 90.0806 300.874C89.313 300.874 88.7193 300.705 88.2998 300.365C87.8892 300.017 87.6838 299.504 87.6838 298.826C87.6838 298.183 87.9159 297.696 88.3801 297.366C88.8443 297.018 89.7236 296.786 91.0179 296.67C91.616 296.625 91.9731 296.567 92.0891 296.496C92.2587 296.38 92.3435 296.125 92.3435 295.733C92.3435 294.822 91.8347 294.367 90.8171 294.367C89.612 294.367 89.0228 294.849 89.0496 295.813ZM92.3168 297.701L92.3435 297.125C92.2096 297.223 92.0133 297.304 91.7544 297.366C91.3616 297.393 91.0581 297.424 90.8439 297.46C90.103 297.585 89.6522 297.687 89.4915 297.768C89.0987 297.955 88.9023 298.294 88.9023 298.785C88.9023 299.178 89.0184 299.486 89.2505 299.709C89.4915 299.932 89.8128 300.044 90.2145 300.044C90.4734 300.044 90.71 300.008 90.9242 299.937C91.1474 299.866 91.3616 299.749 91.5669 299.589C91.7812 299.419 91.9508 299.174 92.0757 298.852C92.2096 298.531 92.29 298.147 92.3168 297.701ZM100.32 298.183H101.445C101.409 298.701 101.213 299.245 100.856 299.816C100.66 300.138 100.352 300.397 99.9321 300.593C99.5215 300.781 99.0394 300.874 98.486 300.874C98.2985 300.874 98.1646 300.87 98.0843 300.861C97.6915 300.843 97.2898 300.74 96.8792 300.553C95.7366 299.982 95.1653 298.848 95.1653 297.152C95.1653 296.259 95.3706 295.465 95.7812 294.768C96.29 293.947 97.1648 293.537 98.4056 293.537C99.2804 293.537 99.9767 293.76 100.494 294.206C101.012 294.643 101.311 295.219 101.392 295.933H100.267C100.088 294.889 99.4768 294.367 98.4324 294.367C97.754 294.367 97.2452 294.617 96.906 295.117C96.5757 295.608 96.4105 296.286 96.4105 297.152C96.4105 297.991 96.5846 298.683 96.9327 299.227C97.2809 299.772 97.8075 300.044 98.5127 300.044C99.1198 300.044 99.5616 299.852 99.8384 299.468C100.133 299.084 100.294 298.656 100.32 298.183ZM107.428 297.433H104.068V300.606H102.889V293.804H104.068V296.603H107.428V293.804H108.607V300.606H107.428V297.433ZM110.325 298.544C110.092 297.589 110.101 296.665 110.351 295.773C110.601 294.88 111.128 294.242 111.931 293.858C112.378 293.644 112.9 293.537 113.498 293.537C114.096 293.537 114.618 293.644 115.065 293.858C115.868 294.233 116.399 294.902 116.658 295.866C116.774 296.313 116.832 296.764 116.832 297.219C116.841 297.665 116.787 298.107 116.671 298.544C116.564 298.973 116.372 299.366 116.096 299.723C115.828 300.08 115.484 300.361 115.065 300.566C114.609 300.772 114.087 300.874 113.498 300.874C112.909 300.874 112.387 300.772 111.931 300.566C111.155 300.191 110.619 299.517 110.325 298.544ZM111.57 295.853C111.454 296.21 111.396 296.656 111.396 297.192C111.396 297.719 111.454 298.169 111.57 298.544C111.686 298.919 111.82 299.201 111.972 299.388C112.293 299.745 112.659 299.955 113.07 300.017C113.355 300.062 113.641 300.062 113.926 300.017C114.051 300.008 114.226 299.946 114.449 299.83C114.69 299.705 114.886 299.549 115.038 299.361C115.19 299.174 115.319 298.901 115.426 298.544C115.542 298.169 115.6 297.719 115.6 297.192C115.6 296.656 115.542 296.21 115.426 295.853C115.301 295.46 115.163 295.179 115.011 295.009C114.868 294.84 114.69 294.697 114.475 294.581C114.261 294.465 114.078 294.394 113.926 294.367C113.641 294.322 113.355 294.322 113.07 294.367C112.945 294.376 112.766 294.443 112.534 294.568C112.079 294.791 111.757 295.219 111.57 295.853ZM123.151 298.183H124.276C124.24 298.701 124.044 299.245 123.687 299.816C123.491 300.138 123.183 300.397 122.763 300.593C122.352 300.781 121.87 300.874 121.317 300.874C121.129 300.874 120.996 300.87 120.915 300.861C120.522 300.843 120.121 300.74 119.71 300.553C118.567 299.982 117.996 298.848 117.996 297.152C117.996 296.259 118.201 295.465 118.612 294.768C119.121 293.947 119.996 293.537 121.237 293.537C122.111 293.537 122.808 293.76 123.325 294.206C123.843 294.643 124.142 295.219 124.222 295.933H123.098C122.919 294.889 122.308 294.367 121.263 294.367C120.585 294.367 120.076 294.617 119.737 295.117C119.407 295.608 119.241 296.286 119.241 297.152C119.241 297.991 119.416 298.683 119.764 299.227C120.112 299.772 120.638 300.044 121.344 300.044C121.951 300.044 122.393 299.852 122.669 299.468C122.964 299.084 123.125 298.656 123.151 298.183ZM127.051 300.606V294.635H124.695V293.804H130.586V294.635H128.23V300.606H127.051ZM132.665 293.804V299.227L136.213 293.804H137.526V300.606H136.347V295.17L132.812 300.606H131.487V293.804H132.665Z" fill="black"/>
<path d="M92.6449 33.0557V19.9335H97.9875C100.949 19.9335 102.43 21.1895 102.43 23.7014C102.43 26.4508 100.893 27.8256 97.8188 27.8256H94.407V33.0557H92.6449ZM97.6313 21.4144H94.407V26.3446H97.6313C98.6686 26.3446 99.4247 26.1322 99.8996 25.7073C100.387 25.2699 100.631 24.6137 100.631 23.7389C100.631 22.9266 100.387 22.3392 99.8996 21.9768C99.4122 21.6019 98.6561 21.4144 97.6313 21.4144ZM106.38 21.4144V25.5385H113.259V27.0195H106.38V31.5747H114.178V33.0557H104.617V19.9335H113.972V21.4144H106.38ZM119.02 33.0557V21.4144H114.746V19.9335H125.037V21.4144H120.782V33.0557H119.02ZM124.105 33.0557V31.0124H125.961V33.6368C125.961 34.2617 125.786 34.7553 125.436 35.1177C125.086 35.4801 124.642 35.7176 124.105 35.8301V34.799C124.367 34.774 124.586 34.6428 124.761 34.4054C124.948 34.1804 125.042 33.9242 125.042 33.6368V33.0557H124.105ZM129.533 33.0557V19.9335H134.875C137.837 19.9335 139.318 21.1895 139.318 23.7014C139.318 26.4508 137.781 27.8256 134.707 27.8256H131.295V33.0557H129.533ZM134.519 21.4144H131.295V26.3446H134.519C135.556 26.3446 136.312 26.1322 136.787 25.7073C137.275 25.2699 137.518 24.6137 137.518 23.7389C137.518 22.9266 137.275 22.3392 136.787 21.9768C136.3 21.6019 135.544 21.4144 134.519 21.4144ZM143.267 21.4144V25.5385H150.147V27.0195H143.267V31.5747H151.066V33.0557H141.505V19.9335H150.859V21.4144H143.267ZM155.908 33.0557V21.4144H151.634V19.9335H161.925V21.4144H157.67V33.0557H155.908ZM165.528 21.4144V25.5385H172.408V27.0195H165.528V31.5747H173.326V33.0557H163.766V19.9335H173.12V21.4144H165.528ZM174.832 36.5237H173.651L180.343 19.9335H181.524L174.832 36.5237ZM191.477 21.4144H184.878V33.0557H183.116V19.9335H193.239V33.0557H191.477V21.4144ZM199.405 27.0195V25.5385H205.592C205.592 24.8637 205.46 24.1951 205.198 23.5327C204.948 22.8204 204.504 22.233 203.867 21.7706C203.242 21.2957 202.411 21.0458 201.374 21.0208C200.299 21.0208 199.43 21.277 198.768 21.7894C198.118 22.2893 197.737 22.9454 197.625 23.7577H195.862C195.962 22.5954 196.456 21.6082 197.343 20.7958C198.256 19.9585 199.543 19.5399 201.205 19.5399C202.167 19.5399 203.036 19.6898 203.811 19.9898C204.586 20.2772 205.204 20.6646 205.667 21.152C206.104 21.5894 206.466 22.133 206.754 22.7829C207.229 23.8202 207.466 25.0074 207.466 26.3446C207.466 27.6818 207.26 28.8878 206.848 29.9626C206.585 30.6249 206.235 31.2061 205.798 31.706C205.348 32.2183 204.729 32.637 203.942 32.9619C203.167 33.2869 202.28 33.4493 201.28 33.4493C200.493 33.4493 199.78 33.3369 199.143 33.1119C198.506 32.8994 197.987 32.6245 197.587 32.2871C197.187 31.9497 196.844 31.556 196.556 31.1061C196.281 30.6437 196.075 30.2063 195.937 29.7939C195.812 29.369 195.725 28.9378 195.675 28.5004H197.437C197.525 29.0878 197.712 29.6439 198 30.1688C198.724 31.3685 199.843 31.9684 201.355 31.9684C202.642 31.9684 203.623 31.6185 204.298 30.9186C205.085 30.0938 205.517 29.0003 205.592 27.6381C205.617 27.4256 205.617 27.2194 205.592 27.0195H199.405ZM212.823 33.0557V21.4144H208.549V19.9335H218.84V21.4144H214.585V33.0557H212.823ZM220.764 33.0557V31.0124H222.619V33.6368C222.619 34.2617 222.444 34.7553 222.094 35.1177C221.745 35.4801 221.301 35.7176 220.764 35.8301V34.799C221.026 34.774 221.245 34.6428 221.42 34.4054C221.607 34.1804 221.701 33.9242 221.701 33.6368V33.0557H220.764ZM234.552 21.4144H227.953V33.0557H226.191V19.9335H236.314V33.0557H234.552V21.4144ZM242.481 27.0195V25.5385H248.667C248.667 24.8637 248.536 24.1951 248.273 23.5327C248.023 22.8204 247.58 22.233 246.942 21.7706C246.317 21.2957 245.486 21.0458 244.449 21.0208C243.374 21.0208 242.506 21.277 241.843 21.7894C241.194 22.2893 240.812 22.9454 240.7 23.7577H238.938C239.038 22.5954 239.531 21.6082 240.419 20.7958C241.331 19.9585 242.618 19.5399 244.28 19.5399C245.243 19.5399 246.111 19.6898 246.886 19.9898C247.661 20.2772 248.28 20.6646 248.742 21.152C249.179 21.5894 249.542 22.133 249.829 22.7829C250.304 23.8202 250.542 25.0074 250.542 26.3446C250.542 27.6818 250.335 28.8878 249.923 29.9626C249.66 30.6249 249.311 31.2061 248.873 31.706C248.423 32.2183 247.805 32.637 247.017 32.9619C246.242 33.2869 245.355 33.4493 244.355 33.4493C243.568 33.4493 242.856 33.3369 242.218 33.1119C241.581 32.8994 241.062 32.6245 240.662 32.2871C240.263 31.9497 239.919 31.556 239.631 31.1061C239.356 30.6437 239.15 30.2063 239.013 29.7939C238.888 29.369 238.8 28.9378 238.75 28.5004H240.512C240.6 29.0878 240.787 29.6439 241.075 30.1688C241.8 31.3685 242.918 31.9684 244.43 31.9684C245.718 31.9684 246.699 31.6185 247.373 30.9186C248.161 30.0938 248.592 29.0003 248.667 27.6381C248.692 27.4256 248.692 27.2194 248.667 27.0195H242.481ZM255.898 33.0557V21.4144H251.624V19.9335H261.916V21.4144H257.66V33.0557H255.898ZM270.306 33.5431H268.544V31.5747H267.813C267.513 31.5747 267.282 31.5685 267.119 31.556C266.294 31.456 265.582 31.306 264.982 31.1061C262.908 30.2813 261.87 28.7004 261.87 26.3634C261.87 26.0884 261.876 25.8822 261.889 25.7448C261.989 25.0199 262.164 24.395 262.414 23.8702C263.364 22.0706 265.163 21.1707 267.813 21.1707H268.544V19.1837H270.306V21.1707H271.037C272.149 21.1707 273.168 21.3582 274.093 21.7331C275.967 22.433 276.929 23.9764 276.979 26.3634C276.992 27.4256 276.773 28.3254 276.323 29.0628C275.886 29.7876 275.324 30.3375 274.636 30.7124C274.249 30.9499 273.805 31.1373 273.305 31.2748C272.455 31.4748 271.699 31.5747 271.037 31.5747H270.306V33.5431ZM268.056 30.1875H268.544V22.5579H268.056C266.569 22.5579 265.444 22.9141 264.682 23.6265C264.407 23.8764 264.195 24.2138 264.045 24.6387C263.845 25.1886 263.745 25.7635 263.745 26.3634V26.8883C263.782 27.4006 263.901 27.8693 264.101 28.2942C264.701 29.5564 266.019 30.1875 268.056 30.1875ZM270.306 22.5579V30.1875H270.812C273.674 30.1875 275.105 28.9128 275.105 26.3634C275.105 23.8264 273.674 22.5579 270.812 22.5579H270.306ZM101.006 40.4144H94.407V52.0557H92.6449V38.9335H102.768V52.0557H101.006V40.4144ZM105.41 49.1688C105.085 47.8316 105.098 46.5381 105.448 45.2884C105.798 44.0387 106.535 43.1451 107.66 42.6077C108.285 42.3078 109.016 42.1578 109.853 42.1578C110.69 42.1578 111.421 42.3078 112.046 42.6077C113.171 43.1326 113.915 44.0699 114.277 45.4196C114.439 46.0445 114.521 46.6756 114.521 47.3129C114.533 47.9378 114.458 48.5564 114.296 49.1688C114.146 49.7687 113.877 50.3185 113.49 50.8184C113.115 51.3183 112.634 51.712 112.046 51.9994C111.409 52.2869 110.678 52.4306 109.853 52.4306C109.028 52.4306 108.297 52.2869 107.66 51.9994C106.572 51.4745 105.823 50.531 105.41 49.1688ZM107.154 45.4009C106.991 45.9008 106.91 46.5256 106.91 47.2755C106.91 48.0128 106.991 48.6439 107.154 49.1688C107.316 49.6937 107.503 50.0873 107.716 50.3498C108.166 50.8497 108.678 51.1434 109.253 51.2308C109.653 51.2933 110.053 51.2933 110.453 51.2308C110.628 51.2183 110.871 51.1309 111.184 50.9684C111.521 50.7934 111.796 50.5747 112.009 50.3123C112.221 50.0498 112.402 49.6687 112.552 49.1688C112.715 48.6439 112.796 48.0128 112.796 47.2755C112.796 46.5256 112.715 45.9008 112.552 45.4009C112.377 44.851 112.184 44.4573 111.971 44.2199C111.771 43.9824 111.521 43.7825 111.221 43.62C110.921 43.4575 110.665 43.3576 110.453 43.3201C110.053 43.2576 109.653 43.2576 109.253 43.3201C109.078 43.3326 108.828 43.4263 108.503 43.6013C107.866 43.9137 107.416 44.5136 107.154 45.4009ZM115.588 52.0557V50.8372C116.525 51.1121 117.188 50.6685 117.575 49.5062C117.675 49.2188 117.744 48.8626 117.781 48.4377L117.856 47.2942C117.869 47.0942 117.875 46.7006 117.875 46.1132V42.5327H124.474V52.0557H122.824V43.695H119.412V46.1132C119.412 46.9005 119.393 47.5629 119.356 48.1003C119.318 48.6252 119.225 49.2 119.075 49.8249C118.862 50.7122 118.481 51.3433 117.931 51.7182C117.381 52.0932 116.6 52.2056 115.588 52.0557ZM128.815 42.5327V50.1248L133.783 42.5327H135.62V52.0557H133.97V44.4448L129.021 52.0557H127.165V42.5327H128.815ZM144.781 47.6879H140.676V46.5256H144.781C144.769 45.9632 144.688 45.4758 144.538 45.0634C144.388 44.651 144.213 44.3386 144.013 44.1261C143.813 43.9137 143.575 43.745 143.301 43.62C143.026 43.4825 142.794 43.4013 142.607 43.3763C142.432 43.3388 142.257 43.3201 142.082 43.3201C141.27 43.3201 140.614 43.5263 140.114 43.9387C139.626 44.3386 139.358 44.8635 139.308 45.5133H137.733C137.895 44.2011 138.514 43.2451 139.589 42.6452C139.864 42.4702 140.164 42.3578 140.489 42.3078C141.001 42.2078 141.476 42.1578 141.913 42.1578C144.988 42.1578 146.525 43.8949 146.525 47.3692C146.525 50.7434 145.019 52.4306 142.007 52.4306C141.27 52.4306 140.626 52.3369 140.076 52.1494C138.801 51.7495 137.995 50.6185 137.658 48.7564H139.233C139.445 50.431 140.37 51.2683 142.007 51.2683C142.607 51.2683 143.113 51.1371 143.525 50.8747C143.938 50.5997 144.225 50.2373 144.388 49.7874C144.65 49.0501 144.781 48.3502 144.781 47.6879ZM150.649 52.0557V43.695H147.35V42.5327H155.598V43.695H152.299V52.0557H150.649ZM158.508 42.5327V50.1248L163.476 42.5327H165.313V52.0557H163.663V44.4448L158.714 52.0557H156.859V42.5327H158.508ZM166.901 52.0557V50.8372C167.839 51.1121 168.501 50.6685 168.888 49.5062C168.988 49.2188 169.057 48.8626 169.095 48.4377L169.17 47.2942C169.182 47.0942 169.188 46.7006 169.188 46.1132V42.5327H175.787V52.0557H174.137V43.695H170.726V46.1132C170.726 46.9005 170.707 47.5629 170.669 48.1003C170.632 48.6252 170.538 49.2 170.388 49.8249C170.176 50.7122 169.794 51.3433 169.245 51.7182C168.695 52.0932 167.914 52.2056 166.901 52.0557ZM185.34 49.3H186.914C186.764 50.1373 186.358 50.8684 185.696 51.4933C185.034 52.1182 184.052 52.4306 182.753 52.4306C180.991 52.4306 179.697 51.8495 178.872 50.6872C178.46 50.0748 178.191 49.4187 178.066 48.7189C177.979 48.2315 177.935 47.7691 177.935 47.3317C177.935 46.4944 178.06 45.707 178.31 44.9697C178.472 44.4448 178.71 43.9887 179.022 43.6013C179.36 43.1888 179.841 42.8452 180.466 42.5702C181.091 42.2953 181.797 42.1578 182.584 42.1578C183.984 42.1578 185.04 42.5452 185.752 43.3201C186.052 43.645 186.296 44.0574 186.483 44.5573C186.758 45.2821 186.927 46.1632 186.989 47.2005C186.989 47.238 186.989 47.3192 186.989 47.4442C187.002 47.5691 187.008 47.6441 187.008 47.6691H179.678C179.678 48.6189 179.928 49.4562 180.428 50.1811C180.928 50.9059 181.684 51.2683 182.697 51.2683C183.421 51.2683 184.015 51.0871 184.477 50.7247C184.94 50.3623 185.227 49.8874 185.34 49.3ZM179.678 46.5069H185.265C185.252 45.7695 185.077 45.0884 184.74 44.4636C184.352 43.7012 183.646 43.3201 182.622 43.3201C181.459 43.3201 180.659 43.7075 180.222 44.4823C179.86 45.1072 179.678 45.782 179.678 46.5069ZM195.525 47.6129H190.819V52.0557H189.17V42.5327H190.819V46.4506H195.525V42.5327H197.174V52.0557H195.525V47.6129ZM202.072 52.0557V43.695H198.773V42.5327H207.021V43.695H203.722V52.0557H202.072ZM214.996 49.3H216.571C216.421 50.1373 216.015 50.8684 215.353 51.4933C214.69 52.1182 213.709 52.4306 212.409 52.4306C210.647 52.4306 209.354 51.8495 208.529 50.6872C208.117 50.0748 207.848 49.4187 207.723 48.7189C207.635 48.2315 207.592 47.7691 207.592 47.3317C207.592 46.4944 207.717 45.707 207.967 44.9697C208.129 44.4448 208.367 43.9887 208.679 43.6013C209.016 43.1888 209.498 42.8452 210.122 42.5702C210.747 42.2953 211.453 42.1578 212.241 42.1578C213.64 42.1578 214.696 42.5452 215.409 43.3201C215.709 43.645 215.952 44.0574 216.14 44.5573C216.415 45.2821 216.584 46.1632 216.646 47.2005C216.646 47.238 216.646 47.3192 216.646 47.4442C216.658 47.5691 216.665 47.6441 216.665 47.6691H209.335C209.335 48.6189 209.585 49.4562 210.085 50.1811C210.585 50.9059 211.341 51.2683 212.353 51.2683C213.078 51.2683 213.672 51.0871 214.134 50.7247C214.596 50.3623 214.884 49.8874 214.996 49.3ZM209.335 46.5069H214.921C214.909 45.7695 214.734 45.0884 214.396 44.4636C214.009 43.7012 213.303 43.3201 212.278 43.3201C211.116 43.3201 210.316 43.7075 209.879 44.4823C209.516 45.1072 209.335 45.782 209.335 46.5069ZM218.826 55.5237V42.5327H220.364V43.8449H220.42C221.17 42.7202 222.219 42.1578 223.569 42.1578C224.806 42.1578 225.831 42.589 226.643 43.4513C227.456 44.3261 227.862 45.6071 227.862 47.2942C227.862 49.0188 227.45 50.306 226.625 51.1559C225.812 52.0057 224.806 52.4306 223.607 52.4306C223.232 52.4306 222.776 52.3494 222.238 52.1869C221.451 51.9494 220.863 51.4495 220.476 50.6872V55.5237H218.826ZM220.364 47.3317C220.364 48.6564 220.663 49.6499 221.263 50.3123C221.888 50.9497 222.569 51.2683 223.307 51.2683C224.081 51.2683 224.744 50.9559 225.294 50.331C225.844 49.6812 226.119 48.6689 226.119 47.2942C226.119 46.0445 225.862 45.0697 225.35 44.3698C224.85 43.67 224.138 43.3201 223.213 43.3201C222.726 43.3201 222.269 43.4513 221.844 43.7137C220.857 44.3011 220.364 45.5071 220.364 47.3317ZM236.873 49.3H238.447C238.297 50.1373 237.891 50.8684 237.229 51.4933C236.567 52.1182 235.585 52.4306 234.286 52.4306C232.524 52.4306 231.23 51.8495 230.405 50.6872C229.993 50.0748 229.724 49.4187 229.599 48.7189C229.512 48.2315 229.468 47.7691 229.468 47.3317C229.468 46.4944 229.593 45.707 229.843 44.9697C230.005 44.4448 230.243 43.9887 230.555 43.6013C230.893 43.1888 231.374 42.8452 231.999 42.5702C232.624 42.2953 233.33 42.1578 234.117 42.1578C235.517 42.1578 236.573 42.5452 237.285 43.3201C237.585 43.645 237.829 44.0574 238.016 44.5573C238.291 45.2821 238.46 46.1632 238.522 47.2005C238.522 47.238 238.522 47.3192 238.522 47.4442C238.535 47.5691 238.541 47.6441 238.541 47.6691H231.211C231.211 48.6189 231.461 49.4562 231.961 50.1811C232.461 50.9059 233.217 51.2683 234.23 51.2683C234.954 51.2683 235.548 51.0871 236.01 50.7247C236.473 50.3623 236.76 49.8874 236.873 49.3ZM231.211 46.5069H236.798C236.785 45.7695 236.61 45.0884 236.273 44.4636C235.885 43.7012 235.179 43.3201 234.155 43.3201C232.992 43.3201 232.192 43.7075 231.755 44.4823C231.393 45.1072 231.211 45.782 231.211 46.5069ZM247.62 55.5237H245.97V52.2994C244.883 52.2744 243.946 52.1244 243.158 51.8495C242.384 51.562 241.784 51.1746 241.359 50.6872C240.934 50.1998 240.628 49.6749 240.44 49.1126C240.253 48.5502 240.159 47.9253 240.159 47.238C240.159 46.3257 240.353 45.4758 240.74 44.6885C241.503 43.0639 243.246 42.2703 245.97 42.3078V38.9335H247.62V42.3078C248.745 42.2828 249.738 42.4453 250.601 42.7952C251.163 43.0076 251.638 43.2888 252.025 43.6387C252.45 43.9887 252.788 44.4823 253.038 45.1197C253.3 45.7445 253.431 46.4506 253.431 47.238C253.431 48.8126 252.956 50.0374 252.007 50.9122C251.057 51.787 249.595 52.2494 247.62 52.2994V55.5237ZM245.97 51.1371V43.47C245.021 43.4075 244.139 43.6137 243.327 44.0886C242.377 44.6635 241.902 45.707 241.902 47.2192C241.902 48.4939 242.24 49.45 242.915 50.0873C243.715 50.8122 244.733 51.1621 245.97 51.1371ZM247.62 43.47V51.1371C249.232 51.1371 250.338 50.681 250.938 49.7687C251.438 49.0063 251.688 48.1565 251.688 47.2192C251.688 46.9193 251.663 46.6193 251.613 46.3194C251.563 46.007 251.444 45.6633 251.257 45.2884C251.082 44.9135 250.851 44.5948 250.563 44.3323C250.288 44.0574 249.894 43.8387 249.382 43.6762C248.882 43.5013 248.295 43.4325 247.62 43.47ZM257.303 52.0557V43.695H254.004V42.5327H262.252V43.695H258.953V52.0557H257.303ZM264.622 45.3446H263.048C263.048 44.5948 263.298 43.9074 263.797 43.2826C264.397 42.5327 265.497 42.1578 267.097 42.1578C268.034 42.1578 268.859 42.3453 269.571 42.7202C269.984 42.9201 270.309 43.2513 270.546 43.7137C270.783 44.1761 270.896 44.726 270.883 45.3634L270.79 49.7687C270.79 50.1311 270.827 50.4123 270.902 50.6122C271.015 50.8122 271.308 50.9059 271.783 50.8934V52.0557C271.596 52.1057 271.346 52.1306 271.033 52.1306C270.483 52.1306 270.084 52.0369 269.834 51.8495C269.596 51.662 269.427 51.2933 269.327 50.7434C268.715 51.8682 267.628 52.4306 266.066 52.4306C264.991 52.4306 264.16 52.1931 263.572 51.7182C262.998 51.2308 262.71 50.5122 262.71 49.5625C262.71 48.6627 263.035 47.9815 263.685 47.5191C264.335 47.0318 265.566 46.7068 267.378 46.5444C268.215 46.4819 268.715 46.4006 268.878 46.3007C269.115 46.1382 269.234 45.782 269.234 45.2321C269.234 43.9574 268.521 43.3201 267.097 43.3201C265.41 43.3201 264.585 43.9949 264.622 45.3446ZM269.196 47.9878L269.234 47.1817C269.046 47.3192 268.771 47.4317 268.409 47.5191C267.859 47.5566 267.434 47.6004 267.134 47.6504C266.097 47.8253 265.466 47.9691 265.241 48.0815C264.691 48.344 264.416 48.8189 264.416 49.5062C264.416 50.0561 264.578 50.4873 264.903 50.7997C265.241 51.1121 265.691 51.2683 266.253 51.2683C266.616 51.2683 266.947 51.2183 267.247 51.1184C267.559 51.0184 267.859 50.8559 268.146 50.631C268.446 50.3935 268.684 50.0498 268.859 49.5999C269.046 49.15 269.159 48.6127 269.196 47.9878ZM272.622 52.0557V50.8372C273.559 51.1121 274.221 50.6685 274.609 49.5062C274.709 49.2188 274.778 48.8626 274.815 48.4377L274.89 47.2942C274.903 47.0942 274.909 46.7006 274.909 46.1132V42.5327H281.507V52.0557H279.858V43.695H276.446V46.1132C276.446 46.9005 276.427 47.5629 276.39 48.1003C276.352 48.6252 276.258 49.2 276.109 49.8249C275.896 50.7122 275.515 51.3433 274.965 51.7182C274.415 52.0932 273.634 52.2056 272.622 52.0557ZM285.455 45.3446H283.88C283.88 44.5948 284.13 43.9074 284.63 43.2826C285.23 42.5327 286.33 42.1578 287.93 42.1578C288.867 42.1578 289.692 42.3453 290.404 42.7202C290.816 42.9201 291.141 43.2513 291.379 43.7137C291.616 44.1761 291.729 44.726 291.716 45.3634L291.623 49.7687C291.623 50.1311 291.66 50.4123 291.735 50.6122C291.847 50.8122 292.141 50.9059 292.616 50.8934V52.0557C292.429 52.1057 292.179 52.1306 291.866 52.1306C291.316 52.1306 290.916 52.0369 290.666 51.8495C290.429 51.662 290.26 51.2933 290.16 50.7434C289.548 51.8682 288.461 52.4306 286.899 52.4306C285.824 52.4306 284.993 52.1931 284.405 51.7182C283.83 51.2308 283.543 50.5122 283.543 49.5625C283.543 48.6627 283.868 47.9815 284.518 47.5191C285.168 47.0318 286.399 46.7068 288.211 46.5444C289.048 46.4819 289.548 46.4006 289.71 46.3007C289.948 46.1382 290.067 45.782 290.067 45.2321C290.067 43.9574 289.354 43.3201 287.93 43.3201C286.242 43.3201 285.418 43.9949 285.455 45.3446ZM290.029 47.9878L290.067 47.1817C289.879 47.3192 289.604 47.4317 289.242 47.5191C288.692 47.5566 288.267 47.6004 287.967 47.6504C286.93 47.8253 286.299 47.9691 286.074 48.0815C285.524 48.344 285.249 48.8189 285.249 49.5062C285.249 50.0561 285.411 50.4873 285.736 50.7997C286.074 51.1121 286.524 51.2683 287.086 51.2683C287.448 51.2683 287.78 51.2183 288.08 51.1184C288.392 51.0184 288.692 50.8559 288.979 50.631C289.279 50.3935 289.517 50.0498 289.692 49.5999C289.879 49.15 289.992 48.6127 290.029 47.9878ZM296.168 52.0557V43.695H292.869V42.5327H301.117V43.695H297.818V52.0557H296.168Z" fill="black"/>
<path d="M47.2059 110.531H44.2065V109.613H44.6002C45.425 109.613 46.1248 109.4 46.6997 108.975C47.2871 108.538 47.6308 107.969 47.7307 107.269H48.968V120.392H47.2059V110.531Z" fill="black"/>
<path d="M22.168 129.83C21.7744 129.15 21.5695 128.376 21.5746 127.589C21.5797 126.803 21.7945 126.032 22.1968 125.357L29.2629 113.324L30.8621 120.393L35.1958 119.407L31.8791 104.746L17.2597 108.072L18.2429 112.418L25.6237 110.739L18.3674 123.096C17.5725 124.449 17.1485 125.99 17.1384 127.561C17.1283 129.132 17.5324 130.678 18.3099 132.042C19.0873 133.406 20.2105 134.539 21.5655 135.328C22.9206 136.116 24.4594 136.531 26.026 136.531H37.4737L41.9175 132.075H26.026C25.2417 132.08 24.4704 131.874 23.7921 131.479C23.1137 131.085 22.553 130.515 22.168 129.83ZM52.0321 87.5905L59.4959 100.301L52.684 99.2352L51.9988 103.638L66.8108 105.956L69.1216 91.1018L64.7309 90.4148L63.4987 98.3348L55.8615 85.3291C55.0764 83.9921 53.9569 82.8837 52.6137 82.1136C51.2704 81.3435 49.75 80.9385 48.2028 80.9385C46.6556 80.9385 45.1351 81.3435 43.7919 82.1136C42.4487 82.8837 41.3292 83.9921 40.5441 85.3291L34.9978 94.7741L36.443 101.095L44.3733 87.5905C44.7658 86.9221 45.3256 86.3679 45.9972 85.9829C46.6688 85.5979 47.4289 85.3954 48.2025 85.3954C48.9761 85.3954 49.7362 85.5979 50.4078 85.9829C51.0794 86.3679 51.6396 86.9221 52.0321 87.5905ZM78.0384 123.096L71.3911 111.776L65.6769 110.827L74.2092 125.357C74.6067 126.034 74.8187 126.804 74.8237 127.59C74.8288 128.375 74.6267 129.148 74.2379 129.83C73.8492 130.512 73.2876 131.079 72.61 131.473C71.9325 131.867 71.163 132.075 70.3797 132.075H54.9021L60.229 126.733L57.0868 123.582L46.4866 134.212L57.0868 144.843L60.229 141.692L55.0836 136.532H70.3797C71.9463 136.532 73.4851 136.116 74.8402 135.328C76.1952 134.54 77.3184 133.406 78.0958 132.042C78.8733 130.678 79.2774 129.132 79.2673 127.561C79.2572 125.99 78.8333 124.449 78.0384 123.096Z" fill="black"/>
</svg>
