<svg width="595" height="595" viewBox="0 0 595 595" fill="none" xmlns="http://www.w3.org/2000/svg">
<rect width="595" height="595" fill="#FFFF00"/>
<path d="M46.6 321.5V337.025H49.125L48.9 342.95H46.85V339H33.25V342.95H31.2L31 337.025H32.575C34.7917 334.258 35.9 330.283 35.9 325.1V321.5H46.6ZM44.25 337.025V323.475H38.25V325.65C38.25 328.133 38.0417 330.242 37.625 331.975C37.1917 333.775 36.4417 335.458 35.375 337.025H44.25ZM52.932 330.05H50.832C50.832 329.05 51.1654 328.133 51.832 327.3C52.632 326.3 54.0987 325.8 56.232 325.8C57.482 325.8 58.582 326.05 59.532 326.55C60.082 326.817 60.5154 327.258 60.832 327.875C61.1487 328.492 61.2987 329.225 61.282 330.075L61.157 335.95C61.157 336.433 61.207 336.808 61.307 337.075C61.457 337.342 61.8487 337.467 62.482 337.45V339C62.232 339.067 61.8987 339.1 61.482 339.1C60.7487 339.1 60.2154 338.975 59.882 338.725C59.5654 338.475 59.3404 337.983 59.207 337.25C58.3904 338.75 56.9404 339.5 54.857 339.5C53.4237 339.5 52.3154 339.183 51.532 338.55C50.7654 337.9 50.382 336.942 50.382 335.675C50.382 334.475 50.8154 333.567 51.682 332.95C52.5487 332.3 54.1904 331.867 56.607 331.65C57.7237 331.567 58.3904 331.458 58.607 331.325C58.9237 331.108 59.082 330.633 59.082 329.9C59.082 328.2 58.132 327.35 56.232 327.35C53.982 327.35 52.882 328.25 52.932 330.05ZM59.032 333.575L59.082 332.5C58.832 332.683 58.4654 332.833 57.982 332.95C57.2487 333 56.682 333.058 56.282 333.125C54.8987 333.358 54.057 333.55 53.757 333.7C53.0237 334.05 52.657 334.683 52.657 335.6C52.657 336.333 52.8737 336.908 53.307 337.325C53.757 337.742 54.357 337.95 55.107 337.95C55.5904 337.95 56.032 337.883 56.432 337.75C56.8487 337.617 57.2487 337.4 57.632 337.1C58.032 336.783 58.3487 336.325 58.582 335.725C58.832 335.125 58.982 334.408 59.032 333.575ZM73.5504 333.075H67.2754V339H65.0754V326.3H67.2754V331.525H73.5504V326.3H75.7504V339H73.5504V333.075ZM87.8326 333.075H81.5576V339H79.3576V326.3H81.5576V331.525H87.8326V326.3H90.0326V339H87.8326V333.075ZM93.6398 339V326.3H95.8398V331.325H99.0398C100.057 331.325 100.907 331.425 101.59 331.625C103.223 332.042 104.073 333.233 104.14 335.2C104.14 336.367 103.782 337.292 103.065 337.975C102.365 338.658 101.273 339 99.7898 339H93.6398ZM98.5148 332.875H95.8398V337.45H98.9148C100.882 337.45 101.865 336.65 101.865 335.05C101.865 334.267 101.607 333.7 101.09 333.35C100.923 333.217 100.648 333.108 100.265 333.025C99.8648 332.925 99.2815 332.875 98.5148 332.875ZM105.69 339V326.3H107.89V339H105.69ZM113.687 326.3V336.425L120.312 326.3H122.762V339H120.562V328.85L113.962 339H111.487V326.3H113.687ZM119.487 321.5H121.362C121.012 323.333 119.912 324.408 118.062 324.725C117.745 324.775 117.412 324.8 117.062 324.8C114.912 324.8 113.537 323.925 112.937 322.175C112.887 322.058 112.828 321.833 112.762 321.5H114.637C114.587 321.933 114.737 322.342 115.087 322.725C115.337 322.992 115.628 323.192 115.962 323.325C116.262 323.425 116.628 323.475 117.062 323.475C117.778 323.475 118.37 323.3 118.837 322.95C119.303 322.583 119.52 322.1 119.487 321.5ZM132.19 339V326.3H138.24C140.923 326.3 142.265 327.308 142.265 329.325C142.265 330.775 141.498 331.767 139.965 332.3V332.375C140.998 332.625 141.715 333.025 142.115 333.575C142.531 334.125 142.74 334.833 142.74 335.7C142.74 337.083 142.231 338 141.215 338.45C140.381 338.817 139.365 339 138.165 339H132.19ZM137.54 327.85H134.39V331.6H137.44C138.323 331.6 138.973 331.425 139.39 331.075C139.823 330.708 140.04 330.233 140.04 329.65C140.04 328.45 139.206 327.85 137.54 327.85ZM137.54 333.15H134.39V337.45H137.615C139.515 337.45 140.465 336.8 140.465 335.5C140.465 333.933 139.49 333.15 137.54 333.15ZM147.866 326.3V336.425L154.491 326.3H156.941V339H154.741V328.85L148.141 339H145.666V326.3H147.866ZM158.934 342.3L158.734 337.45H160.334C161.718 335.417 162.409 332.408 162.409 328.425V326.3H171.509V337.45H173.709L173.534 342.3H171.684V339H160.784V342.3H158.934ZM169.309 337.45V327.85H164.459V329.625C164.459 330.975 164.309 332.375 164.009 333.825C163.743 335.258 163.293 336.467 162.659 337.45H169.309ZM190.058 327.85H183.633V339H181.433V326.3H192.258V339H190.058V327.85ZM194.387 339V337.375C195.637 337.742 196.52 337.15 197.037 335.6C197.17 335.217 197.262 334.742 197.312 334.175L197.412 332.65C197.428 332.383 197.437 331.858 197.437 331.075V326.3H206.237V339H204.037V327.85H199.487V331.075C199.487 332.125 199.462 333.008 199.412 333.725C199.362 334.425 199.237 335.192 199.037 336.025C198.753 337.208 198.245 338.05 197.512 338.55C196.778 339.05 195.737 339.2 194.387 339ZM211.501 330.05H209.401C209.401 329.05 209.735 328.133 210.401 327.3C211.201 326.3 212.668 325.8 214.801 325.8C216.051 325.8 217.151 326.05 218.101 326.55C218.651 326.817 219.085 327.258 219.401 327.875C219.718 328.492 219.868 329.225 219.851 330.075L219.726 335.95C219.726 336.433 219.776 336.808 219.876 337.075C220.026 337.342 220.418 337.467 221.051 337.45V339C220.801 339.067 220.468 339.1 220.051 339.1C219.318 339.1 218.785 338.975 218.451 338.725C218.135 338.475 217.91 337.983 217.776 337.25C216.96 338.75 215.51 339.5 213.426 339.5C211.993 339.5 210.885 339.183 210.101 338.55C209.335 337.9 208.951 336.942 208.951 335.675C208.951 334.475 209.385 333.567 210.251 332.95C211.118 332.3 212.76 331.867 215.176 331.65C216.293 331.567 216.96 331.458 217.176 331.325C217.493 331.108 217.651 330.633 217.651 329.9C217.651 328.2 216.701 327.35 214.801 327.35C212.551 327.35 211.451 328.25 211.501 330.05ZM217.601 333.575L217.651 332.5C217.401 332.683 217.035 332.833 216.551 332.95C215.818 333 215.251 333.058 214.851 333.125C213.468 333.358 212.626 333.55 212.326 333.7C211.593 334.05 211.226 334.683 211.226 335.6C211.226 336.333 211.443 336.908 211.876 337.325C212.326 337.742 212.926 337.95 213.676 337.95C214.16 337.95 214.601 337.883 215.001 337.75C215.418 337.617 215.818 337.4 216.201 337.1C216.601 336.783 216.918 336.325 217.151 335.725C217.401 335.125 217.551 334.408 217.601 333.575ZM232.545 334.475H234.645C234.578 335.442 234.211 336.458 233.545 337.525C233.178 338.125 232.603 338.608 231.82 338.975C231.053 339.325 230.153 339.5 229.12 339.5C228.77 339.5 228.52 339.492 228.37 339.475C227.636 339.442 226.886 339.25 226.12 338.9C223.986 337.833 222.92 335.717 222.92 332.55C222.92 330.883 223.303 329.4 224.07 328.1C225.02 326.567 226.653 325.8 228.97 325.8C230.603 325.8 231.903 326.217 232.87 327.05C233.836 327.867 234.395 328.942 234.545 330.275H232.445C232.111 328.325 230.97 327.35 229.02 327.35C227.753 327.35 226.803 327.817 226.17 328.75C225.553 329.667 225.245 330.933 225.245 332.55C225.245 334.117 225.57 335.408 226.22 336.425C226.87 337.442 227.853 337.95 229.17 337.95C230.303 337.95 231.128 337.592 231.645 336.875C232.195 336.158 232.495 335.358 232.545 334.475ZM239.827 339V327.85H235.427V326.3H246.427V327.85H242.027V339H239.827ZM250.308 326.3V336.425L256.933 326.3H259.383V339H257.183V328.85L250.583 339H248.108V326.3H250.308ZM265.176 326.3V331.85L270.601 326.3H273.176L267.226 332.2L273.501 339H270.876L265.176 332.65V339H262.976V326.3H265.176ZM276.882 330.05H274.782C274.782 329.05 275.116 328.133 275.782 327.3C276.582 326.3 278.049 325.8 280.182 325.8C281.432 325.8 282.532 326.05 283.482 326.55C284.032 326.817 284.466 327.258 284.782 327.875C285.099 328.492 285.249 329.225 285.232 330.075L285.107 335.95C285.107 336.433 285.157 336.808 285.257 337.075C285.407 337.342 285.799 337.467 286.432 337.45V339C286.182 339.067 285.849 339.1 285.432 339.1C284.699 339.1 284.166 338.975 283.832 338.725C283.516 338.475 283.291 337.983 283.157 337.25C282.341 338.75 280.891 339.5 278.807 339.5C277.374 339.5 276.266 339.183 275.482 338.55C274.716 337.9 274.332 336.942 274.332 335.675C274.332 334.475 274.766 333.567 275.632 332.95C276.499 332.3 278.141 331.867 280.557 331.65C281.674 331.567 282.341 331.458 282.557 331.325C282.874 331.108 283.032 330.633 283.032 329.9C283.032 328.2 282.082 327.35 280.182 327.35C277.932 327.35 276.832 328.25 276.882 330.05ZM282.982 333.575L283.032 332.5C282.782 332.683 282.416 332.833 281.932 332.95C281.199 333 280.632 333.058 280.232 333.125C278.849 333.358 278.007 333.55 277.707 333.7C276.974 334.05 276.607 334.683 276.607 335.6C276.607 336.333 276.824 336.908 277.257 337.325C277.707 337.742 278.307 337.95 279.057 337.95C279.541 337.95 279.982 337.883 280.382 337.75C280.799 337.617 281.199 337.4 281.582 337.1C281.982 336.783 282.299 336.325 282.532 335.725C282.782 335.125 282.932 334.408 282.982 333.575ZM297.061 326.3V336.425L303.686 326.3H306.136V339H303.936V328.85L297.336 339H294.861V326.3H297.061ZM318.629 334.475H320.729C320.662 335.442 320.295 336.458 319.629 337.525C319.262 338.125 318.687 338.608 317.904 338.975C317.137 339.325 316.237 339.5 315.204 339.5C314.854 339.5 314.604 339.492 314.454 339.475C313.72 339.442 312.97 339.25 312.204 338.9C310.07 337.833 309.004 335.717 309.004 332.55C309.004 330.883 309.387 329.4 310.154 328.1C311.104 326.567 312.737 325.8 315.054 325.8C316.687 325.8 317.987 326.217 318.954 327.05C319.92 327.867 320.479 328.942 320.629 330.275H318.529C318.195 328.325 317.054 327.35 315.104 327.35C313.837 327.35 312.887 327.817 312.254 328.75C311.637 329.667 311.329 330.933 311.329 332.55C311.329 334.117 311.654 335.408 312.304 336.425C312.954 337.442 313.937 337.95 315.254 337.95C316.387 337.95 317.212 337.592 317.729 336.875C318.279 336.158 318.579 335.358 318.629 334.475ZM332.05 327.85H325.625V339H323.425V326.3H334.25V339H332.05V327.85ZM337.454 335.15C337.02 333.367 337.037 331.642 337.504 329.975C337.97 328.308 338.954 327.117 340.454 326.4C341.287 326 342.262 325.8 343.379 325.8C344.495 325.8 345.47 326 346.304 326.4C347.804 327.1 348.795 328.35 349.279 330.15C349.495 330.983 349.604 331.825 349.604 332.675C349.62 333.508 349.52 334.333 349.304 335.15C349.104 335.95 348.745 336.683 348.229 337.35C347.729 338.017 347.087 338.542 346.304 338.925C345.454 339.308 344.479 339.5 343.379 339.5C342.279 339.5 341.304 339.308 340.454 338.925C339.004 338.225 338.004 336.967 337.454 335.15ZM339.779 330.125C339.562 330.792 339.454 331.625 339.454 332.625C339.454 333.608 339.562 334.45 339.779 335.15C339.995 335.85 340.245 336.375 340.529 336.725C341.129 337.392 341.812 337.783 342.579 337.9C343.112 337.983 343.645 337.983 344.179 337.9C344.412 337.883 344.737 337.767 345.154 337.55C345.604 337.317 345.97 337.025 346.254 336.675C346.537 336.325 346.779 335.817 346.979 335.15C347.195 334.45 347.304 333.608 347.304 332.625C347.304 331.625 347.195 330.792 346.979 330.125C346.745 329.392 346.487 328.867 346.204 328.55C345.937 328.233 345.604 327.967 345.204 327.75C344.804 327.533 344.462 327.4 344.179 327.35C343.645 327.267 343.112 327.267 342.579 327.35C342.345 327.367 342.012 327.492 341.579 327.725C340.729 328.142 340.129 328.942 339.779 330.125ZM351.027 339V337.375C352.277 337.742 353.16 337.15 353.677 335.6C353.81 335.217 353.902 334.742 353.952 334.175L354.052 332.65C354.069 332.383 354.077 331.858 354.077 331.075V326.3H362.877V339H360.677V327.85H356.127V331.075C356.127 332.125 356.102 333.008 356.052 333.725C356.002 334.425 355.877 335.192 355.677 336.025C355.394 337.208 354.885 338.05 354.152 338.55C353.419 339.05 352.377 339.2 351.027 339ZM366.467 339V326.3H368.667V331.35H371.842C373.092 331.35 374.167 331.533 375.067 331.9C376.317 332.35 376.942 333.4 376.942 335.05C376.942 336.417 376.542 337.433 375.742 338.1C375.409 338.367 375.017 338.567 374.567 338.7C373.967 338.9 373.309 339 372.592 339H366.467ZM371.342 332.9H368.667V337.45H371.717C372.75 337.45 373.509 337.242 373.992 336.825C374.475 336.342 374.7 335.75 374.667 335.05C374.667 334.283 374.417 333.717 373.917 333.35C373.75 333.233 373.484 333.133 373.117 333.05C372.717 332.95 372.192 332.9 371.542 332.9H371.342ZM378.162 335.1H380.262C380.262 335.933 380.562 336.617 381.162 337.15C381.762 337.683 382.587 337.95 383.637 337.95C384.671 337.95 385.479 337.742 386.062 337.325C386.646 336.892 386.937 336.267 386.937 335.45C386.937 333.933 385.979 333.175 384.062 333.175H382.187V331.625H383.812C385.579 331.625 386.462 330.967 386.462 329.65C386.462 329.433 386.429 329.217 386.362 329C386.312 328.783 386.196 328.542 386.012 328.275C385.846 327.992 385.554 327.767 385.137 327.6C384.721 327.433 384.204 327.35 383.587 327.35C382.487 327.35 381.712 327.608 381.262 328.125C380.812 328.642 380.587 329.2 380.587 329.8H378.487C378.537 328.933 378.762 328.208 379.162 327.625C379.562 327.042 380.079 326.625 380.712 326.375C381.746 325.992 382.746 325.8 383.712 325.8C384.562 325.8 385.312 325.9 385.962 326.1C386.612 326.283 387.104 326.508 387.437 326.775C387.787 327.042 388.062 327.358 388.262 327.725C388.479 328.092 388.612 328.417 388.662 328.7C388.712 328.967 388.737 329.233 388.737 329.5C388.737 330.983 388.004 331.908 386.537 332.275V332.35C387.321 332.467 387.962 332.808 388.462 333.375C388.962 333.942 389.212 334.683 389.212 335.6C389.212 336.533 388.879 337.383 388.212 338.15C387.396 339.05 385.929 339.5 383.812 339.5C382.029 339.5 380.671 339.125 379.737 338.375C378.687 337.458 378.162 336.367 378.162 335.1ZM392.235 343.6V341.975C392.868 342.058 393.235 342.1 393.335 342.1C393.968 342.1 394.418 341.867 394.685 341.4C394.852 341.15 394.96 340.942 395.01 340.775C395.06 340.692 395.168 340.417 395.335 339.95L395.635 339L390.135 326.3H392.76L396.835 336.575L400.21 326.3H402.41L397.36 340.5C396.96 341.633 396.618 342.375 396.335 342.725C395.768 343.392 395.002 343.725 394.035 343.725C393.285 343.725 392.685 343.683 392.235 343.6ZM413.361 335.325H415.461C415.261 336.442 414.719 337.417 413.836 338.25C412.953 339.083 411.644 339.5 409.911 339.5C407.561 339.5 405.836 338.725 404.736 337.175C404.186 336.358 403.828 335.483 403.661 334.55C403.544 333.9 403.486 333.283 403.486 332.7C403.486 331.583 403.653 330.533 403.986 329.55C404.203 328.85 404.519 328.242 404.936 327.725C405.386 327.175 406.028 326.717 406.861 326.35C407.694 325.983 408.636 325.8 409.686 325.8C411.553 325.8 412.961 326.317 413.911 327.35C414.311 327.783 414.636 328.333 414.886 329C415.253 329.967 415.478 331.142 415.561 332.525C415.561 332.575 415.561 332.683 415.561 332.85C415.578 333.017 415.586 333.117 415.586 333.15H405.811C405.811 334.417 406.144 335.533 406.811 336.5C407.478 337.467 408.486 337.95 409.836 337.95C410.803 337.95 411.594 337.708 412.211 337.225C412.828 336.742 413.211 336.108 413.361 335.325ZM405.811 331.6H413.261C413.244 330.617 413.011 329.708 412.561 328.875C412.044 327.858 411.103 327.35 409.736 327.35C408.186 327.35 407.119 327.867 406.536 328.9C406.053 329.733 405.811 330.633 405.811 331.6ZM421.394 339V327.85H416.994V326.3H427.994V327.85H423.594V339H421.394ZM438.38 334.475H440.48C440.413 335.442 440.046 336.458 439.38 337.525C439.013 338.125 438.438 338.608 437.655 338.975C436.888 339.325 435.988 339.5 434.955 339.5C434.605 339.5 434.355 339.492 434.205 339.475C433.471 339.442 432.721 339.25 431.955 338.9C429.821 337.833 428.755 335.717 428.755 332.55C428.755 330.883 429.138 329.4 429.905 328.1C430.855 326.567 432.488 325.8 434.805 325.8C436.438 325.8 437.738 326.217 438.705 327.05C439.671 327.867 440.23 328.942 440.38 330.275H438.28C437.946 328.325 436.805 327.35 434.855 327.35C433.588 327.35 432.638 327.817 432.005 328.75C431.388 329.667 431.08 330.933 431.08 332.55C431.08 334.117 431.405 335.408 432.055 336.425C432.705 337.442 433.688 337.95 435.005 337.95C436.138 337.95 436.963 337.592 437.48 336.875C438.03 336.158 438.33 335.358 438.38 334.475ZM450.951 334H448.051L444.726 339H442.301L445.801 333.975C444.834 333.875 444.051 333.5 443.451 332.85C442.851 332.2 442.551 331.35 442.551 330.3C442.551 329.317 442.809 328.458 443.326 327.725C443.943 326.775 445.109 326.3 446.826 326.3H453.151V339H450.951V334ZM450.951 332.45V327.85H447.776C445.809 327.85 444.826 328.642 444.826 330.225C444.826 330.875 445.068 331.408 445.551 331.825C446.034 332.242 446.801 332.45 447.851 332.45H450.951ZM31.2 370.3L31 365.45H32.6C33.9833 363.417 34.675 360.408 34.675 356.425V354.3H43.775V365.45H45.975L45.8 370.3H43.95V367H33.05V370.3H31.2ZM41.575 365.45V355.85H36.725V357.625C36.725 358.975 36.575 360.375 36.275 361.825C36.0083 363.258 35.5583 364.467 34.925 365.45H41.575ZM47.0232 367V365.375C48.2732 365.742 49.1566 365.15 49.6732 363.6C49.8066 363.217 49.8982 362.742 49.9482 362.175L50.0482 360.65C50.0649 360.383 50.0732 359.858 50.0732 359.075V354.3H58.8732V367H56.6732V355.85H52.1232V359.075C52.1232 360.125 52.0982 361.008 52.0482 361.725C51.9982 362.425 51.8732 363.192 51.6732 364.025C51.3899 365.208 50.8816 366.05 50.1482 366.55C49.4149 367.05 48.3732 367.2 47.0232 367ZM70.2381 362H67.3381L64.0131 367H61.5881L65.0881 361.975C64.1214 361.875 63.3381 361.5 62.7381 360.85C62.1381 360.2 61.8381 359.35 61.8381 358.3C61.8381 357.317 62.0964 356.458 62.6131 355.725C63.2298 354.775 64.3964 354.3 66.1131 354.3H72.4381V367H70.2381V362ZM70.2381 360.45V355.85H67.0631C65.0964 355.85 64.1131 356.642 64.1131 358.225C64.1131 358.875 64.3548 359.408 64.8381 359.825C65.3214 360.242 66.0881 360.45 67.1381 360.45H70.2381ZM84.0723 354.3V364.425L90.6973 354.3H93.1473V367H90.9473V356.85L84.3473 367H81.8723V354.3H84.0723ZM95.7404 363.1H97.8404C97.8404 363.933 98.1404 364.617 98.7404 365.15C99.3404 365.683 100.165 365.95 101.215 365.95C102.249 365.95 103.057 365.742 103.64 365.325C104.224 364.892 104.515 364.267 104.515 363.45C104.515 361.933 103.557 361.175 101.64 361.175H99.7654V359.625H101.39C103.157 359.625 104.04 358.967 104.04 357.65C104.04 357.433 104.007 357.217 103.94 357C103.89 356.783 103.774 356.542 103.59 356.275C103.424 355.992 103.132 355.767 102.715 355.6C102.299 355.433 101.782 355.35 101.165 355.35C100.065 355.35 99.2904 355.608 98.8404 356.125C98.3904 356.642 98.1654 357.2 98.1654 357.8H96.0654C96.1154 356.933 96.3404 356.208 96.7404 355.625C97.1404 355.042 97.6571 354.625 98.2904 354.375C99.3238 353.992 100.324 353.8 101.29 353.8C102.14 353.8 102.89 353.9 103.54 354.1C104.19 354.283 104.682 354.508 105.015 354.775C105.365 355.042 105.64 355.358 105.84 355.725C106.057 356.092 106.19 356.417 106.24 356.7C106.29 356.967 106.315 357.233 106.315 357.5C106.315 358.983 105.582 359.908 104.115 360.275V360.35C104.899 360.467 105.54 360.808 106.04 361.375C106.54 361.942 106.79 362.683 106.79 363.6C106.79 364.533 106.457 365.383 105.79 366.15C104.974 367.05 103.507 367.5 101.39 367.5C99.6071 367.5 98.2488 367.125 97.3154 366.375C96.2654 365.458 95.7404 364.367 95.7404 363.1ZM118.355 355.85H111.855V367H109.655V354.3H118.355V355.85ZM119.436 363.15C119.003 361.367 119.019 359.642 119.486 357.975C119.953 356.308 120.936 355.117 122.436 354.4C123.269 354 124.244 353.8 125.361 353.8C126.478 353.8 127.453 354 128.286 354.4C129.786 355.1 130.778 356.35 131.261 358.15C131.478 358.983 131.586 359.825 131.586 360.675C131.603 361.508 131.503 362.333 131.286 363.15C131.086 363.95 130.728 364.683 130.211 365.35C129.711 366.017 129.069 366.542 128.286 366.925C127.436 367.308 126.461 367.5 125.361 367.5C124.261 367.5 123.286 367.308 122.436 366.925C120.986 366.225 119.986 364.967 119.436 363.15ZM121.761 358.125C121.544 358.792 121.436 359.625 121.436 360.625C121.436 361.608 121.544 362.45 121.761 363.15C121.978 363.85 122.228 364.375 122.511 364.725C123.111 365.392 123.794 365.783 124.561 365.9C125.094 365.983 125.628 365.983 126.161 365.9C126.394 365.883 126.719 365.767 127.136 365.55C127.586 365.317 127.953 365.025 128.236 364.675C128.519 364.325 128.761 363.817 128.961 363.15C129.178 362.45 129.286 361.608 129.286 360.625C129.286 359.625 129.178 358.792 128.961 358.125C128.728 357.392 128.469 356.867 128.186 356.55C127.919 356.233 127.586 355.967 127.186 355.75C126.786 355.533 126.444 355.4 126.161 355.35C125.628 355.267 125.094 355.267 124.561 355.35C124.328 355.367 123.994 355.492 123.561 355.725C122.711 356.142 122.111 356.942 121.761 358.125ZM136.628 367V355.85H132.228V354.3H143.228V355.85H138.828V367H136.628ZM144.485 363.15C144.052 361.367 144.068 359.642 144.535 357.975C145.002 356.308 145.985 355.117 147.485 354.4C148.318 354 149.293 353.8 150.41 353.8C151.527 353.8 152.502 354 153.335 354.4C154.835 355.1 155.827 356.35 156.31 358.15C156.527 358.983 156.635 359.825 156.635 360.675C156.652 361.508 156.552 362.333 156.335 363.15C156.135 363.95 155.777 364.683 155.26 365.35C154.76 366.017 154.118 366.542 153.335 366.925C152.485 367.308 151.51 367.5 150.41 367.5C149.31 367.5 148.335 367.308 147.485 366.925C146.035 366.225 145.035 364.967 144.485 363.15ZM146.81 358.125C146.593 358.792 146.485 359.625 146.485 360.625C146.485 361.608 146.593 362.45 146.81 363.15C147.027 363.85 147.277 364.375 147.56 364.725C148.16 365.392 148.843 365.783 149.61 365.9C150.143 365.983 150.677 365.983 151.21 365.9C151.443 365.883 151.768 365.767 152.185 365.55C152.635 365.317 153.002 365.025 153.285 364.675C153.568 364.325 153.81 363.817 154.01 363.15C154.227 362.45 154.335 361.608 154.335 360.625C154.335 359.625 154.227 358.792 154.01 358.125C153.777 357.392 153.518 356.867 153.235 356.55C152.968 356.233 152.635 355.967 152.235 355.75C151.835 355.533 151.493 355.4 151.21 355.35C150.677 355.267 150.143 355.267 149.61 355.35C149.377 355.367 149.043 355.492 148.61 355.725C147.76 356.142 147.16 356.942 146.81 358.125ZM159.533 367V354.3H165.583C168.267 354.3 169.608 355.308 169.608 357.325C169.608 358.775 168.842 359.767 167.308 360.3V360.375C168.342 360.625 169.058 361.025 169.458 361.575C169.875 362.125 170.083 362.833 170.083 363.7C170.083 365.083 169.575 366 168.558 366.45C167.725 366.817 166.708 367 165.508 367H159.533ZM164.883 355.85H161.733V359.6H164.783C165.667 359.6 166.317 359.425 166.733 359.075C167.167 358.708 167.383 358.233 167.383 357.65C167.383 356.45 166.55 355.85 164.883 355.85ZM164.883 361.15H161.733V365.45H164.958C166.858 365.45 167.808 364.8 167.808 363.5C167.808 361.933 166.833 361.15 164.883 361.15ZM171.535 367V365.375C172.785 365.742 173.668 365.15 174.185 363.6C174.318 363.217 174.41 362.742 174.46 362.175L174.56 360.65C174.577 360.383 174.585 359.858 174.585 359.075V354.3H183.385V367H181.185V355.85H176.635V359.075C176.635 360.125 176.61 361.008 176.56 361.725C176.51 362.425 176.385 363.192 176.185 364.025C175.902 365.208 175.393 366.05 174.66 366.55C173.927 367.05 172.885 367.2 171.535 367ZM196.125 363.325H198.225C198.025 364.442 197.483 365.417 196.6 366.25C195.716 367.083 194.408 367.5 192.675 367.5C190.325 367.5 188.6 366.725 187.5 365.175C186.95 364.358 186.591 363.483 186.425 362.55C186.308 361.9 186.25 361.283 186.25 360.7C186.25 359.583 186.416 358.533 186.75 357.55C186.966 356.85 187.283 356.242 187.7 355.725C188.15 355.175 188.791 354.717 189.625 354.35C190.458 353.983 191.4 353.8 192.45 353.8C194.316 353.8 195.725 354.317 196.675 355.35C197.075 355.783 197.4 356.333 197.65 357C198.016 357.967 198.241 359.142 198.325 360.525C198.325 360.575 198.325 360.683 198.325 360.85C198.341 361.017 198.35 361.117 198.35 361.15H188.575C188.575 362.417 188.908 363.533 189.575 364.5C190.241 365.467 191.25 365.95 192.6 365.95C193.566 365.95 194.358 365.708 194.975 365.225C195.591 364.742 195.975 364.108 196.125 363.325ZM188.575 359.6H196.025C196.008 358.617 195.775 357.708 195.325 356.875C194.808 355.858 193.866 355.35 192.5 355.35C190.95 355.35 189.883 355.867 189.3 356.9C188.816 357.733 188.575 358.633 188.575 359.6ZM209.708 361.075H203.433V367H201.233V354.3H203.433V359.525H209.708V354.3H211.908V367H209.708V361.075ZM217.715 354.3V364.425L224.34 354.3H226.79V367H224.59V356.85L217.99 367H215.515V354.3H217.715ZM238.158 362H235.258L231.933 367H229.508L233.008 361.975C232.041 361.875 231.258 361.5 230.658 360.85C230.058 360.2 229.758 359.35 229.758 358.3C229.758 357.317 230.016 356.458 230.533 355.725C231.15 354.775 232.316 354.3 234.033 354.3H240.358V367H238.158V362ZM238.158 360.45V355.85H234.983C233.016 355.85 232.033 356.642 232.033 358.225C232.033 358.875 232.275 359.408 232.758 359.825C233.241 360.242 234.008 360.45 235.058 360.45H238.158ZM258.417 355.85H251.992V367H249.792V354.3H260.617V367H258.417V355.85ZM262.746 367V365.375C263.996 365.742 264.879 365.15 265.396 363.6C265.529 363.217 265.621 362.742 265.671 362.175L265.771 360.65C265.788 360.383 265.796 359.858 265.796 359.075V354.3H274.596V367H272.396V355.85H267.846V359.075C267.846 360.125 267.821 361.008 267.771 361.725C267.721 362.425 267.596 363.192 267.396 364.025C267.113 365.208 266.604 366.05 265.871 366.55C265.138 367.05 264.096 367.2 262.746 367ZM279.861 358.05H277.761C277.761 357.05 278.094 356.133 278.761 355.3C279.561 354.3 281.027 353.8 283.161 353.8C284.411 353.8 285.511 354.05 286.461 354.55C287.011 354.817 287.444 355.258 287.761 355.875C288.077 356.492 288.227 357.225 288.211 358.075L288.086 363.95C288.086 364.433 288.136 364.808 288.236 365.075C288.386 365.342 288.777 365.467 289.411 365.45V367C289.161 367.067 288.827 367.1 288.411 367.1C287.677 367.1 287.144 366.975 286.811 366.725C286.494 366.475 286.269 365.983 286.136 365.25C285.319 366.75 283.869 367.5 281.786 367.5C280.352 367.5 279.244 367.183 278.461 366.55C277.694 365.9 277.311 364.942 277.311 363.675C277.311 362.475 277.744 361.567 278.611 360.95C279.477 360.3 281.119 359.867 283.536 359.65C284.652 359.567 285.319 359.458 285.536 359.325C285.852 359.108 286.011 358.633 286.011 357.9C286.011 356.2 285.061 355.35 283.161 355.35C280.911 355.35 279.811 356.25 279.861 358.05ZM285.961 361.575L286.011 360.5C285.761 360.683 285.394 360.833 284.911 360.95C284.177 361 283.611 361.058 283.211 361.125C281.827 361.358 280.986 361.55 280.686 361.7C279.952 362.05 279.586 362.683 279.586 363.6C279.586 364.333 279.802 364.908 280.236 365.325C280.686 365.742 281.286 365.95 282.036 365.95C282.519 365.95 282.961 365.883 283.361 365.75C283.777 365.617 284.177 365.4 284.561 365.1C284.961 364.783 285.277 364.325 285.511 363.725C285.761 363.125 285.911 362.408 285.961 361.575ZM300.904 362.475H303.004C302.937 363.442 302.571 364.458 301.904 365.525C301.537 366.125 300.962 366.608 300.179 366.975C299.412 367.325 298.512 367.5 297.479 367.5C297.129 367.5 296.879 367.492 296.729 367.475C295.996 367.442 295.246 367.25 294.479 366.9C292.346 365.833 291.279 363.717 291.279 360.55C291.279 358.883 291.662 357.4 292.429 356.1C293.379 354.567 295.012 353.8 297.329 353.8C298.962 353.8 300.262 354.217 301.229 355.05C302.196 355.867 302.754 356.942 302.904 358.275H300.804C300.471 356.325 299.329 355.35 297.379 355.35C296.112 355.35 295.162 355.817 294.529 356.75C293.912 357.667 293.604 358.933 293.604 360.55C293.604 362.117 293.929 363.408 294.579 364.425C295.229 365.442 296.212 365.95 297.529 365.95C298.662 365.95 299.487 365.592 300.004 364.875C300.554 364.158 300.854 363.358 300.904 362.475ZM308.186 367V355.85H303.786V354.3H314.786V355.85H310.386V367H308.186ZM318.667 354.3V364.425L325.292 354.3H327.742V367H325.542V356.85L318.942 367H316.467V354.3H318.667ZM333.535 354.3V359.85L338.96 354.3H341.535L335.585 360.2L341.86 367H339.235L333.535 360.65V367H331.335V354.3H333.535ZM342.703 363.15C342.269 361.367 342.286 359.642 342.753 357.975C343.219 356.308 344.203 355.117 345.703 354.4C346.536 354 347.511 353.8 348.628 353.8C349.744 353.8 350.719 354 351.553 354.4C353.053 355.1 354.044 356.35 354.528 358.15C354.744 358.983 354.853 359.825 354.853 360.675C354.869 361.508 354.769 362.333 354.553 363.15C354.353 363.95 353.994 364.683 353.478 365.35C352.978 366.017 352.336 366.542 351.553 366.925C350.703 367.308 349.728 367.5 348.628 367.5C347.528 367.5 346.553 367.308 345.703 366.925C344.253 366.225 343.253 364.967 342.703 363.15ZM345.028 358.125C344.811 358.792 344.703 359.625 344.703 360.625C344.703 361.608 344.811 362.45 345.028 363.15C345.244 363.85 345.494 364.375 345.778 364.725C346.378 365.392 347.061 365.783 347.828 365.9C348.361 365.983 348.894 365.983 349.428 365.9C349.661 365.883 349.986 365.767 350.403 365.55C350.853 365.317 351.219 365.025 351.503 364.675C351.786 364.325 352.028 363.817 352.228 363.15C352.444 362.45 352.553 361.608 352.553 360.625C352.553 359.625 352.444 358.792 352.228 358.125C351.994 357.392 351.736 356.867 351.453 356.55C351.186 356.233 350.853 355.967 350.453 355.75C350.053 355.533 349.711 355.4 349.428 355.35C348.894 355.267 348.361 355.267 347.828 355.35C347.594 355.367 347.261 355.492 346.828 355.725C345.978 356.142 345.378 356.942 345.028 358.125ZM357.751 367V354.3H363.801C366.485 354.3 367.826 355.308 367.826 357.325C367.826 358.775 367.06 359.767 365.526 360.3V360.375C366.56 360.625 367.276 361.025 367.676 361.575C368.093 362.125 368.301 362.833 368.301 363.7C368.301 365.083 367.793 366 366.776 366.45C365.943 366.817 364.926 367 363.726 367H357.751ZM363.101 355.85H359.951V359.6H363.001C363.885 359.6 364.535 359.425 364.951 359.075C365.385 358.708 365.601 358.233 365.601 357.65C365.601 356.45 364.768 355.85 363.101 355.85ZM363.101 361.15H359.951V365.45H363.176C365.076 365.45 366.026 364.8 366.026 363.5C366.026 361.933 365.051 361.15 363.101 361.15ZM371.228 367V354.3H373.428V359.325H376.628C377.644 359.325 378.494 359.425 379.178 359.625C380.811 360.042 381.661 361.233 381.728 363.2C381.728 364.367 381.369 365.292 380.653 365.975C379.953 366.658 378.861 367 377.378 367H371.228ZM376.103 360.875H373.428V365.45H376.503C378.469 365.45 379.453 364.65 379.453 363.05C379.453 362.267 379.194 361.7 378.678 361.35C378.511 361.217 378.236 361.108 377.853 361.025C377.453 360.925 376.869 360.875 376.103 360.875ZM383.278 367V354.3H385.478V367H383.278ZM390.074 354.3L393.324 359L396.574 354.3H399.024L394.574 360.375L399.374 367H396.924L393.324 361.775L389.724 367H387.274L392.074 360.375L387.624 354.3H390.074ZM415.644 355.85H409.219V367H407.019V354.3H417.844V367H415.644V355.85ZM423.122 358.05H421.022C421.022 357.05 421.356 356.133 422.022 355.3C422.822 354.3 424.289 353.8 426.422 353.8C427.672 353.8 428.772 354.05 429.722 354.55C430.272 354.817 430.706 355.258 431.022 355.875C431.339 356.492 431.489 357.225 431.472 358.075L431.347 363.95C431.347 364.433 431.397 364.808 431.497 365.075C431.647 365.342 432.039 365.467 432.672 365.45V367C432.422 367.067 432.089 367.1 431.672 367.1C430.939 367.1 430.406 366.975 430.072 366.725C429.756 366.475 429.531 365.983 429.397 365.25C428.581 366.75 427.131 367.5 425.047 367.5C423.614 367.5 422.506 367.183 421.722 366.55C420.956 365.9 420.572 364.942 420.572 363.675C420.572 362.475 421.006 361.567 421.872 360.95C422.739 360.3 424.381 359.867 426.797 359.65C427.914 359.567 428.581 359.458 428.797 359.325C429.114 359.108 429.272 358.633 429.272 357.9C429.272 356.2 428.322 355.35 426.422 355.35C424.172 355.35 423.072 356.25 423.122 358.05ZM429.222 361.575L429.272 360.5C429.022 360.683 428.656 360.833 428.172 360.95C427.439 361 426.872 361.058 426.472 361.125C425.089 361.358 424.247 361.55 423.947 361.7C423.214 362.05 422.847 362.683 422.847 363.6C422.847 364.333 423.064 364.908 423.497 365.325C423.947 365.742 424.547 365.95 425.297 365.95C425.781 365.95 426.222 365.883 426.622 365.75C427.039 365.617 427.439 365.4 427.822 365.1C428.222 364.783 428.539 364.325 428.772 363.725C429.022 363.125 429.172 362.408 429.222 361.575ZM437.466 354.3V359.85L442.891 354.3H445.466L439.516 360.2L445.791 367H443.166L437.466 360.65V367H435.266V354.3H437.466ZM456.647 363.325H458.747C458.547 364.442 458.006 365.417 457.122 366.25C456.239 367.083 454.931 367.5 453.197 367.5C450.847 367.5 449.122 366.725 448.022 365.175C447.472 364.358 447.114 363.483 446.947 362.55C446.831 361.9 446.772 361.283 446.772 360.7C446.772 359.583 446.939 358.533 447.272 357.55C447.489 356.85 447.806 356.242 448.222 355.725C448.672 355.175 449.314 354.717 450.147 354.35C450.981 353.983 451.922 353.8 452.972 353.8C454.839 353.8 456.247 354.317 457.197 355.35C457.597 355.783 457.922 356.333 458.172 357C458.539 357.967 458.764 359.142 458.847 360.525C458.847 360.575 458.847 360.683 458.847 360.85C458.864 361.017 458.872 361.117 458.872 361.15H449.097C449.097 362.417 449.431 363.533 450.097 364.5C450.764 365.467 451.772 365.95 453.122 365.95C454.089 365.95 454.881 365.708 455.497 365.225C456.114 364.742 456.497 364.108 456.647 363.325ZM449.097 359.6H456.547C456.531 358.617 456.297 357.708 455.847 356.875C455.331 355.858 454.389 355.35 453.022 355.35C451.472 355.35 450.406 355.867 449.822 356.9C449.339 357.733 449.097 358.633 449.097 359.6ZM464.68 367V355.85H460.28V354.3H471.28V355.85H466.88V367H464.68ZM472.537 363.15C472.103 361.367 472.12 359.642 472.587 357.975C473.053 356.308 474.037 355.117 475.537 354.4C476.37 354 477.345 353.8 478.462 353.8C479.578 353.8 480.553 354 481.387 354.4C482.887 355.1 483.878 356.35 484.362 358.15C484.578 358.983 484.687 359.825 484.687 360.675C484.703 361.508 484.603 362.333 484.387 363.15C484.187 363.95 483.828 364.683 483.312 365.35C482.812 366.017 482.17 366.542 481.387 366.925C480.537 367.308 479.562 367.5 478.462 367.5C477.362 367.5 476.387 367.308 475.537 366.925C474.087 366.225 473.087 364.967 472.537 363.15ZM474.862 358.125C474.645 358.792 474.537 359.625 474.537 360.625C474.537 361.608 474.645 362.45 474.862 363.15C475.078 363.85 475.328 364.375 475.612 364.725C476.212 365.392 476.895 365.783 477.662 365.9C478.195 365.983 478.728 365.983 479.262 365.9C479.495 365.883 479.82 365.767 480.237 365.55C480.687 365.317 481.053 365.025 481.337 364.675C481.62 364.325 481.862 363.817 482.062 363.15C482.278 362.45 482.387 361.608 482.387 360.625C482.387 359.625 482.278 358.792 482.062 358.125C481.828 357.392 481.57 356.867 481.287 356.55C481.02 356.233 480.687 355.967 480.287 355.75C479.887 355.533 479.545 355.4 479.262 355.35C478.728 355.267 478.195 355.267 477.662 355.35C477.428 355.367 477.095 355.492 476.662 355.725C475.812 356.142 475.212 356.942 474.862 358.125ZM487.585 367V354.3H493.635C496.318 354.3 497.66 355.308 497.66 357.325C497.66 358.775 496.893 359.767 495.36 360.3V360.375C496.393 360.625 497.11 361.025 497.51 361.575C497.927 362.125 498.135 362.833 498.135 363.7C498.135 365.083 497.627 366 496.61 366.45C495.777 366.817 494.76 367 493.56 367H487.585ZM492.935 355.85H489.785V359.6H492.835C493.718 359.6 494.368 359.425 494.785 359.075C495.218 358.708 495.435 358.233 495.435 357.65C495.435 356.45 494.602 355.85 492.935 355.85ZM492.935 361.15H489.785V365.45H493.01C494.91 365.45 495.86 364.8 495.86 363.5C495.86 361.933 494.885 361.15 492.935 361.15Z" fill="black"/>
<path d="M327.182 446H318.091V450.5H313.545V455H309V468.5H313.545V473H318.091V477.5H322.636V482H327.182V486.5H331.727V491H336.273V486.5H340.818V482H345.364V477.5H349.909V473H354.455V468.5H359V455H354.455V450.5H349.909V446H340.818V450.5H336.273V455H331.727V450.5H327.182V446ZM327.182 450.5V455H331.727V459.5H336.273V455H340.818V450.5H349.909V455H354.455V468.5H349.909V473H345.364V477.5H340.818V482H336.273V486.5H331.727V482H327.182V477.5H322.636V473H318.091V468.5H313.545V455H318.091V450.5H327.182Z" fill="black"/>
<path d="M322.275 516.475H313.475V532H311.125V514.5H324.625V532H322.275V516.475ZM328.549 536.625V519.3H330.599V521.05H330.674C331.674 519.55 333.074 518.8 334.874 518.8C336.524 518.8 337.891 519.375 338.974 520.525C340.057 521.692 340.599 523.4 340.599 525.65C340.599 527.95 340.049 529.667 338.949 530.8C337.866 531.933 336.524 532.5 334.924 532.5C334.424 532.5 333.816 532.392 333.099 532.175C332.049 531.858 331.266 531.192 330.749 530.175V536.625H328.549ZM330.599 525.7C330.599 527.467 330.999 528.792 331.799 529.675C332.632 530.525 333.541 530.95 334.524 530.95C335.557 530.95 336.441 530.533 337.174 529.7C337.907 528.833 338.274 527.483 338.274 525.65C338.274 523.983 337.932 522.683 337.249 521.75C336.582 520.817 335.632 520.35 334.399 520.35C333.749 520.35 333.141 520.525 332.574 520.875C331.257 521.658 330.599 523.267 330.599 525.7ZM345.666 519.3V529.425L352.291 519.3H354.741V532H352.541V521.85L345.941 532H343.466V519.3H345.666ZM367.034 520.85H360.534V532H358.334V519.3H367.034V520.85ZM368.115 528.15C367.682 526.367 367.698 524.642 368.165 522.975C368.632 521.308 369.615 520.117 371.115 519.4C371.948 519 372.923 518.8 374.04 518.8C375.157 518.8 376.132 519 376.965 519.4C378.465 520.1 379.457 521.35 379.94 523.15C380.157 523.983 380.265 524.825 380.265 525.675C380.282 526.508 380.182 527.333 379.965 528.15C379.765 528.95 379.407 529.683 378.89 530.35C378.39 531.017 377.748 531.542 376.965 531.925C376.115 532.308 375.14 532.5 374.04 532.5C372.94 532.5 371.965 532.308 371.115 531.925C369.665 531.225 368.665 529.967 368.115 528.15ZM370.44 523.125C370.223 523.792 370.115 524.625 370.115 525.625C370.115 526.608 370.223 527.45 370.44 528.15C370.657 528.85 370.907 529.375 371.19 529.725C371.79 530.392 372.473 530.783 373.24 530.9C373.773 530.983 374.307 530.983 374.84 530.9C375.073 530.883 375.398 530.767 375.815 530.55C376.265 530.317 376.632 530.025 376.915 529.675C377.198 529.325 377.44 528.817 377.64 528.15C377.857 527.45 377.965 526.608 377.965 525.625C377.965 524.625 377.857 523.792 377.64 523.125C377.407 522.392 377.148 521.867 376.865 521.55C376.598 521.233 376.265 520.967 375.865 520.75C375.465 520.533 375.123 520.4 374.84 520.35C374.307 520.267 373.773 520.267 373.24 520.35C373.007 520.367 372.673 520.492 372.24 520.725C371.39 521.142 370.79 521.942 370.44 523.125ZM381.563 535.3L381.363 530.45H382.963C384.347 528.417 385.038 525.408 385.038 521.425V519.3H394.138V530.45H396.338L396.163 535.3H394.313V532H383.413V535.3H381.563ZM391.938 530.45V520.85H387.088V522.625C387.088 523.975 386.938 525.375 386.638 526.825C386.372 528.258 385.922 529.467 385.288 530.45H391.938ZM407.377 528.325H409.477C409.277 529.442 408.735 530.417 407.852 531.25C406.968 532.083 405.66 532.5 403.927 532.5C401.577 532.5 399.852 531.725 398.752 530.175C398.202 529.358 397.843 528.483 397.677 527.55C397.56 526.9 397.502 526.283 397.502 525.7C397.502 524.583 397.668 523.533 398.002 522.55C398.218 521.85 398.535 521.242 398.952 520.725C399.402 520.175 400.043 519.717 400.877 519.35C401.71 518.983 402.652 518.8 403.702 518.8C405.568 518.8 406.977 519.317 407.927 520.35C408.327 520.783 408.652 521.333 408.902 522C409.268 522.967 409.493 524.142 409.577 525.525C409.577 525.575 409.577 525.683 409.577 525.85C409.593 526.017 409.602 526.117 409.602 526.15H399.827C399.827 527.417 400.16 528.533 400.827 529.5C401.493 530.467 402.502 530.95 403.852 530.95C404.818 530.95 405.61 530.708 406.227 530.225C406.843 529.742 407.227 529.108 407.377 528.325ZM399.827 524.6H407.277C407.26 523.617 407.027 522.708 406.577 521.875C406.06 520.858 405.118 520.35 403.752 520.35C402.202 520.35 401.135 520.867 400.552 521.9C400.068 522.733 399.827 523.633 399.827 524.6ZM420.96 526.075H414.685V532H412.485V519.3H414.685V524.525H420.96V519.3H423.16V532H420.96V526.075ZM309.2 563.3L309 558.45H310.6C311.983 556.417 312.675 553.408 312.675 549.425V547.3H321.775V558.45H323.975L323.8 563.3H321.95V560H311.05V563.3H309.2ZM319.575 558.45V548.85H314.725V550.625C314.725 551.975 314.575 553.375 314.275 554.825C314.008 556.258 313.558 557.467 312.925 558.45H319.575ZM325.023 560V558.375C326.273 558.742 327.157 558.15 327.673 556.6C327.807 556.217 327.898 555.742 327.948 555.175L328.048 553.65C328.065 553.383 328.073 552.858 328.073 552.075V547.3H336.873V560H334.673V548.85H330.123V552.075C330.123 553.125 330.098 554.008 330.048 554.725C329.998 555.425 329.873 556.192 329.673 557.025C329.39 558.208 328.882 559.05 328.148 559.55C327.415 560.05 326.373 560.2 325.023 560ZM348.238 555H345.338L342.013 560H339.588L343.088 554.975C342.121 554.875 341.338 554.5 340.738 553.85C340.138 553.2 339.838 552.35 339.838 551.3C339.838 550.317 340.096 549.458 340.613 548.725C341.23 547.775 342.396 547.3 344.113 547.3H350.438V560H348.238V555ZM348.238 553.45V548.85H345.063C343.096 548.85 342.113 549.642 342.113 551.225C342.113 551.875 342.355 552.408 342.838 552.825C343.321 553.242 344.088 553.45 345.138 553.45H348.238ZM368.497 548.85H362.072V560H359.872V547.3H370.697V560H368.497V548.85ZM383.451 556.325H385.551C385.351 557.442 384.809 558.417 383.926 559.25C383.043 560.083 381.734 560.5 380.001 560.5C377.651 560.5 375.926 559.725 374.826 558.175C374.276 557.358 373.918 556.483 373.751 555.55C373.634 554.9 373.576 554.283 373.576 553.7C373.576 552.583 373.743 551.533 374.076 550.55C374.293 549.85 374.609 549.242 375.026 548.725C375.476 548.175 376.118 547.717 376.951 547.35C377.784 546.983 378.726 546.8 379.776 546.8C381.643 546.8 383.051 547.317 384.001 548.35C384.401 548.783 384.726 549.333 384.976 550C385.343 550.967 385.568 552.142 385.651 553.525C385.651 553.575 385.651 553.683 385.651 553.85C385.668 554.017 385.676 554.117 385.676 554.15H375.901C375.901 555.417 376.234 556.533 376.901 557.5C377.568 558.467 378.576 558.95 379.926 558.95C380.893 558.95 381.684 558.708 382.301 558.225C382.918 557.742 383.301 557.108 383.451 556.325ZM375.901 552.6H383.351C383.334 551.617 383.101 550.708 382.651 549.875C382.134 548.858 381.193 548.35 379.826 548.35C378.276 548.35 377.209 548.867 376.626 549.9C376.143 550.733 375.901 551.633 375.901 552.6ZM388.559 564.625V547.3H390.609V549.05H390.684C391.684 547.55 393.084 546.8 394.884 546.8C396.534 546.8 397.9 547.375 398.984 548.525C400.067 549.692 400.609 551.4 400.609 553.65C400.609 555.95 400.059 557.667 398.959 558.8C397.875 559.933 396.534 560.5 394.934 560.5C394.434 560.5 393.825 560.392 393.109 560.175C392.059 559.858 391.275 559.192 390.759 558.175V564.625H388.559ZM390.609 553.7C390.609 555.467 391.009 556.792 391.809 557.675C392.642 558.525 393.55 558.95 394.534 558.95C395.567 558.95 396.45 558.533 397.184 557.7C397.917 556.833 398.284 555.483 398.284 553.65C398.284 551.983 397.942 550.683 397.259 549.75C396.592 548.817 395.642 548.35 394.409 548.35C393.759 548.35 393.15 548.525 392.584 548.875C391.267 549.658 390.609 551.267 390.609 553.7ZM412.626 556.325H414.726C414.526 557.442 413.984 558.417 413.101 559.25C412.217 560.083 410.909 560.5 409.176 560.5C406.826 560.5 405.101 559.725 404.001 558.175C403.451 557.358 403.092 556.483 402.926 555.55C402.809 554.9 402.751 554.283 402.751 553.7C402.751 552.583 402.917 551.533 403.251 550.55C403.467 549.85 403.784 549.242 404.201 548.725C404.651 548.175 405.292 547.717 406.126 547.35C406.959 546.983 407.901 546.8 408.951 546.8C410.817 546.8 412.226 547.317 413.176 548.35C413.576 548.783 413.901 549.333 414.151 550C414.517 550.967 414.742 552.142 414.826 553.525C414.826 553.575 414.826 553.683 414.826 553.85C414.842 554.017 414.851 554.117 414.851 554.15H405.076C405.076 555.417 405.409 556.533 406.076 557.5C406.742 558.467 407.751 558.95 409.101 558.95C410.067 558.95 410.859 558.708 411.476 558.225C412.092 557.742 412.476 557.108 412.626 556.325ZM405.076 552.6H412.526C412.509 551.617 412.276 550.708 411.826 549.875C411.309 548.858 410.367 548.35 409.001 548.35C407.451 548.35 406.384 548.867 405.801 549.9C405.317 550.733 405.076 551.633 405.076 552.6ZM417.734 564.625V547.3H419.784V549.05H419.859C420.859 547.55 422.259 546.8 424.059 546.8C425.709 546.8 427.075 547.375 428.159 548.525C429.242 549.692 429.784 551.4 429.784 553.65C429.784 555.95 429.234 557.667 428.134 558.8C427.05 559.933 425.709 560.5 424.109 560.5C423.609 560.5 423 560.392 422.284 560.175C421.234 559.858 420.45 559.192 419.934 558.175V564.625H417.734ZM419.784 553.7C419.784 555.467 420.184 556.792 420.984 557.675C421.817 558.525 422.725 558.95 423.709 558.95C424.742 558.95 425.625 558.533 426.359 557.7C427.092 556.833 427.459 555.483 427.459 553.65C427.459 551.983 427.117 550.683 426.434 549.75C425.767 548.817 424.817 548.35 423.584 548.35C422.934 548.35 422.325 548.525 421.759 548.875C420.442 549.658 419.784 551.267 419.784 553.7ZM434.326 551.05H432.226C432.226 550.05 432.559 549.133 433.226 548.3C434.026 547.3 435.492 546.8 437.626 546.8C438.876 546.8 439.976 547.05 440.926 547.55C441.476 547.817 441.909 548.258 442.226 548.875C442.542 549.492 442.692 550.225 442.676 551.075L442.551 556.95C442.551 557.433 442.601 557.808 442.701 558.075C442.851 558.342 443.242 558.467 443.876 558.45V560C443.626 560.067 443.292 560.1 442.876 560.1C442.142 560.1 441.609 559.975 441.276 559.725C440.959 559.475 440.734 558.983 440.601 558.25C439.784 559.75 438.334 560.5 436.251 560.5C434.817 560.5 433.709 560.183 432.926 559.55C432.159 558.9 431.776 557.942 431.776 556.675C431.776 555.475 432.209 554.567 433.076 553.95C433.942 553.3 435.584 552.867 438.001 552.65C439.117 552.567 439.784 552.458 440.001 552.325C440.317 552.108 440.476 551.633 440.476 550.9C440.476 549.2 439.526 548.35 437.626 548.35C435.376 548.35 434.276 549.25 434.326 551.05ZM440.426 554.575L440.476 553.5C440.226 553.683 439.859 553.833 439.376 553.95C438.642 554 438.076 554.058 437.676 554.125C436.292 554.358 435.451 554.55 435.151 554.7C434.417 555.05 434.051 555.683 434.051 556.6C434.051 557.333 434.267 557.908 434.701 558.325C435.151 558.742 435.751 558.95 436.501 558.95C436.984 558.95 437.426 558.883 437.826 558.75C438.242 558.617 438.642 558.4 439.026 558.1C439.426 557.783 439.742 557.325 439.976 556.725C440.226 556.125 440.376 555.408 440.426 554.575ZM455.494 541.675H457.369C457.302 542.892 456.736 543.7 455.669 544.1C455.086 544.3 454.586 544.433 454.169 544.5C452.302 544.733 451.219 544.892 450.919 544.975C449.786 545.292 448.919 545.867 448.319 546.7C447.719 547.517 447.402 548.692 447.369 550.225H447.419C448.219 548.075 449.861 547 452.344 547C454.361 547 455.869 547.667 456.869 549C457.886 550.317 458.394 551.933 458.394 553.85C458.394 555.683 457.869 557.25 456.819 558.55C455.769 559.85 454.211 560.5 452.144 560.5C449.861 560.5 448.169 559.633 447.069 557.9C446.519 556.95 446.144 555.883 445.944 554.7C445.811 553.767 445.744 552.842 445.744 551.925C445.744 548.708 446.236 546.458 447.219 545.175C448.086 544.058 449.261 543.342 450.744 543.025C452.144 542.708 453.327 542.525 454.294 542.475C454.944 542.392 455.344 542.125 455.494 541.675ZM448.069 554C448.069 555.1 448.319 556.158 448.819 557.175C449.402 558.358 450.494 558.95 452.094 558.95C453.361 558.95 454.336 558.525 455.019 557.675C455.719 556.808 456.069 555.617 456.069 554.1C456.069 552.85 455.852 551.692 455.419 550.625C454.869 549.242 453.761 548.55 452.094 548.55C450.427 548.55 449.302 549.225 448.719 550.575C448.286 551.608 448.069 552.75 448.069 554ZM460.864 556.15C460.431 554.367 460.447 552.642 460.914 550.975C461.381 549.308 462.364 548.117 463.864 547.4C464.697 547 465.672 546.8 466.789 546.8C467.906 546.8 468.881 547 469.714 547.4C471.214 548.1 472.206 549.35 472.689 551.15C472.906 551.983 473.014 552.825 473.014 553.675C473.031 554.508 472.931 555.333 472.714 556.15C472.514 556.95 472.156 557.683 471.639 558.35C471.139 559.017 470.497 559.542 469.714 559.925C468.864 560.308 467.889 560.5 466.789 560.5C465.689 560.5 464.714 560.308 463.864 559.925C462.414 559.225 461.414 557.967 460.864 556.15ZM463.189 551.125C462.972 551.792 462.864 552.625 462.864 553.625C462.864 554.608 462.972 555.45 463.189 556.15C463.406 556.85 463.656 557.375 463.939 557.725C464.539 558.392 465.222 558.783 465.989 558.9C466.522 558.983 467.056 558.983 467.589 558.9C467.822 558.883 468.147 558.767 468.564 558.55C469.014 558.317 469.381 558.025 469.664 557.675C469.947 557.325 470.189 556.817 470.389 556.15C470.606 555.45 470.714 554.608 470.714 553.625C470.714 552.625 470.606 551.792 470.389 551.125C470.156 550.392 469.897 549.867 469.614 549.55C469.347 549.233 469.014 548.967 468.614 548.75C468.214 548.533 467.872 548.4 467.589 548.35C467.056 548.267 466.522 548.267 465.989 548.35C465.756 548.367 465.422 548.492 464.989 548.725C464.139 549.142 463.539 549.942 463.189 551.125ZM478.056 560V548.85H473.656V547.3H484.656V548.85H480.256V560H478.056ZM488.684 547.3V552.85L494.109 547.3H496.684L490.734 553.2L497.009 560H494.384L488.684 553.65V560H486.484V547.3H488.684ZM500.915 547.3V557.425L507.54 547.3H509.99V560H507.79V549.85L501.19 560H498.715V547.3H500.915Z" fill="black"/>
<path d="M44.275 523.775H35.475V532H33.125V514.5H35.475V521.8H44.275V514.5H46.625V532H44.275V523.775ZM52.749 519.3V529.425L59.374 519.3H61.824V532H59.624V521.85L53.024 532H50.549V519.3H52.749ZM64.4172 528.1H66.5172C66.5172 528.933 66.8172 529.617 67.4172 530.15C68.0172 530.683 68.8422 530.95 69.8922 530.95C70.9255 530.95 71.7339 530.742 72.3172 530.325C72.9005 529.892 73.1922 529.267 73.1922 528.45C73.1922 526.933 72.2339 526.175 70.3172 526.175H68.4422V524.625H70.0672C71.8339 524.625 72.7172 523.967 72.7172 522.65C72.7172 522.433 72.6839 522.217 72.6172 522C72.5672 521.783 72.4505 521.542 72.2672 521.275C72.1005 520.992 71.8089 520.767 71.3922 520.6C70.9755 520.433 70.4589 520.35 69.8422 520.35C68.7422 520.35 67.9672 520.608 67.5172 521.125C67.0672 521.642 66.8422 522.2 66.8422 522.8H64.7422C64.7922 521.933 65.0172 521.208 65.4172 520.625C65.8172 520.042 66.3339 519.625 66.9672 519.375C68.0005 518.992 69.0005 518.8 69.9672 518.8C70.8172 518.8 71.5672 518.9 72.2172 519.1C72.8672 519.283 73.3589 519.508 73.6922 519.775C74.0422 520.042 74.3172 520.358 74.5172 520.725C74.7339 521.092 74.8672 521.417 74.9172 521.7C74.9672 521.967 74.9922 522.233 74.9922 522.5C74.9922 523.983 74.2589 524.908 72.7922 525.275V525.35C73.5755 525.467 74.2172 525.808 74.7172 526.375C75.2172 526.942 75.4672 527.683 75.4672 528.6C75.4672 529.533 75.1339 530.383 74.4672 531.15C73.6505 532.05 72.1839 532.5 70.0672 532.5C68.2839 532.5 66.9255 532.125 65.9922 531.375C64.9422 530.458 64.4172 529.367 64.4172 528.1ZM80.5322 519.3V524.85L85.9572 519.3H88.5322L82.5822 525.2L88.8572 532H86.2322L80.5322 525.65V532H78.3322V519.3H80.5322ZM92.7637 519.3V529.425L99.3887 519.3H101.839V532H99.6387V521.85L93.0387 532H90.5637V519.3H92.7637ZM107.632 519.3V529.425L114.257 519.3H116.707V532H114.507V521.85L107.907 532H105.432V519.3H107.632ZM113.432 514.5H115.307C114.957 516.333 113.857 517.408 112.007 517.725C111.69 517.775 111.357 517.8 111.007 517.8C108.857 517.8 107.482 516.925 106.882 515.175C106.832 515.058 106.774 514.833 106.707 514.5H108.582C108.532 514.933 108.682 515.342 109.032 515.725C109.282 515.992 109.574 516.192 109.907 516.325C110.207 516.425 110.574 516.475 111.007 516.475C111.724 516.475 112.315 516.3 112.782 515.95C113.249 515.583 113.465 515.1 113.432 514.5ZM33.275 564.6V562.975C33.9083 563.058 34.275 563.1 34.375 563.1C35.0083 563.1 35.4583 562.867 35.725 562.4C35.8917 562.15 36 561.942 36.05 561.775C36.1 561.692 36.2083 561.417 36.375 560.95L36.675 560L31.175 547.3H33.8L37.875 557.575L41.25 547.3H43.45L38.4 561.5C38 562.633 37.6583 563.375 37.375 563.725C36.8083 564.392 36.0417 564.725 35.075 564.725C34.325 564.725 33.725 564.683 33.275 564.6ZM45.2512 564.625V547.3H47.3012V549.05H47.3762C48.3762 547.55 49.7762 546.8 51.5762 546.8C53.2262 546.8 54.5928 547.375 55.6762 548.525C56.7595 549.692 57.3012 551.4 57.3012 553.65C57.3012 555.95 56.7512 557.667 55.6512 558.8C54.5678 559.933 53.2262 560.5 51.6262 560.5C51.1262 560.5 50.5178 560.392 49.8012 560.175C48.7512 559.858 47.9678 559.192 47.4512 558.175V564.625H45.2512ZM47.3012 553.7C47.3012 555.467 47.7012 556.792 48.5012 557.675C49.3345 558.525 50.2428 558.95 51.2262 558.95C52.2595 558.95 53.1428 558.533 53.8762 557.7C54.6095 556.833 54.9762 555.483 54.9762 553.65C54.9762 551.983 54.6345 550.683 53.9512 549.75C53.2845 548.817 52.3345 548.35 51.1012 548.35C50.4512 548.35 49.8428 548.525 49.2762 548.875C47.9595 549.658 47.3012 551.267 47.3012 553.7ZM59.7682 556.15C59.3348 554.367 59.3515 552.642 59.8182 550.975C60.2848 549.308 61.2682 548.117 62.7682 547.4C63.6015 547 64.5765 546.8 65.6932 546.8C66.8098 546.8 67.7848 547 68.6182 547.4C70.1182 548.1 71.1098 549.35 71.5932 551.15C71.8098 551.983 71.9182 552.825 71.9182 553.675C71.9348 554.508 71.8348 555.333 71.6182 556.15C71.4182 556.95 71.0598 557.683 70.5432 558.35C70.0432 559.017 69.4015 559.542 68.6182 559.925C67.7682 560.308 66.7932 560.5 65.6932 560.5C64.5932 560.5 63.6182 560.308 62.7682 559.925C61.3182 559.225 60.3182 557.967 59.7682 556.15ZM62.0932 551.125C61.8765 551.792 61.7682 552.625 61.7682 553.625C61.7682 554.608 61.8765 555.45 62.0932 556.15C62.3098 556.85 62.5598 557.375 62.8432 557.725C63.4432 558.392 64.1265 558.783 64.8932 558.9C65.4265 558.983 65.9598 558.983 66.4932 558.9C66.7265 558.883 67.0515 558.767 67.4682 558.55C67.9182 558.317 68.2848 558.025 68.5682 557.675C68.8515 557.325 69.0932 556.817 69.2932 556.15C69.5098 555.45 69.6182 554.608 69.6182 553.625C69.6182 552.625 69.5098 551.792 69.2932 551.125C69.0598 550.392 68.8015 549.867 68.5182 549.55C68.2515 549.233 67.9182 548.967 67.5182 548.75C67.1182 548.533 66.7765 548.4 66.4932 548.35C65.9598 548.267 65.4265 548.267 64.8932 548.35C64.6598 548.367 64.3265 548.492 63.8932 548.725C63.0432 549.142 62.4432 549.942 62.0932 551.125ZM74.8166 560V547.3H80.8666C83.5499 547.3 84.8916 548.308 84.8916 550.325C84.8916 551.775 84.1249 552.767 82.5916 553.3V553.375C83.6249 553.625 84.3416 554.025 84.7416 554.575C85.1583 555.125 85.3666 555.833 85.3666 556.7C85.3666 558.083 84.8583 559 83.8416 559.45C83.0083 559.817 81.9916 560 80.7916 560H74.8166ZM80.1666 548.85H77.0166V552.6H80.0666C80.9499 552.6 81.5999 552.425 82.0166 552.075C82.4499 551.708 82.6666 551.233 82.6666 550.65C82.6666 549.45 81.8333 548.85 80.1666 548.85ZM80.1666 554.15H77.0166V558.45H80.2416C82.1416 558.45 83.0916 557.8 83.0916 556.5C83.0916 554.933 82.1166 554.15 80.1666 554.15ZM97.4432 556.325H99.5432C99.3432 557.442 98.8015 558.417 97.9182 559.25C97.0348 560.083 95.7265 560.5 93.9932 560.5C91.6432 560.5 89.9182 559.725 88.8182 558.175C88.2682 557.358 87.9098 556.483 87.7432 555.55C87.6265 554.9 87.5682 554.283 87.5682 553.7C87.5682 552.583 87.7348 551.533 88.0682 550.55C88.2848 549.85 88.6015 549.242 89.0182 548.725C89.4682 548.175 90.1098 547.717 90.9432 547.35C91.7765 546.983 92.7182 546.8 93.7682 546.8C95.6348 546.8 97.0432 547.317 97.9932 548.35C98.3932 548.783 98.7182 549.333 98.9682 550C99.3348 550.967 99.5598 552.142 99.6432 553.525C99.6432 553.575 99.6432 553.683 99.6432 553.85C99.6598 554.017 99.6682 554.117 99.6682 554.15H89.8932C89.8932 555.417 90.2265 556.533 90.8932 557.5C91.5598 558.467 92.5682 558.95 93.9182 558.95C94.8848 558.95 95.6765 558.708 96.2932 558.225C96.9098 557.742 97.2932 557.108 97.4432 556.325ZM89.8932 552.6H97.3432C97.3265 551.617 97.0932 550.708 96.6432 549.875C96.1265 548.858 95.1848 548.35 93.8182 548.35C92.2682 548.35 91.2015 548.867 90.6182 549.9C90.1348 550.733 89.8932 551.633 89.8932 552.6ZM111.026 554.075H104.751V560H102.551V547.3H104.751V552.525H111.026V547.3H113.226V560H111.026V554.075ZM116.833 560V547.3H119.033V552.35H122.208C123.458 552.35 124.533 552.533 125.433 552.9C126.683 553.35 127.308 554.4 127.308 556.05C127.308 557.417 126.908 558.433 126.108 559.1C125.775 559.367 125.383 559.567 124.933 559.7C124.333 559.9 123.675 560 122.958 560H116.833ZM121.708 553.9H119.033V558.45H122.083C123.117 558.45 123.875 558.242 124.358 557.825C124.842 557.342 125.067 556.75 125.033 556.05C125.033 555.283 124.783 554.717 124.283 554.35C124.117 554.233 123.85 554.133 123.483 554.05C123.083 553.95 122.558 553.9 121.908 553.9H121.708ZM135.11 556.15C134.677 554.367 134.693 552.642 135.16 550.975C135.627 549.308 136.61 548.117 138.11 547.4C138.943 547 139.918 546.8 141.035 546.8C142.152 546.8 143.127 547 143.96 547.4C145.46 548.1 146.452 549.35 146.935 551.15C147.152 551.983 147.26 552.825 147.26 553.675C147.277 554.508 147.177 555.333 146.96 556.15C146.76 556.95 146.402 557.683 145.885 558.35C145.385 559.017 144.743 559.542 143.96 559.925C143.11 560.308 142.135 560.5 141.035 560.5C139.935 560.5 138.96 560.308 138.11 559.925C136.66 559.225 135.66 557.967 135.11 556.15ZM137.435 551.125C137.218 551.792 137.11 552.625 137.11 553.625C137.11 554.608 137.218 555.45 137.435 556.15C137.652 556.85 137.902 557.375 138.185 557.725C138.785 558.392 139.468 558.783 140.235 558.9C140.768 558.983 141.302 558.983 141.835 558.9C142.068 558.883 142.393 558.767 142.81 558.55C143.26 558.317 143.627 558.025 143.91 557.675C144.193 557.325 144.435 556.817 144.635 556.15C144.852 555.45 144.96 554.608 144.96 553.625C144.96 552.625 144.852 551.792 144.635 551.125C144.402 550.392 144.143 549.867 143.86 549.55C143.593 549.233 143.26 548.967 142.86 548.75C142.46 548.533 142.118 548.4 141.835 548.35C141.302 548.267 140.768 548.267 140.235 548.35C140.002 548.367 139.668 548.492 139.235 548.725C138.385 549.142 137.785 549.942 137.435 551.125ZM158.783 548.85H152.358V560H150.158V547.3H160.983V560H158.783V548.85ZM166.262 551.05H164.162C164.162 550.05 164.495 549.133 165.162 548.3C165.962 547.3 167.429 546.8 169.562 546.8C170.812 546.8 171.912 547.05 172.862 547.55C173.412 547.817 173.845 548.258 174.162 548.875C174.479 549.492 174.629 550.225 174.612 551.075L174.487 556.95C174.487 557.433 174.537 557.808 174.637 558.075C174.787 558.342 175.179 558.467 175.812 558.45V560C175.562 560.067 175.229 560.1 174.812 560.1C174.079 560.1 173.545 559.975 173.212 559.725C172.895 559.475 172.67 558.983 172.537 558.25C171.72 559.75 170.27 560.5 168.187 560.5C166.754 560.5 165.645 560.183 164.862 559.55C164.095 558.9 163.712 557.942 163.712 556.675C163.712 555.475 164.145 554.567 165.012 553.95C165.879 553.3 167.52 552.867 169.937 552.65C171.054 552.567 171.72 552.458 171.937 552.325C172.254 552.108 172.412 551.633 172.412 550.9C172.412 549.2 171.462 548.35 169.562 548.35C167.312 548.35 166.212 549.25 166.262 551.05ZM172.362 554.575L172.412 553.5C172.162 553.683 171.795 553.833 171.312 553.95C170.579 554 170.012 554.058 169.612 554.125C168.229 554.358 167.387 554.55 167.087 554.7C166.354 555.05 165.987 555.683 165.987 556.6C165.987 557.333 166.204 557.908 166.637 558.325C167.087 558.742 167.687 558.95 168.437 558.95C168.92 558.95 169.362 558.883 169.762 558.75C170.179 558.617 170.579 558.4 170.962 558.1C171.362 557.783 171.679 557.325 171.912 556.725C172.162 556.125 172.312 555.408 172.362 554.575ZM187.305 555.475H189.405C189.339 556.442 188.972 557.458 188.305 558.525C187.939 559.125 187.364 559.608 186.58 559.975C185.814 560.325 184.914 560.5 183.88 560.5C183.53 560.5 183.28 560.492 183.13 560.475C182.397 560.442 181.647 560.25 180.88 559.9C178.747 558.833 177.68 556.717 177.68 553.55C177.68 551.883 178.064 550.4 178.83 549.1C179.78 547.567 181.414 546.8 183.73 546.8C185.364 546.8 186.664 547.217 187.63 548.05C188.597 548.867 189.155 549.942 189.305 551.275H187.205C186.872 549.325 185.73 548.35 183.78 548.35C182.514 548.35 181.564 548.817 180.93 549.75C180.314 550.667 180.005 551.933 180.005 553.55C180.005 555.117 180.33 556.408 180.98 557.425C181.63 558.442 182.614 558.95 183.93 558.95C185.064 558.95 185.889 558.592 186.405 557.875C186.955 557.158 187.255 556.358 187.305 555.475ZM200.577 554.075H194.302V560H192.102V547.3H194.302V552.525H200.577V547.3H202.777V560H200.577V554.075ZM205.984 556.15C205.551 554.367 205.567 552.642 206.034 550.975C206.501 549.308 207.484 548.117 208.984 547.4C209.817 547 210.792 546.8 211.909 546.8C213.026 546.8 214.001 547 214.834 547.4C216.334 548.1 217.326 549.35 217.809 551.15C218.026 551.983 218.134 552.825 218.134 553.675C218.151 554.508 218.051 555.333 217.834 556.15C217.634 556.95 217.276 557.683 216.759 558.35C216.259 559.017 215.617 559.542 214.834 559.925C213.984 560.308 213.009 560.5 211.909 560.5C210.809 560.5 209.834 560.308 208.984 559.925C207.534 559.225 206.534 557.967 205.984 556.15ZM208.309 551.125C208.092 551.792 207.984 552.625 207.984 553.625C207.984 554.608 208.092 555.45 208.309 556.15C208.526 556.85 208.776 557.375 209.059 557.725C209.659 558.392 210.342 558.783 211.109 558.9C211.642 558.983 212.176 558.983 212.709 558.9C212.942 558.883 213.267 558.767 213.684 558.55C214.134 558.317 214.501 558.025 214.784 557.675C215.067 557.325 215.309 556.817 215.509 556.15C215.726 555.45 215.834 554.608 215.834 553.625C215.834 552.625 215.726 551.792 215.509 551.125C215.276 550.392 215.017 549.867 214.734 549.55C214.467 549.233 214.134 548.967 213.734 548.75C213.334 548.533 212.992 548.4 212.709 548.35C212.176 548.267 211.642 548.267 211.109 548.35C210.876 548.367 210.542 548.492 210.109 548.725C209.259 549.142 208.659 549.942 208.309 551.125ZM229.932 555.475H232.032C231.966 556.442 231.599 557.458 230.932 558.525C230.566 559.125 229.991 559.608 229.207 559.975C228.441 560.325 227.541 560.5 226.507 560.5C226.157 560.5 225.907 560.492 225.757 560.475C225.024 560.442 224.274 560.25 223.507 559.9C221.374 558.833 220.307 556.717 220.307 553.55C220.307 551.883 220.691 550.4 221.457 549.1C222.407 547.567 224.041 546.8 226.357 546.8C227.991 546.8 229.291 547.217 230.257 548.05C231.224 548.867 231.782 549.942 231.932 551.275H229.832C229.499 549.325 228.357 548.35 226.407 548.35C225.141 548.35 224.191 548.817 223.557 549.75C222.941 550.667 222.632 551.933 222.632 553.55C222.632 555.117 222.957 556.408 223.607 557.425C224.257 558.442 225.241 558.95 226.557 558.95C227.691 558.95 228.516 558.592 229.032 557.875C229.582 557.158 229.882 556.358 229.932 555.475ZM237.214 560V548.85H232.814V547.3H243.814V548.85H239.414V560H237.214ZM247.695 547.3V557.425L254.32 547.3H256.77V560H254.57V549.85L247.97 560H245.495V547.3H247.695Z" fill="black"/>
<path d="M172.975 59V34.5H182.95C188.48 34.5 191.245 36.845 191.245 41.535C191.245 46.6683 188.375 49.235 182.635 49.235H176.265V59H172.975ZM182.285 37.265H176.265V46.47H182.285C184.222 46.47 185.633 46.0733 186.52 45.28C187.43 44.4633 187.885 43.2383 187.885 41.605C187.885 40.0883 187.43 38.9917 186.52 38.315C185.61 37.615 184.198 37.265 182.285 37.265ZM198.619 37.265V44.965H211.464V47.73H198.619V56.235H213.179V59H195.329V34.5H212.794V37.265H198.619ZM220.049 56.235H232.509V59H216.759V34.5H220.049V56.235ZM235.285 59V34.5H244.28C244.933 34.5 245.411 34.5117 245.715 34.535C247.115 34.5817 248.526 34.92 249.95 35.55C250.696 35.8533 251.443 36.32 252.19 36.95C252.96 37.58 253.59 38.2917 254.08 39.085C255.316 40.9517 255.935 43.4833 255.935 46.68C255.795 51.51 254.535 54.8117 252.155 56.585C251.315 57.215 250.556 57.6817 249.88 57.985C249.203 58.265 248.375 58.4867 247.395 58.65C246.438 58.8367 245.668 58.9417 245.085 58.965C244.711 58.9883 244.035 59 243.055 59H235.285ZM244.105 37.265H238.575V56.235H243.16C246.333 56.235 248.666 55.4767 250.16 53.96C251.676 52.42 252.435 50.0167 252.435 46.75C252.435 44.9767 252.201 43.4483 251.735 42.165C251.268 40.8817 250.626 39.9017 249.81 39.225C248.993 38.525 248.118 38.0233 247.185 37.72C246.251 37.4167 245.225 37.265 244.105 37.265ZM261.176 59V55.185H264.641V60.085C264.641 61.2517 264.314 62.1733 263.661 62.85C263.007 63.5267 262.179 63.97 261.176 64.18V62.255C261.666 62.2083 262.074 61.9633 262.401 61.52C262.751 61.1 262.926 60.6217 262.926 60.085V59H261.176ZM282.769 56.235H295.229V59H279.479V34.5H282.769V56.235ZM298.004 59V34.5H306.999C307.653 34.5 308.131 34.5117 308.434 34.535C309.834 34.5817 311.246 34.92 312.669 35.55C313.416 35.8533 314.163 36.32 314.909 36.95C315.679 37.58 316.309 38.2917 316.799 39.085C318.036 40.9517 318.654 43.4833 318.654 46.68C318.514 51.51 317.254 54.8117 314.874 56.585C314.034 57.215 313.276 57.6817 312.599 57.985C311.923 58.265 311.094 58.4867 310.114 58.65C309.158 58.8367 308.388 58.9417 307.804 58.965C307.431 58.9883 306.754 59 305.774 59H298.004ZM306.824 37.265H301.294V56.235H305.879C309.053 56.235 311.386 55.4767 312.879 53.96C314.396 52.42 315.154 50.0167 315.154 46.75C315.154 44.9767 314.921 43.4483 314.454 42.165C313.988 40.8817 313.346 39.9017 312.529 39.225C311.713 38.525 310.838 38.0233 309.904 37.72C308.971 37.4167 307.944 37.265 306.824 37.265ZM323.161 59V34.5H333.136C338.666 34.5 341.431 36.845 341.431 41.535C341.431 46.6683 338.561 49.235 332.821 49.235H326.451V59H323.161ZM332.471 37.265H326.451V46.47H332.471C334.407 46.47 335.819 46.0733 336.706 45.28C337.616 44.4633 338.071 43.2383 338.071 41.605C338.071 40.0883 337.616 38.9917 336.706 38.315C335.796 37.615 334.384 37.265 332.471 37.265ZM348.804 37.265V44.965H361.649V47.73H348.804V56.235H363.364V59H345.514V34.5H362.979V37.265H348.804ZM407.062 37.265H394.742V59H391.452V34.5H410.352V59H407.062V37.265ZM416.3 59V34.5H427.045C428.445 34.5 429.647 34.6867 430.65 35.06C431.654 35.41 432.412 35.9117 432.925 36.565C433.439 37.195 433.8 37.8483 434.01 38.525C434.244 39.2017 434.36 39.9367 434.36 40.73C434.36 42.0367 433.964 43.1917 433.17 44.195C432.4 45.1983 431.432 45.7933 430.265 45.98V46.085C430.849 46.1783 431.409 46.3417 431.945 46.575C432.482 46.8083 433.019 47.1467 433.555 47.59C434.115 48.0333 434.559 48.6517 434.885 49.445C435.235 50.2383 435.41 51.1483 435.41 52.175C435.41 56.725 432.494 59 426.66 59H416.3ZM426.31 37.265H419.59V44.895H426.205C427.815 44.895 429.017 44.5567 429.81 43.88C430.604 43.18 431 42.2467 431 41.08C431 40.66 430.942 40.2633 430.825 39.89C430.709 39.4933 430.499 39.085 430.195 38.665C429.892 38.245 429.402 37.9067 428.725 37.65C428.072 37.3933 427.267 37.265 426.31 37.265ZM426.415 47.66H419.59V56.235H426.415C427.489 56.235 428.469 56.1067 429.355 55.85C431.152 55.3133 432.05 53.995 432.05 51.895C432.05 49.0717 430.172 47.66 426.415 47.66ZM459.296 34.5V56.235H462.831L462.516 64.53H459.646V59H440.606V64.53H437.736L437.456 56.235H439.661C442.764 52.3617 444.316 46.7967 444.316 39.54V34.5H459.296ZM456.006 56.235V37.265H447.606V40.31C447.606 43.7867 447.314 46.7383 446.731 49.165C446.124 51.685 445.074 54.0417 443.581 56.235H456.006ZM188.585 72.265H176.265V94H172.975V69.5H191.875V94H188.585V72.265ZM196.809 88.61C196.202 86.1133 196.225 83.6983 196.879 81.365C197.532 79.0317 198.909 77.3633 201.009 76.36C202.175 75.8 203.54 75.52 205.104 75.52C206.667 75.52 208.032 75.8 209.199 76.36C211.299 77.34 212.687 79.09 213.364 81.61C213.667 82.7767 213.819 83.955 213.819 85.145C213.842 86.3117 213.702 87.4667 213.399 88.61C213.119 89.73 212.617 90.7567 211.894 91.69C211.194 92.6233 210.295 93.3583 209.199 93.895C208.009 94.4317 206.644 94.7 205.104 94.7C203.564 94.7 202.199 94.4317 201.009 93.895C198.979 92.915 197.579 91.1533 196.809 88.61ZM200.064 81.575C199.76 82.5083 199.609 83.675 199.609 85.075C199.609 86.4517 199.76 87.63 200.064 88.61C200.367 89.59 200.717 90.325 201.114 90.815C201.954 91.7483 202.91 92.2967 203.984 92.46C204.73 92.5767 205.477 92.5767 206.224 92.46C206.55 92.4367 207.005 92.2733 207.589 91.97C208.219 91.6433 208.732 91.235 209.129 90.745C209.525 90.255 209.864 89.5433 210.144 88.61C210.447 87.63 210.599 86.4517 210.599 85.075C210.599 83.675 210.447 82.5083 210.144 81.575C209.817 80.5483 209.455 79.8133 209.059 79.37C208.685 78.9267 208.219 78.5533 207.659 78.25C207.099 77.9467 206.62 77.76 206.224 77.69C205.477 77.5733 204.73 77.5733 203.984 77.69C203.657 77.7133 203.19 77.8883 202.584 78.215C201.394 78.7983 200.554 79.9183 200.064 81.575ZM215.811 94V91.725C217.561 92.2383 218.798 91.41 219.521 89.24C219.708 88.7033 219.836 88.0383 219.906 87.245L220.046 85.11C220.07 84.7367 220.081 84.0017 220.081 82.905V76.22H232.401V94H229.321V78.39H222.951V82.905C222.951 84.375 222.916 85.6117 222.846 86.615C222.776 87.595 222.601 88.6683 222.321 89.835C221.925 91.4917 221.213 92.67 220.186 93.37C219.16 94.07 217.701 94.28 215.811 94ZM240.507 76.22V90.395L249.782 76.22H253.212V94H250.132V79.79L240.892 94H237.427V76.22H240.507ZM270.318 85.845H262.653V83.675H270.318C270.294 82.625 270.143 81.715 269.863 80.945C269.583 80.175 269.256 79.5917 268.883 79.195C268.509 78.7983 268.066 78.4833 267.553 78.25C267.039 77.9933 266.608 77.8417 266.258 77.795C265.931 77.725 265.604 77.69 265.278 77.69C263.761 77.69 262.536 78.075 261.603 78.845C260.693 79.5917 260.191 80.5717 260.098 81.785H257.158C257.461 79.335 258.616 77.55 260.623 76.43C261.136 76.1033 261.696 75.8933 262.303 75.8C263.259 75.6133 264.146 75.52 264.963 75.52C270.703 75.52 273.573 78.7633 273.573 85.25C273.573 91.55 270.761 94.7 265.138 94.7C263.761 94.7 262.559 94.525 261.533 94.175C259.153 93.4283 257.648 91.3167 257.018 87.84H259.958C260.354 90.9667 262.081 92.53 265.138 92.53C266.258 92.53 267.203 92.285 267.973 91.795C268.743 91.2817 269.279 90.605 269.583 89.765C270.073 88.3883 270.318 87.0817 270.318 85.845ZM281.273 94V78.39H275.113V76.22H290.513V78.39H284.353V94H281.273ZM295.947 76.22V90.395L305.222 76.22H308.652V94H305.572V79.79L296.332 94H292.867V76.22H295.947ZM311.617 94V91.725C313.367 92.2383 314.604 91.41 315.327 89.24C315.514 88.7033 315.642 88.0383 315.712 87.245L315.852 85.11C315.875 84.7367 315.887 84.0017 315.887 82.905V76.22H328.207V94H325.127V78.39H318.757V82.905C318.757 84.375 318.722 85.6117 318.652 86.615C318.582 87.595 318.407 88.6683 318.127 89.835C317.73 91.4917 317.019 92.67 315.992 93.37C314.965 94.07 313.507 94.28 311.617 94ZM346.043 88.855H348.983C348.703 90.4183 347.945 91.7833 346.708 92.95C345.471 94.1167 343.64 94.7 341.213 94.7C337.923 94.7 335.508 93.615 333.968 91.445C333.198 90.3017 332.696 89.0767 332.463 87.77C332.3 86.86 332.218 85.9967 332.218 85.18C332.218 83.6167 332.451 82.1467 332.918 80.77C333.221 79.79 333.665 78.9383 334.248 78.215C334.878 77.445 335.776 76.8033 336.943 76.29C338.11 75.7767 339.428 75.52 340.898 75.52C343.511 75.52 345.483 76.2433 346.813 77.69C347.373 78.2967 347.828 79.0667 348.178 80C348.691 81.3533 349.006 82.9983 349.123 84.935C349.123 85.005 349.123 85.1567 349.123 85.39C349.146 85.6233 349.158 85.7633 349.158 85.81H335.473C335.473 87.5833 335.94 89.1467 336.873 90.5C337.806 91.8533 339.218 92.53 341.108 92.53C342.461 92.53 343.57 92.1917 344.433 91.515C345.296 90.8383 345.833 89.9517 346.043 88.855ZM335.473 83.64H345.903C345.88 82.2633 345.553 80.9917 344.923 79.825C344.2 78.4017 342.881 77.69 340.968 77.69C338.798 77.69 337.305 78.4133 336.488 79.86C335.811 81.0267 335.473 82.2867 335.473 83.64ZM365.059 85.705H356.274V94H353.194V76.22H356.274V83.535H365.059V76.22H368.139V94H365.059V85.705ZM393.223 85.705H384.438V94H381.358V76.22H384.438V83.535H393.223V76.22H396.303V94H393.223V85.705ZM404.433 76.22V90.395L413.708 76.22H417.138V94H414.058V79.79L404.818 94H401.353V76.22H404.433ZM420.768 88.54H423.708C423.708 89.7067 424.128 90.6633 424.968 91.41C425.808 92.1567 426.963 92.53 428.433 92.53C429.88 92.53 431.012 92.2383 431.828 91.655C432.645 91.0483 433.053 90.1733 433.053 89.03C433.053 86.9067 431.712 85.845 429.028 85.845H426.403V83.675H428.678C431.152 83.675 432.388 82.7533 432.388 80.91C432.388 80.6067 432.342 80.3033 432.248 80C432.178 79.6967 432.015 79.3583 431.758 78.985C431.525 78.5883 431.117 78.2733 430.533 78.04C429.95 77.8067 429.227 77.69 428.363 77.69C426.823 77.69 425.738 78.0517 425.108 78.775C424.478 79.4983 424.163 80.28 424.163 81.12H421.223C421.293 79.9067 421.608 78.8917 422.168 78.075C422.728 77.2583 423.452 76.675 424.338 76.325C425.785 75.7883 427.185 75.52 428.538 75.52C429.728 75.52 430.778 75.66 431.688 75.94C432.598 76.1967 433.287 76.5117 433.753 76.885C434.243 77.2583 434.628 77.7017 434.908 78.215C435.212 78.7283 435.398 79.1833 435.468 79.58C435.538 79.9533 435.573 80.3267 435.573 80.7C435.573 82.7767 434.547 84.0717 432.493 84.585V84.69C433.59 84.8533 434.488 85.3317 435.188 86.125C435.888 86.9183 436.238 87.9567 436.238 89.24C436.238 90.5467 435.772 91.7367 434.838 92.81C433.695 94.07 431.642 94.7 428.678 94.7C426.182 94.7 424.28 94.175 422.973 93.125C421.503 91.8417 420.768 90.3133 420.768 88.54ZM443.329 76.22V83.99L450.924 76.22H454.529L446.199 84.48L454.984 94H451.309L443.329 85.11V94H440.249V76.22H443.329ZM456.164 88.61C455.557 86.1133 455.581 83.6983 456.234 81.365C456.887 79.0317 458.264 77.3633 460.364 76.36C461.531 75.8 462.896 75.52 464.459 75.52C466.022 75.52 467.387 75.8 468.554 76.36C470.654 77.34 472.042 79.09 472.719 81.61C473.022 82.7767 473.174 83.955 473.174 85.145C473.197 86.3117 473.057 87.4667 472.754 88.61C472.474 89.73 471.972 90.7567 471.249 91.69C470.549 92.6233 469.651 93.3583 468.554 93.895C467.364 94.4317 465.999 94.7 464.459 94.7C462.919 94.7 461.554 94.4317 460.364 93.895C458.334 92.915 456.934 91.1533 456.164 88.61ZM459.419 81.575C459.116 82.5083 458.964 83.675 458.964 85.075C458.964 86.4517 459.116 87.63 459.419 88.61C459.722 89.59 460.072 90.325 460.469 90.815C461.309 91.7483 462.266 92.2967 463.339 92.46C464.086 92.5767 464.832 92.5767 465.579 92.46C465.906 92.4367 466.361 92.2733 466.944 91.97C467.574 91.6433 468.087 91.235 468.484 90.745C468.881 90.255 469.219 89.5433 469.499 88.61C469.802 87.63 469.954 86.4517 469.954 85.075C469.954 83.675 469.802 82.5083 469.499 81.575C469.172 80.5483 468.811 79.8133 468.414 79.37C468.041 78.9267 467.574 78.5533 467.014 78.25C466.454 77.9467 465.976 77.76 465.579 77.69C464.832 77.5733 464.086 77.5733 463.339 77.69C463.012 77.7133 462.546 77.8883 461.939 78.215C460.749 78.7983 459.909 79.9183 459.419 81.575ZM480.312 76.22V90.395L489.587 76.22H493.017V94H489.937V79.79L480.697 94H477.232V76.22H480.312ZM488.432 69.5H491.057C490.567 72.0667 489.027 73.5717 486.437 74.015C485.994 74.085 485.527 74.12 485.037 74.12C482.027 74.12 480.102 72.895 479.262 70.445C479.192 70.2817 479.11 69.9667 479.017 69.5H481.642C481.572 70.1067 481.782 70.6783 482.272 71.215C482.622 71.5883 483.03 71.8683 483.497 72.055C483.917 72.195 484.43 72.265 485.037 72.265C486.04 72.265 486.869 72.02 487.522 71.53C488.175 71.0167 488.479 70.34 488.432 69.5ZM184.595 113.39H175.6V129H172.52V111.22H187.675V129H184.595V113.39ZM190.655 129V126.725C192.405 127.238 193.642 126.41 194.365 124.24C194.552 123.703 194.68 123.038 194.75 122.245L194.89 120.11C194.914 119.737 194.925 119.002 194.925 117.905V111.22H207.245V129H204.165V113.39H197.795V117.905C197.795 119.375 197.76 120.612 197.69 121.615C197.62 122.595 197.445 123.668 197.165 124.835C196.769 126.492 196.057 127.67 195.03 128.37C194.004 129.07 192.545 129.28 190.655 129ZM211.711 123.61C211.104 121.113 211.128 118.698 211.781 116.365C212.434 114.032 213.811 112.363 215.911 111.36C217.078 110.8 218.443 110.52 220.006 110.52C221.569 110.52 222.934 110.8 224.101 111.36C226.201 112.34 227.589 114.09 228.266 116.61C228.569 117.777 228.721 118.955 228.721 120.145C228.744 121.312 228.604 122.467 228.301 123.61C228.021 124.73 227.519 125.757 226.796 126.69C226.096 127.623 225.198 128.358 224.101 128.895C222.911 129.432 221.546 129.7 220.006 129.7C218.466 129.7 217.101 129.432 215.911 128.895C213.881 127.915 212.481 126.153 211.711 123.61ZM214.966 116.575C214.663 117.508 214.511 118.675 214.511 120.075C214.511 121.452 214.663 122.63 214.966 123.61C215.269 124.59 215.619 125.325 216.016 125.815C216.856 126.748 217.813 127.297 218.886 127.46C219.633 127.577 220.379 127.577 221.126 127.46C221.453 127.437 221.908 127.273 222.491 126.97C223.121 126.643 223.634 126.235 224.031 125.745C224.428 125.255 224.766 124.543 225.046 123.61C225.349 122.63 225.501 121.452 225.501 120.075C225.501 118.675 225.349 117.508 225.046 116.575C224.719 115.548 224.358 114.813 223.961 114.37C223.588 113.927 223.121 113.553 222.561 113.25C222.001 112.947 221.523 112.76 221.126 112.69C220.379 112.573 219.633 112.573 218.886 112.69C218.559 112.713 218.093 112.888 217.486 113.215C216.296 113.798 215.456 114.918 214.966 116.575ZM235.78 129V113.39H229.62V111.22H245.02V113.39H238.86V129H235.78ZM259.239 120.705H250.454V129H247.374V111.22H250.454V118.535H259.239V111.22H262.319V129H259.239V120.705ZM266.809 123.61C266.202 121.113 266.225 118.698 266.879 116.365C267.532 114.032 268.909 112.363 271.009 111.36C272.175 110.8 273.54 110.52 275.104 110.52C276.667 110.52 278.032 110.8 279.199 111.36C281.299 112.34 282.687 114.09 283.364 116.61C283.667 117.777 283.819 118.955 283.819 120.145C283.842 121.312 283.702 122.467 283.399 123.61C283.119 124.73 282.617 125.757 281.894 126.69C281.194 127.623 280.295 128.358 279.199 128.895C278.009 129.432 276.644 129.7 275.104 129.7C273.564 129.7 272.199 129.432 271.009 128.895C268.979 127.915 267.579 126.153 266.809 123.61ZM270.064 116.575C269.76 117.508 269.609 118.675 269.609 120.075C269.609 121.452 269.76 122.63 270.064 123.61C270.367 124.59 270.717 125.325 271.114 125.815C271.954 126.748 272.91 127.297 273.984 127.46C274.73 127.577 275.477 127.577 276.224 127.46C276.55 127.437 277.005 127.273 277.589 126.97C278.219 126.643 278.732 126.235 279.129 125.745C279.525 125.255 279.864 124.543 280.144 123.61C280.447 122.63 280.599 121.452 280.599 120.075C280.599 118.675 280.447 117.508 280.144 116.575C279.817 115.548 279.455 114.813 279.059 114.37C278.685 113.927 278.219 113.553 277.659 113.25C277.099 112.947 276.62 112.76 276.224 112.69C275.477 112.573 274.73 112.573 273.984 112.69C273.657 112.713 273.19 112.888 272.584 113.215C271.394 113.798 270.554 114.918 270.064 116.575ZM300.336 122.665H303.276C303.183 124.018 302.67 125.442 301.736 126.935C301.223 127.775 300.418 128.452 299.321 128.965C298.248 129.455 296.988 129.7 295.541 129.7C295.051 129.7 294.701 129.688 294.491 129.665C293.465 129.618 292.415 129.35 291.341 128.86C288.355 127.367 286.861 124.403 286.861 119.97C286.861 117.637 287.398 115.56 288.471 113.74C289.801 111.593 292.088 110.52 295.331 110.52C297.618 110.52 299.438 111.103 300.791 112.27C302.145 113.413 302.926 114.918 303.136 116.785H300.196C299.73 114.055 298.131 112.69 295.401 112.69C293.628 112.69 292.298 113.343 291.411 114.65C290.548 115.933 290.116 117.707 290.116 119.97C290.116 122.163 290.571 123.972 291.481 125.395C292.391 126.818 293.768 127.53 295.611 127.53C297.198 127.53 298.353 127.028 299.076 126.025C299.846 125.022 300.266 123.902 300.336 122.665ZM310.531 129V113.39H304.371V111.22H319.771V113.39H313.611V129H310.531ZM325.204 111.22V125.395L334.479 111.22H337.909V129H334.829V114.79L325.589 129H322.124V111.22H325.204ZM351.109 129V111.22H359.579C363.336 111.22 365.214 112.632 365.214 115.455C365.214 117.485 364.141 118.873 361.994 119.62V119.725C363.441 120.075 364.444 120.635 365.004 121.405C365.587 122.175 365.879 123.167 365.879 124.38C365.879 126.317 365.167 127.6 363.744 128.23C362.577 128.743 361.154 129 359.474 129H351.109ZM358.599 113.39H354.189V118.64H358.459C359.696 118.64 360.606 118.395 361.189 117.905C361.796 117.392 362.099 116.727 362.099 115.91C362.099 114.23 360.932 113.39 358.599 113.39ZM358.599 120.81H354.189V126.83H358.704C361.364 126.83 362.694 125.92 362.694 124.1C362.694 121.907 361.329 120.81 358.599 120.81ZM369.976 129V111.22H373.056V118.255H377.536C378.959 118.255 380.149 118.395 381.106 118.675C383.393 119.258 384.583 120.927 384.676 123.68C384.676 125.313 384.174 126.608 383.171 127.565C382.191 128.522 380.663 129 378.586 129H369.976ZM376.801 120.425H373.056V126.83H377.361C380.114 126.83 381.491 125.71 381.491 123.47C381.491 122.373 381.129 121.58 380.406 121.09C380.173 120.903 379.788 120.752 379.251 120.635C378.691 120.495 377.874 120.425 376.801 120.425ZM386.846 129V111.22H389.926V129H386.846ZM407.421 122.665H410.361C410.268 124.018 409.755 125.442 408.821 126.935C408.308 127.775 407.503 128.452 406.406 128.965C405.333 129.455 404.073 129.7 402.626 129.7C402.136 129.7 401.786 129.688 401.576 129.665C400.55 129.618 399.5 129.35 398.426 128.86C395.44 127.367 393.946 124.403 393.946 119.97C393.946 117.637 394.483 115.56 395.556 113.74C396.886 111.593 399.173 110.52 402.416 110.52C404.703 110.52 406.523 111.103 407.876 112.27C409.23 113.413 410.011 114.918 410.221 116.785H407.281C406.815 114.055 405.216 112.69 402.486 112.69C400.713 112.69 399.383 113.343 398.496 114.65C397.633 115.933 397.201 117.707 397.201 119.97C397.201 122.163 397.656 123.972 398.566 125.395C399.476 126.818 400.853 127.53 402.696 127.53C404.283 127.53 405.438 127.028 406.161 126.025C406.931 125.022 407.351 123.902 407.421 122.665ZM413.576 123.61C412.97 121.113 412.993 118.698 413.646 116.365C414.3 114.032 415.676 112.363 417.776 111.36C418.943 110.8 420.308 110.52 421.871 110.52C423.435 110.52 424.8 110.8 425.966 111.36C428.066 112.34 429.455 114.09 430.131 116.61C430.435 117.777 430.586 118.955 430.586 120.145C430.61 121.312 430.47 122.467 430.166 123.61C429.886 124.73 429.385 125.757 428.661 126.69C427.961 127.623 427.063 128.358 425.966 128.895C424.776 129.432 423.411 129.7 421.871 129.7C420.331 129.7 418.966 129.432 417.776 128.895C415.746 127.915 414.346 126.153 413.576 123.61ZM416.831 116.575C416.528 117.508 416.376 118.675 416.376 120.075C416.376 121.452 416.528 122.63 416.831 123.61C417.135 124.59 417.485 125.325 417.881 125.815C418.721 126.748 419.678 127.297 420.751 127.46C421.498 127.577 422.245 127.577 422.991 127.46C423.318 127.437 423.773 127.273 424.356 126.97C424.986 126.643 425.5 126.235 425.896 125.745C426.293 125.255 426.631 124.543 426.911 123.61C427.215 122.63 427.366 121.452 427.366 120.075C427.366 118.675 427.215 117.508 426.911 116.575C426.585 115.548 426.223 114.813 425.826 114.37C425.453 113.927 424.986 113.553 424.426 113.25C423.866 112.947 423.388 112.76 422.991 112.69C422.245 112.573 421.498 112.573 420.751 112.69C420.425 112.713 419.958 112.888 419.351 113.215C418.161 113.798 417.321 114.918 416.831 116.575ZM437.724 111.22V118.99L445.319 111.22H448.924L440.594 119.48L449.379 129H445.704L437.724 120.11V129H434.644V111.22H437.724ZM450.559 123.61C449.952 121.113 449.975 118.698 450.629 116.365C451.282 114.032 452.659 112.363 454.759 111.36C455.925 110.8 457.29 110.52 458.854 110.52C460.417 110.52 461.782 110.8 462.949 111.36C465.049 112.34 466.437 114.09 467.114 116.61C467.417 117.777 467.569 118.955 467.569 120.145C467.592 121.312 467.452 122.467 467.149 123.61C466.869 124.73 466.367 125.757 465.644 126.69C464.944 127.623 464.045 128.358 462.949 128.895C461.759 129.432 460.394 129.7 458.854 129.7C457.314 129.7 455.949 129.432 454.759 128.895C452.729 127.915 451.329 126.153 450.559 123.61ZM453.814 116.575C453.51 117.508 453.359 118.675 453.359 120.075C453.359 121.452 453.51 122.63 453.814 123.61C454.117 124.59 454.467 125.325 454.864 125.815C455.704 126.748 456.66 127.297 457.734 127.46C458.48 127.577 459.227 127.577 459.974 127.46C460.3 127.437 460.755 127.273 461.339 126.97C461.969 126.643 462.482 126.235 462.879 125.745C463.275 125.255 463.614 124.543 463.894 123.61C464.197 122.63 464.349 121.452 464.349 120.075C464.349 118.675 464.197 117.508 463.894 116.575C463.567 115.548 463.205 114.813 462.809 114.37C462.435 113.927 461.969 113.553 461.409 113.25C460.849 112.947 460.37 112.76 459.974 112.69C459.227 112.573 458.48 112.573 457.734 112.69C457.407 112.713 456.94 112.888 456.334 113.215C455.144 113.798 454.304 114.918 453.814 116.575ZM483.806 113.39H474.706V129H471.626V111.22H483.806V113.39ZM485.319 123.61C484.713 121.113 484.736 118.698 485.389 116.365C486.043 114.032 487.419 112.363 489.519 111.36C490.686 110.8 492.051 110.52 493.614 110.52C495.178 110.52 496.543 110.8 497.709 111.36C499.809 112.34 501.198 114.09 501.874 116.61C502.178 117.777 502.329 118.955 502.329 120.145C502.353 121.312 502.213 122.467 501.909 123.61C501.629 124.73 501.128 125.757 500.404 126.69C499.704 127.623 498.806 128.358 497.709 128.895C496.519 129.432 495.154 129.7 493.614 129.7C492.074 129.7 490.709 129.432 489.519 128.895C487.489 127.915 486.089 126.153 485.319 123.61ZM488.574 116.575C488.271 117.508 488.119 118.675 488.119 120.075C488.119 121.452 488.271 122.63 488.574 123.61C488.878 124.59 489.228 125.325 489.624 125.815C490.464 126.748 491.421 127.297 492.494 127.46C493.241 127.577 493.988 127.577 494.734 127.46C495.061 127.437 495.516 127.273 496.099 126.97C496.729 126.643 497.243 126.235 497.639 125.745C498.036 125.255 498.374 124.543 498.654 123.61C498.958 122.63 499.109 121.452 499.109 120.075C499.109 118.675 498.958 117.508 498.654 116.575C498.328 115.548 497.966 114.813 497.569 114.37C497.196 113.927 496.729 113.553 496.169 113.25C495.609 112.947 495.131 112.76 494.734 112.69C493.988 112.573 493.241 112.573 492.494 112.69C492.168 112.713 491.701 112.888 491.094 113.215C489.904 113.798 489.064 114.918 488.574 116.575ZM170.28 168.62L170 161.83H172.24C174.177 158.983 175.145 154.772 175.145 149.195V146.22H187.885V161.83H190.965L190.72 168.62H188.13V164H172.87V168.62H170.28ZM184.805 161.83V148.39H178.015V150.875C178.015 152.765 177.805 154.725 177.385 156.755C177.012 158.762 176.382 160.453 175.495 161.83H184.805ZM195.954 151.47H193.014C193.014 150.07 193.481 148.787 194.414 147.62C195.534 146.22 197.587 145.52 200.574 145.52C202.324 145.52 203.864 145.87 205.194 146.57C205.964 146.943 206.571 147.562 207.014 148.425C207.457 149.288 207.667 150.315 207.644 151.505L207.469 159.73C207.469 160.407 207.539 160.932 207.679 161.305C207.889 161.678 208.437 161.853 209.324 161.83V164C208.974 164.093 208.507 164.14 207.924 164.14C206.897 164.14 206.151 163.965 205.684 163.615C205.241 163.265 204.926 162.577 204.739 161.55C203.596 163.65 201.566 164.7 198.649 164.7C196.642 164.7 195.091 164.257 193.994 163.37C192.921 162.46 192.384 161.118 192.384 159.345C192.384 157.665 192.991 156.393 194.204 155.53C195.417 154.62 197.716 154.013 201.099 153.71C202.662 153.593 203.596 153.442 203.899 153.255C204.342 152.952 204.564 152.287 204.564 151.26C204.564 148.88 203.234 147.69 200.574 147.69C197.424 147.69 195.884 148.95 195.954 151.47ZM204.494 156.405L204.564 154.9C204.214 155.157 203.701 155.367 203.024 155.53C201.997 155.6 201.204 155.682 200.644 155.775C198.707 156.102 197.529 156.37 197.109 156.58C196.082 157.07 195.569 157.957 195.569 159.24C195.569 160.267 195.872 161.072 196.479 161.655C197.109 162.238 197.949 162.53 198.999 162.53C199.676 162.53 200.294 162.437 200.854 162.25C201.437 162.063 201.997 161.76 202.534 161.34C203.094 160.897 203.537 160.255 203.864 159.415C204.214 158.575 204.424 157.572 204.494 156.405ZM212.955 164V146.22H221.425C225.181 146.22 227.06 147.632 227.06 150.455C227.06 152.485 225.986 153.873 223.84 154.62V154.725C225.286 155.075 226.29 155.635 226.85 156.405C227.433 157.175 227.725 158.167 227.725 159.38C227.725 161.317 227.013 162.6 225.59 163.23C224.423 163.743 223 164 221.32 164H212.955ZM220.445 148.39H216.035V153.64H220.305C221.541 153.64 222.451 153.395 223.035 152.905C223.641 152.392 223.945 151.727 223.945 150.91C223.945 149.23 222.778 148.39 220.445 148.39ZM220.445 155.81H216.035V161.83H220.55C223.21 161.83 224.54 160.92 224.54 159.1C224.54 156.907 223.175 155.81 220.445 155.81ZM229.757 164V161.725C231.507 162.238 232.743 161.41 233.467 159.24C233.653 158.703 233.782 158.038 233.852 157.245L233.992 155.11C234.015 154.737 234.027 154.002 234.027 152.905V146.22H246.347V164H243.267V148.39H236.897V152.905C236.897 154.375 236.862 155.612 236.792 156.615C236.722 157.595 236.547 158.668 236.267 159.835C235.87 161.492 235.158 162.67 234.132 163.37C233.105 164.07 231.647 164.28 229.757 164ZM264.183 158.855H267.123C266.843 160.418 266.084 161.783 264.848 162.95C263.611 164.117 261.779 164.7 259.353 164.7C256.063 164.7 253.648 163.615 252.108 161.445C251.338 160.302 250.836 159.077 250.603 157.77C250.439 156.86 250.358 155.997 250.358 155.18C250.358 153.617 250.591 152.147 251.058 150.77C251.361 149.79 251.804 148.938 252.388 148.215C253.018 147.445 253.916 146.803 255.083 146.29C256.249 145.777 257.568 145.52 259.038 145.52C261.651 145.52 263.623 146.243 264.953 147.69C265.513 148.297 265.968 149.067 266.318 150C266.831 151.353 267.146 152.998 267.263 154.935C267.263 155.005 267.263 155.157 267.263 155.39C267.286 155.623 267.298 155.763 267.298 155.81H253.613C253.613 157.583 254.079 159.147 255.013 160.5C255.946 161.853 257.358 162.53 259.248 162.53C260.601 162.53 261.709 162.192 262.573 161.515C263.436 160.838 263.973 159.952 264.183 158.855ZM253.613 153.64H264.043C264.019 152.263 263.693 150.992 263.063 149.825C262.339 148.402 261.021 147.69 259.108 147.69C256.938 147.69 255.444 148.413 254.628 149.86C253.951 151.027 253.613 152.287 253.613 153.64ZM283.198 155.705H274.413V164H271.333V146.22H274.413V153.535H283.198V146.22H286.278V164H283.198V155.705ZM294.409 146.22V160.395L303.684 146.22H307.114V164H304.034V149.79L294.794 164H291.329V146.22H294.409ZM323.029 157H318.969L314.314 164H310.919L315.819 156.965C314.466 156.825 313.369 156.3 312.529 155.39C311.689 154.48 311.269 153.29 311.269 151.82C311.269 150.443 311.631 149.242 312.354 148.215C313.217 146.885 314.851 146.22 317.254 146.22H326.109V164H323.029V157ZM323.029 154.83V148.39H318.584C315.831 148.39 314.454 149.498 314.454 151.715C314.454 152.625 314.792 153.372 315.469 153.955C316.146 154.538 317.219 154.83 318.689 154.83H323.029Z" fill="black"/>
<path d="M75.75 450H82V456.167H75.75V450ZM69.5 462.333V456.167H75.75V462.333H69.5ZM63.25 468.5V462.333H69.5V468.5H63.25ZM57 474.667H63.25V468.5H57V474.667ZM50.75 480.833H57V474.667H50.75V480.833ZM44.5 480.833V487H50.75V480.833H44.5ZM38.25 474.667H44.5V480.833H38.25V474.667ZM38.25 474.667H32V468.5H38.25V474.667Z" fill="black"/>
<path d="M141.031 230.02L132.719 215.06L125.727 218.94L134.039 233.908C134.676 235.042 135.004 236.325 134.988 237.626C134.971 238.928 134.612 240.202 133.947 241.32C132.587 243.624 130.183 245 127.507 245H98.3189L108.639 234.64L102.999 229L82.999 249L102.999 269L108.639 263.36L98.3189 253H127.511C130.207 253.014 132.859 252.317 135.199 250.978C137.539 249.64 139.484 247.707 140.839 245.376C142.22 243.059 142.965 240.419 142.999 237.722C143.033 235.025 142.354 232.371 141.031 230.02ZM46.4913 245C45.1889 245.008 43.9077 244.671 42.7769 244.025C41.6462 243.379 40.706 242.446 40.0513 241.32C39.3862 240.201 39.0278 238.927 39.0124 237.626C38.9969 236.324 39.3249 235.042 39.9633 233.908L56.4032 204.308L60.5992 218.388L68.2471 216.12L60.2112 189L33.0914 197.032L35.3594 204.68L49.3313 200.56L32.9714 230.02C31.6478 232.37 30.9681 235.028 31.0011 237.725C31.0342 240.422 31.7787 243.063 33.1594 245.38C34.5145 247.711 36.4608 249.643 38.8017 250.981C41.1425 252.319 43.7951 253.015 46.4913 253H70.9991V245H46.4913ZM125.039 179.616L120.847 193.692L100.399 156.88C97.6549 151.948 92.6469 149 86.999 149C81.351 149 76.3391 151.948 73.5991 156.884L61.2792 179.06L68.2751 182.94L80.595 160.768C81.899 158.408 84.295 157 86.999 157C89.703 157 92.0949 158.412 93.4069 160.768L113.775 197.436L99.7989 193.316L97.5349 200.968L124.655 209L132.687 181.88L125.039 179.616Z" fill="black"/>
<path d="M87.3268 219.645H75.8118V215.935L87.3618 200.5H91.8068V215.935H95.2018V219.645H91.8068V225H87.3268V219.645ZM80.3268 215.935H87.3268V206.205L80.3268 215.935Z" fill="black"/>
<path d="M372.205 61.975H370L382.495 31H384.7L372.205 61.975Z" fill="black"/>
</svg>
