<svg width="320" height="320" viewBox="0 0 320 320" fill="none" xmlns="http://www.w3.org/2000/svg">
<rect width="318.681" height="318.681" transform="translate(0.680664 0.668945)" fill="#FFFF00"/>
<path d="M25.6393 172.546V180.861H26.9916L26.8711 184.035H25.7732V181.919H18.489V184.035H17.3911L17.2839 180.861H18.1275C19.3147 179.379 19.9084 177.25 19.9084 174.474V172.546H25.6393ZM24.3806 180.861V173.604H21.167V174.769C21.167 176.099 21.0554 177.228 20.8323 178.156C20.6002 179.12 20.1985 180.022 19.6272 180.861H24.3806ZM29.0307 177.125H27.9059C27.9059 176.59 28.0845 176.099 28.4415 175.652C28.87 175.117 29.6555 174.849 30.7982 174.849C31.4677 174.849 32.0568 174.983 32.5656 175.251C32.8602 175.394 33.0923 175.63 33.2619 175.96C33.4315 176.291 33.5119 176.683 33.5029 177.139L33.436 180.285C33.436 180.544 33.4628 180.745 33.5163 180.888C33.5967 181.031 33.8064 181.098 34.1456 181.089V181.919C34.0117 181.955 33.8332 181.973 33.61 181.973C33.2173 181.973 32.9316 181.906 32.7531 181.772C32.5835 181.638 32.463 181.374 32.3916 180.982C31.9542 181.785 31.1775 182.187 30.0617 182.187C29.294 182.187 28.7004 182.017 28.2808 181.678C27.8702 181.33 27.6649 180.817 27.6649 180.138C27.6649 179.495 27.897 179.009 28.3612 178.679C28.8254 178.33 29.7046 178.098 30.999 177.982C31.5971 177.938 31.9542 177.88 32.0702 177.808C32.2398 177.692 32.3246 177.438 32.3246 177.045C32.3246 176.134 31.8158 175.679 30.7982 175.679C29.5931 175.679 29.0039 176.161 29.0307 177.125ZM32.2978 179.013L32.3246 178.438C32.1907 178.536 31.9943 178.616 31.7355 178.679C31.3427 178.705 31.0392 178.737 30.8249 178.772C30.084 178.897 29.6332 179 29.4726 179.08C29.0798 179.268 28.8834 179.607 28.8834 180.098C28.8834 180.491 28.9994 180.799 29.2315 181.022C29.4726 181.245 29.7939 181.357 30.1956 181.357C30.4545 181.357 30.691 181.321 30.9053 181.249C31.1284 181.178 31.3427 181.062 31.548 180.901C31.7622 180.732 31.9318 180.486 32.0568 180.165C32.1907 179.844 32.2711 179.46 32.2978 179.013ZM40.0738 178.746H36.713V181.919H35.5346V175.117H36.713V177.915H40.0738V175.117H41.2521V181.919H40.0738V178.746ZM47.7234 178.746H44.3625V181.919H43.1842V175.117H44.3625V177.915H47.7234V175.117H48.9017V181.919H47.7234V178.746ZM50.8337 181.919V175.117H52.012V177.808H53.7259C54.2705 177.808 54.7257 177.862 55.0917 177.969C55.9665 178.192 56.4218 178.83 56.4575 179.884C56.4575 180.509 56.2656 181.004 55.8817 181.37C55.5068 181.736 54.9221 181.919 54.1276 181.919H50.8337ZM53.4447 178.638H52.012V181.089H53.659C54.7123 181.089 55.239 180.66 55.239 179.803C55.239 179.384 55.1006 179.08 54.8239 178.893C54.7346 178.821 54.5874 178.763 54.382 178.719C54.1678 178.665 53.8554 178.638 53.4447 178.638ZM57.2877 181.919V175.117H58.466V181.919H57.2877ZM61.5707 175.117V180.54L65.119 175.117H66.4312V181.919H65.2529V176.483L61.7179 181.919H60.3923V175.117H61.5707ZM64.6771 172.546H65.6814C65.4939 173.528 64.9048 174.104 63.9139 174.273C63.7443 174.3 63.5658 174.313 63.3783 174.313C62.2268 174.313 61.4903 173.845 61.169 172.908C61.1422 172.845 61.1109 172.725 61.0752 172.546H62.0795C62.0527 172.778 62.133 172.997 62.3205 173.202C62.4544 173.345 62.6106 173.452 62.7891 173.523C62.9498 173.577 63.1462 173.604 63.3783 173.604C63.7621 173.604 64.079 173.51 64.329 173.323C64.5789 173.126 64.695 172.867 64.6771 172.546ZM71.4809 181.919V175.117H74.7213C76.1585 175.117 76.877 175.657 76.877 176.737C76.877 177.514 76.4664 178.045 75.6452 178.33V178.371C76.1986 178.505 76.5825 178.719 76.7967 179.013C77.0199 179.308 77.1315 179.687 77.1315 180.151C77.1315 180.892 76.8592 181.383 76.3147 181.624C75.8683 181.821 75.3238 181.919 74.6811 181.919H71.4809ZM74.3463 175.947H72.6592V177.956H74.2928C74.7659 177.956 75.114 177.862 75.3372 177.674C75.5693 177.478 75.6853 177.224 75.6853 176.911C75.6853 176.268 75.239 175.947 74.3463 175.947ZM74.3463 178.786H72.6592V181.089H74.3865C75.4041 181.089 75.913 180.741 75.913 180.044C75.913 179.205 75.3908 178.786 74.3463 178.786ZM79.8772 175.117V180.54L83.4256 175.117H84.7378V181.919H83.5595V176.483L80.0245 181.919H78.6989V175.117H79.8772ZM85.8053 183.686L85.6982 181.089H86.5552C87.2961 180 87.6665 178.388 87.6665 176.255V175.117H92.5405V181.089H93.7188L93.625 183.686H92.6342V181.919H86.7962V183.686H85.8053ZM91.3621 181.089V175.947H88.7645V176.898C88.7645 177.621 88.6842 178.371 88.5235 179.147C88.3806 179.915 88.1396 180.562 87.8004 181.089H91.3621ZM102.475 175.947H99.0337V181.919H97.8554V175.117H103.653V181.919H102.475V175.947ZM104.793 181.919V181.049C105.463 181.245 105.936 180.928 106.213 180.098C106.284 179.893 106.333 179.638 106.36 179.335L106.414 178.518C106.423 178.375 106.427 178.094 106.427 177.674V175.117H111.14V181.919H109.962V175.947H107.525V177.674C107.525 178.237 107.512 178.71 107.485 179.094C107.458 179.469 107.391 179.879 107.284 180.326C107.132 180.959 106.86 181.41 106.467 181.678C106.074 181.946 105.516 182.026 104.793 181.919ZM113.96 177.125H112.835C112.835 176.59 113.014 176.099 113.371 175.652C113.799 175.117 114.585 174.849 115.728 174.849C116.397 174.849 116.986 174.983 117.495 175.251C117.79 175.394 118.022 175.63 118.191 175.96C118.361 176.291 118.441 176.683 118.432 177.139L118.365 180.285C118.365 180.544 118.392 180.745 118.446 180.888C118.526 181.031 118.736 181.098 119.075 181.089V181.919C118.941 181.955 118.763 181.973 118.539 181.973C118.147 181.973 117.861 181.906 117.682 181.772C117.513 181.638 117.392 181.374 117.321 180.982C116.884 181.785 116.107 182.187 114.991 182.187C114.223 182.187 113.63 182.017 113.21 181.678C112.8 181.33 112.594 180.817 112.594 180.138C112.594 179.495 112.826 179.009 113.291 178.679C113.755 178.33 114.634 178.098 115.928 177.982C116.526 177.938 116.884 177.88 117 177.808C117.169 177.692 117.254 177.438 117.254 177.045C117.254 176.134 116.745 175.679 115.728 175.679C114.522 175.679 113.933 176.161 113.96 177.125ZM117.227 179.013L117.254 178.438C117.12 178.536 116.924 178.616 116.665 178.679C116.272 178.705 115.969 178.737 115.754 178.772C115.013 178.897 114.563 179 114.402 179.08C114.009 179.268 113.813 179.607 113.813 180.098C113.813 180.491 113.929 180.799 114.161 181.022C114.402 181.245 114.723 181.357 115.125 181.357C115.384 181.357 115.62 181.321 115.835 181.249C116.058 181.178 116.272 181.062 116.477 180.901C116.692 180.732 116.861 180.486 116.986 180.165C117.12 179.844 117.2 179.46 117.227 179.013ZM125.231 179.495H126.356C126.32 180.013 126.124 180.558 125.766 181.129C125.57 181.45 125.262 181.709 124.843 181.906C124.432 182.093 123.95 182.187 123.396 182.187C123.209 182.187 123.075 182.182 122.995 182.173C122.602 182.156 122.2 182.053 121.79 181.865C120.647 181.294 120.076 180.16 120.076 178.464C120.076 177.572 120.281 176.777 120.692 176.081C121.2 175.26 122.075 174.849 123.316 174.849C124.191 174.849 124.887 175.072 125.405 175.519C125.923 175.956 126.222 176.532 126.302 177.246H125.177C124.999 176.201 124.387 175.679 123.343 175.679C122.664 175.679 122.156 175.929 121.816 176.429C121.486 176.92 121.321 177.598 121.321 178.464C121.321 179.303 121.495 179.995 121.843 180.54C122.191 181.084 122.718 181.357 123.423 181.357C124.03 181.357 124.472 181.165 124.749 180.781C125.043 180.397 125.204 179.968 125.231 179.495ZM129.131 181.919V175.947H126.774V175.117H132.666V175.947H130.309V181.919H129.131ZM134.745 175.117V180.54L138.293 175.117H139.605V181.919H138.427V176.483L134.892 181.919H133.566V175.117H134.745ZM142.708 175.117V178.089L145.614 175.117H146.993L143.806 178.277L147.167 181.919H145.761L142.708 178.518V181.919H141.53V175.117H142.708ZM148.978 177.125H147.853C147.853 176.59 148.032 176.099 148.389 175.652C148.817 175.117 149.603 174.849 150.745 174.849C151.415 174.849 152.004 174.983 152.513 175.251C152.807 175.394 153.04 175.63 153.209 175.96C153.379 176.291 153.459 176.683 153.45 177.139L153.383 180.285C153.383 180.544 153.41 180.745 153.464 180.888C153.544 181.031 153.754 181.098 154.093 181.089V181.919C153.959 181.955 153.78 181.973 153.557 181.973C153.165 181.973 152.879 181.906 152.7 181.772C152.531 181.638 152.41 181.374 152.339 180.982C151.901 181.785 151.125 182.187 150.009 182.187C149.241 182.187 148.648 182.017 148.228 181.678C147.817 181.33 147.612 180.817 147.612 180.138C147.612 179.495 147.844 179.009 148.308 178.679C148.773 178.33 149.652 178.098 150.946 177.982C151.544 177.938 151.901 177.88 152.017 177.808C152.187 177.692 152.272 177.438 152.272 177.045C152.272 176.134 151.763 175.679 150.745 175.679C149.54 175.679 148.951 176.161 148.978 177.125ZM152.245 179.013L152.272 178.438C152.138 178.536 151.942 178.616 151.683 178.679C151.29 178.705 150.986 178.737 150.772 178.772C150.031 178.897 149.58 179 149.42 179.08C149.027 179.268 148.831 179.607 148.831 180.098C148.831 180.491 148.947 180.799 149.179 181.022C149.42 181.245 149.741 181.357 150.143 181.357C150.402 181.357 150.638 181.321 150.853 181.249C151.076 181.178 151.29 181.062 151.495 180.901C151.709 180.732 151.879 180.486 152.004 180.165C152.138 179.844 152.218 179.46 152.245 179.013ZM159.785 175.117V180.54L163.334 175.117H164.646V181.919H163.468V176.483L159.933 181.919H158.607V175.117H159.785ZM171.337 179.495H172.462C172.426 180.013 172.23 180.558 171.873 181.129C171.676 181.45 171.369 181.709 170.949 181.906C170.538 182.093 170.056 182.187 169.503 182.187C169.315 182.187 169.181 182.182 169.101 182.173C168.708 182.156 168.307 182.053 167.896 181.865C166.753 181.294 166.182 180.16 166.182 178.464C166.182 177.572 166.387 176.777 166.798 176.081C167.307 175.26 168.182 174.849 169.423 174.849C170.297 174.849 170.994 175.072 171.511 175.519C172.029 175.956 172.328 176.532 172.408 177.246H171.284C171.105 176.201 170.494 175.679 169.449 175.679C168.771 175.679 168.262 175.929 167.923 176.429C167.593 176.92 167.427 177.598 167.427 178.464C167.427 179.303 167.601 179.995 167.95 180.54C168.298 181.084 168.824 181.357 169.53 181.357C170.137 181.357 170.579 181.165 170.855 180.781C171.15 180.397 171.31 179.968 171.337 179.495ZM178.526 175.947H175.084V181.919H173.906V175.117H179.704V181.919H178.526V175.947ZM181.42 179.857C181.188 178.902 181.197 177.978 181.447 177.085C181.697 176.193 182.223 175.554 183.027 175.17C183.473 174.956 183.995 174.849 184.593 174.849C185.191 174.849 185.714 174.956 186.16 175.17C186.963 175.545 187.494 176.215 187.753 177.179C187.869 177.625 187.927 178.076 187.927 178.531C187.936 178.978 187.883 179.419 187.767 179.857C187.66 180.285 187.468 180.678 187.191 181.035C186.923 181.392 186.579 181.673 186.16 181.879C185.705 182.084 185.182 182.187 184.593 182.187C184.004 182.187 183.482 182.084 183.027 181.879C182.25 181.504 181.714 180.83 181.42 179.857ZM182.665 177.166C182.549 177.523 182.491 177.969 182.491 178.505C182.491 179.031 182.549 179.482 182.665 179.857C182.781 180.232 182.915 180.513 183.067 180.7C183.388 181.058 183.754 181.267 184.165 181.33C184.45 181.374 184.736 181.374 185.022 181.33C185.147 181.321 185.321 181.258 185.544 181.142C185.785 181.017 185.981 180.861 186.133 180.674C186.285 180.486 186.414 180.214 186.521 179.857C186.638 179.482 186.696 179.031 186.696 178.505C186.696 177.969 186.638 177.523 186.521 177.166C186.396 176.773 186.258 176.492 186.106 176.322C185.964 176.152 185.785 176.01 185.571 175.893C185.357 175.777 185.174 175.706 185.022 175.679C184.736 175.635 184.45 175.635 184.165 175.679C184.04 175.688 183.861 175.755 183.629 175.88C183.174 176.103 182.853 176.532 182.665 177.166ZM188.69 181.919V181.049C189.359 181.245 189.832 180.928 190.109 180.098C190.181 179.893 190.23 179.638 190.256 179.335L190.31 178.518C190.319 178.375 190.323 178.094 190.323 177.674V175.117H195.037V181.919H193.858V175.947H191.421V177.674C191.421 178.237 191.408 178.71 191.381 179.094C191.354 179.469 191.287 179.879 191.18 180.326C191.029 180.959 190.756 181.41 190.364 181.678C189.971 181.946 189.413 182.026 188.69 181.919ZM196.959 181.919V175.117H198.138V177.822H199.838C200.508 177.822 201.083 177.92 201.565 178.116C202.235 178.357 202.57 178.92 202.57 179.803C202.57 180.535 202.355 181.08 201.927 181.437C201.748 181.58 201.539 181.687 201.298 181.758C200.976 181.865 200.624 181.919 200.24 181.919H196.959ZM199.57 178.652H198.138V181.089H199.771C200.325 181.089 200.731 180.977 200.99 180.754C201.249 180.495 201.369 180.178 201.351 179.803C201.351 179.393 201.217 179.089 200.95 178.893C200.86 178.83 200.717 178.777 200.521 178.732C200.307 178.679 200.026 178.652 199.678 178.652H199.57ZM203.223 179.83H204.348C204.348 180.276 204.509 180.642 204.83 180.928C205.151 181.214 205.593 181.357 206.156 181.357C206.709 181.357 207.142 181.245 207.455 181.022C207.767 180.79 207.923 180.455 207.923 180.018C207.923 179.205 207.41 178.799 206.383 178.799H205.379V177.969H206.249C207.196 177.969 207.669 177.616 207.669 176.911C207.669 176.795 207.651 176.679 207.615 176.563C207.588 176.447 207.526 176.317 207.428 176.175C207.339 176.023 207.182 175.902 206.959 175.813C206.736 175.724 206.459 175.679 206.129 175.679C205.54 175.679 205.125 175.818 204.884 176.094C204.643 176.371 204.522 176.67 204.522 176.991H203.397C203.424 176.527 203.545 176.139 203.759 175.827C203.973 175.514 204.25 175.291 204.589 175.157C205.143 174.952 205.678 174.849 206.196 174.849C206.651 174.849 207.053 174.903 207.401 175.01C207.749 175.108 208.012 175.228 208.191 175.371C208.378 175.514 208.526 175.684 208.633 175.88C208.749 176.076 208.82 176.251 208.847 176.402C208.874 176.545 208.887 176.688 208.887 176.831C208.887 177.625 208.494 178.121 207.709 178.317V178.357C208.129 178.42 208.472 178.603 208.74 178.906C209.008 179.21 209.142 179.607 209.142 180.098C209.142 180.598 208.963 181.053 208.606 181.464C208.169 181.946 207.383 182.187 206.249 182.187C205.294 182.187 204.567 181.986 204.067 181.584C203.505 181.093 203.223 180.509 203.223 179.83ZM210.761 184.383V183.512C211.1 183.557 211.296 183.579 211.35 183.579C211.689 183.579 211.93 183.454 212.073 183.204C212.162 183.07 212.22 182.959 212.247 182.87C212.274 182.825 212.332 182.678 212.421 182.428L212.582 181.919L209.636 175.117H211.042L213.224 180.62L215.032 175.117H216.21L213.506 182.722C213.291 183.329 213.108 183.727 212.957 183.914C212.653 184.271 212.242 184.45 211.725 184.45C211.323 184.45 211.002 184.427 210.761 184.383ZM222.076 179.951H223.201C223.093 180.549 222.803 181.071 222.33 181.517C221.857 181.964 221.156 182.187 220.228 182.187C218.969 182.187 218.045 181.772 217.456 180.941C217.162 180.504 216.97 180.035 216.88 179.536C216.818 179.187 216.787 178.857 216.787 178.545C216.787 177.947 216.876 177.384 217.055 176.858C217.171 176.483 217.34 176.157 217.563 175.88C217.804 175.586 218.148 175.34 218.594 175.144C219.041 174.947 219.545 174.849 220.107 174.849C221.107 174.849 221.862 175.126 222.37 175.679C222.585 175.911 222.759 176.206 222.893 176.563C223.089 177.081 223.209 177.71 223.254 178.451C223.254 178.478 223.254 178.536 223.254 178.625C223.263 178.714 223.267 178.768 223.267 178.786H218.032C218.032 179.464 218.211 180.062 218.568 180.58C218.925 181.098 219.465 181.357 220.188 181.357C220.706 181.357 221.13 181.227 221.46 180.968C221.79 180.709 221.995 180.37 222.076 179.951ZM218.032 177.956H222.022C222.013 177.429 221.888 176.942 221.647 176.496C221.371 175.951 220.866 175.679 220.134 175.679C219.304 175.679 218.733 175.956 218.42 176.509C218.161 176.956 218.032 177.438 218.032 177.956ZM226.378 181.919V175.947H224.021V175.117H229.913V175.947H227.556V181.919H226.378ZM235.476 179.495H236.6C236.565 180.013 236.368 180.558 236.011 181.129C235.815 181.45 235.507 181.709 235.087 181.906C234.677 182.093 234.195 182.187 233.641 182.187C233.454 182.187 233.32 182.182 233.24 182.173C232.847 182.156 232.445 182.053 232.034 181.865C230.892 181.294 230.321 180.16 230.321 178.464C230.321 177.572 230.526 176.777 230.936 176.081C231.445 175.26 232.32 174.849 233.561 174.849C234.436 174.849 235.132 175.072 235.65 175.519C236.167 175.956 236.466 176.532 236.547 177.246H235.422C235.244 176.201 234.632 175.679 233.588 175.679C232.909 175.679 232.4 175.929 232.061 176.429C231.731 176.92 231.566 177.598 231.566 178.464C231.566 179.303 231.74 179.995 232.088 180.54C232.436 181.084 232.963 181.357 233.668 181.357C234.275 181.357 234.717 181.165 234.994 180.781C235.288 180.397 235.449 179.968 235.476 179.495ZM242.209 179.241H240.656L238.875 181.919H237.576L239.45 179.228C238.933 179.174 238.513 178.973 238.192 178.625C237.87 178.277 237.71 177.822 237.71 177.259C237.71 176.733 237.848 176.273 238.125 175.88C238.455 175.371 239.08 175.117 239.999 175.117H243.387V181.919H242.209V179.241ZM242.209 178.411V175.947H240.508C239.455 175.947 238.928 176.371 238.928 177.219C238.928 177.567 239.058 177.853 239.317 178.076C239.575 178.299 239.986 178.411 240.548 178.411H242.209ZM17.3911 198.686L17.2839 196.089H18.1409C18.8818 195 19.2523 193.388 19.2523 191.255V190.117H24.1262V196.089H25.3045L25.2108 198.686H24.2199V196.919H18.3819V198.686H17.3911ZM22.9479 196.089V190.947H20.3502V191.898C20.3502 192.621 20.2699 193.371 20.1092 194.147C19.9664 194.915 19.7254 195.562 19.3862 196.089H22.9479ZM25.866 196.919V196.049C26.5354 196.245 27.0086 195.928 27.2853 195.098C27.3567 194.893 27.4058 194.638 27.4326 194.335L27.4861 193.518C27.4951 193.375 27.4995 193.094 27.4995 192.674V190.117H32.2128V196.919H31.0345V190.947H28.5975V192.674C28.5975 193.237 28.5841 193.71 28.5573 194.094C28.5306 194.469 28.4636 194.879 28.3565 195.326C28.2047 195.959 27.9325 196.41 27.5397 196.678C27.1469 196.946 26.589 197.026 25.866 196.919ZM38.2998 194.241H36.7465L34.9657 196.919H33.6669L35.5414 194.228C35.0237 194.174 34.6041 193.973 34.2828 193.625C33.9614 193.277 33.8007 192.822 33.8007 192.259C33.8007 191.733 33.9391 191.273 34.2158 190.88C34.5461 190.371 35.171 190.117 36.0904 190.117H39.4781V196.919H38.2998V194.241ZM38.2998 193.411V190.947H36.5992C35.5459 190.947 35.0192 191.371 35.0192 192.219C35.0192 192.567 35.1487 192.853 35.4075 193.076C35.6664 193.299 36.077 193.411 36.6394 193.411H38.2998ZM45.7093 190.117V195.54L49.2577 190.117H50.5699V196.919H49.3916V191.483L45.8566 196.919H44.531V190.117H45.7093ZM51.9588 194.83H53.0835C53.0835 195.276 53.2442 195.642 53.5656 195.928C53.8869 196.214 54.3288 196.357 54.8912 196.357C55.4446 196.357 55.8776 196.245 56.19 196.022C56.5024 195.79 56.6586 195.455 56.6586 195.018C56.6586 194.205 56.1454 193.799 55.1188 193.799H54.1146V192.969H54.9849C55.9311 192.969 56.4042 192.616 56.4042 191.911C56.4042 191.795 56.3864 191.679 56.3507 191.563C56.3239 191.447 56.2614 191.317 56.1632 191.175C56.074 191.023 55.9177 190.902 55.6946 190.813C55.4714 190.724 55.1947 190.679 54.8644 190.679C54.2752 190.679 53.8601 190.818 53.6191 191.094C53.3781 191.371 53.2576 191.67 53.2576 191.991H52.1328C52.1596 191.527 52.2801 191.139 52.4944 190.827C52.7086 190.514 52.9853 190.291 53.3245 190.157C53.878 189.952 54.4136 189.849 54.9313 189.849C55.3866 189.849 55.7883 189.903 56.1364 190.01C56.4846 190.108 56.7479 190.228 56.9264 190.371C57.1139 190.514 57.2612 190.684 57.3683 190.88C57.4844 191.076 57.5558 191.251 57.5826 191.402C57.6093 191.545 57.6227 191.688 57.6227 191.831C57.6227 192.625 57.23 193.121 56.4444 193.317V193.357C56.864 193.42 57.2076 193.603 57.4754 193.906C57.7432 194.21 57.8771 194.607 57.8771 195.098C57.8771 195.598 57.6986 196.053 57.3415 196.464C56.9041 196.946 56.1186 197.187 54.9849 197.187C54.0298 197.187 53.3022 196.986 52.8023 196.584C52.24 196.093 51.9588 195.509 51.9588 194.83ZM64.0713 190.947H60.59V196.919H59.4116V190.117H64.0713V190.947ZM64.6501 194.857C64.418 193.902 64.427 192.978 64.6769 192.085C64.9269 191.193 65.4535 190.554 66.2569 190.17C66.7033 189.956 67.2255 189.849 67.8236 189.849C68.4216 189.849 68.9438 189.956 69.3902 190.17C70.1936 190.545 70.7247 191.215 70.9836 192.179C71.0996 192.625 71.1577 193.076 71.1577 193.531C71.1666 193.978 71.113 194.419 70.997 194.857C70.8899 195.285 70.6979 195.678 70.4212 196.035C70.1534 196.392 69.8097 196.673 69.3902 196.879C68.9349 197.084 68.4127 197.187 67.8236 197.187C67.2344 197.187 66.7122 197.084 66.2569 196.879C65.4803 196.504 64.9447 195.83 64.6501 194.857ZM65.8954 192.166C65.7794 192.523 65.7213 192.969 65.7213 193.505C65.7213 194.031 65.7794 194.482 65.8954 194.857C66.0115 195.232 66.1454 195.513 66.2971 195.7C66.6185 196.058 66.9845 196.267 67.3951 196.33C67.6807 196.374 67.9664 196.374 68.252 196.33C68.377 196.321 68.5511 196.258 68.7742 196.142C69.0153 196.017 69.2116 195.861 69.3634 195.674C69.5152 195.486 69.6446 195.214 69.7517 194.857C69.8678 194.482 69.9258 194.031 69.9258 193.505C69.9258 192.969 69.8678 192.523 69.7517 192.166C69.6267 191.773 69.4884 191.492 69.3366 191.322C69.1938 191.152 69.0153 191.01 68.801 190.893C68.5868 190.777 68.4038 190.706 68.252 190.679C67.9664 190.635 67.6807 190.635 67.3951 190.679C67.2701 190.688 67.0916 190.755 66.8595 190.88C66.4042 191.103 66.0829 191.532 65.8954 192.166ZM73.8582 196.919V190.947H71.5016V190.117H77.3932V190.947H75.0366V196.919H73.8582ZM78.0662 194.857C77.8341 193.902 77.8431 192.978 78.093 192.085C78.343 191.193 78.8696 190.554 79.673 190.17C80.1194 189.956 80.6416 189.849 81.2397 189.849C81.8377 189.849 82.3599 189.956 82.8063 190.17C83.6097 190.545 84.1408 191.215 84.3997 192.179C84.5157 192.625 84.5738 193.076 84.5738 193.531C84.5827 193.978 84.5291 194.419 84.4131 194.857C84.306 195.285 84.114 195.678 83.8373 196.035C83.5695 196.392 83.2258 196.673 82.8063 196.879C82.351 197.084 81.8288 197.187 81.2397 197.187C80.6505 197.187 80.1283 197.084 79.673 196.879C78.8964 196.504 78.3608 195.83 78.0662 194.857ZM79.3115 192.166C79.1955 192.523 79.1374 192.969 79.1374 193.505C79.1374 194.031 79.1955 194.482 79.3115 194.857C79.4276 195.232 79.5615 195.513 79.7132 195.7C80.0346 196.058 80.4006 196.267 80.8112 196.33C81.0968 196.374 81.3825 196.374 81.6681 196.33C81.7931 196.321 81.9672 196.258 82.1903 196.142C82.4314 196.017 82.6277 195.861 82.7795 195.674C82.9313 195.486 83.0607 195.214 83.1678 194.857C83.2839 194.482 83.3419 194.031 83.3419 193.505C83.3419 192.969 83.2839 192.523 83.1678 192.166C83.0428 191.773 82.9045 191.492 82.7527 191.322C82.6099 191.152 82.4314 191.01 82.2171 190.893C82.0029 190.777 81.8199 190.706 81.6681 190.679C81.3825 190.635 81.0968 190.635 80.8112 190.679C80.6862 190.688 80.5077 190.755 80.2756 190.88C79.8203 191.103 79.499 191.532 79.3115 192.166ZM86.1262 196.919V190.117H89.3665C90.8037 190.117 91.5223 190.657 91.5223 191.737C91.5223 192.514 91.1117 193.045 90.2904 193.33V193.371C90.8439 193.505 91.2277 193.719 91.442 194.013C91.6651 194.308 91.7767 194.687 91.7767 195.151C91.7767 195.892 91.5045 196.383 90.9599 196.624C90.5136 196.821 89.9691 196.919 89.3264 196.919H86.1262ZM88.9916 190.947H87.3045V192.956H88.938C89.4112 192.956 89.7593 192.862 89.9825 192.674C90.2146 192.478 90.3306 192.224 90.3306 191.911C90.3306 191.268 89.8843 190.947 88.9916 190.947ZM88.9916 193.786H87.3045V196.089H89.0318C90.0494 196.089 90.5582 195.741 90.5582 195.044C90.5582 194.205 90.036 193.786 88.9916 193.786ZM92.5542 196.919V196.049C93.2237 196.245 93.6968 195.928 93.9735 195.098C94.0449 194.893 94.094 194.638 94.1208 194.335L94.1743 193.518C94.1833 193.375 94.1877 193.094 94.1877 192.674V190.117H98.901V196.919H97.7227V190.947H95.2857V192.674C95.2857 193.237 95.2723 193.71 95.2455 194.094C95.2188 194.469 95.1518 194.879 95.0447 195.326C94.8929 195.959 94.6207 196.41 94.2279 196.678C93.8351 196.946 93.2772 197.026 92.5542 196.919ZM105.724 194.951H106.849C106.742 195.549 106.452 196.071 105.979 196.517C105.506 196.964 104.805 197.187 103.877 197.187C102.618 197.187 101.694 196.772 101.105 195.941C100.81 195.504 100.618 195.035 100.529 194.536C100.467 194.187 100.435 193.857 100.435 193.545C100.435 192.947 100.525 192.384 100.703 191.858C100.819 191.483 100.989 191.157 101.212 190.88C101.453 190.586 101.797 190.34 102.243 190.144C102.689 189.947 103.194 189.849 103.756 189.849C104.756 189.849 105.51 190.126 106.019 190.679C106.233 190.911 106.407 191.206 106.541 191.563C106.738 192.081 106.858 192.71 106.903 193.451C106.903 193.478 106.903 193.536 106.903 193.625C106.912 193.714 106.916 193.768 106.916 193.786H101.681C101.681 194.464 101.859 195.062 102.216 195.58C102.573 196.098 103.113 196.357 103.836 196.357C104.354 196.357 104.778 196.227 105.108 195.968C105.439 195.709 105.644 195.37 105.724 194.951ZM101.681 192.956H105.671C105.662 192.429 105.537 191.942 105.296 191.496C105.019 190.951 104.515 190.679 103.783 190.679C102.953 190.679 102.381 190.956 102.069 191.509C101.81 191.956 101.681 192.438 101.681 192.956ZM112.999 193.746H109.638V196.919H108.46V190.117H109.638V192.915H112.999V190.117H114.178V196.919H112.999V193.746ZM117.288 190.117V195.54L120.836 190.117H122.149V196.919H120.97V191.483L117.435 196.919H116.11V190.117H117.288ZM128.237 194.241H126.684L124.903 196.919H123.604L125.479 194.228C124.961 194.174 124.542 193.973 124.22 193.625C123.899 193.277 123.738 192.822 123.738 192.259C123.738 191.733 123.877 191.273 124.153 190.88C124.484 190.371 125.109 190.117 126.028 190.117H129.416V196.919H128.237V194.241ZM128.237 193.411V190.947H126.537C125.483 190.947 124.957 191.371 124.957 192.219C124.957 192.567 125.086 192.853 125.345 193.076C125.604 193.299 126.015 193.411 126.577 193.411H128.237ZM139.088 190.947H135.647V196.919H134.469V190.117H140.266V196.919H139.088V190.947ZM141.407 196.919V196.049C142.076 196.245 142.549 195.928 142.826 195.098C142.897 194.893 142.946 194.638 142.973 194.335L143.027 193.518C143.036 193.375 143.04 193.094 143.04 192.674V190.117H147.753V196.919H146.575V190.947H144.138V192.674C144.138 193.237 144.125 193.71 144.098 194.094C144.071 194.469 144.004 194.879 143.897 195.326C143.745 195.959 143.473 196.41 143.08 196.678C142.688 196.946 142.13 197.026 141.407 196.919ZM150.573 192.125H149.448C149.448 191.59 149.627 191.099 149.984 190.652C150.413 190.117 151.198 189.849 152.341 189.849C153.01 189.849 153.599 189.983 154.108 190.251C154.403 190.394 154.635 190.63 154.804 190.96C154.974 191.291 155.054 191.683 155.045 192.139L154.979 195.285C154.979 195.544 155.005 195.745 155.059 195.888C155.139 196.031 155.349 196.098 155.688 196.089V196.919C155.554 196.955 155.376 196.973 155.153 196.973C154.76 196.973 154.474 196.906 154.296 196.772C154.126 196.638 154.006 196.374 153.934 195.982C153.497 196.785 152.72 197.187 151.604 197.187C150.837 197.187 150.243 197.017 149.823 196.678C149.413 196.33 149.207 195.817 149.207 195.138C149.207 194.495 149.44 194.009 149.904 193.679C150.368 193.33 151.247 193.098 152.542 192.982C153.14 192.938 153.497 192.88 153.613 192.808C153.782 192.692 153.867 192.438 153.867 192.045C153.867 191.134 153.358 190.679 152.341 190.679C151.136 190.679 150.546 191.161 150.573 192.125ZM153.84 194.013L153.867 193.438C153.733 193.536 153.537 193.616 153.278 193.679C152.885 193.705 152.582 193.737 152.367 193.772C151.627 193.897 151.176 194 151.015 194.08C150.622 194.268 150.426 194.607 150.426 195.098C150.426 195.491 150.542 195.799 150.774 196.022C151.015 196.245 151.336 196.357 151.738 196.357C151.997 196.357 152.234 196.321 152.448 196.249C152.671 196.178 152.885 196.062 153.091 195.901C153.305 195.732 153.474 195.486 153.599 195.165C153.733 194.844 153.814 194.46 153.84 194.013ZM161.844 194.495H162.969C162.933 195.013 162.737 195.558 162.38 196.129C162.183 196.45 161.875 196.709 161.456 196.906C161.045 197.093 160.563 197.187 160.01 197.187C159.822 197.187 159.688 197.182 159.608 197.173C159.215 197.156 158.813 197.053 158.403 196.865C157.26 196.294 156.689 195.16 156.689 193.464C156.689 192.572 156.894 191.777 157.305 191.081C157.814 190.26 158.688 189.849 159.929 189.849C160.804 189.849 161.5 190.072 162.018 190.519C162.536 190.956 162.835 191.532 162.915 192.246H161.79C161.612 191.201 161 190.679 159.956 190.679C159.278 190.679 158.769 190.929 158.43 191.429C158.099 191.92 157.934 192.598 157.934 193.464C157.934 194.303 158.108 194.995 158.456 195.54C158.804 196.084 159.331 196.357 160.036 196.357C160.643 196.357 161.085 196.165 161.362 195.781C161.657 195.397 161.817 194.968 161.844 194.495ZM165.744 196.919V190.947H163.388V190.117H169.279V190.947H166.922V196.919H165.744ZM171.358 190.117V195.54L174.906 190.117H176.218V196.919H175.04V191.483L171.505 196.919H170.179V190.117H171.358ZM179.321 190.117V193.089L182.227 190.117H183.606L180.419 193.277L183.78 196.919H182.374L179.321 193.518V196.919H178.143V190.117H179.321ZM184.231 194.857C183.999 193.902 184.008 192.978 184.258 192.085C184.508 191.193 185.035 190.554 185.838 190.17C186.284 189.956 186.807 189.849 187.405 189.849C188.003 189.849 188.525 189.956 188.971 190.17C189.775 190.545 190.306 191.215 190.565 192.179C190.681 192.625 190.739 193.076 190.739 193.531C190.748 193.978 190.694 194.419 190.578 194.857C190.471 195.285 190.279 195.678 190.002 196.035C189.735 196.392 189.391 196.673 188.971 196.879C188.516 197.084 187.994 197.187 187.405 197.187C186.816 197.187 186.293 197.084 185.838 196.879C185.061 196.504 184.526 195.83 184.231 194.857ZM185.477 192.166C185.36 192.523 185.302 192.969 185.302 193.505C185.302 194.031 185.36 194.482 185.477 194.857C185.593 195.232 185.726 195.513 185.878 195.7C186.2 196.058 186.566 196.267 186.976 196.33C187.262 196.374 187.547 196.374 187.833 196.33C187.958 196.321 188.132 196.258 188.355 196.142C188.596 196.017 188.793 195.861 188.945 195.674C189.096 195.486 189.226 195.214 189.333 194.857C189.449 194.482 189.507 194.031 189.507 193.505C189.507 192.969 189.449 192.523 189.333 192.166C189.208 191.773 189.069 191.492 188.918 191.322C188.775 191.152 188.596 191.01 188.382 190.893C188.168 190.777 187.985 190.706 187.833 190.679C187.547 190.635 187.262 190.635 186.976 190.679C186.851 190.688 186.673 190.755 186.441 190.88C185.985 191.103 185.664 191.532 185.477 192.166ZM192.291 196.919V190.117H195.532C196.969 190.117 197.687 190.657 197.687 191.737C197.687 192.514 197.277 193.045 196.455 193.33V193.371C197.009 193.505 197.393 193.719 197.607 194.013C197.83 194.308 197.942 194.687 197.942 195.151C197.942 195.892 197.669 196.383 197.125 196.624C196.679 196.821 196.134 196.919 195.491 196.919H192.291ZM195.157 190.947H193.469V192.956H195.103C195.576 192.956 195.924 192.862 196.147 192.674C196.38 192.478 196.496 192.224 196.496 191.911C196.496 191.268 196.049 190.947 195.157 190.947ZM195.157 193.786H193.469V196.089H195.197C196.214 196.089 196.723 195.741 196.723 195.044C196.723 194.205 196.201 193.786 195.157 193.786ZM199.509 196.919V190.117H200.687V192.808H202.401C202.946 192.808 203.401 192.862 203.767 192.969C204.642 193.192 205.097 193.83 205.133 194.884C205.133 195.509 204.941 196.004 204.557 196.37C204.182 196.736 203.598 196.919 202.803 196.919H199.509ZM202.12 193.638H200.687V196.089H202.334C203.388 196.089 203.914 195.66 203.914 194.803C203.914 194.384 203.776 194.08 203.499 193.893C203.41 193.821 203.263 193.763 203.058 193.719C202.843 193.665 202.531 193.638 202.12 193.638ZM205.963 196.919V190.117H207.141V196.919H205.963ZM209.603 190.117L211.344 192.634L213.085 190.117H214.397L212.014 193.371L214.584 196.919H213.272L211.344 194.12L209.416 196.919H208.104L210.675 193.371L208.291 190.117H209.603ZM223.298 190.947H219.857V196.919H218.679V190.117H224.477V196.919H223.298V190.947ZM227.304 192.125H226.179C226.179 191.59 226.358 191.099 226.715 190.652C227.143 190.117 227.929 189.849 229.071 189.849C229.741 189.849 230.33 189.983 230.839 190.251C231.133 190.394 231.366 190.63 231.535 190.96C231.705 191.291 231.785 191.683 231.776 192.139L231.709 195.285C231.709 195.544 231.736 195.745 231.79 195.888C231.87 196.031 232.08 196.098 232.419 196.089V196.919C232.285 196.955 232.106 196.973 231.883 196.973C231.49 196.973 231.205 196.906 231.026 196.772C230.857 196.638 230.736 196.374 230.665 195.982C230.227 196.785 229.451 197.187 228.335 197.187C227.567 197.187 226.974 197.017 226.554 196.678C226.143 196.33 225.938 195.817 225.938 195.138C225.938 194.495 226.17 194.009 226.634 193.679C227.099 193.33 227.978 193.098 229.272 192.982C229.87 192.938 230.227 192.88 230.343 192.808C230.513 192.692 230.598 192.438 230.598 192.045C230.598 191.134 230.089 190.679 229.071 190.679C227.866 190.679 227.277 191.161 227.304 192.125ZM230.571 194.013L230.598 193.438C230.464 193.536 230.268 193.616 230.009 193.679C229.616 193.705 229.312 193.737 229.098 193.772C228.357 193.897 227.906 194 227.746 194.08C227.353 194.268 227.157 194.607 227.157 195.098C227.157 195.491 227.273 195.799 227.505 196.022C227.746 196.245 228.067 196.357 228.469 196.357C228.728 196.357 228.964 196.321 229.178 196.249C229.402 196.178 229.616 196.062 229.821 195.901C230.035 195.732 230.205 195.486 230.33 195.165C230.464 194.844 230.544 194.46 230.571 194.013ZM234.986 190.117V193.089L237.892 190.117H239.271L236.084 193.277L239.445 196.919H238.039L234.986 193.518V196.919H233.808V190.117H234.986ZM245.26 194.951H246.384C246.277 195.549 245.987 196.071 245.514 196.517C245.041 196.964 244.34 197.187 243.412 197.187C242.153 197.187 241.229 196.772 240.64 195.941C240.346 195.504 240.154 195.035 240.064 194.536C240.002 194.187 239.971 193.857 239.971 193.545C239.971 192.947 240.06 192.384 240.238 191.858C240.355 191.483 240.524 191.157 240.747 190.88C240.988 190.586 241.332 190.34 241.778 190.144C242.225 189.947 242.729 189.849 243.291 189.849C244.291 189.849 245.045 190.126 245.554 190.679C245.769 190.911 245.943 191.206 246.076 191.563C246.273 192.081 246.393 192.71 246.438 193.451C246.438 193.478 246.438 193.536 246.438 193.625C246.447 193.714 246.451 193.768 246.451 193.786H241.216C241.216 194.464 241.394 195.062 241.752 195.58C242.109 196.098 242.649 196.357 243.372 196.357C243.889 196.357 244.313 196.227 244.644 195.968C244.974 195.709 245.179 195.37 245.26 194.951ZM241.216 192.956H245.206C245.197 192.429 245.072 191.942 244.831 191.496C244.555 190.951 244.05 190.679 243.318 190.679C242.488 190.679 241.917 190.956 241.604 191.509C241.345 191.956 241.216 192.438 241.216 192.956ZM249.562 196.919V190.947H247.205V190.117H253.097V190.947H250.74V196.919H249.562ZM253.77 194.857C253.538 193.902 253.547 192.978 253.797 192.085C254.047 191.193 254.573 190.554 255.377 190.17C255.823 189.956 256.345 189.849 256.943 189.849C257.542 189.849 258.064 189.956 258.51 190.17C259.314 190.545 259.845 191.215 260.104 192.179C260.22 192.625 260.278 193.076 260.278 193.531C260.287 193.978 260.233 194.419 260.117 194.857C260.01 195.285 259.818 195.678 259.541 196.035C259.273 196.392 258.93 196.673 258.51 196.879C258.055 197.084 257.533 197.187 256.943 197.187C256.354 197.187 255.832 197.084 255.377 196.879C254.6 196.504 254.065 195.83 253.77 194.857ZM255.015 192.166C254.899 192.523 254.841 192.969 254.841 193.505C254.841 194.031 254.899 194.482 255.015 194.857C255.131 195.232 255.265 195.513 255.417 195.7C255.738 196.058 256.104 196.267 256.515 196.33C256.801 196.374 257.086 196.374 257.372 196.33C257.497 196.321 257.671 196.258 257.894 196.142C258.135 196.017 258.332 195.861 258.483 195.674C258.635 195.486 258.765 195.214 258.872 194.857C258.988 194.482 259.046 194.031 259.046 193.505C259.046 192.969 258.988 192.523 258.872 192.166C258.747 191.773 258.608 191.492 258.457 191.322C258.314 191.152 258.135 191.01 257.921 190.893C257.707 190.777 257.524 190.706 257.372 190.679C257.086 190.635 256.801 190.635 256.515 190.679C256.39 190.688 256.212 190.755 255.979 190.88C255.524 191.103 255.203 191.532 255.015 192.166ZM261.83 196.919V190.117H265.07C266.508 190.117 267.226 190.657 267.226 191.737C267.226 192.514 266.816 193.045 265.994 193.33V193.371C266.548 193.505 266.932 193.719 267.146 194.013C267.369 194.308 267.481 194.687 267.481 195.151C267.481 195.892 267.208 196.383 266.664 196.624C266.217 196.821 265.673 196.919 265.03 196.919H261.83ZM264.695 190.947H263.008V192.956H264.642C265.115 192.956 265.463 192.862 265.686 192.674C265.918 192.478 266.034 192.224 266.034 191.911C266.034 191.268 265.588 190.947 264.695 190.947ZM264.695 193.786H263.008V196.089H264.736C265.753 196.089 266.262 195.741 266.262 195.044C266.262 194.205 265.74 193.786 264.695 193.786Z" fill="black"/>
<path d="M175.884 239.546H171.032V241.956H168.606V244.366H166.18V251.597H168.606V254.007H171.032V256.417H173.458V258.827H175.884V261.238H178.31V263.648H180.735V261.238H183.161V258.827H185.587V256.417H188.013V254.007H190.439V251.597H192.865V244.366H190.439V241.956H188.013V239.546H183.161V241.956H180.735V244.366H178.31V241.956H175.884V239.546ZM175.884 241.956V244.366H178.31V246.776H180.735V244.366H183.161V241.956H188.013V244.366H190.439V251.597H188.013V254.007H185.587V256.417H183.161V258.827H180.735V261.238H178.31V258.827H175.884V256.417H173.458V254.007H171.032V251.597H168.606V244.366H171.032V241.956H175.884Z" fill="black"/>
<path d="M173.29 276.975H168.577V285.29H167.319V275.917H174.549V285.29H173.29V276.975ZM176.651 287.767V278.488H177.749V279.425H177.789C178.325 278.622 179.074 278.22 180.038 278.22C180.922 278.22 181.654 278.528 182.234 279.144C182.815 279.769 183.105 280.684 183.105 281.889C183.105 283.121 182.81 284.04 182.221 284.647C181.641 285.254 180.922 285.558 180.065 285.558C179.797 285.558 179.472 285.5 179.088 285.384C178.525 285.214 178.106 284.857 177.829 284.313V287.767H176.651ZM177.749 281.916C177.749 282.862 177.963 283.572 178.392 284.045C178.838 284.5 179.324 284.728 179.851 284.728C180.404 284.728 180.878 284.504 181.27 284.058C181.663 283.594 181.86 282.871 181.86 281.889C181.86 280.996 181.677 280.3 181.311 279.8C180.953 279.3 180.445 279.05 179.784 279.05C179.436 279.05 179.11 279.144 178.807 279.332C178.101 279.751 177.749 280.612 177.749 281.916ZM185.819 278.488V283.911L189.367 278.488H190.679V285.29H189.501V279.854L185.966 285.29H184.64V278.488H185.819ZM197.263 279.318H193.782V285.29H192.604V278.488H197.263V279.318ZM197.842 283.228C197.61 282.273 197.619 281.349 197.869 280.456C198.119 279.564 198.646 278.925 199.449 278.542C199.895 278.327 200.418 278.22 201.016 278.22C201.614 278.22 202.136 278.327 202.582 278.542C203.386 278.916 203.917 279.586 204.176 280.55C204.292 280.996 204.35 281.447 204.35 281.902C204.359 282.349 204.305 282.791 204.189 283.228C204.082 283.656 203.89 284.049 203.613 284.406C203.345 284.763 203.002 285.045 202.582 285.25C202.127 285.455 201.605 285.558 201.016 285.558C200.426 285.558 199.904 285.455 199.449 285.25C198.672 284.875 198.137 284.201 197.842 283.228ZM199.087 280.537C198.971 280.894 198.913 281.34 198.913 281.876C198.913 282.402 198.971 282.853 199.087 283.228C199.204 283.603 199.337 283.884 199.489 284.072C199.811 284.429 200.177 284.638 200.587 284.701C200.873 284.746 201.158 284.746 201.444 284.701C201.569 284.692 201.743 284.629 201.966 284.513C202.207 284.388 202.404 284.232 202.555 284.045C202.707 283.857 202.837 283.585 202.944 283.228C203.06 282.853 203.118 282.402 203.118 281.876C203.118 281.34 203.06 280.894 202.944 280.537C202.819 280.144 202.68 279.863 202.529 279.693C202.386 279.523 202.207 279.381 201.993 279.265C201.779 279.149 201.596 279.077 201.444 279.05C201.158 279.006 200.873 279.006 200.587 279.05C200.462 279.059 200.284 279.126 200.052 279.251C199.596 279.474 199.275 279.903 199.087 280.537ZM205.045 287.058L204.938 284.46H205.795C206.536 283.371 206.906 281.76 206.906 279.626V278.488H211.78V284.46H212.959L212.865 287.058H211.874V285.29H206.036V287.058H205.045ZM210.602 284.46V279.318H208.004V280.269C208.004 280.992 207.924 281.742 207.763 282.518C207.62 283.286 207.379 283.933 207.04 284.46H210.602ZM218.871 283.322H219.996C219.888 283.92 219.598 284.442 219.125 284.888C218.652 285.335 217.951 285.558 217.023 285.558C215.764 285.558 214.84 285.143 214.251 284.313C213.957 283.875 213.765 283.407 213.676 282.907C213.613 282.558 213.582 282.228 213.582 281.916C213.582 281.318 213.671 280.755 213.85 280.229C213.966 279.854 214.135 279.528 214.358 279.251C214.599 278.957 214.943 278.711 215.389 278.515C215.836 278.318 216.34 278.22 216.902 278.22C217.902 278.22 218.657 278.497 219.165 279.05C219.38 279.282 219.554 279.577 219.688 279.934C219.884 280.452 220.004 281.081 220.049 281.822C220.049 281.849 220.049 281.907 220.049 281.996C220.058 282.085 220.063 282.139 220.063 282.157H214.827C214.827 282.835 215.006 283.433 215.363 283.951C215.72 284.469 216.26 284.728 216.983 284.728C217.501 284.728 217.925 284.598 218.255 284.339C218.585 284.08 218.79 283.741 218.871 283.322ZM214.827 281.327H218.817C218.808 280.8 218.683 280.313 218.442 279.867C218.166 279.323 217.661 279.05 216.929 279.05C216.099 279.05 215.528 279.327 215.215 279.881C214.956 280.327 214.827 280.809 214.827 281.327ZM226.146 282.117H222.785V285.29H221.607V278.488H222.785V281.286H226.146V278.488H227.324V285.29H226.146V282.117ZM166.288 302.058L166.18 299.46H167.037C167.778 298.371 168.149 296.76 168.149 294.626V293.488H173.023V299.46H174.201L174.107 302.058H173.116V300.29H167.278V302.058H166.288ZM171.844 299.46V294.318H169.247V295.269C169.247 295.992 169.166 296.742 169.006 297.518C168.863 298.286 168.622 298.933 168.283 299.46H171.844ZM174.762 300.29V299.42C175.432 299.616 175.905 299.299 176.182 298.469C176.253 298.264 176.302 298.009 176.329 297.706L176.383 296.889C176.392 296.746 176.396 296.465 176.396 296.045V293.488H181.109V300.29H179.931V294.318H177.494V296.045C177.494 296.608 177.481 297.081 177.454 297.465C177.427 297.84 177.36 298.25 177.253 298.697C177.101 299.33 176.829 299.781 176.436 300.049C176.043 300.317 175.485 300.397 174.762 300.29ZM187.196 297.612H185.643L183.862 300.29H182.563L184.438 297.599C183.92 297.545 183.501 297.344 183.179 296.996C182.858 296.648 182.697 296.193 182.697 295.63C182.697 295.104 182.836 294.644 183.112 294.251C183.443 293.742 184.067 293.488 184.987 293.488H188.375V300.29H187.196V297.612ZM187.196 296.782V294.318H185.496C184.442 294.318 183.916 294.742 183.916 295.59C183.916 295.938 184.045 296.224 184.304 296.447C184.563 296.67 184.974 296.782 185.536 296.782H187.196ZM198.047 294.318H194.606V300.29H193.427V293.488H199.225V300.29H198.047V294.318ZM206.056 298.322H207.181C207.074 298.92 206.784 299.442 206.311 299.888C205.838 300.335 205.137 300.558 204.208 300.558C202.95 300.558 202.026 300.143 201.437 299.313C201.142 298.875 200.95 298.407 200.861 297.907C200.798 297.558 200.767 297.228 200.767 296.916C200.767 296.318 200.856 295.755 201.035 295.229C201.151 294.854 201.321 294.528 201.544 294.251C201.785 293.957 202.128 293.711 202.575 293.515C203.021 293.318 203.526 293.22 204.088 293.22C205.088 293.22 205.842 293.497 206.351 294.05C206.565 294.282 206.739 294.577 206.873 294.934C207.069 295.452 207.19 296.081 207.235 296.822C207.235 296.849 207.235 296.907 207.235 296.996C207.243 297.085 207.248 297.139 207.248 297.157H202.012C202.012 297.835 202.191 298.433 202.548 298.951C202.905 299.469 203.445 299.728 204.168 299.728C204.686 299.728 205.11 299.598 205.44 299.339C205.771 299.08 205.976 298.741 206.056 298.322ZM202.012 296.327H206.003C205.994 295.8 205.869 295.313 205.628 294.867C205.351 294.323 204.847 294.05 204.115 294.05C203.284 294.05 202.713 294.327 202.401 294.881C202.142 295.327 202.012 295.809 202.012 296.327ZM208.792 302.767V293.488H209.89V294.425H209.93C210.466 293.622 211.216 293.22 212.18 293.22C213.063 293.22 213.795 293.528 214.376 294.144C214.956 294.769 215.246 295.684 215.246 296.889C215.246 298.121 214.951 299.04 214.362 299.647C213.782 300.254 213.063 300.558 212.206 300.558C211.939 300.558 211.613 300.5 211.229 300.384C210.667 300.214 210.247 299.857 209.97 299.313V302.767H208.792ZM209.89 296.916C209.89 297.862 210.104 298.572 210.533 299.045C210.979 299.5 211.465 299.728 211.992 299.728C212.546 299.728 213.019 299.504 213.411 299.058C213.804 298.594 214.001 297.871 214.001 296.889C214.001 295.996 213.818 295.3 213.452 294.8C213.095 294.3 212.586 294.05 211.925 294.05C211.577 294.05 211.251 294.144 210.948 294.332C210.243 294.751 209.89 295.612 209.89 296.916ZM221.682 298.322H222.807C222.7 298.92 222.41 299.442 221.937 299.888C221.463 300.335 220.763 300.558 219.834 300.558C218.576 300.558 217.652 300.143 217.063 299.313C216.768 298.875 216.576 298.407 216.487 297.907C216.424 297.558 216.393 297.228 216.393 296.916C216.393 296.318 216.482 295.755 216.661 295.229C216.777 294.854 216.947 294.528 217.17 294.251C217.411 293.957 217.754 293.711 218.201 293.515C218.647 293.318 219.151 293.22 219.714 293.22C220.714 293.22 221.468 293.497 221.977 294.05C222.191 294.282 222.365 294.577 222.499 294.934C222.695 295.452 222.816 296.081 222.86 296.822C222.86 296.849 222.86 296.907 222.86 296.996C222.869 297.085 222.874 297.139 222.874 297.157H217.638C217.638 297.835 217.817 298.433 218.174 298.951C218.531 299.469 219.071 299.728 219.794 299.728C220.312 299.728 220.736 299.598 221.066 299.339C221.397 299.08 221.602 298.741 221.682 298.322ZM217.638 296.327H221.629C221.62 295.8 221.495 295.313 221.254 294.867C220.977 294.323 220.473 294.05 219.741 294.05C218.91 294.05 218.339 294.327 218.027 294.881C217.768 295.327 217.638 295.809 217.638 296.327ZM224.418 302.767V293.488H225.516V294.425H225.556C226.092 293.622 226.841 293.22 227.806 293.22C228.689 293.22 229.421 293.528 230.002 294.144C230.582 294.769 230.872 295.684 230.872 296.889C230.872 298.121 230.577 299.04 229.988 299.647C229.408 300.254 228.689 300.558 227.832 300.558C227.565 300.558 227.239 300.5 226.855 300.384C226.292 300.214 225.873 299.857 225.596 299.313V302.767H224.418ZM225.516 296.916C225.516 297.862 225.73 298.572 226.159 299.045C226.605 299.5 227.091 299.728 227.618 299.728C228.172 299.728 228.645 299.504 229.037 299.058C229.43 298.594 229.627 297.871 229.627 296.889C229.627 295.996 229.444 295.3 229.078 294.8C228.721 294.3 228.212 294.05 227.551 294.05C227.203 294.05 226.877 294.144 226.574 294.332C225.868 294.751 225.516 295.612 225.516 296.916ZM233.305 295.496H232.18C232.18 294.961 232.358 294.47 232.715 294.024C233.144 293.488 233.929 293.22 235.072 293.22C235.742 293.22 236.331 293.354 236.839 293.622C237.134 293.765 237.366 294.001 237.536 294.332C237.705 294.662 237.786 295.055 237.777 295.51L237.71 298.656C237.71 298.915 237.737 299.116 237.79 299.259C237.871 299.402 238.08 299.469 238.419 299.46V300.29C238.286 300.326 238.107 300.344 237.884 300.344C237.491 300.344 237.205 300.277 237.027 300.143C236.857 300.009 236.737 299.746 236.665 299.353C236.228 300.156 235.451 300.558 234.336 300.558C233.568 300.558 232.974 300.388 232.555 300.049C232.144 299.701 231.939 299.188 231.939 298.509C231.939 297.866 232.171 297.38 232.635 297.05C233.099 296.702 233.978 296.469 235.273 296.353C235.871 296.309 236.228 296.251 236.344 296.179C236.514 296.063 236.598 295.809 236.598 295.416C236.598 294.506 236.09 294.05 235.072 294.05C233.867 294.05 233.278 294.532 233.305 295.496ZM236.572 297.384L236.598 296.809C236.465 296.907 236.268 296.987 236.009 297.05C235.617 297.076 235.313 297.108 235.099 297.143C234.358 297.268 233.907 297.371 233.746 297.451C233.354 297.639 233.157 297.978 233.157 298.469C233.157 298.862 233.273 299.17 233.505 299.393C233.746 299.616 234.068 299.728 234.469 299.728C234.728 299.728 234.965 299.692 235.179 299.621C235.402 299.549 235.617 299.433 235.822 299.272C236.036 299.103 236.206 298.857 236.331 298.536C236.465 298.215 236.545 297.831 236.572 297.384ZM244.642 290.475H245.647C245.611 291.127 245.307 291.56 244.736 291.774C244.424 291.881 244.156 291.953 243.933 291.988C242.933 292.113 242.353 292.198 242.192 292.243C241.585 292.412 241.121 292.72 240.799 293.167C240.478 293.604 240.308 294.233 240.291 295.055H240.317C240.746 293.903 241.625 293.327 242.955 293.327C244.035 293.327 244.843 293.684 245.379 294.398C245.923 295.104 246.196 295.97 246.196 296.996C246.196 297.978 245.914 298.817 245.352 299.513C244.79 300.21 243.955 300.558 242.848 300.558C241.625 300.558 240.719 300.094 240.13 299.165C239.835 298.656 239.634 298.085 239.527 297.451C239.456 296.951 239.42 296.456 239.42 295.965C239.42 294.242 239.684 293.037 240.21 292.35C240.674 291.752 241.304 291.368 242.098 291.198C242.848 291.029 243.482 290.93 244 290.904C244.348 290.859 244.562 290.716 244.642 290.475ZM240.665 297.076C240.665 297.666 240.799 298.232 241.067 298.777C241.38 299.411 241.964 299.728 242.821 299.728C243.5 299.728 244.022 299.5 244.388 299.045C244.763 298.581 244.95 297.942 244.95 297.13C244.95 296.461 244.834 295.84 244.602 295.269C244.308 294.528 243.714 294.157 242.821 294.157C241.929 294.157 241.326 294.519 241.014 295.242C240.782 295.795 240.665 296.407 240.665 297.076ZM247.518 298.228C247.286 297.273 247.295 296.349 247.545 295.456C247.795 294.564 248.322 293.925 249.125 293.542C249.572 293.327 250.094 293.22 250.692 293.22C251.29 293.22 251.812 293.327 252.258 293.542C253.062 293.916 253.593 294.586 253.852 295.55C253.968 295.996 254.026 296.447 254.026 296.902C254.035 297.349 253.981 297.791 253.865 298.228C253.758 298.656 253.566 299.049 253.289 299.406C253.022 299.763 252.678 300.045 252.258 300.25C251.803 300.455 251.281 300.558 250.692 300.558C250.103 300.558 249.58 300.455 249.125 300.25C248.349 299.875 247.813 299.201 247.518 298.228ZM248.764 295.537C248.648 295.894 248.59 296.34 248.59 296.876C248.59 297.402 248.648 297.853 248.764 298.228C248.88 298.603 249.014 298.884 249.165 299.072C249.487 299.429 249.853 299.638 250.263 299.701C250.549 299.746 250.835 299.746 251.12 299.701C251.245 299.692 251.419 299.629 251.642 299.513C251.884 299.388 252.08 299.232 252.232 299.045C252.383 298.857 252.513 298.585 252.62 298.228C252.736 297.853 252.794 297.402 252.794 296.876C252.794 296.34 252.736 295.894 252.62 295.537C252.495 295.144 252.357 294.863 252.205 294.693C252.062 294.523 251.884 294.381 251.669 294.265C251.455 294.149 251.272 294.077 251.12 294.05C250.835 294.006 250.549 294.006 250.263 294.05C250.138 294.059 249.96 294.126 249.728 294.251C249.272 294.474 248.951 294.903 248.764 295.537ZM256.726 300.29V294.318H254.37V293.488H260.261V294.318H257.905V300.29H256.726ZM262.419 293.488V296.461L265.324 293.488H266.703L263.517 296.648L266.877 300.29H265.471L262.419 296.889V300.29H261.24V293.488H262.419ZM268.97 293.488V298.911L272.518 293.488H273.83V300.29H272.652V294.854L269.117 300.29H267.791V293.488H268.97Z" fill="black"/>
<path d="M24.394 280.885H19.6807V285.29H18.4221V275.917H19.6807V279.827H24.394V275.917H25.6527V285.29H24.394V280.885ZM28.9327 278.488V283.911L32.481 278.488H33.7932V285.29H32.6149V279.854L29.08 285.29H27.7544V278.488H28.9327ZM35.1821 283.201H36.3069C36.3069 283.648 36.4675 284.014 36.7889 284.299C37.1103 284.585 37.5521 284.728 38.1145 284.728C38.668 284.728 39.1009 284.616 39.4133 284.393C39.7258 284.161 39.882 283.826 39.882 283.389C39.882 282.576 39.3687 282.17 38.3421 282.17H37.3379V281.34H38.2082C39.1545 281.34 39.6276 280.987 39.6276 280.282C39.6276 280.166 39.6097 280.05 39.574 279.934C39.5472 279.818 39.4847 279.689 39.3866 279.546C39.2973 279.394 39.1411 279.273 38.9179 279.184C38.6947 279.095 38.418 279.05 38.0877 279.05C37.4986 279.05 37.0835 279.189 36.8425 279.465C36.6014 279.742 36.4809 280.041 36.4809 280.363H35.3562C35.383 279.898 35.5035 279.51 35.7177 279.198C35.9319 278.885 36.2087 278.662 36.5479 278.528C37.1013 278.323 37.6369 278.22 38.1547 278.22C38.6099 278.22 39.0116 278.274 39.3598 278.381C39.7079 278.479 39.9712 278.6 40.1498 278.742C40.3372 278.885 40.4845 279.055 40.5916 279.251C40.7077 279.448 40.7791 279.622 40.8059 279.773C40.8327 279.916 40.8461 280.059 40.8461 280.202C40.8461 280.996 40.4533 281.492 39.6677 281.688V281.728C40.0873 281.791 40.431 281.974 40.6988 282.277C40.9666 282.581 41.1005 282.978 41.1005 283.469C41.1005 283.969 40.9219 284.424 40.5649 284.835C40.1275 285.317 39.3419 285.558 38.2082 285.558C37.2531 285.558 36.5256 285.357 36.0257 284.955C35.4633 284.464 35.1821 283.88 35.1821 283.201ZM43.8133 278.488V281.461L46.7189 278.488H48.0981L44.9113 281.648L48.2721 285.29H46.8662L43.8133 281.889V285.29H42.635V278.488H43.8133ZM50.3644 278.488V283.911L53.9128 278.488H55.225V285.29H54.0467V279.854L50.5117 285.29H49.1861V278.488H50.3644ZM58.3278 278.488V283.911L61.8761 278.488H63.1883V285.29H62.01V279.854L58.4751 285.29H57.1495V278.488H58.3278ZM61.4342 275.917H62.4385C62.251 276.899 61.6619 277.475 60.671 277.644C60.5014 277.671 60.3229 277.685 60.1354 277.685C58.9839 277.685 58.2474 277.216 57.9261 276.279C57.8993 276.216 57.8681 276.096 57.8324 275.917H58.8366C58.8098 276.149 58.8902 276.368 59.0776 276.573C59.2115 276.716 59.3677 276.823 59.5463 276.895C59.7069 276.948 59.9033 276.975 60.1354 276.975C60.5193 276.975 60.8362 276.881 61.0861 276.694C61.3361 276.497 61.4521 276.238 61.4342 275.917ZM18.5024 302.754V301.883C18.8416 301.928 19.038 301.95 19.0916 301.95C19.4308 301.95 19.6718 301.825 19.8146 301.575C19.9039 301.442 19.9619 301.33 19.9887 301.241C20.0155 301.196 20.0735 301.049 20.1628 300.799L20.3235 300.29L17.3777 293.488H18.7836L20.9662 298.991L22.7738 293.488H23.9521L21.2474 301.093C21.0331 301.7 20.8501 302.098 20.6984 302.285C20.3949 302.642 19.9842 302.821 19.4665 302.821C19.0648 302.821 18.7434 302.798 18.5024 302.754ZM24.9168 302.767V293.488H26.0148V294.425H26.055C26.5906 293.622 27.3404 293.22 28.3045 293.22C29.1882 293.22 29.9202 293.528 30.5004 294.144C31.0807 294.769 31.3708 295.684 31.3708 296.889C31.3708 298.121 31.0762 299.04 30.4871 299.647C29.9068 300.254 29.1882 300.558 28.3313 300.558C28.0635 300.558 27.7376 300.5 27.3538 300.384C26.7914 300.214 26.3719 299.857 26.0951 299.313V302.767H24.9168ZM26.0148 296.916C26.0148 297.862 26.229 298.572 26.6575 299.045C27.1039 299.5 27.5904 299.728 28.117 299.728C28.6705 299.728 29.1436 299.504 29.5364 299.058C29.9291 298.594 30.1255 297.871 30.1255 296.889C30.1255 295.996 29.9425 295.3 29.5765 294.8C29.2195 294.3 28.7107 294.05 28.0501 294.05C27.7019 294.05 27.3761 294.144 27.0726 294.332C26.3674 294.751 26.0148 295.612 26.0148 296.916ZM32.6921 298.228C32.46 297.273 32.4689 296.349 32.7189 295.456C32.9688 294.564 33.4955 293.925 34.2989 293.542C34.7452 293.327 35.2674 293.22 35.8655 293.22C36.4636 293.22 36.9858 293.327 37.4321 293.542C38.2355 293.916 38.7667 294.586 39.0255 295.55C39.1416 295.996 39.1996 296.447 39.1996 296.902C39.2085 297.349 39.155 297.791 39.0389 298.228C38.9318 298.656 38.7399 299.049 38.4632 299.406C38.1954 299.763 37.8517 300.045 37.4321 300.25C36.9769 300.455 36.4547 300.558 35.8655 300.558C35.2764 300.558 34.7542 300.455 34.2989 300.25C33.5223 299.875 32.9867 299.201 32.6921 298.228ZM33.9374 295.537C33.8213 295.894 33.7633 296.34 33.7633 296.876C33.7633 297.402 33.8213 297.853 33.9374 298.228C34.0534 298.603 34.1873 298.884 34.3391 299.072C34.6604 299.429 35.0264 299.638 35.437 299.701C35.7227 299.746 36.0083 299.746 36.294 299.701C36.419 299.692 36.593 299.629 36.8162 299.513C37.0572 299.388 37.2536 299.232 37.4054 299.045C37.5571 298.857 37.6866 298.585 37.7937 298.228C37.9097 297.853 37.9677 297.402 37.9677 296.876C37.9677 296.34 37.9097 295.894 37.7937 295.537C37.6687 295.144 37.5303 294.863 37.3786 294.693C37.2358 294.523 37.0572 294.381 36.843 294.265C36.6287 294.149 36.4458 294.077 36.294 294.05C36.0083 294.006 35.7227 294.006 35.437 294.05C35.3121 294.059 35.1335 294.126 34.9014 294.251C34.4462 294.474 34.1248 294.903 33.9374 295.537ZM40.752 300.29V293.488H43.9924C45.4296 293.488 46.1482 294.028 46.1482 295.108C46.1482 295.885 45.7375 296.416 44.9163 296.702V296.742C45.4697 296.876 45.8536 297.09 46.0678 297.384C46.291 297.679 46.4026 298.058 46.4026 298.523C46.4026 299.263 46.1303 299.754 45.5858 299.995C45.1395 300.192 44.5949 300.29 43.9522 300.29H40.752ZM43.6175 294.318H41.9303V296.327H43.5639C44.037 296.327 44.3852 296.233 44.6083 296.045C44.8404 295.849 44.9565 295.595 44.9565 295.282C44.9565 294.639 44.5101 294.318 43.6175 294.318ZM43.6175 297.157H41.9303V299.46H43.6576C44.6753 299.46 45.1841 299.112 45.1841 298.415C45.1841 297.576 44.6619 297.157 43.6175 297.157ZM52.8708 298.322H53.9955C53.8884 298.92 53.5983 299.442 53.1252 299.888C52.6521 300.335 51.9513 300.558 51.0229 300.558C49.7643 300.558 48.8404 300.143 48.2512 299.313C47.9566 298.875 47.7647 298.407 47.6755 297.907C47.613 297.558 47.5817 297.228 47.5817 296.916C47.5817 296.318 47.671 295.755 47.8495 295.229C47.9656 294.854 48.1352 294.528 48.3583 294.251C48.5994 293.957 48.943 293.711 49.3894 293.515C49.8357 293.318 50.3401 293.22 50.9024 293.22C51.9022 293.22 52.6565 293.497 53.1653 294.05C53.3796 294.282 53.5536 294.577 53.6875 294.934C53.8839 295.452 54.0044 296.081 54.0491 296.822C54.0491 296.849 54.0491 296.907 54.0491 296.996C54.058 297.085 54.0625 297.139 54.0625 297.157H48.827C48.827 297.835 49.0055 298.433 49.3626 298.951C49.7197 299.469 50.2597 299.728 50.9828 299.728C51.5005 299.728 51.9245 299.598 52.2548 299.339C52.5851 299.08 52.7904 298.741 52.8708 298.322ZM48.827 296.327H52.8172C52.8083 295.8 52.6833 295.313 52.4423 294.867C52.1655 294.323 51.6612 294.05 50.9292 294.05C50.099 294.05 49.5277 294.327 49.2153 294.881C48.9564 295.327 48.827 295.809 48.827 296.327ZM60.1457 297.117H56.7848V300.29H55.6065V293.488H56.7848V296.286H60.1457V293.488H61.324V300.29H60.1457V297.117ZM63.256 300.29V293.488H64.4343V296.193H66.1349C66.8044 296.193 67.3801 296.291 67.8622 296.487C68.5317 296.728 68.8664 297.291 68.8664 298.174C68.8664 298.906 68.6522 299.451 68.2237 299.808C68.0452 299.951 67.8354 300.058 67.5944 300.129C67.273 300.236 66.9204 300.29 66.5366 300.29H63.256ZM65.8671 297.023H64.4343V299.46H66.0679C66.6214 299.46 67.0275 299.348 67.2864 299.125C67.5453 298.866 67.6658 298.549 67.6479 298.174C67.6479 297.764 67.514 297.46 67.2462 297.264C67.157 297.201 67.0141 297.148 66.8177 297.103C66.6035 297.05 66.3223 297.023 65.9742 297.023H65.8671ZM73.045 298.228C72.8129 297.273 72.8218 296.349 73.0718 295.456C73.3217 294.564 73.8484 293.925 74.6518 293.542C75.0981 293.327 75.6203 293.22 76.2184 293.22C76.8165 293.22 77.3387 293.327 77.7851 293.542C78.5884 293.916 79.1196 294.586 79.3785 295.55C79.4945 295.996 79.5525 296.447 79.5525 296.902C79.5615 297.349 79.5079 297.791 79.3918 298.228C79.2847 298.656 79.0928 299.049 78.8161 299.406C78.5483 299.763 78.2046 300.045 77.7851 300.25C77.3298 300.455 76.8076 300.558 76.2184 300.558C75.6293 300.558 75.1071 300.455 74.6518 300.25C73.8752 299.875 73.3396 299.201 73.045 298.228ZM74.2903 295.537C74.1742 295.894 74.1162 296.34 74.1162 296.876C74.1162 297.402 74.1742 297.853 74.2903 298.228C74.4063 298.603 74.5402 298.884 74.692 299.072C75.0133 299.429 75.3793 299.638 75.7899 299.701C76.0756 299.746 76.3613 299.746 76.6469 299.701C76.7719 299.692 76.9459 299.629 77.1691 299.513C77.4101 299.388 77.6065 299.232 77.7583 299.045C77.91 298.857 78.0395 298.585 78.1466 298.228C78.2626 297.853 78.3207 297.402 78.3207 296.876C78.3207 296.34 78.2626 295.894 78.1466 295.537C78.0216 295.144 77.8832 294.863 77.7315 294.693C77.5887 294.523 77.4101 294.381 77.1959 294.265C76.9817 294.149 76.7987 294.077 76.6469 294.05C76.3613 294.006 76.0756 294.006 75.7899 294.05C75.665 294.059 75.4864 294.126 75.2544 294.251C74.7991 294.474 74.4777 294.903 74.2903 295.537ZM85.7245 294.318H82.2832V300.29H81.1049V293.488H86.9028V300.29H85.7245V294.318ZM89.73 295.496H88.6053C88.6053 294.961 88.7838 294.47 89.1409 294.024C89.5694 293.488 90.3549 293.22 91.4975 293.22C92.167 293.22 92.7562 293.354 93.265 293.622C93.5596 293.765 93.7917 294.001 93.9613 294.332C94.1309 294.662 94.2112 295.055 94.2023 295.51L94.1353 298.656C94.1353 298.915 94.1621 299.116 94.2157 299.259C94.296 299.402 94.5058 299.469 94.845 299.46V300.29C94.7111 300.326 94.5326 300.344 94.3094 300.344C93.9166 300.344 93.631 300.277 93.4524 300.143C93.2828 300.009 93.1623 299.746 93.0909 299.353C92.6535 300.156 91.8769 300.558 90.7611 300.558C89.9934 300.558 89.3998 300.388 88.9802 300.049C88.5696 299.701 88.3643 299.188 88.3643 298.509C88.3643 297.866 88.5964 297.38 89.0605 297.05C89.5247 296.702 90.404 296.469 91.6984 296.353C92.2964 296.309 92.6535 296.251 92.7696 296.179C92.9392 296.063 93.024 295.809 93.024 295.416C93.024 294.506 92.5151 294.05 91.4975 294.05C90.2924 294.05 89.7033 294.532 89.73 295.496ZM92.9972 297.384L93.024 296.809C92.8901 296.907 92.6937 296.987 92.4348 297.05C92.042 297.076 91.7385 297.108 91.5243 297.143C90.7834 297.268 90.3326 297.371 90.1719 297.451C89.7791 297.639 89.5827 297.978 89.5827 298.469C89.5827 298.862 89.6988 299.17 89.9309 299.393C90.1719 299.616 90.4933 299.728 90.895 299.728C91.1538 299.728 91.3904 299.692 91.6046 299.621C91.8278 299.549 92.042 299.433 92.2473 299.272C92.4616 299.103 92.6312 298.857 92.7562 298.536C92.8901 298.215 92.9704 297.831 92.9972 297.384ZM101.001 297.866H102.126C102.09 298.384 101.893 298.929 101.536 299.5C101.34 299.821 101.032 300.08 100.613 300.277C100.202 300.464 99.7198 300.558 99.1664 300.558C98.9789 300.558 98.845 300.553 98.7647 300.544C98.3719 300.527 97.9702 300.424 97.5596 300.236C96.417 299.665 95.8457 298.531 95.8457 296.835C95.8457 295.943 96.051 295.148 96.4616 294.452C96.9704 293.631 97.8452 293.22 99.086 293.22C99.9609 293.22 100.657 293.443 101.175 293.89C101.693 294.327 101.992 294.903 102.072 295.617H100.947C100.769 294.573 100.157 294.05 99.1128 294.05C98.4344 294.05 97.9256 294.3 97.5864 294.8C97.2561 295.291 97.0909 295.97 97.0909 296.835C97.0909 297.675 97.265 298.366 97.6132 298.911C97.9613 299.455 98.488 299.728 99.1932 299.728C99.8002 299.728 100.242 299.536 100.519 299.152C100.813 298.768 100.974 298.34 101.001 297.866ZM108.109 297.117H104.748V300.29H103.57V293.488H104.748V296.286H108.109V293.488H109.287V300.29H108.109V297.117ZM111.005 298.228C110.773 297.273 110.782 296.349 111.032 295.456C111.282 294.564 111.808 293.925 112.612 293.542C113.058 293.327 113.58 293.22 114.178 293.22C114.776 293.22 115.299 293.327 115.745 293.542C116.548 293.916 117.08 294.586 117.338 295.55C117.454 295.996 117.513 296.447 117.513 296.902C117.521 297.349 117.468 297.791 117.352 298.228C117.245 298.656 117.053 299.049 116.776 299.406C116.508 299.763 116.165 300.045 115.745 300.25C115.29 300.455 114.768 300.558 114.178 300.558C113.589 300.558 113.067 300.455 112.612 300.25C111.835 299.875 111.3 299.201 111.005 298.228ZM112.25 295.537C112.134 295.894 112.076 296.34 112.076 296.876C112.076 297.402 112.134 297.853 112.25 298.228C112.366 298.603 112.5 298.884 112.652 299.072C112.973 299.429 113.339 299.638 113.75 299.701C114.036 299.746 114.321 299.746 114.607 299.701C114.732 299.692 114.906 299.629 115.129 299.513C115.37 299.388 115.566 299.232 115.718 299.045C115.87 298.857 115.999 298.585 116.107 298.228C116.223 297.853 116.281 297.402 116.281 296.876C116.281 296.34 116.223 295.894 116.107 295.537C115.982 295.144 115.843 294.863 115.691 294.693C115.549 294.523 115.37 294.381 115.156 294.265C114.942 294.149 114.759 294.077 114.607 294.05C114.321 294.006 114.036 294.006 113.75 294.05C113.625 294.059 113.446 294.126 113.214 294.251C112.759 294.474 112.438 294.903 112.25 295.537ZM123.832 297.866H124.956C124.921 298.384 124.724 298.929 124.367 299.5C124.171 299.821 123.863 300.08 123.443 300.277C123.033 300.464 122.551 300.558 121.997 300.558C121.81 300.558 121.676 300.553 121.596 300.544C121.203 300.527 120.801 300.424 120.391 300.236C119.248 299.665 118.677 298.531 118.677 296.835C118.677 295.943 118.882 295.148 119.293 294.452C119.801 293.631 120.676 293.22 121.917 293.22C122.792 293.22 123.488 293.443 124.006 293.89C124.524 294.327 124.823 294.903 124.903 295.617H123.778C123.6 294.573 122.988 294.05 121.944 294.05C121.265 294.05 120.756 294.3 120.417 294.8C120.087 295.291 119.922 295.97 119.922 296.835C119.922 297.675 120.096 298.366 120.444 298.911C120.792 299.455 121.319 299.728 122.024 299.728C122.631 299.728 123.073 299.536 123.35 299.152C123.644 298.768 123.805 298.34 123.832 297.866ZM127.732 300.29V294.318H125.375V293.488H131.267V294.318H128.91V300.29H127.732ZM133.345 293.488V298.911L136.894 293.488H138.206V300.29H137.028V294.854L133.493 300.29H132.167V293.488H133.345Z" fill="black"/>
<path d="M93.3258 32.7373V19.6152H98.6684C101.63 19.6152 103.111 20.8711 103.111 23.3831C103.111 26.1325 101.574 27.5072 98.4997 27.5072H95.0879V32.7373H93.3258ZM98.3122 21.0961H95.0879V26.0263H98.3122C99.3495 26.0263 100.106 25.8138 100.58 25.3889C101.068 24.9515 101.312 24.2954 101.312 23.4206C101.312 22.6083 101.068 22.0209 100.58 21.6585C100.093 21.2835 99.337 21.0961 98.3122 21.0961ZM107.06 21.0961V25.2202H113.94V26.7011H107.06V31.2564H114.859V32.7373H105.298V19.6152H114.653V21.0961H107.06ZM118.539 31.2564H125.212V32.7373H116.777V19.6152H118.539V31.2564ZM126.699 32.7373V19.6152H131.516C131.866 19.6152 132.123 19.6214 132.285 19.6339C133.035 19.6589 133.791 19.8401 134.553 20.1775C134.953 20.34 135.353 20.5899 135.753 20.9274C136.165 21.2648 136.503 21.646 136.765 22.0709C137.428 23.0707 137.759 24.4266 137.759 26.1387C137.684 28.7257 137.009 30.494 135.734 31.4438C135.284 31.7813 134.878 32.0312 134.516 32.1937C134.153 32.3436 133.71 32.4624 133.185 32.5498C132.672 32.6498 132.26 32.7061 131.948 32.7186C131.748 32.7311 131.385 32.7373 130.86 32.7373H126.699ZM131.423 21.0961H128.461V31.2564H130.917C132.616 31.2564 133.866 30.8502 134.666 30.0379C135.478 29.2131 135.884 27.9259 135.884 26.1762C135.884 25.2264 135.759 24.4079 135.509 23.7205C135.259 23.0332 134.916 22.5083 134.478 22.1459C134.041 21.7709 133.572 21.5022 133.072 21.3398C132.572 21.1773 132.023 21.0961 131.423 21.0961ZM140.566 32.7373V30.694H142.422V33.3184C142.422 33.9433 142.247 34.4369 141.897 34.7994C141.547 35.1618 141.103 35.3992 140.566 35.5117V34.4807C140.828 34.4557 141.047 34.3245 141.222 34.087C141.41 33.8621 141.503 33.6059 141.503 33.3184V32.7373H140.566ZM147.756 31.2564H154.429V32.7373H145.994V19.6152H147.756V31.2564ZM155.916 32.7373V19.6152H160.734C161.084 19.6152 161.34 19.6214 161.502 19.6339C162.252 19.6589 163.008 19.8401 163.771 20.1775C164.17 20.34 164.57 20.5899 164.97 20.9274C165.383 21.2648 165.72 21.646 165.983 22.0709C166.645 23.0707 166.976 24.4266 166.976 26.1387C166.901 28.7257 166.226 30.494 164.952 31.4438C164.502 31.7813 164.095 32.0312 163.733 32.1937C163.371 32.3436 162.927 32.4624 162.402 32.5498C161.89 32.6498 161.477 32.7061 161.165 32.7186C160.965 32.7311 160.602 32.7373 160.078 32.7373H155.916ZM160.64 21.0961H157.678V31.2564H160.134C161.833 31.2564 163.083 30.8502 163.883 30.0379C164.695 29.2131 165.101 27.9259 165.101 26.1762C165.101 25.2264 164.977 24.4079 164.727 23.7205C164.477 23.0332 164.133 22.5083 163.696 22.1459C163.258 21.7709 162.789 21.5022 162.29 21.3398C161.79 21.1773 161.24 21.0961 160.64 21.0961ZM169.39 32.7373V19.6152H174.732C177.694 19.6152 179.175 20.8711 179.175 23.3831C179.175 26.1325 177.638 27.5072 174.563 27.5072H171.152V32.7373H169.39ZM174.376 21.0961H171.152V26.0263H174.376C175.413 26.0263 176.169 25.8138 176.644 25.3889C177.132 24.9515 177.375 24.2954 177.375 23.4206C177.375 22.6083 177.132 22.0209 176.644 21.6585C176.157 21.2835 175.401 21.0961 174.376 21.0961ZM183.124 21.0961V25.2202H190.004V26.7011H183.124V31.2564H190.923V32.7373H181.362V19.6152H190.716V21.0961H183.124ZM192.428 36.2053H191.247L197.939 19.6152H199.12L192.428 36.2053ZM209.073 21.0961H202.474V32.7373H200.712V19.6152H210.835V32.7373H209.073V21.0961ZM214.021 32.7373V19.6152H219.776C220.526 19.6152 221.169 19.7151 221.707 19.9151C222.244 20.1026 222.65 20.3712 222.925 20.7212C223.2 21.0586 223.394 21.4085 223.506 21.7709C223.631 22.1334 223.694 22.527 223.694 22.9519C223.694 23.6518 223.481 24.2704 223.057 24.8078C222.644 25.3452 222.126 25.6638 221.501 25.7638V25.8201C221.813 25.87 222.113 25.9575 222.4 26.0825C222.688 26.2075 222.975 26.3887 223.263 26.6261C223.563 26.8636 223.8 27.1948 223.975 27.6197C224.163 28.0446 224.256 28.532 224.256 29.0818C224.256 31.5188 222.694 32.7373 219.57 32.7373H214.021ZM219.382 21.0961H215.783V25.1827H219.326C220.188 25.1827 220.832 25.0015 221.257 24.6391C221.682 24.2641 221.894 23.7643 221.894 23.1394C221.894 22.9144 221.863 22.702 221.801 22.502C221.738 22.2896 221.626 22.0709 221.463 21.8459C221.301 21.621 221.038 21.4398 220.676 21.3023C220.326 21.1648 219.895 21.0961 219.382 21.0961ZM219.439 26.6636H215.783V31.2564H219.439C220.013 31.2564 220.538 31.1876 221.013 31.0502C221.976 30.7627 222.457 30.0566 222.457 28.9319C222.457 27.4197 221.451 26.6636 219.439 26.6636ZM237.05 19.6152V31.2564H238.943L238.774 35.6992H237.237V32.7373H227.039V35.6992H225.502L225.352 31.2564H226.533C228.195 29.1818 229.026 26.2012 229.026 22.3146V19.6152H237.05ZM235.287 31.2564V21.0961H230.788V22.727C230.788 24.5891 230.632 26.17 230.32 27.4697C229.995 28.8194 229.432 30.0816 228.633 31.2564H235.287ZM101.687 40.0961H95.0879V51.7373H93.3258V38.6152H103.449V51.7373H101.687V40.0961ZM106.091 48.8504C105.766 47.5132 105.779 46.2198 106.129 44.97C106.478 43.7203 107.216 42.8267 108.341 42.2894C108.965 41.9894 109.697 41.8395 110.534 41.8395C111.371 41.8395 112.102 41.9894 112.727 42.2894C113.852 42.8142 114.595 43.7515 114.958 45.1012C115.12 45.7261 115.202 46.3572 115.202 46.9946C115.214 47.6194 115.139 48.2381 114.977 48.8504C114.827 49.4503 114.558 50.0002 114.171 50.5001C113.796 51 113.314 51.3936 112.727 51.6811C112.09 51.9685 111.359 52.1122 110.534 52.1122C109.709 52.1122 108.978 51.9685 108.341 51.6811C107.253 51.1562 106.503 50.2126 106.091 48.8504ZM107.834 45.0825C107.672 45.5824 107.591 46.2073 107.591 46.9571C107.591 47.6944 107.672 48.3255 107.834 48.8504C107.997 49.3753 108.184 49.769 108.397 50.0314C108.847 50.5313 109.359 50.825 109.934 50.9125C110.334 50.975 110.734 50.975 111.134 50.9125C111.309 50.9 111.552 50.8125 111.865 50.65C112.202 50.4751 112.477 50.2564 112.69 49.9939C112.902 49.7315 113.083 49.3503 113.233 48.8504C113.396 48.3255 113.477 47.6944 113.477 46.9571C113.477 46.2073 113.396 45.5824 113.233 45.0825C113.058 44.5326 112.865 44.139 112.652 43.9015C112.452 43.6641 112.202 43.4641 111.902 43.3016C111.602 43.1392 111.346 43.0392 111.134 43.0017C110.734 42.9392 110.334 42.9392 109.934 43.0017C109.759 43.0142 109.509 43.1079 109.184 43.2829C108.547 43.5953 108.097 44.1952 107.834 45.0825ZM116.269 51.7373V50.5188C117.206 50.7938 117.869 50.3501 118.256 49.1879C118.356 48.9004 118.425 48.5442 118.462 48.1193L118.537 46.9758C118.55 46.7759 118.556 46.3822 118.556 45.7948V42.2144H125.155V51.7373H123.505V43.3766H120.093V45.7948C120.093 46.5822 120.074 47.2445 120.037 47.7819C119.999 48.3068 119.906 48.8817 119.756 49.5065C119.543 50.3938 119.162 51.025 118.612 51.3999C118.062 51.7748 117.281 51.8873 116.269 51.7373ZM129.496 42.2144V49.8065L134.464 42.2144H136.301V51.7373H134.651V44.1265L129.702 51.7373H127.846V42.2144H129.496ZM145.462 47.3695H141.357V46.2073H145.462C145.45 45.6449 145.369 45.1575 145.219 44.7451C145.069 44.3327 144.894 44.0202 144.694 43.8078C144.494 43.5953 144.256 43.4266 143.981 43.3016C143.706 43.1642 143.475 43.0829 143.288 43.0579C143.113 43.0204 142.938 43.0017 142.763 43.0017C141.951 43.0017 141.295 43.2079 140.795 43.6203C140.307 44.0202 140.039 44.5451 139.989 45.195H138.414C138.576 43.8828 139.195 42.9267 140.27 42.3268C140.545 42.1519 140.845 42.0394 141.17 41.9894C141.682 41.8894 142.157 41.8395 142.594 41.8395C145.669 41.8395 147.206 43.5766 147.206 47.0508C147.206 50.4251 145.7 52.1122 142.688 52.1122C141.951 52.1122 141.307 52.0185 140.757 51.831C139.482 51.4311 138.676 50.3001 138.339 48.438H139.914C140.126 50.1127 141.051 50.95 142.688 50.95C143.288 50.95 143.794 50.8188 144.206 50.5563C144.619 50.2814 144.906 49.9189 145.069 49.469C145.331 48.7317 145.462 48.0319 145.462 47.3695ZM151.33 51.7373V43.3766H148.031V42.2144H156.279V43.3766H152.98V51.7373H151.33ZM159.189 42.2144V49.8065L164.157 42.2144H165.994V51.7373H164.344V44.1265L159.395 51.7373H157.54V42.2144H159.189ZM167.582 51.7373V50.5188C168.52 50.7938 169.182 50.3501 169.569 49.1879C169.669 48.9004 169.738 48.5442 169.776 48.1193L169.851 46.9758C169.863 46.7759 169.869 46.3822 169.869 45.7948V42.2144H176.468V51.7373H174.818V43.3766H171.406V45.7948C171.406 46.5822 171.388 47.2445 171.35 47.7819C171.313 48.3068 171.219 48.8817 171.069 49.5065C170.857 50.3938 170.475 51.025 169.925 51.3999C169.376 51.7748 168.595 51.8873 167.582 51.7373ZM186.021 48.9817H187.595C187.445 49.819 187.039 50.5501 186.377 51.1749C185.714 51.7998 184.733 52.1122 183.434 52.1122C181.672 52.1122 180.378 51.5311 179.553 50.3689C179.141 49.7565 178.872 49.1004 178.747 48.4005C178.66 47.9131 178.616 47.4507 178.616 47.0133C178.616 46.176 178.741 45.3887 178.991 44.6513C179.153 44.1265 179.391 43.6703 179.703 43.2829C180.041 42.8705 180.522 42.5268 181.147 42.2519C181.772 41.9769 182.478 41.8395 183.265 41.8395C184.665 41.8395 185.721 42.2269 186.433 43.0017C186.733 43.3266 186.977 43.739 187.164 44.2389C187.439 44.9638 187.608 45.8448 187.67 46.8821C187.67 46.9196 187.67 47.0008 187.67 47.1258C187.683 47.2508 187.689 47.3258 187.689 47.3508H180.359C180.359 48.3006 180.609 49.1379 181.109 49.8627C181.609 50.5876 182.365 50.95 183.377 50.95C184.102 50.95 184.696 50.7688 185.158 50.4063C185.621 50.0439 185.908 49.569 186.021 48.9817ZM180.359 46.1885H185.946C185.933 45.4512 185.758 44.7701 185.421 44.1452C185.033 43.3829 184.327 43.0017 183.302 43.0017C182.14 43.0017 181.34 43.3891 180.903 44.164C180.541 44.7888 180.359 45.4637 180.359 46.1885ZM196.206 47.2945H191.5V51.7373H189.851V42.2144H191.5V46.1323H196.206V42.2144H197.855V51.7373H196.206V47.2945ZM211.29 47.2945H206.585V51.7373H204.935V42.2144H206.585V46.1323H211.29V42.2144H212.94V51.7373H211.29V47.2945ZM217.294 42.2144V49.8065L222.262 42.2144H224.099V51.7373H222.449V44.1265L217.5 51.7373H215.645V42.2144H217.294ZM226.043 48.8129H227.618C227.618 49.4378 227.843 49.9502 228.293 50.3501C228.743 50.75 229.362 50.95 230.149 50.95C230.924 50.95 231.53 50.7938 231.967 50.4813C232.405 50.1564 232.623 49.6878 232.623 49.0754C232.623 47.9381 231.905 47.3695 230.468 47.3695H229.062V46.2073H230.28C231.605 46.2073 232.267 45.7136 232.267 44.7263C232.267 44.5639 232.242 44.4014 232.192 44.2389C232.155 44.0765 232.067 43.8953 231.93 43.6953C231.805 43.4828 231.586 43.3141 231.274 43.1892C230.961 43.0642 230.574 43.0017 230.111 43.0017C229.287 43.0017 228.705 43.1954 228.368 43.5828C228.031 43.9702 227.862 44.3889 227.862 44.8388H226.287C226.325 44.1889 226.493 43.6453 226.793 43.2079C227.093 42.7705 227.481 42.4581 227.956 42.2706C228.73 41.9832 229.48 41.8395 230.205 41.8395C230.842 41.8395 231.405 41.9144 231.892 42.0644C232.38 42.2019 232.748 42.3706 232.998 42.5705C233.261 42.7705 233.467 43.008 233.617 43.2829C233.779 43.5578 233.879 43.8015 233.917 44.014C233.954 44.2139 233.973 44.4139 233.973 44.6139C233.973 45.7261 233.423 46.4197 232.323 46.6947V46.7509C232.911 46.8384 233.392 47.0946 233.767 47.5195C234.142 47.9444 234.329 48.5005 234.329 49.1879C234.329 49.8877 234.079 50.5251 233.579 51.0999C232.967 51.7748 231.867 52.1122 230.28 52.1122C228.943 52.1122 227.924 51.831 227.224 51.2687C226.437 50.5813 226.043 49.7627 226.043 48.8129ZM238.127 42.2144V46.376L242.195 42.2144H244.126L239.664 46.6384L244.37 51.7373H242.401L238.127 46.9758V51.7373H236.477V42.2144H238.127ZM245.001 48.8504C244.676 47.5132 244.689 46.2198 245.039 44.97C245.389 43.7203 246.126 42.8267 247.251 42.2894C247.876 41.9894 248.607 41.8395 249.444 41.8395C250.281 41.8395 251.013 41.9894 251.637 42.2894C252.762 42.8142 253.506 43.7515 253.868 45.1012C254.031 45.7261 254.112 46.3572 254.112 46.9946C254.124 47.6194 254.049 48.2381 253.887 48.8504C253.737 49.4503 253.468 50.0002 253.081 50.5001C252.706 51 252.225 51.3936 251.637 51.6811C251 51.9685 250.269 52.1122 249.444 52.1122C248.619 52.1122 247.888 51.9685 247.251 51.6811C246.164 51.1562 245.414 50.2126 245.001 48.8504ZM246.745 45.0825C246.582 45.5824 246.501 46.2073 246.501 46.9571C246.501 47.6944 246.582 48.3255 246.745 48.8504C246.907 49.3753 247.095 49.769 247.307 50.0314C247.757 50.5313 248.269 50.825 248.844 50.9125C249.244 50.975 249.644 50.975 250.044 50.9125C250.219 50.9 250.463 50.8125 250.775 50.65C251.112 50.4751 251.387 50.2564 251.6 49.9939C251.812 49.7315 251.994 49.3503 252.144 48.8504C252.306 48.3255 252.387 47.6944 252.387 46.9571C252.387 46.2073 252.306 45.5824 252.144 45.0825C251.969 44.5326 251.775 44.139 251.562 43.9015C251.362 43.6641 251.112 43.4641 250.813 43.3016C250.513 43.1392 250.256 43.0392 250.044 43.0017C249.644 42.9392 249.244 42.9392 248.844 43.0017C248.669 43.0142 248.419 43.1079 248.094 43.2829C247.457 43.5953 247.007 44.1952 246.745 45.0825ZM257.935 42.2144V49.8065L262.902 42.2144H264.74V51.7373H263.09V44.1265L258.141 51.7373H256.285V42.2144H257.935ZM262.284 38.6152H263.69C263.427 39.9899 262.603 40.7959 261.215 41.0334C260.978 41.0709 260.728 41.0896 260.466 41.0896C258.853 41.0896 257.822 40.4335 257.372 39.1213C257.335 39.0338 257.291 38.8651 257.241 38.6152H258.647C258.61 38.9401 258.722 39.2463 258.985 39.5337C259.172 39.7337 259.391 39.8836 259.641 39.9836C259.866 40.0586 260.141 40.0961 260.466 40.0961C261.003 40.0961 261.447 39.9649 261.796 39.7024C262.146 39.4275 262.309 39.0651 262.284 38.6152ZM99.5495 62.3766H94.7318V70.7373H93.0821V61.2144H101.199V70.7373H99.5495V62.3766ZM102.795 70.7373V69.5188C103.733 69.7938 104.395 69.3501 104.782 68.1879C104.882 67.9004 104.951 67.5442 104.989 67.1193L105.064 65.9758C105.076 65.7759 105.082 65.3822 105.082 64.7948V61.2144H111.681V70.7373H110.031V62.3766H106.619V64.7948C106.619 65.5822 106.601 66.2445 106.563 66.7819C106.526 67.3068 106.432 67.8817 106.282 68.5065C106.07 69.3938 105.688 70.025 105.139 70.3999C104.589 70.7748 103.808 70.8873 102.795 70.7373ZM114.073 67.8504C113.748 66.5132 113.76 65.2198 114.11 63.97C114.46 62.7203 115.197 61.8267 116.322 61.2894C116.947 60.9894 117.678 60.8395 118.516 60.8395C119.353 60.8395 120.084 60.9894 120.709 61.2894C121.834 61.8142 122.577 62.7515 122.94 64.1012C123.102 64.7261 123.183 65.3572 123.183 65.9946C123.196 66.6194 123.121 67.2381 122.958 67.8504C122.808 68.4503 122.54 69.0002 122.152 69.5001C121.777 70 121.296 70.3936 120.709 70.6811C120.071 70.9685 119.34 71.1122 118.516 71.1122C117.691 71.1122 116.96 70.9685 116.322 70.6811C115.235 70.1562 114.485 69.2126 114.073 67.8504ZM115.816 64.0825C115.654 64.5824 115.572 65.2073 115.572 65.9571C115.572 66.6944 115.654 67.3255 115.816 67.8504C115.979 68.3753 116.166 68.769 116.378 69.0314C116.828 69.5313 117.341 69.825 117.916 69.9125C118.316 69.975 118.715 69.975 119.115 69.9125C119.29 69.9 119.534 69.8125 119.846 69.65C120.184 69.4751 120.459 69.2564 120.671 68.9939C120.884 68.7315 121.065 68.3503 121.215 67.8504C121.377 67.3255 121.459 66.6944 121.459 65.9571C121.459 65.2073 121.377 64.5824 121.215 64.0825C121.04 63.5326 120.846 63.139 120.634 62.9015C120.434 62.6641 120.184 62.4641 119.884 62.3016C119.584 62.1392 119.328 62.0392 119.115 62.0017C118.715 61.9392 118.316 61.9392 117.916 62.0017C117.741 62.0142 117.491 62.1079 117.166 62.2829C116.528 62.5953 116.079 63.1952 115.816 64.0825ZM126.964 70.7373V62.3766H123.665V61.2144H131.913V62.3766H128.614V70.7373H126.964ZM139.528 66.2945H134.823V70.7373H133.174V61.2144H134.823V65.1323H139.528V61.2144H141.178V70.7373H139.528V66.2945ZM143.583 67.8504C143.258 66.5132 143.27 65.2198 143.62 63.97C143.97 62.7203 144.708 61.8267 145.832 61.2894C146.457 60.9894 147.188 60.8395 148.026 60.8395C148.863 60.8395 149.594 60.9894 150.219 61.2894C151.344 61.8142 152.087 62.7515 152.45 64.1012C152.612 64.7261 152.693 65.3572 152.693 65.9946C152.706 66.6194 152.631 67.2381 152.468 67.8504C152.319 68.4503 152.05 69.0002 151.662 69.5001C151.287 70 150.806 70.3936 150.219 70.6811C149.582 70.9685 148.851 71.1122 148.026 71.1122C147.201 71.1122 146.47 70.9685 145.832 70.6811C144.745 70.1562 143.995 69.2126 143.583 67.8504ZM145.326 64.0825C145.164 64.5824 145.083 65.2073 145.083 65.9571C145.083 66.6944 145.164 67.3255 145.326 67.8504C145.489 68.3753 145.676 68.769 145.889 69.0314C146.339 69.5313 146.851 69.825 147.426 69.9125C147.826 69.975 148.226 69.975 148.626 69.9125C148.801 69.9 149.044 69.8125 149.357 69.65C149.694 69.4751 149.969 69.2564 150.181 68.9939C150.394 68.7315 150.575 68.3503 150.725 67.8504C150.888 67.3255 150.969 66.6944 150.969 65.9571C150.969 65.2073 150.888 64.5824 150.725 64.0825C150.55 63.5326 150.356 63.139 150.144 62.9015C149.944 62.6641 149.694 62.4641 149.394 62.3016C149.094 62.1392 148.838 62.0392 148.626 62.0017C148.226 61.9392 147.826 61.9392 147.426 62.0017C147.251 62.0142 147.001 62.1079 146.676 62.2829C146.039 62.5953 145.589 63.1952 145.326 64.0825ZM161.54 67.3443H163.115C163.065 68.0691 162.79 68.8315 162.29 69.6313C162.015 70.0812 161.584 70.4436 160.997 70.7186C160.422 70.981 159.747 71.1122 158.972 71.1122C158.71 71.1122 158.522 71.106 158.41 71.0935C157.86 71.0685 157.298 70.9248 156.723 70.6623C155.123 69.8625 154.323 68.2753 154.323 65.9009C154.323 64.6511 154.611 63.5389 155.185 62.5641C155.898 61.4143 157.123 60.8395 158.86 60.8395C160.084 60.8395 161.059 61.1519 161.784 61.7768C162.509 62.3891 162.928 63.1952 163.04 64.195H161.465C161.215 62.7328 160.359 62.0017 158.897 62.0017C157.947 62.0017 157.235 62.3516 156.76 63.0515C156.298 63.7388 156.067 64.6886 156.067 65.9009C156.067 67.0756 156.31 68.0441 156.798 68.8065C157.285 69.5688 158.022 69.95 159.01 69.95C159.859 69.95 160.478 69.6813 160.865 69.1439C161.278 68.6065 161.503 68.0066 161.54 67.3443ZM167.001 70.7373V62.3766H163.701V61.2144H171.949V62.3766H168.65V70.7373H167.001ZM174.86 61.2144V68.8065L179.827 61.2144H181.664V70.7373H180.015V63.1265L175.066 70.7373H173.21V61.2144H174.86ZM188.734 70.7373V61.2144H193.27C195.283 61.2144 196.289 61.9705 196.289 63.4826C196.289 64.5699 195.714 65.3135 194.564 65.7134V65.7696C195.339 65.9571 195.876 66.257 196.176 66.6694C196.489 67.0818 196.645 67.613 196.645 68.2628C196.645 69.3001 196.264 69.9875 195.501 70.3249C194.876 70.5998 194.114 70.7373 193.214 70.7373H188.734ZM192.746 62.3766H190.384V65.1885H192.671C193.333 65.1885 193.82 65.0573 194.133 64.7948C194.458 64.5199 194.62 64.1637 194.62 63.7263C194.62 62.8265 193.995 62.3766 192.746 62.3766ZM192.746 66.3508H190.384V69.5751H192.802C194.227 69.5751 194.939 69.0877 194.939 68.1129C194.939 66.9381 194.208 66.3508 192.746 66.3508ZM198.839 70.7373V61.2144H200.489V64.9823H202.888C203.651 64.9823 204.288 65.0573 204.8 65.2073C206.025 65.5197 206.662 66.4132 206.712 67.8879C206.712 68.7627 206.444 69.4563 205.906 69.9687C205.381 70.4811 204.563 70.7373 203.451 70.7373H198.839ZM202.495 66.1446H200.489V69.5751H202.795C204.269 69.5751 205.007 68.9752 205.007 67.7754C205.007 67.1881 204.813 66.7632 204.425 66.5007C204.3 66.4007 204.094 66.3195 203.807 66.257C203.507 66.182 203.07 66.1446 202.495 66.1446ZM207.875 70.7373V61.2144H209.524V70.7373H207.875ZM218.895 67.3443H220.469C220.419 68.0691 220.145 68.8315 219.645 69.6313C219.37 70.0812 218.939 70.4436 218.351 70.7186C217.776 70.981 217.101 71.1122 216.327 71.1122C216.064 71.1122 215.877 71.106 215.764 71.0935C215.214 71.0685 214.652 70.9248 214.077 70.6623C212.477 69.8625 211.678 68.2753 211.678 65.9009C211.678 64.6511 211.965 63.5389 212.54 62.5641C213.252 61.4143 214.477 60.8395 216.214 60.8395C217.439 60.8395 218.414 61.1519 219.139 61.7768C219.863 62.3891 220.282 63.1952 220.394 64.195H218.82C218.57 62.7328 217.714 62.0017 216.252 62.0017C215.302 62.0017 214.59 62.3516 214.115 63.0515C213.652 63.7388 213.421 64.6886 213.421 65.9009C213.421 67.0756 213.665 68.0441 214.152 68.8065C214.639 69.5688 215.377 69.95 216.364 69.95C217.214 69.95 217.833 69.6813 218.22 69.1439C218.632 68.6065 218.857 68.0066 218.895 67.3443ZM222.191 67.8504C221.866 66.5132 221.879 65.2198 222.229 63.97C222.579 62.7203 223.316 61.8267 224.441 61.2894C225.066 60.9894 225.797 60.8395 226.634 60.8395C227.471 60.8395 228.203 60.9894 228.827 61.2894C229.952 61.8142 230.696 62.7515 231.058 64.1012C231.221 64.7261 231.302 65.3572 231.302 65.9946C231.314 66.6194 231.239 67.2381 231.077 67.8504C230.927 68.4503 230.658 69.0002 230.271 69.5001C229.896 70 229.415 70.3936 228.827 70.6811C228.19 70.9685 227.459 71.1122 226.634 71.1122C225.809 71.1122 225.078 70.9685 224.441 70.6811C223.354 70.1562 222.604 69.2126 222.191 67.8504ZM223.935 64.0825C223.772 64.5824 223.691 65.2073 223.691 65.9571C223.691 66.6944 223.772 67.3255 223.935 67.8504C224.097 68.3753 224.285 68.769 224.497 69.0314C224.947 69.5313 225.459 69.825 226.034 69.9125C226.434 69.975 226.834 69.975 227.234 69.9125C227.409 69.9 227.653 69.8125 227.965 69.65C228.303 69.4751 228.577 69.2564 228.79 68.9939C229.002 68.7315 229.184 68.3503 229.334 67.8504C229.496 67.3255 229.577 66.6944 229.577 65.9571C229.577 65.2073 229.496 64.5824 229.334 64.0825C229.159 63.5326 228.965 63.139 228.752 62.9015C228.552 62.6641 228.302 62.4641 228.003 62.3016C227.703 62.1392 227.446 62.0392 227.234 62.0017C226.834 61.9392 226.434 61.9392 226.034 62.0017C225.859 62.0142 225.609 62.1079 225.284 62.2829C224.647 62.5953 224.197 63.1952 223.935 64.0825ZM235.125 61.2144V65.376L239.193 61.2144H241.124L236.662 65.6384L241.367 70.7373H239.399L235.125 65.9758V70.7373H233.475V61.2144H235.125ZM241.999 67.8504C241.674 66.5132 241.687 65.2198 242.037 63.97C242.386 62.7203 243.124 61.8267 244.249 61.2894C244.873 60.9894 245.605 60.8395 246.442 60.8395C247.279 60.8395 248.01 60.9894 248.635 61.2894C249.76 61.8142 250.503 62.7515 250.866 64.1012C251.028 64.7261 251.11 65.3572 251.11 65.9946C251.122 66.6194 251.047 67.2381 250.885 67.8504C250.735 68.4503 250.466 69.0002 250.079 69.5001C249.704 70 249.222 70.3936 248.635 70.6811C247.998 70.9685 247.267 71.1122 246.442 71.1122C245.617 71.1122 244.886 70.9685 244.249 70.6811C243.161 70.1562 242.411 69.2126 241.999 67.8504ZM243.742 64.0825C243.58 64.5824 243.499 65.2073 243.499 65.9571C243.499 66.6944 243.58 67.3255 243.742 67.8504C243.905 68.3753 244.092 68.769 244.305 69.0314C244.755 69.5313 245.267 69.825 245.842 69.9125C246.242 69.975 246.642 69.975 247.042 69.9125C247.217 69.9 247.46 69.8125 247.773 69.65C248.11 69.4751 248.385 69.2564 248.598 68.9939C248.81 68.7315 248.991 68.3503 249.141 67.8504C249.304 67.3255 249.385 66.6944 249.385 65.9571C249.385 65.2073 249.304 64.5824 249.141 64.0825C248.966 63.5326 248.773 63.139 248.56 62.9015C248.36 62.6641 248.11 62.4641 247.81 62.3016C247.51 62.1392 247.254 62.0392 247.042 62.0017C246.642 61.9392 246.242 61.9392 245.842 62.0017C245.667 62.0142 245.417 62.1079 245.092 62.2829C244.455 62.5953 244.005 63.1952 243.742 64.0825ZM259.806 62.3766H254.933V70.7373H253.283V61.2144H259.806V62.3766ZM260.617 67.8504C260.292 66.5132 260.304 65.2198 260.654 63.97C261.004 62.7203 261.742 61.8267 262.866 61.2894C263.491 60.9894 264.222 60.8395 265.06 60.8395C265.897 60.8395 266.628 60.9894 267.253 61.2894C268.378 61.8142 269.121 62.7515 269.484 64.1012C269.646 64.7261 269.727 65.3572 269.727 65.9946C269.74 66.6194 269.665 67.2381 269.502 67.8504C269.352 68.4503 269.084 69.0002 268.696 69.5001C268.321 70 267.84 70.3936 267.253 70.6811C266.616 70.9685 265.884 71.1122 265.06 71.1122C264.235 71.1122 263.504 70.9685 262.866 70.6811C261.779 70.1562 261.029 69.2126 260.617 67.8504ZM262.36 64.0825C262.198 64.5824 262.116 65.2073 262.116 65.9571C262.116 66.6944 262.198 67.3255 262.36 67.8504C262.523 68.3753 262.71 68.769 262.923 69.0314C263.372 69.5313 263.885 69.825 264.46 69.9125C264.86 69.975 265.26 69.975 265.659 69.9125C265.834 69.9 266.078 69.8125 266.391 69.65C266.728 69.4751 267.003 69.2564 267.215 68.9939C267.428 68.7315 267.609 68.3503 267.759 67.8504C267.921 67.3255 268.003 66.6944 268.003 65.9571C268.003 65.2073 267.921 64.5824 267.759 64.0825C267.584 63.5326 267.39 63.139 267.178 62.9015C266.978 62.6641 266.728 62.4641 266.428 62.3016C266.128 62.1392 265.872 62.0392 265.659 62.0017C265.26 61.9392 264.86 61.9392 264.46 62.0017C264.285 62.0142 264.035 62.1079 263.71 62.2829C263.073 62.5953 262.623 63.1952 262.36 64.0825ZM91.8824 92.2118L91.7324 88.5751H92.9322C93.9694 87.0504 94.4881 84.7946 94.4881 81.8078V80.2144H101.312V88.5751H102.961L102.83 92.2118H101.443V89.7373H93.2696V92.2118H91.8824ZM99.6619 88.5751V81.3766H96.0252V82.7076C96.0252 83.7199 95.9128 84.7696 95.6878 85.8569C95.4879 86.9317 95.1504 87.8377 94.6755 88.5751H99.6619ZM105.633 83.0263H104.059C104.059 82.2764 104.309 81.5891 104.808 80.9642C105.408 80.2144 106.508 79.8395 108.108 79.8395C109.045 79.8395 109.87 80.0269 110.582 80.4018C110.995 80.6018 111.32 80.933 111.557 81.3954C111.794 81.8578 111.907 82.4076 111.894 83.045L111.801 87.4503C111.801 87.8127 111.838 88.0939 111.913 88.2939C112.026 88.4938 112.319 88.5876 112.794 88.5751V89.7373C112.607 89.7873 112.357 89.8123 112.044 89.8123C111.494 89.8123 111.095 89.7186 110.845 89.5311C110.607 89.3436 110.438 88.975 110.338 88.4251C109.726 89.5498 108.639 90.1122 107.077 90.1122C106.002 90.1122 105.171 89.8748 104.583 89.3999C104.009 88.9125 103.721 88.1939 103.721 87.2441C103.721 86.3443 104.046 85.6632 104.696 85.2008C105.346 84.7134 106.577 84.3885 108.389 84.226C109.226 84.1635 109.726 84.0823 109.889 83.9823C110.126 83.8198 110.245 83.4637 110.245 82.9138C110.245 81.6391 109.532 81.0017 108.108 81.0017C106.421 81.0017 105.596 81.6766 105.633 83.0263ZM110.207 85.6694L110.245 84.8634C110.057 85.0008 109.782 85.1133 109.42 85.2008C108.87 85.2383 108.445 85.282 108.145 85.332C107.108 85.507 106.477 85.6507 106.252 85.7632C105.702 86.0256 105.427 86.5005 105.427 87.1879C105.427 87.7377 105.59 88.1689 105.914 88.4813C106.252 88.7938 106.702 88.95 107.264 88.95C107.627 88.95 107.958 88.9 108.258 88.8C108.57 88.7 108.87 88.5376 109.157 88.3126C109.457 88.0752 109.695 87.7315 109.87 87.2816C110.057 86.8317 110.17 86.2943 110.207 85.6694ZM114.739 89.7373V80.2144H119.275C121.287 80.2144 122.293 80.9705 122.293 82.4826C122.293 83.5699 121.719 84.3135 120.569 84.7134V84.7696C121.344 84.9571 121.881 85.257 122.181 85.6694C122.493 86.0818 122.65 86.613 122.65 87.2628C122.65 88.3001 122.268 88.9875 121.506 89.3249C120.881 89.5998 120.119 89.7373 119.219 89.7373H114.739ZM118.75 81.3766H116.388V84.1885H118.675C119.338 84.1885 119.825 84.0573 120.138 83.7948C120.463 83.5199 120.625 83.1637 120.625 82.7263C120.625 81.8265 120 81.3766 118.75 81.3766ZM118.75 85.3508H116.388V88.5751H118.807C120.231 88.5751 120.944 88.0877 120.944 87.1129C120.944 85.9381 120.213 85.3508 118.75 85.3508ZM123.738 89.7373V88.5188C124.675 88.7938 125.338 88.3501 125.725 87.1879C125.825 86.9004 125.894 86.5442 125.931 86.1193L126.006 84.9758C126.019 84.7759 126.025 84.3822 126.025 83.7948V80.2144H132.624V89.7373H130.974V81.3766H127.562V83.7948C127.562 84.5822 127.543 85.2445 127.506 85.7819C127.468 86.3068 127.375 86.8817 127.225 87.5065C127.012 88.3938 126.631 89.025 126.081 89.3999C125.531 89.7748 124.75 89.8873 123.738 89.7373ZM142.176 86.9817H143.751C143.601 87.819 143.195 88.5501 142.533 89.1749C141.87 89.7998 140.889 90.1122 139.589 90.1122C137.827 90.1122 136.534 89.5311 135.709 88.3689C135.297 87.7565 135.028 87.1004 134.903 86.4005C134.815 85.9131 134.772 85.4507 134.772 85.0133C134.772 84.176 134.897 83.3887 135.147 82.6513C135.309 82.1265 135.547 81.6703 135.859 81.2829C136.196 80.8705 136.678 80.5268 137.302 80.2519C137.927 79.9769 138.633 79.8395 139.421 79.8395C140.82 79.8395 141.876 80.2269 142.589 81.0017C142.889 81.3266 143.132 81.739 143.32 82.2389C143.595 82.9638 143.764 83.8448 143.826 84.8821C143.826 84.9196 143.826 85.0008 143.826 85.1258C143.839 85.2508 143.845 85.3258 143.845 85.3508H136.515C136.515 86.3006 136.765 87.1379 137.265 87.8627C137.765 88.5876 138.521 88.95 139.533 88.95C140.258 88.95 140.852 88.7688 141.314 88.4063C141.776 88.0439 142.064 87.569 142.176 86.9817ZM136.515 84.1885H142.101C142.089 83.4512 141.914 82.7701 141.577 82.1452C141.189 81.3829 140.483 81.0017 139.458 81.0017C138.296 81.0017 137.496 81.3891 137.059 82.164C136.696 82.7888 136.515 83.4637 136.515 84.1885ZM152.361 85.2945H147.656V89.7373H146.006V80.2144H147.656V84.1323H152.361V80.2144H154.011V89.7373H152.361V85.2945ZM158.365 80.2144V87.8065L163.333 80.2144H165.17V89.7373H163.521V82.1265L158.572 89.7373H156.716V80.2144H158.365ZM173.694 85.9881H171.52L169.027 89.7373H167.208L169.833 85.9694C169.108 85.8944 168.521 85.6132 168.071 85.1258C167.621 84.6384 167.396 84.0011 167.396 83.2137C167.396 82.4764 167.59 81.8328 167.977 81.2829C168.439 80.5705 169.314 80.2144 170.601 80.2144H175.344V89.7373H173.694V85.9881ZM173.694 84.8259V81.3766H171.314C169.839 81.3766 169.102 81.9702 169.102 83.1575C169.102 83.6449 169.283 84.0448 169.645 84.3572C170.008 84.6697 170.583 84.8259 171.37 84.8259H173.694Z" fill="black"/>
<path d="M49.0675 120.074V117.037H42.8814V115.556L49.0488 106.952H50.8296V115.556H52.8917V117.037H50.8296V120.074H49.0675ZM49.0675 109.258L44.5685 115.556H49.0675V109.258Z" fill="black"/>
<path d="M22.8487 129.592C22.4551 128.909 22.2502 128.132 22.2553 127.342C22.2603 126.551 22.4751 125.777 22.8774 125.099L29.9436 113.01L31.5428 120.111L35.8765 119.121L32.5597 104.392L17.9403 107.733L18.9235 112.1L26.3043 110.413L19.0481 122.827C18.2532 124.187 17.8291 125.734 17.819 127.313C17.8089 128.891 18.2131 130.444 18.9905 131.814C19.768 133.185 20.8912 134.323 22.2462 135.116C23.6013 135.908 25.14 136.325 26.7066 136.325H38.1544L42.5982 131.848H26.7066C25.9224 131.853 25.1511 131.646 24.4727 131.25C23.7944 130.853 23.2336 130.281 22.8487 129.592ZM52.7128 87.1575L60.1766 99.9268L53.3646 98.856L52.6795 103.28L67.4914 105.608L69.8022 90.685L65.4116 89.9948L64.1794 97.9515L56.5421 84.8856C55.7571 83.5423 54.6376 82.4288 53.2943 81.6552C51.9511 80.8816 50.4307 80.4746 48.8835 80.4746C47.3362 80.4746 45.8158 80.8816 44.4726 81.6552C43.1293 82.4288 42.0098 83.5423 41.2248 84.8856L35.6785 94.3743L37.1237 100.725L45.054 87.1575C45.4465 86.4859 46.0063 85.9292 46.6778 85.5424C47.3494 85.1556 48.1096 84.9522 48.8832 84.9522C49.6567 84.9522 50.4169 85.1556 51.0885 85.5424C51.7601 85.9292 52.3202 86.4859 52.7128 87.1575ZM78.7191 122.827L72.0718 111.455L66.3576 110.501L74.8899 125.099C75.2874 125.779 75.4994 126.553 75.5044 127.342C75.5095 128.131 75.3074 128.907 74.9186 129.593C74.5299 130.278 73.9682 130.847 73.2907 131.243C72.6131 131.639 71.8437 131.848 71.0604 131.848H55.5828L60.9097 126.481L57.7675 123.316L47.1673 133.995L57.7675 144.675L60.9097 141.509L55.7643 136.325H71.0604C72.627 136.325 74.1658 135.908 75.5208 135.116C76.8759 134.324 77.999 133.185 78.7765 131.815C79.554 130.444 79.9581 128.892 79.948 127.313C79.9379 125.735 79.514 124.187 78.7191 122.827Z" fill="black"/>
<path d="M41.252 241.555H44.5995V244.902H41.252V241.555ZM37.9045 248.25V244.902H41.252V248.25H37.9045ZM34.557 251.597V248.25H37.9045V251.597H34.557ZM31.2095 254.945H34.557V251.597H31.2095V254.945ZM27.862 258.292H31.2095V254.945H27.862V258.292ZM24.5146 258.292V261.64H27.862V258.292H24.5146ZM21.1671 254.945H24.5146V258.292H21.1671V254.945ZM21.1671 254.945H17.8196V251.597H21.1671V254.945Z" fill="black"/>
</svg>
