<svg width="388" height="389" viewBox="0 0 388 389" fill="none" xmlns="http://www.w3.org/2000/svg">
<rect width="388" height="388" transform="translate(0 0.108398)" fill="#FFFF00"/>
<path d="M30.3877 209.761V219.885H32.0343L31.8876 223.749H30.5508V221.173H21.6822V223.749H20.3454L20.215 219.885H21.242C22.6875 218.081 23.4103 215.489 23.4103 212.109V209.761H30.3877ZM28.8553 219.885V211.049H24.9427V212.467C24.9427 214.087 24.8068 215.462 24.5351 216.592C24.2526 217.766 23.7635 218.863 23.0679 219.885H28.8553ZM34.5169 215.337H33.1475C33.1475 214.684 33.3648 214.087 33.7996 213.543C34.3212 212.891 35.2776 212.565 36.6688 212.565C37.4839 212.565 38.2012 212.728 38.8207 213.054C39.1794 213.228 39.462 213.516 39.6685 213.918C39.875 214.32 39.9728 214.799 39.9619 215.353L39.8804 219.184C39.8804 219.499 39.913 219.744 39.9782 219.918C40.076 220.091 40.3314 220.173 40.7444 220.162V221.173C40.5814 221.216 40.364 221.238 40.0923 221.238C39.6141 221.238 39.2663 221.157 39.049 220.994C38.8425 220.83 38.6957 220.51 38.6088 220.032C38.0762 221.01 37.1307 221.499 35.7722 221.499C34.8375 221.499 34.1147 221.292 33.6039 220.879C33.104 220.456 32.854 219.831 32.854 219.005C32.854 218.222 33.1366 217.63 33.7017 217.228C34.2669 216.804 35.3374 216.521 36.9133 216.38C37.6415 216.326 38.0762 216.255 38.2175 216.168C38.424 216.027 38.5273 215.717 38.5273 215.239C38.5273 214.13 37.9078 213.576 36.6688 213.576C35.2016 213.576 34.4843 214.163 34.5169 215.337ZM38.4947 217.635L38.5273 216.934C38.3643 217.054 38.1252 217.152 37.81 217.228C37.3318 217.26 36.9622 217.298 36.7014 217.342C35.7993 217.494 35.2505 217.619 35.0548 217.717C34.5766 217.945 34.3375 218.358 34.3375 218.956C34.3375 219.434 34.4788 219.809 34.7614 220.081C35.0548 220.352 35.4461 220.488 35.9352 220.488C36.2504 220.488 36.5384 220.445 36.7992 220.358C37.0709 220.271 37.3318 220.129 37.5817 219.934C37.8426 219.727 38.0491 219.428 38.2012 219.037C38.3643 218.646 38.4621 218.179 38.4947 217.635ZM47.9621 217.309H43.8702V221.173H42.4356V212.891H43.8702V216.298H47.9621V212.891H49.3967V221.173H47.9621V217.309ZM57.2756 217.309H53.1836V221.173H51.749V212.891H53.1836V216.298H57.2756V212.891H58.7102V221.173H57.2756V217.309ZM61.0625 221.173V212.891H62.4971V216.168H64.5838C65.2468 216.168 65.8011 216.233 66.2467 216.364C67.3118 216.635 67.8661 217.412 67.9095 218.695C67.9095 219.456 67.6759 220.059 67.2085 220.504C66.752 220.95 66.0402 221.173 65.0729 221.173H61.0625ZM64.2415 217.179H62.4971V220.162H64.5023C65.7848 220.162 66.426 219.64 66.426 218.597C66.426 218.086 66.2575 217.717 65.9206 217.488C65.8119 217.402 65.6326 217.331 65.3826 217.277C65.1218 217.211 64.7414 217.179 64.2415 217.179ZM68.9203 221.173V212.891H70.3549V221.173H68.9203ZM74.1349 212.891V219.494L78.4551 212.891H80.0527V221.173H78.6181V214.554L74.3143 221.173H72.7003V212.891H74.1349ZM77.9171 209.761H79.1398C78.9116 210.957 78.1943 211.658 76.9879 211.864C76.7814 211.897 76.564 211.913 76.3358 211.913C74.9337 211.913 74.0371 211.342 73.6458 210.201C73.6132 210.125 73.5752 209.978 73.5317 209.761H74.7544C74.7218 210.044 74.8196 210.31 75.0479 210.56C75.2109 210.734 75.4011 210.864 75.6185 210.951C75.8141 211.016 76.0532 211.049 76.3358 211.049C76.8031 211.049 77.1889 210.935 77.4932 210.707C77.7976 210.468 77.9388 210.152 77.9171 209.761ZM86.2008 221.173V212.891H90.146C91.8958 212.891 92.7707 213.549 92.7707 214.864C92.7707 215.809 92.2708 216.456 91.2709 216.804V216.853C91.9448 217.016 92.4121 217.277 92.6729 217.635C92.9446 217.994 93.0805 218.456 93.0805 219.021C93.0805 219.923 92.749 220.521 92.086 220.814C91.5426 221.053 90.8797 221.173 90.0971 221.173H86.2008ZM89.6896 213.902H87.6355V216.347H89.6244C90.2004 216.347 90.6242 216.233 90.896 216.005C91.1785 215.766 91.3198 215.456 91.3198 215.076C91.3198 214.293 90.7764 213.902 89.6896 213.902ZM89.6896 217.358H87.6355V220.162H89.7385C90.9775 220.162 91.597 219.738 91.597 218.89C91.597 217.869 90.9612 217.358 89.6896 217.358ZM96.4235 212.891V219.494L100.744 212.891H102.341V221.173H100.907V214.554L96.6029 221.173H94.9889V212.891H96.4235ZM103.641 223.325L103.511 220.162H104.554C105.456 218.836 105.907 216.874 105.907 214.277V212.891H111.841V220.162H113.276L113.162 223.325H111.955V221.173H104.847V223.325H103.641ZM110.407 220.162V213.902H107.244V215.059C107.244 215.94 107.146 216.853 106.95 217.798C106.777 218.733 106.483 219.521 106.07 220.162H110.407ZM123.937 213.902H119.747V221.173H118.312V212.891H125.371V221.173H123.937V213.902ZM126.759 221.173V220.113C127.575 220.352 128.151 219.966 128.488 218.956C128.574 218.706 128.634 218.396 128.667 218.026L128.732 217.032C128.743 216.858 128.748 216.516 128.748 216.005V212.891H134.487V221.173H133.052V213.902H130.085V216.005C130.085 216.69 130.069 217.266 130.036 217.733C130.004 218.189 129.922 218.689 129.792 219.233C129.607 220.005 129.275 220.553 128.797 220.879C128.319 221.205 127.64 221.303 126.759 221.173ZM137.92 215.337H136.551C136.551 214.684 136.768 214.087 137.203 213.543C137.724 212.891 138.681 212.565 140.072 212.565C140.887 212.565 141.604 212.728 142.224 213.054C142.583 213.228 142.865 213.516 143.072 213.918C143.278 214.32 143.376 214.799 143.365 215.353L143.284 219.184C143.284 219.499 143.316 219.744 143.381 219.918C143.479 220.091 143.735 220.173 144.148 220.162V221.173C143.985 221.216 143.767 221.238 143.496 221.238C143.017 221.238 142.67 221.157 142.452 220.994C142.246 220.83 142.099 220.51 142.012 220.032C141.479 221.01 140.534 221.499 139.175 221.499C138.241 221.499 137.518 221.292 137.007 220.879C136.507 220.456 136.257 219.831 136.257 219.005C136.257 218.222 136.54 217.63 137.105 217.228C137.67 216.804 138.741 216.521 140.317 216.38C141.045 216.326 141.479 216.255 141.621 216.168C141.827 216.027 141.93 215.717 141.93 215.239C141.93 214.13 141.311 213.576 140.072 213.576C138.605 213.576 137.887 214.163 137.92 215.337ZM141.898 217.635L141.93 216.934C141.767 217.054 141.528 217.152 141.213 217.228C140.735 217.26 140.365 217.298 140.105 217.342C139.203 217.494 138.654 217.619 138.458 217.717C137.98 217.945 137.741 218.358 137.741 218.956C137.741 219.434 137.882 219.809 138.165 220.081C138.458 220.352 138.849 220.488 139.338 220.488C139.654 220.488 139.942 220.445 140.202 220.358C140.474 220.271 140.735 220.129 140.985 219.934C141.246 219.727 141.452 219.428 141.604 219.037C141.767 218.646 141.865 218.179 141.898 217.635ZM151.642 218.222H153.012C152.968 218.852 152.729 219.515 152.295 220.211C152.055 220.602 151.681 220.917 151.17 221.157C150.67 221.385 150.083 221.499 149.409 221.499C149.181 221.499 149.018 221.493 148.92 221.483C148.442 221.461 147.953 221.336 147.453 221.108C146.062 220.412 145.366 219.032 145.366 216.967C145.366 215.88 145.616 214.913 146.116 214.065C146.735 213.065 147.801 212.565 149.311 212.565C150.376 212.565 151.224 212.837 151.854 213.38C152.485 213.913 152.849 214.614 152.947 215.483H151.577C151.36 214.212 150.615 213.576 149.344 213.576C148.518 213.576 147.898 213.88 147.485 214.489C147.083 215.087 146.882 215.913 146.882 216.967C146.882 217.988 147.094 218.831 147.518 219.494C147.942 220.157 148.583 220.488 149.442 220.488C150.181 220.488 150.719 220.254 151.056 219.787C151.414 219.32 151.61 218.798 151.642 218.222ZM156.391 221.173V213.902H153.522V212.891H160.695V213.902H157.826V221.173H156.391ZM163.226 212.891V219.494L167.546 212.891H169.143V221.173H167.709V214.554L163.405 221.173H161.791V212.891H163.226ZM172.921 212.891V216.51L176.459 212.891H178.138L174.258 216.739L178.35 221.173H176.638L172.921 217.032V221.173H171.487V212.891H172.921ZM180.555 215.337H179.186C179.186 214.684 179.403 214.087 179.838 213.543C180.359 212.891 181.316 212.565 182.707 212.565C183.522 212.565 184.239 212.728 184.859 213.054C185.218 213.228 185.5 213.516 185.707 213.918C185.913 214.32 186.011 214.799 186 215.353L185.919 219.184C185.919 219.499 185.951 219.744 186.016 219.918C186.114 220.091 186.37 220.173 186.783 220.162V221.173C186.62 221.216 186.402 221.238 186.13 221.238C185.652 221.238 185.304 221.157 185.087 220.994C184.881 220.83 184.734 220.51 184.647 220.032C184.114 221.01 183.169 221.499 181.81 221.499C180.876 221.499 180.153 221.292 179.642 220.879C179.142 220.456 178.892 219.831 178.892 219.005C178.892 218.222 179.175 217.63 179.74 217.228C180.305 216.804 181.376 216.521 182.951 216.38C183.68 216.326 184.114 216.255 184.256 216.168C184.462 216.027 184.565 215.717 184.565 215.239C184.565 214.13 183.946 213.576 182.707 213.576C181.24 213.576 180.522 214.163 180.555 215.337ZM184.533 217.635L184.565 216.934C184.402 217.054 184.163 217.152 183.848 217.228C183.37 217.26 183 217.298 182.74 217.342C181.837 217.494 181.289 217.619 181.093 217.717C180.615 217.945 180.376 218.358 180.376 218.956C180.376 219.434 180.517 219.809 180.8 220.081C181.093 220.352 181.484 220.488 181.973 220.488C182.288 220.488 182.577 220.445 182.837 220.358C183.109 220.271 183.37 220.129 183.62 219.934C183.881 219.727 184.087 219.428 184.239 219.037C184.402 218.646 184.5 218.179 184.533 217.635ZM193.713 212.891V219.494L198.033 212.891H199.631V221.173H198.196V214.554L193.893 221.173H192.279V212.891H193.713ZM207.778 218.222H209.147C209.104 218.852 208.865 219.515 208.43 220.211C208.191 220.602 207.816 220.917 207.305 221.157C206.805 221.385 206.218 221.499 205.544 221.499C205.316 221.499 205.153 221.493 205.055 221.483C204.577 221.461 204.088 221.336 203.588 221.108C202.197 220.412 201.501 219.032 201.501 216.967C201.501 215.88 201.751 214.913 202.251 214.065C202.871 213.065 203.936 212.565 205.447 212.565C206.512 212.565 207.359 212.837 207.99 213.38C208.62 213.913 208.984 214.614 209.082 215.483H207.713C207.495 214.212 206.751 213.576 205.479 213.576C204.653 213.576 204.034 213.88 203.621 214.489C203.219 215.087 203.018 215.913 203.018 216.967C203.018 217.988 203.23 218.831 203.653 219.494C204.077 220.157 204.718 220.488 205.577 220.488C206.316 220.488 206.854 220.254 207.191 219.787C207.55 219.32 207.745 218.798 207.778 218.222ZM216.53 213.902H212.34V221.173H210.906V212.891H217.965V221.173H216.53V213.902ZM220.054 218.662C219.771 217.499 219.782 216.374 220.086 215.288C220.391 214.201 221.032 213.424 222.01 212.956C222.553 212.696 223.189 212.565 223.917 212.565C224.646 212.565 225.281 212.696 225.825 212.956C226.803 213.413 227.45 214.228 227.765 215.402C227.906 215.945 227.977 216.494 227.977 217.048C227.988 217.592 227.922 218.13 227.781 218.662C227.651 219.184 227.417 219.662 227.08 220.097C226.754 220.532 226.336 220.874 225.825 221.124C225.271 221.374 224.635 221.499 223.917 221.499C223.2 221.499 222.564 221.374 222.01 221.124C221.064 220.667 220.412 219.847 220.054 218.662ZM221.57 215.385C221.429 215.82 221.358 216.364 221.358 217.016C221.358 217.657 221.429 218.206 221.57 218.662C221.711 219.119 221.874 219.461 222.059 219.689C222.45 220.124 222.896 220.379 223.396 220.456C223.744 220.51 224.091 220.51 224.439 220.456C224.591 220.445 224.803 220.369 225.075 220.227C225.368 220.075 225.607 219.885 225.792 219.657C225.977 219.428 226.135 219.097 226.265 218.662C226.406 218.206 226.477 217.657 226.477 217.016C226.477 216.364 226.406 215.82 226.265 215.385C226.113 214.907 225.944 214.565 225.76 214.358C225.586 214.152 225.368 213.978 225.107 213.837C224.847 213.695 224.624 213.608 224.439 213.576C224.091 213.522 223.744 213.522 223.396 213.576C223.244 213.587 223.026 213.668 222.744 213.82C222.189 214.092 221.798 214.614 221.57 215.385ZM228.905 221.173V220.113C229.72 220.352 230.296 219.966 230.633 218.956C230.72 218.706 230.78 218.396 230.812 218.026L230.878 217.032C230.888 216.858 230.894 216.516 230.894 216.005V212.891H236.632V221.173H235.198V213.902H232.231V216.005C232.231 216.69 232.214 217.266 232.182 217.733C232.149 218.189 232.068 218.689 231.937 219.233C231.752 220.005 231.421 220.553 230.943 220.879C230.465 221.205 229.785 221.303 228.905 221.173ZM238.973 221.173V212.891H240.408V216.184H242.478C243.293 216.184 243.994 216.304 244.581 216.543C245.396 216.836 245.804 217.521 245.804 218.597C245.804 219.488 245.543 220.151 245.022 220.586C244.804 220.76 244.549 220.89 244.255 220.977C243.864 221.108 243.435 221.173 242.967 221.173H238.973ZM242.152 217.195H240.408V220.162H242.397C243.071 220.162 243.565 220.026 243.88 219.755C244.196 219.439 244.342 219.054 244.321 218.597C244.321 218.097 244.157 217.728 243.831 217.488C243.723 217.412 243.549 217.347 243.31 217.293C243.049 217.228 242.707 217.195 242.283 217.195H242.152ZM246.6 218.63H247.969C247.969 219.173 248.165 219.619 248.556 219.966C248.947 220.314 249.485 220.488 250.17 220.488C250.844 220.488 251.371 220.352 251.751 220.081C252.132 219.798 252.322 219.39 252.322 218.858C252.322 217.869 251.697 217.374 250.447 217.374H249.225V216.364H250.284C251.436 216.364 252.012 215.934 252.012 215.076C252.012 214.934 251.991 214.793 251.947 214.652C251.914 214.511 251.838 214.353 251.719 214.179C251.61 213.994 251.42 213.848 251.148 213.739C250.877 213.63 250.54 213.576 250.137 213.576C249.42 213.576 248.915 213.744 248.621 214.081C248.328 214.418 248.181 214.782 248.181 215.174H246.812C246.844 214.608 246.991 214.136 247.252 213.755C247.513 213.375 247.85 213.103 248.263 212.94C248.937 212.69 249.589 212.565 250.219 212.565C250.773 212.565 251.262 212.63 251.686 212.761C252.11 212.88 252.431 213.027 252.648 213.201C252.876 213.375 253.056 213.581 253.186 213.82C253.327 214.06 253.414 214.271 253.447 214.456C253.479 214.63 253.496 214.804 253.496 214.978C253.496 215.945 253.018 216.548 252.061 216.787V216.836C252.572 216.912 252.99 217.135 253.316 217.505C253.643 217.874 253.806 218.358 253.806 218.956C253.806 219.564 253.588 220.119 253.153 220.619C252.621 221.205 251.664 221.499 250.284 221.499C249.121 221.499 248.236 221.254 247.627 220.765C246.942 220.168 246.6 219.456 246.6 218.63ZM255.777 224.173V223.113C256.19 223.167 256.429 223.194 256.494 223.194C256.907 223.194 257.2 223.042 257.374 222.738C257.483 222.575 257.554 222.439 257.586 222.33C257.619 222.276 257.689 222.097 257.798 221.792L257.994 221.173L254.407 212.891H256.119L258.776 219.592L260.977 212.891H262.412L259.119 222.151C258.858 222.89 258.635 223.374 258.45 223.602C258.081 224.037 257.581 224.254 256.95 224.254C256.461 224.254 256.07 224.227 255.777 224.173ZM269.553 218.776H270.922C270.792 219.505 270.439 220.14 269.863 220.684C269.287 221.227 268.434 221.499 267.303 221.499C265.771 221.499 264.646 220.994 263.929 219.983C263.57 219.45 263.336 218.88 263.228 218.271C263.152 217.847 263.114 217.445 263.114 217.065C263.114 216.336 263.222 215.652 263.44 215.01C263.581 214.554 263.787 214.157 264.059 213.82C264.353 213.462 264.771 213.163 265.314 212.924C265.858 212.685 266.472 212.565 267.157 212.565C268.374 212.565 269.292 212.902 269.912 213.576C270.173 213.858 270.384 214.217 270.547 214.652C270.787 215.282 270.933 216.048 270.988 216.95C270.988 216.983 270.988 217.054 270.988 217.162C270.999 217.271 271.004 217.336 271.004 217.358H264.63C264.63 218.184 264.847 218.912 265.282 219.543C265.716 220.173 266.374 220.488 267.254 220.488C267.885 220.488 268.401 220.331 268.803 220.015C269.205 219.7 269.455 219.287 269.553 218.776ZM264.63 216.347H269.488C269.477 215.706 269.325 215.114 269.031 214.57C268.694 213.907 268.08 213.576 267.189 213.576C266.178 213.576 265.483 213.913 265.102 214.587C264.787 215.13 264.63 215.717 264.63 216.347ZM274.791 221.173V213.902H271.922V212.891H279.095V213.902H276.226V221.173H274.791ZM285.868 218.222H287.237C287.194 218.852 286.954 219.515 286.52 220.211C286.281 220.602 285.906 220.917 285.395 221.157C284.895 221.385 284.308 221.499 283.634 221.499C283.406 221.499 283.243 221.493 283.145 221.483C282.667 221.461 282.178 221.336 281.678 221.108C280.287 220.412 279.591 219.032 279.591 216.967C279.591 215.88 279.841 214.913 280.341 214.065C280.961 213.065 282.026 212.565 283.536 212.565C284.601 212.565 285.449 212.837 286.08 213.38C286.71 213.913 287.074 214.614 287.172 215.483H285.802C285.585 214.212 284.841 213.576 283.569 213.576C282.743 213.576 282.123 213.88 281.71 214.489C281.308 215.087 281.107 215.913 281.107 216.967C281.107 217.988 281.319 218.831 281.743 219.494C282.167 220.157 282.808 220.488 283.667 220.488C284.406 220.488 284.944 220.254 285.281 219.787C285.639 219.32 285.835 218.798 285.868 218.222ZM294.065 217.912H292.174L290.006 221.173H288.425L290.707 217.896C290.077 217.831 289.566 217.586 289.175 217.162C288.783 216.739 288.588 216.184 288.588 215.5C288.588 214.858 288.756 214.299 289.093 213.82C289.495 213.201 290.256 212.891 291.375 212.891H295.5V221.173H294.065V217.912ZM294.065 216.902V213.902H291.995C290.712 213.902 290.071 214.418 290.071 215.451C290.071 215.875 290.229 216.222 290.544 216.494C290.859 216.766 291.359 216.902 292.044 216.902H294.065ZM20.3454 241.325L20.215 238.162H21.2583C22.1604 236.836 22.6114 234.874 22.6114 232.277V230.891H28.5456V238.162H29.9802L29.8661 241.325H28.6597V239.173H21.5518V241.325H20.3454ZM27.1109 238.162V231.902H23.9482V233.059C23.9482 233.94 23.8504 234.853 23.6548 235.798C23.4809 236.733 23.1875 237.521 22.7745 238.162H27.1109ZM30.6637 239.173V238.113C31.4789 238.352 32.0549 237.966 32.3918 236.956C32.4788 236.706 32.5385 236.396 32.5711 236.026L32.6363 235.032C32.6472 234.858 32.6526 234.516 32.6526 234.005V230.891H38.3911V239.173H36.9565V231.902H33.9895V234.005C33.9895 234.69 33.9731 235.266 33.9405 235.733C33.9079 236.189 33.8264 236.689 33.696 237.233C33.5112 238.005 33.1798 238.553 32.7016 238.879C32.2233 239.205 31.5441 239.303 30.6637 239.173ZM45.8022 235.912H43.9111L41.7428 239.173H40.1615L42.4438 235.896C41.8135 235.831 41.3027 235.586 40.9114 235.162C40.5201 234.739 40.3245 234.184 40.3245 233.5C40.3245 232.858 40.493 232.299 40.8299 231.82C41.232 231.201 41.9928 230.891 43.1122 230.891H47.2368V239.173H45.8022V235.912ZM45.8022 234.902V231.902H43.7317C42.4493 231.902 41.808 232.418 41.808 233.451C41.808 233.875 41.9656 234.222 42.2808 234.494C42.596 234.766 43.0959 234.902 43.7806 234.902H45.8022ZM54.8234 230.891V237.494L59.1436 230.891H60.7413V239.173H59.3066V232.554L55.0028 239.173H53.3888V230.891H54.8234ZM62.4323 236.63H63.8017C63.8017 237.173 63.9973 237.619 64.3886 237.966C64.7798 238.314 65.3178 238.488 66.0025 238.488C66.6764 238.488 67.2035 238.352 67.5839 238.081C67.9643 237.798 68.1544 237.39 68.1544 236.858C68.1544 235.869 67.5295 235.374 66.2797 235.374H65.057V234.364H66.1166C67.2687 234.364 67.8447 233.934 67.8447 233.076C67.8447 232.934 67.823 232.793 67.7795 232.652C67.7469 232.511 67.6708 232.353 67.5513 232.179C67.4426 231.994 67.2524 231.848 66.9807 231.739C66.709 231.63 66.372 231.576 65.9699 231.576C65.2526 231.576 64.7472 231.744 64.4538 232.081C64.1603 232.418 64.0136 232.782 64.0136 233.174H62.6442C62.6768 232.608 62.8235 232.136 63.0844 231.755C63.3452 231.375 63.6821 231.103 64.0951 230.94C64.769 230.69 65.4211 230.565 66.0514 230.565C66.6057 230.565 67.0948 230.63 67.5186 230.761C67.9425 230.88 68.2631 231.027 68.4805 231.201C68.7087 231.375 68.8881 231.581 69.0185 231.82C69.1598 232.06 69.2467 232.271 69.2793 232.456C69.3119 232.63 69.3282 232.804 69.3282 232.978C69.3282 233.945 68.85 234.548 67.8936 234.787V234.836C68.4044 234.912 68.8228 235.135 69.1489 235.505C69.475 235.874 69.638 236.358 69.638 236.956C69.638 237.564 69.4206 238.119 68.9859 238.619C68.4533 239.205 67.4969 239.499 66.1166 239.499C64.9537 239.499 64.0679 239.254 63.4593 238.765C62.7746 238.168 62.4323 237.456 62.4323 236.63ZM77.1795 231.902H72.9409V239.173H71.5063V230.891H77.1795V231.902ZM77.8842 236.662C77.6017 235.499 77.6125 234.374 77.9169 233.288C78.2212 232.201 78.8624 231.424 79.8406 230.956C80.384 230.696 81.0198 230.565 81.7479 230.565C82.4761 230.565 83.1119 230.696 83.6553 230.956C84.6335 231.413 85.2802 232.228 85.5953 233.402C85.7366 233.945 85.8073 234.494 85.8073 235.048C85.8181 235.592 85.7529 236.13 85.6116 236.662C85.4812 237.184 85.2476 237.662 84.9106 238.097C84.5846 238.532 84.1662 238.874 83.6553 239.124C83.1011 239.374 82.4653 239.499 81.7479 239.499C81.0306 239.499 80.3948 239.374 79.8406 239.124C78.895 238.667 78.2429 237.847 77.8842 236.662ZM79.4004 233.385C79.2591 233.82 79.1884 234.364 79.1884 235.016C79.1884 235.657 79.2591 236.206 79.4004 236.662C79.5417 237.119 79.7047 237.461 79.8895 237.689C80.2807 238.124 80.7263 238.379 81.2263 238.456C81.5741 238.51 81.9218 238.51 82.2696 238.456C82.4218 238.445 82.6337 238.369 82.9054 238.227C83.1989 238.075 83.438 237.885 83.6227 237.657C83.8075 237.428 83.9651 237.097 84.0955 236.662C84.2368 236.206 84.3074 235.657 84.3074 235.016C84.3074 234.364 84.2368 233.82 84.0955 233.385C83.9434 232.907 83.7749 232.565 83.5901 232.358C83.4162 232.152 83.1989 231.978 82.938 231.837C82.6772 231.695 82.4544 231.608 82.2696 231.576C81.9218 231.522 81.5741 231.522 81.2263 231.576C81.0741 231.587 80.8567 231.668 80.5742 231.82C80.0199 232.092 79.6286 232.614 79.4004 233.385ZM89.0953 239.173V231.902H86.226V230.891H93.3992V231.902H90.5299V239.173H89.0953ZM94.2186 236.662C93.936 235.499 93.9469 234.374 94.2512 233.288C94.5555 232.201 95.1968 231.424 96.1749 230.956C96.7183 230.696 97.3541 230.565 98.0823 230.565C98.8105 230.565 99.4463 230.696 99.9897 230.956C100.968 231.413 101.615 232.228 101.93 233.402C102.071 233.945 102.142 234.494 102.142 235.048C102.153 235.592 102.087 236.13 101.946 236.662C101.816 237.184 101.582 237.662 101.245 238.097C100.919 238.532 100.501 238.874 99.9897 239.124C99.4354 239.374 98.7996 239.499 98.0823 239.499C97.365 239.499 96.7292 239.374 96.1749 239.124C95.2294 238.667 94.5773 237.847 94.2186 236.662ZM95.7347 233.385C95.5935 233.82 95.5228 234.364 95.5228 235.016C95.5228 235.657 95.5935 236.206 95.7347 236.662C95.876 237.119 96.0391 237.461 96.2238 237.689C96.6151 238.124 97.0607 238.379 97.5606 238.456C97.9084 238.51 98.2562 238.51 98.604 238.456C98.7561 238.445 98.9681 238.369 99.2398 238.227C99.5332 238.075 99.7723 237.885 99.9571 237.657C100.142 237.428 100.299 237.097 100.43 236.662C100.571 236.206 100.642 235.657 100.642 235.016C100.642 234.364 100.571 233.82 100.43 233.385C100.278 232.907 100.109 232.565 99.9245 232.358C99.7506 232.152 99.5332 231.978 99.2724 231.837C99.0116 231.695 98.7888 231.608 98.604 231.576C98.2562 231.522 97.9084 231.522 97.5606 231.576C97.4085 231.587 97.1911 231.668 96.9085 231.82C96.3542 232.092 95.963 232.614 95.7347 233.385ZM104.032 239.173V230.891H107.977C109.727 230.891 110.602 231.549 110.602 232.864C110.602 233.809 110.102 234.456 109.102 234.804V234.853C109.776 235.016 110.243 235.277 110.504 235.635C110.776 235.994 110.911 236.456 110.911 237.021C110.911 237.923 110.58 238.521 109.917 238.814C109.374 239.053 108.711 239.173 107.928 239.173H104.032ZM107.52 231.902H105.466V234.347H107.455C108.031 234.347 108.455 234.233 108.727 234.005C109.009 233.766 109.151 233.456 109.151 233.076C109.151 232.293 108.607 231.902 107.52 231.902ZM107.52 235.358H105.466V238.162H107.569C108.808 238.162 109.428 237.738 109.428 236.89C109.428 235.869 108.792 235.358 107.52 235.358ZM111.858 239.173V238.113C112.673 238.352 113.249 237.966 113.586 236.956C113.673 236.706 113.733 236.396 113.765 236.026L113.831 235.032C113.841 234.858 113.847 234.516 113.847 234.005V230.891H119.585V239.173H118.151V231.902H115.184V234.005C115.184 234.69 115.167 235.266 115.135 235.733C115.102 236.189 115.021 236.689 114.89 237.233C114.705 238.005 114.374 238.553 113.896 238.879C113.418 239.205 112.738 239.303 111.858 239.173ZM127.893 236.776H129.262C129.132 237.505 128.779 238.14 128.203 238.684C127.627 239.227 126.774 239.499 125.643 239.499C124.111 239.499 122.986 238.994 122.269 237.983C121.91 237.45 121.676 236.88 121.568 236.271C121.492 235.847 121.454 235.445 121.454 235.065C121.454 234.336 121.562 233.652 121.78 233.01C121.921 232.554 122.127 232.157 122.399 231.82C122.692 231.462 123.111 231.163 123.654 230.924C124.198 230.685 124.812 230.565 125.497 230.565C126.714 230.565 127.632 230.902 128.252 231.576C128.512 231.858 128.724 232.217 128.887 232.652C129.127 233.282 129.273 234.048 129.328 234.95C129.328 234.983 129.328 235.054 129.328 235.162C129.338 235.271 129.344 235.336 129.344 235.358H122.97C122.97 236.184 123.187 236.912 123.622 237.543C124.056 238.173 124.714 238.488 125.594 238.488C126.225 238.488 126.741 238.331 127.143 238.015C127.545 237.7 127.795 237.287 127.893 236.776ZM122.97 234.347H127.828C127.817 233.706 127.665 233.114 127.371 232.57C127.034 231.907 126.42 231.576 125.529 231.576C124.518 231.576 123.823 231.913 123.442 232.587C123.127 233.13 122.97 233.717 122.97 234.347ZM136.75 235.309H132.658V239.173H131.224V230.891H132.658V234.298H136.75V230.891H138.185V239.173H136.75V235.309ZM141.972 230.891V237.494L146.292 230.891H147.89V239.173H146.455V232.554L142.151 239.173H140.537V230.891H141.972ZM155.303 235.912H153.412L151.244 239.173H149.662L151.945 235.896C151.314 235.831 150.803 235.586 150.412 235.162C150.021 234.739 149.825 234.184 149.825 233.5C149.825 232.858 149.994 232.299 150.331 231.82C150.733 231.201 151.494 230.891 152.613 230.891H156.738V239.173H155.303V235.912ZM155.303 234.902V231.902H153.232C151.95 231.902 151.309 232.418 151.309 233.451C151.309 233.875 151.466 234.222 151.782 234.494C152.097 234.766 152.597 234.902 153.281 234.902H155.303ZM168.514 231.902H164.324V239.173H162.89V230.891H169.949V239.173H168.514V231.902ZM171.337 239.173V238.113C172.152 238.352 172.728 237.966 173.065 236.956C173.152 236.706 173.211 236.396 173.244 236.026L173.309 235.032C173.32 234.858 173.326 234.516 173.326 234.005V230.891H179.064V239.173H177.629V231.902H174.662V234.005C174.662 234.69 174.646 235.266 174.613 235.733C174.581 236.189 174.499 236.689 174.369 237.233C174.184 238.005 173.853 238.553 173.374 238.879C172.896 239.205 172.217 239.303 171.337 239.173ZM182.497 233.337H181.128C181.128 232.684 181.345 232.087 181.78 231.543C182.302 230.891 183.258 230.565 184.649 230.565C185.464 230.565 186.182 230.728 186.801 231.054C187.16 231.228 187.442 231.516 187.649 231.918C187.855 232.32 187.953 232.799 187.942 233.353L187.861 237.184C187.861 237.499 187.893 237.744 187.959 237.918C188.056 238.091 188.312 238.173 188.725 238.162V239.173C188.562 239.216 188.344 239.238 188.073 239.238C187.595 239.238 187.247 239.157 187.029 238.994C186.823 238.83 186.676 238.51 186.589 238.032C186.057 239.01 185.111 239.499 183.753 239.499C182.818 239.499 182.095 239.292 181.584 238.879C181.084 238.456 180.834 237.831 180.834 237.005C180.834 236.222 181.117 235.63 181.682 235.228C182.247 234.804 183.318 234.521 184.894 234.38C185.622 234.326 186.057 234.255 186.198 234.168C186.404 234.027 186.508 233.717 186.508 233.239C186.508 232.13 185.888 231.576 184.649 231.576C183.182 231.576 182.465 232.163 182.497 233.337ZM186.475 235.635L186.508 234.934C186.345 235.054 186.106 235.152 185.79 235.228C185.312 235.26 184.943 235.298 184.682 235.342C183.78 235.494 183.231 235.619 183.035 235.717C182.557 235.945 182.318 236.358 182.318 236.956C182.318 237.434 182.459 237.809 182.742 238.081C183.035 238.352 183.427 238.488 183.916 238.488C184.231 238.488 184.519 238.445 184.78 238.358C185.051 238.271 185.312 238.129 185.562 237.934C185.823 237.727 186.029 237.428 186.182 237.037C186.345 236.646 186.442 236.179 186.475 235.635ZM196.22 236.222H197.589C197.546 236.852 197.307 237.515 196.872 238.211C196.633 238.602 196.258 238.917 195.747 239.157C195.247 239.385 194.66 239.499 193.986 239.499C193.758 239.499 193.595 239.493 193.497 239.483C193.019 239.461 192.53 239.336 192.03 239.108C190.639 238.412 189.943 237.032 189.943 234.967C189.943 233.88 190.193 232.913 190.693 232.065C191.313 231.065 192.378 230.565 193.888 230.565C194.954 230.565 195.801 230.837 196.432 231.38C197.062 231.913 197.426 232.614 197.524 233.483H196.154C195.937 232.212 195.193 231.576 193.921 231.576C193.095 231.576 192.476 231.88 192.063 232.489C191.66 233.087 191.459 233.913 191.459 234.967C191.459 235.988 191.671 236.831 192.095 237.494C192.519 238.157 193.16 238.488 194.019 238.488C194.758 238.488 195.296 238.254 195.633 237.787C195.991 237.32 196.187 236.798 196.22 236.222ZM200.968 239.173V231.902H198.099V230.891H205.272V231.902H202.403V239.173H200.968ZM207.803 230.891V237.494L212.123 230.891H213.721V239.173H212.286V232.554L207.982 239.173H206.368V230.891H207.803ZM217.498 230.891V234.51L221.036 230.891H222.715L218.835 234.739L222.927 239.173H221.215L217.498 235.032V239.173H216.064V230.891H217.498ZM223.477 236.662C223.194 235.499 223.205 234.374 223.509 233.288C223.814 232.201 224.455 231.424 225.433 230.956C225.976 230.696 226.612 230.565 227.34 230.565C228.068 230.565 228.704 230.696 229.248 230.956C230.226 231.413 230.873 232.228 231.188 233.402C231.329 233.945 231.4 234.494 231.4 235.048C231.41 235.592 231.345 236.13 231.204 236.662C231.074 237.184 230.84 237.662 230.503 238.097C230.177 238.532 229.759 238.874 229.248 239.124C228.693 239.374 228.058 239.499 227.34 239.499C226.623 239.499 225.987 239.374 225.433 239.124C224.487 238.667 223.835 237.847 223.477 236.662ZM224.993 233.385C224.851 233.82 224.781 234.364 224.781 235.016C224.781 235.657 224.851 236.206 224.993 236.662C225.134 237.119 225.297 237.461 225.482 237.689C225.873 238.124 226.319 238.379 226.819 238.456C227.166 238.51 227.514 238.51 227.862 238.456C228.014 238.445 228.226 238.369 228.498 238.227C228.791 238.075 229.03 237.885 229.215 237.657C229.4 237.428 229.557 237.097 229.688 236.662C229.829 236.206 229.9 235.657 229.9 235.016C229.9 234.364 229.829 233.82 229.688 233.385C229.536 232.907 229.367 232.565 229.182 232.358C229.009 232.152 228.791 231.978 228.53 231.837C228.27 231.695 228.047 231.608 227.862 231.576C227.514 231.522 227.166 231.522 226.819 231.576C226.666 231.587 226.449 231.668 226.167 231.82C225.612 232.092 225.221 232.614 224.993 233.385ZM233.29 239.173V230.891H237.235C238.985 230.891 239.86 231.549 239.86 232.864C239.86 233.809 239.36 234.456 238.36 234.804V234.853C239.034 235.016 239.501 235.277 239.762 235.635C240.034 235.994 240.169 236.456 240.169 237.021C240.169 237.923 239.838 238.521 239.175 238.814C238.631 239.053 237.969 239.173 237.186 239.173H233.29ZM236.778 231.902H234.724V234.347H236.713C237.289 234.347 237.713 234.233 237.985 234.005C238.267 233.766 238.409 233.456 238.409 233.076C238.409 232.293 237.865 231.902 236.778 231.902ZM236.778 235.358H234.724V238.162H236.827C238.066 238.162 238.686 237.738 238.686 236.89C238.686 235.869 238.05 235.358 236.778 235.358ZM242.078 239.173V230.891H243.512V234.168H245.599C246.262 234.168 246.816 234.233 247.262 234.364C248.327 234.635 248.881 235.412 248.925 236.695C248.925 237.456 248.691 238.059 248.224 238.504C247.767 238.95 247.055 239.173 246.088 239.173H242.078ZM245.257 235.179H243.512V238.162H245.518C246.8 238.162 247.441 237.64 247.441 236.597C247.441 236.086 247.273 235.717 246.936 235.488C246.827 235.402 246.648 235.331 246.398 235.277C246.137 235.211 245.757 235.179 245.257 235.179ZM249.936 239.173V230.891H251.37V239.173H249.936ZM254.368 230.891L256.487 233.956L258.606 230.891H260.204L257.302 234.853L260.432 239.173H258.835L256.487 235.766L254.139 239.173H252.542L255.672 234.853L252.77 230.891H254.368ZM271.041 231.902H266.852V239.173H265.417V230.891H272.476V239.173H271.041V231.902ZM275.918 233.337H274.549C274.549 232.684 274.766 232.087 275.201 231.543C275.723 230.891 276.679 230.565 278.07 230.565C278.885 230.565 279.603 230.728 280.222 231.054C280.581 231.228 280.863 231.516 281.07 231.918C281.276 232.32 281.374 232.799 281.363 233.353L281.282 237.184C281.282 237.499 281.315 237.744 281.38 237.918C281.478 238.091 281.733 238.173 282.146 238.162V239.173C281.983 239.216 281.766 239.238 281.494 239.238C281.016 239.238 280.668 239.157 280.45 238.994C280.244 238.83 280.097 238.51 280.01 238.032C279.478 239.01 278.532 239.499 277.174 239.499C276.239 239.499 275.516 239.292 275.005 238.879C274.505 238.456 274.256 237.831 274.256 237.005C274.256 236.222 274.538 235.63 275.103 235.228C275.668 234.804 276.739 234.521 278.315 234.38C279.043 234.326 279.478 234.255 279.619 234.168C279.826 234.027 279.929 233.717 279.929 233.239C279.929 232.13 279.309 231.576 278.07 231.576C276.603 231.576 275.886 232.163 275.918 233.337ZM279.896 235.635L279.929 234.934C279.766 235.054 279.527 235.152 279.211 235.228C278.733 235.26 278.364 235.298 278.103 235.342C277.201 235.494 276.652 235.619 276.456 235.717C275.978 235.945 275.739 236.358 275.739 236.956C275.739 237.434 275.88 237.809 276.163 238.081C276.456 238.352 276.848 238.488 277.337 238.488C277.652 238.488 277.94 238.445 278.201 238.358C278.472 238.271 278.733 238.129 278.983 237.934C279.244 237.727 279.451 237.428 279.603 237.037C279.766 236.646 279.864 236.179 279.896 235.635ZM285.272 230.891V234.51L288.809 230.891H290.489L286.609 234.739L290.7 239.173H288.989L285.272 235.032V239.173H283.837V230.891H285.272ZM297.78 236.776H299.149C299.019 237.505 298.666 238.14 298.09 238.684C297.514 239.227 296.661 239.499 295.53 239.499C293.998 239.499 292.873 238.994 292.156 237.983C291.797 237.45 291.563 236.88 291.455 236.271C291.378 235.847 291.34 235.445 291.34 235.065C291.34 234.336 291.449 233.652 291.666 233.01C291.808 232.554 292.014 232.157 292.286 231.82C292.579 231.462 292.998 231.163 293.541 230.924C294.085 230.685 294.699 230.565 295.383 230.565C296.601 230.565 297.519 230.902 298.139 231.576C298.399 231.858 298.611 232.217 298.774 232.652C299.013 233.282 299.16 234.048 299.215 234.95C299.215 234.983 299.215 235.054 299.215 235.162C299.225 235.271 299.231 235.336 299.231 235.358H292.857C292.857 236.184 293.074 236.912 293.509 237.543C293.943 238.173 294.601 238.488 295.481 238.488C296.112 238.488 296.628 238.331 297.03 238.015C297.432 237.7 297.682 237.287 297.78 236.776ZM292.857 234.347H297.715C297.704 233.706 297.552 233.114 297.258 232.57C296.921 231.907 296.307 231.576 295.416 231.576C294.405 231.576 293.71 231.913 293.329 232.587C293.014 233.13 292.857 233.717 292.857 234.347ZM303.018 239.173V231.902H300.149V230.891H307.322V231.902H304.453V239.173H303.018ZM308.141 236.662C307.859 235.499 307.87 234.374 308.174 233.288C308.478 232.201 309.12 231.424 310.098 230.956C310.641 230.696 311.277 230.565 312.005 230.565C312.733 230.565 313.369 230.696 313.913 230.956C314.891 231.413 315.537 232.228 315.853 233.402C315.994 233.945 316.064 234.494 316.064 235.048C316.075 235.592 316.01 236.13 315.869 236.662C315.738 237.184 315.505 237.662 315.168 238.097C314.842 238.532 314.423 238.874 313.913 239.124C313.358 239.374 312.722 239.499 312.005 239.499C311.288 239.499 310.652 239.374 310.098 239.124C309.152 238.667 308.5 237.847 308.141 236.662ZM309.658 233.385C309.516 233.82 309.446 234.364 309.446 235.016C309.446 235.657 309.516 236.206 309.658 236.662C309.799 237.119 309.962 237.461 310.147 237.689C310.538 238.124 310.984 238.379 311.483 238.456C311.831 238.51 312.179 238.51 312.527 238.456C312.679 238.445 312.891 238.369 313.163 238.227C313.456 238.075 313.695 237.885 313.88 237.657C314.065 237.428 314.222 237.097 314.353 236.662C314.494 236.206 314.565 235.657 314.565 235.016C314.565 234.364 314.494 233.82 314.353 233.385C314.201 232.907 314.032 232.565 313.847 232.358C313.673 232.152 313.456 231.978 313.195 231.837C312.934 231.695 312.712 231.608 312.527 231.576C312.179 231.522 311.831 231.522 311.483 231.576C311.331 231.587 311.114 231.668 310.831 231.82C310.277 232.092 309.886 232.614 309.658 233.385ZM317.955 239.173V230.891H321.9C323.65 230.891 324.524 231.549 324.524 232.864C324.524 233.809 324.025 234.456 323.025 234.804V234.853C323.698 235.016 324.166 235.277 324.427 235.635C324.698 235.994 324.834 236.456 324.834 237.021C324.834 237.923 324.503 238.521 323.84 238.814C323.296 239.053 322.633 239.173 321.851 239.173H317.955ZM321.443 231.902H319.389V234.347H321.378C321.954 234.347 322.378 234.233 322.65 234.005C322.932 233.766 323.074 233.456 323.074 233.076C323.074 232.293 322.53 231.902 321.443 231.902ZM321.443 235.358H319.389V238.162H321.492C322.731 238.162 323.351 237.738 323.351 236.89C323.351 235.869 322.715 235.358 321.443 235.358Z" fill="black"/>
<path d="M213.313 290.945H207.406V293.88H204.453V296.814H201.499V305.618H204.453V308.552H207.406V311.486H210.36V314.421H213.313V317.355H216.267V320.29H219.22V317.355H222.174V314.421H225.127V311.486H228.081V308.552H231.034V305.618H233.988V296.814H231.034V293.88H228.081V290.945H222.174V293.88H219.22V296.814H216.267V293.88H213.313V290.945ZM213.313 293.88V296.814H216.267V299.749H219.22V296.814H222.174V293.88H228.081V296.814H231.034V305.618H228.081V308.552H225.127V311.486H222.174V314.421H219.22V317.355H216.267V314.421H213.313V311.486H210.36V308.552H207.406V305.618H204.453V296.814H207.406V293.88H213.313Z" fill="black"/>
<path d="M210.156 336.905H204.417V347.029H202.885V335.618H211.688V347.029H210.156V336.905ZM214.247 350.045V338.748H215.584V339.889H215.633C216.285 338.911 217.198 338.422 218.372 338.422C219.448 338.422 220.339 338.797 221.045 339.546C221.752 340.307 222.105 341.421 222.105 342.888C222.105 344.388 221.746 345.508 221.029 346.247C220.322 346.986 219.448 347.355 218.404 347.355C218.078 347.355 217.681 347.285 217.214 347.143C216.529 346.937 216.019 346.502 215.682 345.839V350.045H214.247ZM215.584 342.921C215.584 344.073 215.845 344.937 216.366 345.513C216.91 346.067 217.502 346.345 218.143 346.345C218.817 346.345 219.393 346.073 219.871 345.529C220.35 344.964 220.589 344.084 220.589 342.888C220.589 341.802 220.366 340.954 219.92 340.345C219.486 339.737 218.866 339.432 218.062 339.432C217.638 339.432 217.241 339.546 216.872 339.775C216.013 340.285 215.584 341.334 215.584 342.921ZM225.409 338.748V345.35L229.729 338.748H231.327V347.029H229.892V340.41L225.588 347.029H223.974V338.748H225.409ZM239.343 339.758H235.105V347.029H233.67V338.748H239.343V339.758ZM240.048 344.519C239.765 343.356 239.776 342.231 240.081 341.144C240.385 340.057 241.026 339.28 242.004 338.813C242.548 338.552 243.184 338.422 243.912 338.422C244.64 338.422 245.276 338.552 245.819 338.813C246.797 339.269 247.444 340.084 247.759 341.258C247.9 341.802 247.971 342.35 247.971 342.905C247.982 343.448 247.917 343.986 247.775 344.519C247.645 345.04 247.411 345.519 247.074 345.953C246.748 346.388 246.33 346.73 245.819 346.98C245.265 347.23 244.629 347.355 243.912 347.355C243.194 347.355 242.559 347.23 242.004 346.98C241.059 346.524 240.407 345.703 240.048 344.519ZM241.564 341.242C241.423 341.677 241.352 342.22 241.352 342.872C241.352 343.513 241.423 344.062 241.564 344.519C241.705 344.975 241.868 345.318 242.053 345.546C242.444 345.981 242.89 346.236 243.39 346.312C243.738 346.366 244.086 346.366 244.433 346.312C244.586 346.301 244.797 346.225 245.069 346.084C245.363 345.932 245.602 345.741 245.786 345.513C245.971 345.285 246.129 344.953 246.259 344.519C246.401 344.062 246.471 343.513 246.471 342.872C246.471 342.22 246.401 341.677 246.259 341.242C246.107 340.764 245.939 340.421 245.754 340.215C245.58 340.008 245.363 339.834 245.102 339.693C244.841 339.552 244.618 339.465 244.433 339.432C244.086 339.378 243.738 339.378 243.39 339.432C243.238 339.443 243.02 339.525 242.738 339.677C242.184 339.949 241.792 340.47 241.564 341.242ZM248.818 349.181L248.687 346.019H249.731C250.633 344.693 251.084 342.731 251.084 340.133V338.748H257.018V346.019H258.453L258.338 349.181H257.132V347.029H250.024V349.181H248.818ZM255.583 346.019V339.758H252.421V340.916C252.421 341.796 252.323 342.709 252.127 343.655C251.953 344.589 251.66 345.377 251.247 346.019H255.583ZM265.651 344.633H267.02C266.89 345.361 266.536 345.997 265.96 346.54C265.384 347.084 264.531 347.355 263.401 347.355C261.869 347.355 260.744 346.85 260.026 345.839C259.668 345.307 259.434 344.736 259.325 344.127C259.249 343.704 259.211 343.301 259.211 342.921C259.211 342.193 259.32 341.508 259.537 340.867C259.679 340.41 259.885 340.014 260.157 339.677C260.45 339.318 260.869 339.019 261.412 338.78C261.955 338.541 262.57 338.422 263.254 338.422C264.472 338.422 265.39 338.758 266.009 339.432C266.27 339.715 266.482 340.074 266.645 340.508C266.884 341.139 267.031 341.905 267.085 342.807C267.085 342.84 267.085 342.91 267.085 343.019C267.096 343.128 267.102 343.193 267.102 343.215H260.727C260.727 344.041 260.945 344.769 261.379 345.399C261.814 346.029 262.472 346.345 263.352 346.345C263.982 346.345 264.499 346.187 264.901 345.872C265.303 345.557 265.553 345.144 265.651 344.633ZM260.727 342.204H265.586C265.575 341.563 265.422 340.97 265.129 340.427C264.792 339.764 264.178 339.432 263.287 339.432C262.276 339.432 261.581 339.769 261.2 340.443C260.885 340.986 260.727 341.573 260.727 342.204ZM274.508 343.166H270.416V347.029H268.982V338.748H270.416V342.155H274.508V338.748H275.943V347.029H274.508V343.166ZM201.63 367.181L201.499 364.019H202.543C203.445 362.693 203.896 360.731 203.896 358.133V356.748H209.83V364.019H211.264L211.15 367.181H209.944V365.029H202.836V367.181H201.63ZM208.395 364.019V357.758H205.232V358.916C205.232 359.796 205.135 360.709 204.939 361.655C204.765 362.589 204.472 363.377 204.059 364.019H208.395ZM211.948 365.029V363.97C212.763 364.209 213.339 363.823 213.676 362.812C213.763 362.562 213.823 362.252 213.855 361.883L213.921 360.888C213.931 360.715 213.937 360.372 213.937 359.861V356.748H219.675V365.029H218.241V357.758H215.274V359.861C215.274 360.546 215.257 361.122 215.225 361.589C215.192 362.046 215.111 362.546 214.98 363.089C214.795 363.861 214.464 364.41 213.986 364.736C213.508 365.062 212.828 365.16 211.948 365.029ZM227.086 361.769H225.195L223.027 365.029H221.446L223.728 361.752C223.098 361.687 222.587 361.443 222.196 361.019C221.804 360.595 221.609 360.041 221.609 359.356C221.609 358.715 221.777 358.155 222.114 357.677C222.516 357.057 223.277 356.748 224.396 356.748H228.521V365.029H227.086V361.769ZM227.086 360.758V357.758H225.016C223.733 357.758 223.092 358.275 223.092 359.307C223.092 359.731 223.25 360.079 223.565 360.35C223.88 360.622 224.38 360.758 225.065 360.758H227.086ZM240.297 357.758H236.108V365.029H234.673V356.748H241.732V365.029H240.297V357.758ZM250.049 362.633H251.418C251.288 363.361 250.934 363.997 250.358 364.54C249.782 365.084 248.929 365.355 247.799 365.355C246.267 365.355 245.142 364.85 244.424 363.839C244.066 363.307 243.832 362.736 243.723 362.127C243.647 361.704 243.609 361.301 243.609 360.921C243.609 360.193 243.718 359.508 243.935 358.867C244.077 358.41 244.283 358.014 244.555 357.677C244.848 357.318 245.267 357.019 245.81 356.78C246.353 356.541 246.968 356.422 247.652 356.422C248.869 356.422 249.788 356.758 250.407 357.432C250.668 357.715 250.88 358.074 251.043 358.508C251.282 359.139 251.429 359.905 251.483 360.807C251.483 360.84 251.483 360.91 251.483 361.019C251.494 361.128 251.5 361.193 251.5 361.215H245.125C245.125 362.041 245.343 362.769 245.777 363.399C246.212 364.029 246.87 364.345 247.75 364.345C248.38 364.345 248.897 364.187 249.299 363.872C249.701 363.557 249.951 363.144 250.049 362.633ZM245.125 360.204H249.983C249.973 359.563 249.82 358.97 249.527 358.427C249.19 357.764 248.576 357.432 247.685 357.432C246.674 357.432 245.979 357.769 245.598 358.443C245.283 358.986 245.125 359.573 245.125 360.204ZM253.38 368.045V356.748H254.716V357.889H254.765C255.417 356.911 256.33 356.422 257.504 356.422C258.58 356.422 259.471 356.797 260.178 357.546C260.884 358.307 261.237 359.421 261.237 360.888C261.237 362.388 260.879 363.508 260.161 364.247C259.455 364.986 258.58 365.355 257.537 365.355C257.211 365.355 256.814 365.285 256.347 365.143C255.662 364.937 255.151 364.502 254.814 363.839V368.045H253.38ZM254.716 360.921C254.716 362.073 254.977 362.937 255.499 363.513C256.042 364.067 256.635 364.345 257.276 364.345C257.95 364.345 258.526 364.073 259.004 363.529C259.482 362.964 259.721 362.084 259.721 360.888C259.721 359.802 259.498 358.954 259.053 358.345C258.618 357.737 257.999 357.432 257.194 357.432C256.77 357.432 256.374 357.546 256.004 357.775C255.146 358.285 254.716 359.334 254.716 360.921ZM269.074 362.633H270.443C270.313 363.361 269.959 363.997 269.383 364.54C268.807 365.084 267.954 365.355 266.824 365.355C265.291 365.355 264.167 364.85 263.449 363.839C263.091 363.307 262.857 362.736 262.748 362.127C262.672 361.704 262.634 361.301 262.634 360.921C262.634 360.193 262.743 359.508 262.96 358.867C263.101 358.41 263.308 358.014 263.58 357.677C263.873 357.318 264.292 357.019 264.835 356.78C265.378 356.541 265.992 356.422 266.677 356.422C267.894 356.422 268.813 356.758 269.432 357.432C269.693 357.715 269.905 358.074 270.068 358.508C270.307 359.139 270.454 359.905 270.508 360.807C270.508 360.84 270.508 360.91 270.508 361.019C270.519 361.128 270.525 361.193 270.525 361.215H264.15C264.15 362.041 264.368 362.769 264.802 363.399C265.237 364.029 265.895 364.345 266.775 364.345C267.405 364.345 267.922 364.187 268.324 363.872C268.726 363.557 268.976 363.144 269.074 362.633ZM264.15 360.204H269.008C268.998 359.563 268.845 358.97 268.552 358.427C268.215 357.764 267.601 357.432 266.71 357.432C265.699 357.432 265.003 357.769 264.623 358.443C264.308 358.986 264.15 359.573 264.15 360.204ZM272.404 368.045V356.748H273.741V357.889H273.79C274.442 356.911 275.355 356.422 276.529 356.422C277.605 356.422 278.496 356.797 279.203 357.546C279.909 358.307 280.262 359.421 280.262 360.888C280.262 362.388 279.904 363.508 279.186 364.247C278.48 364.986 277.605 365.355 276.562 365.355C276.236 365.355 275.839 365.285 275.371 365.143C274.687 364.937 274.176 364.502 273.839 363.839V368.045H272.404ZM273.741 360.921C273.741 362.073 274.002 362.937 274.524 363.513C275.067 364.067 275.659 364.345 276.301 364.345C276.975 364.345 277.551 364.073 278.029 363.529C278.507 362.964 278.746 362.084 278.746 360.888C278.746 359.802 278.523 358.954 278.078 358.345C277.643 357.737 277.023 357.432 276.219 357.432C275.795 357.432 275.399 357.546 275.029 357.775C274.171 358.285 273.741 359.334 273.741 360.921ZM283.224 359.193H281.855C281.855 358.541 282.072 357.943 282.507 357.4C283.028 356.748 283.985 356.422 285.376 356.422C286.191 356.422 286.908 356.585 287.528 356.911C287.887 357.085 288.169 357.373 288.376 357.775C288.582 358.177 288.68 358.655 288.669 359.209L288.588 363.04C288.588 363.356 288.62 363.6 288.685 363.774C288.783 363.948 289.039 364.029 289.452 364.019V365.029C289.289 365.073 289.071 365.095 288.8 365.095C288.321 365.095 287.974 365.013 287.756 364.85C287.55 364.687 287.403 364.366 287.316 363.888C286.783 364.866 285.838 365.355 284.479 365.355C283.545 365.355 282.822 365.149 282.311 364.736C281.811 364.312 281.561 363.687 281.561 362.861C281.561 362.079 281.844 361.486 282.409 361.084C282.974 360.66 284.045 360.378 285.621 360.236C286.349 360.182 286.783 360.111 286.925 360.024C287.131 359.883 287.234 359.573 287.234 359.095C287.234 357.987 286.615 357.432 285.376 357.432C283.909 357.432 283.191 358.019 283.224 359.193ZM287.202 361.492L287.234 360.791C287.071 360.91 286.832 361.008 286.517 361.084C286.039 361.117 285.669 361.155 285.409 361.198C284.507 361.35 283.958 361.475 283.762 361.573C283.284 361.801 283.045 362.214 283.045 362.812C283.045 363.29 283.186 363.665 283.469 363.937C283.762 364.209 284.153 364.345 284.642 364.345C284.958 364.345 285.246 364.301 285.506 364.214C285.778 364.127 286.039 363.986 286.289 363.79C286.55 363.584 286.756 363.285 286.908 362.894C287.071 362.502 287.169 362.035 287.202 361.492ZM297.028 353.08H298.251C298.207 353.873 297.838 354.4 297.142 354.661C296.762 354.791 296.436 354.878 296.164 354.922C294.947 355.074 294.24 355.177 294.045 355.231C293.306 355.438 292.74 355.813 292.349 356.356C291.958 356.889 291.751 357.655 291.73 358.655H291.762C292.284 357.253 293.354 356.552 294.974 356.552C296.289 356.552 297.273 356.987 297.925 357.856C298.588 358.715 298.919 359.769 298.919 361.019C298.919 362.214 298.577 363.236 297.892 364.084C297.207 364.931 296.191 365.355 294.843 365.355C293.354 365.355 292.251 364.79 291.534 363.66C291.175 363.04 290.931 362.345 290.8 361.573C290.713 360.965 290.67 360.361 290.67 359.764C290.67 357.666 290.991 356.199 291.632 355.362C292.197 354.634 292.963 354.166 293.93 353.96C294.843 353.753 295.615 353.634 296.245 353.601C296.669 353.547 296.93 353.373 297.028 353.08ZM292.186 361.117C292.186 361.834 292.349 362.524 292.675 363.187C293.056 363.959 293.767 364.345 294.811 364.345C295.637 364.345 296.273 364.067 296.718 363.513C297.175 362.948 297.403 362.171 297.403 361.182C297.403 360.367 297.262 359.611 296.979 358.916C296.62 358.014 295.898 357.563 294.811 357.563C293.724 357.563 292.99 358.003 292.61 358.883C292.327 359.557 292.186 360.302 292.186 361.117ZM300.53 362.519C300.247 361.356 300.258 360.231 300.562 359.144C300.867 358.057 301.508 357.28 302.486 356.813C303.029 356.552 303.665 356.422 304.393 356.422C305.122 356.422 305.757 356.552 306.301 356.813C307.279 357.269 307.926 358.084 308.241 359.258C308.382 359.802 308.453 360.35 308.453 360.905C308.464 361.448 308.398 361.986 308.257 362.519C308.127 363.04 307.893 363.519 307.556 363.953C307.23 364.388 306.812 364.73 306.301 364.98C305.747 365.23 305.111 365.355 304.393 365.355C303.676 365.355 303.04 365.23 302.486 364.98C301.54 364.524 300.888 363.703 300.53 362.519ZM302.046 359.242C301.905 359.677 301.834 360.22 301.834 360.872C301.834 361.513 301.905 362.062 302.046 362.519C302.187 362.975 302.35 363.318 302.535 363.546C302.926 363.981 303.372 364.236 303.872 364.312C304.22 364.366 304.567 364.366 304.915 364.312C305.067 364.301 305.279 364.225 305.551 364.084C305.844 363.932 306.083 363.741 306.268 363.513C306.453 363.285 306.611 362.953 306.741 362.519C306.882 362.062 306.953 361.513 306.953 360.872C306.953 360.22 306.882 359.677 306.741 359.242C306.589 358.764 306.42 358.421 306.236 358.215C306.062 358.008 305.844 357.834 305.583 357.693C305.323 357.552 305.1 357.465 304.915 357.432C304.567 357.378 304.22 357.378 303.872 357.432C303.72 357.443 303.502 357.525 303.22 357.677C302.665 357.949 302.274 358.47 302.046 359.242ZM311.741 365.029V357.758H308.872V356.748H316.045V357.758H313.175V365.029H311.741ZM318.671 356.748V360.367L322.209 356.748H323.888L320.008 360.595L324.1 365.029H322.388L318.671 360.888V365.029H317.236V356.748H318.671ZM326.647 356.748V363.35L330.967 356.748H332.565V365.029H331.13V358.41L326.826 365.029H325.212V356.748H326.647Z" fill="black"/>
<path d="M28.8716 341.666H23.1331V347.029H21.6007V335.618H23.1331V340.378H28.8716V335.618H30.404V347.029H28.8716V341.666ZM34.3975 338.748V345.35L38.7177 338.748H40.3153V347.029H38.8807V340.41L34.5769 347.029H32.9629V338.748H34.3975ZM42.0063 344.486H43.3758C43.3758 345.03 43.5714 345.475 43.9626 345.823C44.3539 346.171 44.8919 346.345 45.5766 346.345C46.2504 346.345 46.7775 346.209 47.1579 345.937C47.5383 345.654 47.7285 345.247 47.7285 344.714C47.7285 343.725 47.1036 343.231 45.8537 343.231H44.631V342.22H45.6907C46.8428 342.22 47.4188 341.791 47.4188 340.932C47.4188 340.791 47.397 340.65 47.3536 340.508C47.321 340.367 47.2449 340.209 47.1253 340.036C47.0167 339.851 46.8265 339.704 46.5547 339.595C46.283 339.487 45.9461 339.432 45.544 339.432C44.8267 339.432 44.3213 339.601 44.0279 339.938C43.7344 340.275 43.5877 340.639 43.5877 341.03H42.2183C42.2509 340.465 42.3976 339.992 42.6584 339.612C42.9193 339.231 43.2562 338.96 43.6692 338.797C44.343 338.547 44.9951 338.422 45.6255 338.422C46.1798 338.422 46.6689 338.487 47.0927 338.617C47.5166 338.737 47.8372 338.883 48.0546 339.057C48.2828 339.231 48.4621 339.438 48.5926 339.677C48.7339 339.916 48.8208 340.128 48.8534 340.313C48.886 340.487 48.9023 340.66 48.9023 340.834C48.9023 341.802 48.4241 342.405 47.4677 342.644V342.693C47.9785 342.769 48.3969 342.992 48.723 343.361C49.049 343.731 49.2121 344.214 49.2121 344.812C49.2121 345.421 48.9947 345.975 48.56 346.475C48.0274 347.062 47.071 347.355 45.6907 347.355C44.5278 347.355 43.642 347.111 43.0334 346.622C42.3487 346.024 42.0063 345.312 42.0063 344.486ZM52.515 338.748V342.367L56.0526 338.748H57.7318L53.8518 342.595L57.9437 347.029H56.2319L52.515 342.888V347.029H51.0804V338.748H52.515ZM60.4911 338.748V345.35L64.8113 338.748H66.4089V347.029H64.9743V340.41L60.6704 347.029H59.0565V338.748H60.4911ZM70.1867 338.748V345.35L74.5068 338.748H76.1045V347.029H74.6698V340.41L70.366 347.029H68.752V338.748H70.1867ZM73.9688 335.618H75.1915C74.9633 336.813 74.246 337.514 73.0396 337.721C72.8331 337.753 72.6157 337.769 72.3875 337.769C70.9855 337.769 70.0888 337.199 69.6976 336.058C69.665 335.982 69.6269 335.835 69.5835 335.618H70.8062C70.7735 335.9 70.8714 336.166 71.0996 336.416C71.2626 336.59 71.4528 336.721 71.6702 336.808C71.8658 336.873 72.1049 336.905 72.3875 336.905C72.8548 336.905 73.2407 336.791 73.545 336.563C73.8493 336.324 73.9906 336.009 73.9688 335.618ZM21.6985 368.029V366.969C22.1115 367.024 22.3506 367.051 22.4158 367.051C22.8288 367.051 23.1222 366.899 23.2961 366.594C23.4048 366.431 23.4755 366.295 23.5081 366.187C23.5407 366.132 23.6113 365.953 23.72 365.649L23.9156 365.029L20.3291 356.748H22.0408L24.6982 363.448L26.899 356.748H28.3336L25.0405 366.007C24.7797 366.746 24.5569 367.23 24.3721 367.458C24.0026 367.893 23.5026 368.11 22.8723 368.11C22.3832 368.11 21.9919 368.083 21.6985 368.029ZM29.5082 368.045V356.748H30.845V357.889H30.8939C31.546 356.911 32.4589 356.422 33.6327 356.422C34.7087 356.422 35.5999 356.797 36.3063 357.546C37.0128 358.307 37.366 359.421 37.366 360.888C37.366 362.388 37.0073 363.508 36.29 364.247C35.5836 364.986 34.7087 365.355 33.6653 365.355C33.3393 365.355 32.9426 365.285 32.4752 365.143C31.7905 364.937 31.2797 364.502 30.9428 363.839V368.045H29.5082ZM30.845 360.921C30.845 362.073 31.1058 362.937 31.6275 363.513C32.1709 364.067 32.7632 364.345 33.4045 364.345C34.0783 364.345 34.6543 364.073 35.1325 363.529C35.6107 362.964 35.8498 362.084 35.8498 360.888C35.8498 359.802 35.627 358.954 35.1814 358.345C34.7467 357.737 34.1272 357.432 33.323 357.432C32.8991 357.432 32.5024 357.546 32.1329 357.775C31.2743 358.285 30.845 359.334 30.845 360.921ZM38.9747 362.519C38.6921 361.356 38.703 360.231 39.0073 359.144C39.3116 358.057 39.9529 357.28 40.931 356.813C41.4744 356.552 42.1102 356.422 42.8384 356.422C43.5666 356.422 44.2024 356.552 44.7458 356.813C45.724 357.269 46.3706 358.084 46.6858 359.258C46.8271 359.802 46.8977 360.35 46.8977 360.905C46.9086 361.448 46.8434 361.986 46.7021 362.519C46.5717 363.04 46.338 363.519 46.0011 363.953C45.675 364.388 45.2566 364.73 44.7458 364.98C44.1915 365.23 43.5557 365.355 42.8384 365.355C42.1211 365.355 41.4853 365.23 40.931 364.98C39.9855 364.524 39.3334 363.703 38.9747 362.519ZM40.4908 359.242C40.3496 359.677 40.2789 360.22 40.2789 360.872C40.2789 361.513 40.3496 362.062 40.4908 362.519C40.6321 362.975 40.7952 363.318 40.9799 363.546C41.3712 363.981 41.8168 364.236 42.3167 364.312C42.6645 364.366 43.0123 364.366 43.3601 364.312C43.5122 364.301 43.7242 364.225 43.9959 364.084C44.2893 363.932 44.5284 363.741 44.7132 363.513C44.898 363.285 45.0556 362.953 45.186 362.519C45.3273 362.062 45.3979 361.513 45.3979 360.872C45.3979 360.22 45.3273 359.677 45.186 359.242C45.0338 358.764 44.8654 358.421 44.6806 358.215C44.5067 358.008 44.2893 357.834 44.0285 357.693C43.7677 357.552 43.5449 357.465 43.3601 357.432C43.0123 357.378 42.6645 357.378 42.3167 357.432C42.1646 357.443 41.9472 357.525 41.6646 357.677C41.1103 357.949 40.7191 358.47 40.4908 359.242ZM48.7878 365.029V356.748H52.733C54.4828 356.748 55.3577 357.405 55.3577 358.72C55.3577 359.666 54.8578 360.312 53.8579 360.66V360.709C54.5317 360.872 54.9991 361.133 55.2599 361.492C55.5316 361.85 55.6675 362.312 55.6675 362.877C55.6675 363.779 55.336 364.377 54.673 364.671C54.1296 364.91 53.4666 365.029 52.6841 365.029H48.7878ZM52.2766 357.758H50.2224V360.204H52.2113C52.7874 360.204 53.2112 360.09 53.4829 359.861C53.7655 359.622 53.9068 359.313 53.9068 358.932C53.9068 358.15 53.3634 357.758 52.2766 357.758ZM52.2766 361.215H50.2224V364.019H52.3255C53.5645 364.019 54.1839 363.595 54.1839 362.747C54.1839 361.725 53.5481 361.215 52.2766 361.215ZM63.5426 362.633H64.912C64.7816 363.361 64.4284 363.997 63.8524 364.54C63.2763 365.084 62.4232 365.355 61.2929 365.355C59.7604 365.355 58.6356 364.85 57.9182 363.839C57.5596 363.307 57.3259 362.736 57.2172 362.127C57.1412 361.704 57.1031 361.301 57.1031 360.921C57.1031 360.193 57.2118 359.508 57.4292 358.867C57.5705 358.41 57.777 358.014 58.0487 357.677C58.3421 357.318 58.7605 357.019 59.304 356.78C59.8474 356.541 60.4614 356.422 61.1461 356.422C62.3634 356.422 63.2818 356.758 63.9013 357.432C64.1621 357.715 64.374 358.074 64.5371 358.508C64.7762 359.139 64.9229 359.905 64.9772 360.807C64.9772 360.84 64.9772 360.91 64.9772 361.019C64.9881 361.128 64.9935 361.193 64.9935 361.215H58.6193C58.6193 362.041 58.8366 362.769 59.2714 363.399C59.7061 364.029 60.3636 364.345 61.244 364.345C61.8743 364.345 62.3906 364.187 62.7927 363.872C63.1948 363.557 63.4448 363.144 63.5426 362.633ZM58.6193 360.204H63.4774C63.4665 359.563 63.3144 358.97 63.0209 358.427C62.684 357.764 62.07 357.432 61.1787 357.432C60.168 357.432 59.4724 357.769 59.092 358.443C58.7768 358.986 58.6193 359.573 58.6193 360.204ZM72.4 361.166H68.308V365.029H66.8734V356.748H68.308V360.155H72.4V356.748H73.8346V365.029H72.4V361.166ZM76.1869 365.029V356.748H77.6215V360.041H79.6919C80.507 360.041 81.2081 360.16 81.7949 360.399C82.6101 360.693 83.0176 361.378 83.0176 362.453C83.0176 363.345 82.7568 364.008 82.2351 364.442C82.0177 364.616 81.7623 364.747 81.4689 364.834C81.0776 364.964 80.6483 365.029 80.181 365.029H76.1869ZM79.3659 361.051H77.6215V364.019H79.6104C80.2842 364.019 80.7788 363.883 81.0939 363.611C81.4091 363.296 81.5558 362.91 81.5341 362.453C81.5341 361.954 81.3711 361.584 81.045 361.345C80.9363 361.269 80.7624 361.204 80.5233 361.149C80.2625 361.084 79.9202 361.051 79.4963 361.051H79.3659ZM88.1052 362.519C87.8226 361.356 87.8335 360.231 88.1378 359.144C88.4421 358.057 89.0833 357.28 90.0615 356.813C90.6049 356.552 91.2407 356.422 91.9689 356.422C92.697 356.422 93.3328 356.552 93.8763 356.813C94.8544 357.269 95.5011 358.084 95.8163 359.258C95.9575 359.802 96.0282 360.35 96.0282 360.905C96.0391 361.448 95.9738 361.986 95.8326 362.519C95.7021 363.04 95.4685 363.519 95.1316 363.953C94.8055 364.388 94.3871 364.73 93.8763 364.98C93.322 365.23 92.6862 365.355 91.9689 365.355C91.2516 365.355 90.6158 365.23 90.0615 364.98C89.1159 364.524 88.4638 363.703 88.1052 362.519ZM89.6213 359.242C89.48 359.677 89.4094 360.22 89.4094 360.872C89.4094 361.513 89.48 362.062 89.6213 362.519C89.7626 362.975 89.9256 363.318 90.1104 363.546C90.5016 363.981 90.9472 364.236 91.4472 364.312C91.795 364.366 92.1428 364.366 92.4905 364.312C92.6427 364.301 92.8546 364.225 93.1263 364.084C93.4198 363.932 93.6589 363.741 93.8437 363.513C94.0284 363.285 94.186 362.953 94.3164 362.519C94.4577 362.062 94.5284 361.513 94.5284 360.872C94.5284 360.22 94.4577 359.677 94.3164 359.242C94.1643 358.764 93.9958 358.421 93.811 358.215C93.6372 358.008 93.4198 357.834 93.1589 357.693C92.8981 357.552 92.6753 357.465 92.4905 357.432C92.1428 357.378 91.795 357.378 91.4472 357.432C91.295 357.443 91.0777 357.525 90.7951 357.677C90.2408 357.949 89.8495 358.47 89.6213 359.242ZM103.543 357.758H99.3529V365.029H97.9183V356.748H104.977V365.029H103.543V357.758ZM108.42 359.193H107.05C107.05 358.541 107.267 357.943 107.702 357.4C108.224 356.748 109.18 356.422 110.571 356.422C111.387 356.422 112.104 356.585 112.723 356.911C113.082 357.085 113.365 357.373 113.571 357.775C113.778 358.177 113.875 358.655 113.865 359.209L113.783 363.04C113.783 363.356 113.816 363.6 113.881 363.774C113.979 363.948 114.234 364.029 114.647 364.019V365.029C114.484 365.073 114.267 365.095 113.995 365.095C113.517 365.095 113.169 365.013 112.952 364.85C112.745 364.687 112.598 364.366 112.511 363.888C111.979 364.866 111.033 365.355 109.675 365.355C108.74 365.355 108.017 365.149 107.507 364.736C107.007 364.312 106.757 363.687 106.757 362.861C106.757 362.079 107.039 361.486 107.604 361.084C108.17 360.66 109.24 360.378 110.816 360.236C111.544 360.182 111.979 360.111 112.12 360.024C112.327 359.883 112.43 359.573 112.43 359.095C112.43 357.987 111.81 357.432 110.571 357.432C109.104 357.432 108.387 358.019 108.42 359.193ZM112.397 361.492L112.43 360.791C112.267 360.91 112.028 361.008 111.713 361.084C111.234 361.117 110.865 361.155 110.604 361.198C109.702 361.35 109.153 361.475 108.957 361.573C108.479 361.801 108.24 362.214 108.24 362.812C108.24 363.29 108.381 363.665 108.664 363.937C108.957 364.209 109.349 364.345 109.838 364.345C110.153 364.345 110.441 364.301 110.702 364.214C110.974 364.127 111.234 363.986 111.484 363.79C111.745 363.584 111.952 363.285 112.104 362.894C112.267 362.502 112.365 362.035 112.397 361.492ZM122.142 362.079H123.511C123.468 362.709 123.229 363.372 122.794 364.067C122.555 364.459 122.18 364.774 121.669 365.013C121.169 365.241 120.582 365.355 119.908 365.355C119.68 365.355 119.517 365.35 119.419 365.339C118.941 365.317 118.452 365.192 117.952 364.964C116.561 364.269 115.865 362.888 115.865 360.823C115.865 359.736 116.115 358.769 116.615 357.921C117.235 356.922 118.3 356.422 119.811 356.422C120.876 356.422 121.723 356.693 122.354 357.237C122.984 357.769 123.348 358.47 123.446 359.34H122.077C121.859 358.068 121.115 357.432 119.843 357.432C119.017 357.432 118.398 357.737 117.985 358.345C117.583 358.943 117.382 359.769 117.382 360.823C117.382 361.845 117.593 362.687 118.017 363.35C118.441 364.013 119.082 364.345 119.941 364.345C120.68 364.345 121.218 364.111 121.555 363.644C121.914 363.176 122.109 362.655 122.142 362.079ZM130.796 361.166H126.704V365.029H125.27V356.748H126.704V360.155H130.796V356.748H132.231V365.029H130.796V361.166ZM134.322 362.519C134.04 361.356 134.05 360.231 134.355 359.144C134.659 358.057 135.3 357.28 136.278 356.813C136.822 356.552 137.458 356.422 138.186 356.422C138.914 356.422 139.55 356.552 140.093 356.813C141.071 357.269 141.718 358.084 142.033 359.258C142.175 359.802 142.245 360.35 142.245 360.905C142.256 361.448 142.191 361.986 142.05 362.519C141.919 363.04 141.685 363.519 141.349 363.953C141.023 364.388 140.604 364.73 140.093 364.98C139.539 365.23 138.903 365.355 138.186 365.355C137.469 365.355 136.833 365.23 136.278 364.98C135.333 364.524 134.681 363.703 134.322 362.519ZM135.838 359.242C135.697 359.677 135.626 360.22 135.626 360.872C135.626 361.513 135.697 362.062 135.838 362.519C135.98 362.975 136.143 363.318 136.327 363.546C136.719 363.981 137.164 364.236 137.664 364.312C138.012 364.366 138.36 364.366 138.708 364.312C138.86 364.301 139.072 364.225 139.343 364.084C139.637 363.932 139.876 363.741 140.061 363.513C140.245 363.285 140.403 362.953 140.533 362.519C140.675 362.062 140.745 361.513 140.745 360.872C140.745 360.22 140.675 359.677 140.533 359.242C140.381 358.764 140.213 358.421 140.028 358.215C139.854 358.008 139.637 357.834 139.376 357.693C139.115 357.552 138.892 357.465 138.708 357.432C138.36 357.378 138.012 357.378 137.664 357.432C137.512 357.443 137.295 357.525 137.012 357.677C136.458 357.949 136.067 358.47 135.838 359.242ZM149.939 362.079H151.308C151.265 362.709 151.026 363.372 150.591 364.067C150.352 364.459 149.977 364.774 149.466 365.013C148.966 365.241 148.379 365.355 147.706 365.355C147.477 365.355 147.314 365.35 147.216 365.339C146.738 365.317 146.249 365.192 145.749 364.964C144.358 364.269 143.663 362.888 143.663 360.823C143.663 359.736 143.912 358.769 144.412 357.921C145.032 356.922 146.097 356.422 147.608 356.422C148.673 356.422 149.521 356.693 150.151 357.237C150.781 357.769 151.145 358.47 151.243 359.34H149.874C149.656 358.068 148.912 357.432 147.64 357.432C146.814 357.432 146.195 357.737 145.782 358.345C145.38 358.943 145.179 359.769 145.179 360.823C145.179 361.845 145.391 362.687 145.814 363.35C146.238 364.013 146.88 364.345 147.738 364.345C148.477 364.345 149.015 364.111 149.352 363.644C149.711 363.176 149.906 362.655 149.939 362.079ZM154.687 365.029V357.758H151.818V356.748H158.991V357.758H156.122V365.029H154.687ZM161.522 356.748V363.35L165.842 356.748H167.44V365.029H166.005V358.41L161.702 365.029H160.088V356.748H161.522Z" fill="black"/>
<path d="M112.797 38.6719V22.6954H119.302C122.908 22.6954 124.711 24.2246 124.711 27.2829C124.711 30.6304 122.84 32.3041 119.096 32.3041H114.943V38.6719H112.797ZM118.868 24.4985H114.943V30.5011H118.868C120.131 30.5011 121.052 30.2424 121.63 29.7251C122.223 29.1925 122.52 28.3937 122.52 27.3286C122.52 26.3396 122.223 25.6244 121.63 25.1832C121.036 24.7267 120.116 24.4985 118.868 24.4985ZM129.519 24.4985V29.5196H137.896V31.3227H129.519V36.8688H139.014V38.6719H127.374V22.6954H138.763V24.4985H129.519ZM143.494 36.8688H151.619V38.6719H141.349V22.6954H143.494V36.8688ZM153.429 38.6719V22.6954H159.295C159.721 22.6954 160.033 22.703 160.231 22.7182C161.144 22.7487 162.064 22.9693 162.992 23.3801C163.479 23.5779 163.966 23.8822 164.453 24.293C164.955 24.7039 165.366 25.168 165.686 25.6853C166.492 26.9025 166.895 28.5534 166.895 30.638C166.804 33.7876 165.982 35.9407 164.43 37.0971C163.882 37.5079 163.388 37.8122 162.947 38.01C162.505 38.1926 161.965 38.3371 161.326 38.4436C160.702 38.5654 160.2 38.6338 159.82 38.6491C159.576 38.6643 159.135 38.6719 158.496 38.6719H153.429ZM159.181 24.4985H155.575V36.8688H158.565C160.634 36.8688 162.156 36.3743 163.129 35.3853C164.118 34.3811 164.613 32.8138 164.613 30.6836C164.613 29.5272 164.461 28.5306 164.156 27.6938C163.852 26.8569 163.434 26.2178 162.901 25.7766C162.369 25.3201 161.798 24.993 161.189 24.7952C160.581 24.5974 159.911 24.4985 159.181 24.4985ZM170.313 38.6719V36.1841H172.573V39.3794C172.573 40.1402 172.36 40.7412 171.933 41.1825C171.507 41.6237 170.967 41.9128 170.313 42.0498V40.7945C170.633 40.764 170.899 40.6043 171.112 40.3152C171.34 40.0413 171.454 39.7294 171.454 39.3794V38.6719H170.313ZM179.067 36.8688H187.192V38.6719H176.921V22.6954H179.067V36.8688ZM189.002 38.6719V22.6954H194.868C195.294 22.6954 195.606 22.703 195.803 22.7182C196.716 22.7487 197.637 22.9693 198.565 23.3801C199.052 23.5779 199.539 23.8822 200.026 24.293C200.528 24.7039 200.939 25.168 201.258 25.6853C202.065 26.9025 202.468 28.5534 202.468 30.638C202.377 33.7876 201.555 35.9407 200.003 37.0971C199.455 37.5079 198.961 37.8122 198.519 38.01C198.078 38.1926 197.538 38.3371 196.899 38.4436C196.275 38.5654 195.773 38.6338 195.393 38.6491C195.149 38.6643 194.708 38.6719 194.069 38.6719H189.002ZM194.753 24.4985H191.147V36.8688H194.137C196.207 36.8688 197.728 36.3743 198.702 35.3853C199.691 34.3811 200.185 32.8138 200.185 30.6836C200.185 29.5272 200.033 28.5306 199.729 27.6938C199.425 26.8569 199.006 26.2178 198.474 25.7766C197.941 25.3201 197.371 24.993 196.762 24.7952C196.153 24.5974 195.484 24.4985 194.753 24.4985ZM205.406 38.6719V22.6954H211.911C215.517 22.6954 217.32 24.2246 217.32 27.2829C217.32 30.6304 215.449 32.3041 211.706 32.3041H207.552V38.6719H205.406ZM211.477 24.4985H207.552V30.5011H211.477C212.74 30.5011 213.661 30.2424 214.239 29.7251C214.832 29.1925 215.129 28.3937 215.129 27.3286C215.129 26.3396 214.832 25.6244 214.239 25.1832C213.646 24.7267 212.725 24.4985 211.477 24.4985ZM222.128 24.4985V29.5196H230.505V31.3227H222.128V36.8688H231.623V38.6719H219.983V22.6954H231.372V24.4985H222.128ZM233.456 42.8942H232.018L240.166 22.6954H241.604L233.456 42.8942ZM253.721 24.4985H245.688V38.6719H243.542V22.6954H255.867V38.6719H253.721V24.4985ZM259.746 38.6719V22.6954H266.753C267.666 22.6954 268.449 22.8171 269.104 23.0606C269.758 23.2888 270.252 23.616 270.587 24.042C270.922 24.4528 271.158 24.8789 271.295 25.3201C271.447 25.7614 271.523 26.2407 271.523 26.758C271.523 27.6101 271.264 28.3632 270.747 29.0175C270.245 29.6718 269.613 30.0598 268.853 30.1815V30.25C269.233 30.3109 269.598 30.4174 269.948 30.5695C270.298 30.7217 270.648 30.9423 270.998 31.2314C271.363 31.5205 271.652 31.9237 271.865 32.4411C272.093 32.9584 272.208 33.5518 272.208 34.2213C272.208 37.1883 270.306 38.6719 266.502 38.6719H259.746ZM266.273 24.4985H261.891V29.474H266.205C267.255 29.474 268.038 29.2534 268.556 28.8121C269.073 28.3556 269.332 27.747 269.332 26.9862C269.332 26.7123 269.294 26.4537 269.218 26.2102C269.142 25.9516 269.005 25.6853 268.807 25.4114C268.609 25.1375 268.29 24.9169 267.848 24.7495C267.422 24.5821 266.897 24.4985 266.273 24.4985ZM266.342 31.2771H261.891V36.8688H266.342C267.042 36.8688 267.681 36.7851 268.259 36.6178C269.431 36.2678 270.017 35.4081 270.017 34.0387C270.017 32.1976 268.792 31.2771 266.342 31.2771ZM287.784 22.6954V36.8688H290.089L289.883 42.278H288.012V38.6719H275.596V42.278H273.724L273.542 36.8688H274.98C277.003 34.343 278.015 30.7141 278.015 25.982V22.6954H287.784ZM285.638 36.8688V24.4985H280.161V26.4841C280.161 28.7512 279.97 30.676 279.59 32.2585C279.194 33.9018 278.51 35.4385 277.536 36.8688H285.638ZM122.976 47.4985H114.943V61.6719H112.797V45.6954H125.122V61.6719H122.976V47.4985ZM128.339 58.1571C127.944 56.529 127.959 54.9541 128.385 53.4326C128.811 51.911 129.709 50.8231 131.078 50.1688C131.839 49.8036 132.729 49.6211 133.748 49.6211C134.768 49.6211 135.658 49.8036 136.419 50.1688C137.788 50.8079 138.693 51.9491 139.135 53.5923C139.332 54.3531 139.431 55.1215 139.431 55.8975C139.447 56.6583 139.355 57.4115 139.157 58.1571C138.975 58.8874 138.648 59.5569 138.176 60.1655C137.72 60.7741 137.134 61.2534 136.419 61.6034C135.643 61.9534 134.753 62.1283 133.748 62.1283C132.744 62.1283 131.854 61.9534 131.078 61.6034C129.754 60.9643 128.841 59.8156 128.339 58.1571ZM130.462 53.5695C130.264 54.1781 130.165 54.9389 130.165 55.8519C130.165 56.7496 130.264 57.518 130.462 58.1571C130.66 58.7961 130.888 59.2754 131.146 59.5949C131.694 60.2036 132.318 60.5611 133.018 60.6676C133.505 60.7437 133.992 60.7437 134.479 60.6676C134.692 60.6524 134.988 60.5459 135.369 60.3481C135.78 60.1351 136.114 59.8688 136.373 59.5493C136.632 59.2298 136.852 58.7657 137.035 58.1571C137.233 57.518 137.332 56.7496 137.332 55.8519C137.332 54.9389 137.233 54.1781 137.035 53.5695C136.822 52.9 136.586 52.4207 136.327 52.1316C136.084 51.8425 135.78 51.5991 135.414 51.4013C135.049 51.2035 134.737 51.0818 134.479 51.0361C133.992 50.96 133.505 50.96 133.018 51.0361C132.805 51.0513 132.501 51.1654 132.105 51.3785C131.329 51.7589 130.781 52.4892 130.462 53.5695ZM140.731 61.6719V60.1883C141.872 60.5231 142.678 59.9829 143.15 58.5679C143.272 58.2179 143.356 57.7843 143.401 57.2669L143.493 55.8747C143.508 55.6312 143.515 55.152 143.515 54.4368V50.0775H151.549V61.6719H149.541V51.4926H145.387V54.4368C145.387 55.3954 145.364 56.2018 145.318 56.8561C145.273 57.4952 145.159 58.1951 144.976 58.9559C144.717 60.0362 144.253 60.8046 143.584 61.2611C142.914 61.7175 141.963 61.8545 140.731 61.6719ZM156.835 50.0775V59.3211L162.883 50.0775H165.12V61.6719H163.111V52.4055L157.086 61.6719H154.827V50.0775H156.835ZM176.274 56.354H171.276V54.9389H176.274C176.259 54.2542 176.16 53.6608 175.978 53.1587C175.795 52.6566 175.582 52.2762 175.339 52.0175C175.095 51.7589 174.806 51.5534 174.471 51.4013C174.137 51.2339 173.855 51.135 173.627 51.1046C173.414 51.0589 173.201 51.0361 172.988 51.0361C171.999 51.0361 171.2 51.2872 170.591 51.7893C169.998 52.2762 169.671 52.9152 169.61 53.7065H167.693C167.891 52.1088 168.644 50.9448 169.952 50.2145C170.287 50.0014 170.652 49.8645 171.048 49.8036C171.672 49.6819 172.25 49.6211 172.782 49.6211C176.525 49.6211 178.397 51.736 178.397 55.966C178.397 60.0742 176.564 62.1283 172.897 62.1283C171.999 62.1283 171.215 62.0142 170.546 61.786C168.994 61.2991 168.012 59.9221 167.601 57.6549H169.519C169.777 59.6938 170.903 60.7133 172.897 60.7133C173.627 60.7133 174.243 60.5535 174.745 60.234C175.247 59.8992 175.597 59.458 175.795 58.9102C176.115 58.0125 176.274 57.1604 176.274 56.354ZM183.419 61.6719V51.4926H179.402V50.0775H189.444V51.4926H185.427V61.6719H183.419ZM192.987 50.0775V59.3211L199.035 50.0775H201.272V61.6719H199.264V52.4055L193.238 61.6719H190.979V50.0775H192.987ZM203.206 61.6719V60.1883C204.347 60.5231 205.153 59.9829 205.625 58.5679C205.747 58.2179 205.831 57.7843 205.876 57.2669L205.967 55.8747C205.983 55.6312 205.99 55.152 205.99 54.4368V50.0775H214.024V61.6719H212.016V51.4926H207.862V54.4368C207.862 55.3954 207.839 56.2018 207.793 56.8561C207.748 57.4952 207.634 58.1951 207.451 58.9559C207.192 60.0362 206.728 60.8046 206.059 61.2611C205.389 61.7175 204.438 61.8545 203.206 61.6719ZM225.655 58.3168H227.572C227.389 59.3363 226.895 60.2264 226.089 60.9872C225.282 61.748 224.088 62.1283 222.505 62.1283C220.36 62.1283 218.785 61.4208 217.781 60.0058C217.279 59.2602 216.952 58.4614 216.799 57.6093C216.693 57.0159 216.64 56.4529 216.64 55.9203C216.64 54.9009 216.792 53.9423 217.096 53.0446C217.294 52.4055 217.583 51.8501 217.963 51.3785C218.374 50.8763 218.96 50.4579 219.721 50.1232C220.482 49.7884 221.341 49.6211 222.3 49.6211C224.004 49.6211 225.29 50.0927 226.157 51.0361C226.522 51.4317 226.819 51.9338 227.047 52.5425C227.382 53.425 227.587 54.4977 227.663 55.7606C227.663 55.8062 227.663 55.9051 227.663 56.0573C227.679 56.2094 227.686 56.3007 227.686 56.3312H218.762C218.762 57.4876 219.067 58.507 219.675 59.3895C220.284 60.272 221.204 60.7133 222.437 60.7133C223.319 60.7133 224.042 60.4927 224.605 60.0514C225.168 59.6101 225.518 59.032 225.655 58.3168ZM218.762 54.9161H225.564C225.548 54.0184 225.335 53.1891 224.925 52.4283C224.453 51.5002 223.593 51.0361 222.345 51.0361C220.93 51.0361 219.957 51.5078 219.424 52.4512C218.983 53.212 218.762 54.0336 218.762 54.9161ZM238.055 56.2627H232.327V61.6719H230.318V50.0775H232.327V54.8476H238.055V50.0775H240.064V61.6719H238.055V56.2627ZM256.421 56.2627H250.692V61.6719H248.684V50.0775H250.692V54.8476H256.421V50.0775H258.429V61.6719H256.421V56.2627ZM263.731 50.0775V59.3211L269.779 50.0775H272.016V61.6719H270.008V52.4055L263.982 61.6719H261.723V50.0775H263.731ZM274.383 58.1114H276.301C276.301 58.8722 276.575 59.496 277.122 59.9829C277.67 60.4698 278.423 60.7133 279.382 60.7133C280.325 60.7133 281.063 60.5231 281.596 60.1427C282.128 59.7471 282.395 59.1765 282.395 58.4309C282.395 57.0463 281.52 56.354 279.77 56.354H278.058V54.9389H279.542C281.154 54.9389 281.961 54.3379 281.961 53.1359C281.961 52.9381 281.93 52.7403 281.87 52.5425C281.824 52.3447 281.717 52.124 281.55 51.8806C281.398 51.6219 281.132 51.4165 280.751 51.2643C280.371 51.1122 279.899 51.0361 279.336 51.0361C278.332 51.0361 277.624 51.272 277.214 51.7436C276.803 52.2153 276.597 52.7251 276.597 53.2728H274.68C274.726 52.4816 274.931 51.8197 275.296 51.2872C275.662 50.7546 276.133 50.3742 276.711 50.146C277.655 49.796 278.568 49.6211 279.45 49.6211C280.226 49.6211 280.911 49.7123 281.504 49.8949C282.098 50.0623 282.547 50.2677 282.851 50.5112C283.171 50.7546 283.422 51.0437 283.604 51.3785C283.802 51.7132 283.924 52.0099 283.969 52.2686C284.015 52.512 284.038 52.7555 284.038 52.9989C284.038 54.3531 283.368 55.1976 282.029 55.5323V55.6008C282.745 55.7073 283.33 56.0192 283.787 56.5366C284.243 57.0539 284.471 57.731 284.471 58.5679C284.471 59.42 284.167 60.196 283.559 60.8959C282.813 61.7175 281.474 62.1283 279.542 62.1283C277.914 62.1283 276.673 61.786 275.821 61.1013C274.863 60.2644 274.383 59.2678 274.383 58.1114ZM289.096 50.0775V55.1443L294.048 50.0775H296.399L290.967 55.4639L296.696 61.6719H294.299L289.096 55.8747V61.6719H287.087V50.0775H289.096ZM297.465 58.1571C297.069 56.529 297.085 54.9541 297.511 53.4326C297.937 51.911 298.834 50.8231 300.204 50.1688C300.965 49.8036 301.855 49.6211 302.874 49.6211C303.894 49.6211 304.784 49.8036 305.545 50.1688C306.914 50.8079 307.819 51.9491 308.261 53.5923C308.458 54.3531 308.557 55.1215 308.557 55.8975C308.572 56.6583 308.481 57.4115 308.283 58.1571C308.101 58.8874 307.774 59.5569 307.302 60.1655C306.846 60.7741 306.26 61.2534 305.545 61.6034C304.769 61.9534 303.878 62.1283 302.874 62.1283C301.87 62.1283 300.98 61.9534 300.204 61.6034C298.88 60.9643 297.967 59.8156 297.465 58.1571ZM299.588 53.5695C299.39 54.1781 299.291 54.9389 299.291 55.8519C299.291 56.7496 299.39 57.518 299.588 58.1571C299.785 58.7961 300.014 59.2754 300.272 59.5949C300.82 60.2036 301.444 60.5611 302.144 60.6676C302.631 60.7437 303.118 60.7437 303.605 60.6676C303.818 60.6524 304.114 60.5459 304.495 60.3481C304.906 60.1351 305.24 59.8688 305.499 59.5493C305.758 59.2298 305.978 58.7657 306.161 58.1571C306.359 57.518 306.458 56.7496 306.458 55.8519C306.458 54.9389 306.359 54.1781 306.161 53.5695C305.948 52.9 305.712 52.4207 305.453 52.1316C305.21 51.8425 304.906 51.5991 304.54 51.4013C304.175 51.2035 303.863 51.0818 303.605 51.0361C303.118 50.96 302.631 50.96 302.144 51.0361C301.931 51.0513 301.627 51.1654 301.231 51.3785C300.455 51.7589 299.907 52.4892 299.588 53.5695ZM313.212 50.0775V59.3211L319.26 50.0775H321.497V61.6719H319.488V52.4055L313.463 61.6719H311.203V50.0775H313.212ZM318.507 45.6954H320.219C319.899 47.3691 318.895 48.3505 317.206 48.6396C316.917 48.6853 316.613 48.7081 316.293 48.7081C314.33 48.7081 313.075 47.9093 312.527 46.3116C312.482 46.2051 312.428 45.9997 312.367 45.6954H314.079C314.034 46.091 314.17 46.4638 314.49 46.8138C314.718 47.0572 314.984 47.2398 315.289 47.3615C315.563 47.4528 315.897 47.4985 316.293 47.4985C316.947 47.4985 317.487 47.3387 317.914 47.0192C318.34 46.6844 318.537 46.2432 318.507 45.6954ZM120.375 74.4926H114.509V84.6719H112.5V73.0775H122.383V84.6719H120.375V74.4926ZM124.326 84.6719V83.1883C125.468 83.5231 126.274 82.9829 126.746 81.5679C126.867 81.2179 126.951 80.7843 126.997 80.2669L127.088 78.8747C127.103 78.6312 127.111 78.152 127.111 77.4368V73.0775H135.145V84.6719H133.136V74.4926H128.982V77.4368C128.982 78.3954 128.96 79.2018 128.914 79.8561C128.868 80.4952 128.754 81.1951 128.572 81.9559C128.313 83.0362 127.849 83.8046 127.179 84.2611C126.51 84.7175 125.559 84.8545 124.326 84.6719ZM138.057 81.1571C137.661 79.529 137.677 77.9541 138.103 76.4326C138.529 74.911 139.426 73.8231 140.796 73.1688C141.557 72.8036 142.447 72.6211 143.466 72.6211C144.486 72.6211 145.376 72.8036 146.136 73.1688C147.506 73.8079 148.411 74.9491 148.852 76.5923C149.05 77.3531 149.149 78.1215 149.149 78.8975C149.164 79.6583 149.073 80.4115 148.875 81.1571C148.693 81.8874 148.366 82.5569 147.894 83.1655C147.437 83.7741 146.852 84.2534 146.136 84.6034C145.36 84.9534 144.47 85.1283 143.466 85.1283C142.462 85.1283 141.572 84.9534 140.796 84.6034C139.472 83.9643 138.559 82.8156 138.057 81.1571ZM140.18 76.5695C139.982 77.1781 139.883 77.9389 139.883 78.8519C139.883 79.7496 139.982 80.518 140.18 81.1571C140.377 81.7961 140.606 82.2754 140.864 82.5949C141.412 83.2036 142.036 83.5611 142.736 83.6676C143.223 83.7437 143.71 83.7437 144.196 83.6676C144.409 83.6524 144.706 83.5459 145.087 83.3481C145.497 83.1351 145.832 82.8688 146.091 82.5493C146.349 82.2298 146.57 81.7657 146.753 81.1571C146.951 80.518 147.049 79.7496 147.049 78.8519C147.049 77.9389 146.951 77.1781 146.753 76.5695C146.54 75.9 146.304 75.4207 146.045 75.1316C145.802 74.8425 145.497 74.5991 145.132 74.4013C144.767 74.2035 144.455 74.0818 144.196 74.0361C143.71 73.96 143.223 73.96 142.736 74.0361C142.523 74.0513 142.218 74.1654 141.823 74.3785C141.047 74.7589 140.499 75.4892 140.18 76.5695ZM153.752 84.6719V74.4926H149.735V73.0775H159.778V74.4926H155.761V84.6719H153.752ZM169.05 79.2627H163.321V84.6719H161.313V73.0775H163.321V77.8476H169.05V73.0775H171.058V84.6719H169.05V79.2627ZM173.986 81.1571C173.591 79.529 173.606 77.9541 174.032 76.4326C174.458 74.911 175.356 73.8231 176.725 73.1688C177.486 72.8036 178.376 72.6211 179.395 72.6211C180.415 72.6211 181.305 72.8036 182.066 73.1688C183.435 73.8079 184.34 74.9491 184.782 76.5923C184.98 77.3531 185.078 78.1215 185.078 78.8975C185.094 79.6583 185.002 80.4115 184.805 81.1571C184.622 81.8874 184.295 82.5569 183.823 83.1655C183.367 83.7741 182.781 84.2534 182.066 84.6034C181.29 84.9534 180.4 85.1283 179.395 85.1283C178.391 85.1283 177.501 84.9534 176.725 84.6034C175.401 83.9643 174.488 82.8156 173.986 81.1571ZM176.109 76.5695C175.911 77.1781 175.812 77.9389 175.812 78.8519C175.812 79.7496 175.911 80.518 176.109 81.1571C176.307 81.7961 176.535 82.2754 176.793 82.5949C177.341 83.2036 177.965 83.5611 178.665 83.6676C179.152 83.7437 179.639 83.7437 180.126 83.6676C180.339 83.6524 180.635 83.5459 181.016 83.3481C181.427 83.1351 181.761 82.8688 182.02 82.5493C182.279 82.2298 182.499 81.7657 182.682 81.1571C182.88 80.518 182.979 79.7496 182.979 78.8519C182.979 77.9389 182.88 77.1781 182.682 76.5695C182.469 75.9 182.233 75.4207 181.974 75.1316C181.731 74.8425 181.427 74.5991 181.061 74.4013C180.696 74.2035 180.384 74.0818 180.126 74.0361C179.639 73.96 179.152 73.96 178.665 74.0361C178.452 74.0513 178.148 74.1654 177.752 74.3785C176.976 74.7589 176.428 75.4892 176.109 76.5695ZM195.85 80.5408H197.767C197.706 81.4233 197.371 82.3515 196.763 83.3253C196.428 83.8731 195.903 84.3143 195.188 84.6491C194.488 84.9686 193.666 85.1283 192.723 85.1283C192.403 85.1283 192.175 85.1207 192.038 85.1055C191.369 85.0751 190.684 84.9001 189.984 84.5806C188.036 83.6068 187.063 81.6744 187.063 78.7834C187.063 77.2618 187.413 75.9076 188.113 74.7208C188.98 73.321 190.471 72.6211 192.586 72.6211C194.077 72.6211 195.264 73.0014 196.146 73.7622C197.029 74.5078 197.539 75.4892 197.676 76.7065H195.758C195.454 74.9262 194.412 74.0361 192.632 74.0361C191.475 74.0361 190.608 74.4621 190.03 75.3142C189.467 76.1511 189.185 77.3075 189.185 78.7834C189.185 80.2137 189.482 81.3929 190.075 82.3211C190.669 83.2492 191.566 83.7133 192.769 83.7133C193.803 83.7133 194.556 83.3861 195.028 82.7319C195.53 82.0776 195.804 81.3472 195.85 80.5408ZM202.498 84.6719V74.4926H198.481V73.0775H208.523V74.4926H204.506V84.6719H202.498ZM212.066 73.0775V82.3211L218.114 73.0775H220.351V84.6719H218.343V75.4055L212.317 84.6719H210.058V73.0775H212.066ZM228.958 84.6719V73.0775H234.482C236.931 73.0775 238.156 73.9981 238.156 75.8392C238.156 77.1629 237.456 78.0683 236.057 78.5552V78.6236C237 78.8519 237.654 79.2171 238.019 79.7192C238.4 80.2213 238.59 80.868 238.59 81.6592C238.59 82.9221 238.126 83.7589 237.198 84.1698C236.437 84.5045 235.509 84.6719 234.413 84.6719H228.958ZM233.843 74.4926H230.967V77.9161H233.751C234.558 77.9161 235.151 77.7563 235.532 77.4368C235.927 77.1021 236.125 76.6684 236.125 76.1359C236.125 75.0403 235.364 74.4926 233.843 74.4926ZM233.843 79.3312H230.967V83.2568H233.911C235.646 83.2568 236.513 82.6634 236.513 81.4766C236.513 80.0463 235.623 79.3312 233.843 79.3312ZM241.262 84.6719V73.0775H243.27V77.6651H246.192C247.12 77.6651 247.896 77.7563 248.52 77.9389C250.011 78.3193 250.787 79.4072 250.848 81.2027C250.848 82.2678 250.52 83.1123 249.866 83.7361C249.227 84.36 248.231 84.6719 246.876 84.6719H241.262ZM245.712 79.0801H243.27V83.2568H246.077C247.873 83.2568 248.771 82.5265 248.771 81.0658C248.771 80.3506 248.535 79.8333 248.063 79.5138C247.911 79.392 247.66 79.2931 247.31 79.2171C246.945 79.1258 246.412 79.0801 245.712 79.0801ZM252.263 84.6719V73.0775H254.271V84.6719H252.263ZM265.68 80.5408H267.597C267.536 81.4233 267.201 82.3515 266.593 83.3253C266.258 83.8731 265.733 84.3143 265.018 84.6491C264.318 84.9686 263.496 85.1283 262.553 85.1283C262.234 85.1283 262.005 85.1207 261.868 85.1055C261.199 85.0751 260.514 84.9001 259.814 84.5806C257.867 83.6068 256.893 81.6744 256.893 78.7834C256.893 77.2618 257.243 75.9076 257.943 74.7208C258.81 73.321 260.301 72.6211 262.416 72.6211C263.907 72.6211 265.094 73.0014 265.977 73.7622C266.859 74.5078 267.369 75.4892 267.506 76.7065H265.589C265.284 74.9262 264.242 74.0361 262.462 74.0361C261.305 74.0361 260.438 74.4621 259.86 75.3142C259.297 76.1511 259.015 77.3075 259.015 78.7834C259.015 80.2137 259.312 81.3929 259.906 82.3211C260.499 83.2492 261.397 83.7133 262.599 83.7133C263.633 83.7133 264.387 83.3861 264.858 82.7319C265.36 82.0776 265.634 81.3472 265.68 80.5408ZM269.693 81.1571C269.298 79.529 269.313 77.9541 269.739 76.4326C270.165 74.911 271.063 73.8231 272.432 73.1688C273.193 72.8036 274.083 72.6211 275.103 72.6211C276.122 72.6211 277.012 72.8036 277.773 73.1688C279.142 73.8079 280.048 74.9491 280.489 76.5923C280.687 77.3531 280.786 78.1215 280.786 78.8975C280.801 79.6583 280.71 80.4115 280.512 81.1571C280.329 81.8874 280.002 82.5569 279.53 83.1655C279.074 83.7741 278.488 84.2534 277.773 84.6034C276.997 84.9534 276.107 85.1283 275.103 85.1283C274.098 85.1283 273.208 84.9534 272.432 84.6034C271.108 83.9643 270.196 82.8156 269.693 81.1571ZM271.816 76.5695C271.618 77.1781 271.519 77.9389 271.519 78.8519C271.519 79.7496 271.618 80.518 271.816 81.1571C272.014 81.7961 272.242 82.2754 272.501 82.5949C273.048 83.2036 273.672 83.5611 274.372 83.6676C274.859 83.7437 275.346 83.7437 275.833 83.6676C276.046 83.6524 276.343 83.5459 276.723 83.3481C277.134 83.1351 277.469 82.8688 277.727 82.5493C277.986 82.2298 278.207 81.7657 278.389 81.1571C278.587 80.518 278.686 79.7496 278.686 78.8519C278.686 77.9389 278.587 77.1781 278.389 76.5695C278.176 75.9 277.94 75.4207 277.682 75.1316C277.438 74.8425 277.134 74.5991 276.769 74.4013C276.404 74.2035 276.092 74.0818 275.833 74.0361C275.346 73.96 274.859 73.96 274.372 74.0361C274.159 74.0513 273.855 74.1654 273.459 74.3785C272.683 74.7589 272.136 75.4892 271.816 76.5695ZM285.44 73.0775V78.1443L290.393 73.0775H292.744L287.312 78.4639L293.04 84.6719H290.644L285.44 78.8747V84.6719H283.432V73.0775H285.44ZM293.81 81.1571C293.414 79.529 293.429 77.9541 293.855 76.4326C294.281 74.911 295.179 73.8231 296.549 73.1688C297.309 72.8036 298.199 72.6211 299.219 72.6211C300.238 72.6211 301.128 72.8036 301.889 73.1688C303.259 73.8079 304.164 74.9491 304.605 76.5923C304.803 77.3531 304.902 78.1215 304.902 78.8975C304.917 79.6583 304.826 80.4115 304.628 81.1571C304.445 81.8874 304.118 82.5569 303.647 83.1655C303.19 83.7741 302.604 84.2534 301.889 84.6034C301.113 84.9534 300.223 85.1283 299.219 85.1283C298.215 85.1283 297.325 84.9534 296.549 84.6034C295.225 83.9643 294.312 82.8156 293.81 81.1571ZM295.932 76.5695C295.734 77.1781 295.636 77.9389 295.636 78.8519C295.636 79.7496 295.734 80.518 295.932 81.1571C296.13 81.7961 296.358 82.2754 296.617 82.5949C297.165 83.2036 297.789 83.5611 298.489 83.6676C298.975 83.7437 299.462 83.7437 299.949 83.6676C300.162 83.6524 300.459 83.5459 300.839 83.3481C301.25 83.1351 301.585 82.8688 301.844 82.5493C302.102 82.2298 302.323 81.7657 302.505 81.1571C302.703 80.518 302.802 79.7496 302.802 78.8519C302.802 77.9389 302.703 77.1781 302.505 76.5695C302.292 75.9 302.057 75.4207 301.798 75.1316C301.554 74.8425 301.25 74.5991 300.885 74.4013C300.52 74.2035 300.208 74.0818 299.949 74.0361C299.462 73.96 298.975 73.96 298.489 74.0361C298.276 74.0513 297.971 74.1654 297.576 74.3785C296.8 74.7589 296.252 75.4892 295.932 76.5695ZM315.491 74.4926H309.557V84.6719H307.548V73.0775H315.491V74.4926ZM316.477 81.1571C316.082 79.529 316.097 77.9541 316.523 76.4326C316.949 74.911 317.847 73.8231 319.216 73.1688C319.977 72.8036 320.867 72.6211 321.886 72.6211C322.906 72.6211 323.796 72.8036 324.557 73.1688C325.926 73.8079 326.831 74.9491 327.273 76.5923C327.471 77.3531 327.569 78.1215 327.569 78.8975C327.585 79.6583 327.493 80.4115 327.296 81.1571C327.113 81.8874 326.786 82.5569 326.314 83.1655C325.858 83.7741 325.272 84.2534 324.557 84.6034C323.781 84.9534 322.891 85.1283 321.886 85.1283C320.882 85.1283 319.992 84.9534 319.216 84.6034C317.892 83.9643 316.979 82.8156 316.477 81.1571ZM318.6 76.5695C318.402 77.1781 318.303 77.9389 318.303 78.8519C318.303 79.7496 318.402 80.518 318.6 81.1571C318.798 81.7961 319.026 82.2754 319.285 82.5949C319.832 83.2036 320.456 83.5611 321.156 83.6676C321.643 83.7437 322.13 83.7437 322.617 83.6676C322.83 83.6524 323.126 83.5459 323.507 83.3481C323.918 83.1351 324.252 82.8688 324.511 82.5493C324.77 82.2298 324.99 81.7657 325.173 81.1571C325.371 80.518 325.47 79.7496 325.47 78.8519C325.47 77.9389 325.371 77.1781 325.173 76.5695C324.96 75.9 324.724 75.4207 324.465 75.1316C324.222 74.8425 323.918 74.5991 323.553 74.4013C323.187 74.2035 322.875 74.0818 322.617 74.0361C322.13 73.96 321.643 73.96 321.156 74.0361C320.943 74.0513 320.639 74.1654 320.243 74.3785C319.467 74.7589 318.919 75.4892 318.6 76.5695ZM111.04 110.685L110.857 106.257H112.318C113.581 104.401 114.212 101.654 114.212 98.0175V96.0775H122.52V106.257H124.528L124.369 110.685H122.68V107.672H112.729V110.685H111.04ZM120.512 106.257V97.4926H116.084V99.1131C116.084 100.346 115.947 101.624 115.673 102.947C115.429 104.256 115.019 105.359 114.44 106.257H120.512ZM127.782 99.5011H125.865C125.865 98.5881 126.169 97.7512 126.777 96.9905C127.508 96.0775 128.847 95.6211 130.794 95.6211C131.936 95.6211 132.94 95.8493 133.807 96.3058C134.309 96.5492 134.705 96.9524 134.994 97.5154C135.283 98.0784 135.42 98.7479 135.405 99.5239L135.291 104.887C135.291 105.329 135.336 105.671 135.428 105.914C135.565 106.158 135.922 106.272 136.5 106.257V107.672C136.272 107.733 135.968 107.763 135.587 107.763C134.918 107.763 134.431 107.649 134.127 107.421C133.838 107.193 133.632 106.744 133.51 106.074C132.765 107.444 131.441 108.128 129.539 108.128C128.231 108.128 127.219 107.839 126.504 107.261C125.804 106.668 125.454 105.793 125.454 104.636C125.454 103.541 125.849 102.712 126.641 102.149C127.432 101.555 128.931 101.16 131.137 100.962C132.156 100.886 132.765 100.787 132.963 100.665C133.252 100.467 133.396 100.034 133.396 99.3641C133.396 97.8121 132.529 97.0361 130.794 97.0361C128.74 97.0361 127.736 97.8578 127.782 99.5011ZM133.351 102.719L133.396 101.738C133.168 101.905 132.833 102.042 132.392 102.149C131.723 102.194 131.205 102.247 130.84 102.308C129.577 102.521 128.809 102.696 128.535 102.833C127.865 103.153 127.531 103.731 127.531 104.568C127.531 105.237 127.728 105.762 128.124 106.143C128.535 106.523 129.083 106.713 129.767 106.713C130.209 106.713 130.612 106.652 130.977 106.531C131.357 106.409 131.723 106.211 132.073 105.937C132.438 105.648 132.727 105.23 132.94 104.682C133.168 104.134 133.305 103.48 133.351 102.719ZM138.868 107.672V96.0775H144.391C146.841 96.0775 148.066 96.9981 148.066 98.8392C148.066 100.163 147.366 101.068 145.966 101.555V101.624C146.909 101.852 147.564 102.217 147.929 102.719C148.309 103.221 148.499 103.868 148.499 104.659C148.499 105.922 148.035 106.759 147.107 107.17C146.346 107.505 145.418 107.672 144.323 107.672H138.868ZM143.752 97.4926H140.876V100.916H143.661C144.467 100.916 145.061 100.756 145.441 100.437C145.837 100.102 146.034 99.6684 146.034 99.1359C146.034 98.0403 145.274 97.4926 143.752 97.4926ZM143.752 102.331H140.876V106.257H143.821C145.555 106.257 146.422 105.663 146.422 104.477C146.422 103.046 145.532 102.331 143.752 102.331ZM149.825 107.672V106.188C150.966 106.523 151.772 105.983 152.244 104.568C152.366 104.218 152.449 103.784 152.495 103.267L152.586 101.875C152.601 101.631 152.609 101.152 152.609 100.437V96.0775H160.643V107.672H158.634V97.4926H154.481V100.437C154.481 101.395 154.458 102.202 154.412 102.856C154.366 103.495 154.252 104.195 154.07 104.956C153.811 106.036 153.347 106.805 152.678 107.261C152.008 107.718 151.057 107.854 149.825 107.672ZM172.274 104.317H174.191C174.008 105.336 173.514 106.226 172.707 106.987C171.901 107.748 170.706 108.128 169.124 108.128C166.979 108.128 165.404 107.421 164.4 106.006C163.897 105.26 163.57 104.461 163.418 103.609C163.312 103.016 163.258 102.453 163.258 101.92C163.258 100.901 163.411 99.9423 163.715 99.0446C163.913 98.4055 164.202 97.8501 164.582 97.3785C164.993 96.8763 165.579 96.4579 166.34 96.1232C167.1 95.7884 167.96 95.6211 168.919 95.6211C170.623 95.6211 171.909 96.0927 172.776 97.0361C173.141 97.4317 173.438 97.9338 173.666 98.5425C174.001 99.425 174.206 100.498 174.282 101.761C174.282 101.806 174.282 101.905 174.282 102.057C174.297 102.209 174.305 102.301 174.305 102.331H165.381C165.381 103.488 165.685 104.507 166.294 105.39C166.903 106.272 167.823 106.713 169.056 106.713C169.938 106.713 170.661 106.493 171.224 106.051C171.787 105.61 172.137 105.032 172.274 104.317ZM165.381 100.916H172.182C172.167 100.018 171.954 99.1891 171.543 98.4283C171.072 97.5002 170.212 97.0361 168.964 97.0361C167.549 97.0361 166.575 97.5078 166.043 98.4512C165.602 99.212 165.381 100.034 165.381 100.916ZM184.674 102.263H178.945V107.672H176.937V96.0775H178.945V100.848H184.674V96.0775H186.682V107.672H184.674V102.263ZM191.984 96.0775V105.321L198.032 96.0775H200.269V107.672H198.261V98.4055L192.235 107.672H189.976V96.0775H191.984ZM210.648 103.107H208L204.964 107.672H202.751L205.946 103.084C205.063 102.993 204.348 102.651 203.8 102.057C203.253 101.464 202.979 100.688 202.979 99.7293C202.979 98.8316 203.215 98.048 203.686 97.3785C204.249 96.5112 205.314 96.0775 206.882 96.0775H212.656V107.672H210.648V103.107ZM210.648 101.692V97.4926H207.749C205.954 97.4926 205.056 98.2153 205.056 99.6608C205.056 100.254 205.276 100.741 205.718 101.122C206.159 101.502 206.859 101.692 207.817 101.692H210.648Z" fill="black"/>
<path d="M58.9121 145.006V141.308H51.3803V139.505L58.8892 129.029H61.0575V139.505H63.5681V141.308H61.0575V145.006H58.9121ZM58.9121 131.837L53.4344 139.505H58.9121V131.837Z" fill="black"/>
<path d="M26.99 157.074C26.5108 156.242 26.2614 155.296 26.2675 154.334C26.2737 153.372 26.5352 152.429 27.025 151.603L35.6282 136.884L37.5752 145.531L42.8516 144.325L38.8134 126.392L21.014 130.461L22.2111 135.777L31.1973 133.723L22.3627 148.837C21.3949 150.493 20.8786 152.377 20.8663 154.299C20.854 156.22 21.3461 158.111 22.2927 159.78C23.2392 161.448 24.6067 162.835 26.2565 163.799C27.9063 164.763 29.7798 165.271 31.6872 165.271H45.625L51.0354 159.82H31.6872C30.7323 159.826 29.7932 159.575 28.9673 159.092C28.1414 158.609 27.4587 157.912 26.99 157.074ZM63.3501 105.409L72.4375 120.956L64.1438 119.652L63.3096 125.038L81.3434 127.873L84.1569 109.704L78.8112 108.864L77.311 118.551L68.0124 102.643C67.0566 101.007 65.6936 99.6517 64.0582 98.7098C62.4228 97.7679 60.5716 97.2725 58.6879 97.2725C56.8041 97.2725 54.9529 97.7679 53.3175 98.7098C51.6821 99.6517 50.3191 101.007 49.3633 102.643L42.6105 114.196L44.3701 121.927L54.0254 105.409C54.5033 104.591 55.1848 103.914 56.0025 103.443C56.8202 102.972 57.7457 102.724 58.6875 102.724C59.6293 102.724 60.5549 102.972 61.3725 103.443C62.1902 103.914 62.8722 104.591 63.3501 105.409ZM95.0133 148.837L86.9201 134.991L79.9629 133.831L90.3512 151.603C90.8351 152.431 91.0932 153.373 91.0994 154.334C91.1055 155.295 90.8595 156.24 90.3862 157.075C89.9128 157.909 89.2291 158.602 88.4041 159.084C87.5792 159.566 86.6424 159.82 85.6887 159.82H66.8444L73.3301 153.286L69.5044 149.432L56.5984 162.435L69.5044 175.438L73.3301 171.583L67.0654 165.272H85.6887C87.5961 165.272 89.4696 164.764 91.1194 163.799C92.7692 162.835 94.1366 161.448 95.0832 159.78C96.0298 158.112 96.5219 156.221 96.5096 154.299C96.4972 152.378 95.9812 150.493 95.0133 148.837Z" fill="black"/>
<path d="M49.3964 293.391H53.472V297.466H49.3964V293.391ZM45.3207 301.542V297.466H49.3964V301.542H45.3207ZM41.2451 305.618V301.542H45.3207V305.618H41.2451ZM37.1695 309.693H41.2451V305.618H37.1695V309.693ZM33.0938 313.769H37.1695V309.693H33.0938V313.769ZM29.0182 313.769V317.844H33.0938V313.769H29.0182ZM24.9426 309.693H29.0182V313.769H24.9426V309.693ZM24.9426 309.693H20.8669V305.618H24.9426V309.693Z" fill="black"/>
</svg>
