<svg width="319" height="320" viewBox="0 0 319 320" fill="none" xmlns="http://www.w3.org/2000/svg">
<rect width="318.681" height="318.681" transform="translate(0 0.349609)" fill="#FFFF00"/>
<path d="M25.494 172.762V181.077H26.8464L26.7259 184.25H25.6279V182.135H18.3438V184.25H17.2458L17.1387 181.077H17.9822C19.1695 179.595 19.7631 177.466 19.7631 174.69V172.762H25.494ZM24.2353 181.077V173.82H21.0218V174.985C21.0218 176.315 20.9102 177.444 20.687 178.372C20.4549 179.336 20.0532 180.238 19.4819 181.077H24.2353ZM28.8854 177.341H27.7607C27.7607 176.806 27.9392 176.315 28.2963 175.868C28.7247 175.333 29.5103 175.065 30.6529 175.065C31.3224 175.065 31.9115 175.199 32.4204 175.467C32.7149 175.609 32.947 175.846 33.1166 176.176C33.2863 176.507 33.3666 176.899 33.3577 177.355L33.2907 180.501C33.2907 180.76 33.3175 180.961 33.3711 181.104C33.4514 181.247 33.6612 181.314 34.0004 181.305V182.135C33.8665 182.17 33.6879 182.188 33.4648 182.188C33.072 182.188 32.7864 182.121 32.6078 181.987C32.4382 181.854 32.3177 181.59 32.2463 181.197C31.8089 182.001 31.0323 182.403 29.9164 182.403C29.1488 182.403 28.5551 182.233 28.1356 181.894C27.725 181.546 27.5196 181.032 27.5196 180.354C27.5196 179.711 27.7517 179.225 28.2159 178.894C28.6801 178.546 29.5594 178.314 30.8537 178.198C31.4518 178.153 31.8089 178.095 31.9249 178.024C32.0945 177.908 32.1793 177.654 32.1793 177.261C32.1793 176.35 31.6705 175.895 30.6529 175.895C29.4478 175.895 28.8586 176.377 28.8854 177.341ZM32.1526 179.229L32.1793 178.653C32.0454 178.752 31.8491 178.832 31.5902 178.894C31.1974 178.921 30.8939 178.952 30.6797 178.988C29.9388 179.113 29.488 179.216 29.3273 179.296C28.9345 179.484 28.7381 179.823 28.7381 180.314C28.7381 180.707 28.8542 181.014 29.0863 181.238C29.3273 181.461 29.6486 181.572 30.0503 181.572C30.3092 181.572 30.5458 181.537 30.76 181.465C30.9832 181.394 31.1974 181.278 31.4027 181.117C31.617 180.948 31.7866 180.702 31.9115 180.381C32.0454 180.059 32.1258 179.675 32.1526 179.229ZM39.9286 178.961H36.5677V182.135H35.3894V175.333H36.5677V178.131H39.9286V175.333H41.1069V182.135H39.9286V178.961ZM47.5781 178.961H44.2172V182.135H43.0389V175.333H44.2172V178.131H47.5781V175.333H48.7564V182.135H47.5781V178.961ZM50.6884 182.135V175.333H51.8668V178.024H53.5807C54.1252 178.024 54.5805 178.078 54.9464 178.185C55.8213 178.408 56.2765 179.046 56.3122 180.099C56.3122 180.724 56.1203 181.22 55.7365 181.586C55.3615 181.952 54.7768 182.135 53.9824 182.135H50.6884ZM53.2995 178.854H51.8668V181.305H53.5137C54.5671 181.305 55.0937 180.876 55.0937 180.019C55.0937 179.6 54.9554 179.296 54.6786 179.109C54.5894 179.037 54.4421 178.979 54.2368 178.935C54.0225 178.881 53.7101 178.854 53.2995 178.854ZM57.1424 182.135V175.333H58.3207V182.135H57.1424ZM61.4254 175.333V180.756L64.9737 175.333H66.2859V182.135H65.1076V176.698L61.5727 182.135H60.2471V175.333H61.4254ZM64.5319 172.762H65.5361C65.3487 173.744 64.7595 174.319 63.7686 174.489C63.599 174.516 63.4205 174.529 63.233 174.529C62.0815 174.529 61.3451 174.061 61.0237 173.123C60.9969 173.061 60.9657 172.94 60.93 172.762H61.9342C61.9074 172.994 61.9878 173.213 62.1752 173.418C62.3091 173.561 62.4653 173.668 62.6439 173.739C62.8046 173.793 63.0009 173.82 63.233 173.82C63.6169 173.82 63.9338 173.726 64.1837 173.538C64.4337 173.342 64.5497 173.083 64.5319 172.762ZM71.3356 182.135V175.333H74.576C76.0132 175.333 76.7318 175.873 76.7318 176.953C76.7318 177.729 76.3212 178.261 75.4999 178.546V178.586C76.0534 178.72 76.4372 178.935 76.6514 179.229C76.8746 179.524 76.9862 179.903 76.9862 180.367C76.9862 181.108 76.7139 181.599 76.1694 181.84C75.7231 182.037 75.1785 182.135 74.5358 182.135H71.3356ZM74.2011 176.163H72.5139V178.171H74.1475C74.6206 178.171 74.9688 178.078 75.1919 177.89C75.424 177.694 75.5401 177.439 75.5401 177.127C75.5401 176.484 75.0937 176.163 74.2011 176.163ZM74.2011 179.002H72.5139V181.305H74.2413C75.2589 181.305 75.7677 180.956 75.7677 180.26C75.7677 179.421 75.2455 179.002 74.2011 179.002ZM79.732 175.333V180.756L83.2803 175.333H84.5925V182.135H83.4142V176.698L79.8793 182.135H78.5536V175.333H79.732ZM85.6601 183.902L85.5529 181.305H86.4099C87.1508 180.216 87.5213 178.604 87.5213 176.471V175.333H92.3952V181.305H93.5735L93.4798 183.902H92.4889V182.135H86.6509V183.902H85.6601ZM91.2169 181.305V176.163H88.6192V177.114C88.6192 177.837 88.5389 178.586 88.3782 179.363C88.2354 180.131 87.9944 180.778 87.6552 181.305H91.2169ZM102.33 176.163H98.8885V182.135H97.7102V175.333H103.508V182.135H102.33V176.163ZM104.648 182.135V181.264C105.318 181.461 105.791 181.144 106.067 180.314C106.139 180.108 106.188 179.854 106.215 179.551L106.268 178.734C106.277 178.591 106.282 178.31 106.282 177.89V175.333H110.995V182.135H109.817V176.163H107.38V177.89C107.38 178.453 107.366 178.926 107.34 179.309C107.313 179.684 107.246 180.095 107.139 180.541C106.987 181.175 106.715 181.626 106.322 181.894C105.929 182.162 105.371 182.242 104.648 182.135ZM113.815 177.341H112.69C112.69 176.806 112.869 176.315 113.226 175.868C113.654 175.333 114.44 175.065 115.582 175.065C116.252 175.065 116.841 175.199 117.35 175.467C117.644 175.609 117.876 175.846 118.046 176.176C118.216 176.507 118.296 176.899 118.287 177.355L118.22 180.501C118.22 180.76 118.247 180.961 118.3 181.104C118.381 181.247 118.591 181.314 118.93 181.305V182.135C118.796 182.17 118.617 182.188 118.394 182.188C118.001 182.188 117.716 182.121 117.537 181.987C117.368 181.854 117.247 181.59 117.176 181.197C116.738 182.001 115.962 182.403 114.846 182.403C114.078 182.403 113.485 182.233 113.065 181.894C112.654 181.546 112.449 181.032 112.449 180.354C112.449 179.711 112.681 179.225 113.145 178.894C113.61 178.546 114.489 178.314 115.783 178.198C116.381 178.153 116.738 178.095 116.854 178.024C117.024 177.908 117.109 177.654 117.109 177.261C117.109 176.35 116.6 175.895 115.582 175.895C114.377 175.895 113.788 176.377 113.815 177.341ZM117.082 179.229L117.109 178.653C116.975 178.752 116.778 178.832 116.52 178.894C116.127 178.921 115.823 178.952 115.609 178.988C114.868 179.113 114.417 179.216 114.257 179.296C113.864 179.484 113.668 179.823 113.668 180.314C113.668 180.707 113.784 181.014 114.016 181.238C114.257 181.461 114.578 181.572 114.98 181.572C115.239 181.572 115.475 181.537 115.689 181.465C115.913 181.394 116.127 181.278 116.332 181.117C116.546 180.948 116.716 180.702 116.841 180.381C116.975 180.059 117.055 179.675 117.082 179.229ZM125.086 179.711H126.21C126.175 180.229 125.978 180.773 125.621 181.345C125.425 181.666 125.117 181.925 124.697 182.121C124.287 182.309 123.805 182.403 123.251 182.403C123.064 182.403 122.93 182.398 122.849 182.389C122.457 182.371 122.055 182.269 121.644 182.081C120.502 181.51 119.93 180.376 119.93 178.68C119.93 177.787 120.136 176.993 120.546 176.297C121.055 175.475 121.93 175.065 123.171 175.065C124.046 175.065 124.742 175.288 125.26 175.734C125.777 176.172 126.076 176.748 126.157 177.462H125.032C124.854 176.417 124.242 175.895 123.198 175.895C122.519 175.895 122.01 176.145 121.671 176.645C121.341 177.136 121.176 177.814 121.176 178.68C121.176 179.519 121.35 180.211 121.698 180.756C122.046 181.3 122.573 181.572 123.278 181.572C123.885 181.572 124.327 181.38 124.604 180.997C124.898 180.613 125.059 180.184 125.086 179.711ZM128.986 182.135V176.163H126.629V175.333H132.521V176.163H130.164V182.135H128.986ZM134.599 175.333V180.756L138.148 175.333H139.46V182.135H138.282V176.698L134.747 182.135H133.421V175.333H134.599ZM142.563 175.333V178.305L145.468 175.333H146.848L143.661 178.493L147.022 182.135H145.616L142.563 178.734V182.135H141.384V175.333H142.563ZM148.833 177.341H147.708C147.708 176.806 147.886 176.315 148.244 175.868C148.672 175.333 149.458 175.065 150.6 175.065C151.27 175.065 151.859 175.199 152.368 175.467C152.662 175.609 152.894 175.846 153.064 176.176C153.233 176.507 153.314 176.899 153.305 177.355L153.238 180.501C153.238 180.76 153.265 180.961 153.318 181.104C153.399 181.247 153.608 181.314 153.948 181.305V182.135C153.814 182.17 153.635 182.188 153.412 182.188C153.019 182.188 152.734 182.121 152.555 181.987C152.385 181.854 152.265 181.59 152.194 181.197C151.756 182.001 150.98 182.403 149.864 182.403C149.096 182.403 148.502 182.233 148.083 181.894C147.672 181.546 147.467 181.032 147.467 180.354C147.467 179.711 147.699 179.225 148.163 178.894C148.627 178.546 149.507 178.314 150.801 178.198C151.399 178.153 151.756 178.095 151.872 178.024C152.042 177.908 152.127 177.654 152.127 177.261C152.127 176.35 151.618 175.895 150.6 175.895C149.395 175.895 148.806 176.377 148.833 177.341ZM152.1 179.229L152.127 178.653C151.993 178.752 151.796 178.832 151.537 178.894C151.145 178.921 150.841 178.952 150.627 178.988C149.886 179.113 149.435 179.216 149.275 179.296C148.882 179.484 148.685 179.823 148.685 180.314C148.685 180.707 148.801 181.014 149.034 181.238C149.275 181.461 149.596 181.572 149.998 181.572C150.256 181.572 150.493 181.537 150.707 181.465C150.93 181.394 151.145 181.278 151.35 181.117C151.564 180.948 151.734 180.702 151.859 180.381C151.993 180.059 152.073 179.675 152.1 179.229ZM159.64 175.333V180.756L163.188 175.333H164.501V182.135H163.322V176.698L159.787 182.135H158.462V175.333H159.64ZM171.192 179.711H172.317C172.281 180.229 172.085 180.773 171.728 181.345C171.531 181.666 171.223 181.925 170.804 182.121C170.393 182.309 169.911 182.403 169.358 182.403C169.17 182.403 169.036 182.398 168.956 182.389C168.563 182.371 168.161 182.269 167.751 182.081C166.608 181.51 166.037 180.376 166.037 178.68C166.037 177.787 166.242 176.993 166.653 176.297C167.162 175.475 168.036 175.065 169.277 175.065C170.152 175.065 170.848 175.288 171.366 175.734C171.884 176.172 172.183 176.748 172.263 177.462H171.138C170.96 176.417 170.348 175.895 169.304 175.895C168.626 175.895 168.117 176.145 167.778 176.645C167.447 177.136 167.282 177.814 167.282 178.68C167.282 179.519 167.456 180.211 167.804 180.756C168.152 181.3 168.679 181.572 169.384 181.572C169.991 181.572 170.433 181.38 170.71 180.997C171.005 180.613 171.165 180.184 171.192 179.711ZM178.38 176.163H174.939V182.135H173.761V175.333H179.559V182.135H178.38V176.163ZM181.275 180.073C181.043 179.118 181.051 178.194 181.301 177.301C181.551 176.408 182.078 175.77 182.881 175.386C183.328 175.172 183.85 175.065 184.448 175.065C185.046 175.065 185.568 175.172 186.015 175.386C186.818 175.761 187.349 176.431 187.608 177.395C187.724 177.841 187.782 178.292 187.782 178.747C187.791 179.193 187.738 179.635 187.621 180.073C187.514 180.501 187.322 180.894 187.046 181.251C186.778 181.608 186.434 181.889 186.015 182.095C185.559 182.3 185.037 182.403 184.448 182.403C183.859 182.403 183.337 182.3 182.881 182.095C182.105 181.72 181.569 181.046 181.275 180.073ZM182.52 177.381C182.404 177.738 182.346 178.185 182.346 178.72C182.346 179.247 182.404 179.698 182.52 180.073C182.636 180.448 182.77 180.729 182.922 180.916C183.243 181.273 183.609 181.483 184.02 181.546C184.305 181.59 184.591 181.59 184.877 181.546C185.002 181.537 185.176 181.474 185.399 181.358C185.64 181.233 185.836 181.077 185.988 180.89C186.14 180.702 186.269 180.43 186.376 180.073C186.492 179.698 186.55 179.247 186.55 178.72C186.55 178.185 186.492 177.738 186.376 177.381C186.251 176.989 186.113 176.707 185.961 176.538C185.818 176.368 185.64 176.225 185.426 176.109C185.211 175.993 185.028 175.922 184.877 175.895C184.591 175.85 184.305 175.85 184.02 175.895C183.895 175.904 183.716 175.971 183.484 176.096C183.029 176.319 182.707 176.748 182.52 177.381ZM188.545 182.135V181.264C189.214 181.461 189.687 181.144 189.964 180.314C190.035 180.108 190.084 179.854 190.111 179.551L190.165 178.734C190.174 178.591 190.178 178.31 190.178 177.89V175.333H194.891V182.135H193.713V176.163H191.276V177.89C191.276 178.453 191.263 178.926 191.236 179.309C191.209 179.684 191.142 180.095 191.035 180.541C190.883 181.175 190.611 181.626 190.218 181.894C189.826 182.162 189.268 182.242 188.545 182.135ZM196.814 182.135V175.333H197.992V178.037H199.693C200.362 178.037 200.938 178.136 201.42 178.332C202.09 178.573 202.424 179.135 202.424 180.019C202.424 180.751 202.21 181.296 201.782 181.653C201.603 181.796 201.393 181.903 201.152 181.974C200.831 182.081 200.478 182.135 200.095 182.135H196.814ZM199.425 178.868H197.992V181.305H199.626C200.179 181.305 200.586 181.193 200.844 180.97C201.103 180.711 201.224 180.394 201.206 180.019C201.206 179.609 201.072 179.305 200.804 179.109C200.715 179.046 200.572 178.993 200.376 178.948C200.162 178.894 199.88 178.868 199.532 178.868H199.425ZM203.078 180.046H204.203C204.203 180.492 204.363 180.858 204.685 181.144C205.006 181.43 205.448 181.572 206.01 181.572C206.564 181.572 206.997 181.461 207.309 181.238C207.622 181.006 207.778 180.671 207.778 180.233C207.778 179.421 207.265 179.015 206.238 179.015H205.234V178.185H206.104C207.05 178.185 207.524 177.832 207.524 177.127C207.524 177.011 207.506 176.895 207.47 176.779C207.443 176.663 207.381 176.533 207.283 176.39C207.193 176.239 207.037 176.118 206.814 176.029C206.591 175.94 206.314 175.895 205.984 175.895C205.395 175.895 204.979 176.033 204.738 176.31C204.497 176.587 204.377 176.886 204.377 177.207H203.252C203.279 176.743 203.399 176.355 203.614 176.042C203.828 175.73 204.105 175.507 204.444 175.373C204.997 175.168 205.533 175.065 206.051 175.065C206.506 175.065 206.908 175.118 207.256 175.226C207.604 175.324 207.867 175.444 208.046 175.587C208.233 175.73 208.38 175.9 208.488 176.096C208.604 176.292 208.675 176.466 208.702 176.618C208.729 176.761 208.742 176.904 208.742 177.047C208.742 177.841 208.349 178.336 207.564 178.533V178.573C207.983 178.636 208.327 178.819 208.595 179.122C208.863 179.426 208.996 179.823 208.996 180.314C208.996 180.814 208.818 181.269 208.461 181.68C208.023 182.162 207.238 182.403 206.104 182.403C205.149 182.403 204.422 182.202 203.922 181.8C203.359 181.309 203.078 180.724 203.078 180.046ZM210.615 184.599V183.728C210.955 183.773 211.151 183.795 211.205 183.795C211.544 183.795 211.785 183.67 211.928 183.42C212.017 183.286 212.075 183.175 212.102 183.085C212.128 183.041 212.186 182.894 212.276 182.644L212.436 182.135L209.491 175.333H210.897L213.079 180.836L214.887 175.333H216.065L213.36 182.938C213.146 183.545 212.963 183.942 212.811 184.13C212.508 184.487 212.097 184.665 211.579 184.665C211.178 184.665 210.856 184.643 210.615 184.599ZM221.93 180.166H223.055C222.948 180.765 222.658 181.287 222.185 181.733C221.712 182.179 221.011 182.403 220.083 182.403C218.824 182.403 217.9 181.987 217.311 181.157C217.016 180.72 216.824 180.251 216.735 179.751C216.673 179.403 216.641 179.073 216.641 178.76C216.641 178.162 216.731 177.6 216.909 177.073C217.025 176.698 217.195 176.373 217.418 176.096C217.659 175.801 218.003 175.556 218.449 175.359C218.895 175.163 219.4 175.065 219.962 175.065C220.962 175.065 221.716 175.342 222.225 175.895C222.439 176.127 222.613 176.422 222.747 176.779C222.944 177.297 223.064 177.926 223.109 178.667C223.109 178.694 223.109 178.752 223.109 178.841C223.118 178.93 223.122 178.984 223.122 179.002H217.887C217.887 179.68 218.065 180.278 218.422 180.796C218.779 181.314 219.319 181.572 220.043 181.572C220.56 181.572 220.984 181.443 221.315 181.184C221.645 180.925 221.85 180.586 221.93 180.166ZM217.887 178.171H221.877C221.868 177.645 221.743 177.158 221.502 176.712C221.225 176.167 220.721 175.895 219.989 175.895C219.159 175.895 218.587 176.172 218.275 176.725C218.016 177.172 217.887 177.654 217.887 178.171ZM226.233 182.135V176.163H223.876V175.333H229.768V176.163H227.411V182.135H226.233ZM235.33 179.711H236.455C236.419 180.229 236.223 180.773 235.866 181.345C235.67 181.666 235.362 181.925 234.942 182.121C234.531 182.309 234.049 182.403 233.496 182.403C233.308 182.403 233.175 182.398 233.094 182.389C232.701 182.371 232.3 182.269 231.889 182.081C230.747 181.51 230.175 180.376 230.175 178.68C230.175 177.787 230.381 176.993 230.791 176.297C231.3 175.475 232.175 175.065 233.416 175.065C234.29 175.065 234.987 175.288 235.504 175.734C236.022 176.172 236.321 176.748 236.402 177.462H235.277C235.098 176.417 234.487 175.895 233.442 175.895C232.764 175.895 232.255 176.145 231.916 176.645C231.586 177.136 231.421 177.814 231.421 178.68C231.421 179.519 231.595 180.211 231.943 180.756C232.291 181.3 232.818 181.572 233.523 181.572C234.13 181.572 234.572 181.38 234.848 180.997C235.143 180.613 235.304 180.184 235.33 179.711ZM242.064 179.457H240.51L238.729 182.135H237.431L239.305 179.443C238.787 179.39 238.368 179.189 238.047 178.841C237.725 178.493 237.565 178.037 237.565 177.475C237.565 176.948 237.703 176.489 237.98 176.096C238.31 175.587 238.935 175.333 239.854 175.333H243.242V182.135H242.064V179.457ZM242.064 178.627V176.163H240.363C239.31 176.163 238.783 176.587 238.783 177.435C238.783 177.783 238.912 178.069 239.171 178.292C239.43 178.515 239.841 178.627 240.403 178.627H242.064ZM17.2458 198.902L17.1387 196.305H17.9956C18.7365 195.216 19.107 193.604 19.107 191.471V190.333H23.9809V196.305H25.1593L25.0655 198.902H24.0747V197.135H18.2366V198.902H17.2458ZM22.8026 196.305V191.163H20.205V192.114C20.205 192.837 20.1246 193.586 19.964 194.363C19.8211 195.131 19.5801 195.778 19.2409 196.305H22.8026ZM25.7207 197.135V196.264C26.3902 196.461 26.8633 196.144 27.14 195.314C27.2114 195.108 27.2605 194.854 27.2873 194.551L27.3409 193.734C27.3498 193.591 27.3543 193.31 27.3543 192.89V190.333H32.0675V197.135H30.8892V191.163H28.4522V192.89C28.4522 193.453 28.4388 193.926 28.4121 194.309C28.3853 194.684 28.3183 195.095 28.2112 195.541C28.0595 196.175 27.7872 196.626 27.3944 196.894C27.0017 197.162 26.4437 197.242 25.7207 197.135ZM38.1545 194.457H36.6013L34.8204 197.135H33.5216L35.3962 194.443C34.8784 194.39 34.4589 194.189 34.1375 193.841C33.8162 193.493 33.6555 193.037 33.6555 192.475C33.6555 191.948 33.7938 191.489 34.0706 191.096C34.4009 190.587 35.0257 190.333 35.9452 190.333H39.3328V197.135H38.1545V194.457ZM38.1545 193.627V191.163H36.454C35.4006 191.163 34.874 191.587 34.874 192.435C34.874 192.783 35.0034 193.069 35.2623 193.292C35.5212 193.515 35.9318 193.627 36.4942 193.627H38.1545ZM45.5641 190.333V195.756L49.1124 190.333H50.4246V197.135H49.2463V191.698L45.7114 197.135H44.3857V190.333H45.5641ZM51.8135 195.046H52.9383C52.9383 195.492 53.0989 195.858 53.4203 196.144C53.7417 196.43 54.1835 196.572 54.7459 196.572C55.2994 196.572 55.7323 196.461 56.0447 196.238C56.3572 196.006 56.5134 195.671 56.5134 195.233C56.5134 194.421 56.0001 194.015 54.9735 194.015H53.9693V193.185H54.8396C55.7859 193.185 56.259 192.832 56.259 192.127C56.259 192.011 56.2411 191.895 56.2054 191.779C56.1786 191.663 56.1161 191.533 56.018 191.39C55.9287 191.239 55.7725 191.118 55.5493 191.029C55.3261 190.94 55.0494 190.895 54.7191 190.895C54.13 190.895 53.7149 191.033 53.4739 191.31C53.2328 191.587 53.1123 191.886 53.1123 192.207H51.9876C52.0144 191.743 52.1349 191.355 52.3491 191.042C52.5633 190.73 52.8401 190.507 53.1793 190.373C53.7327 190.168 54.2683 190.065 54.7861 190.065C55.2413 190.065 55.643 190.118 55.9912 190.226C56.3393 190.324 56.6026 190.444 56.7812 190.587C56.9686 190.73 57.1159 190.9 57.223 191.096C57.3391 191.292 57.4105 191.466 57.4373 191.618C57.4641 191.761 57.4775 191.904 57.4775 192.047C57.4775 192.841 57.0847 193.336 56.2991 193.533V193.573C56.7187 193.636 57.0624 193.819 57.3302 194.122C57.598 194.426 57.7319 194.823 57.7319 195.314C57.7319 195.814 57.5533 196.269 57.1963 196.68C56.7589 197.162 55.9733 197.403 54.8396 197.403C53.8845 197.403 53.157 197.202 52.6571 196.8C52.0947 196.309 51.8135 195.724 51.8135 195.046ZM63.9261 191.163H60.4447V197.135H59.2664V190.333H63.9261V191.163ZM64.5049 195.073C64.2728 194.118 64.2817 193.194 64.5317 192.301C64.7816 191.408 65.3083 190.77 66.1117 190.386C66.558 190.172 67.0802 190.065 67.6783 190.065C68.2764 190.065 68.7986 190.172 69.2449 190.386C70.0483 190.761 70.5794 191.431 70.8383 192.395C70.9544 192.841 71.0124 193.292 71.0124 193.747C71.0213 194.193 70.9678 194.635 70.8517 195.073C70.7446 195.501 70.5527 195.894 70.2759 196.251C70.0081 196.608 69.6645 196.889 69.2449 197.095C68.7897 197.3 68.2675 197.403 67.6783 197.403C67.0891 197.403 66.5669 197.3 66.1117 197.095C65.3351 196.72 64.7995 196.046 64.5049 195.073ZM65.7501 192.381C65.6341 192.738 65.5761 193.185 65.5761 193.72C65.5761 194.247 65.6341 194.698 65.7501 195.073C65.8662 195.448 66.0001 195.729 66.1518 195.916C66.4732 196.273 66.8392 196.483 67.2498 196.546C67.5355 196.59 67.8211 196.59 68.1068 196.546C68.2317 196.537 68.4058 196.474 68.629 196.358C68.87 196.233 69.0664 196.077 69.2181 195.89C69.3699 195.702 69.4993 195.43 69.6064 195.073C69.7225 194.698 69.7805 194.247 69.7805 193.72C69.7805 193.185 69.7225 192.738 69.6064 192.381C69.4815 191.989 69.3431 191.707 69.1914 191.538C69.0485 191.368 68.87 191.225 68.6558 191.109C68.4415 190.993 68.2585 190.922 68.1068 190.895C67.8211 190.85 67.5355 190.85 67.2498 190.895C67.1248 190.904 66.9463 190.971 66.7142 191.096C66.259 191.319 65.9376 191.748 65.7501 192.381ZM73.713 197.135V191.163H71.3563V190.333H77.2479V191.163H74.8913V197.135H73.713ZM77.921 195.073C77.6889 194.118 77.6978 193.194 77.9478 192.301C78.1977 191.408 78.7244 190.77 79.5278 190.386C79.9741 190.172 80.4963 190.065 81.0944 190.065C81.6925 190.065 82.2147 190.172 82.661 190.386C83.4644 190.761 83.9955 191.431 84.2544 192.395C84.3705 192.841 84.4285 193.292 84.4285 193.747C84.4374 194.193 84.3839 194.635 84.2678 195.073C84.1607 195.501 83.9688 195.894 83.692 196.251C83.4242 196.608 83.0806 196.889 82.661 197.095C82.2058 197.3 81.6836 197.403 81.0944 197.403C80.5052 197.403 79.983 197.3 79.5278 197.095C78.7512 196.72 78.2156 196.046 77.921 195.073ZM79.1662 192.381C79.0502 192.738 78.9922 193.185 78.9922 193.72C78.9922 194.247 79.0502 194.698 79.1662 195.073C79.2823 195.448 79.4162 195.729 79.5679 195.916C79.8893 196.273 80.2553 196.483 80.6659 196.546C80.9516 196.59 81.2372 196.59 81.5229 196.546C81.6478 196.537 81.8219 196.474 82.0451 196.358C82.2861 196.233 82.4825 196.077 82.6342 195.89C82.786 195.702 82.9154 195.43 83.0225 195.073C83.1386 194.698 83.1966 194.247 83.1966 193.72C83.1966 193.185 83.1386 192.738 83.0225 192.381C82.8976 191.989 82.7592 191.707 82.6075 191.538C82.4646 191.368 82.2861 191.225 82.0719 191.109C81.8576 190.993 81.6746 190.922 81.5229 190.895C81.2372 190.85 80.9516 190.85 80.6659 190.895C80.5409 190.904 80.3624 190.971 80.1303 191.096C79.6751 191.319 79.3537 191.748 79.1662 192.381ZM85.9809 197.135V190.333H89.2213C90.6584 190.333 91.377 190.873 91.377 191.953C91.377 192.729 90.9664 193.261 90.1452 193.546V193.586C90.6986 193.72 91.0825 193.935 91.2967 194.229C91.5199 194.524 91.6314 194.903 91.6314 195.367C91.6314 196.108 91.3592 196.599 90.8147 196.84C90.3683 197.037 89.8238 197.135 89.1811 197.135H85.9809ZM88.8463 191.163H87.1592V193.171H88.7928C89.2659 193.171 89.614 193.078 89.8372 192.89C90.0693 192.694 90.1853 192.439 90.1853 192.127C90.1853 191.484 89.739 191.163 88.8463 191.163ZM88.8463 194.002H87.1592V196.305H88.8865C89.9041 196.305 90.413 195.956 90.413 195.26C90.413 194.421 89.8908 194.002 88.8463 194.002ZM92.4089 197.135V196.264C93.0784 196.461 93.5515 196.144 93.8282 195.314C93.8996 195.108 93.9487 194.854 93.9755 194.551L94.0291 193.734C94.038 193.591 94.0425 193.31 94.0425 192.89V190.333H98.7557V197.135H97.5774V191.163H95.1405V192.89C95.1405 193.453 95.1271 193.926 95.1003 194.309C95.0735 194.684 95.0066 195.095 94.8994 195.541C94.7477 196.175 94.4754 196.626 94.0826 196.894C93.6899 197.162 93.132 197.242 92.4089 197.135ZM105.579 195.166H106.704C106.597 195.765 106.307 196.287 105.834 196.733C105.36 197.179 104.66 197.403 103.731 197.403C102.473 197.403 101.549 196.987 100.96 196.157C100.665 195.72 100.473 195.251 100.384 194.751C100.321 194.403 100.29 194.073 100.29 193.76C100.29 193.162 100.379 192.6 100.558 192.073C100.674 191.698 100.844 191.373 101.067 191.096C101.308 190.801 101.651 190.556 102.098 190.359C102.544 190.163 103.048 190.065 103.611 190.065C104.611 190.065 105.365 190.342 105.874 190.895C106.088 191.127 106.262 191.422 106.396 191.779C106.592 192.297 106.713 192.926 106.757 193.667C106.757 193.694 106.757 193.752 106.757 193.841C106.766 193.93 106.771 193.984 106.771 194.002H101.535C101.535 194.68 101.714 195.278 102.071 195.796C102.428 196.314 102.968 196.572 103.691 196.572C104.209 196.572 104.633 196.443 104.963 196.184C105.294 195.925 105.499 195.586 105.579 195.166ZM101.535 193.171H105.526C105.517 192.645 105.392 192.158 105.151 191.712C104.874 191.167 104.37 190.895 103.638 190.895C102.807 190.895 102.236 191.172 101.924 191.725C101.665 192.172 101.535 192.654 101.535 193.171ZM112.854 193.961H109.493V197.135H108.315V190.333H109.493V193.131H112.854V190.333H114.032V197.135H112.854V193.961ZM117.143 190.333V195.756L120.691 190.333H122.003V197.135H120.825V191.698L117.29 197.135H115.964V190.333H117.143ZM128.092 194.457H126.539L124.758 197.135H123.459L125.334 194.443C124.816 194.39 124.396 194.189 124.075 193.841C123.754 193.493 123.593 193.037 123.593 192.475C123.593 191.948 123.731 191.489 124.008 191.096C124.338 190.587 124.963 190.333 125.883 190.333H129.27V197.135H128.092V194.457ZM128.092 193.627V191.163H126.392C125.338 191.163 124.812 191.587 124.812 192.435C124.812 192.783 124.941 193.069 125.2 193.292C125.459 193.515 125.869 193.627 126.432 193.627H128.092ZM139.09 194.711H140.215C140.179 195.229 139.983 195.773 139.626 196.345C139.429 196.666 139.121 196.925 138.702 197.121C138.291 197.309 137.809 197.403 137.256 197.403C137.068 197.403 136.934 197.398 136.854 197.389C136.461 197.371 136.06 197.269 135.649 197.081C134.506 196.51 133.935 195.376 133.935 193.68C133.935 192.787 134.14 191.993 134.551 191.297C135.06 190.475 135.935 190.065 137.175 190.065C138.05 190.065 138.746 190.288 139.264 190.734C139.782 191.172 140.081 191.748 140.161 192.462H139.037C138.858 191.417 138.247 190.895 137.202 190.895C136.524 190.895 136.015 191.145 135.676 191.645C135.345 192.136 135.18 192.814 135.18 193.68C135.18 194.519 135.354 195.211 135.702 195.756C136.051 196.3 136.577 196.572 137.282 196.572C137.889 196.572 138.331 196.38 138.608 195.997C138.903 195.613 139.063 195.184 139.09 194.711ZM142.99 197.135V191.163H140.634V190.333H146.525V191.163H144.169V197.135H142.99ZM148.218 192.341H147.093C147.093 191.806 147.272 191.315 147.629 190.868C148.057 190.333 148.843 190.065 149.986 190.065C150.655 190.065 151.244 190.199 151.753 190.467C152.048 190.609 152.28 190.846 152.449 191.176C152.619 191.507 152.699 191.899 152.69 192.355L152.623 195.501C152.623 195.76 152.65 195.961 152.704 196.104C152.784 196.247 152.994 196.314 153.333 196.305V197.135C153.199 197.17 153.021 197.188 152.797 197.188C152.405 197.188 152.119 197.121 151.94 196.987C151.771 196.854 151.65 196.59 151.579 196.197C151.142 197.001 150.365 197.403 149.249 197.403C148.481 197.403 147.888 197.233 147.468 196.894C147.058 196.546 146.852 196.032 146.852 195.354C146.852 194.711 147.084 194.225 147.549 193.894C148.013 193.546 148.892 193.314 150.186 193.198C150.784 193.153 151.142 193.095 151.258 193.024C151.427 192.908 151.512 192.654 151.512 192.261C151.512 191.35 151.003 190.895 149.986 190.895C148.78 190.895 148.191 191.377 148.218 192.341ZM151.485 194.229L151.512 193.653C151.378 193.752 151.182 193.832 150.923 193.894C150.53 193.921 150.227 193.952 150.012 193.988C149.271 194.113 148.821 194.216 148.66 194.296C148.267 194.484 148.071 194.823 148.071 195.314C148.071 195.707 148.187 196.014 148.419 196.238C148.66 196.461 148.981 196.572 149.383 196.572C149.642 196.572 149.878 196.537 150.093 196.465C150.316 196.394 150.53 196.278 150.735 196.117C150.95 195.948 151.119 195.702 151.244 195.381C151.378 195.059 151.458 194.675 151.485 194.229ZM155.9 190.333V193.305L158.806 190.333H160.185L156.998 193.493L160.359 197.135H158.953L155.9 193.734V197.135H154.722V190.333H155.9ZM162.17 192.341H161.046C161.046 191.806 161.224 191.315 161.581 190.868C162.01 190.333 162.795 190.065 163.938 190.065C164.607 190.065 165.196 190.199 165.705 190.467C166 190.609 166.232 190.846 166.402 191.176C166.571 191.507 166.651 191.899 166.643 192.355L166.576 195.501C166.576 195.76 166.602 195.961 166.656 196.104C166.736 196.247 166.946 196.314 167.285 196.305V197.135C167.151 197.17 166.973 197.188 166.75 197.188C166.357 197.188 166.071 197.121 165.893 196.987C165.723 196.854 165.603 196.59 165.531 196.197C165.094 197.001 164.317 197.403 163.201 197.403C162.434 197.403 161.84 197.233 161.42 196.894C161.01 196.546 160.805 196.032 160.805 195.354C160.805 194.711 161.037 194.225 161.501 193.894C161.965 193.546 162.844 193.314 164.139 193.198C164.737 193.153 165.094 193.095 165.21 193.024C165.379 192.908 165.464 192.654 165.464 192.261C165.464 191.35 164.955 190.895 163.938 190.895C162.733 190.895 162.144 191.377 162.17 192.341ZM165.437 194.229L165.464 193.653C165.33 193.752 165.134 193.832 164.875 193.894C164.482 193.921 164.179 193.952 163.965 193.988C163.224 194.113 162.773 194.216 162.612 194.296C162.219 194.484 162.023 194.823 162.023 195.314C162.023 195.707 162.139 196.014 162.371 196.238C162.612 196.461 162.934 196.572 163.335 196.572C163.594 196.572 163.831 196.537 164.045 196.465C164.268 196.394 164.482 196.278 164.688 196.117C164.902 195.948 165.071 195.702 165.196 195.381C165.33 195.059 165.411 194.675 165.437 194.229ZM173.213 193.961H169.853V197.135H168.674V190.333H169.853V193.131H173.213V190.333H174.392V197.135H173.213V193.961ZM175.962 192.609V190.333H177.141V192.422C177.141 192.787 177.203 193.06 177.328 193.238C177.48 193.435 177.931 193.533 178.68 193.533C178.752 193.533 179.011 193.524 179.457 193.506C179.502 193.497 179.595 193.493 179.738 193.493H180.019V190.333H181.198V197.135H180.019V194.323C179.627 194.35 179.1 194.363 178.439 194.363C177.297 194.363 176.578 194.185 176.284 193.827C176.15 193.649 176.06 193.479 176.016 193.319C175.98 193.158 175.962 192.921 175.962 192.609ZM184.302 190.333V195.756L187.85 190.333H189.162V197.135H187.984V191.698L184.449 197.135H183.123V190.333H184.302ZM192.265 190.333V193.305L195.171 190.333H196.55L193.363 193.493L196.724 197.135H195.318L192.265 193.734V197.135H191.087V190.333H192.265ZM197.175 195.073C196.943 194.118 196.952 193.194 197.202 192.301C197.452 191.408 197.979 190.77 198.782 190.386C199.228 190.172 199.751 190.065 200.349 190.065C200.947 190.065 201.469 190.172 201.915 190.386C202.719 190.761 203.25 191.431 203.509 192.395C203.625 192.841 203.683 193.292 203.683 193.747C203.692 194.193 203.638 194.635 203.522 195.073C203.415 195.501 203.223 195.894 202.946 196.251C202.678 196.608 202.335 196.889 201.915 197.095C201.46 197.3 200.938 197.403 200.349 197.403C199.759 197.403 199.237 197.3 198.782 197.095C198.005 196.72 197.47 196.046 197.175 195.073ZM198.42 192.381C198.304 192.738 198.246 193.185 198.246 193.72C198.246 194.247 198.304 194.698 198.42 195.073C198.537 195.448 198.67 195.729 198.822 195.916C199.144 196.273 199.51 196.483 199.92 196.546C200.206 196.59 200.491 196.59 200.777 196.546C200.902 196.537 201.076 196.474 201.299 196.358C201.54 196.233 201.737 196.077 201.888 195.89C202.04 195.702 202.17 195.43 202.277 195.073C202.393 194.698 202.451 194.247 202.451 193.72C202.451 193.185 202.393 192.738 202.277 192.381C202.152 191.989 202.013 191.707 201.862 191.538C201.719 191.368 201.54 191.225 201.326 191.109C201.112 190.993 200.929 190.922 200.777 190.895C200.491 190.85 200.206 190.85 199.92 190.895C199.795 190.904 199.617 190.971 199.385 191.096C198.929 191.319 198.608 191.748 198.42 192.381ZM205.235 197.135V190.333H208.475C209.913 190.333 210.631 190.873 210.631 191.953C210.631 192.729 210.221 193.261 209.399 193.546V193.586C209.953 193.72 210.337 193.935 210.551 194.229C210.774 194.524 210.886 194.903 210.886 195.367C210.886 196.108 210.613 196.599 210.069 196.84C209.623 197.037 209.078 197.135 208.435 197.135H205.235ZM208.101 191.163H206.413V193.171H208.047C208.52 193.171 208.868 193.078 209.091 192.89C209.324 192.694 209.44 192.439 209.44 192.127C209.44 191.484 208.993 191.163 208.101 191.163ZM208.101 194.002H206.413V196.305H208.141C209.158 196.305 209.667 195.956 209.667 195.26C209.667 194.421 209.145 194.002 208.101 194.002ZM216.757 190.333V195.756L220.305 190.333H221.617V197.135H220.439V191.698L216.904 197.135H215.578V190.333H216.757ZM223.006 195.046H224.131C224.131 195.492 224.292 195.858 224.613 196.144C224.934 196.43 225.376 196.572 225.938 196.572C226.492 196.572 226.925 196.461 227.237 196.238C227.55 196.006 227.706 195.671 227.706 195.233C227.706 194.421 227.193 194.015 226.166 194.015H225.162V193.185H226.032C226.978 193.185 227.452 192.832 227.452 192.127C227.452 192.011 227.434 191.895 227.398 191.779C227.371 191.663 227.309 191.533 227.211 191.39C227.121 191.239 226.965 191.118 226.742 191.029C226.519 190.94 226.242 190.895 225.912 190.895C225.323 190.895 224.907 191.033 224.666 191.31C224.425 191.587 224.305 191.886 224.305 192.207H223.18C223.207 191.743 223.327 191.355 223.542 191.042C223.756 190.73 224.033 190.507 224.372 190.373C224.925 190.168 225.461 190.065 225.979 190.065C226.434 190.065 226.836 190.118 227.184 190.226C227.532 190.324 227.795 190.444 227.974 190.587C228.161 190.73 228.308 190.9 228.416 191.096C228.532 191.292 228.603 191.466 228.63 191.618C228.657 191.761 228.67 191.904 228.67 192.047C228.67 192.841 228.277 193.336 227.492 193.533V193.573C227.911 193.636 228.255 193.819 228.523 194.122C228.791 194.426 228.924 194.823 228.924 195.314C228.924 195.814 228.746 196.269 228.389 196.68C227.951 197.162 227.166 197.403 226.032 197.403C225.077 197.403 224.35 197.202 223.85 196.8C223.287 196.309 223.006 195.724 223.006 195.046ZM234.088 194.122H230.553V192.984H234.088V194.122ZM240.727 191.163H237.286V197.135H236.108V190.333H241.906V197.135H240.727V191.163ZM243.622 195.073C243.389 194.118 243.398 193.194 243.648 192.301C243.898 191.408 244.425 190.77 245.228 190.386C245.675 190.172 246.197 190.065 246.795 190.065C247.393 190.065 247.915 190.172 248.362 190.386C249.165 190.761 249.696 191.431 249.955 192.395C250.071 192.841 250.129 193.292 250.129 193.747C250.138 194.193 250.084 194.635 249.968 195.073C249.861 195.501 249.669 195.894 249.393 196.251C249.125 196.608 248.781 196.889 248.362 197.095C247.906 197.3 247.384 197.403 246.795 197.403C246.206 197.403 245.684 197.3 245.228 197.095C244.452 196.72 243.916 196.046 243.622 195.073ZM244.867 192.381C244.751 192.738 244.693 193.185 244.693 193.72C244.693 194.247 244.751 194.698 244.867 195.073C244.983 195.448 245.117 195.729 245.269 195.916C245.59 196.273 245.956 196.483 246.367 196.546C246.652 196.59 246.938 196.59 247.223 196.546C247.348 196.537 247.523 196.474 247.746 196.358C247.987 196.233 248.183 196.077 248.335 195.89C248.487 195.702 248.616 195.43 248.723 195.073C248.839 194.698 248.897 194.247 248.897 193.72C248.897 193.185 248.839 192.738 248.723 192.381C248.598 191.989 248.46 191.707 248.308 191.538C248.165 191.368 247.987 191.225 247.772 191.109C247.558 190.993 247.375 190.922 247.223 190.895C246.938 190.85 246.652 190.85 246.367 190.895C246.242 190.904 246.063 190.971 245.831 191.096C245.376 191.319 245.054 191.748 244.867 192.381ZM250.825 198.902L250.717 196.305H251.574C252.315 195.216 252.686 193.604 252.686 191.471V190.333H257.56V196.305H258.738L258.644 198.902H257.653V197.135H251.815V198.902H250.825ZM256.381 196.305V191.163H253.784V192.114C253.784 192.837 253.703 193.586 253.543 194.363C253.4 195.131 253.159 195.778 252.82 196.305H256.381ZM19.2811 205.333V210.756L22.8294 205.333H24.1416V212.135H22.9633V206.698L19.4284 212.135H18.1027V205.333H19.2811ZM22.3875 202.762H23.3918C23.2043 203.744 22.6152 204.319 21.6243 204.489C21.4547 204.516 21.2762 204.529 21.0887 204.529C19.9372 204.529 19.2007 204.061 18.8794 203.123C18.8526 203.061 18.8213 202.94 18.7856 202.762H19.7899C19.7631 202.994 19.8434 203.213 20.0309 203.418C20.1648 203.561 20.321 203.668 20.4995 203.739C20.6602 203.793 20.8566 203.82 21.0887 203.82C21.4726 203.82 21.7894 203.726 22.0394 203.538C22.2893 203.342 22.4054 203.083 22.3875 202.762ZM25.8519 210.073C25.6198 209.118 25.6287 208.194 25.8786 207.301C26.1286 206.408 26.6553 205.77 27.4587 205.386C27.905 205.172 28.4272 205.065 29.0253 205.065C29.6234 205.065 30.1456 205.172 30.5919 205.386C31.3953 205.761 31.9264 206.431 32.1853 207.395C32.3014 207.841 32.3594 208.292 32.3594 208.747C32.3683 209.193 32.3147 209.635 32.1987 210.073C32.0916 210.501 31.8997 210.894 31.6229 211.251C31.3551 211.608 31.0115 211.889 30.5919 212.095C30.1366 212.3 29.6144 212.403 29.0253 212.403C28.4361 212.403 27.9139 212.3 27.4587 212.095C26.682 211.72 26.1464 211.046 25.8519 210.073ZM27.0971 207.381C26.9811 207.738 26.9231 208.185 26.9231 208.72C26.9231 209.247 26.9811 209.698 27.0971 210.073C27.2132 210.448 27.3471 210.729 27.4988 210.916C27.8202 211.273 28.1862 211.483 28.5968 211.546C28.8825 211.59 29.1681 211.59 29.4538 211.546C29.5787 211.537 29.7528 211.474 29.976 211.358C30.217 211.233 30.4134 211.077 30.5651 210.89C30.7169 210.702 30.8463 210.43 30.9534 210.073C31.0695 209.698 31.1275 209.247 31.1275 208.72C31.1275 208.185 31.0695 207.738 30.9534 207.381C30.8285 206.989 30.6901 206.707 30.5383 206.538C30.3955 206.368 30.217 206.225 30.0027 206.109C29.7885 205.993 29.6055 205.922 29.4538 205.895C29.1681 205.85 28.8825 205.85 28.5968 205.895C28.4718 205.904 28.2933 205.971 28.0612 206.096C27.6059 206.319 27.2846 206.748 27.0971 207.381ZM38.5715 206.163H35.0901V212.135H33.9118V205.333H38.5715V206.163ZM39.9589 214.599V213.728C40.2981 213.773 40.4945 213.795 40.5481 213.795C40.8873 213.795 41.1283 213.67 41.2711 213.42C41.3604 213.286 41.4184 213.175 41.4452 213.085C41.472 213.041 41.53 212.894 41.6193 212.644L41.7799 212.135L38.8342 205.333H40.2401L42.4227 210.836L44.2303 205.333H45.4086L42.7038 212.938C42.4896 213.545 42.3066 213.942 42.1549 214.13C41.8514 214.487 41.4407 214.665 40.923 214.665C40.5213 214.665 40.1999 214.643 39.9589 214.599ZM46.3733 214.612V205.333H47.4713V206.27H47.5115C48.0471 205.467 48.7969 205.065 49.761 205.065C50.6447 205.065 51.3767 205.373 51.9569 205.989C52.5372 206.614 52.8273 207.529 52.8273 208.734C52.8273 209.966 52.5327 210.885 51.9435 211.492C51.3633 212.099 50.6447 212.403 49.7878 212.403C49.52 212.403 49.1941 212.345 48.8103 212.228C48.2479 212.059 47.8284 211.702 47.5516 211.157V214.612H46.3733ZM47.4713 208.76C47.4713 209.707 47.6855 210.416 48.114 210.89C48.5603 211.345 49.0468 211.572 49.5735 211.572C50.127 211.572 50.6001 211.349 50.9929 210.903C51.3856 210.439 51.582 209.716 51.582 208.734C51.582 207.841 51.399 207.145 51.033 206.645C50.676 206.145 50.1671 205.895 49.5066 205.895C49.1584 205.895 48.8326 205.989 48.5291 206.176C47.8239 206.596 47.4713 207.457 47.4713 208.76ZM55.7595 212.135V206.163H53.4028V205.333H59.2944V206.163H56.9378V212.135H55.7595ZM60.9873 207.341H59.8625C59.8625 206.806 60.0411 206.315 60.3981 205.868C60.8266 205.333 61.6122 205.065 62.7548 205.065C63.4243 205.065 64.0134 205.199 64.5222 205.467C64.8168 205.609 65.0489 205.846 65.2185 206.176C65.3881 206.507 65.4685 206.899 65.4595 207.355L65.3926 210.501C65.3926 210.76 65.4194 210.961 65.4729 211.104C65.5533 211.247 65.763 211.314 66.1023 211.305V212.135C65.9684 212.17 65.7898 212.188 65.5667 212.188C65.1739 212.188 64.8882 212.121 64.7097 211.987C64.5401 211.854 64.4196 211.59 64.3482 211.197C63.9108 212.001 63.1342 212.403 62.0183 212.403C61.2506 212.403 60.657 212.233 60.2375 211.894C59.8268 211.546 59.6215 211.032 59.6215 210.354C59.6215 209.711 59.8536 209.225 60.3178 208.894C60.782 208.546 61.6613 208.314 62.9556 208.198C63.5537 208.153 63.9108 208.095 64.0268 208.024C64.1964 207.908 64.2812 207.654 64.2812 207.261C64.2812 206.35 63.7724 205.895 62.7548 205.895C61.5497 205.895 60.9605 206.377 60.9873 207.341ZM64.2544 209.229L64.2812 208.653C64.1473 208.752 63.9509 208.832 63.6921 208.894C63.2993 208.921 62.9958 208.952 62.7816 208.988C62.0406 209.113 61.5898 209.216 61.4292 209.296C61.0364 209.484 60.84 209.823 60.84 210.314C60.84 210.707 60.9561 211.014 61.1881 211.238C61.4292 211.461 61.7505 211.572 62.1522 211.572C62.4111 211.572 62.6477 211.537 62.8619 211.465C63.0851 211.394 63.2993 211.278 63.5046 211.117C63.7188 210.948 63.8885 210.702 64.0134 210.381C64.1473 210.059 64.2277 209.675 64.2544 209.229ZM67.9465 212.135V210.675H69.2721V212.55C69.2721 212.996 69.1471 213.349 68.8972 213.608C68.6473 213.867 68.3304 214.036 67.9465 214.116V213.38C68.134 213.362 68.2902 213.268 68.4152 213.099C68.5491 212.938 68.616 212.755 68.616 212.55V212.135H67.9465ZM79.3138 208.961H75.953V212.135H74.7747V205.333H75.953V208.131H79.3138V205.333H80.4922V212.135H79.3138V208.961ZM87.3249 210.166H88.4497C88.3425 210.765 88.0524 211.287 87.5793 211.733C87.1062 212.179 86.4055 212.403 85.4771 212.403C84.2184 212.403 83.2945 211.987 82.7054 211.157C82.4108 210.72 82.2189 210.251 82.1296 209.751C82.0671 209.403 82.0359 209.073 82.0359 208.76C82.0359 208.162 82.1251 207.6 82.3037 207.073C82.4197 206.698 82.5893 206.373 82.8125 206.096C83.0535 205.801 83.3972 205.556 83.8435 205.359C84.2898 205.163 84.7942 205.065 85.3566 205.065C86.3564 205.065 87.1107 205.342 87.6195 205.895C87.8337 206.127 88.0078 206.422 88.1417 206.779C88.3381 207.297 88.4586 207.926 88.5032 208.667C88.5032 208.694 88.5032 208.752 88.5032 208.841C88.5121 208.93 88.5166 208.984 88.5166 209.002H83.2811C83.2811 209.68 83.4597 210.278 83.8167 210.796C84.1738 211.314 84.7139 211.572 85.4369 211.572C85.9547 211.572 86.3787 211.443 86.709 211.184C87.0393 210.925 87.2446 210.586 87.3249 210.166ZM83.2811 208.171H87.2713C87.2624 207.645 87.1374 207.158 86.8964 206.712C86.6197 206.167 86.1153 205.895 85.3834 205.895C84.5532 205.895 83.9819 206.172 83.6694 206.725C83.4106 207.172 83.2811 207.654 83.2811 208.171ZM91.2389 205.333V208.305L94.1446 205.333H95.5237L92.3369 208.493L95.6978 212.135H94.2919L91.2389 208.734V212.135H90.0606V205.333H91.2389ZM96.1491 210.073C95.917 209.118 95.9259 208.194 96.1759 207.301C96.4258 206.408 96.9525 205.77 97.7559 205.386C98.2022 205.172 98.7244 205.065 99.3225 205.065C99.9206 205.065 100.443 205.172 100.889 205.386C101.693 205.761 102.224 206.431 102.483 207.395C102.599 207.841 102.657 208.292 102.657 208.747C102.666 209.193 102.612 209.635 102.496 210.073C102.389 210.501 102.197 210.894 101.92 211.251C101.652 211.608 101.309 211.889 100.889 212.095C100.434 212.3 99.9117 212.403 99.3225 212.403C98.7334 212.403 98.2111 212.3 97.7559 212.095C96.9793 211.72 96.4437 211.046 96.1491 210.073ZM97.3944 207.381C97.2783 207.738 97.2203 208.185 97.2203 208.72C97.2203 209.247 97.2783 209.698 97.3944 210.073C97.5104 210.448 97.6443 210.729 97.7961 210.916C98.1174 211.273 98.4834 211.483 98.894 211.546C99.1797 211.59 99.4653 211.59 99.751 211.546C99.876 211.537 100.05 211.474 100.273 211.358C100.514 211.233 100.711 211.077 100.862 210.89C101.014 210.702 101.144 210.43 101.251 210.073C101.367 209.698 101.425 209.247 101.425 208.72C101.425 208.185 101.367 207.738 101.251 207.381C101.126 206.989 100.987 206.707 100.836 206.538C100.693 206.368 100.514 206.225 100.3 206.109C100.086 205.993 99.9027 205.922 99.751 205.895C99.4653 205.85 99.1797 205.85 98.894 205.895C98.7691 205.904 98.5905 205.971 98.3584 206.096C97.9032 206.319 97.5818 206.748 97.3944 207.381ZM105.357 212.135V206.163H103.001V205.333H108.892V206.163H106.536V212.135H105.357ZM109.565 210.073C109.333 209.118 109.342 208.194 109.592 207.301C109.842 206.408 110.369 205.77 111.172 205.386C111.618 205.172 112.141 205.065 112.739 205.065C113.337 205.065 113.859 205.172 114.305 205.386C115.109 205.761 115.64 206.431 115.899 207.395C116.015 207.841 116.073 208.292 116.073 208.747C116.082 209.193 116.028 209.635 115.912 210.073C115.805 210.501 115.613 210.894 115.336 211.251C115.068 211.608 114.725 211.889 114.305 212.095C113.85 212.3 113.328 212.403 112.739 212.403C112.149 212.403 111.627 212.3 111.172 212.095C110.395 211.72 109.86 211.046 109.565 210.073ZM110.81 207.381C110.694 207.738 110.636 208.185 110.636 208.72C110.636 209.247 110.694 209.698 110.81 210.073C110.927 210.448 111.06 210.729 111.212 210.916C111.534 211.273 111.9 211.483 112.31 211.546C112.596 211.59 112.881 211.59 113.167 211.546C113.292 211.537 113.466 211.474 113.689 211.358C113.93 211.233 114.127 211.077 114.278 210.89C114.43 210.702 114.56 210.43 114.667 210.073C114.783 209.698 114.841 209.247 114.841 208.72C114.841 208.185 114.783 207.738 114.667 207.381C114.542 206.989 114.403 206.707 114.252 206.538C114.109 206.368 113.93 206.225 113.716 206.109C113.502 205.993 113.319 205.922 113.167 205.895C112.881 205.85 112.596 205.85 112.31 205.895C112.185 205.904 112.007 205.971 111.775 206.096C111.319 206.319 110.998 206.748 110.81 207.381ZM117.625 214.612V205.333H118.723V206.27H118.763C119.299 205.467 120.049 205.065 121.013 205.065C121.896 205.065 122.628 205.373 123.209 205.989C123.789 206.614 124.079 207.529 124.079 208.734C124.079 209.966 123.784 210.885 123.195 211.492C122.615 212.099 121.896 212.403 121.04 212.403C120.772 212.403 120.446 212.345 120.062 212.228C119.5 212.059 119.08 211.702 118.803 211.157V214.612H117.625ZM118.723 208.76C118.723 209.707 118.937 210.416 119.366 210.89C119.812 211.345 120.299 211.572 120.825 211.572C121.379 211.572 121.852 211.349 122.245 210.903C122.637 210.439 122.834 209.716 122.834 208.734C122.834 207.841 122.651 207.145 122.285 206.645C121.928 206.145 121.419 205.895 120.758 205.895C120.41 205.895 120.084 205.989 119.781 206.176C119.076 206.596 118.723 207.457 118.723 208.76ZM125.615 212.135V205.333H126.793V208.024H128.507C129.051 208.024 129.507 208.078 129.873 208.185C130.747 208.408 131.203 209.046 131.238 210.099C131.238 210.724 131.046 211.22 130.663 211.586C130.288 211.952 129.703 212.135 128.909 212.135H125.615ZM128.226 208.854H126.793V211.305H128.44C129.493 211.305 130.02 210.876 130.02 210.019C130.02 209.6 129.882 209.296 129.605 209.109C129.516 209.037 129.368 208.979 129.163 208.935C128.949 208.881 128.636 208.854 128.226 208.854ZM132.069 212.135V205.333H133.247V212.135H132.069ZM135.709 205.333L137.45 207.85L139.19 205.333H140.502L138.119 208.586L140.69 212.135H139.378L137.45 209.336L135.521 212.135H134.209L136.78 208.586L134.397 205.333H135.709ZM149.404 206.163H145.963V212.135H144.784V205.333H150.582V212.135H149.404V206.163ZM153.691 205.333V210.756L157.239 205.333H158.551V212.135H157.373V206.698L153.838 212.135H152.512V205.333H153.691ZM161.654 205.333V211.305H164.493V205.333H165.671V211.305H168.51V205.333H169.688V211.305H170.839L170.732 213.902H169.741V212.135H160.476V205.333H161.654ZM176.752 210.166H177.877C177.77 210.765 177.48 211.287 177.007 211.733C176.534 212.179 175.833 212.403 174.905 212.403C173.646 212.403 172.722 211.987 172.133 211.157C171.838 210.72 171.646 210.251 171.557 209.751C171.495 209.403 171.463 209.073 171.463 208.76C171.463 208.162 171.553 207.6 171.731 207.073C171.847 206.698 172.017 206.373 172.24 206.096C172.481 205.801 172.825 205.556 173.271 205.359C173.717 205.163 174.222 205.065 174.784 205.065C175.784 205.065 176.538 205.342 177.047 205.895C177.261 206.127 177.435 206.422 177.569 206.779C177.766 207.297 177.886 207.926 177.931 208.667C177.931 208.694 177.931 208.752 177.931 208.841C177.94 208.93 177.944 208.984 177.944 209.002H172.709C172.709 209.68 172.887 210.278 173.244 210.796C173.601 211.314 174.141 211.572 174.865 211.572C175.382 211.572 175.806 211.443 176.137 211.184C176.467 210.925 176.672 210.586 176.752 210.166ZM172.709 208.171H176.699C176.69 207.645 176.565 207.158 176.324 206.712C176.047 206.167 175.543 205.895 174.811 205.895C173.981 205.895 173.409 206.172 173.097 206.725C172.838 207.172 172.709 207.654 172.709 208.171ZM179.488 212.135V205.333H182.729C184.166 205.333 184.884 205.873 184.884 206.953C184.884 207.729 184.474 208.261 183.652 208.546V208.586C184.206 208.72 184.59 208.935 184.804 209.229C185.027 209.524 185.139 209.903 185.139 210.367C185.139 211.108 184.867 211.599 184.322 211.84C183.876 212.037 183.331 212.135 182.688 212.135H179.488ZM182.354 206.163H180.667V208.171H182.3C182.773 208.171 183.121 208.078 183.345 207.89C183.577 207.694 183.693 207.439 183.693 207.127C183.693 206.484 183.246 206.163 182.354 206.163ZM182.354 209.002H180.667V211.305H182.394C183.411 211.305 183.92 210.956 183.92 210.26C183.92 209.421 183.398 209.002 182.354 209.002ZM186.706 212.135V205.333H187.885V208.024H189.598C190.143 208.024 190.598 208.078 190.964 208.185C191.839 208.408 192.294 209.046 192.33 210.099C192.33 210.724 192.138 211.22 191.754 211.586C191.379 211.952 190.795 212.135 190 212.135H186.706ZM189.317 208.854H187.885V211.305H189.532C190.585 211.305 191.112 210.876 191.112 210.019C191.112 209.6 190.973 209.296 190.696 209.109C190.607 209.037 190.46 208.979 190.255 208.935C190.04 208.881 189.728 208.854 189.317 208.854ZM193.16 212.135V205.333H194.339V212.135H193.16ZM196.8 205.333L198.541 207.85L200.282 205.333H201.594L199.211 208.586L201.782 212.135H200.469L198.541 209.336L196.613 212.135H195.301L197.872 208.586L195.488 205.333H196.8ZM207.054 205.333V208.305L209.96 205.333H211.339L208.152 208.493L211.513 212.135H210.107L207.054 208.734V212.135H205.876V205.333H207.054ZM211.964 210.073C211.732 209.118 211.741 208.194 211.991 207.301C212.241 206.408 212.768 205.77 213.571 205.386C214.017 205.172 214.54 205.065 215.138 205.065C215.736 205.065 216.258 205.172 216.704 205.386C217.508 205.761 218.039 206.431 218.298 207.395C218.414 207.841 218.472 208.292 218.472 208.747C218.481 209.193 218.427 209.635 218.311 210.073C218.204 210.501 218.012 210.894 217.735 211.251C217.468 211.608 217.124 211.889 216.704 212.095C216.249 212.3 215.727 212.403 215.138 212.403C214.549 212.403 214.026 212.3 213.571 212.095C212.794 211.72 212.259 211.046 211.964 210.073ZM213.21 207.381C213.094 207.738 213.035 208.185 213.035 208.72C213.035 209.247 213.094 209.698 213.21 210.073C213.326 210.448 213.459 210.729 213.611 210.916C213.933 211.273 214.299 211.483 214.709 211.546C214.995 211.59 215.281 211.59 215.566 211.546C215.691 211.537 215.865 211.474 216.088 211.358C216.329 211.233 216.526 211.077 216.678 210.89C216.829 210.702 216.959 210.43 217.066 210.073C217.182 209.698 217.24 209.247 217.24 208.72C217.24 208.185 217.182 207.738 217.066 207.381C216.941 206.989 216.803 206.707 216.651 206.538C216.508 206.368 216.329 206.225 216.115 206.109C215.901 205.993 215.718 205.922 215.566 205.895C215.281 205.85 214.995 205.85 214.709 205.895C214.584 205.904 214.406 205.971 214.174 206.096C213.718 206.319 213.397 206.748 213.21 207.381ZM224.563 208.961H221.203V212.135H220.024V205.333H221.203V208.131H224.563V205.333H225.742V212.135H224.563V208.961ZM229.24 212.135V206.163H226.884V205.333H232.775V206.163H230.419V212.135H229.24ZM238.472 210.166H239.597C239.489 210.765 239.199 211.287 238.726 211.733C238.253 212.179 237.552 212.403 236.624 212.403C235.365 212.403 234.441 211.987 233.852 211.157C233.558 210.72 233.366 210.251 233.276 209.751C233.214 209.403 233.183 209.073 233.183 208.76C233.183 208.162 233.272 207.6 233.451 207.073C233.567 206.698 233.736 206.373 233.959 206.096C234.2 205.801 234.544 205.556 234.99 205.359C235.437 205.163 235.941 205.065 236.503 205.065C237.503 205.065 238.258 205.342 238.766 205.895C238.981 206.127 239.155 206.422 239.289 206.779C239.485 207.297 239.605 207.926 239.65 208.667C239.65 208.694 239.65 208.752 239.65 208.841C239.659 208.93 239.663 208.984 239.663 209.002H234.428C234.428 209.68 234.607 210.278 234.964 210.796C235.321 211.314 235.861 211.572 236.584 211.572C237.102 211.572 237.526 211.443 237.856 211.184C238.186 210.925 238.391 210.586 238.472 210.166ZM234.428 208.171H238.418C238.409 207.645 238.284 207.158 238.043 206.712C237.767 206.167 237.262 205.895 236.53 205.895C235.7 205.895 235.129 206.172 234.816 206.725C234.557 207.172 234.428 207.654 234.428 208.171ZM242.386 205.333V210.756L245.934 205.333H247.246V212.135H246.068V206.698L242.533 212.135H241.208V205.333H242.386ZM245.492 202.762H246.497C246.309 203.744 245.72 204.319 244.729 204.489C244.559 204.516 244.381 204.529 244.193 204.529C243.042 204.529 242.305 204.061 241.984 203.123C241.957 203.061 241.926 202.94 241.89 202.762H242.895C242.868 202.994 242.948 203.213 243.136 203.418C243.27 203.561 243.426 203.668 243.604 203.739C243.765 203.793 243.961 203.82 244.193 203.82C244.577 203.82 244.894 203.726 245.144 203.538C245.394 203.342 245.51 203.083 245.492 202.762ZM253.71 208.961H250.349V212.135H249.171V205.333H250.349V208.131H253.71V205.333H254.888V212.135H253.71V208.961ZM261.721 210.166H262.846C262.739 210.765 262.449 211.287 261.976 211.733C261.502 212.179 260.802 212.403 259.873 212.403C258.615 212.403 257.691 211.987 257.102 211.157C256.807 210.72 256.615 210.251 256.526 209.751C256.463 209.403 256.432 209.073 256.432 208.76C256.432 208.162 256.521 207.6 256.7 207.073C256.816 206.698 256.986 206.373 257.209 206.096C257.45 205.801 257.793 205.556 258.24 205.359C258.686 205.163 259.19 205.065 259.753 205.065C260.753 205.065 261.507 205.342 262.016 205.895C262.23 206.127 262.404 206.422 262.538 206.779C262.734 207.297 262.855 207.926 262.899 208.667C262.899 208.694 262.899 208.752 262.899 208.841C262.908 208.93 262.913 208.984 262.913 209.002H257.677C257.677 209.68 257.856 210.278 258.213 210.796C258.57 211.314 259.11 211.572 259.833 211.572C260.351 211.572 260.775 211.443 261.105 211.184C261.435 210.925 261.641 210.586 261.721 210.166ZM257.677 208.171H261.668C261.659 207.645 261.534 207.158 261.293 206.712C261.016 206.167 260.512 205.895 259.78 205.895C258.949 205.895 258.378 206.172 258.066 206.725C257.807 207.172 257.677 207.654 257.677 208.171ZM264.457 214.612V205.333H265.555V206.27H265.595C266.131 205.467 266.88 205.065 267.845 205.065C268.728 205.065 269.46 205.373 270.04 205.989C270.621 206.614 270.911 207.529 270.911 208.734C270.911 209.966 270.616 210.885 270.027 211.492C269.447 212.099 268.728 212.403 267.871 212.403C267.603 212.403 267.278 212.345 266.894 212.228C266.331 212.059 265.912 211.702 265.635 211.157V214.612H264.457ZM265.555 208.76C265.555 209.707 265.769 210.416 266.198 210.89C266.644 211.345 267.13 211.572 267.657 211.572C268.21 211.572 268.684 211.349 269.076 210.903C269.469 210.439 269.666 209.716 269.666 208.734C269.666 207.841 269.483 207.145 269.117 206.645C268.759 206.145 268.251 205.895 267.59 205.895C267.242 205.895 266.916 205.989 266.613 206.176C265.907 206.596 265.555 207.457 265.555 208.76ZM272.232 210.073C272 209.118 272.009 208.194 272.259 207.301C272.509 206.408 273.036 205.77 273.839 205.386C274.285 205.172 274.807 205.065 275.406 205.065C276.004 205.065 276.526 205.172 276.972 205.386C277.776 205.761 278.307 206.431 278.566 207.395C278.682 207.841 278.74 208.292 278.74 208.747C278.749 209.193 278.695 209.635 278.579 210.073C278.472 210.501 278.28 210.894 278.003 211.251C277.735 211.608 277.392 211.889 276.972 212.095C276.517 212.3 275.995 212.403 275.406 212.403C274.816 212.403 274.294 212.3 273.839 212.095C273.062 211.72 272.527 211.046 272.232 210.073ZM273.477 207.381C273.361 207.738 273.303 208.185 273.303 208.72C273.303 209.247 273.361 209.698 273.477 210.073C273.593 210.448 273.727 210.729 273.879 210.916C274.2 211.273 274.566 211.483 274.977 211.546C275.263 211.59 275.548 211.59 275.834 211.546C275.959 211.537 276.133 211.474 276.356 211.358C276.597 211.233 276.794 211.077 276.945 210.89C277.097 210.702 277.227 210.43 277.334 210.073C277.45 209.698 277.508 209.247 277.508 208.72C277.508 208.185 277.45 207.738 277.334 207.381C277.209 206.989 277.07 206.707 276.919 206.538C276.776 206.368 276.597 206.225 276.383 206.109C276.169 205.993 275.986 205.922 275.834 205.895C275.548 205.85 275.263 205.85 274.977 205.895C274.852 205.904 274.674 205.971 274.441 206.096C273.986 206.319 273.665 206.748 273.477 207.381ZM280.292 212.135V205.333H283.532C284.97 205.333 285.688 205.873 285.688 206.953C285.688 207.729 285.278 208.261 284.456 208.546V208.586C285.01 208.72 285.394 208.935 285.608 209.229C285.831 209.524 285.943 209.903 285.943 210.367C285.943 211.108 285.67 211.599 285.126 211.84C284.679 212.037 284.135 212.135 283.492 212.135H280.292ZM283.157 206.163H281.47V208.171H283.104C283.577 208.171 283.925 208.078 284.148 207.89C284.38 207.694 284.496 207.439 284.496 207.127C284.496 206.484 284.05 206.163 283.157 206.163ZM283.157 209.002H281.47V211.305H283.198C284.215 211.305 284.724 210.956 284.724 210.26C284.724 209.421 284.202 209.002 283.157 209.002Z" fill="black"/>
<path d="M92.6449 32.418V19.2958H97.9875C100.949 19.2958 102.43 20.5518 102.43 23.0638C102.43 25.8132 100.893 27.1879 97.8188 27.1879H94.407V32.418H92.6449ZM97.6313 20.7767H94.407V25.7069H97.6313C98.6686 25.7069 99.4247 25.4945 99.8996 25.0696C100.387 24.6322 100.631 23.9761 100.631 23.1012C100.631 22.2889 100.387 21.7015 99.8996 21.3391C99.4122 20.9642 98.6561 20.7767 97.6313 20.7767ZM104.617 32.418V19.2958H109.96C112.922 19.2958 114.403 20.5518 114.403 23.0638C114.403 25.8132 112.866 27.1879 109.791 27.1879H106.38V32.418H104.617ZM109.604 20.7767H106.38V25.7069H109.604C110.641 25.7069 111.397 25.4945 111.872 25.0696C112.359 24.6322 112.603 23.9761 112.603 23.1012C112.603 22.2889 112.359 21.7015 111.872 21.3391C111.385 20.9642 110.629 20.7767 109.604 20.7767ZM116.177 35.886H114.997L121.689 19.2958H122.87L116.177 35.886ZM132.822 20.7767H126.224V32.418H124.462V19.2958H134.585V32.418H132.822V20.7767ZM146.131 20.7767H139.533V32.418H137.771V19.2958H147.893V32.418H146.131V20.7767ZM101.006 39.7767H94.407V51.418H92.6449V38.2958H102.768V51.418H101.006V39.7767ZM105.41 48.5311C105.085 47.1939 105.098 45.9004 105.448 44.6507C105.798 43.401 106.535 42.5074 107.66 41.97C108.285 41.6701 109.016 41.5201 109.853 41.5201C110.69 41.5201 111.421 41.6701 112.046 41.97C113.171 42.4949 113.915 43.4322 114.277 44.7819C114.439 45.4068 114.521 46.0379 114.521 46.6752C114.533 47.3001 114.458 47.9187 114.296 48.5311C114.146 49.131 113.877 49.6808 113.49 50.1807C113.115 50.6806 112.634 51.0743 112.046 51.3617C111.409 51.6492 110.678 51.7929 109.853 51.7929C109.028 51.7929 108.297 51.6492 107.66 51.3617C106.572 50.8368 105.823 49.8933 105.41 48.5311ZM107.154 44.7632C106.991 45.2631 106.91 45.8879 106.91 46.6378C106.91 47.3751 106.991 48.0062 107.154 48.5311C107.316 49.056 107.503 49.4496 107.716 49.7121C108.166 50.212 108.678 50.5057 109.253 50.5931C109.653 50.6556 110.053 50.6556 110.453 50.5931C110.628 50.5807 110.871 50.4932 111.184 50.3307C111.521 50.1557 111.796 49.937 112.009 49.6746C112.221 49.4122 112.402 49.031 112.552 48.5311C112.715 48.0062 112.796 47.3751 112.796 46.6378C112.796 45.8879 112.715 45.2631 112.552 44.7632C112.377 44.2133 112.184 43.8196 111.971 43.5822C111.771 43.3447 111.521 43.1448 111.221 42.9823C110.921 42.8198 110.665 42.7199 110.453 42.6824C110.053 42.6199 109.653 42.6199 109.253 42.6824C109.078 42.6949 108.828 42.7886 108.503 42.9636C107.866 43.276 107.416 43.8759 107.154 44.7632ZM115.588 51.418V50.1995C116.525 50.4744 117.188 50.0308 117.575 48.8685C117.675 48.5811 117.744 48.2249 117.781 47.8L117.856 46.6565C117.869 46.4565 117.875 46.0629 117.875 45.4755V41.895H124.474V51.418H122.824V43.0573H119.412V45.4755C119.412 46.2628 119.393 46.9252 119.356 47.4626C119.318 47.9875 119.225 48.5623 119.075 49.1872C118.862 50.0745 118.481 50.7056 117.931 51.0805C117.381 51.4555 116.6 51.5679 115.588 51.418ZM128.815 41.895V49.4871L133.783 41.895H135.62V51.418H133.97V43.8071L129.021 51.418H127.165V41.895H128.815ZM138.314 51.418V41.895H142.851C144.863 41.895 145.869 42.6511 145.869 44.1633C145.869 45.2506 145.294 45.9941 144.144 46.3941V46.4503C144.919 46.6378 145.456 46.9377 145.756 47.3501C146.069 47.7625 146.225 48.2936 146.225 48.9435C146.225 49.9808 145.844 50.6681 145.081 51.0056C144.457 51.2805 143.694 51.418 142.794 51.418H138.314ZM142.326 43.0573H139.964V45.8692H142.251C142.913 45.8692 143.4 45.738 143.713 45.4755C144.038 45.2006 144.2 44.8444 144.2 44.407C144.2 43.5072 143.575 43.0573 142.326 43.0573ZM142.326 47.0314H139.964V50.2557H142.382C143.807 50.2557 144.519 49.7683 144.519 48.7935C144.519 47.6188 143.788 47.0314 142.326 47.0314ZM154.887 43.0573H150.069V51.418H148.419V41.895H156.536V51.418H154.887V43.0573ZM159.239 54.886V41.895H160.776V43.2073H160.832C161.582 42.0825 162.632 41.5201 163.981 41.5201C165.218 41.5201 166.243 41.9513 167.056 42.8136C167.868 43.6884 168.274 44.9694 168.274 46.6565C168.274 48.3811 167.862 49.6683 167.037 50.5182C166.224 51.368 165.218 51.7929 164.019 51.7929C163.644 51.7929 163.188 51.7117 162.65 51.5492C161.863 51.3117 161.276 50.8119 160.888 50.0495V54.886H159.239ZM160.776 46.694C160.776 48.0187 161.076 49.0122 161.675 49.6746C162.3 50.312 162.981 50.6306 163.719 50.6306C164.494 50.6306 165.156 50.3182 165.706 49.6933C166.256 49.0435 166.531 48.0312 166.531 46.6565C166.531 45.4068 166.274 44.432 165.762 43.7321C165.262 43.0323 164.55 42.6824 163.625 42.6824C163.138 42.6824 162.682 42.8136 162.257 43.076C161.269 43.6634 160.776 44.8694 160.776 46.694ZM170.124 48.5311C169.799 47.1939 169.811 45.9004 170.161 44.6507C170.511 43.401 171.249 42.5074 172.373 41.97C172.998 41.6701 173.729 41.5201 174.567 41.5201C175.404 41.5201 176.135 41.6701 176.76 41.97C177.885 42.4949 178.628 43.4322 178.991 44.7819C179.153 45.4068 179.234 46.0379 179.234 46.6752C179.247 47.3001 179.172 47.9187 179.009 48.5311C178.859 49.131 178.591 49.6808 178.203 50.1807C177.828 50.6806 177.347 51.0743 176.76 51.3617C176.123 51.6492 175.391 51.7929 174.567 51.7929C173.742 51.7929 173.011 51.6492 172.373 51.3617C171.286 50.8368 170.536 49.8933 170.124 48.5311ZM171.867 44.7632C171.705 45.2631 171.624 45.8879 171.624 46.6378C171.624 47.3751 171.705 48.0062 171.867 48.5311C172.03 49.056 172.217 49.4496 172.43 49.7121C172.88 50.212 173.392 50.5057 173.967 50.5931C174.367 50.6556 174.767 50.6556 175.167 50.5931C175.341 50.5807 175.585 50.4932 175.898 50.3307C176.235 50.1557 176.51 49.937 176.722 49.6746C176.935 49.4122 177.116 49.031 177.266 48.5311C177.429 48.0062 177.51 47.3751 177.51 46.6378C177.51 45.8879 177.429 45.2631 177.266 44.7632C177.091 44.2133 176.897 43.8196 176.685 43.5822C176.485 43.3447 176.235 43.1448 175.935 42.9823C175.635 42.8198 175.379 42.7199 175.167 42.6824C174.767 42.6199 174.367 42.6199 173.967 42.6824C173.792 42.6949 173.542 42.7886 173.217 42.9636C172.58 43.276 172.13 43.8759 171.867 44.7632ZM187.875 43.0573H183.057V51.418H181.408V41.895H189.525V51.418H187.875V43.0573ZM193.877 41.895V49.4871L198.844 41.895H200.681V51.418H199.032V43.8071L194.083 51.418H192.227V41.895H193.877ZM202.27 51.418V50.1995C203.207 50.4744 203.869 50.0308 204.257 48.8685C204.357 48.5811 204.425 48.2249 204.463 47.8L204.538 46.6565C204.55 46.4565 204.557 46.0629 204.557 45.4755V41.895H211.155V51.418H209.506V43.0573H206.094V45.4755C206.094 46.2628 206.075 46.9252 206.038 47.4626C206 47.9875 205.906 48.5623 205.756 49.1872C205.544 50.0745 205.163 50.7056 204.613 51.0805C204.063 51.4555 203.282 51.5679 202.27 51.418ZM220.708 48.6623H222.283C222.133 49.4996 221.727 50.2307 221.064 50.8556C220.402 51.4805 219.421 51.7929 218.121 51.7929C216.359 51.7929 215.065 51.2118 214.241 50.0495C213.828 49.4371 213.56 48.781 213.435 48.0812C213.347 47.5938 213.303 47.1314 213.303 46.694C213.303 45.8567 213.428 45.0693 213.678 44.332C213.841 43.8071 214.078 43.351 214.391 42.9636C214.728 42.5511 215.209 42.2075 215.834 41.9325C216.459 41.6576 217.165 41.5201 217.952 41.5201C219.352 41.5201 220.408 41.9075 221.12 42.6824C221.42 43.0073 221.664 43.4197 221.852 43.9196C222.126 44.6444 222.295 45.5255 222.358 46.5628C222.358 46.6003 222.358 46.6815 222.358 46.8065C222.37 46.9314 222.376 47.0064 222.376 47.0314H215.047C215.047 47.9812 215.297 48.8185 215.797 49.5434C216.296 50.2682 217.053 50.6306 218.065 50.6306C218.79 50.6306 219.383 50.4494 219.846 50.087C220.308 49.7246 220.596 49.2497 220.708 48.6623ZM215.047 45.8692H220.633C220.621 45.1318 220.446 44.4507 220.108 43.8259C219.721 43.0635 219.015 42.6824 217.99 42.6824C216.828 42.6824 216.028 43.0698 215.59 43.8446C215.228 44.4695 215.047 45.1443 215.047 45.8692ZM230.893 46.9752H226.188V51.418H224.538V41.895H226.188V45.8129H230.893V41.895H232.543V51.418H230.893V46.9752Z" fill="black"/>
<path d="M42.6318 116.399H44.3565C44.419 116.987 44.6627 117.524 45.0876 118.012C45.5125 118.499 46.1686 118.743 47.0559 118.743C49.0929 118.743 50.1115 117.662 50.1115 115.5C50.1115 114.425 49.8303 113.644 49.2679 113.156C48.7305 112.656 48.0494 112.406 47.2246 112.406C46.7622 112.406 46.2686 112.513 45.7437 112.725C45.2063 112.938 44.8439 113.213 44.6564 113.55H43.0068L43.9253 106.633H51.0113V108.114H45.2188L44.6939 111.994C45.4562 111.332 46.4435 111.001 47.6558 111.001C48.8805 111.001 49.8678 111.407 50.6176 112.219C51.3799 113.019 51.7611 114.106 51.7611 115.481C51.7611 116.906 51.3549 118.043 50.5426 118.893C49.7303 119.73 48.5681 120.149 47.0559 120.149C45.4437 120.149 44.3002 119.705 43.6254 118.818C43.038 118.055 42.7068 117.249 42.6318 116.399Z" fill="black"/>
<path d="M22.168 129.193C21.7744 128.513 21.5695 127.739 21.5746 126.953C21.5797 126.166 21.7945 125.395 22.1968 124.72L29.2629 112.687L30.8621 119.756L35.1958 118.77L31.8791 104.109L17.2597 107.435L18.2429 111.781L25.6237 110.102L18.3674 122.459C17.5725 123.813 17.1485 125.353 17.1384 126.924C17.1283 128.495 17.5324 130.041 18.3099 131.405C19.0873 132.769 20.2105 133.902 21.5655 134.691C22.9206 135.479 24.4594 135.895 26.026 135.895H37.4737L41.9175 131.438H26.026C25.2417 131.443 24.4704 131.237 23.7921 130.843C23.1137 130.448 22.553 129.878 22.168 129.193ZM52.0321 86.9538L59.4959 99.6643L52.684 98.5985L51.9988 103.002L66.8108 105.319L69.1216 90.4651L64.7309 89.7781L63.4987 97.6981L55.8615 84.6924C55.0764 83.3553 53.9569 82.247 52.6137 81.4769C51.2704 80.7068 49.75 80.3018 48.2028 80.3018C46.6556 80.3018 45.1351 80.7068 43.7919 81.4769C42.4487 82.247 41.3292 83.3553 40.5441 84.6924L34.9978 94.1374L36.443 100.459L44.3733 86.9538C44.7658 86.2853 45.3256 85.7312 45.9972 85.3462C46.6688 84.9612 47.4289 84.7587 48.2025 84.7587C48.9761 84.7587 49.7362 84.9612 50.4078 85.3462C51.0794 85.7312 51.6396 86.2853 52.0321 86.9538ZM78.0384 122.459L71.3911 111.139L65.6769 110.19L74.2092 124.72C74.6067 125.397 74.8187 126.167 74.8237 126.953C74.8288 127.738 74.6267 128.511 74.2379 129.193C73.8492 129.875 73.2876 130.442 72.61 130.836C71.9325 131.231 71.163 131.438 70.3797 131.438H54.9021L60.229 126.096L57.0868 122.945L46.4866 133.576L57.0868 144.206L60.229 141.055L55.0836 135.895H70.3797C71.9463 135.895 73.4851 135.48 74.8402 134.691C76.1952 133.903 77.3184 132.769 78.0958 131.405C78.8733 130.041 79.2774 128.496 79.2673 126.924C79.2572 125.353 78.8333 123.813 78.0384 122.459Z" fill="black"/>
<path d="M175.203 239.763H170.351V242.173H167.925V244.583H165.5V251.814H167.925V254.224H170.351V256.634H172.777V259.044H175.203V261.454H177.629V263.865H180.055V261.454H182.48V259.044H184.906V256.634H187.332V254.224H189.758V251.814H192.184V244.583H189.758V242.173H187.332V239.763H182.48V242.173H180.055V244.583H177.629V242.173H175.203V239.763ZM175.203 242.173V244.583H177.629V246.993H180.055V244.583H182.48V242.173H187.332V244.583H189.758V251.814H187.332V254.224H184.906V256.634H182.48V259.044H180.055V261.454H177.629V259.044H175.203V256.634H172.777V254.224H170.351V251.814H167.925V244.583H170.351V242.173H175.203Z" fill="black"/>
<path d="M172.61 276.656H167.896V284.971H166.638V275.598H173.868V284.971H172.61V276.656ZM175.97 287.448V278.169H177.068V279.106H177.108C177.644 278.303 178.394 277.901 179.358 277.901C180.241 277.901 180.973 278.209 181.554 278.825C182.134 279.45 182.424 280.365 182.424 281.57C182.424 282.802 182.129 283.721 181.54 284.328C180.96 284.935 180.241 285.239 179.384 285.239C179.117 285.239 178.791 285.18 178.407 285.064C177.845 284.895 177.425 284.538 177.148 283.993V287.448H175.97ZM177.068 281.596C177.068 282.543 177.282 283.252 177.711 283.725C178.157 284.181 178.643 284.408 179.17 284.408C179.724 284.408 180.197 284.185 180.589 283.739C180.982 283.275 181.179 282.552 181.179 281.57C181.179 280.677 180.996 279.981 180.63 279.481C180.273 278.981 179.764 278.731 179.103 278.731C178.755 278.731 178.429 278.825 178.126 279.012C177.421 279.432 177.068 280.293 177.068 281.596ZM185.138 278.169V283.592L188.686 278.169H189.998V284.971H188.82V279.534L185.285 284.971H183.959V278.169H185.138ZM196.582 278.999H193.101V284.971H191.923V278.169H196.582V278.999ZM197.161 282.909C196.929 281.954 196.938 281.03 197.188 280.137C197.438 279.244 197.965 278.606 198.768 278.222C199.214 278.008 199.737 277.901 200.335 277.901C200.933 277.901 201.455 278.008 201.901 278.222C202.705 278.597 203.236 279.267 203.495 280.231C203.611 280.677 203.669 281.128 203.669 281.583C203.678 282.029 203.624 282.471 203.508 282.909C203.401 283.337 203.209 283.73 202.932 284.087C202.665 284.444 202.321 284.725 201.901 284.931C201.446 285.136 200.924 285.239 200.335 285.239C199.746 285.239 199.223 285.136 198.768 284.931C197.991 284.556 197.456 283.882 197.161 282.909ZM198.407 280.217C198.291 280.574 198.232 281.021 198.232 281.556C198.232 282.083 198.291 282.534 198.407 282.909C198.523 283.284 198.657 283.565 198.808 283.752C199.13 284.109 199.496 284.319 199.906 284.382C200.192 284.426 200.478 284.426 200.763 284.382C200.888 284.373 201.062 284.31 201.285 284.194C201.526 284.069 201.723 283.913 201.875 283.725C202.026 283.538 202.156 283.266 202.263 282.909C202.379 282.534 202.437 282.083 202.437 281.556C202.437 281.021 202.379 280.574 202.263 280.217C202.138 279.824 202 279.543 201.848 279.374C201.705 279.204 201.526 279.061 201.312 278.945C201.098 278.829 200.915 278.758 200.763 278.731C200.478 278.686 200.192 278.686 199.906 278.731C199.781 278.74 199.603 278.807 199.371 278.932C198.915 279.155 198.594 279.583 198.407 280.217ZM204.364 286.738L204.257 284.141H205.114C205.855 283.051 206.225 281.44 206.225 279.307V278.169H211.099V284.141H212.278L212.184 286.738H211.193V284.971H205.355V286.738H204.364ZM209.921 284.141V278.999H207.323V279.949C207.323 280.673 207.243 281.422 207.082 282.199C206.94 282.967 206.699 283.614 206.359 284.141H209.921ZM218.19 283.002H219.315C219.208 283.6 218.917 284.123 218.444 284.569C217.971 285.015 217.27 285.239 216.342 285.239C215.083 285.239 214.16 284.823 213.57 283.993C213.276 283.556 213.084 283.087 212.995 282.587C212.932 282.239 212.901 281.909 212.901 281.596C212.901 280.998 212.99 280.436 213.169 279.909C213.285 279.534 213.454 279.209 213.677 278.932C213.918 278.637 214.262 278.392 214.709 278.195C215.155 277.999 215.659 277.901 216.222 277.901C217.221 277.901 217.976 278.178 218.484 278.731C218.699 278.963 218.873 279.258 219.007 279.615C219.203 280.132 219.324 280.762 219.368 281.503C219.368 281.529 219.368 281.588 219.368 281.677C219.377 281.766 219.382 281.82 219.382 281.837H214.146C214.146 282.516 214.325 283.114 214.682 283.632C215.039 284.149 215.579 284.408 216.302 284.408C216.82 284.408 217.244 284.279 217.574 284.02C217.904 283.761 218.11 283.422 218.19 283.002ZM214.146 281.007H218.136C218.127 280.481 218.002 279.994 217.761 279.548C217.485 279.003 216.98 278.731 216.248 278.731C215.418 278.731 214.847 279.008 214.534 279.561C214.276 280.007 214.146 280.49 214.146 281.007ZM225.465 281.797H222.104V284.971H220.926V278.169H222.104V280.967H225.465V278.169H226.643V284.971H225.465V281.797ZM165.607 301.738L165.5 299.141H166.356C167.097 298.051 167.468 296.44 167.468 294.307V293.169H172.342V299.141H173.52L173.426 301.738H172.436V299.971H166.597V301.738H165.607ZM171.163 299.141V293.999H168.566V294.949C168.566 295.673 168.485 296.422 168.325 297.199C168.182 297.967 167.941 298.614 167.602 299.141H171.163ZM174.082 299.971V299.1C174.751 299.297 175.224 298.98 175.501 298.15C175.572 297.944 175.621 297.69 175.648 297.386L175.702 296.57C175.711 296.427 175.715 296.146 175.715 295.726V293.169H180.428V299.971H179.25V293.999H176.813V295.726C176.813 296.288 176.8 296.762 176.773 297.145C176.746 297.52 176.679 297.931 176.572 298.377C176.42 299.011 176.148 299.462 175.755 299.73C175.362 299.997 174.805 300.078 174.082 299.971ZM186.515 297.293H184.962L183.181 299.971H181.882L183.757 297.279C183.239 297.226 182.82 297.025 182.498 296.677C182.177 296.329 182.016 295.873 182.016 295.311C182.016 294.784 182.155 294.325 182.431 293.932C182.762 293.423 183.387 293.169 184.306 293.169H187.694V299.971H186.515V297.293ZM186.515 296.463V293.999H184.815C183.761 293.999 183.235 294.423 183.235 295.271C183.235 295.619 183.364 295.905 183.623 296.128C183.882 296.351 184.293 296.463 184.855 296.463H186.515ZM197.366 293.999H193.925V299.971H192.747V293.169H198.544V299.971H197.366V293.999ZM205.375 298.002H206.5C206.393 298.6 206.103 299.123 205.63 299.569C205.157 300.015 204.456 300.239 203.527 300.239C202.269 300.239 201.345 299.823 200.756 298.993C200.461 298.556 200.269 298.087 200.18 297.587C200.118 297.239 200.086 296.909 200.086 296.596C200.086 295.998 200.176 295.436 200.354 294.909C200.47 294.534 200.64 294.209 200.863 293.932C201.104 293.637 201.448 293.392 201.894 293.195C202.34 292.999 202.845 292.901 203.407 292.901C204.407 292.901 205.161 293.178 205.67 293.731C205.884 293.963 206.058 294.258 206.192 294.615C206.388 295.132 206.509 295.762 206.554 296.503C206.554 296.529 206.554 296.588 206.554 296.677C206.563 296.766 206.567 296.82 206.567 296.837H201.332C201.332 297.516 201.51 298.114 201.867 298.632C202.224 299.149 202.764 299.408 203.487 299.408C204.005 299.408 204.429 299.279 204.759 299.02C205.09 298.761 205.295 298.422 205.375 298.002ZM201.332 296.007H205.322C205.313 295.481 205.188 294.994 204.947 294.548C204.67 294.003 204.166 293.731 203.434 293.731C202.604 293.731 202.032 294.008 201.72 294.561C201.461 295.007 201.332 295.49 201.332 296.007ZM208.111 302.448V293.169H209.209V294.106H209.249C209.785 293.303 210.535 292.901 211.499 292.901C212.382 292.901 213.114 293.209 213.695 293.825C214.275 294.45 214.565 295.365 214.565 296.57C214.565 297.802 214.27 298.721 213.681 299.328C213.101 299.935 212.382 300.239 211.525 300.239C211.258 300.239 210.932 300.18 210.548 300.064C209.986 299.895 209.566 299.538 209.289 298.993V302.448H208.111ZM209.209 296.596C209.209 297.543 209.423 298.252 209.852 298.725C210.298 299.181 210.785 299.408 211.311 299.408C211.865 299.408 212.338 299.185 212.731 298.739C213.123 298.275 213.32 297.552 213.32 296.57C213.32 295.677 213.137 294.981 212.771 294.481C212.414 293.981 211.905 293.731 211.244 293.731C210.896 293.731 210.57 293.825 210.267 294.012C209.562 294.432 209.209 295.293 209.209 296.596ZM221.001 298.002H222.126C222.019 298.6 221.729 299.123 221.256 299.569C220.783 300.015 220.082 300.239 219.153 300.239C217.895 300.239 216.971 299.823 216.382 298.993C216.087 298.556 215.895 298.087 215.806 297.587C215.743 297.239 215.712 296.909 215.712 296.596C215.712 295.998 215.801 295.436 215.98 294.909C216.096 294.534 216.266 294.209 216.489 293.932C216.73 293.637 217.074 293.392 217.52 293.195C217.966 292.999 218.471 292.901 219.033 292.901C220.033 292.901 220.787 293.178 221.296 293.731C221.51 293.963 221.684 294.258 221.818 294.615C222.014 295.132 222.135 295.762 222.18 296.503C222.18 296.529 222.18 296.588 222.18 296.677C222.189 296.766 222.193 296.82 222.193 296.837H216.957C216.957 297.516 217.136 298.114 217.493 298.632C217.85 299.149 218.39 299.408 219.113 299.408C219.631 299.408 220.055 299.279 220.385 299.02C220.716 298.761 220.921 298.422 221.001 298.002ZM216.957 296.007H220.948C220.939 295.481 220.814 294.994 220.573 294.548C220.296 294.003 219.792 293.731 219.06 293.731C218.23 293.731 217.658 294.008 217.346 294.561C217.087 295.007 216.957 295.49 216.957 296.007ZM223.737 302.448V293.169H224.835V294.106H224.875C225.411 293.303 226.161 292.901 227.125 292.901C228.008 292.901 228.74 293.209 229.321 293.825C229.901 294.45 230.191 295.365 230.191 296.57C230.191 297.802 229.896 298.721 229.307 299.328C228.727 299.935 228.008 300.239 227.151 300.239C226.884 300.239 226.558 300.18 226.174 300.064C225.612 299.895 225.192 299.538 224.915 298.993V302.448H223.737ZM224.835 296.596C224.835 297.543 225.049 298.252 225.478 298.725C225.924 299.181 226.411 299.408 226.937 299.408C227.491 299.408 227.964 299.185 228.357 298.739C228.749 298.275 228.946 297.552 228.946 296.57C228.946 295.677 228.763 294.981 228.397 294.481C228.04 293.981 227.531 293.731 226.87 293.731C226.522 293.731 226.196 293.825 225.893 294.012C225.188 294.432 224.835 295.293 224.835 296.596ZM232.624 295.177H231.499C231.499 294.642 231.677 294.151 232.034 293.704C232.463 293.169 233.248 292.901 234.391 292.901C235.061 292.901 235.65 293.035 236.159 293.303C236.453 293.445 236.685 293.682 236.855 294.012C237.024 294.342 237.105 294.735 237.096 295.19L237.029 298.337C237.029 298.596 237.056 298.797 237.109 298.94C237.19 299.083 237.399 299.149 237.739 299.141V299.971C237.605 300.006 237.426 300.024 237.203 300.024C236.81 300.024 236.525 299.957 236.346 299.823C236.176 299.69 236.056 299.426 235.985 299.033C235.547 299.837 234.77 300.239 233.655 300.239C232.887 300.239 232.293 300.069 231.874 299.73C231.463 299.382 231.258 298.868 231.258 298.19C231.258 297.547 231.49 297.061 231.954 296.73C232.418 296.382 233.298 296.15 234.592 296.034C235.19 295.989 235.547 295.931 235.663 295.86C235.833 295.744 235.918 295.49 235.918 295.097C235.918 294.186 235.409 293.731 234.391 293.731C233.186 293.731 232.597 294.213 232.624 295.177ZM235.891 297.065L235.918 296.489C235.784 296.588 235.587 296.668 235.328 296.73C234.936 296.757 234.632 296.788 234.418 296.824C233.677 296.949 233.226 297.052 233.065 297.132C232.673 297.319 232.476 297.659 232.476 298.15C232.476 298.542 232.592 298.85 232.824 299.074C233.065 299.297 233.387 299.408 233.789 299.408C234.047 299.408 234.284 299.373 234.498 299.301C234.721 299.23 234.936 299.114 235.141 298.953C235.355 298.783 235.525 298.538 235.65 298.217C235.784 297.895 235.864 297.511 235.891 297.065ZM243.961 290.156H244.966C244.93 290.808 244.626 291.24 244.055 291.455C243.743 291.562 243.475 291.633 243.252 291.669C242.252 291.794 241.672 291.879 241.511 291.923C240.904 292.093 240.44 292.401 240.118 292.847C239.797 293.285 239.627 293.914 239.61 294.735H239.636C240.065 293.584 240.944 293.008 242.274 293.008C243.354 293.008 244.162 293.365 244.698 294.079C245.242 294.784 245.515 295.65 245.515 296.677C245.515 297.659 245.233 298.498 244.671 299.194C244.109 299.89 243.274 300.239 242.167 300.239C240.944 300.239 240.038 299.774 239.449 298.846C239.154 298.337 238.954 297.766 238.846 297.132C238.775 296.632 238.739 296.137 238.739 295.646C238.739 293.923 239.003 292.718 239.529 292.03C239.993 291.432 240.623 291.049 241.417 290.879C242.167 290.709 242.801 290.611 243.319 290.584C243.667 290.54 243.881 290.397 243.961 290.156ZM239.985 296.757C239.985 297.346 240.118 297.913 240.386 298.458C240.699 299.091 241.283 299.408 242.14 299.408C242.819 299.408 243.341 299.181 243.707 298.725C244.082 298.261 244.269 297.623 244.269 296.811C244.269 296.141 244.153 295.521 243.921 294.949C243.627 294.209 243.033 293.838 242.14 293.838C241.248 293.838 240.645 294.2 240.333 294.923C240.101 295.476 239.985 296.088 239.985 296.757ZM246.837 297.909C246.605 296.954 246.614 296.03 246.864 295.137C247.114 294.244 247.641 293.606 248.444 293.222C248.891 293.008 249.413 292.901 250.011 292.901C250.609 292.901 251.131 293.008 251.578 293.222C252.381 293.597 252.912 294.267 253.171 295.231C253.287 295.677 253.345 296.128 253.345 296.583C253.354 297.029 253.3 297.471 253.184 297.909C253.077 298.337 252.885 298.73 252.609 299.087C252.341 299.444 251.997 299.725 251.578 299.931C251.122 300.136 250.6 300.239 250.011 300.239C249.422 300.239 248.9 300.136 248.444 299.931C247.668 299.556 247.132 298.882 246.837 297.909ZM248.083 295.217C247.967 295.574 247.909 296.021 247.909 296.556C247.909 297.083 247.967 297.534 248.083 297.909C248.199 298.284 248.333 298.565 248.484 298.752C248.806 299.109 249.172 299.319 249.582 299.382C249.868 299.426 250.154 299.426 250.439 299.382C250.564 299.373 250.738 299.31 250.962 299.194C251.203 299.069 251.399 298.913 251.551 298.725C251.702 298.538 251.832 298.266 251.939 297.909C252.055 297.534 252.113 297.083 252.113 296.556C252.113 296.021 252.055 295.574 251.939 295.217C251.814 294.824 251.676 294.543 251.524 294.374C251.381 294.204 251.203 294.061 250.988 293.945C250.774 293.829 250.591 293.758 250.439 293.731C250.154 293.686 249.868 293.686 249.582 293.731C249.457 293.74 249.279 293.807 249.047 293.932C248.592 294.155 248.27 294.583 248.083 295.217ZM256.046 299.971V293.999H253.689V293.169H259.581V293.999H257.224V299.971H256.046ZM261.738 293.169V296.141L264.643 293.169H266.022L262.836 296.329L266.197 299.971H264.791L261.738 296.57V299.971H260.559V293.169H261.738ZM268.289 293.169V298.592L271.837 293.169H273.149V299.971H271.971V294.534L268.436 299.971H267.11V293.169H268.289Z" fill="black"/>
<path d="M23.7136 280.565H19.0003V284.971H17.7417V275.598H19.0003V279.508H23.7136V275.598H24.9722V284.971H23.7136V280.565ZM28.2522 278.169V283.592L31.8006 278.169H33.1128V284.971H31.9345V279.534L28.3995 284.971H27.0739V278.169H28.2522ZM34.5017 282.882H35.6264C35.6264 283.328 35.7871 283.694 36.1085 283.98C36.4298 284.265 36.8717 284.408 37.4341 284.408C37.9875 284.408 38.4205 284.297 38.7329 284.074C39.0453 283.841 39.2016 283.507 39.2016 283.069C39.2016 282.257 38.6883 281.851 37.6617 281.851H36.6575V281.021H37.5278C38.474 281.021 38.9472 280.668 38.9472 279.963C38.9472 279.847 38.9293 279.731 38.8936 279.615C38.8668 279.499 38.8043 279.369 38.7061 279.226C38.6169 279.075 38.4607 278.954 38.2375 278.865C38.0143 278.776 37.7376 278.731 37.4073 278.731C36.8182 278.731 36.4031 278.869 36.162 279.146C35.921 279.423 35.8005 279.722 35.8005 280.043H34.6758C34.7025 279.579 34.823 279.191 35.0373 278.878C35.2515 278.566 35.5283 278.343 35.8675 278.209C36.4209 278.003 36.9565 277.901 37.4743 277.901C37.9295 277.901 38.3312 277.954 38.6794 278.061C39.0275 278.16 39.2908 278.28 39.4694 278.423C39.6568 278.566 39.8041 278.735 39.9112 278.932C40.0273 279.128 40.0987 279.302 40.1255 279.454C40.1522 279.597 40.1656 279.74 40.1656 279.883C40.1656 280.677 39.7729 281.172 38.9873 281.369V281.409C39.4069 281.471 39.7505 281.654 40.0183 281.958C40.2861 282.261 40.42 282.659 40.42 283.15C40.42 283.65 40.2415 284.105 39.8844 284.515C39.447 284.997 38.6615 285.239 37.5278 285.239C36.5727 285.239 35.8451 285.038 35.3453 284.636C34.7829 284.145 34.5017 283.56 34.5017 282.882ZM43.1329 278.169V281.141L46.0385 278.169H47.4177L44.2308 281.329L47.5917 284.971H46.1858L43.1329 281.57V284.971H41.9546V278.169H43.1329ZM49.684 278.169V283.592L53.2323 278.169H54.5446V284.971H53.3662V279.534L49.8313 284.971H48.5057V278.169H49.684ZM57.6474 278.169V283.592L61.1957 278.169H62.5079V284.971H61.3296V279.534L57.7947 284.971H56.469V278.169H57.6474ZM60.7538 275.598H61.7581C61.5706 276.58 60.9815 277.155 59.9906 277.325C59.821 277.352 59.6425 277.365 59.455 277.365C58.3035 277.365 57.567 276.897 57.2457 275.959C57.2189 275.897 57.1876 275.776 57.1519 275.598H58.1562C58.1294 275.83 58.2097 276.049 58.3972 276.254C58.5311 276.397 58.6873 276.504 58.8658 276.575C59.0265 276.629 59.2229 276.656 59.455 276.656C59.8389 276.656 60.1557 276.562 60.4057 276.374C60.6556 276.178 60.7717 275.919 60.7538 275.598ZM17.822 302.434V301.564C18.1612 301.609 18.3576 301.631 18.4112 301.631C18.7504 301.631 18.9914 301.506 19.1342 301.256C19.2235 301.122 19.2815 301.011 19.3083 300.921C19.3351 300.877 19.3931 300.729 19.4824 300.48L19.643 299.971L16.6972 293.169H18.1032L20.2858 298.672L22.0934 293.169H23.2717L20.5669 300.774C20.3527 301.381 20.1697 301.778 20.018 301.966C19.7144 302.323 19.3038 302.501 18.7861 302.501C18.3844 302.501 18.063 302.479 17.822 302.434ZM24.2364 302.448V293.169H25.3344V294.106H25.3746C25.9102 293.303 26.66 292.901 27.6241 292.901C28.5078 292.901 29.2398 293.209 29.82 293.825C30.4003 294.45 30.6904 295.365 30.6904 296.57C30.6904 297.802 30.3958 298.721 29.8066 299.328C29.2264 299.935 28.5078 300.239 27.6508 300.239C27.3831 300.239 27.0572 300.18 26.6734 300.064C26.111 299.895 25.6915 299.538 25.4147 298.993V302.448H24.2364ZM25.3344 296.596C25.3344 297.543 25.5486 298.252 25.9771 298.725C26.4234 299.181 26.9099 299.408 27.4366 299.408C27.9901 299.408 28.4632 299.185 28.8559 298.739C29.2487 298.275 29.4451 297.552 29.4451 296.57C29.4451 295.677 29.2621 294.981 28.8961 294.481C28.539 293.981 28.0302 293.731 27.3697 293.731C27.0215 293.731 26.6957 293.825 26.3922 294.012C25.687 294.432 25.3344 295.293 25.3344 296.596ZM32.0117 297.909C31.7796 296.954 31.7885 296.03 32.0385 295.137C32.2884 294.244 32.8151 293.606 33.6185 293.222C34.0648 293.008 34.587 292.901 35.1851 292.901C35.7832 292.901 36.3054 293.008 36.7517 293.222C37.5551 293.597 38.0863 294.267 38.3451 295.231C38.4612 295.677 38.5192 296.128 38.5192 296.583C38.5281 297.029 38.4746 297.471 38.3585 297.909C38.2514 298.337 38.0595 298.73 37.7828 299.087C37.515 299.444 37.1713 299.725 36.7517 299.931C36.2965 300.136 35.7743 300.239 35.1851 300.239C34.5959 300.239 34.0737 300.136 33.6185 299.931C32.8419 299.556 32.3063 298.882 32.0117 297.909ZM33.2569 295.217C33.1409 295.574 33.0829 296.021 33.0829 296.556C33.0829 297.083 33.1409 297.534 33.2569 297.909C33.373 298.284 33.5069 298.565 33.6586 298.752C33.98 299.109 34.346 299.319 34.7566 299.382C35.0423 299.426 35.3279 299.426 35.6136 299.382C35.7386 299.373 35.9126 299.31 36.1358 299.194C36.3768 299.069 36.5732 298.913 36.7249 298.725C36.8767 298.538 37.0061 298.266 37.1133 297.909C37.2293 297.534 37.2873 297.083 37.2873 296.556C37.2873 296.021 37.2293 295.574 37.1133 295.217C36.9883 294.824 36.8499 294.543 36.6982 294.374C36.5553 294.204 36.3768 294.061 36.1626 293.945C35.9483 293.829 35.7653 293.758 35.6136 293.731C35.3279 293.686 35.0423 293.686 34.7566 293.731C34.6316 293.74 34.4531 293.807 34.221 293.932C33.7658 294.155 33.4444 294.583 33.2569 295.217ZM40.0716 299.971V293.169H43.312C44.7492 293.169 45.4677 293.709 45.4677 294.789C45.4677 295.565 45.0571 296.097 44.2359 296.382V296.422C44.7893 296.556 45.1732 296.771 45.3874 297.065C45.6106 297.36 45.7222 297.739 45.7222 298.203C45.7222 298.944 45.4499 299.435 44.9054 299.676C44.459 299.873 43.9145 299.971 43.2718 299.971H40.0716ZM42.937 293.999H41.2499V296.007H42.8835C43.3566 296.007 43.7047 295.914 43.9279 295.726C44.16 295.53 44.276 295.275 44.276 294.963C44.276 294.32 43.8297 293.999 42.937 293.999ZM42.937 296.837H41.2499V299.141H42.9772C43.9949 299.141 44.5037 298.792 44.5037 298.096C44.5037 297.257 43.9815 296.837 42.937 296.837ZM52.1903 298.002H53.3151C53.208 298.6 52.9179 299.123 52.4447 299.569C51.9716 300.015 51.2709 300.239 50.3425 300.239C49.0839 300.239 48.16 299.823 47.5708 298.993C47.2762 298.556 47.0843 298.087 46.995 297.587C46.9325 297.239 46.9013 296.909 46.9013 296.596C46.9013 295.998 46.9906 295.436 47.1691 294.909C47.2851 294.534 47.4548 294.209 47.6779 293.932C47.9189 293.637 48.2626 293.392 48.7089 293.195C49.1553 292.999 49.6596 292.901 50.222 292.901C51.2218 292.901 51.9761 293.178 52.4849 293.731C52.6992 293.963 52.8732 294.258 53.0071 294.615C53.2035 295.132 53.324 295.762 53.3686 296.503C53.3686 296.529 53.3686 296.588 53.3686 296.677C53.3776 296.766 53.382 296.82 53.382 296.837H48.1466C48.1466 297.516 48.3251 298.114 48.6822 298.632C49.0392 299.149 49.5793 299.408 50.3024 299.408C50.8201 299.408 51.2441 299.279 51.5744 299.02C51.9047 298.761 52.11 298.422 52.1903 298.002ZM48.1466 296.007H52.1368C52.1278 295.481 52.0029 294.994 51.7619 294.548C51.4851 294.003 50.9808 293.731 50.2488 293.731C49.4186 293.731 48.8473 294.008 48.5349 294.561C48.276 295.007 48.1466 295.49 48.1466 296.007ZM59.4653 296.797H56.1044V299.971H54.9261V293.169H56.1044V295.967H59.4653V293.169H60.6436V299.971H59.4653V296.797ZM62.5756 299.971V293.169H63.7539V295.873H65.4544C66.1239 295.873 66.6997 295.972 67.1817 296.168C67.8512 296.409 68.186 296.971 68.186 297.855C68.186 298.587 67.9717 299.132 67.5433 299.489C67.3647 299.631 67.155 299.739 66.9139 299.81C66.5926 299.917 66.24 299.971 65.8561 299.971H62.5756ZM65.1866 296.704H63.7539V299.141H65.3875C65.9409 299.141 66.3471 299.029 66.606 298.806C66.8648 298.547 66.9854 298.23 66.9675 297.855C66.9675 297.444 66.8336 297.141 66.5658 296.945C66.4765 296.882 66.3337 296.829 66.1373 296.784C65.9231 296.73 65.6419 296.704 65.2938 296.704H65.1866ZM72.3646 297.909C72.1325 296.954 72.1414 296.03 72.3914 295.137C72.6413 294.244 73.168 293.606 73.9714 293.222C74.4177 293.008 74.9399 292.901 75.538 292.901C76.1361 292.901 76.6583 293.008 77.1046 293.222C77.908 293.597 78.4392 294.267 78.698 295.231C78.8141 295.677 78.8721 296.128 78.8721 296.583C78.881 297.029 78.8275 297.471 78.7114 297.909C78.6043 298.337 78.4124 298.73 78.1357 299.087C77.8679 299.444 77.5242 299.725 77.1046 299.931C76.6494 300.136 76.1272 300.239 75.538 300.239C74.9489 300.239 74.4266 300.136 73.9714 299.931C73.1948 299.556 72.6592 298.882 72.3646 297.909ZM73.6099 295.217C73.4938 295.574 73.4358 296.021 73.4358 296.556C73.4358 297.083 73.4938 297.534 73.6099 297.909C73.7259 298.284 73.8598 298.565 74.0116 298.752C74.3329 299.109 74.6989 299.319 75.1095 299.382C75.3952 299.426 75.6808 299.426 75.9665 299.382C76.0915 299.373 76.2655 299.31 76.4887 299.194C76.7297 299.069 76.9261 298.913 77.0779 298.725C77.2296 298.538 77.359 298.266 77.4662 297.909C77.5822 297.534 77.6402 297.083 77.6402 296.556C77.6402 296.021 77.5822 295.574 77.4662 295.217C77.3412 294.824 77.2028 294.543 77.0511 294.374C76.9082 294.204 76.7297 294.061 76.5155 293.945C76.3012 293.829 76.1182 293.758 75.9665 293.731C75.6808 293.686 75.3952 293.686 75.1095 293.731C74.9846 293.74 74.806 293.807 74.5739 293.932C74.1187 294.155 73.7973 294.583 73.6099 295.217ZM85.044 293.999H81.6028V299.971H80.4245V293.169H86.2223V299.971H85.044V293.999ZM89.0496 295.177H87.9249C87.9249 294.642 88.1034 294.151 88.4605 293.704C88.8889 293.169 89.6745 292.901 90.8171 292.901C91.4866 292.901 92.0757 293.035 92.5846 293.303C92.8791 293.445 93.1112 293.682 93.2808 294.012C93.4504 294.342 93.5308 294.735 93.5219 295.19L93.4549 298.337C93.4549 298.596 93.4817 298.797 93.5353 298.94C93.6156 299.083 93.8254 299.149 94.1646 299.141V299.971C94.0307 300.006 93.8521 300.024 93.629 300.024C93.2362 300.024 92.9506 299.957 92.772 299.823C92.6024 299.69 92.4819 299.426 92.4105 299.033C91.9731 299.837 91.1965 300.239 90.0806 300.239C89.313 300.239 88.7193 300.069 88.2998 299.73C87.8892 299.382 87.6838 298.868 87.6838 298.19C87.6838 297.547 87.9159 297.061 88.3801 296.73C88.8443 296.382 89.7236 296.15 91.0179 296.034C91.616 295.989 91.9731 295.931 92.0891 295.86C92.2587 295.744 92.3435 295.49 92.3435 295.097C92.3435 294.186 91.8347 293.731 90.8171 293.731C89.612 293.731 89.0228 294.213 89.0496 295.177ZM92.3168 297.065L92.3435 296.489C92.2096 296.588 92.0133 296.668 91.7544 296.73C91.3616 296.757 91.0581 296.788 90.8439 296.824C90.103 296.949 89.6522 297.052 89.4915 297.132C89.0987 297.319 88.9023 297.659 88.9023 298.15C88.9023 298.542 89.0184 298.85 89.2505 299.074C89.4915 299.297 89.8128 299.408 90.2145 299.408C90.4734 299.408 90.71 299.373 90.9242 299.301C91.1474 299.23 91.3616 299.114 91.5669 298.953C91.7812 298.783 91.9508 298.538 92.0757 298.217C92.2096 297.895 92.29 297.511 92.3168 297.065ZM100.32 297.547H101.445C101.409 298.065 101.213 298.609 100.856 299.181C100.66 299.502 100.352 299.761 99.9321 299.957C99.5215 300.145 99.0394 300.239 98.486 300.239C98.2985 300.239 98.1646 300.234 98.0843 300.225C97.6915 300.207 97.2898 300.105 96.8792 299.917C95.7366 299.346 95.1653 298.212 95.1653 296.516C95.1653 295.623 95.3706 294.829 95.7812 294.133C96.29 293.311 97.1648 292.901 98.4056 292.901C99.2804 292.901 99.9767 293.124 100.494 293.57C101.012 294.008 101.311 294.583 101.392 295.298H100.267C100.088 294.253 99.4768 293.731 98.4324 293.731C97.754 293.731 97.2452 293.981 96.906 294.481C96.5757 294.972 96.4105 295.65 96.4105 296.516C96.4105 297.355 96.5846 298.047 96.9327 298.592C97.2809 299.136 97.8075 299.408 98.5127 299.408C99.1198 299.408 99.5616 299.216 99.8384 298.833C100.133 298.449 100.294 298.02 100.32 297.547ZM107.428 296.797H104.068V299.971H102.889V293.169H104.068V295.967H107.428V293.169H108.607V299.971H107.428V296.797ZM110.325 297.909C110.092 296.954 110.101 296.03 110.351 295.137C110.601 294.244 111.128 293.606 111.931 293.222C112.378 293.008 112.9 292.901 113.498 292.901C114.096 292.901 114.618 293.008 115.065 293.222C115.868 293.597 116.399 294.267 116.658 295.231C116.774 295.677 116.832 296.128 116.832 296.583C116.841 297.029 116.787 297.471 116.671 297.909C116.564 298.337 116.372 298.73 116.096 299.087C115.828 299.444 115.484 299.725 115.065 299.931C114.609 300.136 114.087 300.239 113.498 300.239C112.909 300.239 112.387 300.136 111.931 299.931C111.155 299.556 110.619 298.882 110.325 297.909ZM111.57 295.217C111.454 295.574 111.396 296.021 111.396 296.556C111.396 297.083 111.454 297.534 111.57 297.909C111.686 298.284 111.82 298.565 111.972 298.752C112.293 299.109 112.659 299.319 113.07 299.382C113.355 299.426 113.641 299.426 113.926 299.382C114.051 299.373 114.226 299.31 114.449 299.194C114.69 299.069 114.886 298.913 115.038 298.725C115.19 298.538 115.319 298.266 115.426 297.909C115.542 297.534 115.6 297.083 115.6 296.556C115.6 296.021 115.542 295.574 115.426 295.217C115.301 294.824 115.163 294.543 115.011 294.374C114.868 294.204 114.69 294.061 114.475 293.945C114.261 293.829 114.078 293.758 113.926 293.731C113.641 293.686 113.355 293.686 113.07 293.731C112.945 293.74 112.766 293.807 112.534 293.932C112.079 294.155 111.757 294.583 111.57 295.217ZM123.151 297.547H124.276C124.24 298.065 124.044 298.609 123.687 299.181C123.491 299.502 123.183 299.761 122.763 299.957C122.352 300.145 121.87 300.239 121.317 300.239C121.129 300.239 120.996 300.234 120.915 300.225C120.522 300.207 120.121 300.105 119.71 299.917C118.567 299.346 117.996 298.212 117.996 296.516C117.996 295.623 118.201 294.829 118.612 294.133C119.121 293.311 119.996 292.901 121.237 292.901C122.111 292.901 122.808 293.124 123.325 293.57C123.843 294.008 124.142 294.583 124.222 295.298H123.098C122.919 294.253 122.308 293.731 121.263 293.731C120.585 293.731 120.076 293.981 119.737 294.481C119.407 294.972 119.241 295.65 119.241 296.516C119.241 297.355 119.416 298.047 119.764 298.592C120.112 299.136 120.638 299.408 121.344 299.408C121.951 299.408 122.393 299.216 122.669 298.833C122.964 298.449 123.125 298.02 123.151 297.547ZM127.051 299.971V293.999H124.695V293.169H130.586V293.999H128.23V299.971H127.051ZM132.665 293.169V298.592L136.213 293.169H137.526V299.971H136.347V294.534L132.812 299.971H131.487V293.169H132.665Z" fill="black"/>
<path d="M40.5711 241.771H43.9186V245.119H40.5711V241.771ZM37.2236 248.466V245.119H40.5711V248.466H37.2236ZM33.8761 251.814V248.466H37.2236V251.814H33.8761ZM30.5286 255.161H33.8761V251.814H30.5286V255.161ZM27.1811 258.509H30.5286V255.161H27.1811V258.509ZM23.8336 258.509V261.856H27.1811V258.509H23.8336ZM20.4862 255.161H23.8336V258.509H20.4862V255.161ZM20.4862 255.161H17.1387V251.814H20.4862V255.161Z" fill="black"/>
</svg>
