<svg width="595" height="595" viewBox="0 0 595 595" fill="none" xmlns="http://www.w3.org/2000/svg">
<rect width="595" height="595" fill="#FFFF00"/>
<path d="M47.6 322.5V338.025H50.125L49.9 343.95H47.85V340H34.25V343.95H32.2L32 338.025H33.575C35.7917 335.258 36.9 331.283 36.9 326.1V322.5H47.6ZM45.25 338.025V324.475H39.25V326.65C39.25 329.133 39.0417 331.242 38.625 332.975C38.1917 334.775 37.4417 336.458 36.375 338.025H45.25ZM53.932 331.05H51.832C51.832 330.05 52.1654 329.133 52.832 328.3C53.632 327.3 55.0987 326.8 57.232 326.8C58.482 326.8 59.582 327.05 60.532 327.55C61.082 327.817 61.5154 328.258 61.832 328.875C62.1487 329.492 62.2987 330.225 62.282 331.075L62.157 336.95C62.157 337.433 62.207 337.808 62.307 338.075C62.457 338.342 62.8487 338.467 63.482 338.45V340C63.232 340.067 62.8987 340.1 62.482 340.1C61.7487 340.1 61.2154 339.975 60.882 339.725C60.5654 339.475 60.3404 338.983 60.207 338.25C59.3904 339.75 57.9404 340.5 55.857 340.5C54.4237 340.5 53.3154 340.183 52.532 339.55C51.7654 338.9 51.382 337.942 51.382 336.675C51.382 335.475 51.8154 334.567 52.682 333.95C53.5487 333.3 55.1904 332.867 57.607 332.65C58.7237 332.567 59.3904 332.458 59.607 332.325C59.9237 332.108 60.082 331.633 60.082 330.9C60.082 329.2 59.132 328.35 57.232 328.35C54.982 328.35 53.882 329.25 53.932 331.05ZM60.032 334.575L60.082 333.5C59.832 333.683 59.4654 333.833 58.982 333.95C58.2487 334 57.682 334.058 57.282 334.125C55.8987 334.358 55.057 334.55 54.757 334.7C54.0237 335.05 53.657 335.683 53.657 336.6C53.657 337.333 53.8737 337.908 54.307 338.325C54.757 338.742 55.357 338.95 56.107 338.95C56.5904 338.95 57.032 338.883 57.432 338.75C57.8487 338.617 58.2487 338.4 58.632 338.1C59.032 337.783 59.3487 337.325 59.582 336.725C59.832 336.125 59.982 335.408 60.032 334.575ZM74.5504 334.075H68.2754V340H66.0754V327.3H68.2754V332.525H74.5504V327.3H76.7504V340H74.5504V334.075ZM88.8326 334.075H82.5576V340H80.3576V327.3H82.5576V332.525H88.8326V327.3H91.0326V340H88.8326V334.075ZM94.6398 340V327.3H96.8398V332.325H100.04C101.057 332.325 101.907 332.425 102.59 332.625C104.223 333.042 105.073 334.233 105.14 336.2C105.14 337.367 104.782 338.292 104.065 338.975C103.365 339.658 102.273 340 100.79 340H94.6398ZM99.5148 333.875H96.8398V338.45H99.9148C101.882 338.45 102.865 337.65 102.865 336.05C102.865 335.267 102.607 334.7 102.09 334.35C101.923 334.217 101.648 334.108 101.265 334.025C100.865 333.925 100.282 333.875 99.5148 333.875ZM106.69 340V327.3H108.89V340H106.69ZM114.687 327.3V337.425L121.312 327.3H123.762V340H121.562V329.85L114.962 340H112.487V327.3H114.687ZM120.487 322.5H122.362C122.012 324.333 120.912 325.408 119.062 325.725C118.745 325.775 118.412 325.8 118.062 325.8C115.912 325.8 114.537 324.925 113.937 323.175C113.887 323.058 113.828 322.833 113.762 322.5H115.637C115.587 322.933 115.737 323.342 116.087 323.725C116.337 323.992 116.628 324.192 116.962 324.325C117.262 324.425 117.628 324.475 118.062 324.475C118.778 324.475 119.37 324.3 119.837 323.95C120.303 323.583 120.52 323.1 120.487 322.5ZM133.19 340V327.3H139.24C141.923 327.3 143.265 328.308 143.265 330.325C143.265 331.775 142.498 332.767 140.965 333.3V333.375C141.998 333.625 142.715 334.025 143.115 334.575C143.531 335.125 143.74 335.833 143.74 336.7C143.74 338.083 143.231 339 142.215 339.45C141.381 339.817 140.365 340 139.165 340H133.19ZM138.54 328.85H135.39V332.6H138.44C139.323 332.6 139.973 332.425 140.39 332.075C140.823 331.708 141.04 331.233 141.04 330.65C141.04 329.45 140.206 328.85 138.54 328.85ZM138.54 334.15H135.39V338.45H138.615C140.515 338.45 141.465 337.8 141.465 336.5C141.465 334.933 140.49 334.15 138.54 334.15ZM148.866 327.3V337.425L155.491 327.3H157.941V340H155.741V329.85L149.141 340H146.666V327.3H148.866ZM159.934 343.3L159.734 338.45H161.334C162.718 336.417 163.409 333.408 163.409 329.425V327.3H172.509V338.45H174.709L174.534 343.3H172.684V340H161.784V343.3H159.934ZM170.309 338.45V328.85H165.459V330.625C165.459 331.975 165.309 333.375 165.009 334.825C164.743 336.258 164.293 337.467 163.659 338.45H170.309ZM191.058 328.85H184.633V340H182.433V327.3H193.258V340H191.058V328.85ZM195.387 340V338.375C196.637 338.742 197.52 338.15 198.037 336.6C198.17 336.217 198.262 335.742 198.312 335.175L198.412 333.65C198.428 333.383 198.437 332.858 198.437 332.075V327.3H207.237V340H205.037V328.85H200.487V332.075C200.487 333.125 200.462 334.008 200.412 334.725C200.362 335.425 200.237 336.192 200.037 337.025C199.753 338.208 199.245 339.05 198.512 339.55C197.778 340.05 196.737 340.2 195.387 340ZM212.501 331.05H210.401C210.401 330.05 210.735 329.133 211.401 328.3C212.201 327.3 213.668 326.8 215.801 326.8C217.051 326.8 218.151 327.05 219.101 327.55C219.651 327.817 220.085 328.258 220.401 328.875C220.718 329.492 220.868 330.225 220.851 331.075L220.726 336.95C220.726 337.433 220.776 337.808 220.876 338.075C221.026 338.342 221.418 338.467 222.051 338.45V340C221.801 340.067 221.468 340.1 221.051 340.1C220.318 340.1 219.785 339.975 219.451 339.725C219.135 339.475 218.91 338.983 218.776 338.25C217.96 339.75 216.51 340.5 214.426 340.5C212.993 340.5 211.885 340.183 211.101 339.55C210.335 338.9 209.951 337.942 209.951 336.675C209.951 335.475 210.385 334.567 211.251 333.95C212.118 333.3 213.76 332.867 216.176 332.65C217.293 332.567 217.96 332.458 218.176 332.325C218.493 332.108 218.651 331.633 218.651 330.9C218.651 329.2 217.701 328.35 215.801 328.35C213.551 328.35 212.451 329.25 212.501 331.05ZM218.601 334.575L218.651 333.5C218.401 333.683 218.035 333.833 217.551 333.95C216.818 334 216.251 334.058 215.851 334.125C214.468 334.358 213.626 334.55 213.326 334.7C212.593 335.05 212.226 335.683 212.226 336.6C212.226 337.333 212.443 337.908 212.876 338.325C213.326 338.742 213.926 338.95 214.676 338.95C215.16 338.95 215.601 338.883 216.001 338.75C216.418 338.617 216.818 338.4 217.201 338.1C217.601 337.783 217.918 337.325 218.151 336.725C218.401 336.125 218.551 335.408 218.601 334.575ZM233.545 335.475H235.645C235.578 336.442 235.211 337.458 234.545 338.525C234.178 339.125 233.603 339.608 232.82 339.975C232.053 340.325 231.153 340.5 230.12 340.5C229.77 340.5 229.52 340.492 229.37 340.475C228.636 340.442 227.886 340.25 227.12 339.9C224.986 338.833 223.92 336.717 223.92 333.55C223.92 331.883 224.303 330.4 225.07 329.1C226.02 327.567 227.653 326.8 229.97 326.8C231.603 326.8 232.903 327.217 233.87 328.05C234.836 328.867 235.395 329.942 235.545 331.275H233.445C233.111 329.325 231.97 328.35 230.02 328.35C228.753 328.35 227.803 328.817 227.17 329.75C226.553 330.667 226.245 331.933 226.245 333.55C226.245 335.117 226.57 336.408 227.22 337.425C227.87 338.442 228.853 338.95 230.17 338.95C231.303 338.95 232.128 338.592 232.645 337.875C233.195 337.158 233.495 336.358 233.545 335.475ZM240.827 340V328.85H236.427V327.3H247.427V328.85H243.027V340H240.827ZM251.308 327.3V337.425L257.933 327.3H260.383V340H258.183V329.85L251.583 340H249.108V327.3H251.308ZM266.176 327.3V332.85L271.601 327.3H274.176L268.226 333.2L274.501 340H271.876L266.176 333.65V340H263.976V327.3H266.176ZM277.882 331.05H275.782C275.782 330.05 276.116 329.133 276.782 328.3C277.582 327.3 279.049 326.8 281.182 326.8C282.432 326.8 283.532 327.05 284.482 327.55C285.032 327.817 285.466 328.258 285.782 328.875C286.099 329.492 286.249 330.225 286.232 331.075L286.107 336.95C286.107 337.433 286.157 337.808 286.257 338.075C286.407 338.342 286.799 338.467 287.432 338.45V340C287.182 340.067 286.849 340.1 286.432 340.1C285.699 340.1 285.166 339.975 284.832 339.725C284.516 339.475 284.291 338.983 284.157 338.25C283.341 339.75 281.891 340.5 279.807 340.5C278.374 340.5 277.266 340.183 276.482 339.55C275.716 338.9 275.332 337.942 275.332 336.675C275.332 335.475 275.766 334.567 276.632 333.95C277.499 333.3 279.141 332.867 281.557 332.65C282.674 332.567 283.341 332.458 283.557 332.325C283.874 332.108 284.032 331.633 284.032 330.9C284.032 329.2 283.082 328.35 281.182 328.35C278.932 328.35 277.832 329.25 277.882 331.05ZM283.982 334.575L284.032 333.5C283.782 333.683 283.416 333.833 282.932 333.95C282.199 334 281.632 334.058 281.232 334.125C279.849 334.358 279.007 334.55 278.707 334.7C277.974 335.05 277.607 335.683 277.607 336.6C277.607 337.333 277.824 337.908 278.257 338.325C278.707 338.742 279.307 338.95 280.057 338.95C280.541 338.95 280.982 338.883 281.382 338.75C281.799 338.617 282.199 338.4 282.582 338.1C282.982 337.783 283.299 337.325 283.532 336.725C283.782 336.125 283.932 335.408 283.982 334.575ZM298.061 327.3V337.425L304.686 327.3H307.136V340H304.936V329.85L298.336 340H295.861V327.3H298.061ZM319.629 335.475H321.729C321.662 336.442 321.295 337.458 320.629 338.525C320.262 339.125 319.687 339.608 318.904 339.975C318.137 340.325 317.237 340.5 316.204 340.5C315.854 340.5 315.604 340.492 315.454 340.475C314.72 340.442 313.97 340.25 313.204 339.9C311.07 338.833 310.004 336.717 310.004 333.55C310.004 331.883 310.387 330.4 311.154 329.1C312.104 327.567 313.737 326.8 316.054 326.8C317.687 326.8 318.987 327.217 319.954 328.05C320.92 328.867 321.479 329.942 321.629 331.275H319.529C319.195 329.325 318.054 328.35 316.104 328.35C314.837 328.35 313.887 328.817 313.254 329.75C312.637 330.667 312.329 331.933 312.329 333.55C312.329 335.117 312.654 336.408 313.304 337.425C313.954 338.442 314.937 338.95 316.254 338.95C317.387 338.95 318.212 338.592 318.729 337.875C319.279 337.158 319.579 336.358 319.629 335.475ZM333.05 328.85H326.625V340H324.425V327.3H335.25V340H333.05V328.85ZM338.454 336.15C338.02 334.367 338.037 332.642 338.504 330.975C338.97 329.308 339.954 328.117 341.454 327.4C342.287 327 343.262 326.8 344.379 326.8C345.495 326.8 346.47 327 347.304 327.4C348.804 328.1 349.795 329.35 350.279 331.15C350.495 331.983 350.604 332.825 350.604 333.675C350.62 334.508 350.52 335.333 350.304 336.15C350.104 336.95 349.745 337.683 349.229 338.35C348.729 339.017 348.087 339.542 347.304 339.925C346.454 340.308 345.479 340.5 344.379 340.5C343.279 340.5 342.304 340.308 341.454 339.925C340.004 339.225 339.004 337.967 338.454 336.15ZM340.779 331.125C340.562 331.792 340.454 332.625 340.454 333.625C340.454 334.608 340.562 335.45 340.779 336.15C340.995 336.85 341.245 337.375 341.529 337.725C342.129 338.392 342.812 338.783 343.579 338.9C344.112 338.983 344.645 338.983 345.179 338.9C345.412 338.883 345.737 338.767 346.154 338.55C346.604 338.317 346.97 338.025 347.254 337.675C347.537 337.325 347.779 336.817 347.979 336.15C348.195 335.45 348.304 334.608 348.304 333.625C348.304 332.625 348.195 331.792 347.979 331.125C347.745 330.392 347.487 329.867 347.204 329.55C346.937 329.233 346.604 328.967 346.204 328.75C345.804 328.533 345.462 328.4 345.179 328.35C344.645 328.267 344.112 328.267 343.579 328.35C343.345 328.367 343.012 328.492 342.579 328.725C341.729 329.142 341.129 329.942 340.779 331.125ZM352.027 340V338.375C353.277 338.742 354.16 338.15 354.677 336.6C354.81 336.217 354.902 335.742 354.952 335.175L355.052 333.65C355.069 333.383 355.077 332.858 355.077 332.075V327.3H363.877V340H361.677V328.85H357.127V332.075C357.127 333.125 357.102 334.008 357.052 334.725C357.002 335.425 356.877 336.192 356.677 337.025C356.394 338.208 355.885 339.05 355.152 339.55C354.419 340.05 353.377 340.2 352.027 340ZM367.467 340V327.3H369.667V332.35H372.842C374.092 332.35 375.167 332.533 376.067 332.9C377.317 333.35 377.942 334.4 377.942 336.05C377.942 337.417 377.542 338.433 376.742 339.1C376.409 339.367 376.017 339.567 375.567 339.7C374.967 339.9 374.309 340 373.592 340H367.467ZM372.342 333.9H369.667V338.45H372.717C373.75 338.45 374.509 338.242 374.992 337.825C375.475 337.342 375.7 336.75 375.667 336.05C375.667 335.283 375.417 334.717 374.917 334.35C374.75 334.233 374.484 334.133 374.117 334.05C373.717 333.95 373.192 333.9 372.542 333.9H372.342ZM379.162 336.1H381.262C381.262 336.933 381.562 337.617 382.162 338.15C382.762 338.683 383.587 338.95 384.637 338.95C385.671 338.95 386.479 338.742 387.062 338.325C387.646 337.892 387.937 337.267 387.937 336.45C387.937 334.933 386.979 334.175 385.062 334.175H383.187V332.625H384.812C386.579 332.625 387.462 331.967 387.462 330.65C387.462 330.433 387.429 330.217 387.362 330C387.312 329.783 387.196 329.542 387.012 329.275C386.846 328.992 386.554 328.767 386.137 328.6C385.721 328.433 385.204 328.35 384.587 328.35C383.487 328.35 382.712 328.608 382.262 329.125C381.812 329.642 381.587 330.2 381.587 330.8H379.487C379.537 329.933 379.762 329.208 380.162 328.625C380.562 328.042 381.079 327.625 381.712 327.375C382.746 326.992 383.746 326.8 384.712 326.8C385.562 326.8 386.312 326.9 386.962 327.1C387.612 327.283 388.104 327.508 388.437 327.775C388.787 328.042 389.062 328.358 389.262 328.725C389.479 329.092 389.612 329.417 389.662 329.7C389.712 329.967 389.737 330.233 389.737 330.5C389.737 331.983 389.004 332.908 387.537 333.275V333.35C388.321 333.467 388.962 333.808 389.462 334.375C389.962 334.942 390.212 335.683 390.212 336.6C390.212 337.533 389.879 338.383 389.212 339.15C388.396 340.05 386.929 340.5 384.812 340.5C383.029 340.5 381.671 340.125 380.737 339.375C379.687 338.458 379.162 337.367 379.162 336.1ZM393.235 344.6V342.975C393.868 343.058 394.235 343.1 394.335 343.1C394.968 343.1 395.418 342.867 395.685 342.4C395.852 342.15 395.96 341.942 396.01 341.775C396.06 341.692 396.168 341.417 396.335 340.95L396.635 340L391.135 327.3H393.76L397.835 337.575L401.21 327.3H403.41L398.36 341.5C397.96 342.633 397.618 343.375 397.335 343.725C396.768 344.392 396.002 344.725 395.035 344.725C394.285 344.725 393.685 344.683 393.235 344.6ZM414.361 336.325H416.461C416.261 337.442 415.719 338.417 414.836 339.25C413.953 340.083 412.644 340.5 410.911 340.5C408.561 340.5 406.836 339.725 405.736 338.175C405.186 337.358 404.828 336.483 404.661 335.55C404.544 334.9 404.486 334.283 404.486 333.7C404.486 332.583 404.653 331.533 404.986 330.55C405.203 329.85 405.519 329.242 405.936 328.725C406.386 328.175 407.028 327.717 407.861 327.35C408.694 326.983 409.636 326.8 410.686 326.8C412.553 326.8 413.961 327.317 414.911 328.35C415.311 328.783 415.636 329.333 415.886 330C416.253 330.967 416.478 332.142 416.561 333.525C416.561 333.575 416.561 333.683 416.561 333.85C416.578 334.017 416.586 334.117 416.586 334.15H406.811C406.811 335.417 407.144 336.533 407.811 337.5C408.478 338.467 409.486 338.95 410.836 338.95C411.803 338.95 412.594 338.708 413.211 338.225C413.828 337.742 414.211 337.108 414.361 336.325ZM406.811 332.6H414.261C414.244 331.617 414.011 330.708 413.561 329.875C413.044 328.858 412.103 328.35 410.736 328.35C409.186 328.35 408.119 328.867 407.536 329.9C407.053 330.733 406.811 331.633 406.811 332.6ZM422.394 340V328.85H417.994V327.3H428.994V328.85H424.594V340H422.394ZM439.38 335.475H441.48C441.413 336.442 441.046 337.458 440.38 338.525C440.013 339.125 439.438 339.608 438.655 339.975C437.888 340.325 436.988 340.5 435.955 340.5C435.605 340.5 435.355 340.492 435.205 340.475C434.471 340.442 433.721 340.25 432.955 339.9C430.821 338.833 429.755 336.717 429.755 333.55C429.755 331.883 430.138 330.4 430.905 329.1C431.855 327.567 433.488 326.8 435.805 326.8C437.438 326.8 438.738 327.217 439.705 328.05C440.671 328.867 441.23 329.942 441.38 331.275H439.28C438.946 329.325 437.805 328.35 435.855 328.35C434.588 328.35 433.638 328.817 433.005 329.75C432.388 330.667 432.08 331.933 432.08 333.55C432.08 335.117 432.405 336.408 433.055 337.425C433.705 338.442 434.688 338.95 436.005 338.95C437.138 338.95 437.963 338.592 438.48 337.875C439.03 337.158 439.33 336.358 439.38 335.475ZM451.951 335H449.051L445.726 340H443.301L446.801 334.975C445.834 334.875 445.051 334.5 444.451 333.85C443.851 333.2 443.551 332.35 443.551 331.3C443.551 330.317 443.809 329.458 444.326 328.725C444.943 327.775 446.109 327.3 447.826 327.3H454.151V340H451.951V335ZM451.951 333.45V328.85H448.776C446.809 328.85 445.826 329.642 445.826 331.225C445.826 331.875 446.068 332.408 446.551 332.825C447.034 333.242 447.801 333.45 448.851 333.45H451.951ZM32.2 371.3L32 366.45H33.6C34.9833 364.417 35.675 361.408 35.675 357.425V355.3H44.775V366.45H46.975L46.8 371.3H44.95V368H34.05V371.3H32.2ZM42.575 366.45V356.85H37.725V358.625C37.725 359.975 37.575 361.375 37.275 362.825C37.0083 364.258 36.5583 365.467 35.925 366.45H42.575ZM48.0232 368V366.375C49.2732 366.742 50.1566 366.15 50.6732 364.6C50.8066 364.217 50.8982 363.742 50.9482 363.175L51.0482 361.65C51.0649 361.383 51.0732 360.858 51.0732 360.075V355.3H59.8732V368H57.6732V356.85H53.1232V360.075C53.1232 361.125 53.0982 362.008 53.0482 362.725C52.9982 363.425 52.8732 364.192 52.6732 365.025C52.3899 366.208 51.8816 367.05 51.1482 367.55C50.4149 368.05 49.3732 368.2 48.0232 368ZM71.2381 363H68.3381L65.0131 368H62.5881L66.0881 362.975C65.1214 362.875 64.3381 362.5 63.7381 361.85C63.1381 361.2 62.8381 360.35 62.8381 359.3C62.8381 358.317 63.0964 357.458 63.6131 356.725C64.2298 355.775 65.3964 355.3 67.1131 355.3H73.4381V368H71.2381V363ZM71.2381 361.45V356.85H68.0631C66.0964 356.85 65.1131 357.642 65.1131 359.225C65.1131 359.875 65.3548 360.408 65.8381 360.825C66.3214 361.242 67.0881 361.45 68.1381 361.45H71.2381ZM85.0723 355.3V365.425L91.6973 355.3H94.1473V368H91.9473V357.85L85.3473 368H82.8723V355.3H85.0723ZM96.7404 364.1H98.8404C98.8404 364.933 99.1404 365.617 99.7404 366.15C100.34 366.683 101.165 366.95 102.215 366.95C103.249 366.95 104.057 366.742 104.64 366.325C105.224 365.892 105.515 365.267 105.515 364.45C105.515 362.933 104.557 362.175 102.64 362.175H100.765V360.625H102.39C104.157 360.625 105.04 359.967 105.04 358.65C105.04 358.433 105.007 358.217 104.94 358C104.89 357.783 104.774 357.542 104.59 357.275C104.424 356.992 104.132 356.767 103.715 356.6C103.299 356.433 102.782 356.35 102.165 356.35C101.065 356.35 100.29 356.608 99.8404 357.125C99.3904 357.642 99.1654 358.2 99.1654 358.8H97.0654C97.1154 357.933 97.3404 357.208 97.7404 356.625C98.1404 356.042 98.6571 355.625 99.2904 355.375C100.324 354.992 101.324 354.8 102.29 354.8C103.14 354.8 103.89 354.9 104.54 355.1C105.19 355.283 105.682 355.508 106.015 355.775C106.365 356.042 106.64 356.358 106.84 356.725C107.057 357.092 107.19 357.417 107.24 357.7C107.29 357.967 107.315 358.233 107.315 358.5C107.315 359.983 106.582 360.908 105.115 361.275V361.35C105.899 361.467 106.54 361.808 107.04 362.375C107.54 362.942 107.79 363.683 107.79 364.6C107.79 365.533 107.457 366.383 106.79 367.15C105.974 368.05 104.507 368.5 102.39 368.5C100.607 368.5 99.2488 368.125 98.3154 367.375C97.2654 366.458 96.7404 365.367 96.7404 364.1ZM119.355 356.85H112.855V368H110.655V355.3H119.355V356.85ZM120.436 364.15C120.003 362.367 120.019 360.642 120.486 358.975C120.953 357.308 121.936 356.117 123.436 355.4C124.269 355 125.244 354.8 126.361 354.8C127.478 354.8 128.453 355 129.286 355.4C130.786 356.1 131.778 357.35 132.261 359.15C132.478 359.983 132.586 360.825 132.586 361.675C132.603 362.508 132.503 363.333 132.286 364.15C132.086 364.95 131.728 365.683 131.211 366.35C130.711 367.017 130.069 367.542 129.286 367.925C128.436 368.308 127.461 368.5 126.361 368.5C125.261 368.5 124.286 368.308 123.436 367.925C121.986 367.225 120.986 365.967 120.436 364.15ZM122.761 359.125C122.544 359.792 122.436 360.625 122.436 361.625C122.436 362.608 122.544 363.45 122.761 364.15C122.978 364.85 123.228 365.375 123.511 365.725C124.111 366.392 124.794 366.783 125.561 366.9C126.094 366.983 126.628 366.983 127.161 366.9C127.394 366.883 127.719 366.767 128.136 366.55C128.586 366.317 128.953 366.025 129.236 365.675C129.519 365.325 129.761 364.817 129.961 364.15C130.178 363.45 130.286 362.608 130.286 361.625C130.286 360.625 130.178 359.792 129.961 359.125C129.728 358.392 129.469 357.867 129.186 357.55C128.919 357.233 128.586 356.967 128.186 356.75C127.786 356.533 127.444 356.4 127.161 356.35C126.628 356.267 126.094 356.267 125.561 356.35C125.328 356.367 124.994 356.492 124.561 356.725C123.711 357.142 123.111 357.942 122.761 359.125ZM137.628 368V356.85H133.228V355.3H144.228V356.85H139.828V368H137.628ZM145.485 364.15C145.052 362.367 145.068 360.642 145.535 358.975C146.002 357.308 146.985 356.117 148.485 355.4C149.318 355 150.293 354.8 151.41 354.8C152.527 354.8 153.502 355 154.335 355.4C155.835 356.1 156.827 357.35 157.31 359.15C157.527 359.983 157.635 360.825 157.635 361.675C157.652 362.508 157.552 363.333 157.335 364.15C157.135 364.95 156.777 365.683 156.26 366.35C155.76 367.017 155.118 367.542 154.335 367.925C153.485 368.308 152.51 368.5 151.41 368.5C150.31 368.5 149.335 368.308 148.485 367.925C147.035 367.225 146.035 365.967 145.485 364.15ZM147.81 359.125C147.593 359.792 147.485 360.625 147.485 361.625C147.485 362.608 147.593 363.45 147.81 364.15C148.027 364.85 148.277 365.375 148.56 365.725C149.16 366.392 149.843 366.783 150.61 366.9C151.143 366.983 151.677 366.983 152.21 366.9C152.443 366.883 152.768 366.767 153.185 366.55C153.635 366.317 154.002 366.025 154.285 365.675C154.568 365.325 154.81 364.817 155.01 364.15C155.227 363.45 155.335 362.608 155.335 361.625C155.335 360.625 155.227 359.792 155.01 359.125C154.777 358.392 154.518 357.867 154.235 357.55C153.968 357.233 153.635 356.967 153.235 356.75C152.835 356.533 152.493 356.4 152.21 356.35C151.677 356.267 151.143 356.267 150.61 356.35C150.377 356.367 150.043 356.492 149.61 356.725C148.76 357.142 148.16 357.942 147.81 359.125ZM160.533 368V355.3H166.583C169.267 355.3 170.608 356.308 170.608 358.325C170.608 359.775 169.842 360.767 168.308 361.3V361.375C169.342 361.625 170.058 362.025 170.458 362.575C170.875 363.125 171.083 363.833 171.083 364.7C171.083 366.083 170.575 367 169.558 367.45C168.725 367.817 167.708 368 166.508 368H160.533ZM165.883 356.85H162.733V360.6H165.783C166.667 360.6 167.317 360.425 167.733 360.075C168.167 359.708 168.383 359.233 168.383 358.65C168.383 357.45 167.55 356.85 165.883 356.85ZM165.883 362.15H162.733V366.45H165.958C167.858 366.45 168.808 365.8 168.808 364.5C168.808 362.933 167.833 362.15 165.883 362.15ZM172.535 368V366.375C173.785 366.742 174.668 366.15 175.185 364.6C175.318 364.217 175.41 363.742 175.46 363.175L175.56 361.65C175.577 361.383 175.585 360.858 175.585 360.075V355.3H184.385V368H182.185V356.85H177.635V360.075C177.635 361.125 177.61 362.008 177.56 362.725C177.51 363.425 177.385 364.192 177.185 365.025C176.902 366.208 176.393 367.05 175.66 367.55C174.927 368.05 173.885 368.2 172.535 368ZM197.125 364.325H199.225C199.025 365.442 198.483 366.417 197.6 367.25C196.716 368.083 195.408 368.5 193.675 368.5C191.325 368.5 189.6 367.725 188.5 366.175C187.95 365.358 187.591 364.483 187.425 363.55C187.308 362.9 187.25 362.283 187.25 361.7C187.25 360.583 187.416 359.533 187.75 358.55C187.966 357.85 188.283 357.242 188.7 356.725C189.15 356.175 189.791 355.717 190.625 355.35C191.458 354.983 192.4 354.8 193.45 354.8C195.316 354.8 196.725 355.317 197.675 356.35C198.075 356.783 198.4 357.333 198.65 358C199.016 358.967 199.241 360.142 199.325 361.525C199.325 361.575 199.325 361.683 199.325 361.85C199.341 362.017 199.35 362.117 199.35 362.15H189.575C189.575 363.417 189.908 364.533 190.575 365.5C191.241 366.467 192.25 366.95 193.6 366.95C194.566 366.95 195.358 366.708 195.975 366.225C196.591 365.742 196.975 365.108 197.125 364.325ZM189.575 360.6H197.025C197.008 359.617 196.775 358.708 196.325 357.875C195.808 356.858 194.866 356.35 193.5 356.35C191.95 356.35 190.883 356.867 190.3 357.9C189.816 358.733 189.575 359.633 189.575 360.6ZM210.708 362.075H204.433V368H202.233V355.3H204.433V360.525H210.708V355.3H212.908V368H210.708V362.075ZM218.715 355.3V365.425L225.34 355.3H227.79V368H225.59V357.85L218.99 368H216.515V355.3H218.715ZM239.158 363H236.258L232.933 368H230.508L234.008 362.975C233.041 362.875 232.258 362.5 231.658 361.85C231.058 361.2 230.758 360.35 230.758 359.3C230.758 358.317 231.016 357.458 231.533 356.725C232.15 355.775 233.316 355.3 235.033 355.3H241.358V368H239.158V363ZM239.158 361.45V356.85H235.983C234.016 356.85 233.033 357.642 233.033 359.225C233.033 359.875 233.275 360.408 233.758 360.825C234.241 361.242 235.008 361.45 236.058 361.45H239.158ZM250.792 368V355.3H256.842C259.526 355.3 260.867 356.308 260.867 358.325C260.867 359.775 260.101 360.767 258.567 361.3V361.375C259.601 361.625 260.317 362.025 260.717 362.575C261.134 363.125 261.342 363.833 261.342 364.7C261.342 366.083 260.834 367 259.817 367.45C258.984 367.817 257.967 368 256.767 368H250.792ZM256.142 356.85H252.992V360.6H256.042C256.926 360.6 257.576 360.425 257.992 360.075C258.426 359.708 258.642 359.233 258.642 358.65C258.642 357.45 257.809 356.85 256.142 356.85ZM256.142 362.15H252.992V366.45H256.217C258.117 366.45 259.067 365.8 259.067 364.5C259.067 362.933 258.092 362.15 256.142 362.15ZM273.419 364.325H275.519C275.319 365.442 274.777 366.417 273.894 367.25C273.01 368.083 271.702 368.5 269.969 368.5C267.619 368.5 265.894 367.725 264.794 366.175C264.244 365.358 263.885 364.483 263.719 363.55C263.602 362.9 263.544 362.283 263.544 361.7C263.544 360.583 263.71 359.533 264.044 358.55C264.26 357.85 264.577 357.242 264.994 356.725C265.444 356.175 266.085 355.717 266.919 355.35C267.752 354.983 268.694 354.8 269.744 354.8C271.61 354.8 273.019 355.317 273.969 356.35C274.369 356.783 274.694 357.333 274.944 358C275.31 358.967 275.535 360.142 275.619 361.525C275.619 361.575 275.619 361.683 275.619 361.85C275.635 362.017 275.644 362.117 275.644 362.15H265.869C265.869 363.417 266.202 364.533 266.869 365.5C267.535 366.467 268.544 366.95 269.894 366.95C270.86 366.95 271.652 366.708 272.269 366.225C272.885 365.742 273.269 365.108 273.419 364.325ZM265.869 360.6H273.319C273.302 359.617 273.069 358.708 272.619 357.875C272.102 356.858 271.16 356.35 269.794 356.35C268.244 356.35 267.177 356.867 266.594 357.9C266.11 358.733 265.869 359.633 265.869 360.6ZM276.927 371.3L276.727 366.45H278.327C279.71 364.417 280.402 361.408 280.402 357.425V355.3H289.502V366.45H291.702L291.527 371.3H289.677V368H278.777V371.3H276.927ZM287.302 366.45V356.85H282.452V358.625C282.452 359.975 282.302 361.375 282.002 362.825C281.735 364.258 281.285 365.467 280.652 366.45H287.302ZM302.74 364.325H304.84C304.64 365.442 304.098 366.417 303.215 367.25C302.332 368.083 301.023 368.5 299.29 368.5C296.94 368.5 295.215 367.725 294.115 366.175C293.565 365.358 293.207 364.483 293.04 363.55C292.923 362.9 292.865 362.283 292.865 361.7C292.865 360.583 293.032 359.533 293.365 358.55C293.582 357.85 293.898 357.242 294.315 356.725C294.765 356.175 295.407 355.717 296.24 355.35C297.073 354.983 298.015 354.8 299.065 354.8C300.932 354.8 302.34 355.317 303.29 356.35C303.69 356.783 304.015 357.333 304.265 358C304.632 358.967 304.857 360.142 304.94 361.525C304.94 361.575 304.94 361.683 304.94 361.85C304.957 362.017 304.965 362.117 304.965 362.15H295.19C295.19 363.417 295.523 364.533 296.19 365.5C296.857 366.467 297.865 366.95 299.215 366.95C300.182 366.95 300.973 366.708 301.59 366.225C302.207 365.742 302.59 365.108 302.74 364.325ZM295.19 360.6H302.64C302.623 359.617 302.39 358.708 301.94 357.875C301.423 356.858 300.482 356.35 299.115 356.35C297.565 356.35 296.498 356.867 295.915 357.9C295.432 358.733 295.19 359.633 295.19 360.6ZM307.848 372.625V355.3H309.898V357.05H309.973C310.973 355.55 312.373 354.8 314.173 354.8C315.823 354.8 317.19 355.375 318.273 356.525C319.356 357.692 319.898 359.4 319.898 361.65C319.898 363.95 319.348 365.667 318.248 366.8C317.165 367.933 315.823 368.5 314.223 368.5C313.723 368.5 313.115 368.392 312.398 368.175C311.348 367.858 310.565 367.192 310.048 366.175V372.625H307.848ZM309.898 361.7C309.898 363.467 310.298 364.792 311.098 365.675C311.931 366.525 312.84 366.95 313.823 366.95C314.856 366.95 315.74 366.533 316.473 365.7C317.206 364.833 317.573 363.483 317.573 361.65C317.573 359.983 317.231 358.683 316.548 357.75C315.881 356.817 314.931 356.35 313.698 356.35C313.048 356.35 312.44 356.525 311.873 356.875C310.556 357.658 309.898 359.267 309.898 361.7ZM323.615 368V365.275H326.09V368.775C326.09 369.608 325.857 370.267 325.39 370.75C324.923 371.233 324.332 371.55 323.615 371.7V370.325C323.965 370.292 324.257 370.117 324.49 369.8C324.74 369.5 324.865 369.158 324.865 368.775V368H323.615ZM339.288 368V356.85H334.888V355.3H345.888V356.85H341.488V368H339.288ZM349.049 359.05H346.949C346.949 358.05 347.283 357.133 347.949 356.3C348.749 355.3 350.216 354.8 352.349 354.8C353.599 354.8 354.699 355.05 355.649 355.55C356.199 355.817 356.633 356.258 356.949 356.875C357.266 357.492 357.416 358.225 357.399 359.075L357.274 364.95C357.274 365.433 357.324 365.808 357.424 366.075C357.574 366.342 357.966 366.467 358.599 366.45V368C358.349 368.067 358.016 368.1 357.599 368.1C356.866 368.1 356.333 367.975 355.999 367.725C355.683 367.475 355.458 366.983 355.324 366.25C354.508 367.75 353.058 368.5 350.974 368.5C349.541 368.5 348.433 368.183 347.649 367.55C346.883 366.9 346.499 365.942 346.499 364.675C346.499 363.475 346.933 362.567 347.799 361.95C348.666 361.3 350.308 360.867 352.724 360.65C353.841 360.567 354.508 360.458 354.724 360.325C355.041 360.108 355.199 359.633 355.199 358.9C355.199 357.2 354.249 356.35 352.349 356.35C350.099 356.35 348.999 357.25 349.049 359.05ZM355.149 362.575L355.199 361.5C354.949 361.683 354.583 361.833 354.099 361.95C353.366 362 352.799 362.058 352.399 362.125C351.016 362.358 350.174 362.55 349.874 362.7C349.141 363.05 348.774 363.683 348.774 364.6C348.774 365.333 348.991 365.908 349.424 366.325C349.874 366.742 350.474 366.95 351.224 366.95C351.708 366.95 352.149 366.883 352.549 366.75C352.966 366.617 353.366 366.4 353.749 366.1C354.149 365.783 354.466 365.325 354.699 364.725C354.949 364.125 355.099 363.408 355.149 362.575ZM360.193 364.1H362.293C362.293 364.933 362.593 365.617 363.193 366.15C363.793 366.683 364.618 366.95 365.668 366.95C366.701 366.95 367.509 366.742 368.093 366.325C368.676 365.892 368.968 365.267 368.968 364.45C368.968 362.933 368.009 362.175 366.093 362.175H364.218V360.625H365.843C367.609 360.625 368.493 359.967 368.493 358.65C368.493 358.433 368.459 358.217 368.393 358C368.343 357.783 368.226 357.542 368.043 357.275C367.876 356.992 367.584 356.767 367.168 356.6C366.751 356.433 366.234 356.35 365.618 356.35C364.518 356.35 363.743 356.608 363.293 357.125C362.843 357.642 362.618 358.2 362.618 358.8H360.518C360.568 357.933 360.793 357.208 361.193 356.625C361.593 356.042 362.109 355.625 362.743 355.375C363.776 354.992 364.776 354.8 365.743 354.8C366.593 354.8 367.343 354.9 367.993 355.1C368.643 355.283 369.134 355.508 369.468 355.775C369.818 356.042 370.093 356.358 370.293 356.725C370.509 357.092 370.643 357.417 370.693 357.7C370.743 357.967 370.768 358.233 370.768 358.5C370.768 359.983 370.034 360.908 368.568 361.275V361.35C369.351 361.467 369.993 361.808 370.493 362.375C370.993 362.942 371.243 363.683 371.243 364.6C371.243 365.533 370.909 366.383 370.243 367.15C369.426 368.05 367.959 368.5 365.843 368.5C364.059 368.5 362.701 368.125 361.768 367.375C360.718 366.458 360.193 365.367 360.193 364.1ZM373.708 364.15C373.274 362.367 373.291 360.642 373.758 358.975C374.224 357.308 375.208 356.117 376.708 355.4C377.541 355 378.516 354.8 379.633 354.8C380.749 354.8 381.724 355 382.558 355.4C384.058 356.1 385.049 357.35 385.533 359.15C385.749 359.983 385.858 360.825 385.858 361.675C385.874 362.508 385.774 363.333 385.558 364.15C385.358 364.95 384.999 365.683 384.483 366.35C383.983 367.017 383.341 367.542 382.558 367.925C381.708 368.308 380.733 368.5 379.633 368.5C378.533 368.5 377.558 368.308 376.708 367.925C375.258 367.225 374.258 365.967 373.708 364.15ZM376.033 359.125C375.816 359.792 375.708 360.625 375.708 361.625C375.708 362.608 375.816 363.45 376.033 364.15C376.249 364.85 376.499 365.375 376.783 365.725C377.383 366.392 378.066 366.783 378.833 366.9C379.366 366.983 379.899 366.983 380.433 366.9C380.666 366.883 380.991 366.767 381.408 366.55C381.858 366.317 382.224 366.025 382.508 365.675C382.791 365.325 383.033 364.817 383.233 364.15C383.449 363.45 383.558 362.608 383.558 361.625C383.558 360.625 383.449 359.792 383.233 359.125C382.999 358.392 382.741 357.867 382.458 357.55C382.191 357.233 381.858 356.967 381.458 356.75C381.058 356.533 380.716 356.4 380.433 356.35C379.899 356.267 379.366 356.267 378.833 356.35C378.599 356.367 378.266 356.492 377.833 356.725C376.983 357.142 376.383 357.942 376.033 359.125ZM388.756 368V355.3H394.806C397.489 355.3 398.831 356.308 398.831 358.325C398.831 359.775 398.064 360.767 396.531 361.3V361.375C397.564 361.625 398.281 362.025 398.681 362.575C399.098 363.125 399.306 363.833 399.306 364.7C399.306 366.083 398.798 367 397.781 367.45C396.948 367.817 395.931 368 394.731 368H388.756ZM394.106 356.85H390.956V360.6H394.006C394.889 360.6 395.539 360.425 395.956 360.075C396.389 359.708 396.606 359.233 396.606 358.65C396.606 357.45 395.773 356.85 394.106 356.85ZM394.106 362.15H390.956V366.45H394.181C396.081 366.45 397.031 365.8 397.031 364.5C397.031 362.933 396.056 362.15 394.106 362.15ZM403.083 368V365.275H405.558V368.775C405.558 369.608 405.324 370.267 404.858 370.75C404.391 371.233 403.799 371.55 403.083 371.7V370.325C403.433 370.292 403.724 370.117 403.958 369.8C404.208 369.5 404.333 369.158 404.333 368.775V368H403.083ZM416.306 372.6V370.975C416.94 371.058 417.306 371.1 417.406 371.1C418.04 371.1 418.49 370.867 418.756 370.4C418.923 370.15 419.031 369.942 419.081 369.775C419.131 369.692 419.24 369.417 419.406 368.95L419.706 368L414.206 355.3H416.831L420.906 365.575L424.281 355.3H426.481L421.431 369.5C421.031 370.633 420.69 371.375 420.406 371.725C419.84 372.392 419.073 372.725 418.106 372.725C417.356 372.725 416.756 372.683 416.306 372.6ZM436.907 356.85H430.482V368H428.282V355.3H439.107V368H436.907V356.85ZM444.386 359.05H442.286C442.286 358.05 442.619 357.133 443.286 356.3C444.086 355.3 445.553 354.8 447.686 354.8C448.936 354.8 450.036 355.05 450.986 355.55C451.536 355.817 451.969 356.258 452.286 356.875C452.603 357.492 452.753 358.225 452.736 359.075L452.611 364.95C452.611 365.433 452.661 365.808 452.761 366.075C452.911 366.342 453.303 366.467 453.936 366.45V368C453.686 368.067 453.353 368.1 452.936 368.1C452.203 368.1 451.669 367.975 451.336 367.725C451.019 367.475 450.794 366.983 450.661 366.25C449.844 367.75 448.394 368.5 446.311 368.5C444.878 368.5 443.769 368.183 442.986 367.55C442.219 366.9 441.836 365.942 441.836 364.675C441.836 363.475 442.269 362.567 443.136 361.95C444.003 361.3 445.644 360.867 448.061 360.65C449.178 360.567 449.844 360.458 450.061 360.325C450.378 360.108 450.536 359.633 450.536 358.9C450.536 357.2 449.586 356.35 447.686 356.35C445.436 356.35 444.336 357.25 444.386 359.05ZM450.486 362.575L450.536 361.5C450.286 361.683 449.919 361.833 449.436 361.95C448.703 362 448.136 362.058 447.736 362.125C446.353 362.358 445.511 362.55 445.211 362.7C444.478 363.05 444.111 363.683 444.111 364.6C444.111 365.333 444.328 365.908 444.761 366.325C445.211 366.742 445.811 366.95 446.561 366.95C447.044 366.95 447.486 366.883 447.886 366.75C448.303 366.617 448.703 366.4 449.086 366.1C449.486 365.783 449.803 365.325 450.036 364.725C450.286 364.125 450.436 363.408 450.486 362.575ZM458.729 355.3V360.85L464.154 355.3H466.729L460.779 361.2L467.054 368H464.429L458.729 361.65V368H456.529V355.3H458.729ZM467.897 364.15C467.464 362.367 467.48 360.642 467.947 358.975C468.414 357.308 469.397 356.117 470.897 355.4C471.73 355 472.705 354.8 473.822 354.8C474.939 354.8 475.914 355 476.747 355.4C478.247 356.1 479.239 357.35 479.722 359.15C479.939 359.983 480.047 360.825 480.047 361.675C480.064 362.508 479.964 363.333 479.747 364.15C479.547 364.95 479.189 365.683 478.672 366.35C478.172 367.017 477.53 367.542 476.747 367.925C475.897 368.308 474.922 368.5 473.822 368.5C472.722 368.5 471.747 368.308 470.897 367.925C469.447 367.225 468.447 365.967 467.897 364.15ZM470.222 359.125C470.005 359.792 469.897 360.625 469.897 361.625C469.897 362.608 470.005 363.45 470.222 364.15C470.439 364.85 470.689 365.375 470.972 365.725C471.572 366.392 472.255 366.783 473.022 366.9C473.555 366.983 474.089 366.983 474.622 366.9C474.855 366.883 475.18 366.767 475.597 366.55C476.047 366.317 476.414 366.025 476.697 365.675C476.98 365.325 477.222 364.817 477.422 364.15C477.639 363.45 477.747 362.608 477.747 361.625C477.747 360.625 477.639 359.792 477.422 359.125C477.189 358.392 476.93 357.867 476.647 357.55C476.38 357.233 476.047 356.967 475.647 356.75C475.247 356.533 474.905 356.4 474.622 356.35C474.089 356.267 473.555 356.267 473.022 356.35C472.789 356.367 472.455 356.492 472.022 356.725C471.172 357.142 470.572 357.942 470.222 359.125ZM482.946 368V355.3H488.996C491.679 355.3 493.021 356.308 493.021 358.325C493.021 359.775 492.254 360.767 490.721 361.3V361.375C491.754 361.625 492.471 362.025 492.871 362.575C493.287 363.125 493.496 363.833 493.496 364.7C493.496 366.083 492.987 367 491.971 367.45C491.137 367.817 490.121 368 488.921 368H482.946ZM488.296 356.85H485.146V360.6H488.196C489.079 360.6 489.729 360.425 490.146 360.075C490.579 359.708 490.796 359.233 490.796 358.65C490.796 357.45 489.962 356.85 488.296 356.85ZM488.296 362.15H485.146V366.45H488.371C490.271 366.45 491.221 365.8 491.221 364.5C491.221 362.933 490.246 362.15 488.296 362.15ZM498.622 355.3V360.85L504.047 355.3H506.622L500.672 361.2L506.947 368H504.322L498.622 361.65V368H496.422V355.3H498.622ZM510.854 355.3V365.425L517.479 355.3H519.929V368H517.729V357.85L511.129 368H508.654V355.3H510.854ZM42.825 377.675H44.7C44.6333 378.892 44.0667 379.7 43 380.1C42.4167 380.3 41.9167 380.433 41.5 380.5C39.6333 380.733 38.55 380.892 38.25 380.975C37.1167 381.292 36.25 381.867 35.65 382.7C35.05 383.517 34.7333 384.692 34.7 386.225H34.75C35.55 384.075 37.1917 383 39.675 383C41.6917 383 43.2 383.667 44.2 385C45.2167 386.317 45.725 387.933 45.725 389.85C45.725 391.683 45.2 393.25 44.15 394.55C43.1 395.85 41.5417 396.5 39.475 396.5C37.1917 396.5 35.5 395.633 34.4 393.9C33.85 392.95 33.475 391.883 33.275 390.7C33.1417 389.767 33.075 388.842 33.075 387.925C33.075 384.708 33.5667 382.458 34.55 381.175C35.4167 380.058 36.5917 379.342 38.075 379.025C39.475 378.708 40.6583 378.525 41.625 378.475C42.275 378.392 42.675 378.125 42.825 377.675ZM35.4 390C35.4 391.1 35.65 392.158 36.15 393.175C36.7333 394.358 37.825 394.95 39.425 394.95C40.6917 394.95 41.6667 394.525 42.35 393.675C43.05 392.808 43.4 391.617 43.4 390.1C43.4 388.85 43.1833 387.692 42.75 386.625C42.2 385.242 41.0917 384.55 39.425 384.55C37.7583 384.55 36.6333 385.225 36.05 386.575C35.6167 387.608 35.4 388.75 35.4 390ZM48.5949 396V383.3H50.7949V388.325H53.9949C55.0116 388.325 55.8616 388.425 56.5449 388.625C58.1783 389.042 59.0283 390.233 59.0949 392.2C59.0949 393.367 58.7366 394.292 58.0199 394.975C57.3199 395.658 56.2283 396 54.7449 396H48.5949ZM53.4699 389.875H50.7949V394.45H53.8699C55.8366 394.45 56.8199 393.65 56.8199 392.05C56.8199 391.267 56.5616 390.7 56.0449 390.35C55.8783 390.217 55.6033 390.108 55.2199 390.025C54.8199 389.925 54.2366 389.875 53.4699 389.875ZM60.6449 396V383.3H62.8449V396H60.6449ZM69.3666 396V384.85H64.9666V383.3H75.9666V384.85H71.5666V396H69.3666ZM77.2232 392.15C76.7899 390.367 76.8066 388.642 77.2732 386.975C77.7399 385.308 78.7232 384.117 80.2232 383.4C81.0566 383 82.0316 382.8 83.1482 382.8C84.2649 382.8 85.2399 383 86.0732 383.4C87.5732 384.1 88.5649 385.35 89.0482 387.15C89.2649 387.983 89.3732 388.825 89.3732 389.675C89.3899 390.508 89.2899 391.333 89.0732 392.15C88.8732 392.95 88.5149 393.683 87.9982 394.35C87.4982 395.017 86.8566 395.542 86.0732 395.925C85.2232 396.308 84.2482 396.5 83.1482 396.5C82.0482 396.5 81.0732 396.308 80.2232 395.925C78.7732 395.225 77.7732 393.967 77.2232 392.15ZM79.5482 387.125C79.3316 387.792 79.2232 388.625 79.2232 389.625C79.2232 390.608 79.3316 391.45 79.5482 392.15C79.7649 392.85 80.0149 393.375 80.2982 393.725C80.8982 394.392 81.5816 394.783 82.3482 394.9C82.8816 394.983 83.4149 394.983 83.9482 394.9C84.1816 394.883 84.5066 394.767 84.9232 394.55C85.3732 394.317 85.7399 394.025 86.0232 393.675C86.3066 393.325 86.5482 392.817 86.7482 392.15C86.9649 391.45 87.0732 390.608 87.0732 389.625C87.0732 388.625 86.9649 387.792 86.7482 387.125C86.5149 386.392 86.2566 385.867 85.9732 385.55C85.7066 385.233 85.3732 384.967 84.9732 384.75C84.5732 384.533 84.2316 384.4 83.9482 384.35C83.4149 384.267 82.8816 384.267 82.3482 384.35C82.1149 384.367 81.7816 384.492 81.3482 384.725C80.4982 385.142 79.8982 385.942 79.5482 387.125ZM92.2717 396V383.3H98.3217C101.005 383.3 102.347 384.308 102.347 386.325C102.347 387.775 101.58 388.767 100.047 389.3V389.375C101.08 389.625 101.797 390.025 102.197 390.575C102.613 391.125 102.822 391.833 102.822 392.7C102.822 394.083 102.313 395 101.297 395.45C100.463 395.817 99.4467 396 98.2467 396H92.2717ZM97.6217 384.85H94.4717V388.6H97.5217C98.405 388.6 99.055 388.425 99.4717 388.075C99.905 387.708 100.122 387.233 100.122 386.65C100.122 385.45 99.2883 384.85 97.6217 384.85ZM97.6217 390.15H94.4717V394.45H97.6967C99.5967 394.45 100.547 393.8 100.547 392.5C100.547 390.933 99.5717 390.15 97.6217 390.15ZM105.348 392.15C104.915 390.367 104.932 388.642 105.398 386.975C105.865 385.308 106.848 384.117 108.348 383.4C109.182 383 110.157 382.8 111.273 382.8C112.39 382.8 113.365 383 114.198 383.4C115.698 384.1 116.69 385.35 117.173 387.15C117.39 387.983 117.498 388.825 117.498 389.675C117.515 390.508 117.415 391.333 117.198 392.15C116.998 392.95 116.64 393.683 116.123 394.35C115.623 395.017 114.982 395.542 114.198 395.925C113.348 396.308 112.373 396.5 111.273 396.5C110.173 396.5 109.198 396.308 108.348 395.925C106.898 395.225 105.898 393.967 105.348 392.15ZM107.673 387.125C107.457 387.792 107.348 388.625 107.348 389.625C107.348 390.608 107.457 391.45 107.673 392.15C107.89 392.85 108.14 393.375 108.423 393.725C109.023 394.392 109.707 394.783 110.473 394.9C111.007 394.983 111.54 394.983 112.073 394.9C112.307 394.883 112.632 394.767 113.048 394.55C113.498 394.317 113.865 394.025 114.148 393.675C114.432 393.325 114.673 392.817 114.873 392.15C115.09 391.45 115.198 390.608 115.198 389.625C115.198 388.625 115.09 387.792 114.873 387.125C114.64 386.392 114.382 385.867 114.098 385.55C113.832 385.233 113.498 384.967 113.098 384.75C112.698 384.533 112.357 384.4 112.073 384.35C111.54 384.267 111.007 384.267 110.473 384.35C110.24 384.367 109.907 384.492 109.473 384.725C108.623 385.142 108.023 385.942 107.673 387.125ZM122.597 383.3V393.425L129.222 383.3H131.672V396H129.472V385.85L122.872 396H120.397V383.3H122.597ZM128.397 378.5H130.272C129.922 380.333 128.822 381.408 126.972 381.725C126.655 381.775 126.322 381.8 125.972 381.8C123.822 381.8 122.447 380.925 121.847 379.175C121.797 379.058 121.738 378.833 121.672 378.5H123.547C123.497 378.933 123.647 379.342 123.997 379.725C124.247 379.992 124.538 380.192 124.872 380.325C125.172 380.425 125.538 380.475 125.972 380.475C126.688 380.475 127.28 380.3 127.747 379.95C128.213 379.583 128.43 379.1 128.397 378.5ZM142.1 383.3L145.35 388L148.6 383.3H151.05L146.6 389.375L151.4 396H148.95L145.35 390.775L141.75 396H139.3L144.1 389.375L139.65 383.3H142.1ZM155.409 383.3V393.425L162.034 383.3H164.484V396H162.284V385.85L155.684 396H153.209V383.3H155.409ZM176.277 396H174.577L170.277 385.8H170.227L170.277 386.475V396H168.077V383.3H171.102L175.427 393.625L179.752 383.3H182.777V396H180.577V386.475L180.652 385.8H180.577L176.277 396ZM188.588 383.3V393.425L195.213 383.3H197.663V396H195.463V385.85L188.863 396H186.388V383.3H188.588ZM203.456 383.3V393.425L210.081 383.3H212.531V396H210.331V385.85L203.731 396H201.256V383.3H203.456ZM216.974 396V393.275H219.449V396.775C219.449 397.608 219.216 398.267 218.749 398.75C218.283 399.233 217.691 399.55 216.974 399.7V398.325C217.324 398.292 217.616 398.117 217.849 397.8C218.099 397.5 218.224 397.158 218.224 396.775V396H216.974ZM237.923 396H236.223L231.923 385.8H231.873L231.923 386.475V396H229.723V383.3H232.748L237.073 393.625L241.398 383.3H244.423V396H242.223V386.475L242.298 385.8H242.223L237.923 396ZM256.508 390.075H250.233V396H248.033V383.3H250.233V388.525H256.508V383.3H258.708V396H256.508V390.075ZM261.916 392.15C261.482 390.367 261.499 388.642 261.966 386.975C262.432 385.308 263.416 384.117 264.916 383.4C265.749 383 266.724 382.8 267.841 382.8C268.957 382.8 269.932 383 270.766 383.4C272.266 384.1 273.257 385.35 273.741 387.15C273.957 387.983 274.066 388.825 274.066 389.675C274.082 390.508 273.982 391.333 273.766 392.15C273.566 392.95 273.207 393.683 272.691 394.35C272.191 395.017 271.549 395.542 270.766 395.925C269.916 396.308 268.941 396.5 267.841 396.5C266.741 396.5 265.766 396.308 264.916 395.925C263.466 395.225 262.466 393.967 261.916 392.15ZM264.241 387.125C264.024 387.792 263.916 388.625 263.916 389.625C263.916 390.608 264.024 391.45 264.241 392.15C264.457 392.85 264.707 393.375 264.991 393.725C265.591 394.392 266.274 394.783 267.041 394.9C267.574 394.983 268.107 394.983 268.641 394.9C268.874 394.883 269.199 394.767 269.616 394.55C270.066 394.317 270.432 394.025 270.716 393.675C270.999 393.325 271.241 392.817 271.441 392.15C271.657 391.45 271.766 390.608 271.766 389.625C271.766 388.625 271.657 387.792 271.441 387.125C271.207 386.392 270.949 385.867 270.666 385.55C270.399 385.233 270.066 384.967 269.666 384.75C269.266 384.533 268.924 384.4 268.641 384.35C268.107 384.267 267.574 384.267 267.041 384.35C266.807 384.367 266.474 384.492 266.041 384.725C265.191 385.142 264.591 385.942 264.241 387.125ZM285.664 384.85H279.164V396H276.964V383.3H285.664V384.85ZM286.745 392.15C286.311 390.367 286.328 388.642 286.795 386.975C287.261 385.308 288.245 384.117 289.745 383.4C290.578 383 291.553 382.8 292.67 382.8C293.786 382.8 294.761 383 295.595 383.4C297.095 384.1 298.086 385.35 298.57 387.15C298.786 387.983 298.895 388.825 298.895 389.675C298.911 390.508 298.811 391.333 298.595 392.15C298.395 392.95 298.036 393.683 297.52 394.35C297.02 395.017 296.378 395.542 295.595 395.925C294.745 396.308 293.77 396.5 292.67 396.5C291.57 396.5 290.595 396.308 289.745 395.925C288.295 395.225 287.295 393.967 286.745 392.15ZM289.07 387.125C288.853 387.792 288.745 388.625 288.745 389.625C288.745 390.608 288.853 391.45 289.07 392.15C289.286 392.85 289.536 393.375 289.82 393.725C290.42 394.392 291.103 394.783 291.87 394.9C292.403 394.983 292.936 394.983 293.47 394.9C293.703 394.883 294.028 394.767 294.445 394.55C294.895 394.317 295.261 394.025 295.545 393.675C295.828 393.325 296.07 392.817 296.27 392.15C296.486 391.45 296.595 390.608 296.595 389.625C296.595 388.625 296.486 387.792 296.27 387.125C296.036 386.392 295.778 385.867 295.495 385.55C295.228 385.233 294.895 384.967 294.495 384.75C294.095 384.533 293.753 384.4 293.47 384.35C292.936 384.267 292.403 384.267 291.87 384.35C291.636 384.367 291.303 384.492 290.87 384.725C290.02 385.142 289.42 385.942 289.07 387.125ZM301.793 400.625V383.3H303.843V385.05H303.918C304.918 383.55 306.318 382.8 308.118 382.8C309.768 382.8 311.135 383.375 312.218 384.525C313.301 385.692 313.843 387.4 313.843 389.65C313.843 391.95 313.293 393.667 312.193 394.8C311.11 395.933 309.768 396.5 308.168 396.5C307.668 396.5 307.06 396.392 306.343 396.175C305.293 395.858 304.51 395.192 303.993 394.175V400.625H301.793ZM303.843 389.7C303.843 391.467 304.243 392.792 305.043 393.675C305.876 394.525 306.785 394.95 307.768 394.95C308.801 394.95 309.685 394.533 310.418 393.7C311.151 392.833 311.518 391.483 311.518 389.65C311.518 387.983 311.176 386.683 310.493 385.75C309.826 384.817 308.876 384.35 307.643 384.35C306.993 384.35 306.385 384.525 305.818 384.875C304.501 385.658 303.843 387.267 303.843 389.7ZM318.385 387.05H316.285C316.285 386.05 316.618 385.133 317.285 384.3C318.085 383.3 319.552 382.8 321.685 382.8C322.935 382.8 324.035 383.05 324.985 383.55C325.535 383.817 325.968 384.258 326.285 384.875C326.602 385.492 326.752 386.225 326.735 387.075L326.61 392.95C326.61 393.433 326.66 393.808 326.76 394.075C326.91 394.342 327.302 394.467 327.935 394.45V396C327.685 396.067 327.352 396.1 326.935 396.1C326.202 396.1 325.668 395.975 325.335 395.725C325.018 395.475 324.793 394.983 324.66 394.25C323.843 395.75 322.393 396.5 320.31 396.5C318.877 396.5 317.768 396.183 316.985 395.55C316.218 394.9 315.835 393.942 315.835 392.675C315.835 391.475 316.268 390.567 317.135 389.95C318.002 389.3 319.643 388.867 322.06 388.65C323.177 388.567 323.843 388.458 324.06 388.325C324.377 388.108 324.535 387.633 324.535 386.9C324.535 385.2 323.585 384.35 321.685 384.35C319.435 384.35 318.335 385.25 318.385 387.05ZM324.485 390.575L324.535 389.5C324.285 389.683 323.918 389.833 323.435 389.95C322.702 390 322.135 390.058 321.735 390.125C320.352 390.358 319.51 390.55 319.21 390.7C318.477 391.05 318.11 391.683 318.11 392.6C318.11 393.333 318.327 393.908 318.76 394.325C319.21 394.742 319.81 394.95 320.56 394.95C321.043 394.95 321.485 394.883 321.885 394.75C322.302 394.617 322.702 394.4 323.085 394.1C323.485 393.783 323.802 393.325 324.035 392.725C324.285 392.125 324.435 391.408 324.485 390.575ZM329.529 392.1H331.629C331.629 392.933 331.929 393.617 332.529 394.15C333.129 394.683 333.954 394.95 335.004 394.95C336.037 394.95 336.845 394.742 337.429 394.325C338.012 393.892 338.304 393.267 338.304 392.45C338.304 390.933 337.345 390.175 335.429 390.175H333.554V388.625H335.179C336.945 388.625 337.829 387.967 337.829 386.65C337.829 386.433 337.795 386.217 337.729 386C337.679 385.783 337.562 385.542 337.379 385.275C337.212 384.992 336.92 384.767 336.504 384.6C336.087 384.433 335.57 384.35 334.954 384.35C333.854 384.35 333.079 384.608 332.629 385.125C332.179 385.642 331.954 386.2 331.954 386.8H329.854C329.904 385.933 330.129 385.208 330.529 384.625C330.929 384.042 331.445 383.625 332.079 383.375C333.112 382.992 334.112 382.8 335.079 382.8C335.929 382.8 336.679 382.9 337.329 383.1C337.979 383.283 338.47 383.508 338.804 383.775C339.154 384.042 339.429 384.358 339.629 384.725C339.845 385.092 339.979 385.417 340.029 385.7C340.079 385.967 340.104 386.233 340.104 386.5C340.104 387.983 339.37 388.908 337.904 389.275V389.35C338.687 389.467 339.329 389.808 339.829 390.375C340.329 390.942 340.579 391.683 340.579 392.6C340.579 393.533 340.245 394.383 339.579 395.15C338.762 396.05 337.295 396.5 335.179 396.5C333.395 396.5 332.037 396.125 331.104 395.375C330.054 394.458 329.529 393.367 329.529 392.1ZM343.044 392.15C342.61 390.367 342.627 388.642 343.094 386.975C343.56 385.308 344.544 384.117 346.044 383.4C346.877 383 347.852 382.8 348.969 382.8C350.085 382.8 351.06 383 351.894 383.4C353.394 384.1 354.385 385.35 354.869 387.15C355.085 387.983 355.194 388.825 355.194 389.675C355.21 390.508 355.11 391.333 354.894 392.15C354.694 392.95 354.335 393.683 353.819 394.35C353.319 395.017 352.677 395.542 351.894 395.925C351.044 396.308 350.069 396.5 348.969 396.5C347.869 396.5 346.894 396.308 346.044 395.925C344.594 395.225 343.594 393.967 343.044 392.15ZM345.369 387.125C345.152 387.792 345.044 388.625 345.044 389.625C345.044 390.608 345.152 391.45 345.369 392.15C345.585 392.85 345.835 393.375 346.119 393.725C346.719 394.392 347.402 394.783 348.169 394.9C348.702 394.983 349.235 394.983 349.769 394.9C350.002 394.883 350.327 394.767 350.744 394.55C351.194 394.317 351.56 394.025 351.844 393.675C352.127 393.325 352.369 392.817 352.569 392.15C352.785 391.45 352.894 390.608 352.894 389.625C352.894 388.625 352.785 387.792 352.569 387.125C352.335 386.392 352.077 385.867 351.794 385.55C351.527 385.233 351.194 384.967 350.794 384.75C350.394 384.533 350.052 384.4 349.769 384.35C349.235 384.267 348.702 384.267 348.169 384.35C347.935 384.367 347.602 384.492 347.169 384.725C346.319 385.142 345.719 385.942 345.369 387.125ZM358.092 396V383.3H364.142C366.825 383.3 368.167 384.308 368.167 386.325C368.167 387.775 367.4 388.767 365.867 389.3V389.375C366.9 389.625 367.617 390.025 368.017 390.575C368.434 391.125 368.642 391.833 368.642 392.7C368.642 394.083 368.134 395 367.117 395.45C366.284 395.817 365.267 396 364.067 396H358.092ZM363.442 384.85H360.292V388.6H363.342C364.225 388.6 364.875 388.425 365.292 388.075C365.725 387.708 365.942 387.233 365.942 386.65C365.942 385.45 365.109 384.85 363.442 384.85ZM363.442 390.15H360.292V394.45H363.517C365.417 394.45 366.367 393.8 366.367 392.5C366.367 390.933 365.392 390.15 363.442 390.15ZM371.569 396V383.3H373.769V388.325H376.969C377.985 388.325 378.835 388.425 379.519 388.625C381.152 389.042 382.002 390.233 382.069 392.2C382.069 393.367 381.71 394.292 380.994 394.975C380.294 395.658 379.202 396 377.719 396H371.569ZM376.444 389.875H373.769V394.45H376.844C378.81 394.45 379.794 393.65 379.794 392.05C379.794 391.267 379.535 390.7 379.019 390.35C378.852 390.217 378.577 390.108 378.194 390.025C377.794 389.925 377.21 389.875 376.444 389.875ZM383.619 396V383.3H385.819V396H383.619ZM390.415 383.3L393.665 388L396.915 383.3H399.365L394.915 389.375L399.715 396H397.265L393.665 390.775L390.065 396H387.615L392.415 389.375L387.965 383.3H390.415ZM409.56 383.3V388.85L414.985 383.3H417.56L411.61 389.2L417.885 396H415.26L409.56 389.65V396H407.36V383.3H409.56ZM418.727 392.15C418.294 390.367 418.31 388.642 418.777 386.975C419.244 385.308 420.227 384.117 421.727 383.4C422.56 383 423.535 382.8 424.652 382.8C425.769 382.8 426.744 383 427.577 383.4C429.077 384.1 430.069 385.35 430.552 387.15C430.769 387.983 430.877 388.825 430.877 389.675C430.894 390.508 430.794 391.333 430.577 392.15C430.377 392.95 430.019 393.683 429.502 394.35C429.002 395.017 428.36 395.542 427.577 395.925C426.727 396.308 425.752 396.5 424.652 396.5C423.552 396.5 422.577 396.308 421.727 395.925C420.277 395.225 419.277 393.967 418.727 392.15ZM421.052 387.125C420.835 387.792 420.727 388.625 420.727 389.625C420.727 390.608 420.835 391.45 421.052 392.15C421.269 392.85 421.519 393.375 421.802 393.725C422.402 394.392 423.085 394.783 423.852 394.9C424.385 394.983 424.919 394.983 425.452 394.9C425.685 394.883 426.01 394.767 426.427 394.55C426.877 394.317 427.244 394.025 427.527 393.675C427.81 393.325 428.052 392.817 428.252 392.15C428.469 391.45 428.577 390.608 428.577 389.625C428.577 388.625 428.469 387.792 428.252 387.125C428.019 386.392 427.76 385.867 427.477 385.55C427.21 385.233 426.877 384.967 426.477 384.75C426.077 384.533 425.735 384.4 425.452 384.35C424.919 384.267 424.385 384.267 423.852 384.35C423.619 384.367 423.285 384.492 422.852 384.725C422.002 385.142 421.402 385.942 421.052 387.125ZM442.251 390.075H435.976V396H433.776V383.3H435.976V388.525H442.251V383.3H444.451V396H442.251V390.075ZM450.983 396V384.85H446.583V383.3H457.583V384.85H453.183V396H450.983ZM468.219 392.325H470.319C470.119 393.442 469.577 394.417 468.694 395.25C467.81 396.083 466.502 396.5 464.769 396.5C462.419 396.5 460.694 395.725 459.594 394.175C459.044 393.358 458.685 392.483 458.519 391.55C458.402 390.9 458.344 390.283 458.344 389.7C458.344 388.583 458.51 387.533 458.844 386.55C459.06 385.85 459.377 385.242 459.794 384.725C460.244 384.175 460.885 383.717 461.719 383.35C462.552 382.983 463.494 382.8 464.544 382.8C466.41 382.8 467.819 383.317 468.769 384.35C469.169 384.783 469.494 385.333 469.744 386C470.11 386.967 470.335 388.142 470.419 389.525C470.419 389.575 470.419 389.683 470.419 389.85C470.435 390.017 470.444 390.117 470.444 390.15H460.669C460.669 391.417 461.002 392.533 461.669 393.5C462.335 394.467 463.344 394.95 464.694 394.95C465.66 394.95 466.452 394.708 467.069 394.225C467.685 393.742 468.069 393.108 468.219 392.325ZM460.669 388.6H468.119C468.102 387.617 467.869 386.708 467.419 385.875C466.902 384.858 465.96 384.35 464.594 384.35C463.044 384.35 461.977 384.867 461.394 385.9C460.91 386.733 460.669 387.633 460.669 388.6ZM475.526 383.3V393.425L482.151 383.3H484.601V396H482.401V385.85L475.801 396H473.326V383.3H475.526ZM481.326 378.5H483.201C482.851 380.333 481.751 381.408 479.901 381.725C479.585 381.775 479.251 381.8 478.901 381.8C476.751 381.8 475.376 380.925 474.776 379.175C474.726 379.058 474.668 378.833 474.601 378.5H476.476C476.426 378.933 476.576 379.342 476.926 379.725C477.176 379.992 477.468 380.192 477.801 380.325C478.101 380.425 478.468 380.475 478.901 380.475C479.618 380.475 480.21 380.3 480.676 379.95C481.143 379.583 481.36 379.1 481.326 378.5ZM496.67 390.075H490.395V396H488.195V383.3H490.395V388.525H496.67V383.3H498.87V396H496.67V390.075ZM511.627 392.325H513.727C513.527 393.442 512.985 394.417 512.102 395.25C511.218 396.083 509.91 396.5 508.177 396.5C505.827 396.5 504.102 395.725 503.002 394.175C502.452 393.358 502.093 392.483 501.927 391.55C501.81 390.9 501.752 390.283 501.752 389.7C501.752 388.583 501.918 387.533 502.252 386.55C502.468 385.85 502.785 385.242 503.202 384.725C503.652 384.175 504.293 383.717 505.127 383.35C505.96 382.983 506.902 382.8 507.952 382.8C509.818 382.8 511.227 383.317 512.177 384.35C512.577 384.783 512.902 385.333 513.152 386C513.518 386.967 513.743 388.142 513.827 389.525C513.827 389.575 513.827 389.683 513.827 389.85C513.843 390.017 513.852 390.117 513.852 390.15H504.077C504.077 391.417 504.41 392.533 505.077 393.5C505.743 394.467 506.752 394.95 508.102 394.95C509.068 394.95 509.86 394.708 510.477 394.225C511.093 393.742 511.477 393.108 511.627 392.325ZM504.077 388.6H511.527C511.51 387.617 511.277 386.708 510.827 385.875C510.31 384.858 509.368 384.35 508.002 384.35C506.452 384.35 505.385 384.867 504.802 385.9C504.318 386.733 504.077 387.633 504.077 388.6ZM516.735 400.625V383.3H518.785V385.05H518.86C519.86 383.55 521.26 382.8 523.06 382.8C524.71 382.8 526.076 383.375 527.16 384.525C528.243 385.692 528.785 387.4 528.785 389.65C528.785 391.95 528.235 393.667 527.135 394.8C526.051 395.933 524.71 396.5 523.11 396.5C522.61 396.5 522.001 396.392 521.285 396.175C520.235 395.858 519.451 395.192 518.935 394.175V400.625H516.735ZM518.785 389.7C518.785 391.467 519.185 392.792 519.985 393.675C520.818 394.525 521.726 394.95 522.71 394.95C523.743 394.95 524.626 394.533 525.36 393.7C526.093 392.833 526.46 391.483 526.46 389.65C526.46 387.983 526.118 386.683 525.435 385.75C524.768 384.817 523.818 384.35 522.585 384.35C521.935 384.35 521.326 384.525 520.76 384.875C519.443 385.658 518.785 387.267 518.785 389.7ZM531.252 392.15C530.818 390.367 530.835 388.642 531.302 386.975C531.768 385.308 532.752 384.117 534.252 383.4C535.085 383 536.06 382.8 537.177 382.8C538.293 382.8 539.268 383 540.102 383.4C541.602 384.1 542.593 385.35 543.077 387.15C543.293 387.983 543.402 388.825 543.402 389.675C543.418 390.508 543.318 391.333 543.102 392.15C542.902 392.95 542.543 393.683 542.027 394.35C541.527 395.017 540.885 395.542 540.102 395.925C539.252 396.308 538.277 396.5 537.177 396.5C536.077 396.5 535.102 396.308 534.252 395.925C532.802 395.225 531.802 393.967 531.252 392.15ZM533.577 387.125C533.36 387.792 533.252 388.625 533.252 389.625C533.252 390.608 533.36 391.45 533.577 392.15C533.793 392.85 534.043 393.375 534.327 393.725C534.927 394.392 535.61 394.783 536.377 394.9C536.91 394.983 537.443 394.983 537.977 394.9C538.21 394.883 538.535 394.767 538.952 394.55C539.402 394.317 539.768 394.025 540.052 393.675C540.335 393.325 540.577 392.817 540.777 392.15C540.993 391.45 541.102 390.608 541.102 389.625C541.102 388.625 540.993 387.792 540.777 387.125C540.543 386.392 540.285 385.867 540.002 385.55C539.735 385.233 539.402 384.967 539.002 384.75C538.602 384.533 538.26 384.4 537.977 384.35C537.443 384.267 536.91 384.267 536.377 384.35C536.143 384.367 535.81 384.492 535.377 384.725C534.527 385.142 533.927 385.942 533.577 387.125ZM546.3 396V383.3H552.35C555.033 383.3 556.375 384.308 556.375 386.325C556.375 387.775 555.608 388.767 554.075 389.3V389.375C555.108 389.625 555.825 390.025 556.225 390.575C556.642 391.125 556.85 391.833 556.85 392.7C556.85 394.083 556.342 395 555.325 395.45C554.492 395.817 553.475 396 552.275 396H546.3ZM551.65 384.85H548.5V388.6H551.55C552.433 388.6 553.083 388.425 553.5 388.075C553.933 387.708 554.15 387.233 554.15 386.65C554.15 385.45 553.317 384.85 551.65 384.85ZM551.65 390.15H548.5V394.45H551.725C553.625 394.45 554.575 393.8 554.575 392.5C554.575 390.933 553.6 390.15 551.65 390.15Z" fill="black"/>
<path d="M172.975 59V34.5H182.95C188.48 34.5 191.245 36.845 191.245 41.535C191.245 46.6683 188.375 49.235 182.635 49.235H176.265V59H172.975ZM182.285 37.265H176.265V46.47H182.285C184.222 46.47 185.633 46.0733 186.52 45.28C187.43 44.4633 187.885 43.2383 187.885 41.605C187.885 40.0883 187.43 38.9917 186.52 38.315C185.61 37.615 184.198 37.265 182.285 37.265ZM195.329 59V34.5H205.304C210.834 34.5 213.599 36.845 213.599 41.535C213.599 46.6683 210.729 49.235 204.989 49.235H198.619V59H195.329ZM204.639 37.265H198.619V46.47H204.639C206.575 46.47 207.987 46.0733 208.874 45.28C209.784 44.4633 210.239 43.2383 210.239 41.605C210.239 40.0883 209.784 38.9917 208.874 38.315C207.964 37.615 206.552 37.265 204.639 37.265ZM257.799 37.265H245.479V59H242.189V34.5H261.089V59H257.799V37.265ZM282.648 37.265H270.328V59H267.038V34.5H285.938V59H282.648V37.265ZM188.585 72.265H176.265V94H172.975V69.5H191.875V94H188.585V72.265ZM196.809 88.61C196.202 86.1133 196.225 83.6983 196.879 81.365C197.532 79.0317 198.909 77.3633 201.009 76.36C202.175 75.8 203.54 75.52 205.104 75.52C206.667 75.52 208.032 75.8 209.199 76.36C211.299 77.34 212.687 79.09 213.364 81.61C213.667 82.7767 213.819 83.955 213.819 85.145C213.842 86.3117 213.702 87.4667 213.399 88.61C213.119 89.73 212.617 90.7567 211.894 91.69C211.194 92.6233 210.295 93.3583 209.199 93.895C208.009 94.4317 206.644 94.7 205.104 94.7C203.564 94.7 202.199 94.4317 201.009 93.895C198.979 92.915 197.579 91.1533 196.809 88.61ZM200.064 81.575C199.76 82.5083 199.609 83.675 199.609 85.075C199.609 86.4517 199.76 87.63 200.064 88.61C200.367 89.59 200.717 90.325 201.114 90.815C201.954 91.7483 202.91 92.2967 203.984 92.46C204.73 92.5767 205.477 92.5767 206.224 92.46C206.55 92.4367 207.005 92.2733 207.589 91.97C208.219 91.6433 208.732 91.235 209.129 90.745C209.525 90.255 209.864 89.5433 210.144 88.61C210.447 87.63 210.599 86.4517 210.599 85.075C210.599 83.675 210.447 82.5083 210.144 81.575C209.817 80.5483 209.455 79.8133 209.059 79.37C208.685 78.9267 208.219 78.5533 207.659 78.25C207.099 77.9467 206.62 77.76 206.224 77.69C205.477 77.5733 204.73 77.5733 203.984 77.69C203.657 77.7133 203.19 77.8883 202.584 78.215C201.394 78.7983 200.554 79.9183 200.064 81.575ZM215.811 94V91.725C217.561 92.2383 218.798 91.41 219.521 89.24C219.708 88.7033 219.836 88.0383 219.906 87.245L220.046 85.11C220.07 84.7367 220.081 84.0017 220.081 82.905V76.22H232.401V94H229.321V78.39H222.951V82.905C222.951 84.375 222.916 85.6117 222.846 86.615C222.776 87.595 222.601 88.6683 222.321 89.835C221.925 91.4917 221.213 92.67 220.186 93.37C219.16 94.07 217.701 94.28 215.811 94ZM240.507 76.22V90.395L249.782 76.22H253.212V94H250.132V79.79L240.892 94H237.427V76.22H240.507ZM258.243 94V76.22H266.713C270.469 76.22 272.348 77.6317 272.348 80.455C272.348 82.485 271.274 83.8733 269.128 84.62V84.725C270.574 85.075 271.578 85.635 272.138 86.405C272.721 87.175 273.013 88.1667 273.013 89.38C273.013 91.3167 272.301 92.6 270.878 93.23C269.711 93.7433 268.288 94 266.608 94H258.243ZM265.733 78.39H261.323V83.64H265.593C266.829 83.64 267.739 83.395 268.323 82.905C268.929 82.3917 269.233 81.7267 269.233 80.91C269.233 79.23 268.066 78.39 265.733 78.39ZM265.733 85.81H261.323V91.83H265.838C268.498 91.83 269.828 90.92 269.828 89.1C269.828 86.9067 268.463 85.81 265.733 85.81ZM289.185 78.39H280.19V94H277.11V76.22H292.265V94H289.185V78.39ZM297.31 100.475V76.22H300.18V78.67H300.285C301.685 76.57 303.645 75.52 306.165 75.52C308.475 75.52 310.388 76.325 311.905 77.935C313.422 79.5683 314.18 81.96 314.18 85.11C314.18 88.33 313.41 90.7333 311.87 92.32C310.353 93.9067 308.475 94.7 306.235 94.7C305.535 94.7 304.683 94.5483 303.68 94.245C302.21 93.8017 301.113 92.8683 300.39 91.445V100.475H297.31ZM300.18 85.18C300.18 87.6533 300.74 89.5083 301.86 90.745C303.027 91.935 304.298 92.53 305.675 92.53C307.122 92.53 308.358 91.9467 309.385 90.78C310.412 89.5667 310.925 87.6767 310.925 85.11C310.925 82.7767 310.447 80.9567 309.49 79.65C308.557 78.3433 307.227 77.69 305.5 77.69C304.59 77.69 303.738 77.935 302.945 78.425C301.102 79.5217 300.18 81.7733 300.18 85.18ZM317.634 88.61C317.027 86.1133 317.05 83.6983 317.704 81.365C318.357 79.0317 319.734 77.3633 321.834 76.36C323 75.8 324.365 75.52 325.929 75.52C327.492 75.52 328.857 75.8 330.024 76.36C332.124 77.34 333.512 79.09 334.189 81.61C334.492 82.7767 334.644 83.955 334.644 85.145C334.667 86.3117 334.527 87.4667 334.224 88.61C333.944 89.73 333.442 90.7567 332.719 91.69C332.019 92.6233 331.12 93.3583 330.024 93.895C328.834 94.4317 327.469 94.7 325.929 94.7C324.389 94.7 323.024 94.4317 321.834 93.895C319.804 92.915 318.404 91.1533 317.634 88.61ZM320.889 81.575C320.585 82.5083 320.434 83.675 320.434 85.075C320.434 86.4517 320.585 87.63 320.889 88.61C321.192 89.59 321.542 90.325 321.939 90.815C322.779 91.7483 323.735 92.2967 324.809 92.46C325.555 92.5767 326.302 92.5767 327.049 92.46C327.375 92.4367 327.83 92.2733 328.414 91.97C329.044 91.6433 329.557 91.235 329.954 90.745C330.35 90.255 330.689 89.5433 330.969 88.61C331.272 87.63 331.424 86.4517 331.424 85.075C331.424 83.675 331.272 82.5083 330.969 81.575C330.642 80.5483 330.28 79.8133 329.884 79.37C329.51 78.9267 329.044 78.5533 328.484 78.25C327.924 77.9467 327.445 77.76 327.049 77.69C326.302 77.5733 325.555 77.5733 324.809 77.69C324.482 77.7133 324.015 77.8883 323.409 78.215C322.219 78.7983 321.379 79.9183 320.889 81.575ZM350.777 78.39H341.782V94H338.702V76.22H353.857V94H350.777V78.39ZM361.982 76.22V90.395L371.257 76.22H374.687V94H371.607V79.79L362.367 94H358.902V76.22H361.982ZM377.652 94V91.725C379.402 92.2383 380.639 91.41 381.362 89.24C381.549 88.7033 381.677 88.0383 381.747 87.245L381.887 85.11C381.911 84.7367 381.922 84.0017 381.922 82.905V76.22H394.242V94H391.162V78.39H384.792V82.905C384.792 84.375 384.757 85.6117 384.687 86.615C384.617 87.595 384.442 88.6683 384.162 89.835C383.766 91.4917 383.054 92.67 382.027 93.37C381.001 94.07 379.542 94.28 377.652 94ZM412.078 88.855H415.018C414.738 90.4183 413.98 91.7833 412.743 92.95C411.506 94.1167 409.675 94.7 407.248 94.7C403.958 94.7 401.543 93.615 400.003 91.445C399.233 90.3017 398.731 89.0767 398.498 87.77C398.335 86.86 398.253 85.9967 398.253 85.18C398.253 83.6167 398.486 82.1467 398.953 80.77C399.256 79.79 399.7 78.9383 400.283 78.215C400.913 77.445 401.811 76.8033 402.978 76.29C404.145 75.7767 405.463 75.52 406.933 75.52C409.546 75.52 411.518 76.2433 412.848 77.69C413.408 78.2967 413.863 79.0667 414.213 80C414.726 81.3533 415.041 82.9983 415.158 84.935C415.158 85.005 415.158 85.1567 415.158 85.39C415.181 85.6233 415.193 85.7633 415.193 85.81H401.508C401.508 87.5833 401.975 89.1467 402.908 90.5C403.841 91.8533 405.253 92.53 407.143 92.53C408.496 92.53 409.605 92.1917 410.468 91.515C411.331 90.8383 411.868 89.9517 412.078 88.855ZM401.508 83.64H411.938C411.915 82.2633 411.588 80.9917 410.958 79.825C410.235 78.4017 408.916 77.69 407.003 77.69C404.833 77.69 403.34 78.4133 402.523 79.86C401.846 81.0267 401.508 82.2867 401.508 83.64ZM431.094 85.705H422.309V94H419.229V76.22H422.309V83.535H431.094V76.22H434.174V94H431.094V85.705Z" fill="black"/>
<path d="M327.182 447H318.091V451.5H313.545V456H309V469.5H313.545V474H318.091V478.5H322.636V483H327.182V487.5H331.727V492H336.273V487.5H340.818V483H345.364V478.5H349.909V474H354.455V469.5H359V456H354.455V451.5H349.909V447H340.818V451.5H336.273V456H331.727V451.5H327.182V447ZM327.182 451.5V456H331.727V460.5H336.273V456H340.818V451.5H349.909V456H354.455V469.5H349.909V474H345.364V478.5H340.818V483H336.273V487.5H331.727V483H327.182V478.5H322.636V474H318.091V469.5H313.545V456H318.091V451.5H327.182Z" fill="black"/>
<path d="M322.275 516.475H313.475V532H311.125V514.5H324.625V532H322.275V516.475ZM328.549 536.625V519.3H330.599V521.05H330.674C331.674 519.55 333.074 518.8 334.874 518.8C336.524 518.8 337.891 519.375 338.974 520.525C340.057 521.692 340.599 523.4 340.599 525.65C340.599 527.95 340.049 529.667 338.949 530.8C337.866 531.933 336.524 532.5 334.924 532.5C334.424 532.5 333.816 532.392 333.099 532.175C332.049 531.858 331.266 531.192 330.749 530.175V536.625H328.549ZM330.599 525.7C330.599 527.467 330.999 528.792 331.799 529.675C332.632 530.525 333.541 530.95 334.524 530.95C335.557 530.95 336.441 530.533 337.174 529.7C337.907 528.833 338.274 527.483 338.274 525.65C338.274 523.983 337.932 522.683 337.249 521.75C336.582 520.817 335.632 520.35 334.399 520.35C333.749 520.35 333.141 520.525 332.574 520.875C331.257 521.658 330.599 523.267 330.599 525.7ZM345.666 519.3V529.425L352.291 519.3H354.741V532H352.541V521.85L345.941 532H343.466V519.3H345.666ZM367.034 520.85H360.534V532H358.334V519.3H367.034V520.85ZM368.115 528.15C367.682 526.367 367.698 524.642 368.165 522.975C368.632 521.308 369.615 520.117 371.115 519.4C371.948 519 372.923 518.8 374.04 518.8C375.157 518.8 376.132 519 376.965 519.4C378.465 520.1 379.457 521.35 379.94 523.15C380.157 523.983 380.265 524.825 380.265 525.675C380.282 526.508 380.182 527.333 379.965 528.15C379.765 528.95 379.407 529.683 378.89 530.35C378.39 531.017 377.748 531.542 376.965 531.925C376.115 532.308 375.14 532.5 374.04 532.5C372.94 532.5 371.965 532.308 371.115 531.925C369.665 531.225 368.665 529.967 368.115 528.15ZM370.44 523.125C370.223 523.792 370.115 524.625 370.115 525.625C370.115 526.608 370.223 527.45 370.44 528.15C370.657 528.85 370.907 529.375 371.19 529.725C371.79 530.392 372.473 530.783 373.24 530.9C373.773 530.983 374.307 530.983 374.84 530.9C375.073 530.883 375.398 530.767 375.815 530.55C376.265 530.317 376.632 530.025 376.915 529.675C377.198 529.325 377.44 528.817 377.64 528.15C377.857 527.45 377.965 526.608 377.965 525.625C377.965 524.625 377.857 523.792 377.64 523.125C377.407 522.392 377.148 521.867 376.865 521.55C376.598 521.233 376.265 520.967 375.865 520.75C375.465 520.533 375.123 520.4 374.84 520.35C374.307 520.267 373.773 520.267 373.24 520.35C373.007 520.367 372.673 520.492 372.24 520.725C371.39 521.142 370.79 521.942 370.44 523.125ZM381.563 535.3L381.363 530.45H382.963C384.347 528.417 385.038 525.408 385.038 521.425V519.3H394.138V530.45H396.338L396.163 535.3H394.313V532H383.413V535.3H381.563ZM391.938 530.45V520.85H387.088V522.625C387.088 523.975 386.938 525.375 386.638 526.825C386.372 528.258 385.922 529.467 385.288 530.45H391.938ZM407.377 528.325H409.477C409.277 529.442 408.735 530.417 407.852 531.25C406.968 532.083 405.66 532.5 403.927 532.5C401.577 532.5 399.852 531.725 398.752 530.175C398.202 529.358 397.843 528.483 397.677 527.55C397.56 526.9 397.502 526.283 397.502 525.7C397.502 524.583 397.668 523.533 398.002 522.55C398.218 521.85 398.535 521.242 398.952 520.725C399.402 520.175 400.043 519.717 400.877 519.35C401.71 518.983 402.652 518.8 403.702 518.8C405.568 518.8 406.977 519.317 407.927 520.35C408.327 520.783 408.652 521.333 408.902 522C409.268 522.967 409.493 524.142 409.577 525.525C409.577 525.575 409.577 525.683 409.577 525.85C409.593 526.017 409.602 526.117 409.602 526.15H399.827C399.827 527.417 400.16 528.533 400.827 529.5C401.493 530.467 402.502 530.95 403.852 530.95C404.818 530.95 405.61 530.708 406.227 530.225C406.843 529.742 407.227 529.108 407.377 528.325ZM399.827 524.6H407.277C407.26 523.617 407.027 522.708 406.577 521.875C406.06 520.858 405.118 520.35 403.752 520.35C402.202 520.35 401.135 520.867 400.552 521.9C400.068 522.733 399.827 523.633 399.827 524.6ZM420.96 526.075H414.685V532H412.485V519.3H414.685V524.525H420.96V519.3H423.16V532H420.96V526.075ZM309.2 563.3L309 558.45H310.6C311.983 556.417 312.675 553.408 312.675 549.425V547.3H321.775V558.45H323.975L323.8 563.3H321.95V560H311.05V563.3H309.2ZM319.575 558.45V548.85H314.725V550.625C314.725 551.975 314.575 553.375 314.275 554.825C314.008 556.258 313.558 557.467 312.925 558.45H319.575ZM325.023 560V558.375C326.273 558.742 327.157 558.15 327.673 556.6C327.807 556.217 327.898 555.742 327.948 555.175L328.048 553.65C328.065 553.383 328.073 552.858 328.073 552.075V547.3H336.873V560H334.673V548.85H330.123V552.075C330.123 553.125 330.098 554.008 330.048 554.725C329.998 555.425 329.873 556.192 329.673 557.025C329.39 558.208 328.882 559.05 328.148 559.55C327.415 560.05 326.373 560.2 325.023 560ZM348.238 555H345.338L342.013 560H339.588L343.088 554.975C342.121 554.875 341.338 554.5 340.738 553.85C340.138 553.2 339.838 552.35 339.838 551.3C339.838 550.317 340.096 549.458 340.613 548.725C341.23 547.775 342.396 547.3 344.113 547.3H350.438V560H348.238V555ZM348.238 553.45V548.85H345.063C343.096 548.85 342.113 549.642 342.113 551.225C342.113 551.875 342.355 552.408 342.838 552.825C343.321 553.242 344.088 553.45 345.138 553.45H348.238ZM368.497 548.85H362.072V560H359.872V547.3H370.697V560H368.497V548.85ZM383.451 556.325H385.551C385.351 557.442 384.809 558.417 383.926 559.25C383.043 560.083 381.734 560.5 380.001 560.5C377.651 560.5 375.926 559.725 374.826 558.175C374.276 557.358 373.918 556.483 373.751 555.55C373.634 554.9 373.576 554.283 373.576 553.7C373.576 552.583 373.743 551.533 374.076 550.55C374.293 549.85 374.609 549.242 375.026 548.725C375.476 548.175 376.118 547.717 376.951 547.35C377.784 546.983 378.726 546.8 379.776 546.8C381.643 546.8 383.051 547.317 384.001 548.35C384.401 548.783 384.726 549.333 384.976 550C385.343 550.967 385.568 552.142 385.651 553.525C385.651 553.575 385.651 553.683 385.651 553.85C385.668 554.017 385.676 554.117 385.676 554.15H375.901C375.901 555.417 376.234 556.533 376.901 557.5C377.568 558.467 378.576 558.95 379.926 558.95C380.893 558.95 381.684 558.708 382.301 558.225C382.918 557.742 383.301 557.108 383.451 556.325ZM375.901 552.6H383.351C383.334 551.617 383.101 550.708 382.651 549.875C382.134 548.858 381.193 548.35 379.826 548.35C378.276 548.35 377.209 548.867 376.626 549.9C376.143 550.733 375.901 551.633 375.901 552.6ZM388.559 564.625V547.3H390.609V549.05H390.684C391.684 547.55 393.084 546.8 394.884 546.8C396.534 546.8 397.9 547.375 398.984 548.525C400.067 549.692 400.609 551.4 400.609 553.65C400.609 555.95 400.059 557.667 398.959 558.8C397.875 559.933 396.534 560.5 394.934 560.5C394.434 560.5 393.825 560.392 393.109 560.175C392.059 559.858 391.275 559.192 390.759 558.175V564.625H388.559ZM390.609 553.7C390.609 555.467 391.009 556.792 391.809 557.675C392.642 558.525 393.55 558.95 394.534 558.95C395.567 558.95 396.45 558.533 397.184 557.7C397.917 556.833 398.284 555.483 398.284 553.65C398.284 551.983 397.942 550.683 397.259 549.75C396.592 548.817 395.642 548.35 394.409 548.35C393.759 548.35 393.15 548.525 392.584 548.875C391.267 549.658 390.609 551.267 390.609 553.7ZM412.626 556.325H414.726C414.526 557.442 413.984 558.417 413.101 559.25C412.217 560.083 410.909 560.5 409.176 560.5C406.826 560.5 405.101 559.725 404.001 558.175C403.451 557.358 403.092 556.483 402.926 555.55C402.809 554.9 402.751 554.283 402.751 553.7C402.751 552.583 402.917 551.533 403.251 550.55C403.467 549.85 403.784 549.242 404.201 548.725C404.651 548.175 405.292 547.717 406.126 547.35C406.959 546.983 407.901 546.8 408.951 546.8C410.817 546.8 412.226 547.317 413.176 548.35C413.576 548.783 413.901 549.333 414.151 550C414.517 550.967 414.742 552.142 414.826 553.525C414.826 553.575 414.826 553.683 414.826 553.85C414.842 554.017 414.851 554.117 414.851 554.15H405.076C405.076 555.417 405.409 556.533 406.076 557.5C406.742 558.467 407.751 558.95 409.101 558.95C410.067 558.95 410.859 558.708 411.476 558.225C412.092 557.742 412.476 557.108 412.626 556.325ZM405.076 552.6H412.526C412.509 551.617 412.276 550.708 411.826 549.875C411.309 548.858 410.367 548.35 409.001 548.35C407.451 548.35 406.384 548.867 405.801 549.9C405.317 550.733 405.076 551.633 405.076 552.6ZM417.734 564.625V547.3H419.784V549.05H419.859C420.859 547.55 422.259 546.8 424.059 546.8C425.709 546.8 427.075 547.375 428.159 548.525C429.242 549.692 429.784 551.4 429.784 553.65C429.784 555.95 429.234 557.667 428.134 558.8C427.05 559.933 425.709 560.5 424.109 560.5C423.609 560.5 423 560.392 422.284 560.175C421.234 559.858 420.45 559.192 419.934 558.175V564.625H417.734ZM419.784 553.7C419.784 555.467 420.184 556.792 420.984 557.675C421.817 558.525 422.725 558.95 423.709 558.95C424.742 558.95 425.625 558.533 426.359 557.7C427.092 556.833 427.459 555.483 427.459 553.65C427.459 551.983 427.117 550.683 426.434 549.75C425.767 548.817 424.817 548.35 423.584 548.35C422.934 548.35 422.325 548.525 421.759 548.875C420.442 549.658 419.784 551.267 419.784 553.7ZM434.326 551.05H432.226C432.226 550.05 432.559 549.133 433.226 548.3C434.026 547.3 435.492 546.8 437.626 546.8C438.876 546.8 439.976 547.05 440.926 547.55C441.476 547.817 441.909 548.258 442.226 548.875C442.542 549.492 442.692 550.225 442.676 551.075L442.551 556.95C442.551 557.433 442.601 557.808 442.701 558.075C442.851 558.342 443.242 558.467 443.876 558.45V560C443.626 560.067 443.292 560.1 442.876 560.1C442.142 560.1 441.609 559.975 441.276 559.725C440.959 559.475 440.734 558.983 440.601 558.25C439.784 559.75 438.334 560.5 436.251 560.5C434.817 560.5 433.709 560.183 432.926 559.55C432.159 558.9 431.776 557.942 431.776 556.675C431.776 555.475 432.209 554.567 433.076 553.95C433.942 553.3 435.584 552.867 438.001 552.65C439.117 552.567 439.784 552.458 440.001 552.325C440.317 552.108 440.476 551.633 440.476 550.9C440.476 549.2 439.526 548.35 437.626 548.35C435.376 548.35 434.276 549.25 434.326 551.05ZM440.426 554.575L440.476 553.5C440.226 553.683 439.859 553.833 439.376 553.95C438.642 554 438.076 554.058 437.676 554.125C436.292 554.358 435.451 554.55 435.151 554.7C434.417 555.05 434.051 555.683 434.051 556.6C434.051 557.333 434.267 557.908 434.701 558.325C435.151 558.742 435.751 558.95 436.501 558.95C436.984 558.95 437.426 558.883 437.826 558.75C438.242 558.617 438.642 558.4 439.026 558.1C439.426 557.783 439.742 557.325 439.976 556.725C440.226 556.125 440.376 555.408 440.426 554.575ZM455.494 541.675H457.369C457.302 542.892 456.736 543.7 455.669 544.1C455.086 544.3 454.586 544.433 454.169 544.5C452.302 544.733 451.219 544.892 450.919 544.975C449.786 545.292 448.919 545.867 448.319 546.7C447.719 547.517 447.402 548.692 447.369 550.225H447.419C448.219 548.075 449.861 547 452.344 547C454.361 547 455.869 547.667 456.869 549C457.886 550.317 458.394 551.933 458.394 553.85C458.394 555.683 457.869 557.25 456.819 558.55C455.769 559.85 454.211 560.5 452.144 560.5C449.861 560.5 448.169 559.633 447.069 557.9C446.519 556.95 446.144 555.883 445.944 554.7C445.811 553.767 445.744 552.842 445.744 551.925C445.744 548.708 446.236 546.458 447.219 545.175C448.086 544.058 449.261 543.342 450.744 543.025C452.144 542.708 453.327 542.525 454.294 542.475C454.944 542.392 455.344 542.125 455.494 541.675ZM448.069 554C448.069 555.1 448.319 556.158 448.819 557.175C449.402 558.358 450.494 558.95 452.094 558.95C453.361 558.95 454.336 558.525 455.019 557.675C455.719 556.808 456.069 555.617 456.069 554.1C456.069 552.85 455.852 551.692 455.419 550.625C454.869 549.242 453.761 548.55 452.094 548.55C450.427 548.55 449.302 549.225 448.719 550.575C448.286 551.608 448.069 552.75 448.069 554ZM460.864 556.15C460.431 554.367 460.447 552.642 460.914 550.975C461.381 549.308 462.364 548.117 463.864 547.4C464.697 547 465.672 546.8 466.789 546.8C467.906 546.8 468.881 547 469.714 547.4C471.214 548.1 472.206 549.35 472.689 551.15C472.906 551.983 473.014 552.825 473.014 553.675C473.031 554.508 472.931 555.333 472.714 556.15C472.514 556.95 472.156 557.683 471.639 558.35C471.139 559.017 470.497 559.542 469.714 559.925C468.864 560.308 467.889 560.5 466.789 560.5C465.689 560.5 464.714 560.308 463.864 559.925C462.414 559.225 461.414 557.967 460.864 556.15ZM463.189 551.125C462.972 551.792 462.864 552.625 462.864 553.625C462.864 554.608 462.972 555.45 463.189 556.15C463.406 556.85 463.656 557.375 463.939 557.725C464.539 558.392 465.222 558.783 465.989 558.9C466.522 558.983 467.056 558.983 467.589 558.9C467.822 558.883 468.147 558.767 468.564 558.55C469.014 558.317 469.381 558.025 469.664 557.675C469.947 557.325 470.189 556.817 470.389 556.15C470.606 555.45 470.714 554.608 470.714 553.625C470.714 552.625 470.606 551.792 470.389 551.125C470.156 550.392 469.897 549.867 469.614 549.55C469.347 549.233 469.014 548.967 468.614 548.75C468.214 548.533 467.872 548.4 467.589 548.35C467.056 548.267 466.522 548.267 465.989 548.35C465.756 548.367 465.422 548.492 464.989 548.725C464.139 549.142 463.539 549.942 463.189 551.125ZM478.056 560V548.85H473.656V547.3H484.656V548.85H480.256V560H478.056ZM488.684 547.3V552.85L494.109 547.3H496.684L490.734 553.2L497.009 560H494.384L488.684 553.65V560H486.484V547.3H488.684ZM500.915 547.3V557.425L507.54 547.3H509.99V560H507.79V549.85L501.19 560H498.715V547.3H500.915Z" fill="black"/>
<path d="M44.275 523.775H35.475V532H33.125V514.5H35.475V521.8H44.275V514.5H46.625V532H44.275V523.775ZM52.749 519.3V529.425L59.374 519.3H61.824V532H59.624V521.85L53.024 532H50.549V519.3H52.749ZM64.4172 528.1H66.5172C66.5172 528.933 66.8172 529.617 67.4172 530.15C68.0172 530.683 68.8422 530.95 69.8922 530.95C70.9255 530.95 71.7339 530.742 72.3172 530.325C72.9005 529.892 73.1922 529.267 73.1922 528.45C73.1922 526.933 72.2339 526.175 70.3172 526.175H68.4422V524.625H70.0672C71.8339 524.625 72.7172 523.967 72.7172 522.65C72.7172 522.433 72.6839 522.217 72.6172 522C72.5672 521.783 72.4505 521.542 72.2672 521.275C72.1005 520.992 71.8089 520.767 71.3922 520.6C70.9755 520.433 70.4589 520.35 69.8422 520.35C68.7422 520.35 67.9672 520.608 67.5172 521.125C67.0672 521.642 66.8422 522.2 66.8422 522.8H64.7422C64.7922 521.933 65.0172 521.208 65.4172 520.625C65.8172 520.042 66.3339 519.625 66.9672 519.375C68.0005 518.992 69.0005 518.8 69.9672 518.8C70.8172 518.8 71.5672 518.9 72.2172 519.1C72.8672 519.283 73.3589 519.508 73.6922 519.775C74.0422 520.042 74.3172 520.358 74.5172 520.725C74.7339 521.092 74.8672 521.417 74.9172 521.7C74.9672 521.967 74.9922 522.233 74.9922 522.5C74.9922 523.983 74.2589 524.908 72.7922 525.275V525.35C73.5755 525.467 74.2172 525.808 74.7172 526.375C75.2172 526.942 75.4672 527.683 75.4672 528.6C75.4672 529.533 75.1339 530.383 74.4672 531.15C73.6505 532.05 72.1839 532.5 70.0672 532.5C68.2839 532.5 66.9255 532.125 65.9922 531.375C64.9422 530.458 64.4172 529.367 64.4172 528.1ZM80.5322 519.3V524.85L85.9572 519.3H88.5322L82.5822 525.2L88.8572 532H86.2322L80.5322 525.65V532H78.3322V519.3H80.5322ZM92.7637 519.3V529.425L99.3887 519.3H101.839V532H99.6387V521.85L93.0387 532H90.5637V519.3H92.7637ZM107.632 519.3V529.425L114.257 519.3H116.707V532H114.507V521.85L107.907 532H105.432V519.3H107.632ZM113.432 514.5H115.307C114.957 516.333 113.857 517.408 112.007 517.725C111.69 517.775 111.357 517.8 111.007 517.8C108.857 517.8 107.482 516.925 106.882 515.175C106.832 515.058 106.774 514.833 106.707 514.5H108.582C108.532 514.933 108.682 515.342 109.032 515.725C109.282 515.992 109.574 516.192 109.907 516.325C110.207 516.425 110.574 516.475 111.007 516.475C111.724 516.475 112.315 516.3 112.782 515.95C113.249 515.583 113.465 515.1 113.432 514.5ZM33.275 564.6V562.975C33.9083 563.058 34.275 563.1 34.375 563.1C35.0083 563.1 35.4583 562.867 35.725 562.4C35.8917 562.15 36 561.942 36.05 561.775C36.1 561.692 36.2083 561.417 36.375 560.95L36.675 560L31.175 547.3H33.8L37.875 557.575L41.25 547.3H43.45L38.4 561.5C38 562.633 37.6583 563.375 37.375 563.725C36.8083 564.392 36.0417 564.725 35.075 564.725C34.325 564.725 33.725 564.683 33.275 564.6ZM45.2512 564.625V547.3H47.3012V549.05H47.3762C48.3762 547.55 49.7762 546.8 51.5762 546.8C53.2262 546.8 54.5928 547.375 55.6762 548.525C56.7595 549.692 57.3012 551.4 57.3012 553.65C57.3012 555.95 56.7512 557.667 55.6512 558.8C54.5678 559.933 53.2262 560.5 51.6262 560.5C51.1262 560.5 50.5178 560.392 49.8012 560.175C48.7512 559.858 47.9678 559.192 47.4512 558.175V564.625H45.2512ZM47.3012 553.7C47.3012 555.467 47.7012 556.792 48.5012 557.675C49.3345 558.525 50.2428 558.95 51.2262 558.95C52.2595 558.95 53.1428 558.533 53.8762 557.7C54.6095 556.833 54.9762 555.483 54.9762 553.65C54.9762 551.983 54.6345 550.683 53.9512 549.75C53.2845 548.817 52.3345 548.35 51.1012 548.35C50.4512 548.35 49.8428 548.525 49.2762 548.875C47.9595 549.658 47.3012 551.267 47.3012 553.7ZM59.7682 556.15C59.3348 554.367 59.3515 552.642 59.8182 550.975C60.2848 549.308 61.2682 548.117 62.7682 547.4C63.6015 547 64.5765 546.8 65.6932 546.8C66.8098 546.8 67.7848 547 68.6182 547.4C70.1182 548.1 71.1098 549.35 71.5932 551.15C71.8098 551.983 71.9182 552.825 71.9182 553.675C71.9348 554.508 71.8348 555.333 71.6182 556.15C71.4182 556.95 71.0598 557.683 70.5432 558.35C70.0432 559.017 69.4015 559.542 68.6182 559.925C67.7682 560.308 66.7932 560.5 65.6932 560.5C64.5932 560.5 63.6182 560.308 62.7682 559.925C61.3182 559.225 60.3182 557.967 59.7682 556.15ZM62.0932 551.125C61.8765 551.792 61.7682 552.625 61.7682 553.625C61.7682 554.608 61.8765 555.45 62.0932 556.15C62.3098 556.85 62.5598 557.375 62.8432 557.725C63.4432 558.392 64.1265 558.783 64.8932 558.9C65.4265 558.983 65.9598 558.983 66.4932 558.9C66.7265 558.883 67.0515 558.767 67.4682 558.55C67.9182 558.317 68.2848 558.025 68.5682 557.675C68.8515 557.325 69.0932 556.817 69.2932 556.15C69.5098 555.45 69.6182 554.608 69.6182 553.625C69.6182 552.625 69.5098 551.792 69.2932 551.125C69.0598 550.392 68.8015 549.867 68.5182 549.55C68.2515 549.233 67.9182 548.967 67.5182 548.75C67.1182 548.533 66.7765 548.4 66.4932 548.35C65.9598 548.267 65.4265 548.267 64.8932 548.35C64.6598 548.367 64.3265 548.492 63.8932 548.725C63.0432 549.142 62.4432 549.942 62.0932 551.125ZM74.8166 560V547.3H80.8666C83.5499 547.3 84.8916 548.308 84.8916 550.325C84.8916 551.775 84.1249 552.767 82.5916 553.3V553.375C83.6249 553.625 84.3416 554.025 84.7416 554.575C85.1583 555.125 85.3666 555.833 85.3666 556.7C85.3666 558.083 84.8583 559 83.8416 559.45C83.0083 559.817 81.9916 560 80.7916 560H74.8166ZM80.1666 548.85H77.0166V552.6H80.0666C80.9499 552.6 81.5999 552.425 82.0166 552.075C82.4499 551.708 82.6666 551.233 82.6666 550.65C82.6666 549.45 81.8333 548.85 80.1666 548.85ZM80.1666 554.15H77.0166V558.45H80.2416C82.1416 558.45 83.0916 557.8 83.0916 556.5C83.0916 554.933 82.1166 554.15 80.1666 554.15ZM97.4432 556.325H99.5432C99.3432 557.442 98.8015 558.417 97.9182 559.25C97.0348 560.083 95.7265 560.5 93.9932 560.5C91.6432 560.5 89.9182 559.725 88.8182 558.175C88.2682 557.358 87.9098 556.483 87.7432 555.55C87.6265 554.9 87.5682 554.283 87.5682 553.7C87.5682 552.583 87.7348 551.533 88.0682 550.55C88.2848 549.85 88.6015 549.242 89.0182 548.725C89.4682 548.175 90.1098 547.717 90.9432 547.35C91.7765 546.983 92.7182 546.8 93.7682 546.8C95.6348 546.8 97.0432 547.317 97.9932 548.35C98.3932 548.783 98.7182 549.333 98.9682 550C99.3348 550.967 99.5598 552.142 99.6432 553.525C99.6432 553.575 99.6432 553.683 99.6432 553.85C99.6598 554.017 99.6682 554.117 99.6682 554.15H89.8932C89.8932 555.417 90.2265 556.533 90.8932 557.5C91.5598 558.467 92.5682 558.95 93.9182 558.95C94.8848 558.95 95.6765 558.708 96.2932 558.225C96.9098 557.742 97.2932 557.108 97.4432 556.325ZM89.8932 552.6H97.3432C97.3265 551.617 97.0932 550.708 96.6432 549.875C96.1265 548.858 95.1848 548.35 93.8182 548.35C92.2682 548.35 91.2015 548.867 90.6182 549.9C90.1348 550.733 89.8932 551.633 89.8932 552.6ZM111.026 554.075H104.751V560H102.551V547.3H104.751V552.525H111.026V547.3H113.226V560H111.026V554.075ZM116.833 560V547.3H119.033V552.35H122.208C123.458 552.35 124.533 552.533 125.433 552.9C126.683 553.35 127.308 554.4 127.308 556.05C127.308 557.417 126.908 558.433 126.108 559.1C125.775 559.367 125.383 559.567 124.933 559.7C124.333 559.9 123.675 560 122.958 560H116.833ZM121.708 553.9H119.033V558.45H122.083C123.117 558.45 123.875 558.242 124.358 557.825C124.842 557.342 125.067 556.75 125.033 556.05C125.033 555.283 124.783 554.717 124.283 554.35C124.117 554.233 123.85 554.133 123.483 554.05C123.083 553.95 122.558 553.9 121.908 553.9H121.708ZM135.11 556.15C134.677 554.367 134.693 552.642 135.16 550.975C135.627 549.308 136.61 548.117 138.11 547.4C138.943 547 139.918 546.8 141.035 546.8C142.152 546.8 143.127 547 143.96 547.4C145.46 548.1 146.452 549.35 146.935 551.15C147.152 551.983 147.26 552.825 147.26 553.675C147.277 554.508 147.177 555.333 146.96 556.15C146.76 556.95 146.402 557.683 145.885 558.35C145.385 559.017 144.743 559.542 143.96 559.925C143.11 560.308 142.135 560.5 141.035 560.5C139.935 560.5 138.96 560.308 138.11 559.925C136.66 559.225 135.66 557.967 135.11 556.15ZM137.435 551.125C137.218 551.792 137.11 552.625 137.11 553.625C137.11 554.608 137.218 555.45 137.435 556.15C137.652 556.85 137.902 557.375 138.185 557.725C138.785 558.392 139.468 558.783 140.235 558.9C140.768 558.983 141.302 558.983 141.835 558.9C142.068 558.883 142.393 558.767 142.81 558.55C143.26 558.317 143.627 558.025 143.91 557.675C144.193 557.325 144.435 556.817 144.635 556.15C144.852 555.45 144.96 554.608 144.96 553.625C144.96 552.625 144.852 551.792 144.635 551.125C144.402 550.392 144.143 549.867 143.86 549.55C143.593 549.233 143.26 548.967 142.86 548.75C142.46 548.533 142.118 548.4 141.835 548.35C141.302 548.267 140.768 548.267 140.235 548.35C140.002 548.367 139.668 548.492 139.235 548.725C138.385 549.142 137.785 549.942 137.435 551.125ZM158.783 548.85H152.358V560H150.158V547.3H160.983V560H158.783V548.85ZM166.262 551.05H164.162C164.162 550.05 164.495 549.133 165.162 548.3C165.962 547.3 167.429 546.8 169.562 546.8C170.812 546.8 171.912 547.05 172.862 547.55C173.412 547.817 173.845 548.258 174.162 548.875C174.479 549.492 174.629 550.225 174.612 551.075L174.487 556.95C174.487 557.433 174.537 557.808 174.637 558.075C174.787 558.342 175.179 558.467 175.812 558.45V560C175.562 560.067 175.229 560.1 174.812 560.1C174.079 560.1 173.545 559.975 173.212 559.725C172.895 559.475 172.67 558.983 172.537 558.25C171.72 559.75 170.27 560.5 168.187 560.5C166.754 560.5 165.645 560.183 164.862 559.55C164.095 558.9 163.712 557.942 163.712 556.675C163.712 555.475 164.145 554.567 165.012 553.95C165.879 553.3 167.52 552.867 169.937 552.65C171.054 552.567 171.72 552.458 171.937 552.325C172.254 552.108 172.412 551.633 172.412 550.9C172.412 549.2 171.462 548.35 169.562 548.35C167.312 548.35 166.212 549.25 166.262 551.05ZM172.362 554.575L172.412 553.5C172.162 553.683 171.795 553.833 171.312 553.95C170.579 554 170.012 554.058 169.612 554.125C168.229 554.358 167.387 554.55 167.087 554.7C166.354 555.05 165.987 555.683 165.987 556.6C165.987 557.333 166.204 557.908 166.637 558.325C167.087 558.742 167.687 558.95 168.437 558.95C168.92 558.95 169.362 558.883 169.762 558.75C170.179 558.617 170.579 558.4 170.962 558.1C171.362 557.783 171.679 557.325 171.912 556.725C172.162 556.125 172.312 555.408 172.362 554.575ZM187.305 555.475H189.405C189.339 556.442 188.972 557.458 188.305 558.525C187.939 559.125 187.364 559.608 186.58 559.975C185.814 560.325 184.914 560.5 183.88 560.5C183.53 560.5 183.28 560.492 183.13 560.475C182.397 560.442 181.647 560.25 180.88 559.9C178.747 558.833 177.68 556.717 177.68 553.55C177.68 551.883 178.064 550.4 178.83 549.1C179.78 547.567 181.414 546.8 183.73 546.8C185.364 546.8 186.664 547.217 187.63 548.05C188.597 548.867 189.155 549.942 189.305 551.275H187.205C186.872 549.325 185.73 548.35 183.78 548.35C182.514 548.35 181.564 548.817 180.93 549.75C180.314 550.667 180.005 551.933 180.005 553.55C180.005 555.117 180.33 556.408 180.98 557.425C181.63 558.442 182.614 558.95 183.93 558.95C185.064 558.95 185.889 558.592 186.405 557.875C186.955 557.158 187.255 556.358 187.305 555.475ZM200.577 554.075H194.302V560H192.102V547.3H194.302V552.525H200.577V547.3H202.777V560H200.577V554.075ZM205.984 556.15C205.551 554.367 205.567 552.642 206.034 550.975C206.501 549.308 207.484 548.117 208.984 547.4C209.817 547 210.792 546.8 211.909 546.8C213.026 546.8 214.001 547 214.834 547.4C216.334 548.1 217.326 549.35 217.809 551.15C218.026 551.983 218.134 552.825 218.134 553.675C218.151 554.508 218.051 555.333 217.834 556.15C217.634 556.95 217.276 557.683 216.759 558.35C216.259 559.017 215.617 559.542 214.834 559.925C213.984 560.308 213.009 560.5 211.909 560.5C210.809 560.5 209.834 560.308 208.984 559.925C207.534 559.225 206.534 557.967 205.984 556.15ZM208.309 551.125C208.092 551.792 207.984 552.625 207.984 553.625C207.984 554.608 208.092 555.45 208.309 556.15C208.526 556.85 208.776 557.375 209.059 557.725C209.659 558.392 210.342 558.783 211.109 558.9C211.642 558.983 212.176 558.983 212.709 558.9C212.942 558.883 213.267 558.767 213.684 558.55C214.134 558.317 214.501 558.025 214.784 557.675C215.067 557.325 215.309 556.817 215.509 556.15C215.726 555.45 215.834 554.608 215.834 553.625C215.834 552.625 215.726 551.792 215.509 551.125C215.276 550.392 215.017 549.867 214.734 549.55C214.467 549.233 214.134 548.967 213.734 548.75C213.334 548.533 212.992 548.4 212.709 548.35C212.176 548.267 211.642 548.267 211.109 548.35C210.876 548.367 210.542 548.492 210.109 548.725C209.259 549.142 208.659 549.942 208.309 551.125ZM229.932 555.475H232.032C231.966 556.442 231.599 557.458 230.932 558.525C230.566 559.125 229.991 559.608 229.207 559.975C228.441 560.325 227.541 560.5 226.507 560.5C226.157 560.5 225.907 560.492 225.757 560.475C225.024 560.442 224.274 560.25 223.507 559.9C221.374 558.833 220.307 556.717 220.307 553.55C220.307 551.883 220.691 550.4 221.457 549.1C222.407 547.567 224.041 546.8 226.357 546.8C227.991 546.8 229.291 547.217 230.257 548.05C231.224 548.867 231.782 549.942 231.932 551.275H229.832C229.499 549.325 228.357 548.35 226.407 548.35C225.141 548.35 224.191 548.817 223.557 549.75C222.941 550.667 222.632 551.933 222.632 553.55C222.632 555.117 222.957 556.408 223.607 557.425C224.257 558.442 225.241 558.95 226.557 558.95C227.691 558.95 228.516 558.592 229.032 557.875C229.582 557.158 229.882 556.358 229.932 555.475ZM237.214 560V548.85H232.814V547.3H243.814V548.85H239.414V560H237.214ZM247.695 547.3V557.425L254.32 547.3H256.77V560H254.57V549.85L247.97 560H245.495V547.3H247.695Z" fill="black"/>
<path d="M75.75 451H82V457.167H75.75V451ZM69.5 463.333V457.167H75.75V463.333H69.5ZM63.25 469.5V463.333H69.5V469.5H63.25ZM57 475.667H63.25V469.5H57V475.667ZM50.75 481.833H57V475.667H50.75V481.833ZM44.5 481.833V488H50.75V481.833H44.5ZM38.25 475.667H44.5V481.833H38.25V475.667ZM38.25 475.667H32V469.5H38.25V475.667Z" fill="black"/>
<path d="M141.031 230.02L132.719 215.06L125.727 218.94L134.039 233.908C134.676 235.042 135.004 236.325 134.988 237.626C134.971 238.928 134.612 240.202 133.947 241.32C132.587 243.624 130.183 245 127.507 245H98.3189L108.639 234.64L102.999 229L82.999 249L102.999 269L108.639 263.36L98.3189 253H127.511C130.207 253.014 132.859 252.317 135.199 250.978C137.539 249.64 139.484 247.707 140.839 245.376C142.22 243.059 142.965 240.419 142.999 237.722C143.033 235.025 142.354 232.371 141.031 230.02ZM46.4913 245C45.1889 245.008 43.9077 244.671 42.7769 244.025C41.6462 243.379 40.706 242.446 40.0513 241.32C39.3862 240.201 39.0278 238.927 39.0124 237.626C38.9969 236.324 39.3249 235.042 39.9633 233.908L56.4032 204.308L60.5992 218.388L68.2471 216.12L60.2112 189L33.0914 197.032L35.3594 204.68L49.3313 200.56L32.9714 230.02C31.6478 232.37 30.9681 235.028 31.0011 237.725C31.0342 240.422 31.7787 243.063 33.1594 245.38C34.5145 247.711 36.4608 249.643 38.8017 250.981C41.1425 252.319 43.7951 253.015 46.4913 253H70.9991V245H46.4913ZM125.039 179.616L120.847 193.692L100.399 156.88C97.6549 151.948 92.6469 149 86.999 149C81.351 149 76.3391 151.948 73.5991 156.884L61.2792 179.06L68.2751 182.94L80.595 160.768C81.899 158.408 84.295 157 86.999 157C89.703 157 92.0949 158.412 93.4069 160.768L113.775 197.436L99.7989 193.316L97.5349 200.968L124.655 209L132.687 181.88L125.039 179.616Z" fill="black"/>
<path d="M77.4918 217.385H81.7968C81.8902 218.435 82.2985 219.345 83.0218 220.115C83.7685 220.885 84.8418 221.27 86.2418 221.27C86.8018 221.27 87.3268 221.2 87.8168 221.06C88.3302 220.897 88.8435 220.64 89.3568 220.29C89.8702 219.917 90.2668 219.357 90.5468 218.61C90.8502 217.84 91.0018 216.907 91.0018 215.81C91.0018 214.9 90.8735 214.107 90.6168 213.43C90.3602 212.753 90.0568 212.252 89.7068 211.925C89.3802 211.598 88.9718 211.342 88.4818 211.155C88.0152 210.968 87.6302 210.863 87.3268 210.84C87.0468 210.793 86.7435 210.77 86.4168 210.77C84.4335 210.77 83.0568 211.447 82.2868 212.8H78.0518L79.7318 199.5H94.0468V203.21H83.0218L82.2168 208.88C83.4302 207.667 85.2268 207.06 87.6068 207.06C90.0102 207.06 91.9352 207.818 93.3818 209.335C94.8285 210.852 95.5518 212.998 95.5518 215.775C95.5518 217.385 95.2718 218.785 94.7118 219.975C94.1518 221.165 93.4985 222.052 92.7518 222.635C92.0285 223.218 91.1535 223.685 90.1268 224.035C89.1235 224.385 88.3185 224.583 87.7118 224.63C87.1285 224.7 86.5452 224.735 85.9618 224.735C80.9218 224.735 78.0985 222.285 77.4918 217.385Z" fill="black"/>
<path d="M221.205 61.975H219L231.495 31H233.7L221.205 61.975Z" fill="black"/>
</svg>
