<svg width="388" height="389" viewBox="0 0 388 389" fill="none" xmlns="http://www.w3.org/2000/svg">
<rect width="388" height="388" transform="translate(0 0.108398)" fill="#FFFF00"/>
<path d="M31.0397 210.413V220.537H32.6863L32.5395 224.401H31.2027V221.825H22.3342V224.401H20.9974L20.8669 220.537H21.894C23.3395 218.733 24.0622 216.141 24.0622 212.761V210.413H31.0397ZM29.5073 220.537V211.701H25.5947V213.12C25.5947 214.739 25.4588 216.114 25.1871 217.244C24.9045 218.418 24.4155 219.516 23.7199 220.537H29.5073ZM35.1688 215.989H33.7994C33.7994 215.337 34.0168 214.739 34.4515 214.196C34.9732 213.544 35.9296 213.217 37.3208 213.217C38.1359 213.217 38.8532 213.38 39.4727 213.707C39.8314 213.88 40.1139 214.168 40.3204 214.571C40.5269 214.973 40.6248 215.451 40.6139 216.005L40.5324 219.836C40.5324 220.151 40.565 220.396 40.6302 220.57C40.728 220.744 40.9834 220.825 41.3964 220.814V221.825C41.2334 221.869 41.016 221.89 40.7443 221.89C40.2661 221.89 39.9183 221.809 39.7009 221.646C39.4944 221.483 39.3477 221.162 39.2608 220.684C38.7282 221.662 37.7827 222.151 36.4241 222.151C35.4895 222.151 34.7667 221.945 34.2559 221.532C33.756 221.108 33.506 220.483 33.506 219.657C33.506 218.874 33.7886 218.282 34.3537 217.88C34.9189 217.456 35.9894 217.174 37.5653 217.032C38.2935 216.978 38.7282 216.907 38.8695 216.82C39.076 216.679 39.1793 216.369 39.1793 215.891C39.1793 214.783 38.5598 214.228 37.3208 214.228C35.8535 214.228 35.1362 214.815 35.1688 215.989ZM39.1467 218.288L39.1793 217.587C39.0162 217.706 38.7771 217.804 38.462 217.88C37.9837 217.913 37.6142 217.951 37.3534 217.994C36.4513 218.146 35.9025 218.271 35.7068 218.369C35.2286 218.597 34.9895 219.01 34.9895 219.608C34.9895 220.086 35.1308 220.461 35.4134 220.733C35.7068 221.005 36.0981 221.14 36.5872 221.14C36.9023 221.14 37.1904 221.097 37.4512 221.01C37.7229 220.923 37.9837 220.782 38.2337 220.586C38.4946 220.38 38.7011 220.081 38.8532 219.69C39.0162 219.298 39.1141 218.831 39.1467 218.288ZM48.6141 217.961H44.5222V221.825H43.0875V213.544H44.5222V216.951H48.6141V213.544H50.0487V221.825H48.6141V217.961ZM57.9275 217.961H53.8356V221.825H52.401V213.544H53.8356V216.951H57.9275V213.544H59.3622V221.825H57.9275V217.961ZM61.7144 221.825V213.544H63.1491V216.82H65.2358C65.8988 216.82 66.453 216.886 66.8986 217.016C67.9637 217.288 68.518 218.065 68.5615 219.347C68.5615 220.108 68.3278 220.711 67.8605 221.157C67.404 221.602 66.6921 221.825 65.7249 221.825H61.7144ZM64.8934 217.831H63.1491V220.814H65.1543C66.4367 220.814 67.078 220.293 67.078 219.249C67.078 218.739 66.9095 218.369 66.5726 218.141C66.4639 218.054 66.2846 217.983 66.0346 217.929C65.7738 217.864 65.3934 217.831 64.8934 217.831ZM69.5723 221.825V213.544H71.0069V221.825H69.5723ZM74.7869 213.544V220.146L79.1071 213.544H80.7047V221.825H79.2701V215.206L74.9662 221.825H73.3523V213.544H74.7869ZM78.5691 210.413H79.7918C79.5635 211.609 78.8462 212.31 77.6398 212.516C77.4333 212.549 77.216 212.565 76.9877 212.565C75.5857 212.565 74.6891 211.995 74.2978 210.854C74.2652 210.778 74.2272 210.631 74.1837 210.413H75.4064C75.3738 210.696 75.4716 210.962 75.6998 211.212C75.8629 211.386 76.0531 211.517 76.2704 211.604C76.4661 211.669 76.7052 211.701 76.9877 211.701C77.4551 211.701 77.8409 211.587 78.1452 211.359C78.4495 211.12 78.5908 210.805 78.5691 210.413ZM86.8528 221.825V213.544H90.798C92.5478 213.544 93.4227 214.201 93.4227 215.516C93.4227 216.462 92.9228 217.108 91.9229 217.456V217.505C92.5967 217.668 93.0641 217.929 93.3249 218.288C93.5966 218.646 93.7325 219.108 93.7325 219.673C93.7325 220.575 93.401 221.173 92.738 221.467C92.1946 221.706 91.5316 221.825 90.7491 221.825H86.8528ZM90.3415 214.554H88.2874V217H90.2763C90.8524 217 91.2762 216.886 91.5479 216.657C91.8305 216.418 91.9718 216.108 91.9718 215.728C91.9718 214.946 91.4284 214.554 90.3415 214.554ZM90.3415 218.01H88.2874V220.814H90.3905C91.6294 220.814 92.2489 220.391 92.2489 219.543C92.2489 218.521 91.6131 218.01 90.3415 218.01ZM97.0755 213.544V220.146L101.396 213.544H102.993V221.825H101.559V215.206L97.2548 221.825H95.6409V213.544H97.0755ZM104.293 223.977L104.163 220.814H105.206C106.108 219.489 106.559 217.527 106.559 214.929V213.544H112.493V220.814H113.928L113.814 223.977H112.607V221.825H105.499V223.977H104.293ZM111.059 220.814V214.554H107.896V215.712C107.896 216.592 107.798 217.505 107.602 218.451C107.429 219.385 107.135 220.173 106.722 220.814H111.059ZM124.589 214.554H120.399V221.825H118.964V213.544H126.023V221.825H124.589V214.554ZM127.411 221.825V220.766C128.227 221.005 128.803 220.619 129.14 219.608C129.226 219.358 129.286 219.048 129.319 218.679L129.384 217.684C129.395 217.51 129.4 217.168 129.4 216.657V213.544H135.139V221.825H133.704V214.554H130.737V216.657C130.737 217.342 130.721 217.918 130.688 218.385C130.656 218.842 130.574 219.342 130.444 219.885C130.259 220.657 129.927 221.206 129.449 221.532C128.971 221.858 128.292 221.956 127.411 221.825ZM138.572 215.989H137.203C137.203 215.337 137.42 214.739 137.855 214.196C138.376 213.544 139.333 213.217 140.724 213.217C141.539 213.217 142.256 213.38 142.876 213.707C143.235 213.88 143.517 214.168 143.724 214.571C143.93 214.973 144.028 215.451 144.017 216.005L143.936 219.836C143.936 220.151 143.968 220.396 144.033 220.57C144.131 220.744 144.387 220.825 144.8 220.814V221.825C144.637 221.869 144.419 221.89 144.148 221.89C143.669 221.89 143.322 221.809 143.104 221.646C142.898 221.483 142.751 221.162 142.664 220.684C142.131 221.662 141.186 222.151 139.827 222.151C138.893 222.151 138.17 221.945 137.659 221.532C137.159 221.108 136.909 220.483 136.909 219.657C136.909 218.874 137.192 218.282 137.757 217.88C138.322 217.456 139.393 217.174 140.969 217.032C141.697 216.978 142.131 216.907 142.273 216.82C142.479 216.679 142.582 216.369 142.582 215.891C142.582 214.783 141.963 214.228 140.724 214.228C139.257 214.228 138.539 214.815 138.572 215.989ZM142.55 218.288L142.582 217.587C142.419 217.706 142.18 217.804 141.865 217.88C141.387 217.913 141.017 217.951 140.757 217.994C139.855 218.146 139.306 218.271 139.11 218.369C138.632 218.597 138.393 219.01 138.393 219.608C138.393 220.086 138.534 220.461 138.817 220.733C139.11 221.005 139.501 221.14 139.99 221.14C140.306 221.14 140.594 221.097 140.854 221.01C141.126 220.923 141.387 220.782 141.637 220.586C141.898 220.38 142.104 220.081 142.256 219.69C142.419 219.298 142.517 218.831 142.55 218.288ZM152.294 218.874H153.664C153.62 219.505 153.381 220.168 152.947 220.863C152.707 221.255 152.332 221.57 151.822 221.809C151.322 222.037 150.735 222.151 150.061 222.151C149.833 222.151 149.67 222.146 149.572 222.135C149.094 222.113 148.605 221.988 148.105 221.76C146.714 221.064 146.018 219.684 146.018 217.619C146.018 216.532 146.268 215.565 146.768 214.717C147.387 213.717 148.452 213.217 149.963 213.217C151.028 213.217 151.876 213.489 152.506 214.033C153.137 214.565 153.501 215.266 153.599 216.136H152.229C152.012 214.864 151.267 214.228 149.996 214.228C149.17 214.228 148.55 214.533 148.137 215.141C147.735 215.739 147.534 216.565 147.534 217.619C147.534 218.641 147.746 219.483 148.17 220.146C148.594 220.809 149.235 221.14 150.094 221.14C150.833 221.14 151.371 220.907 151.708 220.439C152.066 219.972 152.262 219.45 152.294 218.874ZM157.043 221.825V214.554H154.174V213.544H161.347V214.554H158.478V221.825H157.043ZM163.878 213.544V220.146L168.198 213.544H169.795V221.825H168.361V215.206L164.057 221.825H162.443V213.544H163.878ZM173.573 213.544V217.163L177.111 213.544H178.79L174.91 217.391L179.002 221.825H177.29L173.573 217.684V221.825H172.139V213.544H173.573ZM181.207 215.989H179.838C179.838 215.337 180.055 214.739 180.49 214.196C181.011 213.544 181.968 213.217 183.359 213.217C184.174 213.217 184.891 213.38 185.511 213.707C185.869 213.88 186.152 214.168 186.359 214.571C186.565 214.973 186.663 215.451 186.652 216.005L186.57 219.836C186.57 220.151 186.603 220.396 186.668 220.57C186.766 220.744 187.022 220.825 187.435 220.814V221.825C187.272 221.869 187.054 221.89 186.782 221.89C186.304 221.89 185.956 221.809 185.739 221.646C185.533 221.483 185.386 221.162 185.299 220.684C184.766 221.662 183.821 222.151 182.462 222.151C181.528 222.151 180.805 221.945 180.294 221.532C179.794 221.108 179.544 220.483 179.544 219.657C179.544 218.874 179.827 218.282 180.392 217.88C180.957 217.456 182.028 217.174 183.603 217.032C184.332 216.978 184.766 216.907 184.908 216.82C185.114 216.679 185.217 216.369 185.217 215.891C185.217 214.783 184.598 214.228 183.359 214.228C181.892 214.228 181.174 214.815 181.207 215.989ZM185.185 218.288L185.217 217.587C185.054 217.706 184.815 217.804 184.5 217.88C184.022 217.913 183.652 217.951 183.392 217.994C182.489 218.146 181.941 218.271 181.745 218.369C181.267 218.597 181.028 219.01 181.028 219.608C181.028 220.086 181.169 220.461 181.452 220.733C181.745 221.005 182.136 221.14 182.625 221.14C182.94 221.14 183.228 221.097 183.489 221.01C183.761 220.923 184.022 220.782 184.272 220.586C184.533 220.38 184.739 220.081 184.891 219.69C185.054 219.298 185.152 218.831 185.185 218.288ZM194.365 213.544V220.146L198.685 213.544H200.283V221.825H198.848V215.206L194.545 221.825H192.931V213.544H194.365ZM208.43 218.874H209.799C209.756 219.505 209.517 220.168 209.082 220.863C208.843 221.255 208.468 221.57 207.957 221.809C207.457 222.037 206.87 222.151 206.196 222.151C205.968 222.151 205.805 222.146 205.707 222.135C205.229 222.113 204.74 221.988 204.24 221.76C202.849 221.064 202.153 219.684 202.153 217.619C202.153 216.532 202.403 215.565 202.903 214.717C203.523 213.717 204.588 213.217 206.099 213.217C207.164 213.217 208.011 213.489 208.642 214.033C209.272 214.565 209.636 215.266 209.734 216.136H208.365C208.147 214.864 207.403 214.228 206.131 214.228C205.305 214.228 204.686 214.533 204.273 215.141C203.871 215.739 203.67 216.565 203.67 217.619C203.67 218.641 203.881 219.483 204.305 220.146C204.729 220.809 205.37 221.14 206.229 221.14C206.968 221.14 207.506 220.907 207.843 220.439C208.202 219.972 208.397 219.45 208.43 218.874ZM217.182 214.554H212.992V221.825H211.558V213.544H218.617V221.825H217.182V214.554ZM220.706 219.315C220.423 218.152 220.434 217.027 220.738 215.94C221.043 214.853 221.684 214.076 222.662 213.609C223.205 213.348 223.841 213.217 224.569 213.217C225.298 213.217 225.933 213.348 226.477 213.609C227.455 214.065 228.102 214.88 228.417 216.054C228.558 216.598 228.629 217.146 228.629 217.701C228.64 218.244 228.574 218.782 228.433 219.315C228.303 219.836 228.069 220.314 227.732 220.749C227.406 221.184 226.988 221.526 226.477 221.776C225.922 222.026 225.287 222.151 224.569 222.151C223.852 222.151 223.216 222.026 222.662 221.776C221.716 221.32 221.064 220.499 220.706 219.315ZM222.222 216.038C222.081 216.473 222.01 217.016 222.01 217.668C222.01 218.309 222.081 218.858 222.222 219.315C222.363 219.771 222.526 220.113 222.711 220.342C223.102 220.776 223.548 221.032 224.048 221.108C224.395 221.162 224.743 221.162 225.091 221.108C225.243 221.097 225.455 221.021 225.727 220.88C226.02 220.727 226.259 220.537 226.444 220.309C226.629 220.081 226.787 219.749 226.917 219.315C227.058 218.858 227.129 218.309 227.129 217.668C227.129 217.016 227.058 216.473 226.917 216.038C226.765 215.56 226.596 215.217 226.412 215.011C226.238 214.804 226.02 214.63 225.759 214.489C225.499 214.348 225.276 214.261 225.091 214.228C224.743 214.174 224.395 214.174 224.048 214.228C223.896 214.239 223.678 214.321 223.396 214.473C222.841 214.744 222.45 215.266 222.222 216.038ZM229.557 221.825V220.766C230.372 221.005 230.948 220.619 231.285 219.608C231.372 219.358 231.432 219.048 231.464 218.679L231.53 217.684C231.54 217.51 231.546 217.168 231.546 216.657V213.544H237.284V221.825H235.85V214.554H232.883V216.657C232.883 217.342 232.866 217.918 232.834 218.385C232.801 218.842 232.72 219.342 232.589 219.885C232.404 220.657 232.073 221.206 231.595 221.532C231.117 221.858 230.437 221.956 229.557 221.825ZM239.625 221.825V213.544H241.06V216.837H243.13C243.945 216.837 244.646 216.956 245.233 217.195C246.048 217.489 246.456 218.173 246.456 219.249C246.456 220.141 246.195 220.804 245.674 221.238C245.456 221.412 245.201 221.543 244.907 221.63C244.516 221.76 244.087 221.825 243.619 221.825H239.625ZM242.804 217.847H241.06V220.814H243.049C243.723 220.814 244.217 220.679 244.532 220.407C244.848 220.092 244.994 219.706 244.973 219.249C244.973 218.749 244.809 218.38 244.483 218.141C244.375 218.065 244.201 218 243.962 217.945C243.701 217.88 243.359 217.847 242.935 217.847H242.804ZM247.252 219.282H248.621C248.621 219.825 248.817 220.271 249.208 220.619C249.599 220.967 250.137 221.14 250.822 221.14C251.496 221.14 252.023 221.005 252.403 220.733C252.784 220.45 252.974 220.043 252.974 219.51C252.974 218.521 252.349 218.027 251.099 218.027H249.877V217.016H250.936C252.088 217.016 252.664 216.587 252.664 215.728C252.664 215.587 252.642 215.445 252.599 215.304C252.566 215.163 252.49 215.005 252.371 214.831C252.262 214.647 252.072 214.5 251.8 214.391C251.528 214.283 251.192 214.228 250.789 214.228C250.072 214.228 249.567 214.397 249.273 214.734C248.98 215.071 248.833 215.435 248.833 215.826H247.464C247.496 215.261 247.643 214.788 247.904 214.408C248.165 214.027 248.502 213.755 248.915 213.592C249.588 213.342 250.241 213.217 250.871 213.217C251.425 213.217 251.914 213.283 252.338 213.413C252.762 213.533 253.083 213.679 253.3 213.853C253.528 214.027 253.708 214.234 253.838 214.473C253.979 214.712 254.066 214.924 254.099 215.109C254.131 215.282 254.148 215.456 254.148 215.63C254.148 216.598 253.67 217.201 252.713 217.44V217.489C253.224 217.565 253.642 217.788 253.968 218.157C254.294 218.527 254.458 219.01 254.458 219.608C254.458 220.217 254.24 220.771 253.805 221.271C253.273 221.858 252.316 222.151 250.936 222.151C249.773 222.151 248.887 221.907 248.279 221.418C247.594 220.82 247.252 220.108 247.252 219.282ZM256.429 224.825V223.765C256.842 223.82 257.081 223.847 257.146 223.847C257.559 223.847 257.852 223.695 258.026 223.39C258.135 223.227 258.206 223.091 258.238 222.983C258.271 222.928 258.341 222.749 258.45 222.445L258.646 221.825L255.059 213.544H256.771L259.428 220.244L261.629 213.544H263.064L259.771 222.803C259.51 223.542 259.287 224.026 259.102 224.254C258.733 224.689 258.233 224.906 257.602 224.906C257.113 224.906 256.722 224.879 256.429 224.825ZM270.205 219.429H271.574C271.444 220.157 271.091 220.793 270.515 221.336C269.939 221.88 269.086 222.151 267.955 222.151C266.423 222.151 265.298 221.646 264.581 220.635C264.222 220.103 263.988 219.532 263.88 218.923C263.804 218.499 263.765 218.097 263.765 217.717C263.765 216.989 263.874 216.304 264.092 215.663C264.233 215.206 264.439 214.81 264.711 214.473C265.004 214.114 265.423 213.815 265.966 213.576C266.51 213.337 267.124 213.217 267.809 213.217C269.026 213.217 269.944 213.554 270.564 214.228C270.824 214.511 271.036 214.869 271.199 215.304C271.439 215.935 271.585 216.701 271.64 217.603C271.64 217.635 271.64 217.706 271.64 217.815C271.65 217.923 271.656 217.989 271.656 218.01H265.282C265.282 218.836 265.499 219.565 265.934 220.195C266.368 220.825 267.026 221.14 267.906 221.14C268.537 221.14 269.053 220.983 269.455 220.668C269.857 220.353 270.107 219.94 270.205 219.429ZM265.282 217H270.14C270.129 216.358 269.977 215.766 269.683 215.223C269.346 214.56 268.732 214.228 267.841 214.228C266.83 214.228 266.135 214.565 265.754 215.239C265.439 215.782 265.282 216.369 265.282 217ZM275.443 221.825V214.554H272.574V213.544H279.747V214.554H276.878V221.825H275.443ZM286.52 218.874H287.889C287.846 219.505 287.606 220.168 287.172 220.863C286.933 221.255 286.558 221.57 286.047 221.809C285.547 222.037 284.96 222.151 284.286 222.151C284.058 222.151 283.895 222.146 283.797 222.135C283.319 222.113 282.83 221.988 282.33 221.76C280.939 221.064 280.243 219.684 280.243 217.619C280.243 216.532 280.493 215.565 280.993 214.717C281.613 213.717 282.678 213.217 284.188 213.217C285.253 213.217 286.101 213.489 286.732 214.033C287.362 214.565 287.726 215.266 287.824 216.136H286.454C286.237 214.864 285.493 214.228 284.221 214.228C283.395 214.228 282.775 214.533 282.362 215.141C281.96 215.739 281.759 216.565 281.759 217.619C281.759 218.641 281.971 219.483 282.395 220.146C282.819 220.809 283.46 221.14 284.319 221.14C285.058 221.14 285.596 220.907 285.933 220.439C286.291 219.972 286.487 219.45 286.52 218.874ZM294.717 218.565H292.826L290.658 221.825H289.077L291.359 218.548C290.729 218.483 290.218 218.239 289.827 217.815C289.435 217.391 289.24 216.837 289.24 216.152C289.24 215.511 289.408 214.951 289.745 214.473C290.147 213.853 290.908 213.544 292.027 213.544H296.152V221.825H294.717V218.565ZM294.717 217.554V214.554H292.647C291.364 214.554 290.723 215.071 290.723 216.103C290.723 216.527 290.881 216.875 291.196 217.146C291.511 217.418 292.011 217.554 292.696 217.554H294.717ZM20.9974 241.977L20.8669 238.814H21.9103C22.8124 237.489 23.2634 235.527 23.2634 232.929V231.544H29.1975V238.814H30.6322L30.518 241.977H29.3117V239.825H22.2038V241.977H20.9974ZM27.7629 238.814V232.554H24.6002V233.712C24.6002 234.592 24.5024 235.505 24.3068 236.451C24.1329 237.385 23.8394 238.173 23.4264 238.814H27.7629ZM31.3157 239.825V238.766C32.1308 239.005 32.7069 238.619 33.0438 237.608C33.1307 237.358 33.1905 237.048 33.2231 236.679L33.2883 235.684C33.2992 235.51 33.3046 235.168 33.3046 234.657V231.544H39.0431V239.825H37.6085V232.554H34.6414V234.657C34.6414 235.342 34.6251 235.918 34.5925 236.385C34.5599 236.842 34.4784 237.342 34.348 237.885C34.1632 238.657 33.8317 239.206 33.3535 239.532C32.8753 239.858 32.1961 239.956 31.3157 239.825ZM46.4541 236.565H44.563L42.3948 239.825H40.8135L43.0958 236.548C42.4655 236.483 41.9546 236.239 41.5634 235.815C41.1721 235.391 40.9765 234.837 40.9765 234.152C40.9765 233.511 41.1449 232.951 41.4819 232.473C41.884 231.853 42.6448 231.544 43.7642 231.544H47.8888V239.825H46.4541V236.565ZM46.4541 235.554V232.554H44.3837C43.1013 232.554 42.46 233.071 42.46 234.103C42.46 234.527 42.6176 234.875 42.9328 235.146C43.248 235.418 43.7479 235.554 44.4326 235.554H46.4541ZM55.4754 231.544V238.146L59.7956 231.544H61.3932V239.825H59.9586V233.206L55.6547 239.825H54.0408V231.544H55.4754ZM63.0842 237.282H64.4536C64.4536 237.825 64.6493 238.271 65.0405 238.619C65.4318 238.967 65.9698 239.14 66.6545 239.14C67.3283 239.14 67.8554 239.005 68.2358 238.733C68.6162 238.45 68.8064 238.043 68.8064 237.51C68.8064 236.521 68.1815 236.027 66.9316 236.027H65.7089V235.016H66.7686C67.9207 235.016 68.4967 234.587 68.4967 233.728C68.4967 233.587 68.4749 233.445 68.4315 233.304C68.3989 233.163 68.3228 233.005 68.2032 232.831C68.0945 232.647 67.9044 232.5 67.6326 232.391C67.3609 232.283 67.024 232.228 66.6219 232.228C65.9046 232.228 65.3992 232.397 65.1058 232.734C64.8123 233.071 64.6656 233.435 64.6656 233.826H63.2962C63.3288 233.261 63.4755 232.788 63.7363 232.408C63.9972 232.027 64.3341 231.755 64.7471 231.592C65.4209 231.342 66.073 231.217 66.7034 231.217C67.2577 231.217 67.7468 231.283 68.1706 231.413C68.5945 231.533 68.9151 231.679 69.1325 231.853C69.3607 232.027 69.54 232.234 69.6705 232.473C69.8117 232.712 69.8987 232.924 69.9313 233.109C69.9639 233.282 69.9802 233.456 69.9802 233.63C69.9802 234.598 69.502 235.201 68.5456 235.44V235.489C69.0564 235.565 69.4748 235.788 69.8009 236.157C70.1269 236.527 70.29 237.01 70.29 237.608C70.29 238.217 70.0726 238.771 69.6379 239.271C69.1053 239.858 68.1489 240.151 66.7686 240.151C65.6057 240.151 64.7199 239.907 64.1113 239.418C63.4266 238.82 63.0842 238.108 63.0842 237.282ZM77.8315 232.554H73.5929V239.825H72.1582V231.544H77.8315V232.554ZM78.5362 237.315C78.2536 236.152 78.2645 235.027 78.5688 233.94C78.8731 232.853 79.5144 232.076 80.4925 231.609C81.0359 231.348 81.6717 231.217 82.3999 231.217C83.1281 231.217 83.7639 231.348 84.3073 231.609C85.2855 232.065 85.9321 232.88 86.2473 234.054C86.3886 234.598 86.4593 235.146 86.4593 235.701C86.4701 236.244 86.4049 236.782 86.2636 237.315C86.1332 237.836 85.8995 238.314 85.5626 238.749C85.2366 239.184 84.8181 239.526 84.3073 239.776C83.753 240.026 83.1172 240.151 82.3999 240.151C81.6826 240.151 81.0468 240.026 80.4925 239.776C79.547 239.32 78.8949 238.499 78.5362 237.315ZM80.0524 234.038C79.9111 234.473 79.8404 235.016 79.8404 235.668C79.8404 236.309 79.9111 236.858 80.0524 237.315C80.1936 237.771 80.3567 238.113 80.5414 238.342C80.9327 238.776 81.3783 239.032 81.8782 239.108C82.226 239.162 82.5738 239.162 82.9216 239.108C83.0738 239.097 83.2857 239.021 83.5574 238.88C83.8508 238.727 84.09 238.537 84.2747 238.309C84.4595 238.081 84.6171 237.749 84.7475 237.315C84.8888 236.858 84.9594 236.309 84.9594 235.668C84.9594 235.016 84.8888 234.473 84.7475 234.038C84.5953 233.56 84.4269 233.217 84.2421 233.011C84.0682 232.804 83.8508 232.63 83.59 232.489C83.3292 232.348 83.1064 232.261 82.9216 232.228C82.5738 232.174 82.226 232.174 81.8782 232.228C81.7261 232.239 81.5087 232.321 81.2261 232.473C80.6719 232.744 80.2806 233.266 80.0524 234.038ZM89.7473 239.825V232.554H86.878V231.544H94.0511V232.554H91.1819V239.825H89.7473ZM94.8706 237.315C94.588 236.152 94.5989 235.027 94.9032 233.94C95.2075 232.853 95.8487 232.076 96.8269 231.609C97.3703 231.348 98.0061 231.217 98.7343 231.217C99.4625 231.217 100.098 231.348 100.642 231.609C101.62 232.065 102.267 232.88 102.582 234.054C102.723 234.598 102.794 235.146 102.794 235.701C102.804 236.244 102.739 236.782 102.598 237.315C102.468 237.836 102.234 238.314 101.897 238.749C101.571 239.184 101.152 239.526 100.642 239.776C100.087 240.026 99.4516 240.151 98.7343 240.151C98.017 240.151 97.3812 240.026 96.8269 239.776C95.8813 239.32 95.2292 238.499 94.8706 237.315ZM96.3867 234.038C96.2454 234.473 96.1748 235.016 96.1748 235.668C96.1748 236.309 96.2454 236.858 96.3867 237.315C96.528 237.771 96.691 238.113 96.8758 238.342C97.2671 238.776 97.7127 239.032 98.2126 239.108C98.5604 239.162 98.9082 239.162 99.256 239.108C99.4081 239.097 99.6201 239.021 99.8918 238.88C100.185 238.727 100.424 238.537 100.609 238.309C100.794 238.081 100.951 237.749 101.082 237.315C101.223 236.858 101.294 236.309 101.294 235.668C101.294 235.016 101.223 234.473 101.082 234.038C100.93 233.56 100.761 233.217 100.576 233.011C100.403 232.804 100.185 232.63 99.9244 232.489C99.6635 232.348 99.4407 232.261 99.256 232.228C98.9082 232.174 98.5604 232.174 98.2126 232.228C98.0605 232.239 97.8431 232.321 97.5605 232.473C97.0062 232.744 96.615 233.266 96.3867 234.038ZM104.684 239.825V231.544H108.629C110.379 231.544 111.254 232.201 111.254 233.516C111.254 234.462 110.754 235.108 109.754 235.456V235.505C110.428 235.668 110.895 235.929 111.156 236.288C111.428 236.646 111.563 237.108 111.563 237.673C111.563 238.575 111.232 239.173 110.569 239.467C110.025 239.706 109.363 239.825 108.58 239.825H104.684ZM108.172 232.554H106.118V235H108.107C108.683 235 109.107 234.886 109.379 234.657C109.661 234.418 109.803 234.108 109.803 233.728C109.803 232.946 109.259 232.554 108.172 232.554ZM108.172 236.01H106.118V238.814H108.221C109.46 238.814 110.08 238.391 110.08 237.543C110.08 236.521 109.444 236.01 108.172 236.01ZM112.51 239.825V238.766C113.325 239.005 113.901 238.619 114.238 237.608C114.325 237.358 114.385 237.048 114.417 236.679L114.483 235.684C114.493 235.51 114.499 235.168 114.499 234.657V231.544H120.237V239.825H118.803V232.554H115.836V234.657C115.836 235.342 115.819 235.918 115.787 236.385C115.754 236.842 115.673 237.342 115.542 237.885C115.357 238.657 115.026 239.206 114.548 239.532C114.07 239.858 113.39 239.956 112.51 239.825ZM128.545 237.429H129.914C129.784 238.157 129.431 238.793 128.855 239.336C128.279 239.88 127.426 240.151 126.295 240.151C124.763 240.151 123.638 239.646 122.921 238.635C122.562 238.103 122.328 237.532 122.22 236.923C122.144 236.499 122.105 236.097 122.105 235.717C122.105 234.989 122.214 234.304 122.432 233.663C122.573 233.206 122.779 232.81 123.051 232.473C123.344 232.114 123.763 231.815 124.306 231.576C124.85 231.337 125.464 231.217 126.149 231.217C127.366 231.217 128.284 231.554 128.904 232.228C129.164 232.511 129.376 232.869 129.539 233.304C129.779 233.935 129.925 234.701 129.98 235.603C129.98 235.635 129.98 235.706 129.98 235.815C129.99 235.923 129.996 235.989 129.996 236.01H123.622C123.622 236.836 123.839 237.565 124.274 238.195C124.708 238.825 125.366 239.14 126.246 239.14C126.877 239.14 127.393 238.983 127.795 238.668C128.197 238.353 128.447 237.94 128.545 237.429ZM123.622 235H128.48C128.469 234.358 128.317 233.766 128.023 233.223C127.686 232.56 127.072 232.228 126.181 232.228C125.17 232.228 124.475 232.565 124.094 233.239C123.779 233.782 123.622 234.369 123.622 235ZM137.402 235.961H133.31V239.825H131.876V231.544H133.31V234.951H137.402V231.544H138.837V239.825H137.402V235.961ZM142.624 231.544V238.146L146.944 231.544H148.542V239.825H147.107V233.206L142.803 239.825H141.189V231.544H142.624ZM155.955 236.565H154.064L151.896 239.825H150.314L152.597 236.548C151.966 236.483 151.455 236.239 151.064 235.815C150.673 235.391 150.477 234.837 150.477 234.152C150.477 233.511 150.646 232.951 150.983 232.473C151.385 231.853 152.146 231.544 153.265 231.544H157.389V239.825H155.955V236.565ZM155.955 235.554V232.554H153.884C152.602 232.554 151.961 233.071 151.961 234.103C151.961 234.527 152.118 234.875 152.434 235.146C152.749 235.418 153.249 235.554 153.933 235.554H155.955ZM169.345 236.874H170.715C170.671 237.505 170.432 238.168 169.997 238.863C169.758 239.255 169.383 239.57 168.872 239.809C168.372 240.037 167.786 240.151 167.112 240.151C166.884 240.151 166.721 240.146 166.623 240.135C166.144 240.113 165.655 239.988 165.155 239.76C163.764 239.064 163.069 237.684 163.069 235.619C163.069 234.532 163.319 233.565 163.819 232.717C164.438 231.717 165.503 231.217 167.014 231.217C168.079 231.217 168.927 231.489 169.557 232.033C170.188 232.565 170.552 233.266 170.649 234.136H169.28C169.063 232.864 168.318 232.228 167.047 232.228C166.221 232.228 165.601 232.533 165.188 233.141C164.786 233.739 164.585 234.565 164.585 235.619C164.585 236.641 164.797 237.483 165.221 238.146C165.645 238.809 166.286 239.14 167.144 239.14C167.883 239.14 168.421 238.907 168.758 238.439C169.117 237.972 169.313 237.45 169.345 236.874ZM174.094 239.825V232.554H171.224V231.544H178.398V232.554H175.528V239.825H174.094ZM180.459 233.989H179.089C179.089 233.337 179.307 232.739 179.741 232.196C180.263 231.544 181.219 231.217 182.611 231.217C183.426 231.217 184.143 231.38 184.763 231.707C185.121 231.88 185.404 232.168 185.61 232.571C185.817 232.973 185.915 233.451 185.904 234.005L185.822 237.836C185.822 238.151 185.855 238.396 185.92 238.57C186.018 238.744 186.273 238.825 186.686 238.814V239.825C186.523 239.869 186.306 239.89 186.034 239.89C185.556 239.89 185.208 239.809 184.991 239.646C184.784 239.483 184.638 239.162 184.551 238.684C184.018 239.662 183.073 240.151 181.714 240.151C180.779 240.151 180.057 239.945 179.546 239.532C179.046 239.108 178.796 238.483 178.796 237.657C178.796 236.874 179.078 236.282 179.644 235.88C180.209 235.456 181.279 235.174 182.855 235.032C183.583 234.978 184.018 234.907 184.159 234.82C184.366 234.679 184.469 234.369 184.469 233.891C184.469 232.783 183.85 232.228 182.611 232.228C181.143 232.228 180.426 232.815 180.459 233.989ZM184.437 236.288L184.469 235.587C184.306 235.706 184.067 235.804 183.752 235.88C183.274 235.913 182.904 235.951 182.643 235.994C181.741 236.146 181.192 236.271 180.997 236.369C180.518 236.597 180.279 237.01 180.279 237.608C180.279 238.086 180.421 238.461 180.703 238.733C180.997 239.005 181.388 239.14 181.877 239.14C182.192 239.14 182.48 239.097 182.741 239.01C183.013 238.923 183.274 238.782 183.524 238.586C183.784 238.38 183.991 238.081 184.143 237.69C184.306 237.298 184.404 236.831 184.437 236.288ZM189.812 231.544V235.163L193.35 231.544H195.029L191.149 235.391L195.241 239.825H193.529L189.812 235.684V239.825H188.377V231.544H189.812ZM197.446 233.989H196.076C196.076 233.337 196.294 232.739 196.728 232.196C197.25 231.544 198.207 231.217 199.598 231.217C200.413 231.217 201.13 231.38 201.75 231.707C202.108 231.88 202.391 232.168 202.597 232.571C202.804 232.973 202.902 233.451 202.891 234.005L202.809 237.836C202.809 238.151 202.842 238.396 202.907 238.57C203.005 238.744 203.26 238.825 203.673 238.814V239.825C203.51 239.869 203.293 239.89 203.021 239.89C202.543 239.89 202.195 239.809 201.978 239.646C201.771 239.483 201.625 239.162 201.538 238.684C201.005 239.662 200.06 240.151 198.701 240.151C197.766 240.151 197.044 239.945 196.533 239.532C196.033 239.108 195.783 238.483 195.783 237.657C195.783 236.874 196.066 236.282 196.631 235.88C197.196 235.456 198.266 235.174 199.842 235.032C200.57 234.978 201.005 234.907 201.146 234.82C201.353 234.679 201.456 234.369 201.456 233.891C201.456 232.783 200.837 232.228 199.598 232.228C198.131 232.228 197.413 232.815 197.446 233.989ZM201.424 236.288L201.456 235.587C201.293 235.706 201.054 235.804 200.739 235.88C200.261 235.913 199.891 235.951 199.63 235.994C198.728 236.146 198.179 236.271 197.984 236.369C197.506 236.597 197.266 237.01 197.266 237.608C197.266 238.086 197.408 238.461 197.69 238.733C197.984 239.005 198.375 239.14 198.864 239.14C199.179 239.14 199.467 239.097 199.728 239.01C200 238.923 200.261 238.782 200.511 238.586C200.772 238.38 200.978 238.081 201.13 237.69C201.293 237.298 201.391 236.831 201.424 236.288ZM210.891 235.961H206.799V239.825H205.365V231.544H206.799V234.951H210.891V231.544H212.326V239.825H210.891V235.961ZM214.238 234.315V231.544H215.672V234.087C215.672 234.532 215.748 234.864 215.901 235.081C216.085 235.32 216.634 235.44 217.547 235.44C217.634 235.44 217.949 235.429 218.493 235.407C218.547 235.396 218.661 235.391 218.835 235.391H219.177V231.544H220.612V239.825H219.177V236.402C218.699 236.434 218.058 236.451 217.254 236.451C215.863 236.451 214.988 236.233 214.629 235.798C214.466 235.581 214.357 235.375 214.303 235.179C214.26 234.983 214.238 234.695 214.238 234.315ZM224.391 231.544V238.146L228.711 231.544H230.309V239.825H228.874V233.206L224.571 239.825H222.957V231.544H224.391ZM234.087 231.544V235.163L237.624 231.544H239.304L235.424 235.391L239.515 239.825H237.804L234.087 235.684V239.825H232.652V231.544H234.087ZM240.065 237.315C239.782 236.152 239.793 235.027 240.098 233.94C240.402 232.853 241.043 232.076 242.021 231.609C242.565 231.348 243.2 231.217 243.929 231.217C244.657 231.217 245.293 231.348 245.836 231.609C246.814 232.065 247.461 232.88 247.776 234.054C247.917 234.598 247.988 235.146 247.988 235.701C247.999 236.244 247.934 236.782 247.792 237.315C247.662 237.836 247.428 238.314 247.091 238.749C246.765 239.184 246.347 239.526 245.836 239.776C245.282 240.026 244.646 240.151 243.929 240.151C243.211 240.151 242.576 240.026 242.021 239.776C241.076 239.32 240.424 238.499 240.065 237.315ZM241.581 234.038C241.44 234.473 241.369 235.016 241.369 235.668C241.369 236.309 241.44 236.858 241.581 237.315C241.722 237.771 241.885 238.113 242.07 238.342C242.461 238.776 242.907 239.032 243.407 239.108C243.755 239.162 244.103 239.162 244.45 239.108C244.602 239.097 244.814 239.021 245.086 238.88C245.38 238.727 245.619 238.537 245.803 238.309C245.988 238.081 246.146 237.749 246.276 237.315C246.417 236.858 246.488 236.309 246.488 235.668C246.488 235.016 246.417 234.473 246.276 234.038C246.124 233.56 245.956 233.217 245.771 233.011C245.597 232.804 245.38 232.63 245.119 232.489C244.858 232.348 244.635 232.261 244.45 232.228C244.103 232.174 243.755 232.174 243.407 232.228C243.255 232.239 243.037 232.321 242.755 232.473C242.201 232.744 241.809 233.266 241.581 234.038ZM249.878 239.825V231.544H253.823C255.573 231.544 256.448 232.201 256.448 233.516C256.448 234.462 255.948 235.108 254.948 235.456V235.505C255.622 235.668 256.089 235.929 256.35 236.288C256.622 236.646 256.758 237.108 256.758 237.673C256.758 238.575 256.426 239.173 255.763 239.467C255.22 239.706 254.557 239.825 253.774 239.825H249.878ZM253.367 232.554H251.313V235H253.302C253.878 235 254.301 234.886 254.573 234.657C254.856 234.418 254.997 234.108 254.997 233.728C254.997 232.946 254.454 232.554 253.367 232.554ZM253.367 236.01H251.313V238.814H253.416C254.655 238.814 255.274 238.391 255.274 237.543C255.274 236.521 254.638 236.01 253.367 236.01ZM263.906 231.544V238.146L268.226 231.544H269.824V239.825H268.389V233.206L264.085 239.825H262.471V231.544H263.906ZM271.515 237.282H272.884C272.884 237.825 273.08 238.271 273.471 238.619C273.862 238.967 274.4 239.14 275.085 239.14C275.759 239.14 276.286 239.005 276.666 238.733C277.047 238.45 277.237 238.043 277.237 237.51C277.237 236.521 276.612 236.027 275.362 236.027H274.139V235.016H275.199C276.351 235.016 276.927 234.587 276.927 233.728C276.927 233.587 276.905 233.445 276.862 233.304C276.829 233.163 276.753 233.005 276.634 232.831C276.525 232.647 276.335 232.5 276.063 232.391C275.791 232.283 275.454 232.228 275.052 232.228C274.335 232.228 273.829 232.397 273.536 232.734C273.243 233.071 273.096 233.435 273.096 233.826H271.726C271.759 233.261 271.906 232.788 272.167 232.408C272.427 232.027 272.764 231.755 273.177 231.592C273.851 231.342 274.503 231.217 275.134 231.217C275.688 231.217 276.177 231.283 276.601 231.413C277.025 231.533 277.345 231.679 277.563 231.853C277.791 232.027 277.97 232.234 278.101 232.473C278.242 232.712 278.329 232.924 278.362 233.109C278.394 233.282 278.411 233.456 278.411 233.63C278.411 234.598 277.932 235.201 276.976 235.44V235.489C277.487 235.565 277.905 235.788 278.231 236.157C278.557 236.527 278.72 237.01 278.72 237.608C278.72 238.217 278.503 238.771 278.068 239.271C277.536 239.858 276.579 240.151 275.199 240.151C274.036 240.151 273.15 239.907 272.542 239.418C271.857 238.82 271.515 238.108 271.515 237.282ZM285.007 236.157H280.703V234.771H285.007V236.157ZM293.091 232.554H288.901V239.825H287.466V231.544H294.525V239.825H293.091V232.554ZM296.614 237.315C296.332 236.152 296.343 235.027 296.647 233.94C296.951 232.853 297.592 232.076 298.571 231.609C299.114 231.348 299.75 231.217 300.478 231.217C301.206 231.217 301.842 231.348 302.385 231.609C303.364 232.065 304.01 232.88 304.325 234.054C304.467 234.598 304.537 235.146 304.537 235.701C304.548 236.244 304.483 236.782 304.342 237.315C304.211 237.836 303.978 238.314 303.641 238.749C303.315 239.184 302.896 239.526 302.385 239.776C301.831 240.026 301.195 240.151 300.478 240.151C299.761 240.151 299.125 240.026 298.571 239.776C297.625 239.32 296.973 238.499 296.614 237.315ZM298.13 234.038C297.989 234.473 297.918 235.016 297.918 235.668C297.918 236.309 297.989 236.858 298.13 237.315C298.272 237.771 298.435 238.113 298.62 238.342C299.011 238.776 299.456 239.032 299.956 239.108C300.304 239.162 300.652 239.162 301 239.108C301.152 239.097 301.364 239.021 301.635 238.88C301.929 238.727 302.168 238.537 302.353 238.309C302.538 238.081 302.695 237.749 302.826 237.315C302.967 236.858 303.037 236.309 303.037 235.668C303.037 235.016 302.967 234.473 302.826 234.038C302.673 233.56 302.505 233.217 302.32 233.011C302.146 232.804 301.929 232.63 301.668 232.489C301.407 232.348 301.184 232.261 301 232.228C300.652 232.174 300.304 232.174 299.956 232.228C299.804 232.239 299.587 232.321 299.304 232.473C298.75 232.744 298.359 233.266 298.13 234.038ZM305.384 241.977L305.254 238.814H306.297C307.199 237.489 307.65 235.527 307.65 232.929V231.544H313.584V238.814H315.019L314.905 241.977H313.698V239.825H306.59V241.977H305.384ZM312.15 238.814V232.554H308.987V233.712C308.987 234.592 308.889 235.505 308.693 236.451C308.52 237.385 308.226 238.173 307.813 238.814H312.15ZM23.4753 249.544V256.146L27.7955 249.544H29.3932V257.825H27.9585V251.206L23.6547 257.825H22.0407V249.544H23.4753ZM27.2575 246.413H28.4802C28.252 247.609 27.5347 248.31 26.3283 248.516C26.1218 248.549 25.9044 248.565 25.6762 248.565C24.2742 248.565 23.3775 247.995 22.9863 246.854C22.9537 246.778 22.9156 246.631 22.8722 246.413H24.0948C24.0622 246.696 24.1601 246.962 24.3883 247.212C24.5513 247.386 24.7415 247.517 24.9589 247.604C25.1545 247.669 25.3936 247.701 25.6762 247.701C26.1435 247.701 26.5294 247.587 26.8337 247.359C27.138 247.12 27.2793 246.805 27.2575 246.413ZM31.4754 255.315C31.1929 254.152 31.2037 253.027 31.508 251.94C31.8123 250.853 32.4536 250.076 33.4317 249.609C33.9751 249.348 34.6109 249.217 35.3391 249.217C36.0673 249.217 36.7031 249.348 37.2465 249.609C38.2247 250.065 38.8713 250.88 39.1865 252.054C39.3278 252.598 39.3985 253.146 39.3985 253.701C39.4093 254.244 39.3441 254.782 39.2028 255.315C39.0724 255.836 38.8387 256.314 38.5018 256.749C38.1758 257.184 37.7573 257.526 37.2465 257.776C36.6922 258.026 36.0564 258.151 35.3391 258.151C34.6218 258.151 33.986 258.026 33.4317 257.776C32.4862 257.32 31.8341 256.499 31.4754 255.315ZM32.9916 252.038C32.8503 252.473 32.7796 253.016 32.7796 253.668C32.7796 254.309 32.8503 254.858 32.9916 255.315C33.1329 255.771 33.2959 256.113 33.4806 256.342C33.8719 256.776 34.3175 257.032 34.8174 257.108C35.1652 257.162 35.513 257.162 35.8608 257.108C36.013 257.097 36.2249 257.021 36.4966 256.88C36.7901 256.727 37.0292 256.537 37.2139 256.309C37.3987 256.081 37.5563 255.749 37.6867 255.315C37.828 254.858 37.8986 254.309 37.8986 253.668C37.8986 253.016 37.828 252.473 37.6867 252.038C37.5345 251.56 37.3661 251.217 37.1813 251.011C37.0074 250.804 36.7901 250.63 36.5292 250.489C36.2684 250.348 36.0456 250.261 35.8608 250.228C35.513 250.174 35.1652 250.174 34.8174 250.228C34.6653 250.239 34.4479 250.321 34.1653 250.473C33.6111 250.744 33.2198 251.266 32.9916 252.038ZM46.9618 250.554H42.7231V257.825H41.2885V249.544H46.9618V250.554ZM48.651 260.825V259.765C49.064 259.82 49.3031 259.847 49.3683 259.847C49.7813 259.847 50.0748 259.695 50.2487 259.39C50.3574 259.227 50.428 259.091 50.4606 258.983C50.4932 258.928 50.5639 258.749 50.6725 258.445L50.8682 257.825L47.2816 249.544H48.9934L51.6507 256.244L53.8515 249.544H55.2862L51.993 258.803C51.7322 259.542 51.5094 260.026 51.3246 260.254C50.9551 260.689 50.4552 260.906 49.8248 260.906C49.3357 260.906 48.9445 260.879 48.651 260.825ZM56.4607 260.841V249.544H57.7975V250.685H57.8464C58.4985 249.707 59.4115 249.217 60.5852 249.217C61.6612 249.217 62.5524 249.592 63.2589 250.342C63.9653 251.103 64.3185 252.217 64.3185 253.684C64.3185 255.184 63.9599 256.304 63.2426 257.043C62.5361 257.782 61.6612 258.151 60.6178 258.151C60.2918 258.151 59.8951 258.081 59.4278 257.939C58.7431 257.733 58.2322 257.298 57.8953 256.635V260.841H56.4607ZM57.7975 253.717C57.7975 254.869 58.0583 255.733 58.58 256.309C59.1234 256.863 59.7158 257.14 60.357 257.14C61.0308 257.14 61.6069 256.869 62.0851 256.325C62.5633 255.76 62.8024 254.88 62.8024 253.684C62.8024 252.598 62.5796 251.75 62.134 251.141C61.6992 250.533 61.0797 250.228 60.2755 250.228C59.8516 250.228 59.4549 250.342 59.0854 250.571C58.2268 251.081 57.7975 252.13 57.7975 253.717ZM67.8885 257.825V250.554H65.0193V249.544H72.1924V250.554H69.3231V257.825H67.8885ZM74.2535 251.989H72.8841C72.8841 251.337 73.1015 250.739 73.5362 250.196C74.0579 249.544 75.0143 249.217 76.4054 249.217C77.2206 249.217 77.9379 249.38 78.5574 249.707C78.916 249.88 79.1986 250.168 79.4051 250.571C79.6116 250.973 79.7094 251.451 79.6985 252.005L79.617 255.836C79.617 256.151 79.6496 256.396 79.7148 256.57C79.8127 256.744 80.0681 256.825 80.4811 256.814V257.825C80.318 257.869 80.1007 257.89 79.829 257.89C79.3508 257.89 79.003 257.809 78.7856 257.646C78.5791 257.483 78.4324 257.162 78.3454 256.684C77.8129 257.662 76.8673 258.151 75.5088 258.151C74.5741 258.151 73.8514 257.945 73.3406 257.532C72.8406 257.108 72.5906 256.483 72.5906 255.657C72.5906 254.874 72.8732 254.282 73.4384 253.88C74.0035 253.456 75.0741 253.174 76.65 253.032C77.3782 252.978 77.8129 252.907 77.9542 252.82C78.1607 252.679 78.2639 252.369 78.2639 251.891C78.2639 250.783 77.6444 250.228 76.4054 250.228C74.9382 250.228 74.2209 250.815 74.2535 251.989ZM78.2313 254.288L78.2639 253.587C78.1009 253.706 77.8618 253.804 77.5466 253.88C77.0684 253.913 76.6989 253.951 76.438 253.994C75.536 254.146 74.9871 254.271 74.7915 254.369C74.3133 254.597 74.0742 255.01 74.0742 255.608C74.0742 256.086 74.2155 256.461 74.498 256.733C74.7915 257.005 75.1827 257.14 75.6718 257.14C75.987 257.14 76.275 257.097 76.5359 257.01C76.8076 256.923 77.0684 256.782 77.3184 256.586C77.5792 256.38 77.7857 256.081 77.9379 255.69C78.1009 255.298 78.1987 254.831 78.2313 254.288ZM82.7265 257.825V256.048H84.3404V258.331C84.3404 258.874 84.1883 259.303 83.884 259.618C83.5796 259.934 83.1938 260.14 82.7265 260.238V259.341C82.9547 259.32 83.1449 259.205 83.2971 258.999C83.4601 258.803 83.5416 258.581 83.5416 258.331V257.825H82.7265ZM96.5664 253.961H92.4745V257.825H91.0399V249.544H92.4745V252.951H96.5664V249.544H98.0011V257.825H96.5664V253.961ZM106.32 255.429H107.689C107.559 256.157 107.206 256.793 106.63 257.336C106.054 257.88 105.201 258.151 104.07 258.151C102.538 258.151 101.413 257.646 100.696 256.635C100.337 256.103 100.103 255.532 99.9947 254.923C99.9186 254.499 99.8806 254.097 99.8806 253.717C99.8806 252.989 99.9892 252.304 100.207 251.663C100.348 251.206 100.554 250.81 100.826 250.473C101.12 250.114 101.538 249.815 102.081 249.576C102.625 249.337 103.239 249.217 103.924 249.217C105.141 249.217 106.059 249.554 106.679 250.228C106.94 250.511 107.151 250.869 107.315 251.304C107.554 251.935 107.7 252.701 107.755 253.603C107.755 253.635 107.755 253.706 107.755 253.815C107.766 253.923 107.771 253.989 107.771 254.01H101.397C101.397 254.836 101.614 255.565 102.049 256.195C102.484 256.825 103.141 257.14 104.021 257.14C104.652 257.14 105.168 256.983 105.57 256.668C105.972 256.353 106.222 255.94 106.32 255.429ZM101.397 253H106.255C106.244 252.358 106.092 251.766 105.798 251.223C105.461 250.56 104.847 250.228 103.956 250.228C102.945 250.228 102.25 250.565 101.869 251.239C101.554 251.782 101.397 252.369 101.397 253ZM111.085 249.544V253.163L114.623 249.544H116.302L112.422 253.391L116.514 257.825H114.802L111.085 253.684V257.825H109.651V249.544H111.085ZM117.064 255.315C116.781 254.152 116.792 253.027 117.096 251.94C117.401 250.853 118.042 250.076 119.02 249.609C119.563 249.348 120.199 249.217 120.927 249.217C121.656 249.217 122.291 249.348 122.835 249.609C123.813 250.065 124.46 250.88 124.775 252.054C124.916 252.598 124.987 253.146 124.987 253.701C124.998 254.244 124.932 254.782 124.791 255.315C124.661 255.836 124.427 256.314 124.09 256.749C123.764 257.184 123.346 257.526 122.835 257.776C122.28 258.026 121.645 258.151 120.927 258.151C120.21 258.151 119.574 258.026 119.02 257.776C118.074 257.32 117.422 256.499 117.064 255.315ZM118.58 252.038C118.439 252.473 118.368 253.016 118.368 253.668C118.368 254.309 118.439 254.858 118.58 255.315C118.721 255.771 118.884 256.113 119.069 256.342C119.46 256.776 119.906 257.032 120.406 257.108C120.753 257.162 121.101 257.162 121.449 257.108C121.601 257.097 121.813 257.021 122.085 256.88C122.378 256.727 122.617 256.537 122.802 256.309C122.987 256.081 123.145 255.749 123.275 255.315C123.416 254.858 123.487 254.309 123.487 253.668C123.487 253.016 123.416 252.473 123.275 252.038C123.123 251.56 122.954 251.217 122.77 251.011C122.596 250.804 122.378 250.63 122.117 250.489C121.857 250.348 121.634 250.261 121.449 250.228C121.101 250.174 120.753 250.174 120.406 250.228C120.254 250.239 120.036 250.321 119.754 250.473C119.199 250.744 118.808 251.266 118.58 252.038ZM128.275 257.825V250.554H125.405V249.544H132.579V250.554H129.709V257.825H128.275ZM133.398 255.315C133.115 254.152 133.126 253.027 133.431 251.94C133.735 250.853 134.376 250.076 135.354 249.609C135.898 249.348 136.534 249.217 137.262 249.217C137.99 249.217 138.626 249.348 139.169 249.609C140.147 250.065 140.794 250.88 141.109 252.054C141.25 252.598 141.321 253.146 141.321 253.701C141.332 254.244 141.267 254.782 141.125 255.315C140.995 255.836 140.761 256.314 140.424 256.749C140.098 257.184 139.68 257.526 139.169 257.776C138.615 258.026 137.979 258.151 137.262 258.151C136.544 258.151 135.909 258.026 135.354 257.776C134.409 257.32 133.757 256.499 133.398 255.315ZM134.914 252.038C134.773 252.473 134.702 253.016 134.702 253.668C134.702 254.309 134.773 254.858 134.914 255.315C135.055 255.771 135.218 256.113 135.403 256.342C135.795 256.776 136.24 257.032 136.74 257.108C137.088 257.162 137.436 257.162 137.783 257.108C137.936 257.097 138.148 257.021 138.419 256.88C138.713 256.727 138.952 256.537 139.137 256.309C139.321 256.081 139.479 255.749 139.609 255.315C139.751 254.858 139.821 254.309 139.821 253.668C139.821 253.016 139.751 252.473 139.609 252.038C139.457 251.56 139.289 251.217 139.104 251.011C138.93 250.804 138.713 250.63 138.452 250.489C138.191 250.348 137.968 250.261 137.783 250.228C137.436 250.174 137.088 250.174 136.74 250.228C136.588 250.239 136.371 250.321 136.088 250.473C135.534 250.744 135.142 251.266 134.914 252.038ZM143.211 260.841V249.544H144.548V250.685H144.597C145.249 249.707 146.162 249.217 147.336 249.217C148.412 249.217 149.303 249.592 150.009 250.342C150.716 251.103 151.069 252.217 151.069 253.684C151.069 255.184 150.71 256.304 149.993 257.043C149.287 257.782 148.412 258.151 147.368 258.151C147.042 258.151 146.646 258.081 146.178 257.939C145.493 257.733 144.983 257.298 144.646 256.635V260.841H143.211ZM144.548 253.717C144.548 254.869 144.809 255.733 145.33 256.309C145.874 256.863 146.466 257.14 147.107 257.14C147.781 257.14 148.357 256.869 148.836 256.325C149.314 255.76 149.553 254.88 149.553 253.684C149.553 252.598 149.33 251.75 148.884 251.141C148.45 250.533 147.83 250.228 147.026 250.228C146.602 250.228 146.205 250.342 145.836 250.571C144.977 251.081 144.548 252.13 144.548 253.717ZM152.939 257.825V249.544H154.373V252.82H156.46C157.123 252.82 157.677 252.886 158.123 253.016C159.188 253.288 159.742 254.065 159.786 255.347C159.786 256.108 159.552 256.711 159.085 257.157C158.628 257.602 157.916 257.825 156.949 257.825H152.939ZM156.118 253.831H154.373V256.814H156.378C157.661 256.814 158.302 256.293 158.302 255.249C158.302 254.739 158.134 254.369 157.797 254.141C157.688 254.054 157.509 253.983 157.259 253.929C156.998 253.864 156.617 253.831 156.118 253.831ZM160.796 257.825V249.544H162.231V257.825H160.796ZM165.228 249.544L167.348 252.608L169.467 249.544H171.065L168.163 253.505L171.293 257.825H169.695L167.348 254.418L165 257.825H163.403L166.533 253.505L163.631 249.544H165.228ZM181.902 250.554H177.712V257.825H176.278V249.544H183.337V257.825H181.902V250.554ZM187.121 249.544V256.146L191.442 249.544H193.039V257.825H191.605V251.206L187.301 257.825H185.687V249.544H187.121ZM196.817 249.544V256.814H200.273V249.544H201.708V256.814H205.164V249.544H206.599V256.814H208.001L207.87 259.977H206.664V257.825H195.382V249.544H196.817ZM215.2 255.429H216.569C216.439 256.157 216.086 256.793 215.51 257.336C214.934 257.88 214.08 258.151 212.95 258.151C211.418 258.151 210.293 257.646 209.576 256.635C209.217 256.103 208.983 255.532 208.875 254.923C208.798 254.499 208.76 254.097 208.76 253.717C208.76 252.989 208.869 252.304 209.086 251.663C209.228 251.206 209.434 250.81 209.706 250.473C209.999 250.114 210.418 249.815 210.961 249.576C211.505 249.337 212.119 249.217 212.803 249.217C214.021 249.217 214.939 249.554 215.559 250.228C215.819 250.511 216.031 250.869 216.194 251.304C216.433 251.935 216.58 252.701 216.635 253.603C216.635 253.635 216.635 253.706 216.635 253.815C216.645 253.923 216.651 253.989 216.651 254.01H210.277C210.277 254.836 210.494 255.565 210.929 256.195C211.363 256.825 212.021 257.14 212.901 257.14C213.532 257.14 214.048 256.983 214.45 256.668C214.852 256.353 215.102 255.94 215.2 255.429ZM210.277 253H215.135C215.124 252.358 214.972 251.766 214.678 251.223C214.341 250.56 213.727 250.228 212.836 250.228C211.825 250.228 211.13 250.565 210.749 251.239C210.434 251.782 210.277 252.369 210.277 253ZM218.531 257.825V249.544H222.476C224.226 249.544 225.101 250.201 225.101 251.516C225.101 252.462 224.601 253.108 223.601 253.456V253.505C224.275 253.668 224.742 253.929 225.003 254.288C225.275 254.646 225.41 255.108 225.41 255.673C225.41 256.575 225.079 257.173 224.416 257.467C223.872 257.706 223.21 257.825 222.427 257.825H218.531ZM222.019 250.554H219.965V253H221.954C222.53 253 222.954 252.886 223.226 252.657C223.508 252.418 223.65 252.108 223.65 251.728C223.65 250.946 223.106 250.554 222.019 250.554ZM222.019 254.01H219.965V256.814H222.068C223.307 256.814 223.927 256.391 223.927 255.543C223.927 254.521 223.291 254.01 222.019 254.01ZM227.319 257.825V249.544H228.753V252.82H230.84C231.503 252.82 232.057 252.886 232.503 253.016C233.568 253.288 234.122 254.065 234.166 255.347C234.166 256.108 233.932 256.711 233.465 257.157C233.008 257.602 232.296 257.825 231.329 257.825H227.319ZM230.498 253.831H228.753V256.814H230.759C232.041 256.814 232.682 256.293 232.682 255.249C232.682 254.739 232.514 254.369 232.177 254.141C232.068 254.054 231.889 253.983 231.639 253.929C231.378 253.864 230.998 253.831 230.498 253.831ZM235.177 257.825V249.544H236.611V257.825H235.177ZM239.609 249.544L241.728 252.608L243.847 249.544H245.445L242.543 253.505L245.673 257.825H244.076L241.728 254.418L239.38 257.825H237.783L240.913 253.505L238.011 249.544H239.609ZM252.093 249.544V253.163L255.63 249.544H257.31L253.43 253.391L257.521 257.825H255.81L252.093 253.684V257.825H250.658V249.544H252.093ZM258.071 255.315C257.788 254.152 257.799 253.027 258.104 251.94C258.408 250.853 259.049 250.076 260.027 249.609C260.571 249.348 261.206 249.217 261.935 249.217C262.663 249.217 263.299 249.348 263.842 249.609C264.82 250.065 265.467 250.88 265.782 252.054C265.923 252.598 265.994 253.146 265.994 253.701C266.005 254.244 265.94 254.782 265.798 255.315C265.668 255.836 265.434 256.314 265.097 256.749C264.771 257.184 264.353 257.526 263.842 257.776C263.288 258.026 262.652 258.151 261.935 258.151C261.217 258.151 260.582 258.026 260.027 257.776C259.082 257.32 258.43 256.499 258.071 255.315ZM259.587 252.038C259.446 252.473 259.375 253.016 259.375 253.668C259.375 254.309 259.446 254.858 259.587 255.315C259.728 255.771 259.891 256.113 260.076 256.342C260.467 256.776 260.913 257.032 261.413 257.108C261.761 257.162 262.109 257.162 262.456 257.108C262.608 257.097 262.82 257.021 263.092 256.88C263.386 256.727 263.625 256.537 263.809 256.309C263.994 256.081 264.152 255.749 264.282 255.315C264.423 254.858 264.494 254.309 264.494 253.668C264.494 253.016 264.423 252.473 264.282 252.038C264.13 251.56 263.962 251.217 263.777 251.011C263.603 250.804 263.386 250.63 263.125 250.489C262.864 250.348 262.641 250.261 262.456 250.228C262.109 250.174 261.761 250.174 261.413 250.228C261.261 250.239 261.043 250.321 260.761 250.473C260.207 250.744 259.815 251.266 259.587 252.038ZM273.411 253.961H269.319V257.825H267.884V249.544H269.319V252.951H273.411V249.544H274.845V257.825H273.411V253.961ZM279.105 257.825V250.554H276.236V249.544H283.409V250.554H280.54V257.825H279.105ZM290.344 255.429H291.714C291.583 256.157 291.23 256.793 290.654 257.336C290.078 257.88 289.225 258.151 288.095 258.151C286.562 258.151 285.437 257.646 284.72 256.635C284.361 256.103 284.128 255.532 284.019 254.923C283.943 254.499 283.905 254.097 283.905 253.717C283.905 252.989 284.014 252.304 284.231 251.663C284.372 251.206 284.579 250.81 284.85 250.473C285.144 250.114 285.562 249.815 286.106 249.576C286.649 249.337 287.263 249.217 287.948 249.217C289.165 249.217 290.083 249.554 290.703 250.228C290.964 250.511 291.176 250.869 291.339 251.304C291.578 251.935 291.725 252.701 291.779 253.603C291.779 253.635 291.779 253.706 291.779 253.815C291.79 253.923 291.795 253.989 291.795 254.01H285.421C285.421 254.836 285.638 255.565 286.073 256.195C286.508 256.825 287.165 257.14 288.046 257.14C288.676 257.14 289.192 256.983 289.594 256.668C289.997 256.353 290.247 255.94 290.344 255.429ZM285.421 253H290.279C290.268 252.358 290.116 251.766 289.823 251.223C289.486 250.56 288.872 250.228 287.98 250.228C286.97 250.228 286.274 250.565 285.894 251.239C285.579 251.782 285.421 252.369 285.421 253ZM295.11 249.544V256.146L299.43 249.544H301.028V257.825H299.593V251.206L295.289 257.825H293.675V249.544H295.11ZM298.892 246.413H300.115C299.886 247.609 299.169 248.31 297.963 248.516C297.756 248.549 297.539 248.565 297.311 248.565C295.909 248.565 295.012 247.995 294.621 246.854C294.588 246.778 294.55 246.631 294.507 246.413H295.729C295.697 246.696 295.794 246.962 296.023 247.212C296.186 247.386 296.376 247.517 296.593 247.604C296.789 247.669 297.028 247.701 297.311 247.701C297.778 247.701 298.164 247.587 298.468 247.359C298.772 247.12 298.914 246.805 298.892 246.413ZM308.897 253.961H304.805V257.825H303.371V249.544H304.805V252.951H308.897V249.544H310.332V257.825H308.897V253.961ZM318.651 255.429H320.02C319.89 256.157 319.537 256.793 318.961 257.336C318.385 257.88 317.531 258.151 316.401 258.151C314.869 258.151 313.744 257.646 313.026 256.635C312.668 256.103 312.434 255.532 312.325 254.923C312.249 254.499 312.211 254.097 312.211 253.717C312.211 252.989 312.32 252.304 312.537 251.663C312.679 251.206 312.885 250.81 313.157 250.473C313.45 250.114 313.869 249.815 314.412 249.576C314.956 249.337 315.57 249.217 316.254 249.217C317.472 249.217 318.39 249.554 319.01 250.228C319.27 250.511 319.482 250.869 319.645 251.304C319.884 251.935 320.031 252.701 320.085 253.603C320.085 253.635 320.085 253.706 320.085 253.815C320.096 253.923 320.102 253.989 320.102 254.01H313.727C313.727 254.836 313.945 255.565 314.38 256.195C314.814 256.825 315.472 257.14 316.352 257.14C316.983 257.14 317.499 256.983 317.901 256.668C318.303 256.353 318.553 255.94 318.651 255.429ZM313.727 253H318.586C318.575 252.358 318.423 251.766 318.129 251.223C317.792 250.56 317.178 250.228 316.287 250.228C315.276 250.228 314.581 250.565 314.2 251.239C313.885 251.782 313.727 252.369 313.727 253ZM321.982 260.841V249.544H323.318V250.685H323.367C324.019 249.707 324.932 249.217 326.106 249.217C327.182 249.217 328.073 249.592 328.78 250.342C329.486 251.103 329.839 252.217 329.839 253.684C329.839 255.184 329.481 256.304 328.764 257.043C328.057 257.782 327.182 258.151 326.139 258.151C325.813 258.151 325.416 258.081 324.949 257.939C324.264 257.733 323.753 257.298 323.416 256.635V260.841H321.982ZM323.318 253.717C323.318 254.869 323.579 255.733 324.101 256.309C324.644 256.863 325.237 257.14 325.878 257.14C326.552 257.14 327.128 256.869 327.606 256.325C328.084 255.76 328.323 254.88 328.323 253.684C328.323 252.598 328.101 251.75 327.655 251.141C327.22 250.533 326.601 250.228 325.796 250.228C325.373 250.228 324.976 250.342 324.606 250.571C323.748 251.081 323.318 252.13 323.318 253.717ZM331.448 255.315C331.166 254.152 331.177 253.027 331.481 251.94C331.785 250.853 332.426 250.076 333.405 249.609C333.948 249.348 334.584 249.217 335.312 249.217C336.04 249.217 336.676 249.348 337.219 249.609C338.197 250.065 338.844 250.88 339.159 252.054C339.301 252.598 339.371 253.146 339.371 253.701C339.382 254.244 339.317 254.782 339.176 255.315C339.045 255.836 338.812 256.314 338.475 256.749C338.149 257.184 337.73 257.526 337.219 257.776C336.665 258.026 336.029 258.151 335.312 258.151C334.595 258.151 333.959 258.026 333.405 257.776C332.459 257.32 331.807 256.499 331.448 255.315ZM332.964 252.038C332.823 252.473 332.752 253.016 332.752 253.668C332.752 254.309 332.823 254.858 332.964 255.315C333.106 255.771 333.269 256.113 333.453 256.342C333.845 256.776 334.29 257.032 334.79 257.108C335.138 257.162 335.486 257.162 335.834 257.108C335.986 257.097 336.198 257.021 336.469 256.88C336.763 256.727 337.002 256.537 337.187 256.309C337.371 256.081 337.529 255.749 337.659 255.315C337.801 254.858 337.871 254.309 337.871 253.668C337.871 253.016 337.801 252.473 337.659 252.038C337.507 251.56 337.339 251.217 337.154 251.011C336.98 250.804 336.763 250.63 336.502 250.489C336.241 250.348 336.018 250.261 335.834 250.228C335.486 250.174 335.138 250.174 334.79 250.228C334.638 250.239 334.421 250.321 334.138 250.473C333.584 250.744 333.193 251.266 332.964 252.038ZM341.261 257.825V249.544H345.207C346.956 249.544 347.831 250.201 347.831 251.516C347.831 252.462 347.331 253.108 346.331 253.456V253.505C347.005 253.668 347.473 253.929 347.733 254.288C348.005 254.646 348.141 255.108 348.141 255.673C348.141 256.575 347.809 257.173 347.147 257.467C346.603 257.706 345.94 257.825 345.158 257.825H341.261ZM344.75 250.554H342.696V253H344.685C345.261 253 345.685 252.886 345.956 252.657C346.239 252.418 346.38 252.108 346.38 251.728C346.38 250.946 345.837 250.554 344.75 250.554ZM344.75 254.01H342.696V256.814H344.799C346.038 256.814 346.657 256.391 346.657 255.543C346.657 254.521 346.022 254.01 344.75 254.01Z" fill="black"/>
<path d="M112.797 38.6719V22.6954H119.302C122.908 22.6954 124.711 24.2246 124.711 27.2829C124.711 30.6304 122.84 32.3041 119.096 32.3041H114.943V38.6719H112.797ZM118.868 24.4985H114.943V30.5011H118.868C120.131 30.5011 121.052 30.2424 121.63 29.7251C122.223 29.1925 122.52 28.3937 122.52 27.3286C122.52 26.3396 122.223 25.6244 121.63 25.1832C121.036 24.7267 120.116 24.4985 118.868 24.4985ZM127.374 38.6719V22.6954H133.879C137.485 22.6954 139.288 24.2246 139.288 27.2829C139.288 30.6304 137.416 32.3041 133.673 32.3041H129.519V38.6719H127.374ZM133.445 24.4985H129.519V30.5011H133.445C134.708 30.5011 135.628 30.2424 136.207 29.7251C136.8 29.1925 137.097 28.3937 137.097 27.3286C137.097 26.3396 136.8 25.6244 136.207 25.1832C135.613 24.7267 134.693 24.4985 133.445 24.4985ZM141.449 42.8942H140.011L148.159 22.6954H149.597L141.449 42.8942ZM161.714 24.4985H153.68V38.6719H151.535V22.6954H163.859V38.6719H161.714V24.4985ZM177.918 24.4985H169.884V38.6719H167.739V22.6954H180.063V38.6719H177.918V24.4985ZM122.976 47.4985H114.943V61.6719H112.797V45.6954H125.122V61.6719H122.976V47.4985ZM128.339 58.1571C127.944 56.529 127.959 54.9541 128.385 53.4326C128.811 51.911 129.709 50.8231 131.078 50.1688C131.839 49.8036 132.729 49.6211 133.748 49.6211C134.768 49.6211 135.658 49.8036 136.419 50.1688C137.788 50.8079 138.693 51.9491 139.135 53.5923C139.332 54.3531 139.431 55.1215 139.431 55.8975C139.447 56.6583 139.355 57.4115 139.157 58.1571C138.975 58.8874 138.648 59.5569 138.176 60.1655C137.72 60.7741 137.134 61.2534 136.419 61.6034C135.643 61.9534 134.753 62.1283 133.748 62.1283C132.744 62.1283 131.854 61.9534 131.078 61.6034C129.754 60.9643 128.841 59.8156 128.339 58.1571ZM130.462 53.5695C130.264 54.1781 130.165 54.9389 130.165 55.8519C130.165 56.7496 130.264 57.518 130.462 58.1571C130.66 58.7961 130.888 59.2754 131.146 59.5949C131.694 60.2036 132.318 60.5611 133.018 60.6676C133.505 60.7437 133.992 60.7437 134.479 60.6676C134.692 60.6524 134.988 60.5459 135.369 60.3481C135.78 60.1351 136.114 59.8688 136.373 59.5493C136.632 59.2298 136.852 58.7657 137.035 58.1571C137.233 57.518 137.332 56.7496 137.332 55.8519C137.332 54.9389 137.233 54.1781 137.035 53.5695C136.822 52.9 136.586 52.4207 136.327 52.1316C136.084 51.8425 135.78 51.5991 135.414 51.4013C135.049 51.2035 134.737 51.0818 134.479 51.0361C133.992 50.96 133.505 50.96 133.018 51.0361C132.805 51.0513 132.501 51.1654 132.105 51.3785C131.329 51.7589 130.781 52.4892 130.462 53.5695ZM140.731 61.6719V60.1883C141.872 60.5231 142.678 59.9829 143.15 58.5679C143.272 58.2179 143.356 57.7843 143.401 57.2669L143.493 55.8747C143.508 55.6312 143.515 55.152 143.515 54.4368V50.0775H151.549V61.6719H149.541V51.4926H145.387V54.4368C145.387 55.3954 145.364 56.2018 145.318 56.8561C145.273 57.4952 145.159 58.1951 144.976 58.9559C144.717 60.0362 144.253 60.8046 143.584 61.2611C142.914 61.7175 141.963 61.8545 140.731 61.6719ZM156.835 50.0775V59.3211L162.883 50.0775H165.12V61.6719H163.111V52.4055L157.086 61.6719H154.827V50.0775H156.835ZM168.4 61.6719V50.0775H173.924C176.373 50.0775 177.598 50.9981 177.598 52.8392C177.598 54.1629 176.898 55.0683 175.498 55.5552V55.6236C176.442 55.8519 177.096 56.2171 177.461 56.7192C177.842 57.2213 178.032 57.868 178.032 58.6592C178.032 59.9221 177.568 60.7589 176.64 61.1698C175.879 61.5045 174.951 61.6719 173.855 61.6719H168.4ZM173.285 51.4926H170.409V54.9161H173.193C174 54.9161 174.593 54.7563 174.973 54.4368C175.369 54.1021 175.567 53.6684 175.567 53.1359C175.567 52.0403 174.806 51.4926 173.285 51.4926ZM173.285 56.3312H170.409V60.2568H173.353C175.088 60.2568 175.955 59.6634 175.955 58.4766C175.955 57.0463 175.065 56.3312 173.285 56.3312ZM188.578 51.4926H182.712V61.6719H180.704V50.0775H190.586V61.6719H188.578V51.4926ZM193.876 65.8942V50.0775H195.748V51.6752H195.816C196.729 50.3058 198.007 49.6211 199.651 49.6211C201.157 49.6211 202.405 50.146 203.394 51.1959C204.383 52.261 204.877 53.8206 204.877 55.8747C204.877 57.9745 204.375 59.5417 203.371 60.5763C202.382 61.611 201.157 62.1283 199.696 62.1283C199.24 62.1283 198.684 62.0294 198.03 61.8316C197.071 61.5425 196.356 60.9339 195.885 60.0058V65.8942H193.876ZM195.748 55.9203C195.748 57.5332 196.113 58.7429 196.843 59.5493C197.604 60.3253 198.433 60.7133 199.331 60.7133C200.274 60.7133 201.081 60.3329 201.75 59.5721C202.42 58.7809 202.755 57.5484 202.755 55.8747C202.755 54.3531 202.443 53.1663 201.819 52.3142C201.21 51.4621 200.343 51.0361 199.217 51.0361C198.623 51.0361 198.068 51.1959 197.551 51.5154C196.349 52.2305 195.748 53.6989 195.748 55.9203ZM207.129 58.1571C206.734 56.529 206.749 54.9541 207.175 53.4326C207.601 51.911 208.499 50.8231 209.868 50.1688C210.629 49.8036 211.519 49.6211 212.539 49.6211C213.558 49.6211 214.448 49.8036 215.209 50.1688C216.578 50.8079 217.484 51.9491 217.925 53.5923C218.123 54.3531 218.222 55.1215 218.222 55.8975C218.237 56.6583 218.145 57.4115 217.948 58.1571C217.765 58.8874 217.438 59.5569 216.966 60.1655C216.51 60.7741 215.924 61.2534 215.209 61.6034C214.433 61.9534 213.543 62.1283 212.539 62.1283C211.534 62.1283 210.644 61.9534 209.868 61.6034C208.544 60.9643 207.631 59.8156 207.129 58.1571ZM209.252 53.5695C209.054 54.1781 208.955 54.9389 208.955 55.8519C208.955 56.7496 209.054 57.518 209.252 58.1571C209.45 58.7961 209.678 59.2754 209.937 59.5949C210.484 60.2036 211.108 60.5611 211.808 60.6676C212.295 60.7437 212.782 60.7437 213.269 60.6676C213.482 60.6524 213.779 60.5459 214.159 60.3481C214.57 60.1351 214.905 59.8688 215.163 59.5493C215.422 59.2298 215.643 58.7657 215.825 58.1571C216.023 57.518 216.122 56.7496 216.122 55.8519C216.122 54.9389 216.023 54.1781 215.825 53.5695C215.612 52.9 215.376 52.4207 215.118 52.1316C214.874 51.8425 214.57 51.5991 214.205 51.4013C213.839 51.2035 213.528 51.0818 213.269 51.0361C212.782 50.96 212.295 50.96 211.808 51.0361C211.595 51.0513 211.291 51.1654 210.895 51.3785C210.119 51.7589 209.571 52.4892 209.252 53.5695ZM228.742 51.4926H222.876V61.6719H220.868V50.0775H230.75V61.6719H228.742V51.4926ZM236.049 50.0775V59.3211L242.097 50.0775H244.334V61.6719H242.325V52.4055L236.3 61.6719H234.04V50.0775H236.049ZM246.267 61.6719V60.1883C247.409 60.5231 248.215 59.9829 248.687 58.5679C248.808 58.2179 248.892 57.7843 248.938 57.2669L249.029 55.8747C249.044 55.6312 249.052 55.152 249.052 54.4368V50.0775H257.086V61.6719H255.077V51.4926H250.923V54.4368C250.923 55.3954 250.901 56.2018 250.855 56.8561C250.809 57.4952 250.695 58.1951 250.513 58.9559C250.254 60.0362 249.79 60.8046 249.12 61.2611C248.451 61.7175 247.5 61.8545 246.267 61.6719ZM268.716 58.3168H270.634C270.451 59.3363 269.957 60.2264 269.15 60.9872C268.344 61.748 267.149 62.1283 265.567 62.1283C263.421 62.1283 261.847 61.4208 260.842 60.0058C260.34 59.2602 260.013 58.4614 259.861 57.6093C259.754 57.0159 259.701 56.4529 259.701 55.9203C259.701 54.9009 259.853 53.9423 260.158 53.0446C260.355 52.4055 260.645 51.8501 261.025 51.3785C261.436 50.8763 262.022 50.4579 262.782 50.1232C263.543 49.7884 264.403 49.6211 265.361 49.6211C267.066 49.6211 268.351 50.0927 269.219 51.0361C269.584 51.4317 269.88 51.9338 270.109 52.5425C270.443 53.425 270.649 54.4977 270.725 55.7606C270.725 55.8062 270.725 55.9051 270.725 56.0573C270.74 56.2094 270.748 56.3007 270.748 56.3312H261.824C261.824 57.4876 262.128 58.507 262.737 59.3895C263.345 60.272 264.266 60.7133 265.498 60.7133C266.381 60.7133 267.104 60.4927 267.667 60.0514C268.23 59.6101 268.58 59.032 268.716 58.3168ZM261.824 54.9161H268.625C268.61 54.0184 268.397 53.1891 267.986 52.4283C267.514 51.5002 266.655 51.0361 265.407 51.0361C263.992 51.0361 263.018 51.5078 262.486 52.4512C262.044 53.212 261.824 54.0336 261.824 54.9161ZM281.117 56.2627H275.388V61.6719H273.38V50.0775H275.388V54.8476H281.117V50.0775H283.125V61.6719H281.117V56.2627Z" fill="black"/>
<path d="M51.9051 140.921H54.0049C54.081 141.637 54.3777 142.291 54.895 142.884C55.4123 143.478 56.2111 143.774 57.2915 143.774C59.7716 143.774 61.0117 142.458 61.0117 139.826C61.0117 138.517 60.6693 137.566 59.9846 136.973C59.3304 136.364 58.5011 136.06 57.4969 136.06C56.9339 136.06 56.3329 136.189 55.6938 136.448C55.0395 136.707 54.5983 137.041 54.37 137.452H52.3616L53.4799 129.03H62.1072V130.833H55.0548L54.4157 135.558C55.3439 134.751 56.5459 134.348 58.0218 134.348C59.513 134.348 60.715 134.843 61.6279 135.832C62.5561 136.806 63.0202 138.129 63.0202 139.803C63.0202 141.538 62.5257 142.922 61.5366 143.957C60.5476 144.976 59.1326 145.486 57.2915 145.486C55.3286 145.486 53.9364 144.946 53.1148 143.866C52.3996 142.938 51.9964 141.956 51.9051 140.921Z" fill="black"/>
<path d="M26.99 156.978C26.5108 156.15 26.2614 155.208 26.2675 154.251C26.2737 153.293 26.5352 152.355 27.025 151.532L35.6282 136.882L37.5752 145.488L42.8516 144.288L38.8134 126.438L21.014 130.487L22.2111 135.779L31.1973 133.734L22.3627 148.779C21.3949 150.427 20.8786 152.303 20.8663 154.216C20.854 156.129 21.3461 158.011 22.2926 159.671C23.2392 161.332 24.6067 162.712 26.2565 163.672C27.9063 164.632 29.7798 165.138 31.6872 165.138H45.625L51.0354 159.712H31.6872C30.7323 159.718 29.7932 159.467 28.9673 158.987C28.1414 158.506 27.4587 157.813 26.99 156.978ZM63.3501 105.551L72.4375 121.026L64.1438 119.729L63.3096 125.09L81.3434 127.911L84.1569 109.826L78.8112 108.99L77.311 118.633L68.0124 102.798C67.0566 101.17 65.6936 99.8205 64.0582 98.8829C62.4228 97.9453 60.5716 97.4521 58.6878 97.4521C56.8041 97.4521 54.9529 97.9453 53.3175 98.8829C51.6821 99.8205 50.3191 101.17 49.3633 102.798L42.6105 114.297L44.3701 121.994L54.0254 105.551C54.5033 104.737 55.1848 104.063 56.0025 103.594C56.8201 103.125 57.7457 102.879 58.6875 102.879C59.6293 102.879 60.5549 103.125 61.3725 103.594C62.1902 104.063 62.8722 104.737 63.3501 105.551ZM95.0133 148.779L86.9201 134.997L79.9629 133.842L90.3512 151.532C90.8351 152.357 91.0932 153.294 91.0994 154.251C91.1055 155.207 90.8595 156.148 90.3861 156.979C89.9128 157.809 89.2291 158.499 88.4041 158.979C87.5792 159.459 86.6424 159.712 85.6887 159.712H66.8444L73.33 153.208L69.5043 149.371L56.5984 162.314L69.5043 175.257L73.33 171.42L67.0654 165.138H85.6887C87.5961 165.138 89.4696 164.632 91.1194 163.673C92.7692 162.713 94.1366 161.332 95.0832 159.672C96.0298 158.011 96.5218 156.129 96.5095 154.216C96.4972 152.303 95.9811 150.427 95.0133 148.779Z" fill="black"/>
<path d="M213.313 291.599H207.406V294.533H204.453V297.468H201.499V306.271H204.453V309.205H207.406V312.14H210.36V315.074H213.313V318.009H216.267V320.943H219.22V318.009H222.174V315.074H225.127V312.14H228.081V309.205H231.034V306.271H233.988V297.468H231.034V294.533H228.081V291.599H222.174V294.533H219.22V297.468H216.267V294.533H213.313V291.599ZM213.313 294.533V297.468H216.267V300.402H219.22V297.468H222.174V294.533H228.081V297.468H231.034V306.271H228.081V309.205H225.127V312.14H222.174V315.074H219.22V318.009H216.267V315.074H213.313V312.14H210.36V309.205H207.406V306.271H204.453V297.468H207.406V294.533H213.313Z" fill="black"/>
<path d="M210.156 336.906H204.417V347.03H202.885V335.619H211.688V347.03H210.156V336.906ZM214.247 350.046V338.749H215.584V339.89H215.633C216.285 338.912 217.198 338.423 218.371 338.423C219.447 338.423 220.339 338.797 221.045 339.547C221.752 340.308 222.105 341.422 222.105 342.889C222.105 344.389 221.746 345.509 221.029 346.248C220.322 346.987 219.447 347.356 218.404 347.356C218.078 347.356 217.681 347.286 217.214 347.144C216.529 346.938 216.018 346.503 215.682 345.84V350.046H214.247ZM215.584 342.922C215.584 344.074 215.845 344.938 216.366 345.514C216.91 346.068 217.502 346.346 218.143 346.346C218.817 346.346 219.393 346.074 219.871 345.53C220.35 344.965 220.589 344.085 220.589 342.889C220.589 341.803 220.366 340.955 219.92 340.346C219.486 339.738 218.866 339.433 218.062 339.433C217.638 339.433 217.241 339.547 216.872 339.776C216.013 340.286 215.584 341.335 215.584 342.922ZM225.409 338.749V345.351L229.729 338.749H231.327V347.03H229.892V340.411L225.588 347.03H223.974V338.749H225.409ZM239.343 339.759H235.105V347.03H233.67V338.749H239.343V339.759ZM240.048 344.52C239.765 343.357 239.776 342.232 240.08 341.145C240.385 340.058 241.026 339.281 242.004 338.814C242.548 338.553 243.183 338.423 243.912 338.423C244.64 338.423 245.276 338.553 245.819 338.814C246.797 339.27 247.444 340.085 247.759 341.259C247.9 341.803 247.971 342.351 247.971 342.906C247.982 343.449 247.917 343.987 247.775 344.52C247.645 345.041 247.411 345.52 247.074 345.954C246.748 346.389 246.33 346.731 245.819 346.981C245.265 347.231 244.629 347.356 243.912 347.356C243.194 347.356 242.558 347.231 242.004 346.981C241.059 346.525 240.407 345.704 240.048 344.52ZM241.564 341.243C241.423 341.678 241.352 342.221 241.352 342.873C241.352 343.514 241.423 344.063 241.564 344.52C241.705 344.976 241.868 345.319 242.053 345.547C242.444 345.981 242.89 346.237 243.39 346.313C243.738 346.367 244.085 346.367 244.433 346.313C244.585 346.302 244.797 346.226 245.069 346.085C245.362 345.933 245.602 345.742 245.786 345.514C245.971 345.286 246.129 344.954 246.259 344.52C246.4 344.063 246.471 343.514 246.471 342.873C246.471 342.221 246.4 341.678 246.259 341.243C246.107 340.765 245.939 340.422 245.754 340.216C245.58 340.009 245.362 339.835 245.102 339.694C244.841 339.553 244.618 339.466 244.433 339.433C244.085 339.379 243.738 339.379 243.39 339.433C243.238 339.444 243.02 339.526 242.738 339.678C242.183 339.95 241.792 340.471 241.564 341.243ZM248.818 349.182L248.687 346.02H249.731C250.633 344.694 251.084 342.732 251.084 340.134V338.749H257.018V346.02H258.452L258.338 349.182H257.132V347.03H250.024V349.182H248.818ZM255.583 346.02V339.759H252.42V340.917C252.42 341.797 252.323 342.71 252.127 343.656C251.953 344.59 251.66 345.378 251.247 346.02H255.583ZM265.651 344.634H267.02C266.89 345.362 266.536 345.998 265.96 346.541C265.384 347.085 264.531 347.356 263.401 347.356C261.868 347.356 260.744 346.851 260.026 345.84C259.668 345.308 259.434 344.737 259.325 344.128C259.249 343.705 259.211 343.302 259.211 342.922C259.211 342.194 259.32 341.509 259.537 340.868C259.678 340.411 259.885 340.015 260.157 339.678C260.45 339.319 260.869 339.02 261.412 338.781C261.955 338.542 262.569 338.423 263.254 338.423C264.471 338.423 265.39 338.759 266.009 339.433C266.27 339.716 266.482 340.075 266.645 340.509C266.884 341.14 267.031 341.906 267.085 342.808C267.085 342.841 267.085 342.911 267.085 343.02C267.096 343.129 267.102 343.194 267.102 343.215H260.727C260.727 344.041 260.945 344.77 261.379 345.4C261.814 346.03 262.472 346.346 263.352 346.346C263.982 346.346 264.499 346.188 264.901 345.873C265.303 345.558 265.553 345.145 265.651 344.634ZM260.727 342.205H265.585C265.575 341.563 265.422 340.971 265.129 340.428C264.792 339.765 264.178 339.433 263.287 339.433C262.276 339.433 261.58 339.77 261.2 340.444C260.885 340.987 260.727 341.574 260.727 342.205ZM274.508 343.167H270.416V347.03H268.981V338.749H270.416V342.156H274.508V338.749H275.943V347.03H274.508V343.167ZM201.629 367.182L201.499 364.02H202.542C203.444 362.694 203.895 360.732 203.895 358.134V356.749H209.83V364.02H211.264L211.15 367.182H209.944V365.03H202.836V367.182H201.629ZM208.395 364.02V357.759H205.232V358.917C205.232 359.797 205.134 360.71 204.939 361.656C204.765 362.59 204.472 363.378 204.059 364.02H208.395ZM211.948 365.03V363.971C212.763 364.21 213.339 363.824 213.676 362.813C213.763 362.563 213.823 362.253 213.855 361.884L213.92 360.889C213.931 360.716 213.937 360.373 213.937 359.862V356.749H219.675V365.03H218.241V357.759H215.274V359.862C215.274 360.547 215.257 361.123 215.225 361.59C215.192 362.047 215.11 362.547 214.98 363.09C214.795 363.862 214.464 364.411 213.986 364.737C213.507 365.063 212.828 365.161 211.948 365.03ZM227.086 361.77H225.195L223.027 365.03H221.446L223.728 361.753C223.098 361.688 222.587 361.444 222.195 361.02C221.804 360.596 221.609 360.042 221.609 359.357C221.609 358.716 221.777 358.156 222.114 357.678C222.516 357.058 223.277 356.749 224.396 356.749H228.521V365.03H227.086V361.77ZM227.086 360.759V357.759H225.016C223.733 357.759 223.092 358.276 223.092 359.308C223.092 359.732 223.25 360.08 223.565 360.351C223.88 360.623 224.38 360.759 225.065 360.759H227.086ZM240.297 357.759H236.107V365.03H234.673V356.749H241.732V365.03H240.297V357.759ZM250.049 362.634H251.418C251.288 363.362 250.934 363.998 250.358 364.541C249.782 365.085 248.929 365.356 247.799 365.356C246.266 365.356 245.142 364.851 244.424 363.84C244.066 363.308 243.832 362.737 243.723 362.128C243.647 361.705 243.609 361.302 243.609 360.922C243.609 360.194 243.718 359.509 243.935 358.868C244.076 358.411 244.283 358.015 244.555 357.678C244.848 357.319 245.267 357.02 245.81 356.781C246.353 356.542 246.967 356.423 247.652 356.423C248.869 356.423 249.788 356.759 250.407 357.433C250.668 357.716 250.88 358.075 251.043 358.509C251.282 359.14 251.429 359.906 251.483 360.808C251.483 360.841 251.483 360.911 251.483 361.02C251.494 361.129 251.499 361.194 251.499 361.215H245.125C245.125 362.041 245.343 362.77 245.777 363.4C246.212 364.03 246.87 364.346 247.75 364.346C248.38 364.346 248.897 364.188 249.299 363.873C249.701 363.558 249.951 363.145 250.049 362.634ZM245.125 360.205H249.983C249.972 359.563 249.82 358.971 249.527 358.428C249.19 357.765 248.576 357.433 247.685 357.433C246.674 357.433 245.978 357.77 245.598 358.444C245.283 358.987 245.125 359.574 245.125 360.205ZM253.379 368.046V356.749H254.716V357.89H254.765C255.417 356.912 256.33 356.423 257.504 356.423C258.58 356.423 259.471 356.797 260.178 357.547C260.884 358.308 261.237 359.422 261.237 360.889C261.237 362.389 260.879 363.509 260.161 364.248C259.455 364.987 258.58 365.356 257.537 365.356C257.21 365.356 256.814 365.286 256.346 365.144C255.662 364.938 255.151 364.503 254.814 363.84V368.046H253.379ZM254.716 360.922C254.716 362.074 254.977 362.938 255.499 363.514C256.042 364.068 256.634 364.346 257.276 364.346C257.95 364.346 258.526 364.074 259.004 363.53C259.482 362.965 259.721 362.085 259.721 360.889C259.721 359.803 259.498 358.955 259.053 358.346C258.618 357.738 257.998 357.433 257.194 357.433C256.77 357.433 256.374 357.547 256.004 357.776C255.145 358.286 254.716 359.335 254.716 360.922ZM269.073 362.634H270.443C270.312 363.362 269.959 363.998 269.383 364.541C268.807 365.085 267.954 365.356 266.824 365.356C265.291 365.356 264.166 364.851 263.449 363.84C263.09 363.308 262.857 362.737 262.748 362.128C262.672 361.705 262.634 361.302 262.634 360.922C262.634 360.194 262.743 359.509 262.96 358.868C263.101 358.411 263.308 358.015 263.58 357.678C263.873 357.319 264.291 357.02 264.835 356.781C265.378 356.542 265.992 356.423 266.677 356.423C267.894 356.423 268.813 356.759 269.432 357.433C269.693 357.716 269.905 358.075 270.068 358.509C270.307 359.14 270.454 359.906 270.508 360.808C270.508 360.841 270.508 360.911 270.508 361.02C270.519 361.129 270.524 361.194 270.524 361.215H264.15C264.15 362.041 264.367 362.77 264.802 363.4C265.237 364.03 265.894 364.346 266.775 364.346C267.405 364.346 267.921 364.188 268.324 363.873C268.726 363.558 268.976 363.145 269.073 362.634ZM264.15 360.205H269.008C268.997 359.563 268.845 358.971 268.552 358.428C268.215 357.765 267.601 357.433 266.71 357.433C265.699 357.433 265.003 357.77 264.623 358.444C264.308 358.987 264.15 359.574 264.15 360.205ZM272.404 368.046V356.749H273.741V357.89H273.79C274.442 356.912 275.355 356.423 276.529 356.423C277.605 356.423 278.496 356.797 279.202 357.547C279.909 358.308 280.262 359.422 280.262 360.889C280.262 362.389 279.903 363.509 279.186 364.248C278.48 364.987 277.605 365.356 276.561 365.356C276.235 365.356 275.839 365.286 275.371 365.144C274.687 364.938 274.176 364.503 273.839 363.84V368.046H272.404ZM273.741 360.922C273.741 362.074 274.002 362.938 274.524 363.514C275.067 364.068 275.659 364.346 276.301 364.346C276.974 364.346 277.55 364.074 278.029 363.53C278.507 362.965 278.746 362.085 278.746 360.889C278.746 359.803 278.523 358.955 278.078 358.346C277.643 357.738 277.023 357.433 276.219 357.433C275.795 357.433 275.399 357.547 275.029 357.776C274.17 358.286 273.741 359.335 273.741 360.922ZM283.224 359.194H281.855C281.855 358.542 282.072 357.944 282.507 357.401C283.028 356.749 283.985 356.423 285.376 356.423C286.191 356.423 286.908 356.586 287.528 356.912C287.886 357.086 288.169 357.374 288.376 357.776C288.582 358.178 288.68 358.656 288.669 359.21L288.587 363.041C288.587 363.357 288.62 363.601 288.685 363.775C288.783 363.949 289.039 364.03 289.452 364.02V365.03C289.288 365.074 289.071 365.095 288.799 365.095C288.321 365.095 287.973 365.014 287.756 364.851C287.55 364.688 287.403 364.367 287.316 363.889C286.783 364.867 285.838 365.356 284.479 365.356C283.545 365.356 282.822 365.15 282.311 364.737C281.811 364.313 281.561 363.688 281.561 362.862C281.561 362.08 281.844 361.487 282.409 361.085C282.974 360.661 284.045 360.379 285.62 360.237C286.349 360.183 286.783 360.112 286.925 360.025C287.131 359.884 287.234 359.574 287.234 359.096C287.234 357.988 286.615 357.433 285.376 357.433C283.909 357.433 283.191 358.02 283.224 359.194ZM287.202 361.493L287.234 360.792C287.071 360.911 286.832 361.009 286.517 361.085C286.039 361.118 285.669 361.156 285.408 361.199C284.506 361.351 283.958 361.476 283.762 361.574C283.284 361.802 283.045 362.215 283.045 362.813C283.045 363.291 283.186 363.666 283.468 363.938C283.762 364.21 284.153 364.346 284.642 364.346C284.957 364.346 285.245 364.302 285.506 364.215C285.778 364.128 286.039 363.987 286.289 363.791C286.55 363.585 286.756 363.286 286.908 362.895C287.071 362.503 287.169 362.036 287.202 361.493ZM297.028 353.081H298.251C298.207 353.874 297.838 354.401 297.142 354.662C296.762 354.792 296.436 354.879 296.164 354.923C294.947 355.075 294.24 355.178 294.044 355.232C293.305 355.439 292.74 355.814 292.349 356.357C291.958 356.89 291.751 357.656 291.73 358.656H291.762C292.284 357.254 293.354 356.553 294.974 356.553C296.289 356.553 297.272 356.988 297.924 357.857C298.587 358.716 298.919 359.77 298.919 361.02C298.919 362.215 298.577 363.237 297.892 364.085C297.207 364.932 296.191 365.356 294.843 365.356C293.354 365.356 292.251 364.791 291.534 363.661C291.175 363.041 290.931 362.346 290.8 361.574C290.713 360.966 290.67 360.362 290.67 359.765C290.67 357.667 290.99 356.2 291.632 355.363C292.197 354.635 292.963 354.167 293.93 353.961C294.843 353.754 295.615 353.635 296.245 353.602C296.669 353.548 296.93 353.374 297.028 353.081ZM292.186 361.118C292.186 361.835 292.349 362.525 292.675 363.188C293.055 363.96 293.767 364.346 294.811 364.346C295.637 364.346 296.273 364.068 296.718 363.514C297.175 362.949 297.403 362.172 297.403 361.183C297.403 360.368 297.262 359.612 296.979 358.917C296.62 358.015 295.898 357.564 294.811 357.564C293.724 357.564 292.99 358.004 292.61 358.884C292.327 359.558 292.186 360.303 292.186 361.118ZM300.53 362.52C300.247 361.357 300.258 360.232 300.562 359.145C300.867 358.058 301.508 357.281 302.486 356.814C303.029 356.553 303.665 356.423 304.393 356.423C305.121 356.423 305.757 356.553 306.301 356.814C307.279 357.27 307.925 358.085 308.241 359.259C308.382 359.803 308.453 360.351 308.453 360.906C308.463 361.449 308.398 361.987 308.257 362.52C308.127 363.041 307.893 363.52 307.556 363.954C307.23 364.389 306.811 364.731 306.301 364.981C305.746 365.231 305.111 365.356 304.393 365.356C303.676 365.356 303.04 365.231 302.486 364.981C301.54 364.525 300.888 363.704 300.53 362.52ZM302.046 359.243C301.904 359.678 301.834 360.221 301.834 360.873C301.834 361.514 301.904 362.063 302.046 362.52C302.187 362.976 302.35 363.319 302.535 363.547C302.926 363.981 303.372 364.237 303.872 364.313C304.219 364.367 304.567 364.367 304.915 364.313C305.067 364.302 305.279 364.226 305.551 364.085C305.844 363.933 306.083 363.742 306.268 363.514C306.453 363.286 306.61 362.954 306.741 362.52C306.882 362.063 306.953 361.514 306.953 360.873C306.953 360.221 306.882 359.678 306.741 359.243C306.589 358.765 306.42 358.422 306.235 358.216C306.062 358.009 305.844 357.835 305.583 357.694C305.323 357.553 305.1 357.466 304.915 357.433C304.567 357.379 304.219 357.379 303.872 357.433C303.719 357.444 303.502 357.526 303.22 357.678C302.665 357.95 302.274 358.471 302.046 359.243ZM311.741 365.03V357.759H308.871V356.749H316.044V357.759H313.175V365.03H311.741ZM318.671 356.749V360.368L322.209 356.749H323.888L320.008 360.596L324.1 365.03H322.388L318.671 360.889V365.03H317.236V356.749H318.671ZM326.647 356.749V363.351L330.967 356.749H332.565V365.03H331.13V358.411L326.826 365.03H325.212V356.749H326.647Z" fill="black"/>
<path d="M28.8715 341.667H23.133V347.03H21.6006V335.619H23.133V340.379H28.8715V335.619H30.4039V347.03H28.8715V341.667ZM34.3974 338.749V345.351L38.7176 338.749H40.3152V347.03H38.8806V340.411L34.5767 347.03H32.9628V338.749H34.3974ZM42.0062 344.487H43.3756C43.3756 345.03 43.5713 345.476 43.9625 345.824C44.3538 346.172 44.8918 346.346 45.5765 346.346C46.2503 346.346 46.7774 346.21 47.1578 345.938C47.5382 345.655 47.7284 345.248 47.7284 344.715C47.7284 343.726 47.1035 343.232 45.8536 343.232H44.6309V342.221H45.6906C46.8426 342.221 47.4187 341.792 47.4187 340.933C47.4187 340.792 47.3969 340.651 47.3534 340.509C47.3208 340.368 47.2448 340.21 47.1252 340.036C47.0165 339.852 46.8263 339.705 46.5546 339.596C46.2829 339.488 45.946 339.433 45.5439 339.433C44.8266 339.433 44.3212 339.602 44.0277 339.939C43.7343 340.276 43.5876 340.64 43.5876 341.031H42.2182C42.2508 340.466 42.3975 339.993 42.6583 339.613C42.9192 339.232 43.2561 338.961 43.6691 338.797C44.3429 338.548 44.995 338.423 45.6254 338.423C46.1797 338.423 46.6687 338.488 47.0926 338.618C47.5165 338.738 47.8371 338.884 48.0545 339.058C48.2827 339.232 48.462 339.439 48.5924 339.678C48.7337 339.917 48.8207 340.129 48.8533 340.314C48.8859 340.488 48.9022 340.661 48.9022 340.835C48.9022 341.803 48.424 342.406 47.4676 342.645V342.694C47.9784 342.77 48.3968 342.993 48.7229 343.362C49.0489 343.732 49.2119 344.215 49.2119 344.813C49.2119 345.422 48.9946 345.976 48.5598 346.476C48.0273 347.063 47.0709 347.356 45.6906 347.356C44.5277 347.356 43.6419 347.112 43.0333 346.623C42.3486 346.025 42.0062 345.313 42.0062 344.487ZM52.5149 338.749V342.368L56.0525 338.749H57.7317L53.8517 342.596L57.9436 347.03H56.2318L52.5149 342.889V347.03H51.0802V338.749H52.5149ZM60.491 338.749V345.351L64.8112 338.749H66.4088V347.03H64.9742V340.411L60.6703 347.03H59.0564V338.749H60.491ZM70.1865 338.749V345.351L74.5067 338.749H76.1043V347.03H74.6697V340.411L70.3659 347.03H68.7519V338.749H70.1865ZM73.9687 335.619H75.1914C74.9632 336.814 74.2459 337.515 73.0395 337.722C72.833 337.754 72.6156 337.77 72.3874 337.77C70.9854 337.77 70.0887 337.2 69.6975 336.059C69.6649 335.983 69.6268 335.836 69.5833 335.619H70.806C70.7734 335.901 70.8712 336.167 71.0995 336.417C71.2625 336.591 71.4527 336.722 71.6701 336.809C71.8657 336.874 72.1048 336.906 72.3874 336.906C72.8547 336.906 73.2405 336.792 73.5449 336.564C73.8492 336.325 73.9905 336.01 73.9687 335.619ZM21.6984 368.03V366.97C22.1114 367.025 22.3505 367.052 22.4157 367.052C22.8287 367.052 23.1221 366.9 23.296 366.595C23.4047 366.432 23.4753 366.296 23.508 366.188C23.5406 366.133 23.6112 365.954 23.7199 365.65L23.9155 365.03L20.329 356.749H22.0407L24.698 363.449L26.8989 356.749H28.3335L25.0404 366.008C24.7796 366.747 24.5567 367.231 24.372 367.459C24.0025 367.894 23.5025 368.111 22.8722 368.111C22.3831 368.111 21.9918 368.084 21.6984 368.03ZM29.508 368.046V356.749H30.8449V357.89H30.8938C31.5459 356.912 32.4588 356.423 33.6326 356.423C34.7086 356.423 35.5998 356.797 36.3062 357.547C37.0126 358.308 37.3659 359.422 37.3659 360.889C37.3659 362.389 37.0072 363.509 36.2899 364.248C35.5835 364.987 34.7086 365.356 33.6652 365.356C33.3391 365.356 32.9424 365.286 32.4751 365.144C31.7904 364.938 31.2796 364.503 30.9427 363.84V368.046H29.508ZM30.8449 360.922C30.8449 362.074 31.1057 362.938 31.6274 363.514C32.1708 364.068 32.7631 364.346 33.4043 364.346C34.0782 364.346 34.6542 364.074 35.1324 363.53C35.6106 362.965 35.8497 362.085 35.8497 360.889C35.8497 359.803 35.6269 358.955 35.1813 358.346C34.7466 357.738 34.1271 357.433 33.3228 357.433C32.899 357.433 32.5023 357.547 32.1328 357.776C31.2742 358.286 30.8449 359.335 30.8449 360.922ZM38.9746 362.52C38.692 361.357 38.7029 360.232 39.0072 359.145C39.3115 358.058 39.9527 357.281 40.9309 356.814C41.4743 356.553 42.1101 356.423 42.8383 356.423C43.5665 356.423 44.2023 356.553 44.7457 356.814C45.7238 357.27 46.3705 358.085 46.6857 359.259C46.827 359.803 46.8976 360.351 46.8976 360.906C46.9085 361.449 46.8433 361.987 46.702 362.52C46.5716 363.041 46.3379 363.52 46.001 363.954C45.6749 364.389 45.2565 364.731 44.7457 364.981C44.1914 365.231 43.5556 365.356 42.8383 365.356C42.121 365.356 41.4852 365.231 40.9309 364.981C39.9853 364.525 39.3332 363.704 38.9746 362.52ZM40.4907 359.243C40.3494 359.678 40.2788 360.221 40.2788 360.873C40.2788 361.514 40.3494 362.063 40.4907 362.52C40.632 362.976 40.795 363.319 40.9798 363.547C41.3711 363.981 41.8167 364.237 42.3166 364.313C42.6644 364.367 43.0122 364.367 43.36 364.313C43.5121 364.302 43.7241 364.226 43.9958 364.085C44.2892 363.933 44.5283 363.742 44.7131 363.514C44.8978 363.286 45.0554 362.954 45.1859 362.52C45.3271 362.063 45.3978 361.514 45.3978 360.873C45.3978 360.221 45.3271 359.678 45.1859 359.243C45.0337 358.765 44.8652 358.422 44.6805 358.216C44.5066 358.009 44.2892 357.835 44.0284 357.694C43.7675 357.553 43.5447 357.466 43.36 357.433C43.0122 357.379 42.6644 357.379 42.3166 357.433C42.1645 357.444 41.9471 357.526 41.6645 357.678C41.1102 357.95 40.719 358.471 40.4907 359.243ZM48.7877 365.03V356.749H52.7329C54.4827 356.749 55.3576 357.406 55.3576 358.721C55.3576 359.667 54.8577 360.313 53.8578 360.661V360.71C54.5316 360.873 54.9989 361.134 55.2598 361.493C55.5315 361.851 55.6674 362.313 55.6674 362.878C55.6674 363.78 55.3359 364.378 54.6729 364.672C54.1295 364.911 53.4665 365.03 52.684 365.03H48.7877ZM52.2764 357.759H50.2223V360.205H52.2112C52.7872 360.205 53.2111 360.091 53.4828 359.862C53.7654 359.623 53.9067 359.314 53.9067 358.933C53.9067 358.151 53.3633 357.759 52.2764 357.759ZM52.2764 361.215H50.2223V364.02H52.3253C53.5643 364.02 54.1838 363.596 54.1838 362.748C54.1838 361.726 53.548 361.215 52.2764 361.215ZM63.5425 362.634H64.9119C64.7815 363.362 64.4283 363.998 63.8522 364.541C63.2762 365.085 62.4231 365.356 61.2927 365.356C59.7603 365.356 58.6354 364.851 57.9181 363.84C57.5595 363.308 57.3258 362.737 57.2171 362.128C57.141 361.705 57.103 361.302 57.103 360.922C57.103 360.194 57.2117 359.509 57.429 358.868C57.5703 358.411 57.7768 358.015 58.0485 357.678C58.342 357.319 58.7604 357.02 59.3038 356.781C59.8473 356.542 60.4613 356.423 61.146 356.423C62.3633 356.423 63.2817 356.759 63.9011 357.433C64.162 357.716 64.3739 358.075 64.5369 358.509C64.776 359.14 64.9228 359.906 64.9771 360.808C64.9771 360.841 64.9771 360.911 64.9771 361.02C64.988 361.129 64.9934 361.194 64.9934 361.215H58.6191C58.6191 362.041 58.8365 362.77 59.2712 363.4C59.706 364.03 60.3635 364.346 61.2438 364.346C61.8742 364.346 62.3904 364.188 62.7926 363.873C63.1947 363.558 63.4447 363.145 63.5425 362.634ZM58.6191 360.205H63.4773C63.4664 359.563 63.3143 358.971 63.0208 358.428C62.6839 357.765 62.0698 357.433 61.1786 357.433C60.1679 357.433 59.4723 357.77 59.0919 358.444C58.7767 358.987 58.6191 359.574 58.6191 360.205ZM72.3999 361.167H68.3079V365.03H66.8733V356.749H68.3079V360.156H72.3999V356.749H73.8345V365.03H72.3999V361.167ZM76.1868 365.03V356.749H77.6214V360.042H79.6918C80.5069 360.042 81.2079 360.161 81.7948 360.4C82.6099 360.694 83.0175 361.379 83.0175 362.454C83.0175 363.346 82.7567 364.009 82.235 364.443C82.0176 364.617 81.7622 364.748 81.4688 364.835C81.0775 364.965 80.6482 365.03 80.1809 365.03H76.1868ZM79.3657 361.052H77.6214V364.02H79.6103C80.2841 364.02 80.7786 363.884 81.0938 363.612C81.409 363.297 81.5557 362.911 81.534 362.454C81.534 361.955 81.371 361.585 81.0449 361.346C80.9362 361.27 80.7623 361.205 80.5232 361.15C80.2624 361.085 79.92 361.052 79.4962 361.052H79.3657ZM88.105 362.52C87.8225 361.357 87.8333 360.232 88.1376 359.145C88.442 358.058 89.0832 357.281 90.0613 356.814C90.6048 356.553 91.2406 356.423 91.9687 356.423C92.6969 356.423 93.3327 356.553 93.8761 356.814C94.8543 357.27 95.501 358.085 95.8161 359.259C95.9574 359.803 96.0281 360.351 96.0281 360.906C96.0389 361.449 95.9737 361.987 95.8324 362.52C95.702 363.041 95.4683 363.52 95.1314 363.954C94.8054 364.389 94.3869 364.731 93.8761 364.981C93.3218 365.231 92.6861 365.356 91.9687 365.356C91.2514 365.356 90.6156 365.231 90.0613 364.981C89.1158 364.525 88.4637 363.704 88.105 362.52ZM89.6212 359.243C89.4799 359.678 89.4092 360.221 89.4092 360.873C89.4092 361.514 89.4799 362.063 89.6212 362.52C89.7625 362.976 89.9255 363.319 90.1103 363.547C90.5015 363.981 90.9471 364.237 91.4471 364.313C91.7948 364.367 92.1426 364.367 92.4904 364.313C92.6426 364.302 92.8545 364.226 93.1262 364.085C93.4197 363.933 93.6588 363.742 93.8435 363.514C94.0283 363.286 94.1859 362.954 94.3163 362.52C94.4576 362.063 94.5282 361.514 94.5282 360.873C94.5282 360.221 94.4576 359.678 94.3163 359.243C94.1641 358.765 93.9957 358.422 93.8109 358.216C93.637 358.009 93.4197 357.835 93.1588 357.694C92.898 357.553 92.6752 357.466 92.4904 357.433C92.1426 357.379 91.7948 357.379 91.4471 357.433C91.2949 357.444 91.0775 357.526 90.795 357.678C90.2407 357.95 89.8494 358.471 89.6212 359.243ZM103.543 357.759H99.3528V365.03H97.9181V356.749H104.977V365.03H103.543V357.759ZM108.419 359.194H107.05C107.05 358.542 107.267 357.944 107.702 357.401C108.224 356.749 109.18 356.423 110.571 356.423C111.386 356.423 112.104 356.586 112.723 356.912C113.082 357.086 113.364 357.374 113.571 357.776C113.777 358.178 113.875 358.656 113.864 359.21L113.783 363.041C113.783 363.357 113.816 363.601 113.881 363.775C113.979 363.949 114.234 364.03 114.647 364.02V365.03C114.484 365.074 114.267 365.095 113.995 365.095C113.517 365.095 113.169 365.014 112.951 364.851C112.745 364.688 112.598 364.367 112.511 363.889C111.979 364.867 111.033 365.356 109.675 365.356C108.74 365.356 108.017 365.15 107.506 364.737C107.007 364.313 106.757 363.688 106.757 362.862C106.757 362.08 107.039 361.487 107.604 361.085C108.169 360.661 109.24 360.379 110.816 360.237C111.544 360.183 111.979 360.112 112.12 360.025C112.327 359.884 112.43 359.574 112.43 359.096C112.43 357.988 111.81 357.433 110.571 357.433C109.104 357.433 108.387 358.02 108.419 359.194ZM112.397 361.493L112.43 360.792C112.267 360.911 112.028 361.009 111.712 361.085C111.234 361.118 110.865 361.156 110.604 361.199C109.702 361.351 109.153 361.476 108.957 361.574C108.479 361.802 108.24 362.215 108.24 362.813C108.24 363.291 108.381 363.666 108.664 363.938C108.957 364.21 109.349 364.346 109.838 364.346C110.153 364.346 110.441 364.302 110.702 364.215C110.973 364.128 111.234 363.987 111.484 363.791C111.745 363.585 111.952 363.286 112.104 362.895C112.267 362.503 112.365 362.036 112.397 361.493ZM122.142 362.08H123.511C123.468 362.71 123.229 363.373 122.794 364.068C122.555 364.46 122.18 364.775 121.669 365.014C121.169 365.242 120.582 365.356 119.908 365.356C119.68 365.356 119.517 365.351 119.419 365.34C118.941 365.318 118.452 365.193 117.952 364.965C116.561 364.269 115.865 362.889 115.865 360.824C115.865 359.737 116.115 358.77 116.615 357.922C117.235 356.922 118.3 356.423 119.811 356.423C120.876 356.423 121.723 356.694 122.354 357.238C122.984 357.77 123.348 358.471 123.446 359.341H122.077C121.859 358.069 121.115 357.433 119.843 357.433C119.017 357.433 118.398 357.738 117.985 358.346C117.583 358.944 117.381 359.77 117.381 360.824C117.381 361.846 117.593 362.688 118.017 363.351C118.441 364.014 119.082 364.346 119.941 364.346C120.68 364.346 121.218 364.112 121.555 363.645C121.914 363.177 122.109 362.656 122.142 362.08ZM130.796 361.167H126.704V365.03H125.269V356.749H126.704V360.156H130.796V356.749H132.231V365.03H130.796V361.167ZM134.322 362.52C134.039 361.357 134.05 360.232 134.355 359.145C134.659 358.058 135.3 357.281 136.278 356.814C136.822 356.553 137.458 356.423 138.186 356.423C138.914 356.423 139.55 356.553 140.093 356.814C141.071 357.27 141.718 358.085 142.033 359.259C142.174 359.803 142.245 360.351 142.245 360.906C142.256 361.449 142.191 361.987 142.049 362.52C141.919 363.041 141.685 363.52 141.348 363.954C141.022 364.389 140.604 364.731 140.093 364.981C139.539 365.231 138.903 365.356 138.186 365.356C137.468 365.356 136.833 365.231 136.278 364.981C135.333 364.525 134.681 363.704 134.322 362.52ZM135.838 359.243C135.697 359.678 135.626 360.221 135.626 360.873C135.626 361.514 135.697 362.063 135.838 362.52C135.979 362.976 136.143 363.319 136.327 363.547C136.719 363.981 137.164 364.237 137.664 364.313C138.012 364.367 138.36 364.367 138.707 364.313C138.86 364.302 139.072 364.226 139.343 364.085C139.637 363.933 139.876 363.742 140.061 363.514C140.245 363.286 140.403 362.954 140.533 362.52C140.675 362.063 140.745 361.514 140.745 360.873C140.745 360.221 140.675 359.678 140.533 359.243C140.381 358.765 140.213 358.422 140.028 358.216C139.854 358.009 139.637 357.835 139.376 357.694C139.115 357.553 138.892 357.466 138.707 357.433C138.36 357.379 138.012 357.379 137.664 357.433C137.512 357.444 137.295 357.526 137.012 357.678C136.458 357.95 136.066 358.471 135.838 359.243ZM149.939 362.08H151.308C151.265 362.71 151.026 363.373 150.591 364.068C150.352 364.46 149.977 364.775 149.466 365.014C148.966 365.242 148.379 365.356 147.705 365.356C147.477 365.356 147.314 365.351 147.216 365.34C146.738 365.318 146.249 365.193 145.749 364.965C144.358 364.269 143.662 362.889 143.662 360.824C143.662 359.737 143.912 358.77 144.412 357.922C145.032 356.922 146.097 356.423 147.608 356.423C148.673 356.423 149.52 356.694 150.151 357.238C150.781 357.77 151.145 358.471 151.243 359.341H149.874C149.656 358.069 148.912 357.433 147.64 357.433C146.814 357.433 146.195 357.738 145.782 358.346C145.38 358.944 145.179 359.77 145.179 360.824C145.179 361.846 145.39 362.688 145.814 363.351C146.238 364.014 146.879 364.346 147.738 364.346C148.477 364.346 149.015 364.112 149.352 363.645C149.711 363.177 149.906 362.656 149.939 362.08ZM154.687 365.03V357.759H151.818V356.749H158.991V357.759H156.122V365.03H154.687ZM161.522 356.749V363.351L165.842 356.749H167.44V365.03H166.005V358.411L161.701 365.03H160.087V356.749H161.522Z" fill="black"/>
<path d="M49.3964 294.045H53.472V298.121H49.3964V294.045ZM45.3207 302.196V298.121H49.3964V302.196H45.3207ZM41.2451 306.272V302.196H45.3207V306.272H41.2451ZM37.1695 310.347H41.2451V306.272H37.1695V310.347ZM33.0938 314.423H37.1695V310.347H33.0938V314.423ZM29.0182 314.423V318.499H33.0938V314.423H29.0182ZM24.9426 310.347H29.0182V314.423H24.9426V310.347ZM24.9426 310.347H20.8669V306.272H24.9426V310.347Z" fill="black"/>
</svg>
