<svg width="319" height="319" viewBox="0 0 319 319" fill="none" xmlns="http://www.w3.org/2000/svg">
<rect width="318.681" height="318.681" transform="translate(0 0.0302734)" fill="#DCDCDC"/>
<path d="M24.9588 157.444V165.76H26.3112L26.1907 168.933H25.0927V166.817H17.8086V168.933H16.7106L16.6035 165.76H17.4471C18.6343 164.278 19.2279 162.149 19.2279 159.373V157.444H24.9588ZM23.7002 165.76V158.502H20.4866V159.667C20.4866 160.997 20.375 162.126 20.1519 163.055C19.9198 164.019 19.5181 164.92 18.9468 165.76H23.7002ZM28.3503 162.024H27.2255C27.2255 161.488 27.404 160.997 27.7611 160.551C28.1896 160.015 28.9751 159.747 30.1177 159.747C30.7872 159.747 31.3764 159.881 31.8852 160.149C32.1798 160.292 32.4119 160.529 32.5815 160.859C32.7511 161.189 32.8314 161.582 32.8225 162.037L32.7556 165.184C32.7556 165.443 32.7823 165.644 32.8359 165.786C32.9162 165.929 33.126 165.996 33.4652 165.987V166.817C33.3313 166.853 33.1528 166.871 32.9296 166.871C32.5369 166.871 32.2512 166.804 32.0727 166.67C31.9031 166.536 31.7826 166.273 31.7111 165.88C31.2737 166.683 30.4971 167.085 29.3813 167.085C28.6136 167.085 28.02 166.916 27.6004 166.576C27.1898 166.228 26.9845 165.715 26.9845 165.037C26.9845 164.394 27.2166 163.907 27.6808 163.577C28.145 163.229 29.0242 162.997 30.3186 162.881C30.9167 162.836 31.2737 162.778 31.3898 162.707C31.5594 162.591 31.6442 162.336 31.6442 161.943C31.6442 161.033 31.1354 160.578 30.1177 160.578C28.9126 160.578 28.3235 161.06 28.3503 162.024ZM31.6174 163.912L31.6442 163.336C31.5103 163.434 31.3139 163.515 31.055 163.577C30.6623 163.604 30.3588 163.635 30.1445 163.671C29.4036 163.796 28.9528 163.898 28.7921 163.979C28.3994 164.166 28.203 164.505 28.203 164.996C28.203 165.389 28.319 165.697 28.5511 165.92C28.7921 166.143 29.1135 166.255 29.5152 166.255C29.7741 166.255 30.0106 166.219 30.2249 166.148C30.448 166.076 30.6623 165.96 30.8676 165.8C31.0818 165.63 31.2514 165.385 31.3764 165.063C31.5103 164.742 31.5906 164.358 31.6174 163.912ZM39.3934 163.644H36.0325V166.817H34.8542V160.015H36.0325V162.814H39.3934V160.015H40.5717V166.817H39.3934V163.644ZM47.0429 163.644H43.6821V166.817H42.5038V160.015H43.6821V162.814H47.0429V160.015H48.2213V166.817H47.0429V163.644ZM50.1533 166.817V160.015H51.3316V162.707H53.0455C53.59 162.707 54.0453 162.76 54.4113 162.867C55.2861 163.091 55.7414 163.729 55.7771 164.782C55.7771 165.407 55.5851 165.902 55.2013 166.268C54.8264 166.634 54.2417 166.817 53.4472 166.817H50.1533ZM52.7643 163.537H51.3316V165.987H52.9786C54.0319 165.987 54.5586 165.559 54.5586 164.702C54.5586 164.282 54.4202 163.979 54.1435 163.791C54.0542 163.72 53.9069 163.662 53.7016 163.617C53.4874 163.564 53.175 163.537 52.7643 163.537ZM56.6072 166.817V160.015H57.7856V166.817H56.6072ZM60.8902 160.015V165.438L64.4386 160.015H65.7508V166.817H64.5725V161.381L61.0375 166.817H59.7119V160.015H60.8902ZM63.9967 157.444H65.001C64.8135 158.426 64.2243 159.002 63.2335 159.172C63.0639 159.199 62.8853 159.212 62.6979 159.212C61.5463 159.212 60.8099 158.743 60.4885 157.806C60.4618 157.743 60.4305 157.623 60.3948 157.444H61.3991C61.3723 157.677 61.4526 157.895 61.6401 158.101C61.774 158.243 61.9302 158.35 62.1087 158.422C62.2694 158.475 62.4658 158.502 62.6979 158.502C63.0817 158.502 63.3986 158.408 63.6486 158.221C63.8985 158.025 64.0146 157.766 63.9967 157.444ZM70.8005 166.817V160.015H74.0408C75.478 160.015 76.1966 160.555 76.1966 161.635C76.1966 162.412 75.786 162.943 74.9647 163.229V163.269C75.5182 163.403 75.902 163.617 76.1163 163.912C76.3395 164.206 76.451 164.586 76.451 165.05C76.451 165.791 76.1788 166.282 75.6342 166.523C75.1879 166.719 74.6434 166.817 74.0007 166.817H70.8005ZM73.6659 160.845H71.9788V162.854H73.6124C74.0855 162.854 74.4336 162.76 74.6568 162.573C74.8889 162.376 75.0049 162.122 75.0049 161.81C75.0049 161.167 74.5586 160.845 73.6659 160.845ZM73.6659 163.684H71.9788V165.987H73.7061C74.7237 165.987 75.2325 165.639 75.2325 164.943C75.2325 164.104 74.7103 163.684 73.6659 163.684ZM79.1968 160.015V165.438L82.7451 160.015H84.0574V166.817H82.879V161.381L79.3441 166.817H78.0185V160.015H79.1968ZM85.1249 168.585L85.0178 165.987H85.8747C86.6156 164.898 86.9861 163.287 86.9861 161.153V160.015H91.86V165.987H93.0384L92.9446 168.585H91.9538V166.817H86.1158V168.585H85.1249ZM90.6817 165.987V160.845H88.0841V161.796C88.0841 162.519 88.0037 163.269 87.8431 164.046C87.7002 164.813 87.4592 165.461 87.12 165.987H90.6817ZM101.795 160.845H98.3533V166.817H97.175V160.015H102.973V166.817H101.795V160.845ZM104.113 166.817V165.947C104.782 166.143 105.256 165.827 105.532 164.996C105.604 164.791 105.653 164.537 105.68 164.233L105.733 163.416C105.742 163.274 105.747 162.992 105.747 162.573V160.015H110.46V166.817H109.282V160.845H106.845V162.573C106.845 163.135 106.831 163.608 106.804 163.992C106.778 164.367 106.711 164.778 106.604 165.224C106.452 165.858 106.18 166.309 105.787 166.576C105.394 166.844 104.836 166.925 104.113 166.817ZM113.28 162.024H112.155C112.155 161.488 112.333 160.997 112.691 160.551C113.119 160.015 113.905 159.747 115.047 159.747C115.717 159.747 116.306 159.881 116.815 160.149C117.109 160.292 117.341 160.529 117.511 160.859C117.68 161.189 117.761 161.582 117.752 162.037L117.685 165.184C117.685 165.443 117.712 165.644 117.765 165.786C117.846 165.929 118.055 165.996 118.395 165.987V166.817C118.261 166.853 118.082 166.871 117.859 166.871C117.466 166.871 117.181 166.804 117.002 166.67C116.832 166.536 116.712 166.273 116.641 165.88C116.203 166.683 115.427 167.085 114.311 167.085C113.543 167.085 112.949 166.916 112.53 166.576C112.119 166.228 111.914 165.715 111.914 165.037C111.914 164.394 112.146 163.907 112.61 163.577C113.074 163.229 113.954 162.997 115.248 162.881C115.846 162.836 116.203 162.778 116.319 162.707C116.489 162.591 116.574 162.336 116.574 161.943C116.574 161.033 116.065 160.578 115.047 160.578C113.842 160.578 113.253 161.06 113.28 162.024ZM116.547 163.912L116.574 163.336C116.44 163.434 116.243 163.515 115.984 163.577C115.592 163.604 115.288 163.635 115.074 163.671C114.333 163.796 113.882 163.898 113.722 163.979C113.329 164.166 113.132 164.505 113.132 164.996C113.132 165.389 113.248 165.697 113.481 165.92C113.722 166.143 114.043 166.255 114.445 166.255C114.703 166.255 114.94 166.219 115.154 166.148C115.377 166.076 115.592 165.96 115.797 165.8C116.011 165.63 116.181 165.385 116.306 165.063C116.44 164.742 116.52 164.358 116.547 163.912ZM124.55 164.394H125.675C125.639 164.912 125.443 165.456 125.086 166.027C124.89 166.349 124.582 166.608 124.162 166.804C123.752 166.991 123.269 167.085 122.716 167.085C122.529 167.085 122.395 167.081 122.314 167.072C121.922 167.054 121.52 166.951 121.109 166.764C119.967 166.193 119.395 165.059 119.395 163.363C119.395 162.47 119.601 161.676 120.011 160.979C120.52 160.158 121.395 159.747 122.636 159.747C123.51 159.747 124.207 159.971 124.725 160.417C125.242 160.854 125.541 161.43 125.622 162.144H124.497C124.318 161.1 123.707 160.578 122.662 160.578C121.984 160.578 121.475 160.828 121.136 161.328C120.806 161.818 120.641 162.497 120.641 163.363C120.641 164.202 120.815 164.894 121.163 165.438C121.511 165.983 122.038 166.255 122.743 166.255C123.35 166.255 123.792 166.063 124.068 165.679C124.363 165.295 124.524 164.867 124.55 164.394ZM128.451 166.817V160.845H126.094V160.015H131.986V160.845H129.629V166.817H128.451ZM134.064 160.015V165.438L137.613 160.015H138.925V166.817H137.746V161.381L134.212 166.817H132.886V160.015H134.064ZM142.028 160.015V162.988L144.933 160.015H146.312L143.126 163.175L146.486 166.817H145.08L142.028 163.416V166.817H140.849V160.015H142.028ZM148.298 162.024H147.173C147.173 161.488 147.351 160.997 147.708 160.551C148.137 160.015 148.922 159.747 150.065 159.747C150.734 159.747 151.324 159.881 151.832 160.149C152.127 160.292 152.359 160.529 152.529 160.859C152.698 161.189 152.779 161.582 152.77 162.037L152.703 165.184C152.703 165.443 152.73 165.644 152.783 165.786C152.863 165.929 153.073 165.996 153.412 165.987V166.817C153.279 166.853 153.1 166.871 152.877 166.871C152.484 166.871 152.198 166.804 152.02 166.67C151.85 166.536 151.73 166.273 151.658 165.88C151.221 166.683 150.444 167.085 149.329 167.085C148.561 167.085 147.967 166.916 147.548 166.576C147.137 166.228 146.932 165.715 146.932 165.037C146.932 164.394 147.164 163.907 147.628 163.577C148.092 163.229 148.971 162.997 150.266 162.881C150.864 162.836 151.221 162.778 151.337 162.707C151.507 162.591 151.591 162.336 151.591 161.943C151.591 161.033 151.083 160.578 150.065 160.578C148.86 160.578 148.271 161.06 148.298 162.024ZM151.565 163.912L151.591 163.336C151.458 163.434 151.261 163.515 151.002 163.577C150.61 163.604 150.306 163.635 150.092 163.671C149.351 163.796 148.9 163.898 148.739 163.979C148.347 164.166 148.15 164.505 148.15 164.996C148.15 165.389 148.266 165.697 148.498 165.92C148.739 166.143 149.061 166.255 149.462 166.255C149.721 166.255 149.958 166.219 150.172 166.148C150.395 166.076 150.61 165.96 150.815 165.8C151.029 165.63 151.199 165.385 151.324 165.063C151.458 164.742 151.538 164.358 151.565 163.912ZM159.105 160.015V165.438L162.653 160.015H163.966V166.817H162.787V161.381L159.252 166.817H157.927V160.015H159.105ZM170.657 164.394H171.782C171.746 164.912 171.55 165.456 171.192 166.027C170.996 166.349 170.688 166.608 170.269 166.804C169.858 166.991 169.376 167.085 168.822 167.085C168.635 167.085 168.501 167.081 168.421 167.072C168.028 167.054 167.626 166.951 167.216 166.764C166.073 166.193 165.502 165.059 165.502 163.363C165.502 162.47 165.707 161.676 166.118 160.979C166.626 160.158 167.501 159.747 168.742 159.747C169.617 159.747 170.313 159.971 170.831 160.417C171.349 160.854 171.648 161.43 171.728 162.144H170.603C170.425 161.1 169.813 160.578 168.769 160.578C168.09 160.578 167.582 160.828 167.242 161.328C166.912 161.818 166.747 162.497 166.747 163.363C166.747 164.202 166.921 164.894 167.269 165.438C167.617 165.983 168.144 166.255 168.849 166.255C169.456 166.255 169.898 166.063 170.175 165.679C170.469 165.295 170.63 164.867 170.657 164.394ZM177.845 160.845H174.404V166.817H173.226V160.015H179.024V166.817H177.845V160.845ZM180.739 164.755C180.507 163.8 180.516 162.876 180.766 161.984C181.016 161.091 181.543 160.453 182.346 160.069C182.793 159.855 183.315 159.747 183.913 159.747C184.511 159.747 185.033 159.855 185.48 160.069C186.283 160.444 186.814 161.113 187.073 162.077C187.189 162.524 187.247 162.974 187.247 163.43C187.256 163.876 187.202 164.318 187.086 164.755C186.979 165.184 186.787 165.577 186.511 165.934C186.243 166.291 185.899 166.572 185.48 166.777C185.024 166.983 184.502 167.085 183.913 167.085C183.324 167.085 182.802 166.983 182.346 166.777C181.57 166.402 181.034 165.728 180.739 164.755ZM181.985 162.064C181.869 162.421 181.811 162.867 181.811 163.403C181.811 163.93 181.869 164.38 181.985 164.755C182.101 165.13 182.235 165.411 182.386 165.599C182.708 165.956 183.074 166.166 183.484 166.228C183.77 166.273 184.056 166.273 184.341 166.228C184.466 166.219 184.64 166.157 184.864 166.041C185.105 165.916 185.301 165.76 185.453 165.572C185.604 165.385 185.734 165.112 185.841 164.755C185.957 164.38 186.015 163.93 186.015 163.403C186.015 162.867 185.957 162.421 185.841 162.064C185.716 161.671 185.578 161.39 185.426 161.22C185.283 161.051 185.105 160.908 184.89 160.792C184.676 160.676 184.493 160.604 184.341 160.578C184.056 160.533 183.77 160.533 183.484 160.578C183.359 160.587 183.181 160.654 182.949 160.779C182.494 161.002 182.172 161.43 181.985 162.064ZM188.009 166.817V165.947C188.679 166.143 189.152 165.827 189.429 164.996C189.5 164.791 189.549 164.537 189.576 164.233L189.63 163.416C189.638 163.274 189.643 162.992 189.643 162.573V160.015H194.356V166.817H193.178V160.845H190.741V162.573C190.741 163.135 190.728 163.608 190.701 163.992C190.674 164.367 190.607 164.778 190.5 165.224C190.348 165.858 190.076 166.309 189.683 166.576C189.29 166.844 188.732 166.925 188.009 166.817ZM196.279 166.817V160.015H197.457V162.72H199.158C199.827 162.72 200.403 162.818 200.885 163.015C201.555 163.256 201.889 163.818 201.889 164.702C201.889 165.434 201.675 165.978 201.247 166.335C201.068 166.478 200.858 166.585 200.617 166.657C200.296 166.764 199.943 166.817 199.559 166.817H196.279ZM198.89 163.55H197.457V165.987H199.091C199.644 165.987 200.05 165.876 200.309 165.652C200.568 165.394 200.689 165.077 200.671 164.702C200.671 164.291 200.537 163.988 200.269 163.791C200.18 163.729 200.037 163.675 199.841 163.631C199.626 163.577 199.345 163.55 198.997 163.55H198.89ZM202.543 164.729H203.668C203.668 165.175 203.828 165.541 204.15 165.827C204.471 166.112 204.913 166.255 205.475 166.255C206.029 166.255 206.462 166.143 206.774 165.92C207.087 165.688 207.243 165.353 207.243 164.916C207.243 164.104 206.729 163.698 205.703 163.698H204.699V162.867H205.569C206.515 162.867 206.988 162.515 206.988 161.81C206.988 161.693 206.971 161.577 206.935 161.461C206.908 161.345 206.846 161.216 206.747 161.073C206.658 160.921 206.502 160.801 206.279 160.712C206.056 160.622 205.779 160.578 205.449 160.578C204.859 160.578 204.444 160.716 204.203 160.993C203.962 161.269 203.842 161.569 203.842 161.89H202.717C202.744 161.426 202.864 161.037 203.079 160.725C203.293 160.413 203.569 160.189 203.909 160.055C204.462 159.85 204.998 159.747 205.515 159.747C205.971 159.747 206.372 159.801 206.721 159.908C207.069 160.006 207.332 160.127 207.511 160.27C207.698 160.413 207.845 160.582 207.952 160.779C208.068 160.975 208.14 161.149 208.167 161.301C208.193 161.444 208.207 161.586 208.207 161.729C208.207 162.524 207.814 163.019 207.029 163.215V163.256C207.448 163.318 207.792 163.501 208.06 163.805C208.327 164.108 208.461 164.505 208.461 164.996C208.461 165.496 208.283 165.951 207.926 166.362C207.488 166.844 206.703 167.085 205.569 167.085C204.614 167.085 203.886 166.884 203.386 166.483C202.824 165.992 202.543 165.407 202.543 164.729ZM210.08 169.281V168.411C210.419 168.455 210.616 168.478 210.669 168.478C211.009 168.478 211.25 168.353 211.392 168.103C211.482 167.969 211.54 167.857 211.566 167.768C211.593 167.723 211.651 167.576 211.741 167.326L211.901 166.817L208.955 160.015H210.361L212.544 165.519L214.352 160.015H215.53L212.825 167.621C212.611 168.228 212.428 168.625 212.276 168.812C211.973 169.17 211.562 169.348 211.044 169.348C210.643 169.348 210.321 169.326 210.08 169.281ZM221.395 164.849H222.52C222.413 165.447 222.123 165.969 221.65 166.416C221.177 166.862 220.476 167.085 219.548 167.085C218.289 167.085 217.365 166.67 216.776 165.84C216.481 165.403 216.289 164.934 216.2 164.434C216.138 164.086 216.106 163.756 216.106 163.443C216.106 162.845 216.196 162.283 216.374 161.756C216.49 161.381 216.66 161.055 216.883 160.779C217.124 160.484 217.468 160.238 217.914 160.042C218.36 159.846 218.865 159.747 219.427 159.747C220.427 159.747 221.181 160.024 221.69 160.578C221.904 160.81 222.078 161.104 222.212 161.461C222.409 161.979 222.529 162.608 222.574 163.349C222.574 163.376 222.574 163.434 222.574 163.523C222.583 163.613 222.587 163.666 222.587 163.684H217.352C217.352 164.363 217.53 164.961 217.887 165.478C218.244 165.996 218.784 166.255 219.507 166.255C220.025 166.255 220.449 166.126 220.779 165.867C221.11 165.608 221.315 165.269 221.395 164.849ZM217.352 162.854H221.342C221.333 162.327 221.208 161.841 220.967 161.394C220.69 160.85 220.186 160.578 219.454 160.578C218.624 160.578 218.052 160.854 217.74 161.408C217.481 161.854 217.352 162.336 217.352 162.854ZM225.698 166.817V160.845H223.341V160.015H229.233V160.845H226.876V166.817H225.698ZM234.795 164.394H235.92C235.884 164.912 235.688 165.456 235.331 166.027C235.134 166.349 234.826 166.608 234.407 166.804C233.996 166.991 233.514 167.085 232.961 167.085C232.773 167.085 232.639 167.081 232.559 167.072C232.166 167.054 231.765 166.951 231.354 166.764C230.211 166.193 229.64 165.059 229.64 163.363C229.64 162.47 229.845 161.676 230.256 160.979C230.765 160.158 231.64 159.747 232.88 159.747C233.755 159.747 234.452 159.971 234.969 160.417C235.487 160.854 235.786 161.43 235.866 162.144H234.742C234.563 161.1 233.952 160.578 232.907 160.578C232.229 160.578 231.72 160.828 231.381 161.328C231.05 161.818 230.885 162.497 230.885 163.363C230.885 164.202 231.059 164.894 231.408 165.438C231.756 165.983 232.282 166.255 232.988 166.255C233.595 166.255 234.036 166.063 234.313 165.679C234.608 165.295 234.768 164.867 234.795 164.394ZM241.528 164.139H239.975L238.194 166.817H236.895L238.77 164.126C238.252 164.072 237.833 163.872 237.511 163.523C237.19 163.175 237.029 162.72 237.029 162.158C237.029 161.631 237.168 161.171 237.444 160.779C237.775 160.27 238.4 160.015 239.319 160.015H242.707V166.817H241.528V164.139ZM241.528 163.309V160.845H239.828C238.775 160.845 238.248 161.269 238.248 162.118C238.248 162.466 238.377 162.751 238.636 162.974C238.895 163.198 239.306 163.309 239.868 163.309H241.528ZM16.7106 183.585L16.6035 180.987H17.4605C18.2014 179.898 18.5718 178.287 18.5718 176.153V175.015H23.4458V180.987H24.6241L24.5304 183.585H23.5395V181.817H17.7015V183.585H16.7106ZM22.2675 180.987V175.845H19.6698V176.796C19.6698 177.519 19.5895 178.269 19.4288 179.046C19.286 179.813 19.0449 180.461 18.7057 180.987H22.2675ZM25.1855 181.817V180.947C25.855 181.143 26.3281 180.827 26.6049 179.996C26.6763 179.791 26.7254 179.537 26.7522 179.233L26.8057 178.416C26.8146 178.274 26.8191 177.992 26.8191 177.573V175.015H31.5324V181.817H30.3541V175.845H27.9171V177.573C27.9171 178.135 27.9037 178.608 27.8769 178.992C27.8501 179.367 27.7832 179.778 27.6761 180.224C27.5243 180.858 27.252 181.309 26.8593 181.576C26.4665 181.844 25.9086 181.925 25.1855 181.817ZM37.6194 179.139H36.0661L34.2853 181.817H32.9864L34.861 179.126C34.3433 179.072 33.9237 178.872 33.6024 178.523C33.281 178.175 33.1203 177.72 33.1203 177.158C33.1203 176.631 33.2587 176.171 33.5354 175.779C33.8657 175.27 34.4906 175.015 35.41 175.015H38.7977V181.817H37.6194V179.139ZM37.6194 178.309V175.845H35.9188C34.8655 175.845 34.3388 176.269 34.3388 177.118C34.3388 177.466 34.4683 177.751 34.7271 177.974C34.986 178.198 35.3966 178.309 35.959 178.309H37.6194ZM45.0289 175.015V180.438L48.5772 175.015H49.8895V181.817H48.7111V176.381L45.1762 181.817H43.8506V175.015H45.0289ZM51.2784 179.729H52.4031C52.4031 180.175 52.5638 180.541 52.8851 180.827C53.2065 181.112 53.6484 181.255 54.2108 181.255C54.7642 181.255 55.1971 181.143 55.5096 180.92C55.822 180.688 55.9782 180.353 55.9782 179.916C55.9782 179.104 55.4649 178.698 54.4384 178.698H53.4341V177.867H54.3045C55.2507 177.867 55.7238 177.515 55.7238 176.81C55.7238 176.693 55.706 176.577 55.6703 176.461C55.6435 176.345 55.581 176.216 55.4828 176.073C55.3935 175.921 55.2373 175.801 55.0142 175.712C54.791 175.622 54.5143 175.578 54.184 175.578C53.5948 175.578 53.1797 175.716 52.9387 175.993C52.6977 176.269 52.5772 176.569 52.5772 176.89H51.4524C51.4792 176.426 51.5997 176.037 51.814 175.725C52.0282 175.413 52.3049 175.189 52.6441 175.055C53.1976 174.85 53.7332 174.747 54.2509 174.747C54.7062 174.747 55.1079 174.801 55.456 174.908C55.8042 175.006 56.0675 175.127 56.246 175.27C56.4335 175.413 56.5808 175.582 56.6879 175.779C56.8039 175.975 56.8754 176.149 56.9021 176.301C56.9289 176.444 56.9423 176.586 56.9423 176.729C56.9423 177.524 56.5495 178.019 55.764 178.215V178.256C56.1835 178.318 56.5272 178.501 56.795 178.805C57.0628 179.108 57.1967 179.505 57.1967 179.996C57.1967 180.496 57.0182 180.951 56.6611 181.362C56.2237 181.844 55.4382 182.085 54.3045 182.085C53.3493 182.085 52.6218 181.884 52.1219 181.483C51.5595 180.992 51.2784 180.407 51.2784 179.729ZM63.3909 175.845H59.9095V181.817H58.7312V175.015H63.3909V175.845ZM63.9697 179.755C63.7376 178.8 63.7466 177.876 63.9965 176.984C64.2464 176.091 64.7731 175.453 65.5765 175.069C66.0228 174.855 66.5451 174.747 67.1431 174.747C67.7412 174.747 68.2634 174.855 68.7098 175.069C69.5132 175.444 70.0443 176.113 70.3032 177.077C70.4192 177.524 70.4772 177.974 70.4772 178.43C70.4862 178.876 70.4326 179.318 70.3166 179.755C70.2094 180.184 70.0175 180.577 69.7408 180.934C69.473 181.291 69.1293 181.572 68.7098 181.777C68.2545 181.983 67.7323 182.085 67.1431 182.085C66.554 182.085 66.0318 181.983 65.5765 181.777C64.7999 181.402 64.2643 180.728 63.9697 179.755ZM65.215 177.064C65.0989 177.421 65.0409 177.867 65.0409 178.403C65.0409 178.93 65.0989 179.38 65.215 179.755C65.331 180.13 65.4649 180.411 65.6167 180.599C65.938 180.956 66.304 181.166 66.7147 181.228C67.0003 181.273 67.286 181.273 67.5716 181.228C67.6966 181.219 67.8707 181.157 68.0938 181.041C68.3348 180.916 68.5312 180.76 68.683 180.572C68.8347 180.385 68.9642 180.112 69.0713 179.755C69.1873 179.38 69.2454 178.93 69.2454 178.403C69.2454 177.867 69.1873 177.421 69.0713 177.064C68.9463 176.671 68.808 176.39 68.6562 176.22C68.5134 176.051 68.3348 175.908 68.1206 175.792C67.9064 175.676 67.7234 175.604 67.5716 175.578C67.286 175.533 67.0003 175.533 66.7147 175.578C66.5897 175.587 66.4112 175.654 66.1791 175.779C65.7238 176.002 65.4024 176.43 65.215 177.064ZM73.1778 181.817V175.845H70.8212V175.015H76.7128V175.845H74.3561V181.817H73.1778ZM77.3858 179.755C77.1537 178.8 77.1627 177.876 77.4126 176.984C77.6625 176.091 78.1892 175.453 78.9926 175.069C79.4389 174.855 79.9612 174.747 80.5592 174.747C81.1573 174.747 81.6795 174.855 82.1259 175.069C82.9293 175.444 83.4604 176.113 83.7193 177.077C83.8353 177.524 83.8933 177.974 83.8933 178.43C83.9023 178.876 83.8487 179.318 83.7327 179.755C83.6255 180.184 83.4336 180.577 83.1569 180.934C82.8891 181.291 82.5454 181.572 82.1259 181.777C81.6706 181.983 81.1484 182.085 80.5592 182.085C79.9701 182.085 79.4479 181.983 78.9926 181.777C78.216 181.402 77.6804 180.728 77.3858 179.755ZM78.6311 177.064C78.515 177.421 78.457 177.867 78.457 178.403C78.457 178.93 78.515 179.38 78.6311 179.755C78.7471 180.13 78.881 180.411 79.0328 180.599C79.3541 180.956 79.7201 181.166 80.1308 181.228C80.4164 181.273 80.7021 181.273 80.9877 181.228C81.1127 181.219 81.2868 181.157 81.5099 181.041C81.7509 180.916 81.9473 180.76 82.0991 180.572C82.2508 180.385 82.3803 180.112 82.4874 179.755C82.6034 179.38 82.6615 178.93 82.6615 178.403C82.6615 177.867 82.6034 177.421 82.4874 177.064C82.3624 176.671 82.2241 176.39 82.0723 176.22C81.9295 176.051 81.7509 175.908 81.5367 175.792C81.3225 175.676 81.1395 175.604 80.9877 175.578C80.7021 175.533 80.4164 175.533 80.1308 175.578C80.0058 175.587 79.8273 175.654 79.5952 175.779C79.1399 176.002 78.8185 176.43 78.6311 177.064ZM85.4457 181.817V175.015H88.6861C90.1233 175.015 90.8419 175.555 90.8419 176.635C90.8419 177.412 90.4313 177.943 89.61 178.229V178.269C90.1635 178.403 90.5473 178.617 90.7615 178.912C90.9847 179.206 91.0963 179.586 91.0963 180.05C91.0963 180.791 90.824 181.282 90.2795 181.523C89.8332 181.719 89.2887 181.817 88.6459 181.817H85.4457ZM88.3112 175.845H86.6241V177.854H88.2576C88.7307 177.854 89.0789 177.76 89.302 177.573C89.5341 177.376 89.6502 177.122 89.6502 176.81C89.6502 176.167 89.2038 175.845 88.3112 175.845ZM88.3112 178.684H86.6241V180.987H88.3514C89.369 180.987 89.8778 180.639 89.8778 179.943C89.8778 179.104 89.3556 178.684 88.3112 178.684ZM91.8737 181.817V180.947C92.5432 181.143 93.0164 180.827 93.2931 179.996C93.3645 179.791 93.4136 179.537 93.4404 179.233L93.4939 178.416C93.5029 178.274 93.5073 177.992 93.5073 177.573V175.015H98.2206V181.817H97.0423V175.845H94.6053V177.573C94.6053 178.135 94.5919 178.608 94.5651 178.992C94.5383 179.367 94.4714 179.778 94.3643 180.224C94.2125 180.858 93.9403 181.309 93.5475 181.576C93.1547 181.844 92.5968 181.925 91.8737 181.817ZM105.044 179.849H106.169C106.062 180.447 105.772 180.969 105.298 181.416C104.825 181.862 104.125 182.085 103.196 182.085C101.938 182.085 101.014 181.67 100.424 180.84C100.13 180.403 99.938 179.934 99.8487 179.434C99.7862 179.086 99.755 178.756 99.755 178.443C99.755 177.845 99.8442 177.283 100.023 176.756C100.139 176.381 100.308 176.055 100.532 175.779C100.773 175.484 101.116 175.238 101.563 175.042C102.009 174.846 102.513 174.747 103.076 174.747C104.075 174.747 104.83 175.024 105.339 175.578C105.553 175.81 105.727 176.104 105.861 176.461C106.057 176.979 106.178 177.608 106.222 178.349C106.222 178.376 106.222 178.434 106.222 178.523C106.231 178.613 106.236 178.666 106.236 178.684H101C101 179.363 101.179 179.961 101.536 180.478C101.893 180.996 102.433 181.255 103.156 181.255C103.674 181.255 104.098 181.126 104.428 180.867C104.758 180.608 104.964 180.269 105.044 179.849ZM101 177.854H104.99C104.982 177.327 104.857 176.841 104.616 176.394C104.339 175.85 103.834 175.578 103.102 175.578C102.272 175.578 101.701 175.854 101.389 176.408C101.13 176.854 101 177.336 101 177.854ZM112.319 178.644H108.958V181.817H107.78V175.015H108.958V177.814H112.319V175.015H113.497V181.817H112.319V178.644ZM116.608 175.015V180.438L120.156 175.015H121.468V181.817H120.29V176.381L116.755 181.817H115.429V175.015H116.608ZM127.557 179.139H126.004L124.223 181.817H122.924L124.799 179.126C124.281 179.072 123.861 178.872 123.54 178.523C123.219 178.175 123.058 177.72 123.058 177.158C123.058 176.631 123.196 176.171 123.473 175.779C123.803 175.27 124.428 175.015 125.348 175.015H128.735V181.817H127.557V179.139ZM127.557 178.309V175.845H125.856C124.803 175.845 124.276 176.269 124.276 177.118C124.276 177.466 124.406 177.751 124.665 177.974C124.924 178.198 125.334 178.309 125.897 178.309H127.557ZM133.788 181.817V175.015H137.029C138.466 175.015 139.184 175.555 139.184 176.635C139.184 177.412 138.774 177.943 137.952 178.229V178.269C138.506 178.403 138.89 178.617 139.104 178.912C139.327 179.206 139.439 179.586 139.439 180.05C139.439 180.791 139.166 181.282 138.622 181.523C138.176 181.719 137.631 181.817 136.988 181.817H133.788ZM136.654 175.845H134.966V177.854H136.6C137.073 177.854 137.421 177.76 137.644 177.573C137.877 177.376 137.993 177.122 137.993 176.81C137.993 176.167 137.546 175.845 136.654 175.845ZM136.654 178.684H134.966V180.987H136.694C137.711 180.987 138.22 180.639 138.22 179.943C138.22 179.104 137.698 178.684 136.654 178.684ZM145.773 179.394H146.898C146.862 179.912 146.666 180.456 146.309 181.027C146.112 181.349 145.804 181.608 145.385 181.804C144.974 181.991 144.492 182.085 143.939 182.085C143.751 182.085 143.617 182.081 143.537 182.072C143.144 182.054 142.742 181.951 142.332 181.764C141.189 181.193 140.618 180.059 140.618 178.363C140.618 177.47 140.823 176.676 141.234 175.979C141.743 175.158 142.617 174.747 143.858 174.747C144.733 174.747 145.429 174.971 145.947 175.417C146.465 175.854 146.764 176.43 146.844 177.144H145.719C145.541 176.1 144.929 175.578 143.885 175.578C143.207 175.578 142.698 175.828 142.359 176.328C142.028 176.818 141.863 177.497 141.863 178.363C141.863 179.202 142.037 179.894 142.385 180.438C142.733 180.983 143.26 181.255 143.965 181.255C144.572 181.255 145.014 181.063 145.291 180.679C145.586 180.295 145.746 179.867 145.773 179.394ZM153.243 179.849H154.367C154.26 180.447 153.97 180.969 153.497 181.416C153.024 181.862 152.323 182.085 151.395 182.085C150.136 182.085 149.212 181.67 148.623 180.84C148.328 180.403 148.137 179.934 148.047 179.434C147.985 179.086 147.954 178.756 147.954 178.443C147.954 177.845 148.043 177.283 148.221 176.756C148.337 176.381 148.507 176.055 148.73 175.779C148.971 175.484 149.315 175.238 149.761 175.042C150.208 174.846 150.712 174.747 151.274 174.747C152.274 174.747 153.028 175.024 153.537 175.578C153.751 175.81 153.925 176.104 154.059 176.461C154.256 176.979 154.376 177.608 154.421 178.349C154.421 178.376 154.421 178.434 154.421 178.523C154.43 178.613 154.434 178.666 154.434 178.684H149.199C149.199 179.363 149.377 179.961 149.734 180.478C150.091 180.996 150.632 181.255 151.355 181.255C151.872 181.255 152.296 181.126 152.627 180.867C152.957 180.608 153.162 180.269 153.243 179.849ZM149.199 177.854H153.189C153.18 177.327 153.055 176.841 152.814 176.394C152.537 175.85 152.033 175.578 151.301 175.578C150.471 175.578 149.9 175.854 149.587 176.408C149.328 176.854 149.199 177.336 149.199 177.854ZM160.638 175.845H157.157V181.817H155.978V175.015H160.638V175.845ZM161.217 179.755C160.985 178.8 160.994 177.876 161.244 176.984C161.494 176.091 162.02 175.453 162.824 175.069C163.27 174.855 163.792 174.747 164.39 174.747C164.988 174.747 165.511 174.855 165.957 175.069C166.76 175.444 167.291 176.113 167.55 177.077C167.666 177.524 167.724 177.974 167.724 178.43C167.733 178.876 167.68 179.318 167.564 179.755C167.457 180.184 167.265 180.577 166.988 180.934C166.72 181.291 166.376 181.572 165.957 181.777C165.502 181.983 164.979 182.085 164.39 182.085C163.801 182.085 163.279 181.983 162.824 181.777C162.047 181.402 161.511 180.728 161.217 179.755ZM162.462 177.064C162.346 177.421 162.288 177.867 162.288 178.403C162.288 178.93 162.346 179.38 162.462 179.755C162.578 180.13 162.712 180.411 162.864 180.599C163.185 180.956 163.551 181.166 163.962 181.228C164.247 181.273 164.533 181.273 164.819 181.228C164.944 181.219 165.118 181.157 165.341 181.041C165.582 180.916 165.778 180.76 165.93 180.572C166.082 180.385 166.211 180.112 166.318 179.755C166.434 179.38 166.492 178.93 166.492 178.403C166.492 177.867 166.434 177.421 166.318 177.064C166.193 176.671 166.055 176.39 165.903 176.22C165.76 176.051 165.582 175.908 165.368 175.792C165.153 175.676 164.97 175.604 164.819 175.578C164.533 175.533 164.247 175.533 163.962 175.578C163.837 175.587 163.658 175.654 163.426 175.779C162.971 176.002 162.65 176.43 162.462 177.064ZM177.021 175.845H173.58V181.817H172.402V175.015H178.2V181.817H177.021V175.845ZM179.34 181.817V180.947C180.009 181.143 180.483 180.827 180.759 179.996C180.831 179.791 180.88 179.537 180.907 179.233L180.96 178.416C180.969 178.274 180.973 177.992 180.973 177.573V175.015H185.687V181.817H184.508V175.845H182.071V177.573C182.071 178.135 182.058 178.608 182.031 178.992C182.005 179.367 181.938 179.778 181.83 180.224C181.679 180.858 181.406 181.309 181.014 181.576C180.621 181.844 180.063 181.925 179.34 181.817ZM188.507 177.024H187.382C187.382 176.488 187.56 175.997 187.917 175.551C188.346 175.015 189.131 174.747 190.274 174.747C190.944 174.747 191.533 174.881 192.042 175.149C192.336 175.292 192.568 175.529 192.738 175.859C192.907 176.189 192.988 176.582 192.979 177.037L192.912 180.184C192.912 180.443 192.939 180.644 192.992 180.786C193.073 180.929 193.282 180.996 193.622 180.987V181.817C193.488 181.853 193.309 181.871 193.086 181.871C192.693 181.871 192.408 181.804 192.229 181.67C192.059 181.536 191.939 181.273 191.867 180.88C191.43 181.683 190.653 182.085 189.538 182.085C188.77 182.085 188.176 181.916 187.757 181.576C187.346 181.228 187.141 180.715 187.141 180.037C187.141 179.394 187.373 178.907 187.837 178.577C188.301 178.229 189.181 177.997 190.475 177.881C191.073 177.836 191.43 177.778 191.546 177.707C191.716 177.591 191.801 177.336 191.801 176.943C191.801 176.033 191.292 175.578 190.274 175.578C189.069 175.578 188.48 176.06 188.507 177.024ZM191.774 178.912L191.801 178.336C191.667 178.434 191.47 178.515 191.211 178.577C190.819 178.604 190.515 178.635 190.301 178.671C189.56 178.796 189.109 178.898 188.948 178.979C188.556 179.166 188.359 179.505 188.359 179.996C188.359 180.389 188.475 180.697 188.707 180.92C188.948 181.143 189.27 181.255 189.672 181.255C189.93 181.255 190.167 181.219 190.381 181.148C190.604 181.076 190.819 180.96 191.024 180.8C191.238 180.63 191.408 180.385 191.533 180.063C191.667 179.742 191.747 179.358 191.774 178.912ZM199.777 179.394H200.902C200.866 179.912 200.67 180.456 200.313 181.027C200.117 181.349 199.809 181.608 199.389 181.804C198.978 181.991 198.496 182.085 197.943 182.085C197.755 182.085 197.622 182.081 197.541 182.072C197.148 182.054 196.747 181.951 196.336 181.764C195.194 181.193 194.622 180.059 194.622 178.363C194.622 177.47 194.828 176.676 195.238 175.979C195.747 175.158 196.622 174.747 197.863 174.747C198.737 174.747 199.434 174.971 199.951 175.417C200.469 175.854 200.768 176.43 200.849 177.144H199.724C199.545 176.1 198.934 175.578 197.889 175.578C197.211 175.578 196.702 175.828 196.363 176.328C196.033 176.818 195.867 177.497 195.867 178.363C195.867 179.202 196.042 179.894 196.39 180.438C196.738 180.983 197.265 181.255 197.97 181.255C198.577 181.255 199.019 181.063 199.295 180.679C199.59 180.295 199.751 179.867 199.777 179.394ZM203.678 181.817V175.845H201.321V175.015H207.212V175.845H204.856V181.817H203.678ZM209.291 175.015V180.438L212.839 175.015H214.152V181.817H212.973V176.381L209.438 181.817H208.113V175.015H209.291ZM217.254 175.015V177.988L220.16 175.015H221.539L218.352 178.175L221.713 181.817H220.307L217.254 178.416V181.817H216.076V175.015H217.254ZM223.524 177.024H222.4C222.4 176.488 222.578 175.997 222.935 175.551C223.364 175.015 224.149 174.747 225.292 174.747C225.961 174.747 226.551 174.881 227.059 175.149C227.354 175.292 227.586 175.529 227.756 175.859C227.925 176.189 228.006 176.582 227.997 177.037L227.93 180.184C227.93 180.443 227.956 180.644 228.01 180.786C228.09 180.929 228.3 180.996 228.639 180.987V181.817C228.505 181.853 228.327 181.871 228.104 181.871C227.711 181.871 227.425 181.804 227.247 181.67C227.077 181.536 226.957 181.273 226.885 180.88C226.448 181.683 225.671 182.085 224.555 182.085C223.788 182.085 223.194 181.916 222.775 181.576C222.364 181.228 222.159 180.715 222.159 180.037C222.159 179.394 222.391 178.907 222.855 178.577C223.319 178.229 224.198 177.997 225.493 177.881C226.091 177.836 226.448 177.778 226.564 177.707C226.734 177.591 226.818 177.336 226.818 176.943C226.818 176.033 226.31 175.578 225.292 175.578C224.087 175.578 223.498 176.06 223.524 177.024ZM226.792 178.912L226.818 178.336C226.684 178.434 226.488 178.515 226.229 178.577C225.836 178.604 225.533 178.635 225.319 178.671C224.578 178.796 224.127 178.898 223.966 178.979C223.574 179.166 223.377 179.505 223.377 179.996C223.377 180.389 223.493 180.697 223.725 180.92C223.966 181.143 224.288 181.255 224.689 181.255C224.948 181.255 225.185 181.219 225.399 181.148C225.622 181.076 225.836 180.96 226.042 180.8C226.256 180.63 226.426 180.385 226.551 180.063C226.684 179.742 226.765 179.358 226.792 178.912ZM230.484 181.817V180.358H231.809V182.232C231.809 182.679 231.684 183.031 231.434 183.29C231.184 183.549 230.867 183.719 230.484 183.799V183.063C230.671 183.045 230.827 182.951 230.952 182.781C231.086 182.621 231.153 182.438 231.153 182.232V181.817H230.484ZM22.1068 193.644H18.7459V196.817H17.5676V190.015H18.7459V192.814H22.1068V190.015H23.2851V196.817H22.1068V193.644ZM30.1178 194.849H31.2426C31.1355 195.447 30.8454 195.969 30.3723 196.416C29.8991 196.862 29.1984 197.085 28.27 197.085C27.0114 197.085 26.0875 196.67 25.4983 195.84C25.2037 195.403 25.0118 194.934 24.9225 194.434C24.8601 194.086 24.8288 193.756 24.8288 193.443C24.8288 192.845 24.9181 192.283 25.0966 191.756C25.2127 191.381 25.3823 191.055 25.6054 190.779C25.8464 190.484 26.1901 190.238 26.6365 190.042C27.0828 189.846 27.5871 189.747 28.1495 189.747C29.1493 189.747 29.9036 190.024 30.4124 190.578C30.6267 190.81 30.8007 191.104 30.9346 191.461C31.131 191.979 31.2515 192.608 31.2962 193.349C31.2962 193.376 31.2962 193.434 31.2962 193.523C31.3051 193.613 31.3095 193.666 31.3095 193.684H26.0741C26.0741 194.363 26.2526 194.961 26.6097 195.478C26.9667 195.996 27.5068 196.255 28.2299 196.255C28.7476 196.255 29.1716 196.126 29.5019 195.867C29.8322 195.608 30.0375 195.269 30.1178 194.849ZM26.0741 192.854H30.0643C30.0554 192.327 29.9304 191.841 29.6894 191.394C29.4126 190.85 28.9083 190.578 28.1763 190.578C27.3461 190.578 26.7748 190.854 26.4624 191.408C26.2035 191.854 26.0741 192.336 26.0741 192.854ZM35.9788 196.817V190.015H39.2191C40.6563 190.015 41.3749 190.555 41.3749 191.635C41.3749 192.412 40.9643 192.943 40.143 193.229V193.269C40.6965 193.403 41.0803 193.617 41.2946 193.912C41.5177 194.206 41.6293 194.586 41.6293 195.05C41.6293 195.791 41.3571 196.282 40.8125 196.523C40.3662 196.719 39.8217 196.817 39.179 196.817H35.9788ZM38.8442 190.845H37.1571V192.854H38.7907C39.2638 192.854 39.6119 192.76 39.8351 192.573C40.0672 192.376 40.1832 192.122 40.1832 191.81C40.1832 191.167 39.7369 190.845 38.8442 190.845ZM38.8442 193.684H37.1571V195.987H38.8844C39.902 195.987 40.4108 195.639 40.4108 194.943C40.4108 194.104 39.8886 193.684 38.8442 193.684ZM42.9825 194.755C42.7505 193.8 42.7594 192.876 43.0093 191.984C43.2593 191.091 43.7859 190.453 44.5893 190.069C45.0357 189.855 45.5579 189.747 46.156 189.747C46.7541 189.747 47.2763 189.855 47.7226 190.069C48.526 190.444 49.0571 191.113 49.316 192.077C49.432 192.524 49.4901 192.974 49.4901 193.43C49.499 193.876 49.4454 194.318 49.3294 194.755C49.2223 195.184 49.0303 195.577 48.7536 195.934C48.4858 196.291 48.1421 196.572 47.7226 196.777C47.2673 196.983 46.7451 197.085 46.156 197.085C45.5668 197.085 45.0446 196.983 44.5893 196.777C43.8127 196.402 43.2771 195.728 42.9825 194.755ZM44.2278 192.064C44.1118 192.421 44.0537 192.867 44.0537 193.403C44.0537 193.93 44.1118 194.38 44.2278 194.755C44.3439 195.13 44.4778 195.411 44.6295 195.599C44.9509 195.956 45.3169 196.166 45.7275 196.228C46.0131 196.273 46.2988 196.273 46.5844 196.228C46.7094 196.219 46.8835 196.157 47.1067 196.041C47.3477 195.916 47.5441 195.76 47.6958 195.572C47.8476 195.385 47.977 195.112 48.0841 194.755C48.2002 194.38 48.2582 193.93 48.2582 193.403C48.2582 192.867 48.2002 192.421 48.0841 192.064C47.9591 191.671 47.8208 191.39 47.669 191.22C47.5262 191.051 47.3477 190.908 47.1334 190.792C46.9192 190.676 46.7362 190.604 46.5844 190.578C46.2988 190.533 46.0131 190.533 45.7275 190.578C45.6025 190.587 45.424 190.654 45.1919 190.779C44.7366 191.002 44.4153 191.43 44.2278 192.064ZM52.2208 190.015V195.987H55.0594V190.015H56.2378V195.987H59.0764V190.015H60.2547V196.817H51.0425V190.015H52.2208ZM67.084 194.849H68.2088C68.1017 195.447 67.8116 195.969 67.3384 196.416C66.8653 196.862 66.1646 197.085 65.2362 197.085C63.9776 197.085 63.0537 196.67 62.4645 195.84C62.1699 195.403 61.978 194.934 61.8887 194.434C61.8262 194.086 61.795 193.756 61.795 193.443C61.795 192.845 61.8843 192.283 62.0628 191.756C62.1789 191.381 62.3485 191.055 62.5716 190.779C62.8126 190.484 63.1563 190.238 63.6026 190.042C64.049 189.846 64.5533 189.747 65.1157 189.747C66.1155 189.747 66.8698 190.024 67.3786 190.578C67.5929 190.81 67.7669 191.104 67.9008 191.461C68.0972 191.979 68.2177 192.608 68.2624 193.349C68.2624 193.376 68.2624 193.434 68.2624 193.523C68.2713 193.613 68.2757 193.666 68.2757 193.684H63.0403C63.0403 194.363 63.2188 194.961 63.5759 195.478C63.9329 195.996 64.473 196.255 65.1961 196.255C65.7138 196.255 66.1378 196.126 66.4681 195.867C66.7984 195.608 67.0037 195.269 67.084 194.849ZM63.0403 192.854H67.0305C67.0215 192.327 66.8966 191.841 66.6556 191.394C66.3788 190.85 65.8745 190.578 65.1425 190.578C64.3123 190.578 63.741 190.854 63.4286 191.408C63.1697 191.854 63.0403 192.336 63.0403 192.854ZM68.9628 198.585L68.8557 195.987H69.7126C70.4536 194.898 70.824 193.287 70.824 191.153V190.015H75.698V195.987H76.8763L76.7825 198.585H75.7917V196.817H69.9537V198.585H68.9628ZM74.5196 195.987V190.845H71.922V191.796C71.922 192.519 71.8416 193.269 71.681 194.046C71.5381 194.813 71.2971 195.461 70.9579 195.987H74.5196ZM79.066 190.015V195.987H81.9047V190.015H83.083V195.987H85.9217V190.015H87.1V196.817H77.8877V190.015H79.066ZM93.9293 194.849H95.0541C94.9469 195.447 94.6568 195.969 94.1837 196.416C93.7106 196.862 93.0099 197.085 92.0815 197.085C90.8228 197.085 89.8989 196.67 89.3098 195.84C89.0152 195.403 88.8233 194.934 88.734 194.434C88.6715 194.086 88.6403 193.756 88.6403 193.443C88.6403 192.845 88.7295 192.283 88.9081 191.756C89.0241 191.381 89.1937 191.055 89.4169 190.779C89.6579 190.484 90.0016 190.238 90.4479 190.042C90.8943 189.846 91.3986 189.747 91.961 189.747C92.9608 189.747 93.7151 190.024 94.2239 190.578C94.4381 190.81 94.6122 191.104 94.7461 191.461C94.9425 191.979 95.063 192.608 95.1076 193.349C95.1076 193.376 95.1076 193.434 95.1076 193.523C95.1166 193.613 95.121 193.666 95.121 193.684H89.8855C89.8855 194.363 90.0641 194.961 90.4211 195.478C90.7782 195.996 91.3183 196.255 92.0413 196.255C92.5591 196.255 92.9831 196.126 93.3134 195.867C93.6437 195.608 93.849 195.269 93.9293 194.849ZM89.8855 192.854H93.8758C93.8668 192.327 93.7419 191.841 93.5008 191.394C93.2241 190.85 92.7198 190.578 91.9878 190.578C91.1576 190.578 90.5863 190.854 90.2739 191.408C90.015 191.854 89.8855 192.336 89.8855 192.854ZM101.325 190.845H97.8434V196.817H96.665V190.015H101.325V190.845ZM101.904 194.755C101.671 193.8 101.68 192.876 101.93 191.984C102.18 191.091 102.707 190.453 103.51 190.069C103.957 189.855 104.479 189.747 105.077 189.747C105.675 189.747 106.197 189.855 106.644 190.069C107.447 190.444 107.978 191.113 108.237 192.077C108.353 192.524 108.411 192.974 108.411 193.43C108.42 193.876 108.366 194.318 108.25 194.755C108.143 195.184 107.951 195.577 107.675 195.934C107.407 196.291 107.063 196.572 106.644 196.777C106.188 196.983 105.666 197.085 105.077 197.085C104.488 197.085 103.966 196.983 103.51 196.777C102.734 196.402 102.198 195.728 101.904 194.755ZM103.149 192.064C103.033 192.421 102.975 192.867 102.975 193.403C102.975 193.93 103.033 194.38 103.149 194.755C103.265 195.13 103.399 195.411 103.551 195.599C103.872 195.956 104.238 196.166 104.648 196.228C104.934 196.273 105.22 196.273 105.505 196.228C105.63 196.219 105.804 196.157 106.028 196.041C106.269 195.916 106.465 195.76 106.617 195.572C106.769 195.385 106.898 195.112 107.005 194.755C107.121 194.38 107.179 193.93 107.179 193.403C107.179 192.867 107.121 192.421 107.005 192.064C106.88 191.671 106.742 191.39 106.59 191.22C106.447 191.051 106.269 190.908 106.054 190.792C105.84 190.676 105.657 190.604 105.505 190.578C105.22 190.533 104.934 190.533 104.648 190.578C104.524 190.587 104.345 190.654 104.113 190.779C103.658 191.002 103.336 191.43 103.149 192.064ZM113.089 196.817V190.015H116.329C117.766 190.015 118.485 190.555 118.485 191.635C118.485 192.412 118.074 192.943 117.253 193.229V193.269C117.806 193.403 118.19 193.617 118.404 193.912C118.628 194.206 118.739 194.586 118.739 195.05C118.739 195.791 118.467 196.282 117.922 196.523C117.476 196.719 116.932 196.817 116.289 196.817H113.089ZM115.954 190.845H114.267V192.854H115.901C116.374 192.854 116.722 192.76 116.945 192.573C117.177 192.376 117.293 192.122 117.293 191.81C117.293 191.167 116.847 190.845 115.954 190.845ZM115.954 193.684H114.267V195.987H115.994C117.012 195.987 117.521 195.639 117.521 194.943C117.521 194.104 116.999 193.684 115.954 193.684ZM128.092 190.845H124.61V196.817H123.432V190.015H128.092V190.845ZM128.885 199.295V190.015H129.983V190.953H130.023C130.558 190.149 131.308 189.747 132.272 189.747C133.156 189.747 133.888 190.055 134.468 190.671C135.048 191.296 135.339 192.211 135.339 193.416C135.339 194.648 135.044 195.568 134.455 196.175C133.875 196.782 133.156 197.085 132.299 197.085C132.031 197.085 131.705 197.027 131.322 196.911C130.759 196.742 130.34 196.384 130.063 195.84V199.295H128.885ZM129.983 193.443C129.983 194.389 130.197 195.099 130.625 195.572C131.072 196.027 131.558 196.255 132.085 196.255C132.638 196.255 133.111 196.032 133.504 195.586C133.897 195.121 134.093 194.398 134.093 193.416C134.093 192.524 133.91 191.827 133.544 191.328C133.187 190.828 132.678 190.578 132.018 190.578C131.67 190.578 131.344 190.671 131.04 190.859C130.335 191.278 129.983 192.14 129.983 193.443ZM136.88 199.281V198.411C137.219 198.455 137.416 198.478 137.469 198.478C137.808 198.478 138.049 198.353 138.192 198.103C138.282 197.969 138.34 197.857 138.366 197.768C138.393 197.723 138.451 197.576 138.54 197.326L138.701 196.817L135.755 190.015H137.161L139.344 195.519L141.151 190.015H142.33L139.625 197.621C139.411 198.228 139.228 198.625 139.076 198.812C138.773 199.17 138.362 199.348 137.844 199.348C137.442 199.348 137.121 199.326 136.88 199.281ZM147.914 190.845H144.473V196.817H143.294V190.015H149.092V196.817H147.914V190.845ZM155.642 190.845H152.201V196.817H151.022V190.015H156.82V196.817H155.642V190.845ZM158.75 196.817V190.015H159.929V192.707H161.643C162.187 192.707 162.642 192.76 163.008 192.867C163.883 193.091 164.339 193.729 164.374 194.782C164.374 195.407 164.182 195.902 163.798 196.268C163.424 196.634 162.839 196.817 162.044 196.817H158.75ZM161.361 193.537H159.929V195.987H161.576C162.629 195.987 163.156 195.559 163.156 194.702C163.156 194.282 163.017 193.979 162.741 193.791C162.651 193.72 162.504 193.662 162.299 193.617C162.085 193.564 161.772 193.537 161.361 193.537ZM165.204 196.817V190.015H166.383V196.817H165.204ZM171.434 196.817V190.015H174.675C176.112 190.015 176.83 190.555 176.83 191.635C176.83 192.412 176.42 192.943 175.599 193.229V193.269C176.152 193.403 176.536 193.617 176.75 193.912C176.973 194.206 177.085 194.586 177.085 195.05C177.085 195.791 176.813 196.282 176.268 196.523C175.822 196.719 175.277 196.817 174.634 196.817H171.434ZM174.3 190.845H172.613V192.854H174.246C174.719 192.854 175.067 192.76 175.291 192.573C175.523 192.376 175.639 192.122 175.639 191.81C175.639 191.167 175.192 190.845 174.3 190.845ZM174.3 193.684H172.613V195.987H174.34C175.358 195.987 175.866 195.639 175.866 194.943C175.866 194.104 175.344 193.684 174.3 193.684ZM178.652 196.817V190.015H179.831V192.707H181.545C182.089 192.707 182.544 192.76 182.91 192.867C183.785 193.091 184.24 193.729 184.276 194.782C184.276 195.407 184.084 195.902 183.7 196.268C183.325 196.634 182.741 196.817 181.946 196.817H178.652ZM181.263 193.537H179.831V195.987H181.478C182.531 195.987 183.058 195.559 183.058 194.702C183.058 194.282 182.919 193.979 182.643 193.791C182.553 193.72 182.406 193.662 182.201 193.617C181.986 193.564 181.674 193.537 181.263 193.537ZM185.106 196.817V190.015H186.285V196.817H185.106ZM189.389 190.015V195.987H192.228V190.015H193.406V195.987H196.245V190.015H197.423V196.817H188.211V190.015H189.389ZM204.253 194.849H205.377C205.27 195.447 204.98 195.969 204.507 196.416C204.034 196.862 203.333 197.085 202.405 197.085C201.146 197.085 200.222 196.67 199.633 195.84C199.338 195.403 199.147 194.934 199.057 194.434C198.995 194.086 198.964 193.756 198.964 193.443C198.964 192.845 199.053 192.283 199.231 191.756C199.347 191.381 199.517 191.055 199.74 190.779C199.981 190.484 200.325 190.238 200.771 190.042C201.217 189.846 201.722 189.747 202.284 189.747C203.284 189.747 204.038 190.024 204.547 190.578C204.761 190.81 204.935 191.104 205.069 191.461C205.266 191.979 205.386 192.608 205.431 193.349C205.431 193.376 205.431 193.434 205.431 193.523C205.44 193.613 205.444 193.666 205.444 193.684H200.209C200.209 194.363 200.387 194.961 200.744 195.478C201.101 195.996 201.641 196.255 202.365 196.255C202.882 196.255 203.306 196.126 203.637 195.867C203.967 195.608 204.172 195.269 204.253 194.849ZM200.209 192.854H204.199C204.19 192.327 204.065 191.841 203.824 191.394C203.547 190.85 203.043 190.578 202.311 190.578C201.481 190.578 200.91 190.854 200.597 191.408C200.338 191.854 200.209 192.336 200.209 192.854Z" fill="black"/>
<path d="M172.61 280.243H167.896V284.648H166.638V275.275H167.896V279.185H172.61V275.275H173.868V284.648H172.61V280.243ZM180.871 282.68H181.995C181.888 283.278 181.598 283.8 181.125 284.247C180.652 284.693 179.951 284.916 179.023 284.916C177.764 284.916 176.84 284.501 176.251 283.671C175.957 283.234 175.765 282.765 175.675 282.265C175.613 281.917 175.582 281.587 175.582 281.274C175.582 280.676 175.671 280.114 175.849 279.587C175.965 279.212 176.135 278.886 176.358 278.61C176.599 278.315 176.943 278.07 177.389 277.873C177.836 277.677 178.34 277.579 178.902 277.579C179.902 277.579 180.656 277.855 181.165 278.409C181.379 278.641 181.554 278.935 181.687 279.292C181.884 279.81 182.004 280.44 182.049 281.18C182.049 281.207 182.049 281.265 182.049 281.355C182.058 281.444 182.062 281.497 182.062 281.515H176.827C176.827 282.194 177.005 282.792 177.362 283.309C177.72 283.827 178.26 284.086 178.983 284.086C179.5 284.086 179.924 283.957 180.255 283.698C180.585 283.439 180.79 283.1 180.871 282.68ZM176.827 280.685H180.817C180.808 280.158 180.683 279.672 180.442 279.226C180.165 278.681 179.661 278.409 178.929 278.409C178.099 278.409 177.528 278.685 177.215 279.239C176.956 279.685 176.827 280.167 176.827 280.685ZM191.351 278.677H187.91V284.648H186.732V277.846H192.529V284.648H191.351V278.677ZM194.46 287.126V277.846H195.558V278.784H195.598C196.133 277.98 196.883 277.579 197.847 277.579C198.731 277.579 199.463 277.887 200.043 278.502C200.623 279.127 200.914 280.042 200.914 281.247C200.914 282.479 200.619 283.399 200.03 284.006C199.45 284.613 198.731 284.916 197.874 284.916C197.606 284.916 197.28 284.858 196.897 284.742C196.334 284.573 195.915 284.215 195.638 283.671V287.126H194.46ZM195.558 281.274C195.558 282.22 195.772 282.93 196.2 283.403C196.647 283.858 197.133 284.086 197.66 284.086C198.213 284.086 198.686 283.863 199.079 283.417C199.472 282.952 199.668 282.229 199.668 281.247C199.668 280.355 199.485 279.658 199.119 279.159C198.762 278.659 198.253 278.409 197.593 278.409C197.245 278.409 196.919 278.502 196.615 278.69C195.91 279.109 195.558 279.971 195.558 281.274ZM203.627 277.846V283.269L207.176 277.846H208.488V284.648H207.31V279.212L203.775 284.648H202.449V277.846H203.627ZM215.072 278.677H211.591V284.648H210.412V277.846H215.072V278.677ZM215.651 282.586C215.419 281.631 215.428 280.707 215.678 279.815C215.928 278.922 216.454 278.284 217.258 277.9C217.704 277.686 218.226 277.579 218.824 277.579C219.422 277.579 219.945 277.686 220.391 277.9C221.194 278.275 221.726 278.944 221.984 279.908C222.1 280.355 222.158 280.806 222.158 281.261C222.167 281.707 222.114 282.149 221.998 282.586C221.891 283.015 221.699 283.408 221.422 283.765C221.154 284.122 220.811 284.403 220.391 284.608C219.936 284.814 219.414 284.916 218.824 284.916C218.235 284.916 217.713 284.814 217.258 284.608C216.481 284.233 215.946 283.559 215.651 282.586ZM216.896 279.895C216.78 280.252 216.722 280.698 216.722 281.234C216.722 281.761 216.78 282.211 216.896 282.586C217.012 282.961 217.146 283.242 217.298 283.43C217.619 283.787 217.985 283.997 218.396 284.059C218.682 284.104 218.967 284.104 219.253 284.059C219.378 284.05 219.552 283.988 219.775 283.872C220.016 283.747 220.212 283.591 220.364 283.403C220.516 283.216 220.645 282.943 220.752 282.586C220.869 282.211 220.927 281.761 220.927 281.234C220.927 280.698 220.869 280.252 220.752 279.895C220.628 279.502 220.489 279.221 220.337 279.051C220.195 278.882 220.016 278.739 219.802 278.623C219.588 278.507 219.405 278.436 219.253 278.409C218.967 278.364 218.682 278.364 218.396 278.409C218.271 278.418 218.092 278.485 217.86 278.61C217.405 278.833 217.084 279.261 216.896 279.895ZM222.854 286.416L222.747 283.818H223.604C224.345 282.729 224.715 281.118 224.715 278.984V277.846H229.589V283.818H230.767L230.674 286.416H229.683V284.648H223.845V286.416H222.854ZM228.411 283.818V278.677H225.813V279.627C225.813 280.35 225.733 281.1 225.572 281.877C225.429 282.644 225.188 283.292 224.849 283.818H228.411ZM236.68 282.68H237.804C237.697 283.278 237.407 283.8 236.934 284.247C236.461 284.693 235.76 284.916 234.832 284.916C233.573 284.916 232.649 284.501 232.06 283.671C231.765 283.234 231.573 282.765 231.484 282.265C231.422 281.917 231.39 281.587 231.39 281.274C231.39 280.676 231.48 280.114 231.658 279.587C231.774 279.212 231.944 278.886 232.167 278.61C232.408 278.315 232.752 278.07 233.198 277.873C233.644 277.677 234.149 277.579 234.711 277.579C235.711 277.579 236.465 277.855 236.974 278.409C237.188 278.641 237.362 278.935 237.496 279.292C237.693 279.81 237.813 280.44 237.858 281.18C237.858 281.207 237.858 281.265 237.858 281.355C237.867 281.444 237.871 281.497 237.871 281.515H232.636C232.636 282.194 232.814 282.792 233.171 283.309C233.528 283.827 234.068 284.086 234.792 284.086C235.309 284.086 235.733 283.957 236.064 283.698C236.394 283.439 236.599 283.1 236.68 282.68ZM232.636 280.685H236.626C236.617 280.158 236.492 279.672 236.251 279.226C235.974 278.681 235.47 278.409 234.738 278.409C233.908 278.409 233.337 278.685 233.024 279.239C232.765 279.685 232.636 280.167 232.636 280.685ZM243.954 281.475H240.594V284.648H239.415V277.846H240.594V280.645H243.954V277.846H245.133V284.648H243.954V281.475ZM165.607 301.416L165.5 298.818H166.356C167.097 297.729 167.468 296.118 167.468 293.984V292.846H172.342V298.818H173.52L173.426 301.416H172.436V299.648H166.597V301.416H165.607ZM171.163 298.818V293.677H168.566V294.627C168.566 295.35 168.485 296.1 168.325 296.877C168.182 297.644 167.941 298.292 167.602 298.818H171.163ZM174.082 299.648V298.778C174.751 298.974 175.224 298.658 175.501 297.827C175.572 297.622 175.621 297.368 175.648 297.064L175.702 296.247C175.711 296.105 175.715 295.823 175.715 295.404V292.846H180.428V299.648H179.25V293.677H176.813V295.404C176.813 295.966 176.8 296.439 176.773 296.823C176.746 297.198 176.679 297.609 176.572 298.055C176.42 298.689 176.148 299.14 175.755 299.407C175.362 299.675 174.805 299.756 174.082 299.648ZM186.515 296.97H184.962L183.181 299.648H181.882L183.757 296.957C183.239 296.903 182.82 296.703 182.498 296.355C182.177 296.006 182.016 295.551 182.016 294.989C182.016 294.462 182.155 294.002 182.431 293.61C182.762 293.101 183.387 292.846 184.306 292.846H187.694V299.648H186.515V296.97ZM186.515 296.14V293.677H184.815C183.761 293.677 183.235 294.101 183.235 294.949C183.235 295.297 183.364 295.582 183.623 295.806C183.882 296.029 184.293 296.14 184.855 296.14H186.515ZM197.366 293.677H193.925V299.648H192.747V292.846H198.544V299.648H197.366V293.677ZM205.375 297.68H206.5C206.393 298.278 206.103 298.8 205.63 299.247C205.157 299.693 204.456 299.916 203.527 299.916C202.269 299.916 201.345 299.501 200.756 298.671C200.461 298.234 200.269 297.765 200.18 297.265C200.118 296.917 200.086 296.587 200.086 296.274C200.086 295.676 200.176 295.114 200.354 294.587C200.47 294.212 200.64 293.886 200.863 293.61C201.104 293.315 201.448 293.07 201.894 292.873C202.34 292.677 202.845 292.579 203.407 292.579C204.407 292.579 205.161 292.855 205.67 293.409C205.884 293.641 206.058 293.935 206.192 294.292C206.388 294.81 206.509 295.44 206.554 296.18C206.554 296.207 206.554 296.265 206.554 296.355C206.563 296.444 206.567 296.497 206.567 296.515H201.332C201.332 297.194 201.51 297.792 201.867 298.309C202.224 298.827 202.764 299.086 203.487 299.086C204.005 299.086 204.429 298.957 204.759 298.698C205.09 298.439 205.295 298.1 205.375 297.68ZM201.332 295.685H205.322C205.313 295.158 205.188 294.672 204.947 294.226C204.67 293.681 204.166 293.409 203.434 293.409C202.604 293.409 202.032 293.685 201.72 294.239C201.461 294.685 201.332 295.167 201.332 295.685ZM208.111 302.126V292.846H209.209V293.784H209.249C209.785 292.98 210.535 292.579 211.499 292.579C212.382 292.579 213.114 292.887 213.695 293.502C214.275 294.127 214.565 295.042 214.565 296.247C214.565 297.479 214.27 298.399 213.681 299.006C213.101 299.613 212.382 299.916 211.525 299.916C211.258 299.916 210.932 299.858 210.548 299.742C209.986 299.573 209.566 299.215 209.289 298.671V302.126H208.111ZM209.209 296.274C209.209 297.22 209.423 297.93 209.852 298.403C210.298 298.858 210.785 299.086 211.311 299.086C211.865 299.086 212.338 298.863 212.731 298.417C213.123 297.952 213.32 297.229 213.32 296.247C213.32 295.355 213.137 294.658 212.771 294.159C212.414 293.659 211.905 293.409 211.244 293.409C210.896 293.409 210.57 293.502 210.267 293.69C209.562 294.109 209.209 294.971 209.209 296.274ZM221.001 297.68H222.126C222.019 298.278 221.729 298.8 221.256 299.247C220.783 299.693 220.082 299.916 219.153 299.916C217.895 299.916 216.971 299.501 216.382 298.671C216.087 298.234 215.895 297.765 215.806 297.265C215.743 296.917 215.712 296.587 215.712 296.274C215.712 295.676 215.801 295.114 215.98 294.587C216.096 294.212 216.266 293.886 216.489 293.61C216.73 293.315 217.074 293.07 217.52 292.873C217.966 292.677 218.471 292.579 219.033 292.579C220.033 292.579 220.787 292.855 221.296 293.409C221.51 293.641 221.684 293.935 221.818 294.292C222.014 294.81 222.135 295.44 222.18 296.18C222.18 296.207 222.18 296.265 222.18 296.355C222.189 296.444 222.193 296.497 222.193 296.515H216.957C216.957 297.194 217.136 297.792 217.493 298.309C217.85 298.827 218.39 299.086 219.113 299.086C219.631 299.086 220.055 298.957 220.385 298.698C220.716 298.439 220.921 298.1 221.001 297.68ZM216.957 295.685H220.948C220.939 295.158 220.814 294.672 220.573 294.226C220.296 293.681 219.792 293.409 219.06 293.409C218.23 293.409 217.658 293.685 217.346 294.239C217.087 294.685 216.957 295.167 216.957 295.685ZM223.737 302.126V292.846H224.835V293.784H224.875C225.411 292.98 226.161 292.579 227.125 292.579C228.008 292.579 228.74 292.887 229.321 293.502C229.901 294.127 230.191 295.042 230.191 296.247C230.191 297.479 229.896 298.399 229.307 299.006C228.727 299.613 228.008 299.916 227.151 299.916C226.884 299.916 226.558 299.858 226.174 299.742C225.612 299.573 225.192 299.215 224.915 298.671V302.126H223.737ZM224.835 296.274C224.835 297.22 225.049 297.93 225.478 298.403C225.924 298.858 226.411 299.086 226.937 299.086C227.491 299.086 227.964 298.863 228.357 298.417C228.749 297.952 228.946 297.229 228.946 296.247C228.946 295.355 228.763 294.658 228.397 294.159C228.04 293.659 227.531 293.409 226.87 293.409C226.522 293.409 226.196 293.502 225.893 293.69C225.188 294.109 224.835 294.971 224.835 296.274ZM232.624 294.855H231.499C231.499 294.319 231.677 293.828 232.034 293.382C232.463 292.846 233.248 292.579 234.391 292.579C235.061 292.579 235.65 292.712 236.159 292.98C236.453 293.123 236.685 293.36 236.855 293.69C237.024 294.02 237.105 294.413 237.096 294.868L237.029 298.015C237.029 298.274 237.056 298.475 237.109 298.617C237.19 298.76 237.399 298.827 237.739 298.818V299.648C237.605 299.684 237.426 299.702 237.203 299.702C236.81 299.702 236.525 299.635 236.346 299.501C236.176 299.367 236.056 299.104 235.985 298.711C235.547 299.515 234.77 299.916 233.655 299.916C232.887 299.916 232.293 299.747 231.874 299.407C231.463 299.059 231.258 298.546 231.258 297.868C231.258 297.225 231.49 296.738 231.954 296.408C232.418 296.06 233.298 295.828 234.592 295.712C235.19 295.667 235.547 295.609 235.663 295.538C235.833 295.422 235.918 295.167 235.918 294.774C235.918 293.864 235.409 293.409 234.391 293.409C233.186 293.409 232.597 293.891 232.624 294.855ZM235.891 296.743L235.918 296.167C235.784 296.265 235.587 296.346 235.328 296.408C234.936 296.435 234.632 296.466 234.418 296.502C233.677 296.627 233.226 296.729 233.065 296.81C232.673 296.997 232.476 297.336 232.476 297.827C232.476 298.22 232.592 298.528 232.824 298.751C233.065 298.974 233.387 299.086 233.789 299.086C234.047 299.086 234.284 299.05 234.498 298.979C234.721 298.908 234.936 298.791 235.141 298.631C235.355 298.461 235.525 298.216 235.65 297.894C235.784 297.573 235.864 297.189 235.891 296.743ZM243.961 289.834H244.966C244.93 290.485 244.626 290.918 244.055 291.132C243.743 291.24 243.475 291.311 243.252 291.347C242.252 291.472 241.672 291.556 241.511 291.601C240.904 291.771 240.44 292.079 240.118 292.525C239.797 292.962 239.627 293.592 239.61 294.413H239.636C240.065 293.261 240.944 292.686 242.274 292.686C243.354 292.686 244.162 293.043 244.698 293.757C245.242 294.462 245.515 295.328 245.515 296.355C245.515 297.336 245.233 298.176 244.671 298.872C244.109 299.568 243.274 299.916 242.167 299.916C240.944 299.916 240.038 299.452 239.449 298.524C239.154 298.015 238.954 297.444 238.846 296.81C238.775 296.31 238.739 295.814 238.739 295.323C238.739 293.601 239.003 292.396 239.529 291.708C239.993 291.11 240.623 290.726 241.417 290.557C242.167 290.387 242.801 290.289 243.319 290.262C243.667 290.217 243.881 290.075 243.961 289.834ZM239.985 296.435C239.985 297.024 240.118 297.591 240.386 298.135C240.699 298.769 241.283 299.086 242.14 299.086C242.819 299.086 243.341 298.858 243.707 298.403C244.082 297.939 244.269 297.301 244.269 296.488C244.269 295.819 244.153 295.199 243.921 294.627C243.627 293.886 243.033 293.516 242.14 293.516C241.248 293.516 240.645 293.877 240.333 294.6C240.101 295.154 239.985 295.765 239.985 296.435ZM246.837 297.586C246.605 296.631 246.614 295.707 246.864 294.815C247.114 293.922 247.641 293.284 248.444 292.9C248.891 292.686 249.413 292.579 250.011 292.579C250.609 292.579 251.131 292.686 251.578 292.9C252.381 293.275 252.912 293.944 253.171 294.908C253.287 295.355 253.345 295.806 253.345 296.261C253.354 296.707 253.3 297.149 253.184 297.586C253.077 298.015 252.885 298.408 252.609 298.765C252.341 299.122 251.997 299.403 251.578 299.608C251.122 299.814 250.6 299.916 250.011 299.916C249.422 299.916 248.9 299.814 248.444 299.608C247.668 299.233 247.132 298.559 246.837 297.586ZM248.083 294.895C247.967 295.252 247.909 295.698 247.909 296.234C247.909 296.761 247.967 297.211 248.083 297.586C248.199 297.961 248.333 298.242 248.484 298.43C248.806 298.787 249.172 298.997 249.582 299.059C249.868 299.104 250.154 299.104 250.439 299.059C250.564 299.05 250.738 298.988 250.962 298.872C251.203 298.747 251.399 298.591 251.551 298.403C251.702 298.216 251.832 297.943 251.939 297.586C252.055 297.211 252.113 296.761 252.113 296.234C252.113 295.698 252.055 295.252 251.939 294.895C251.814 294.502 251.676 294.221 251.524 294.051C251.381 293.882 251.203 293.739 250.988 293.623C250.774 293.507 250.591 293.436 250.439 293.409C250.154 293.364 249.868 293.364 249.582 293.409C249.457 293.418 249.279 293.485 249.047 293.61C248.592 293.833 248.27 294.261 248.083 294.895ZM256.046 299.648V293.677H253.689V292.846H259.581V293.677H257.224V299.648H256.046ZM261.738 292.846V295.819L264.643 292.846H266.022L262.836 296.006L266.197 299.648H264.791L261.738 296.247V299.648H260.559V292.846H261.738ZM268.289 292.846V298.269L271.837 292.846H273.149V299.648H271.971V294.212L268.436 299.648H267.11V292.846H268.289Z" fill="black"/>
<path d="M91.8951 25.5366C91.8951 23.2871 92.4637 21.5687 93.601 20.3815C94.7507 19.1817 96.2691 18.5818 98.1562 18.5818C99.4559 18.5818 100.606 18.888 101.605 19.5004C102.468 20.0003 103.149 20.7564 103.649 21.7687C104.149 22.7684 104.405 24.0244 104.417 25.5366C104.417 26.4489 104.311 27.2987 104.099 28.086C103.699 29.4607 103.061 30.4855 102.187 31.1604C101.399 31.7602 100.581 32.1414 99.7309 32.3039C99.1935 32.4288 98.6686 32.4913 98.1562 32.4913C97.8688 32.4913 97.6563 32.4851 97.5189 32.4726C96.8315 32.4351 96.1004 32.2539 95.3256 31.9289C94.3008 31.4415 93.5135 30.7729 92.9636 29.9231C92.2513 28.7859 91.8951 27.3237 91.8951 25.5366ZM93.7697 25.5366C93.7697 26.5614 93.9259 27.5049 94.2383 28.3672C94.8757 30.1293 96.1816 31.0104 98.1562 31.0104C98.3937 31.0104 98.5686 31.0041 98.6811 30.9916C99.2185 30.9667 99.7434 30.8104 100.256 30.523C101.78 29.7232 102.543 28.061 102.543 25.5366C102.543 23.8994 102.174 22.581 101.437 21.5812C100.712 20.5689 99.6184 20.0628 98.1562 20.0628C97.4314 20.0628 96.7815 20.2065 96.2066 20.4939C95.6318 20.7814 95.1819 21.1438 94.8569 21.5812C94.557 21.9936 94.3258 22.4685 94.1633 23.0059C93.9009 23.8182 93.7697 24.6618 93.7697 25.5366ZM109.775 32.0977V20.4564H105.501V18.9755H115.793V20.4564H111.537V32.0977H109.775ZM125.994 25.9302H119.396V32.0977H117.633V18.9755H119.396V24.4493H125.994V18.9755H127.756V32.0977H125.994V25.9302ZM132.704 20.4564V24.5805H139.584V26.0615H132.704V30.6167H140.503V32.0977H130.942V18.9755H140.296V20.4564H132.704ZM144.183 32.0977H142.42V18.9755H148.232C151.131 18.9755 152.581 20.1503 152.581 22.4997C152.581 23.2871 152.375 23.9869 151.962 24.5993C151.575 25.2117 151.031 25.5928 150.331 25.7428V25.799C151.181 26.124 151.712 26.5739 151.925 27.1487C152.112 27.6611 152.212 28.2672 152.225 28.9671V29.6607C152.237 29.8856 152.25 30.0981 152.262 30.298C152.275 30.498 152.281 30.6355 152.281 30.7105C152.293 30.9229 152.337 31.1729 152.412 31.4603C152.462 31.6228 152.575 31.8352 152.749 32.0977H150.894C150.669 31.7977 150.531 31.4853 150.481 31.1604C150.431 30.8604 150.406 30.2481 150.406 29.3233C150.406 28.5484 150.288 27.9236 150.05 27.4487C149.75 26.8363 149.044 26.5301 147.932 26.5301H144.183V32.0977ZM147.857 20.4564H144.183V25.0492H148.119C148.382 25.0492 148.638 25.0179 148.888 24.9555C149.15 24.893 149.425 24.7867 149.713 24.6368C150.013 24.4868 150.25 24.2431 150.425 23.9057C150.612 23.5683 150.706 23.1621 150.706 22.6872C150.706 21.2 149.756 20.4564 147.857 20.4564ZM155.574 32.0977V30.0544H157.43V32.6788C157.43 33.3036 157.255 33.7973 156.905 34.1597C156.555 34.5221 156.111 34.7596 155.574 34.8721V33.841C155.836 33.816 156.055 33.6848 156.23 33.4474C156.417 33.2224 156.511 32.9662 156.511 32.6788V32.0977H155.574ZM160.252 25.5366C160.252 23.2871 160.82 21.5687 161.958 20.3815C163.107 19.1817 164.626 18.5818 166.513 18.5818C167.813 18.5818 168.962 18.888 169.962 19.5004C170.825 20.0003 171.506 20.7564 172.006 21.7687C172.505 22.7684 172.762 24.0244 172.774 25.5366C172.774 26.4489 172.668 27.2987 172.455 28.086C172.055 29.4607 171.418 30.4855 170.543 31.1604C169.756 31.7602 168.937 32.1414 168.088 32.3039C167.55 32.4288 167.025 32.4913 166.513 32.4913C166.226 32.4913 166.013 32.4851 165.876 32.4726C165.188 32.4351 164.457 32.2539 163.682 31.9289C162.658 31.4415 161.87 30.7729 161.32 29.9231C160.608 28.7859 160.252 27.3237 160.252 25.5366ZM162.126 25.5366C162.126 26.5614 162.283 27.5049 162.595 28.3672C163.232 30.1293 164.538 31.0104 166.513 31.0104C166.75 31.0104 166.925 31.0041 167.038 30.9916C167.575 30.9667 168.1 30.8104 168.612 30.523C170.137 29.7232 170.899 28.061 170.899 25.5366C170.899 23.8994 170.531 22.581 169.793 21.5812C169.069 20.5689 167.975 20.0628 166.513 20.0628C165.788 20.0628 165.138 20.2065 164.563 20.4939C163.988 20.7814 163.539 21.1438 163.214 21.5812C162.914 21.9936 162.683 22.4685 162.52 23.0059C162.258 23.8182 162.126 24.6618 162.126 25.5366ZM174.795 35.5657H173.614L180.306 18.9755H181.487L174.795 35.5657ZM191.44 20.4564H184.841V32.0977H183.079V18.9755H193.202V32.0977H191.44V20.4564ZM196.388 32.0977V18.9755H201.731C204.693 18.9755 206.174 20.2315 206.174 22.7434C206.174 25.4928 204.636 26.8675 201.562 26.8675H198.15V32.0977H196.388ZM201.375 20.4564H198.15V25.3866H201.375C202.412 25.3866 203.168 25.1742 203.643 24.7493C204.13 24.3118 204.374 23.6557 204.374 22.7809C204.374 21.9686 204.13 21.3812 203.643 21.0188C203.156 20.6439 202.399 20.4564 201.375 20.4564ZM207.611 25.5366C207.611 23.2871 208.18 21.5687 209.317 20.3815C210.467 19.1817 211.985 18.5818 213.872 18.5818C215.172 18.5818 216.322 18.888 217.321 19.5004C218.184 20.0003 218.865 20.7564 219.365 21.7687C219.864 22.7684 220.121 24.0244 220.133 25.5366C220.133 26.4489 220.027 27.2987 219.814 28.086C219.415 29.4607 218.777 30.4855 217.902 31.1604C217.115 31.7602 216.297 32.1414 215.447 32.3039C214.909 32.4288 214.384 32.4913 213.872 32.4913C213.585 32.4913 213.372 32.4851 213.235 32.4726C212.547 32.4351 211.816 32.2539 211.041 31.9289C210.017 31.4415 209.229 30.7729 208.679 29.9231C207.967 28.7859 207.611 27.3237 207.611 25.5366ZM209.485 25.5366C209.485 26.5614 209.642 27.5049 209.954 28.3672C210.592 30.1293 211.897 31.0104 213.872 31.0104C214.109 31.0104 214.284 31.0041 214.397 30.9916C214.934 30.9667 215.459 30.8104 215.972 30.523C217.496 29.7232 218.259 28.061 218.259 25.5366C218.259 23.8994 217.89 22.581 217.153 21.5812C216.428 20.5689 215.334 20.0628 213.872 20.0628C213.147 20.0628 212.497 20.2065 211.922 20.4939C211.348 20.7814 210.898 21.1438 210.573 21.5812C210.273 21.9936 210.042 22.4685 209.879 23.0059C209.617 23.8182 209.485 24.6618 209.485 25.5366ZM221.749 23.0996V18.9755H223.511V22.8184C223.511 23.7682 223.743 24.3806 224.205 24.6555C224.667 24.918 225.492 25.0492 226.679 25.0492C227.492 25.0492 228.342 25.0054 229.229 24.918V18.9755H230.991V32.0977H229.229V26.3989C228.229 26.4864 227.267 26.5301 226.342 26.5301C224.655 26.5301 223.468 26.2989 222.78 25.8365C222.093 25.3741 221.749 24.4618 221.749 23.0996ZM235.935 20.4564V24.5805H242.815V26.0615H235.935V30.6167H243.733V32.0977H234.173V18.9755H243.527V20.4564H235.935ZM247.413 20.4564V24.5805H254.293V26.0615H247.413V30.6167H255.212V32.0977H245.651V18.9755H255.005V20.4564H247.413Z" fill="black"/>
<path d="M50.2614 107.792H42.4069V106.311H51.9861V107.511C50.4489 109.236 49.2367 111.198 48.3494 113.397C47.637 115.097 47.1559 117.109 46.9059 119.434H45.0313C45.2938 117.347 45.8187 115.384 46.606 113.547C47.5808 111.323 48.7993 109.405 50.2614 107.792Z" fill="black"/>
<path d="M22.168 128.952C21.7744 128.268 21.5695 127.491 21.5746 126.701C21.5797 125.911 21.7945 125.136 22.1968 124.458L29.2629 112.369L30.8621 119.471L35.1958 118.48L31.8791 103.751L17.2597 107.093L18.2429 111.459L25.6237 109.772L18.3674 122.186C17.5725 123.546 17.1485 125.094 17.1384 126.672C17.1283 128.25 17.5324 129.803 18.3099 131.174C19.0873 132.544 20.2105 133.683 21.5655 134.475C22.9206 135.267 24.4594 135.684 26.026 135.684H37.4737L41.9175 131.207H26.026C25.2417 131.212 24.4704 131.005 23.7921 130.609C23.1137 130.212 22.553 129.64 22.168 128.952ZM52.0321 86.5168L59.496 99.2861L52.684 98.2154L51.9988 102.639L66.8108 104.967L69.1216 90.0444L64.7309 89.3542L63.4987 97.3109L55.8615 84.245C55.0764 82.9017 53.9569 81.7882 52.6137 81.0146C51.2704 80.2409 49.75 79.834 48.2028 79.834C46.6556 79.834 45.1351 80.2409 43.7919 81.0146C42.4487 81.7882 41.3292 82.9017 40.5441 84.245L34.9978 93.7337L36.443 100.084L44.3733 86.5168C44.7659 85.8453 45.3256 85.2886 45.9972 84.9018C46.6688 84.515 47.4289 84.3116 48.2025 84.3116C48.9761 84.3116 49.7362 84.515 50.4078 84.9018C51.0794 85.2886 51.6396 85.8453 52.0321 86.5168ZM78.0384 122.186L71.3911 110.814L65.6769 109.861L74.2092 124.458C74.6067 125.138 74.8187 125.912 74.8237 126.701C74.8288 127.49 74.6267 128.267 74.2379 128.952C73.8492 129.637 73.2876 130.206 72.61 130.603C71.9325 130.999 71.1631 131.207 70.3797 131.207H54.9021L60.229 125.84L57.0868 122.675L46.4866 133.355L57.0868 144.034L60.229 140.868L55.0836 135.685H70.3797C71.9463 135.685 73.4851 135.267 74.8402 134.475C76.1952 133.683 77.3184 132.544 78.0958 131.174C78.8733 129.804 79.2775 128.251 79.2673 126.673C79.2572 125.094 78.8334 123.546 78.0384 122.186Z" fill="black"/>
<path d="M17.7417 284.648V275.275H21.8524C22.388 275.275 22.8477 275.347 23.2315 275.49C23.6154 275.624 23.9055 275.816 24.1019 276.065C24.2983 276.307 24.4366 276.556 24.517 276.815C24.6062 277.074 24.6509 277.355 24.6509 277.659C24.6509 278.159 24.4991 278.601 24.1956 278.984C23.901 279.368 23.5306 279.596 23.0843 279.667V279.708C23.3074 279.743 23.5217 279.806 23.727 279.895C23.9323 279.984 24.1376 280.114 24.3429 280.283C24.5571 280.453 24.7268 280.689 24.8517 280.993C24.9856 281.296 25.0526 281.645 25.0526 282.037C25.0526 283.778 23.9367 284.648 21.7051 284.648H17.7417ZM21.5712 276.333H19.0003V279.252H21.531C22.147 279.252 22.6067 279.123 22.9102 278.864C23.2137 278.596 23.3654 278.239 23.3654 277.793C23.3654 277.632 23.3431 277.48 23.2985 277.338C23.2539 277.186 23.1735 277.03 23.0575 276.869C22.9414 276.708 22.754 276.579 22.4951 276.481C22.2451 276.382 21.9372 276.333 21.5712 276.333ZM21.6114 280.31H19.0003V283.591H21.6114C22.022 283.591 22.3969 283.542 22.7361 283.443C23.4235 283.238 23.7671 282.734 23.7671 281.93C23.7671 280.85 23.0485 280.31 21.6114 280.31ZM26.7993 284.648V277.846H27.9776V280.538H29.6916C30.2361 280.538 30.6913 280.591 31.0573 280.698C31.9321 280.922 32.3874 281.56 32.4231 282.613C32.4231 283.238 32.2312 283.733 31.8473 284.099C31.4724 284.465 30.8877 284.648 30.0933 284.648H26.7993ZM29.4104 281.368H27.9776V283.818H29.6246C30.678 283.818 31.2046 283.39 31.2046 282.533C31.2046 282.113 31.0663 281.81 30.7895 281.622C30.7003 281.551 30.553 281.493 30.3477 281.448C30.1334 281.395 29.821 281.368 29.4104 281.368ZM33.2533 284.648V277.846H34.4316V284.648H33.2533ZM41.1248 282.225H42.2496C42.2138 282.743 42.0175 283.287 41.6604 283.858C41.464 284.18 41.156 284.439 40.7365 284.635C40.3259 284.823 39.8438 284.916 39.2904 284.916C39.1029 284.916 38.969 284.912 38.8887 284.903C38.4959 284.885 38.0942 284.782 37.6836 284.595C36.541 284.024 35.9697 282.89 35.9697 281.194C35.9697 280.301 36.175 279.507 36.5856 278.81C37.0944 277.989 37.9692 277.579 39.21 277.579C40.0848 277.579 40.7811 277.802 41.2989 278.248C41.8166 278.685 42.1157 279.261 42.196 279.975H41.0712C40.8927 278.931 40.2812 278.409 39.2368 278.409C38.5584 278.409 38.0496 278.659 37.7104 279.159C37.3801 279.65 37.2149 280.328 37.2149 281.194C37.2149 282.033 37.389 282.725 37.7371 283.269C38.0853 283.814 38.612 284.086 39.3172 284.086C39.9242 284.086 40.366 283.894 40.6428 283.51C40.9373 283.126 41.098 282.698 41.1248 282.225ZM43.4794 282.586C43.2473 281.631 43.2563 280.707 43.5062 279.815C43.7562 278.922 44.2828 278.284 45.0862 277.9C45.5326 277.686 46.0548 277.579 46.6529 277.579C47.2509 277.579 47.7731 277.686 48.2195 277.9C49.0229 278.275 49.554 278.944 49.8129 279.908C49.9289 280.355 49.987 280.806 49.987 281.261C49.9959 281.707 49.9423 282.149 49.8263 282.586C49.7192 283.015 49.5272 283.408 49.2505 283.765C48.9827 284.122 48.639 284.403 48.2195 284.608C47.7642 284.814 47.242 284.916 46.6529 284.916C46.0637 284.916 45.5415 284.814 45.0862 284.608C44.3096 284.233 43.774 283.559 43.4794 282.586ZM44.7247 279.895C44.6087 280.252 44.5506 280.698 44.5506 281.234C44.5506 281.761 44.6087 282.211 44.7247 282.586C44.8408 282.961 44.9747 283.242 45.1264 283.43C45.4478 283.787 45.8138 283.997 46.2244 284.059C46.51 284.104 46.7957 284.104 47.0813 284.059C47.2063 284.05 47.3804 283.988 47.6035 283.872C47.8446 283.747 48.0409 283.591 48.1927 283.403C48.3445 283.216 48.4739 282.943 48.581 282.586C48.6971 282.211 48.7551 281.761 48.7551 281.234C48.7551 280.698 48.6971 280.252 48.581 279.895C48.456 279.502 48.3177 279.221 48.1659 279.051C48.0231 278.882 47.8446 278.739 47.6303 278.623C47.4161 278.507 47.2331 278.436 47.0813 278.409C46.7957 278.364 46.51 278.364 46.2244 278.409C46.0994 278.418 45.9209 278.485 45.6888 278.61C45.2335 278.833 44.9122 279.261 44.7247 279.895ZM52.7177 277.846V280.819L55.6233 277.846H57.0025L53.8156 281.006L57.1765 284.648H55.7706L52.7177 281.247V284.648H51.5394V277.846H52.7177ZM59.2688 277.846V283.269L62.8171 277.846H64.1294V284.648H62.951V279.212L59.4161 284.648H58.0905V277.846H59.2688ZM67.2322 277.846V283.269L70.7805 277.846H72.0927V284.648H70.9144V279.212L67.3794 284.648H66.0538V277.846H67.2322ZM70.3386 275.275H71.3429C71.1554 276.257 70.5663 276.833 69.5754 277.003C69.4058 277.03 69.2273 277.043 69.0398 277.043C67.8883 277.043 67.1518 276.574 66.8305 275.637C66.8037 275.575 66.7724 275.454 66.7367 275.275H67.741C67.7142 275.508 67.7945 275.726 67.982 275.932C68.1159 276.074 68.2721 276.182 68.4506 276.253C68.6113 276.306 68.8077 276.333 69.0398 276.333C69.4236 276.333 69.7405 276.24 69.9905 276.052C70.2404 275.856 70.3565 275.597 70.3386 275.275ZM17.822 302.112V301.242C18.1612 301.286 18.3576 301.309 18.4112 301.309C18.7504 301.309 18.9914 301.184 19.1342 300.934C19.2235 300.8 19.2815 300.688 19.3083 300.599C19.3351 300.554 19.3931 300.407 19.4824 300.157L19.643 299.648L16.6972 292.846H18.1032L20.2858 298.35L22.0934 292.846H23.2717L20.5669 300.452C20.3527 301.059 20.1697 301.456 20.018 301.644C19.7144 302.001 19.3038 302.179 18.7861 302.179C18.3844 302.179 18.063 302.157 17.822 302.112ZM24.2364 302.126V292.846H25.3344V293.784H25.3746C25.9102 292.98 26.66 292.579 27.6241 292.579C28.5078 292.579 29.2398 292.887 29.82 293.502C30.4003 294.127 30.6904 295.042 30.6904 296.247C30.6904 297.479 30.3958 298.399 29.8066 299.006C29.2264 299.613 28.5078 299.916 27.6508 299.916C27.3831 299.916 27.0572 299.858 26.6734 299.742C26.111 299.573 25.6915 299.215 25.4147 298.671V302.126H24.2364ZM25.3344 296.274C25.3344 297.22 25.5486 297.93 25.9771 298.403C26.4234 298.858 26.9099 299.086 27.4366 299.086C27.9901 299.086 28.4632 298.863 28.8559 298.417C29.2487 297.952 29.4451 297.229 29.4451 296.247C29.4451 295.355 29.2621 294.658 28.8961 294.159C28.539 293.659 28.0302 293.409 27.3697 293.409C27.0215 293.409 26.6957 293.502 26.3922 293.69C25.687 294.109 25.3344 294.971 25.3344 296.274ZM32.0117 297.586C31.7796 296.631 31.7885 295.707 32.0385 294.815C32.2884 293.922 32.8151 293.284 33.6185 292.9C34.0648 292.686 34.587 292.579 35.1851 292.579C35.7832 292.579 36.3054 292.686 36.7517 292.9C37.5551 293.275 38.0863 293.944 38.3451 294.908C38.4612 295.355 38.5192 295.806 38.5192 296.261C38.5281 296.707 38.4746 297.149 38.3585 297.586C38.2514 298.015 38.0595 298.408 37.7828 298.765C37.515 299.122 37.1713 299.403 36.7517 299.608C36.2965 299.814 35.7743 299.916 35.1851 299.916C34.5959 299.916 34.0737 299.814 33.6185 299.608C32.8419 299.233 32.3063 298.559 32.0117 297.586ZM33.2569 294.895C33.1409 295.252 33.0829 295.698 33.0829 296.234C33.0829 296.761 33.1409 297.211 33.2569 297.586C33.373 297.961 33.5069 298.242 33.6586 298.43C33.98 298.787 34.346 298.997 34.7566 299.059C35.0423 299.104 35.3279 299.104 35.6136 299.059C35.7386 299.05 35.9126 298.988 36.1358 298.872C36.3768 298.747 36.5732 298.591 36.7249 298.403C36.8767 298.216 37.0061 297.943 37.1133 297.586C37.2293 297.211 37.2873 296.761 37.2873 296.234C37.2873 295.698 37.2293 295.252 37.1133 294.895C36.9883 294.502 36.8499 294.221 36.6982 294.051C36.5553 293.882 36.3768 293.739 36.1626 293.623C35.9483 293.507 35.7653 293.436 35.6136 293.409C35.3279 293.364 35.0423 293.364 34.7566 293.409C34.6316 293.418 34.4531 293.485 34.221 293.61C33.7658 293.833 33.4444 294.261 33.2569 294.895ZM40.0716 299.648V292.846H43.312C44.7492 292.846 45.4677 293.386 45.4677 294.467C45.4677 295.243 45.0571 295.774 44.2359 296.06V296.1C44.7893 296.234 45.1732 296.448 45.3874 296.743C45.6106 297.037 45.7222 297.417 45.7222 297.881C45.7222 298.622 45.4499 299.113 44.9054 299.354C44.459 299.55 43.9145 299.648 43.2718 299.648H40.0716ZM42.937 293.677H41.2499V295.685H42.8835C43.3566 295.685 43.7047 295.591 43.9279 295.404C44.16 295.207 44.276 294.953 44.276 294.641C44.276 293.998 43.8297 293.677 42.937 293.677ZM42.937 296.515H41.2499V298.818H42.9772C43.9949 298.818 44.5037 298.47 44.5037 297.774C44.5037 296.935 43.9815 296.515 42.937 296.515ZM52.1903 297.68H53.3151C53.208 298.278 52.9179 298.8 52.4447 299.247C51.9716 299.693 51.2709 299.916 50.3425 299.916C49.0839 299.916 48.16 299.501 47.5708 298.671C47.2762 298.234 47.0843 297.765 46.995 297.265C46.9325 296.917 46.9013 296.587 46.9013 296.274C46.9013 295.676 46.9906 295.114 47.1691 294.587C47.2851 294.212 47.4548 293.886 47.6779 293.61C47.9189 293.315 48.2626 293.07 48.7089 292.873C49.1553 292.677 49.6596 292.579 50.222 292.579C51.2218 292.579 51.9761 292.855 52.4849 293.409C52.6992 293.641 52.8732 293.935 53.0071 294.292C53.2035 294.81 53.324 295.44 53.3686 296.18C53.3686 296.207 53.3686 296.265 53.3686 296.355C53.3776 296.444 53.382 296.497 53.382 296.515H48.1466C48.1466 297.194 48.3251 297.792 48.6822 298.309C49.0392 298.827 49.5793 299.086 50.3024 299.086C50.8201 299.086 51.2441 298.957 51.5744 298.698C51.9047 298.439 52.11 298.1 52.1903 297.68ZM48.1466 295.685H52.1368C52.1278 295.158 52.0029 294.672 51.7619 294.226C51.4851 293.681 50.9808 293.409 50.2488 293.409C49.4186 293.409 48.8473 293.685 48.5349 294.239C48.276 294.685 48.1466 295.167 48.1466 295.685ZM59.4653 296.475H56.1044V299.648H54.9261V292.846H56.1044V295.645H59.4653V292.846H60.6436V299.648H59.4653V296.475ZM62.5756 299.648V292.846H63.7539V295.551H65.4544C66.1239 295.551 66.6997 295.649 67.1817 295.846C67.8512 296.087 68.186 296.649 68.186 297.533C68.186 298.265 67.9717 298.809 67.5433 299.166C67.3647 299.309 67.155 299.416 66.9139 299.488C66.5926 299.595 66.24 299.648 65.8561 299.648H62.5756ZM65.1866 296.381H63.7539V298.818H65.3875C65.9409 298.818 66.3471 298.707 66.606 298.484C66.8648 298.225 66.9854 297.908 66.9675 297.533C66.9675 297.122 66.8336 296.819 66.5658 296.622C66.4765 296.56 66.3337 296.506 66.1373 296.462C65.9231 296.408 65.6419 296.381 65.2938 296.381H65.1866ZM72.3646 297.586C72.1325 296.631 72.1414 295.707 72.3914 294.815C72.6413 293.922 73.168 293.284 73.9714 292.9C74.4177 292.686 74.9399 292.579 75.538 292.579C76.1361 292.579 76.6583 292.686 77.1046 292.9C77.908 293.275 78.4392 293.944 78.698 294.908C78.8141 295.355 78.8721 295.806 78.8721 296.261C78.881 296.707 78.8275 297.149 78.7114 297.586C78.6043 298.015 78.4124 298.408 78.1357 298.765C77.8679 299.122 77.5242 299.403 77.1046 299.608C76.6494 299.814 76.1272 299.916 75.538 299.916C74.9489 299.916 74.4266 299.814 73.9714 299.608C73.1948 299.233 72.6592 298.559 72.3646 297.586ZM73.6099 294.895C73.4938 295.252 73.4358 295.698 73.4358 296.234C73.4358 296.761 73.4938 297.211 73.6099 297.586C73.7259 297.961 73.8598 298.242 74.0116 298.43C74.3329 298.787 74.6989 298.997 75.1095 299.059C75.3952 299.104 75.6808 299.104 75.9665 299.059C76.0915 299.05 76.2655 298.988 76.4887 298.872C76.7297 298.747 76.9261 298.591 77.0779 298.403C77.2296 298.216 77.359 297.943 77.4662 297.586C77.5822 297.211 77.6402 296.761 77.6402 296.234C77.6402 295.698 77.5822 295.252 77.4662 294.895C77.3412 294.502 77.2028 294.221 77.0511 294.051C76.9082 293.882 76.7297 293.739 76.5155 293.623C76.3012 293.507 76.1182 293.436 75.9665 293.409C75.6808 293.364 75.3952 293.364 75.1095 293.409C74.9846 293.418 74.806 293.485 74.5739 293.61C74.1187 293.833 73.7973 294.261 73.6099 294.895ZM85.044 293.677H81.6028V299.648H80.4245V292.846H86.2223V299.648H85.044V293.677ZM89.0496 294.855H87.9249C87.9249 294.319 88.1034 293.828 88.4605 293.382C88.8889 292.846 89.6745 292.579 90.8171 292.579C91.4866 292.579 92.0757 292.712 92.5846 292.98C92.8791 293.123 93.1112 293.36 93.2808 293.69C93.4504 294.02 93.5308 294.413 93.5219 294.868L93.4549 298.015C93.4549 298.274 93.4817 298.475 93.5353 298.617C93.6156 298.76 93.8254 298.827 94.1646 298.818V299.648C94.0307 299.684 93.8521 299.702 93.629 299.702C93.2362 299.702 92.9506 299.635 92.772 299.501C92.6024 299.367 92.4819 299.104 92.4105 298.711C91.9731 299.515 91.1965 299.916 90.0806 299.916C89.313 299.916 88.7193 299.747 88.2998 299.407C87.8892 299.059 87.6838 298.546 87.6838 297.868C87.6838 297.225 87.9159 296.738 88.3801 296.408C88.8443 296.06 89.7236 295.828 91.0179 295.712C91.616 295.667 91.9731 295.609 92.0891 295.538C92.2587 295.422 92.3435 295.167 92.3435 294.774C92.3435 293.864 91.8347 293.409 90.8171 293.409C89.612 293.409 89.0228 293.891 89.0496 294.855ZM92.3168 296.743L92.3435 296.167C92.2096 296.265 92.0133 296.346 91.7544 296.408C91.3616 296.435 91.0581 296.466 90.8439 296.502C90.103 296.627 89.6522 296.729 89.4915 296.81C89.0987 296.997 88.9023 297.336 88.9023 297.827C88.9023 298.22 89.0184 298.528 89.2505 298.751C89.4915 298.974 89.8128 299.086 90.2145 299.086C90.4734 299.086 90.71 299.05 90.9242 298.979C91.1474 298.908 91.3616 298.791 91.5669 298.631C91.7812 298.461 91.9508 298.216 92.0757 297.894C92.2096 297.573 92.29 297.189 92.3168 296.743ZM100.32 297.225H101.445C101.409 297.743 101.213 298.287 100.856 298.858C100.66 299.18 100.352 299.439 99.9321 299.635C99.5215 299.823 99.0394 299.916 98.486 299.916C98.2985 299.916 98.1646 299.912 98.0843 299.903C97.6915 299.885 97.2898 299.782 96.8792 299.595C95.7366 299.024 95.1653 297.89 95.1653 296.194C95.1653 295.301 95.3706 294.507 95.7812 293.81C96.29 292.989 97.1648 292.579 98.4056 292.579C99.2804 292.579 99.9767 292.802 100.494 293.248C101.012 293.685 101.311 294.261 101.392 294.975H100.267C100.088 293.931 99.4768 293.409 98.4324 293.409C97.754 293.409 97.2452 293.659 96.906 294.159C96.5757 294.65 96.4105 295.328 96.4105 296.194C96.4105 297.033 96.5846 297.725 96.9327 298.269C97.2809 298.814 97.8075 299.086 98.5127 299.086C99.1198 299.086 99.5616 298.894 99.8384 298.51C100.133 298.126 100.294 297.698 100.32 297.225ZM107.428 296.475H104.068V299.648H102.889V292.846H104.068V295.645H107.428V292.846H108.607V299.648H107.428V296.475ZM110.325 297.586C110.092 296.631 110.101 295.707 110.351 294.815C110.601 293.922 111.128 293.284 111.931 292.9C112.378 292.686 112.9 292.579 113.498 292.579C114.096 292.579 114.618 292.686 115.065 292.9C115.868 293.275 116.399 293.944 116.658 294.908C116.774 295.355 116.832 295.806 116.832 296.261C116.841 296.707 116.787 297.149 116.671 297.586C116.564 298.015 116.372 298.408 116.096 298.765C115.828 299.122 115.484 299.403 115.065 299.608C114.609 299.814 114.087 299.916 113.498 299.916C112.909 299.916 112.387 299.814 111.931 299.608C111.155 299.233 110.619 298.559 110.325 297.586ZM111.57 294.895C111.454 295.252 111.396 295.698 111.396 296.234C111.396 296.761 111.454 297.211 111.57 297.586C111.686 297.961 111.82 298.242 111.972 298.43C112.293 298.787 112.659 298.997 113.07 299.059C113.355 299.104 113.641 299.104 113.926 299.059C114.051 299.05 114.226 298.988 114.449 298.872C114.69 298.747 114.886 298.591 115.038 298.403C115.19 298.216 115.319 297.943 115.426 297.586C115.542 297.211 115.6 296.761 115.6 296.234C115.6 295.698 115.542 295.252 115.426 294.895C115.301 294.502 115.163 294.221 115.011 294.051C114.868 293.882 114.69 293.739 114.475 293.623C114.261 293.507 114.078 293.436 113.926 293.409C113.641 293.364 113.355 293.364 113.07 293.409C112.945 293.418 112.766 293.485 112.534 293.61C112.079 293.833 111.757 294.261 111.57 294.895ZM123.151 297.225H124.276C124.24 297.743 124.044 298.287 123.687 298.858C123.491 299.18 123.183 299.439 122.763 299.635C122.352 299.823 121.87 299.916 121.317 299.916C121.129 299.916 120.996 299.912 120.915 299.903C120.522 299.885 120.121 299.782 119.71 299.595C118.567 299.024 117.996 297.89 117.996 296.194C117.996 295.301 118.201 294.507 118.612 293.81C119.121 292.989 119.996 292.579 121.237 292.579C122.111 292.579 122.808 292.802 123.325 293.248C123.843 293.685 124.142 294.261 124.222 294.975H123.098C122.919 293.931 122.308 293.409 121.263 293.409C120.585 293.409 120.076 293.659 119.737 294.159C119.407 294.65 119.241 295.328 119.241 296.194C119.241 297.033 119.416 297.725 119.764 298.269C120.112 298.814 120.638 299.086 121.344 299.086C121.951 299.086 122.393 298.894 122.669 298.51C122.964 298.126 123.125 297.698 123.151 297.225ZM127.051 299.648V293.677H124.695V292.846H130.586V293.677H128.23V299.648H127.051ZM132.665 292.846V298.269L136.213 292.846H137.526V299.648H136.347V294.212L132.812 299.648H131.487V292.846H132.665Z" fill="black"/>
<path d="M16.6035 240.514H19.6641V243.574H16.6035V240.514ZM22.7246 246.635H19.6641V243.574H22.7246V246.635ZM25.7852 249.695H22.7246V246.635H25.7852V249.695ZM28.8458 249.695H25.7852V252.756H22.7246V255.816H19.6641V258.877H16.6035V261.938H19.6641V258.877H22.7246V255.816H25.7852V252.756H28.8458V255.816H31.9063V258.877H34.9669V261.938H38.0274V258.877H34.9669V255.816H31.9063V252.756H28.8458V249.695ZM31.9063 246.635V249.695H28.8458V246.635H31.9063ZM34.9669 243.574V246.635H31.9063V243.574H34.9669ZM34.9669 243.574V240.514H38.0274V243.574H34.9669Z" fill="black"/>
<path d="M165.5 240.514H168.56V243.574H165.5V240.514ZM171.621 246.635H168.56V243.574H171.621V246.635ZM174.681 249.695H171.621V246.635H174.681V249.695ZM177.742 249.695H174.681V252.756H171.621V255.816H168.56V258.877H165.5V261.938H168.56V258.877H171.621V255.816H174.681V252.756H177.742V255.816H180.802V258.877H183.863V261.938H186.923V258.877H183.863V255.816H180.802V252.756H177.742V249.695ZM180.802 246.635V249.695H177.742V246.635H180.802ZM183.863 243.574V246.635H180.802V243.574H183.863ZM183.863 243.574V240.514H186.923V243.574H183.863Z" fill="black"/>
</svg>
