<svg width="595" height="595" viewBox="0 0 595 595" fill="none" xmlns="http://www.w3.org/2000/svg">
<rect width="595" height="595" fill="#D0D0D0"/>
<path d="M46.6 294.5V310.025H49.125L48.9 315.95H46.85V312H33.25V315.95H31.2L31 310.025H32.575C34.7917 307.258 35.9 303.283 35.9 298.1V294.5H46.6ZM44.25 310.025V296.475H38.25V298.65C38.25 301.133 38.0417 303.242 37.625 304.975C37.1917 306.775 36.4417 308.458 35.375 310.025H44.25ZM52.932 303.05H50.832C50.832 302.05 51.1654 301.133 51.832 300.3C52.632 299.3 54.0987 298.8 56.232 298.8C57.482 298.8 58.582 299.05 59.532 299.55C60.082 299.817 60.5154 300.258 60.832 300.875C61.1487 301.492 61.2987 302.225 61.282 303.075L61.157 308.95C61.157 309.433 61.207 309.808 61.307 310.075C61.457 310.342 61.8487 310.467 62.482 310.45V312C62.232 312.067 61.8987 312.1 61.482 312.1C60.7487 312.1 60.2154 311.975 59.882 311.725C59.5654 311.475 59.3404 310.983 59.207 310.25C58.3904 311.75 56.9404 312.5 54.857 312.5C53.4237 312.5 52.3154 312.183 51.532 311.55C50.7654 310.9 50.382 309.942 50.382 308.675C50.382 307.475 50.8154 306.567 51.682 305.95C52.5487 305.3 54.1904 304.867 56.607 304.65C57.7237 304.567 58.3904 304.458 58.607 304.325C58.9237 304.108 59.082 303.633 59.082 302.9C59.082 301.2 58.132 300.35 56.232 300.35C53.982 300.35 52.882 301.25 52.932 303.05ZM59.032 306.575L59.082 305.5C58.832 305.683 58.4654 305.833 57.982 305.95C57.2487 306 56.682 306.058 56.282 306.125C54.8987 306.358 54.057 306.55 53.757 306.7C53.0237 307.05 52.657 307.683 52.657 308.6C52.657 309.333 52.8737 309.908 53.307 310.325C53.757 310.742 54.357 310.95 55.107 310.95C55.5904 310.95 56.032 310.883 56.432 310.75C56.8487 310.617 57.2487 310.4 57.632 310.1C58.032 309.783 58.3487 309.325 58.582 308.725C58.832 308.125 58.982 307.408 59.032 306.575ZM73.5504 306.075H67.2754V312H65.0754V299.3H67.2754V304.525H73.5504V299.3H75.7504V312H73.5504V306.075ZM87.8326 306.075H81.5576V312H79.3576V299.3H81.5576V304.525H87.8326V299.3H90.0326V312H87.8326V306.075ZM93.6398 312V299.3H95.8398V304.325H99.0398C100.057 304.325 100.907 304.425 101.59 304.625C103.223 305.042 104.073 306.233 104.14 308.2C104.14 309.367 103.782 310.292 103.065 310.975C102.365 311.658 101.273 312 99.7898 312H93.6398ZM98.5148 305.875H95.8398V310.45H98.9148C100.882 310.45 101.865 309.65 101.865 308.05C101.865 307.267 101.607 306.7 101.09 306.35C100.923 306.217 100.648 306.108 100.265 306.025C99.8648 305.925 99.2815 305.875 98.5148 305.875ZM105.69 312V299.3H107.89V312H105.69ZM113.687 299.3V309.425L120.312 299.3H122.762V312H120.562V301.85L113.962 312H111.487V299.3H113.687ZM119.487 294.5H121.362C121.012 296.333 119.912 297.408 118.062 297.725C117.745 297.775 117.412 297.8 117.062 297.8C114.912 297.8 113.537 296.925 112.937 295.175C112.887 295.058 112.828 294.833 112.762 294.5H114.637C114.587 294.933 114.737 295.342 115.087 295.725C115.337 295.992 115.628 296.192 115.962 296.325C116.262 296.425 116.628 296.475 117.062 296.475C117.778 296.475 118.37 296.3 118.837 295.95C119.303 295.583 119.52 295.1 119.487 294.5ZM132.19 312V299.3H138.24C140.923 299.3 142.265 300.308 142.265 302.325C142.265 303.775 141.498 304.767 139.965 305.3V305.375C140.998 305.625 141.715 306.025 142.115 306.575C142.531 307.125 142.74 307.833 142.74 308.7C142.74 310.083 142.231 311 141.215 311.45C140.381 311.817 139.365 312 138.165 312H132.19ZM137.54 300.85H134.39V304.6H137.44C138.323 304.6 138.973 304.425 139.39 304.075C139.823 303.708 140.04 303.233 140.04 302.65C140.04 301.45 139.206 300.85 137.54 300.85ZM137.54 306.15H134.39V310.45H137.615C139.515 310.45 140.465 309.8 140.465 308.5C140.465 306.933 139.49 306.15 137.54 306.15ZM147.866 299.3V309.425L154.491 299.3H156.941V312H154.741V301.85L148.141 312H145.666V299.3H147.866ZM158.934 315.3L158.734 310.45H160.334C161.718 308.417 162.409 305.408 162.409 301.425V299.3H171.509V310.45H173.709L173.534 315.3H171.684V312H160.784V315.3H158.934ZM169.309 310.45V300.85H164.459V302.625C164.459 303.975 164.309 305.375 164.009 306.825C163.743 308.258 163.293 309.467 162.659 310.45H169.309ZM190.058 300.85H183.633V312H181.433V299.3H192.258V312H190.058V300.85ZM194.387 312V310.375C195.637 310.742 196.52 310.15 197.037 308.6C197.17 308.217 197.262 307.742 197.312 307.175L197.412 305.65C197.428 305.383 197.437 304.858 197.437 304.075V299.3H206.237V312H204.037V300.85H199.487V304.075C199.487 305.125 199.462 306.008 199.412 306.725C199.362 307.425 199.237 308.192 199.037 309.025C198.753 310.208 198.245 311.05 197.512 311.55C196.778 312.05 195.737 312.2 194.387 312ZM211.501 303.05H209.401C209.401 302.05 209.735 301.133 210.401 300.3C211.201 299.3 212.668 298.8 214.801 298.8C216.051 298.8 217.151 299.05 218.101 299.55C218.651 299.817 219.085 300.258 219.401 300.875C219.718 301.492 219.868 302.225 219.851 303.075L219.726 308.95C219.726 309.433 219.776 309.808 219.876 310.075C220.026 310.342 220.418 310.467 221.051 310.45V312C220.801 312.067 220.468 312.1 220.051 312.1C219.318 312.1 218.785 311.975 218.451 311.725C218.135 311.475 217.91 310.983 217.776 310.25C216.96 311.75 215.51 312.5 213.426 312.5C211.993 312.5 210.885 312.183 210.101 311.55C209.335 310.9 208.951 309.942 208.951 308.675C208.951 307.475 209.385 306.567 210.251 305.95C211.118 305.3 212.76 304.867 215.176 304.65C216.293 304.567 216.96 304.458 217.176 304.325C217.493 304.108 217.651 303.633 217.651 302.9C217.651 301.2 216.701 300.35 214.801 300.35C212.551 300.35 211.451 301.25 211.501 303.05ZM217.601 306.575L217.651 305.5C217.401 305.683 217.035 305.833 216.551 305.95C215.818 306 215.251 306.058 214.851 306.125C213.468 306.358 212.626 306.55 212.326 306.7C211.593 307.05 211.226 307.683 211.226 308.6C211.226 309.333 211.443 309.908 211.876 310.325C212.326 310.742 212.926 310.95 213.676 310.95C214.16 310.95 214.601 310.883 215.001 310.75C215.418 310.617 215.818 310.4 216.201 310.1C216.601 309.783 216.918 309.325 217.151 308.725C217.401 308.125 217.551 307.408 217.601 306.575ZM232.545 307.475H234.645C234.578 308.442 234.211 309.458 233.545 310.525C233.178 311.125 232.603 311.608 231.82 311.975C231.053 312.325 230.153 312.5 229.12 312.5C228.77 312.5 228.52 312.492 228.37 312.475C227.636 312.442 226.886 312.25 226.12 311.9C223.986 310.833 222.92 308.717 222.92 305.55C222.92 303.883 223.303 302.4 224.07 301.1C225.02 299.567 226.653 298.8 228.97 298.8C230.603 298.8 231.903 299.217 232.87 300.05C233.836 300.867 234.395 301.942 234.545 303.275H232.445C232.111 301.325 230.97 300.35 229.02 300.35C227.753 300.35 226.803 300.817 226.17 301.75C225.553 302.667 225.245 303.933 225.245 305.55C225.245 307.117 225.57 308.408 226.22 309.425C226.87 310.442 227.853 310.95 229.17 310.95C230.303 310.95 231.128 310.592 231.645 309.875C232.195 309.158 232.495 308.358 232.545 307.475ZM239.827 312V300.85H235.427V299.3H246.427V300.85H242.027V312H239.827ZM250.308 299.3V309.425L256.933 299.3H259.383V312H257.183V301.85L250.583 312H248.108V299.3H250.308ZM265.176 299.3V304.85L270.601 299.3H273.176L267.226 305.2L273.501 312H270.876L265.176 305.65V312H262.976V299.3H265.176ZM276.882 303.05H274.782C274.782 302.05 275.116 301.133 275.782 300.3C276.582 299.3 278.049 298.8 280.182 298.8C281.432 298.8 282.532 299.05 283.482 299.55C284.032 299.817 284.466 300.258 284.782 300.875C285.099 301.492 285.249 302.225 285.232 303.075L285.107 308.95C285.107 309.433 285.157 309.808 285.257 310.075C285.407 310.342 285.799 310.467 286.432 310.45V312C286.182 312.067 285.849 312.1 285.432 312.1C284.699 312.1 284.166 311.975 283.832 311.725C283.516 311.475 283.291 310.983 283.157 310.25C282.341 311.75 280.891 312.5 278.807 312.5C277.374 312.5 276.266 312.183 275.482 311.55C274.716 310.9 274.332 309.942 274.332 308.675C274.332 307.475 274.766 306.567 275.632 305.95C276.499 305.3 278.141 304.867 280.557 304.65C281.674 304.567 282.341 304.458 282.557 304.325C282.874 304.108 283.032 303.633 283.032 302.9C283.032 301.2 282.082 300.35 280.182 300.35C277.932 300.35 276.832 301.25 276.882 303.05ZM282.982 306.575L283.032 305.5C282.782 305.683 282.416 305.833 281.932 305.95C281.199 306 280.632 306.058 280.232 306.125C278.849 306.358 278.007 306.55 277.707 306.7C276.974 307.05 276.607 307.683 276.607 308.6C276.607 309.333 276.824 309.908 277.257 310.325C277.707 310.742 278.307 310.95 279.057 310.95C279.541 310.95 279.982 310.883 280.382 310.75C280.799 310.617 281.199 310.4 281.582 310.1C281.982 309.783 282.299 309.325 282.532 308.725C282.782 308.125 282.932 307.408 282.982 306.575ZM297.061 299.3V309.425L303.686 299.3H306.136V312H303.936V301.85L297.336 312H294.861V299.3H297.061ZM318.629 307.475H320.729C320.662 308.442 320.295 309.458 319.629 310.525C319.262 311.125 318.687 311.608 317.904 311.975C317.137 312.325 316.237 312.5 315.204 312.5C314.854 312.5 314.604 312.492 314.454 312.475C313.72 312.442 312.97 312.25 312.204 311.9C310.07 310.833 309.004 308.717 309.004 305.55C309.004 303.883 309.387 302.4 310.154 301.1C311.104 299.567 312.737 298.8 315.054 298.8C316.687 298.8 317.987 299.217 318.954 300.05C319.92 300.867 320.479 301.942 320.629 303.275H318.529C318.195 301.325 317.054 300.35 315.104 300.35C313.837 300.35 312.887 300.817 312.254 301.75C311.637 302.667 311.329 303.933 311.329 305.55C311.329 307.117 311.654 308.408 312.304 309.425C312.954 310.442 313.937 310.95 315.254 310.95C316.387 310.95 317.212 310.592 317.729 309.875C318.279 309.158 318.579 308.358 318.629 307.475ZM332.05 300.85H325.625V312H323.425V299.3H334.25V312H332.05V300.85ZM337.454 308.15C337.02 306.367 337.037 304.642 337.504 302.975C337.97 301.308 338.954 300.117 340.454 299.4C341.287 299 342.262 298.8 343.379 298.8C344.495 298.8 345.47 299 346.304 299.4C347.804 300.1 348.795 301.35 349.279 303.15C349.495 303.983 349.604 304.825 349.604 305.675C349.62 306.508 349.52 307.333 349.304 308.15C349.104 308.95 348.745 309.683 348.229 310.35C347.729 311.017 347.087 311.542 346.304 311.925C345.454 312.308 344.479 312.5 343.379 312.5C342.279 312.5 341.304 312.308 340.454 311.925C339.004 311.225 338.004 309.967 337.454 308.15ZM339.779 303.125C339.562 303.792 339.454 304.625 339.454 305.625C339.454 306.608 339.562 307.45 339.779 308.15C339.995 308.85 340.245 309.375 340.529 309.725C341.129 310.392 341.812 310.783 342.579 310.9C343.112 310.983 343.645 310.983 344.179 310.9C344.412 310.883 344.737 310.767 345.154 310.55C345.604 310.317 345.97 310.025 346.254 309.675C346.537 309.325 346.779 308.817 346.979 308.15C347.195 307.45 347.304 306.608 347.304 305.625C347.304 304.625 347.195 303.792 346.979 303.125C346.745 302.392 346.487 301.867 346.204 301.55C345.937 301.233 345.604 300.967 345.204 300.75C344.804 300.533 344.462 300.4 344.179 300.35C343.645 300.267 343.112 300.267 342.579 300.35C342.345 300.367 342.012 300.492 341.579 300.725C340.729 301.142 340.129 301.942 339.779 303.125ZM351.027 312V310.375C352.277 310.742 353.16 310.15 353.677 308.6C353.81 308.217 353.902 307.742 353.952 307.175L354.052 305.65C354.069 305.383 354.077 304.858 354.077 304.075V299.3H362.877V312H360.677V300.85H356.127V304.075C356.127 305.125 356.102 306.008 356.052 306.725C356.002 307.425 355.877 308.192 355.677 309.025C355.394 310.208 354.885 311.05 354.152 311.55C353.419 312.05 352.377 312.2 351.027 312ZM366.467 312V299.3H368.667V304.35H371.842C373.092 304.35 374.167 304.533 375.067 304.9C376.317 305.35 376.942 306.4 376.942 308.05C376.942 309.417 376.542 310.433 375.742 311.1C375.409 311.367 375.017 311.567 374.567 311.7C373.967 311.9 373.309 312 372.592 312H366.467ZM371.342 305.9H368.667V310.45H371.717C372.75 310.45 373.509 310.242 373.992 309.825C374.475 309.342 374.7 308.75 374.667 308.05C374.667 307.283 374.417 306.717 373.917 306.35C373.75 306.233 373.484 306.133 373.117 306.05C372.717 305.95 372.192 305.9 371.542 305.9H371.342ZM378.162 308.1H380.262C380.262 308.933 380.562 309.617 381.162 310.15C381.762 310.683 382.587 310.95 383.637 310.95C384.671 310.95 385.479 310.742 386.062 310.325C386.646 309.892 386.937 309.267 386.937 308.45C386.937 306.933 385.979 306.175 384.062 306.175H382.187V304.625H383.812C385.579 304.625 386.462 303.967 386.462 302.65C386.462 302.433 386.429 302.217 386.362 302C386.312 301.783 386.196 301.542 386.012 301.275C385.846 300.992 385.554 300.767 385.137 300.6C384.721 300.433 384.204 300.35 383.587 300.35C382.487 300.35 381.712 300.608 381.262 301.125C380.812 301.642 380.587 302.2 380.587 302.8H378.487C378.537 301.933 378.762 301.208 379.162 300.625C379.562 300.042 380.079 299.625 380.712 299.375C381.746 298.992 382.746 298.8 383.712 298.8C384.562 298.8 385.312 298.9 385.962 299.1C386.612 299.283 387.104 299.508 387.437 299.775C387.787 300.042 388.062 300.358 388.262 300.725C388.479 301.092 388.612 301.417 388.662 301.7C388.712 301.967 388.737 302.233 388.737 302.5C388.737 303.983 388.004 304.908 386.537 305.275V305.35C387.321 305.467 387.962 305.808 388.462 306.375C388.962 306.942 389.212 307.683 389.212 308.6C389.212 309.533 388.879 310.383 388.212 311.15C387.396 312.05 385.929 312.5 383.812 312.5C382.029 312.5 380.671 312.125 379.737 311.375C378.687 310.458 378.162 309.367 378.162 308.1ZM392.235 316.6V314.975C392.868 315.058 393.235 315.1 393.335 315.1C393.968 315.1 394.418 314.867 394.685 314.4C394.852 314.15 394.96 313.942 395.01 313.775C395.06 313.692 395.168 313.417 395.335 312.95L395.635 312L390.135 299.3H392.76L396.835 309.575L400.21 299.3H402.41L397.36 313.5C396.96 314.633 396.618 315.375 396.335 315.725C395.768 316.392 395.002 316.725 394.035 316.725C393.285 316.725 392.685 316.683 392.235 316.6ZM413.361 308.325H415.461C415.261 309.442 414.719 310.417 413.836 311.25C412.953 312.083 411.644 312.5 409.911 312.5C407.561 312.5 405.836 311.725 404.736 310.175C404.186 309.358 403.828 308.483 403.661 307.55C403.544 306.9 403.486 306.283 403.486 305.7C403.486 304.583 403.653 303.533 403.986 302.55C404.203 301.85 404.519 301.242 404.936 300.725C405.386 300.175 406.028 299.717 406.861 299.35C407.694 298.983 408.636 298.8 409.686 298.8C411.553 298.8 412.961 299.317 413.911 300.35C414.311 300.783 414.636 301.333 414.886 302C415.253 302.967 415.478 304.142 415.561 305.525C415.561 305.575 415.561 305.683 415.561 305.85C415.578 306.017 415.586 306.117 415.586 306.15H405.811C405.811 307.417 406.144 308.533 406.811 309.5C407.478 310.467 408.486 310.95 409.836 310.95C410.803 310.95 411.594 310.708 412.211 310.225C412.828 309.742 413.211 309.108 413.361 308.325ZM405.811 304.6H413.261C413.244 303.617 413.011 302.708 412.561 301.875C412.044 300.858 411.103 300.35 409.736 300.35C408.186 300.35 407.119 300.867 406.536 301.9C406.053 302.733 405.811 303.633 405.811 304.6ZM421.394 312V300.85H416.994V299.3H427.994V300.85H423.594V312H421.394ZM438.38 307.475H440.48C440.413 308.442 440.046 309.458 439.38 310.525C439.013 311.125 438.438 311.608 437.655 311.975C436.888 312.325 435.988 312.5 434.955 312.5C434.605 312.5 434.355 312.492 434.205 312.475C433.471 312.442 432.721 312.25 431.955 311.9C429.821 310.833 428.755 308.717 428.755 305.55C428.755 303.883 429.138 302.4 429.905 301.1C430.855 299.567 432.488 298.8 434.805 298.8C436.438 298.8 437.738 299.217 438.705 300.05C439.671 300.867 440.23 301.942 440.38 303.275H438.28C437.946 301.325 436.805 300.35 434.855 300.35C433.588 300.35 432.638 300.817 432.005 301.75C431.388 302.667 431.08 303.933 431.08 305.55C431.08 307.117 431.405 308.408 432.055 309.425C432.705 310.442 433.688 310.95 435.005 310.95C436.138 310.95 436.963 310.592 437.48 309.875C438.03 309.158 438.33 308.358 438.38 307.475ZM450.951 307H448.051L444.726 312H442.301L445.801 306.975C444.834 306.875 444.051 306.5 443.451 305.85C442.851 305.2 442.551 304.35 442.551 303.3C442.551 302.317 442.809 301.458 443.326 300.725C443.943 299.775 445.109 299.3 446.826 299.3H453.151V312H450.951V307ZM450.951 305.45V300.85H447.776C445.809 300.85 444.826 301.642 444.826 303.225C444.826 303.875 445.068 304.408 445.551 304.825C446.034 305.242 446.801 305.45 447.851 305.45H450.951ZM31.2 343.3L31 338.45H32.6C33.9833 336.417 34.675 333.408 34.675 329.425V327.3H43.775V338.45H45.975L45.8 343.3H43.95V340H33.05V343.3H31.2ZM41.575 338.45V328.85H36.725V330.625C36.725 331.975 36.575 333.375 36.275 334.825C36.0083 336.258 35.5583 337.467 34.925 338.45H41.575ZM47.0232 340V338.375C48.2732 338.742 49.1566 338.15 49.6732 336.6C49.8066 336.217 49.8982 335.742 49.9482 335.175L50.0482 333.65C50.0649 333.383 50.0732 332.858 50.0732 332.075V327.3H58.8732V340H56.6732V328.85H52.1232V332.075C52.1232 333.125 52.0982 334.008 52.0482 334.725C51.9982 335.425 51.8732 336.192 51.6732 337.025C51.3899 338.208 50.8816 339.05 50.1482 339.55C49.4149 340.05 48.3732 340.2 47.0232 340ZM70.2381 335H67.3381L64.0131 340H61.5881L65.0881 334.975C64.1214 334.875 63.3381 334.5 62.7381 333.85C62.1381 333.2 61.8381 332.35 61.8381 331.3C61.8381 330.317 62.0964 329.458 62.6131 328.725C63.2298 327.775 64.3964 327.3 66.1131 327.3H72.4381V340H70.2381V335ZM70.2381 333.45V328.85H67.0631C65.0964 328.85 64.1131 329.642 64.1131 331.225C64.1131 331.875 64.3548 332.408 64.8381 332.825C65.3214 333.242 66.0881 333.45 67.1381 333.45H70.2381ZM84.0723 327.3V337.425L90.6973 327.3H93.1473V340H90.9473V329.85L84.3473 340H81.8723V327.3H84.0723ZM95.7404 336.1H97.8404C97.8404 336.933 98.1404 337.617 98.7404 338.15C99.3404 338.683 100.165 338.95 101.215 338.95C102.249 338.95 103.057 338.742 103.64 338.325C104.224 337.892 104.515 337.267 104.515 336.45C104.515 334.933 103.557 334.175 101.64 334.175H99.7654V332.625H101.39C103.157 332.625 104.04 331.967 104.04 330.65C104.04 330.433 104.007 330.217 103.94 330C103.89 329.783 103.774 329.542 103.59 329.275C103.424 328.992 103.132 328.767 102.715 328.6C102.299 328.433 101.782 328.35 101.165 328.35C100.065 328.35 99.2904 328.608 98.8404 329.125C98.3904 329.642 98.1654 330.2 98.1654 330.8H96.0654C96.1154 329.933 96.3404 329.208 96.7404 328.625C97.1404 328.042 97.6571 327.625 98.2904 327.375C99.3238 326.992 100.324 326.8 101.29 326.8C102.14 326.8 102.89 326.9 103.54 327.1C104.19 327.283 104.682 327.508 105.015 327.775C105.365 328.042 105.64 328.358 105.84 328.725C106.057 329.092 106.19 329.417 106.24 329.7C106.29 329.967 106.315 330.233 106.315 330.5C106.315 331.983 105.582 332.908 104.115 333.275V333.35C104.899 333.467 105.54 333.808 106.04 334.375C106.54 334.942 106.79 335.683 106.79 336.6C106.79 337.533 106.457 338.383 105.79 339.15C104.974 340.05 103.507 340.5 101.39 340.5C99.6071 340.5 98.2488 340.125 97.3154 339.375C96.2654 338.458 95.7404 337.367 95.7404 336.1ZM118.355 328.85H111.855V340H109.655V327.3H118.355V328.85ZM119.436 336.15C119.003 334.367 119.019 332.642 119.486 330.975C119.953 329.308 120.936 328.117 122.436 327.4C123.269 327 124.244 326.8 125.361 326.8C126.478 326.8 127.453 327 128.286 327.4C129.786 328.1 130.778 329.35 131.261 331.15C131.478 331.983 131.586 332.825 131.586 333.675C131.603 334.508 131.503 335.333 131.286 336.15C131.086 336.95 130.728 337.683 130.211 338.35C129.711 339.017 129.069 339.542 128.286 339.925C127.436 340.308 126.461 340.5 125.361 340.5C124.261 340.5 123.286 340.308 122.436 339.925C120.986 339.225 119.986 337.967 119.436 336.15ZM121.761 331.125C121.544 331.792 121.436 332.625 121.436 333.625C121.436 334.608 121.544 335.45 121.761 336.15C121.978 336.85 122.228 337.375 122.511 337.725C123.111 338.392 123.794 338.783 124.561 338.9C125.094 338.983 125.628 338.983 126.161 338.9C126.394 338.883 126.719 338.767 127.136 338.55C127.586 338.317 127.953 338.025 128.236 337.675C128.519 337.325 128.761 336.817 128.961 336.15C129.178 335.45 129.286 334.608 129.286 333.625C129.286 332.625 129.178 331.792 128.961 331.125C128.728 330.392 128.469 329.867 128.186 329.55C127.919 329.233 127.586 328.967 127.186 328.75C126.786 328.533 126.444 328.4 126.161 328.35C125.628 328.267 125.094 328.267 124.561 328.35C124.328 328.367 123.994 328.492 123.561 328.725C122.711 329.142 122.111 329.942 121.761 331.125ZM136.628 340V328.85H132.228V327.3H143.228V328.85H138.828V340H136.628ZM144.485 336.15C144.052 334.367 144.068 332.642 144.535 330.975C145.002 329.308 145.985 328.117 147.485 327.4C148.318 327 149.293 326.8 150.41 326.8C151.527 326.8 152.502 327 153.335 327.4C154.835 328.1 155.827 329.35 156.31 331.15C156.527 331.983 156.635 332.825 156.635 333.675C156.652 334.508 156.552 335.333 156.335 336.15C156.135 336.95 155.777 337.683 155.26 338.35C154.76 339.017 154.118 339.542 153.335 339.925C152.485 340.308 151.51 340.5 150.41 340.5C149.31 340.5 148.335 340.308 147.485 339.925C146.035 339.225 145.035 337.967 144.485 336.15ZM146.81 331.125C146.593 331.792 146.485 332.625 146.485 333.625C146.485 334.608 146.593 335.45 146.81 336.15C147.027 336.85 147.277 337.375 147.56 337.725C148.16 338.392 148.843 338.783 149.61 338.9C150.143 338.983 150.677 338.983 151.21 338.9C151.443 338.883 151.768 338.767 152.185 338.55C152.635 338.317 153.002 338.025 153.285 337.675C153.568 337.325 153.81 336.817 154.01 336.15C154.227 335.45 154.335 334.608 154.335 333.625C154.335 332.625 154.227 331.792 154.01 331.125C153.777 330.392 153.518 329.867 153.235 329.55C152.968 329.233 152.635 328.967 152.235 328.75C151.835 328.533 151.493 328.4 151.21 328.35C150.677 328.267 150.143 328.267 149.61 328.35C149.377 328.367 149.043 328.492 148.61 328.725C147.76 329.142 147.16 329.942 146.81 331.125ZM159.533 340V327.3H165.583C168.267 327.3 169.608 328.308 169.608 330.325C169.608 331.775 168.842 332.767 167.308 333.3V333.375C168.342 333.625 169.058 334.025 169.458 334.575C169.875 335.125 170.083 335.833 170.083 336.7C170.083 338.083 169.575 339 168.558 339.45C167.725 339.817 166.708 340 165.508 340H159.533ZM164.883 328.85H161.733V332.6H164.783C165.667 332.6 166.317 332.425 166.733 332.075C167.167 331.708 167.383 331.233 167.383 330.65C167.383 329.45 166.55 328.85 164.883 328.85ZM164.883 334.15H161.733V338.45H164.958C166.858 338.45 167.808 337.8 167.808 336.5C167.808 334.933 166.833 334.15 164.883 334.15ZM171.535 340V338.375C172.785 338.742 173.668 338.15 174.185 336.6C174.318 336.217 174.41 335.742 174.46 335.175L174.56 333.65C174.577 333.383 174.585 332.858 174.585 332.075V327.3H183.385V340H181.185V328.85H176.635V332.075C176.635 333.125 176.61 334.008 176.56 334.725C176.51 335.425 176.385 336.192 176.185 337.025C175.902 338.208 175.393 339.05 174.66 339.55C173.927 340.05 172.885 340.2 171.535 340ZM196.125 336.325H198.225C198.025 337.442 197.483 338.417 196.6 339.25C195.716 340.083 194.408 340.5 192.675 340.5C190.325 340.5 188.6 339.725 187.5 338.175C186.95 337.358 186.591 336.483 186.425 335.55C186.308 334.9 186.25 334.283 186.25 333.7C186.25 332.583 186.416 331.533 186.75 330.55C186.966 329.85 187.283 329.242 187.7 328.725C188.15 328.175 188.791 327.717 189.625 327.35C190.458 326.983 191.4 326.8 192.45 326.8C194.316 326.8 195.725 327.317 196.675 328.35C197.075 328.783 197.4 329.333 197.65 330C198.016 330.967 198.241 332.142 198.325 333.525C198.325 333.575 198.325 333.683 198.325 333.85C198.341 334.017 198.35 334.117 198.35 334.15H188.575C188.575 335.417 188.908 336.533 189.575 337.5C190.241 338.467 191.25 338.95 192.6 338.95C193.566 338.95 194.358 338.708 194.975 338.225C195.591 337.742 195.975 337.108 196.125 336.325ZM188.575 332.6H196.025C196.008 331.617 195.775 330.708 195.325 329.875C194.808 328.858 193.866 328.35 192.5 328.35C190.95 328.35 189.883 328.867 189.3 329.9C188.816 330.733 188.575 331.633 188.575 332.6ZM209.708 334.075H203.433V340H201.233V327.3H203.433V332.525H209.708V327.3H211.908V340H209.708V334.075ZM217.715 327.3V337.425L224.34 327.3H226.79V340H224.59V329.85L217.99 340H215.515V327.3H217.715ZM238.158 335H235.258L231.933 340H229.508L233.008 334.975C232.041 334.875 231.258 334.5 230.658 333.85C230.058 333.2 229.758 332.35 229.758 331.3C229.758 330.317 230.016 329.458 230.533 328.725C231.15 327.775 232.316 327.3 234.033 327.3H240.358V340H238.158V335ZM238.158 333.45V328.85H234.983C233.016 328.85 232.033 329.642 232.033 331.225C232.033 331.875 232.275 332.408 232.758 332.825C233.241 333.242 234.008 333.45 235.058 333.45H238.158ZM249.792 340V327.3H255.842C258.526 327.3 259.867 328.308 259.867 330.325C259.867 331.775 259.101 332.767 257.567 333.3V333.375C258.601 333.625 259.317 334.025 259.717 334.575C260.134 335.125 260.342 335.833 260.342 336.7C260.342 338.083 259.834 339 258.817 339.45C257.984 339.817 256.967 340 255.767 340H249.792ZM255.142 328.85H251.992V332.6H255.042C255.926 332.6 256.576 332.425 256.992 332.075C257.426 331.708 257.642 331.233 257.642 330.65C257.642 329.45 256.809 328.85 255.142 328.85ZM255.142 334.15H251.992V338.45H255.217C257.117 338.45 258.067 337.8 258.067 336.5C258.067 334.933 257.092 334.15 255.142 334.15ZM272.169 335.475H274.269C274.202 336.442 273.835 337.458 273.169 338.525C272.802 339.125 272.227 339.608 271.444 339.975C270.677 340.325 269.777 340.5 268.744 340.5C268.394 340.5 268.144 340.492 267.994 340.475C267.26 340.442 266.51 340.25 265.744 339.9C263.61 338.833 262.544 336.717 262.544 333.55C262.544 331.883 262.927 330.4 263.694 329.1C264.644 327.567 266.277 326.8 268.594 326.8C270.227 326.8 271.527 327.217 272.494 328.05C273.46 328.867 274.019 329.942 274.169 331.275H272.069C271.735 329.325 270.594 328.35 268.644 328.35C267.377 328.35 266.427 328.817 265.794 329.75C265.177 330.667 264.869 331.933 264.869 333.55C264.869 335.117 265.194 336.408 265.844 337.425C266.494 338.442 267.477 338.95 268.794 338.95C269.927 338.95 270.752 338.592 271.269 337.875C271.819 337.158 272.119 336.358 272.169 335.475ZM286.115 336.325H288.215C288.015 337.442 287.473 338.417 286.59 339.25C285.707 340.083 284.398 340.5 282.665 340.5C280.315 340.5 278.59 339.725 277.49 338.175C276.94 337.358 276.582 336.483 276.415 335.55C276.298 334.9 276.24 334.283 276.24 333.7C276.24 332.583 276.407 331.533 276.74 330.55C276.957 329.85 277.273 329.242 277.69 328.725C278.14 328.175 278.782 327.717 279.615 327.35C280.448 326.983 281.39 326.8 282.44 326.8C284.307 326.8 285.715 327.317 286.665 328.35C287.065 328.783 287.39 329.333 287.64 330C288.007 330.967 288.232 332.142 288.315 333.525C288.315 333.575 288.315 333.683 288.315 333.85C288.332 334.017 288.34 334.117 288.34 334.15H278.565C278.565 335.417 278.898 336.533 279.565 337.5C280.232 338.467 281.24 338.95 282.59 338.95C283.557 338.95 284.348 338.708 284.965 338.225C285.582 337.742 285.965 337.108 286.115 336.325ZM278.565 332.6H286.015C285.998 331.617 285.765 330.708 285.315 329.875C284.798 328.858 283.857 328.35 282.49 328.35C280.94 328.35 279.873 328.867 279.29 329.9C278.807 330.733 278.565 331.633 278.565 332.6ZM299.923 328.85H293.423V340H291.223V327.3H299.923V328.85ZM301.004 336.15C300.57 334.367 300.587 332.642 301.054 330.975C301.52 329.308 302.504 328.117 304.004 327.4C304.837 327 305.812 326.8 306.929 326.8C308.045 326.8 309.02 327 309.854 327.4C311.354 328.1 312.345 329.35 312.829 331.15C313.045 331.983 313.154 332.825 313.154 333.675C313.17 334.508 313.07 335.333 312.854 336.15C312.654 336.95 312.295 337.683 311.779 338.35C311.279 339.017 310.637 339.542 309.854 339.925C309.004 340.308 308.029 340.5 306.929 340.5C305.829 340.5 304.854 340.308 304.004 339.925C302.554 339.225 301.554 337.967 301.004 336.15ZM303.329 331.125C303.112 331.792 303.004 332.625 303.004 333.625C303.004 334.608 303.112 335.45 303.329 336.15C303.545 336.85 303.795 337.375 304.079 337.725C304.679 338.392 305.362 338.783 306.129 338.9C306.662 338.983 307.195 338.983 307.729 338.9C307.962 338.883 308.287 338.767 308.704 338.55C309.154 338.317 309.52 338.025 309.804 337.675C310.087 337.325 310.329 336.817 310.529 336.15C310.745 335.45 310.854 334.608 310.854 333.625C310.854 332.625 310.745 331.792 310.529 331.125C310.295 330.392 310.037 329.867 309.754 329.55C309.487 329.233 309.154 328.967 308.754 328.75C308.354 328.533 308.012 328.4 307.729 328.35C307.195 328.267 306.662 328.267 306.129 328.35C305.895 328.367 305.562 328.492 305.129 328.725C304.279 329.142 303.679 329.942 303.329 331.125ZM330.512 328.85H324.087V340H321.887V327.3H332.712V340H330.512V328.85ZM334.841 340V338.375C336.091 338.742 336.974 338.15 337.491 336.6C337.624 336.217 337.716 335.742 337.766 335.175L337.866 333.65C337.882 333.383 337.891 332.858 337.891 332.075V327.3H346.691V340H344.491V328.85H339.941V332.075C339.941 333.125 339.916 334.008 339.866 334.725C339.816 335.425 339.691 336.192 339.491 337.025C339.207 338.208 338.699 339.05 337.966 339.55C337.232 340.05 336.191 340.2 334.841 340ZM351.955 331.05H349.855C349.855 330.05 350.189 329.133 350.855 328.3C351.655 327.3 353.122 326.8 355.255 326.8C356.505 326.8 357.605 327.05 358.555 327.55C359.105 327.817 359.539 328.258 359.855 328.875C360.172 329.492 360.322 330.225 360.305 331.075L360.18 336.95C360.18 337.433 360.23 337.808 360.33 338.075C360.48 338.342 360.872 338.467 361.505 338.45V340C361.255 340.067 360.922 340.1 360.505 340.1C359.772 340.1 359.239 339.975 358.905 339.725C358.589 339.475 358.364 338.983 358.23 338.25C357.414 339.75 355.964 340.5 353.88 340.5C352.447 340.5 351.339 340.183 350.555 339.55C349.789 338.9 349.405 337.942 349.405 336.675C349.405 335.475 349.839 334.567 350.705 333.95C351.572 333.3 353.214 332.867 355.63 332.65C356.747 332.567 357.414 332.458 357.63 332.325C357.947 332.108 358.105 331.633 358.105 330.9C358.105 329.2 357.155 328.35 355.255 328.35C353.005 328.35 351.905 329.25 351.955 331.05ZM358.055 334.575L358.105 333.5C357.855 333.683 357.489 333.833 357.005 333.95C356.272 334 355.705 334.058 355.305 334.125C353.922 334.358 353.08 334.55 352.78 334.7C352.047 335.05 351.68 335.683 351.68 336.6C351.68 337.333 351.897 337.908 352.33 338.325C352.78 338.742 353.38 338.95 354.13 338.95C354.614 338.95 355.055 338.883 355.455 338.75C355.872 338.617 356.272 338.4 356.655 338.1C357.055 337.783 357.372 337.325 357.605 336.725C357.855 336.125 358.005 335.408 358.055 334.575ZM372.999 335.475H375.099C375.032 336.442 374.665 337.458 373.999 338.525C373.632 339.125 373.057 339.608 372.274 339.975C371.507 340.325 370.607 340.5 369.574 340.5C369.224 340.5 368.974 340.492 368.824 340.475C368.09 340.442 367.34 340.25 366.574 339.9C364.44 338.833 363.374 336.717 363.374 333.55C363.374 331.883 363.757 330.4 364.524 329.1C365.474 327.567 367.107 326.8 369.424 326.8C371.057 326.8 372.357 327.217 373.324 328.05C374.29 328.867 374.849 329.942 374.999 331.275H372.899C372.565 329.325 371.424 328.35 369.474 328.35C368.207 328.35 367.257 328.817 366.624 329.75C366.007 330.667 365.699 331.933 365.699 333.55C365.699 335.117 366.024 336.408 366.674 337.425C367.324 338.442 368.307 338.95 369.624 338.95C370.757 338.95 371.582 338.592 372.099 337.875C372.649 337.158 372.949 336.358 372.999 335.475ZM380.281 340V328.85H375.881V327.3H386.881V328.85H382.481V340H380.281ZM390.762 327.3V337.425L397.387 327.3H399.837V340H397.637V329.85L391.037 340H388.562V327.3H390.762ZM405.63 327.3V332.85L411.055 327.3H413.63L407.68 333.2L413.955 340H411.33L405.63 333.65V340H403.43V327.3H405.63ZM417.336 331.05H415.236C415.236 330.05 415.57 329.133 416.236 328.3C417.036 327.3 418.503 326.8 420.636 326.8C421.886 326.8 422.986 327.05 423.936 327.55C424.486 327.817 424.92 328.258 425.236 328.875C425.553 329.492 425.703 330.225 425.686 331.075L425.561 336.95C425.561 337.433 425.611 337.808 425.711 338.075C425.861 338.342 426.253 338.467 426.886 338.45V340C426.636 340.067 426.303 340.1 425.886 340.1C425.153 340.1 424.62 339.975 424.286 339.725C423.97 339.475 423.745 338.983 423.611 338.25C422.795 339.75 421.345 340.5 419.261 340.5C417.828 340.5 416.72 340.183 415.936 339.55C415.17 338.9 414.786 337.942 414.786 336.675C414.786 335.475 415.22 334.567 416.086 333.95C416.953 333.3 418.595 332.867 421.011 332.65C422.128 332.567 422.795 332.458 423.011 332.325C423.328 332.108 423.486 331.633 423.486 330.9C423.486 329.2 422.536 328.35 420.636 328.35C418.386 328.35 417.286 329.25 417.336 331.05ZM423.436 334.575L423.486 333.5C423.236 333.683 422.87 333.833 422.386 333.95C421.653 334 421.086 334.058 420.686 334.125C419.303 334.358 418.461 334.55 418.161 334.7C417.428 335.05 417.061 335.683 417.061 336.6C417.061 337.333 417.278 337.908 417.711 338.325C418.161 338.742 418.761 338.95 419.511 338.95C419.995 338.95 420.436 338.883 420.836 338.75C421.253 338.617 421.653 338.4 422.036 338.1C422.436 337.783 422.753 337.325 422.986 336.725C423.236 336.125 423.386 335.408 423.436 334.575ZM430.33 340V337.275H432.805V340.775C432.805 341.608 432.571 342.267 432.105 342.75C431.638 343.233 431.046 343.55 430.33 343.7V342.325C430.68 342.292 430.971 342.117 431.205 341.8C431.455 341.5 431.58 341.158 431.58 340.775V340H430.33ZM41.275 362.075H35V368H32.8V355.3H35V360.525H41.275V355.3H43.475V368H41.275V362.075ZM56.2322 364.325H58.3322C58.1322 365.442 57.5906 366.417 56.7072 367.25C55.8239 368.083 54.5156 368.5 52.7822 368.5C50.4322 368.5 48.7072 367.725 47.6072 366.175C47.0572 365.358 46.6989 364.483 46.5322 363.55C46.4156 362.9 46.3572 362.283 46.3572 361.7C46.3572 360.583 46.5239 359.533 46.8572 358.55C47.0739 357.85 47.3906 357.242 47.8072 356.725C48.2572 356.175 48.8989 355.717 49.7322 355.35C50.5656 354.983 51.5072 354.8 52.5572 354.8C54.4239 354.8 55.8322 355.317 56.7822 356.35C57.1822 356.783 57.5072 357.333 57.7572 358C58.1239 358.967 58.3489 360.142 58.4322 361.525C58.4322 361.575 58.4322 361.683 58.4322 361.85C58.4489 362.017 58.4572 362.117 58.4572 362.15H48.6822C48.6822 363.417 49.0156 364.533 49.6822 365.5C50.3489 366.467 51.3572 366.95 52.7072 366.95C53.6739 366.95 54.4656 366.708 55.0822 366.225C55.6989 365.742 56.0822 365.108 56.2322 364.325ZM48.6822 360.6H56.1322C56.1156 359.617 55.8822 358.708 55.4322 357.875C54.9156 356.858 53.9739 356.35 52.6072 356.35C51.0572 356.35 49.9906 356.867 49.4072 357.9C48.9239 358.733 48.6822 359.633 48.6822 360.6ZM67.175 368V355.3H73.225C75.9083 355.3 77.25 356.308 77.25 358.325C77.25 359.775 76.4833 360.767 74.95 361.3V361.375C75.9833 361.625 76.7 362.025 77.1 362.575C77.5167 363.125 77.725 363.833 77.725 364.7C77.725 366.083 77.2167 367 76.2 367.45C75.3667 367.817 74.35 368 73.15 368H67.175ZM72.525 356.85H69.375V360.6H72.425C73.3083 360.6 73.9583 360.425 74.375 360.075C74.8083 359.708 75.025 359.233 75.025 358.65C75.025 357.45 74.1917 356.85 72.525 356.85ZM72.525 362.15H69.375V366.45H72.6C74.5 366.45 75.45 365.8 75.45 364.5C75.45 362.933 74.475 362.15 72.525 362.15ZM80.2516 364.15C79.8182 362.367 79.8349 360.642 80.3016 358.975C80.7682 357.308 81.7516 356.117 83.2516 355.4C84.0849 355 85.0599 354.8 86.1766 354.8C87.2932 354.8 88.2682 355 89.1016 355.4C90.6016 356.1 91.5932 357.35 92.0766 359.15C92.2932 359.983 92.4016 360.825 92.4016 361.675C92.4182 362.508 92.3182 363.333 92.1016 364.15C91.9016 364.95 91.5432 365.683 91.0266 366.35C90.5266 367.017 89.8849 367.542 89.1016 367.925C88.2516 368.308 87.2766 368.5 86.1766 368.5C85.0766 368.5 84.1016 368.308 83.2516 367.925C81.8016 367.225 80.8016 365.967 80.2516 364.15ZM82.5766 359.125C82.3599 359.792 82.2516 360.625 82.2516 361.625C82.2516 362.608 82.3599 363.45 82.5766 364.15C82.7932 364.85 83.0432 365.375 83.3266 365.725C83.9266 366.392 84.6099 366.783 85.3766 366.9C85.9099 366.983 86.4432 366.983 86.9766 366.9C87.2099 366.883 87.5349 366.767 87.9516 366.55C88.4016 366.317 88.7682 366.025 89.0516 365.675C89.3349 365.325 89.5766 364.817 89.7766 364.15C89.9932 363.45 90.1016 362.608 90.1016 361.625C90.1016 360.625 89.9932 359.792 89.7766 359.125C89.5432 358.392 89.2849 357.867 89.0016 357.55C88.7349 357.233 88.4016 356.967 88.0016 356.75C87.6016 356.533 87.2599 356.4 86.9766 356.35C86.4432 356.267 85.9099 356.267 85.3766 356.35C85.1432 356.367 84.8099 356.492 84.3766 356.725C83.5266 357.142 82.9266 357.942 82.5766 359.125ZM97.5 355.3V366.45H102.8V355.3H105V366.45H110.3V355.3H112.5V368H95.3V355.3H97.5ZM125.251 364.325H127.351C127.151 365.442 126.609 366.417 125.726 367.25C124.842 368.083 123.534 368.5 121.801 368.5C119.451 368.5 117.726 367.725 116.626 366.175C116.076 365.358 115.717 364.483 115.551 363.55C115.434 362.9 115.376 362.283 115.376 361.7C115.376 360.583 115.542 359.533 115.876 358.55C116.092 357.85 116.409 357.242 116.826 356.725C117.276 356.175 117.917 355.717 118.751 355.35C119.584 354.983 120.526 354.8 121.576 354.8C123.442 354.8 124.851 355.317 125.801 356.35C126.201 356.783 126.526 357.333 126.776 358C127.142 358.967 127.367 360.142 127.451 361.525C127.451 361.575 127.451 361.683 127.451 361.85C127.467 362.017 127.476 362.117 127.476 362.15H117.701C117.701 363.417 118.034 364.533 118.701 365.5C119.367 366.467 120.376 366.95 121.726 366.95C122.692 366.95 123.484 366.708 124.101 366.225C124.717 365.742 125.101 365.108 125.251 364.325ZM117.701 360.6H125.151C125.134 359.617 124.901 358.708 124.451 357.875C123.934 356.858 122.992 356.35 121.626 356.35C120.076 356.35 119.009 356.867 118.426 357.9C117.942 358.733 117.701 359.633 117.701 360.6ZM128.759 371.3L128.559 366.45H130.159C131.542 364.417 132.234 361.408 132.234 357.425V355.3H141.334V366.45H143.534L143.359 371.3H141.509V368H130.609V371.3H128.759ZM139.134 366.45V356.85H134.284V358.625C134.284 359.975 134.134 361.375 133.834 362.825C133.567 364.258 133.117 365.467 132.484 366.45H139.134ZM147.622 355.3V366.45H152.922V355.3H155.122V366.45H160.422V355.3H162.622V368H145.422V355.3H147.622ZM175.373 364.325H177.473C177.273 365.442 176.731 366.417 175.848 367.25C174.965 368.083 173.656 368.5 171.923 368.5C169.573 368.5 167.848 367.725 166.748 366.175C166.198 365.358 165.84 364.483 165.673 363.55C165.556 362.9 165.498 362.283 165.498 361.7C165.498 360.583 165.665 359.533 165.998 358.55C166.215 357.85 166.531 357.242 166.948 356.725C167.398 356.175 168.04 355.717 168.873 355.35C169.706 354.983 170.648 354.8 171.698 354.8C173.565 354.8 174.973 355.317 175.923 356.35C176.323 356.783 176.648 357.333 176.898 358C177.265 358.967 177.49 360.142 177.573 361.525C177.573 361.575 177.573 361.683 177.573 361.85C177.59 362.017 177.598 362.117 177.598 362.15H167.823C167.823 363.417 168.156 364.533 168.823 365.5C169.49 366.467 170.498 366.95 171.848 366.95C172.815 366.95 173.606 366.708 174.223 366.225C174.84 365.742 175.223 365.108 175.373 364.325ZM167.823 360.6H175.273C175.256 359.617 175.023 358.708 174.573 357.875C174.056 356.858 173.115 356.35 171.748 356.35C170.198 356.35 169.131 356.867 168.548 357.9C168.065 358.733 167.823 359.633 167.823 360.6ZM189.181 356.85H182.681V368H180.481V355.3H189.181V356.85ZM190.261 364.15C189.828 362.367 189.845 360.642 190.311 358.975C190.778 357.308 191.761 356.117 193.261 355.4C194.095 355 195.07 354.8 196.186 354.8C197.303 354.8 198.278 355 199.111 355.4C200.611 356.1 201.603 357.35 202.086 359.15C202.303 359.983 202.411 360.825 202.411 361.675C202.428 362.508 202.328 363.333 202.111 364.15C201.911 364.95 201.553 365.683 201.036 366.35C200.536 367.017 199.895 367.542 199.111 367.925C198.261 368.308 197.286 368.5 196.186 368.5C195.086 368.5 194.111 368.308 193.261 367.925C191.811 367.225 190.811 365.967 190.261 364.15ZM192.586 359.125C192.37 359.792 192.261 360.625 192.261 361.625C192.261 362.608 192.37 363.45 192.586 364.15C192.803 364.85 193.053 365.375 193.336 365.725C193.936 366.392 194.62 366.783 195.386 366.9C195.92 366.983 196.453 366.983 196.986 366.9C197.22 366.883 197.545 366.767 197.961 366.55C198.411 366.317 198.778 366.025 199.061 365.675C199.345 365.325 199.586 364.817 199.786 364.15C200.003 363.45 200.111 362.608 200.111 361.625C200.111 360.625 200.003 359.792 199.786 359.125C199.553 358.392 199.295 357.867 199.011 357.55C198.745 357.233 198.411 356.967 198.011 356.75C197.611 356.533 197.27 356.4 196.986 356.35C196.453 356.267 195.92 356.267 195.386 356.35C195.153 356.367 194.82 356.492 194.386 356.725C193.536 357.142 192.936 357.942 192.586 359.125ZM211.145 368V355.3H217.195C219.878 355.3 221.22 356.308 221.22 358.325C221.22 359.775 220.453 360.767 218.92 361.3V361.375C219.953 361.625 220.67 362.025 221.07 362.575C221.486 363.125 221.695 363.833 221.695 364.7C221.695 366.083 221.186 367 220.17 367.45C219.336 367.817 218.32 368 217.12 368H211.145ZM216.495 356.85H213.345V360.6H216.395C217.278 360.6 217.928 360.425 218.345 360.075C218.778 359.708 218.995 359.233 218.995 358.65C218.995 357.45 218.161 356.85 216.495 356.85ZM216.495 362.15H213.345V366.45H216.57C218.47 366.45 219.42 365.8 219.42 364.5C219.42 362.933 218.445 362.15 216.495 362.15ZM239.156 356.85H232.656V368H230.456V355.3H239.156V356.85ZM240.637 372.625V355.3H242.687V357.05H242.762C243.762 355.55 245.162 354.8 246.962 354.8C248.612 354.8 249.979 355.375 251.062 356.525C252.145 357.692 252.687 359.4 252.687 361.65C252.687 363.95 252.137 365.667 251.037 366.8C249.954 367.933 248.612 368.5 247.012 368.5C246.512 368.5 245.904 368.392 245.187 368.175C244.137 367.858 243.354 367.192 242.837 366.175V372.625H240.637ZM242.687 361.7C242.687 363.467 243.087 364.792 243.887 365.675C244.72 366.525 245.629 366.95 246.612 366.95C247.645 366.95 248.529 366.533 249.262 365.7C249.995 364.833 250.362 363.483 250.362 361.65C250.362 359.983 250.02 358.683 249.337 357.75C248.67 356.817 247.72 356.35 246.487 356.35C245.837 356.35 245.229 356.525 244.662 356.875C243.345 357.658 242.687 359.267 242.687 361.7ZM255.565 372.6V370.975C256.198 371.058 256.565 371.1 256.665 371.1C257.298 371.1 257.748 370.867 258.015 370.4C258.182 370.15 258.29 369.942 258.34 369.775C258.39 369.692 258.498 369.417 258.665 368.95L258.965 368L253.465 355.3H256.09L260.165 365.575L263.54 355.3H265.74L260.69 369.5C260.29 370.633 259.948 371.375 259.665 371.725C259.098 372.392 258.332 372.725 257.365 372.725C256.615 372.725 256.015 372.683 255.565 372.6ZM276.166 356.85H269.741V368H267.541V355.3H278.366V368H276.166V356.85ZM290.595 356.85H284.17V368H281.97V355.3H292.795V368H290.595V356.85ZM296.399 368V355.3H298.599V360.325H301.799C302.815 360.325 303.665 360.425 304.349 360.625C305.982 361.042 306.832 362.233 306.899 364.2C306.899 365.367 306.54 366.292 305.824 366.975C305.124 367.658 304.032 368 302.549 368H296.399ZM301.274 361.875H298.599V366.45H301.674C303.64 366.45 304.624 365.65 304.624 364.05C304.624 363.267 304.365 362.7 303.849 362.35C303.682 362.217 303.407 362.108 303.024 362.025C302.624 361.925 302.04 361.875 301.274 361.875ZM308.449 368V355.3H310.649V368H308.449ZM320.08 368V355.3H326.13C328.814 355.3 330.155 356.308 330.155 358.325C330.155 359.775 329.389 360.767 327.855 361.3V361.375C328.889 361.625 329.605 362.025 330.005 362.575C330.422 363.125 330.63 363.833 330.63 364.7C330.63 366.083 330.122 367 329.105 367.45C328.272 367.817 327.255 368 326.055 368H320.08ZM325.43 356.85H322.28V360.6H325.33C326.214 360.6 326.864 360.425 327.28 360.075C327.714 359.708 327.93 359.233 327.93 358.65C327.93 357.45 327.097 356.85 325.43 356.85ZM325.43 362.15H322.28V366.45H325.505C327.405 366.45 328.355 365.8 328.355 364.5C328.355 362.933 327.38 362.15 325.43 362.15ZM333.557 368V355.3H335.757V360.325H338.957C339.974 360.325 340.824 360.425 341.507 360.625C343.14 361.042 343.99 362.233 344.057 364.2C344.057 365.367 343.699 366.292 342.982 366.975C342.282 367.658 341.19 368 339.707 368H333.557ZM338.432 361.875H335.757V366.45H338.832C340.799 366.45 341.782 365.65 341.782 364.05C341.782 363.267 341.524 362.7 341.007 362.35C340.84 362.217 340.565 362.108 340.182 362.025C339.782 361.925 339.199 361.875 338.432 361.875ZM345.607 368V355.3H347.807V368H345.607ZM353.604 355.3V366.45H358.904V355.3H361.104V366.45H366.404V355.3H368.604V368H351.404V355.3H353.604ZM381.354 364.325H383.454C383.254 365.442 382.713 366.417 381.829 367.25C380.946 368.083 379.638 368.5 377.904 368.5C375.554 368.5 373.829 367.725 372.729 366.175C372.179 365.358 371.821 364.483 371.654 363.55C371.538 362.9 371.479 362.283 371.479 361.7C371.479 360.583 371.646 359.533 371.979 358.55C372.196 357.85 372.513 357.242 372.929 356.725C373.379 356.175 374.021 355.717 374.854 355.35C375.688 354.983 376.629 354.8 377.679 354.8C379.546 354.8 380.954 355.317 381.904 356.35C382.304 356.783 382.629 357.333 382.879 358C383.246 358.967 383.471 360.142 383.554 361.525C383.554 361.575 383.554 361.683 383.554 361.85C383.571 362.017 383.579 362.117 383.579 362.15H373.804C373.804 363.417 374.138 364.533 374.804 365.5C375.471 366.467 376.479 366.95 377.829 366.95C378.796 366.95 379.588 366.708 380.204 366.225C380.821 365.742 381.204 365.108 381.354 364.325ZM373.804 360.6H381.254C381.238 359.617 381.004 358.708 380.554 357.875C380.038 356.858 379.096 356.35 377.729 356.35C376.179 356.35 375.113 356.867 374.529 357.9C374.046 358.733 373.804 359.633 373.804 360.6Z" fill="black"/>
<path d="M322.275 523.775H313.475V532H311.125V514.5H313.475V521.8H322.275V514.5H324.625V532H322.275V523.775ZM337.699 528.325H339.799C339.599 529.442 339.057 530.417 338.174 531.25C337.291 532.083 335.982 532.5 334.249 532.5C331.899 532.5 330.174 531.725 329.074 530.175C328.524 529.358 328.166 528.483 327.999 527.55C327.882 526.9 327.824 526.283 327.824 525.7C327.824 524.583 327.991 523.533 328.324 522.55C328.541 521.85 328.857 521.242 329.274 520.725C329.724 520.175 330.366 519.717 331.199 519.35C332.032 518.983 332.974 518.8 334.024 518.8C335.891 518.8 337.299 519.317 338.249 520.35C338.649 520.783 338.974 521.333 339.224 522C339.591 522.967 339.816 524.142 339.899 525.525C339.899 525.575 339.899 525.683 339.899 525.85C339.916 526.017 339.924 526.117 339.924 526.15H330.149C330.149 527.417 330.482 528.533 331.149 529.5C331.816 530.467 332.824 530.95 334.174 530.95C335.141 530.95 335.932 530.708 336.549 530.225C337.166 529.742 337.549 529.108 337.699 528.325ZM330.149 524.6H337.599C337.582 523.617 337.349 522.708 336.899 521.875C336.382 520.858 335.441 520.35 334.074 520.35C332.524 520.35 331.457 520.867 330.874 521.9C330.391 522.733 330.149 523.633 330.149 524.6ZM357.267 520.85H350.842V532H348.642V519.3H359.467V532H357.267V520.85ZM363.071 536.625V519.3H365.121V521.05H365.196C366.196 519.55 367.596 518.8 369.396 518.8C371.046 518.8 372.412 519.375 373.496 520.525C374.579 521.692 375.121 523.4 375.121 525.65C375.121 527.95 374.571 529.667 373.471 530.8C372.387 531.933 371.046 532.5 369.446 532.5C368.946 532.5 368.337 532.392 367.621 532.175C366.571 531.858 365.787 531.192 365.271 530.175V536.625H363.071ZM365.121 525.7C365.121 527.467 365.521 528.792 366.321 529.675C367.154 530.525 368.062 530.95 369.046 530.95C370.079 530.95 370.962 530.533 371.696 529.7C372.429 528.833 372.796 527.483 372.796 525.65C372.796 523.983 372.454 522.683 371.771 521.75C371.104 520.817 370.154 520.35 368.921 520.35C368.271 520.35 367.662 520.525 367.096 520.875C365.779 521.658 365.121 523.267 365.121 525.7ZM380.188 519.3V529.425L386.813 519.3H389.263V532H387.063V521.85L380.463 532H377.988V519.3H380.188ZM401.556 520.85H395.056V532H392.856V519.3H401.556V520.85ZM402.636 528.15C402.203 526.367 402.22 524.642 402.686 522.975C403.153 521.308 404.136 520.117 405.636 519.4C406.47 519 407.445 518.8 408.561 518.8C409.678 518.8 410.653 519 411.486 519.4C412.986 520.1 413.978 521.35 414.461 523.15C414.678 523.983 414.786 524.825 414.786 525.675C414.803 526.508 414.703 527.333 414.486 528.15C414.286 528.95 413.928 529.683 413.411 530.35C412.911 531.017 412.27 531.542 411.486 531.925C410.636 532.308 409.661 532.5 408.561 532.5C407.461 532.5 406.486 532.308 405.636 531.925C404.186 531.225 403.186 529.967 402.636 528.15ZM404.961 523.125C404.745 523.792 404.636 524.625 404.636 525.625C404.636 526.608 404.745 527.45 404.961 528.15C405.178 528.85 405.428 529.375 405.711 529.725C406.311 530.392 406.995 530.783 407.761 530.9C408.295 530.983 408.828 530.983 409.361 530.9C409.595 530.883 409.92 530.767 410.336 530.55C410.786 530.317 411.153 530.025 411.436 529.675C411.72 529.325 411.961 528.817 412.161 528.15C412.378 527.45 412.486 526.608 412.486 525.625C412.486 524.625 412.378 523.792 412.161 523.125C411.928 522.392 411.67 521.867 411.386 521.55C411.12 521.233 410.786 520.967 410.386 520.75C409.986 520.533 409.645 520.4 409.361 520.35C408.828 520.267 408.295 520.267 407.761 520.35C407.528 520.367 407.195 520.492 406.761 520.725C405.911 521.142 405.311 521.942 404.961 523.125ZM416.085 535.3L415.885 530.45H417.485C418.868 528.417 419.56 525.408 419.56 521.425V519.3H428.66V530.45H430.86L430.685 535.3H428.835V532H417.935V535.3H416.085ZM426.46 530.45V520.85H421.61V522.625C421.61 523.975 421.46 525.375 421.16 526.825C420.893 528.258 420.443 529.467 419.81 530.45H426.46ZM441.898 528.325H443.998C443.798 529.442 443.257 530.417 442.373 531.25C441.49 532.083 440.182 532.5 438.448 532.5C436.098 532.5 434.373 531.725 433.273 530.175C432.723 529.358 432.365 528.483 432.198 527.55C432.082 526.9 432.023 526.283 432.023 525.7C432.023 524.583 432.19 523.533 432.523 522.55C432.74 521.85 433.057 521.242 433.473 520.725C433.923 520.175 434.565 519.717 435.398 519.35C436.232 518.983 437.173 518.8 438.223 518.8C440.09 518.8 441.498 519.317 442.448 520.35C442.848 520.783 443.173 521.333 443.423 522C443.79 522.967 444.015 524.142 444.098 525.525C444.098 525.575 444.098 525.683 444.098 525.85C444.115 526.017 444.123 526.117 444.123 526.15H434.348C434.348 527.417 434.682 528.533 435.348 529.5C436.015 530.467 437.023 530.95 438.373 530.95C439.34 530.95 440.132 530.708 440.748 530.225C441.365 529.742 441.748 529.108 441.898 528.325ZM434.348 524.6H441.798C441.782 523.617 441.548 522.708 441.098 521.875C440.582 520.858 439.64 520.35 438.273 520.35C436.723 520.35 435.657 520.867 435.073 521.9C434.59 522.733 434.348 523.633 434.348 524.6ZM455.481 526.075H449.206V532H447.006V519.3H449.206V524.525H455.481V519.3H457.681V532H455.481V526.075ZM309.2 563.3L309 558.45H310.6C311.983 556.417 312.675 553.408 312.675 549.425V547.3H321.775V558.45H323.975L323.8 563.3H321.95V560H311.05V563.3H309.2ZM319.575 558.45V548.85H314.725V550.625C314.725 551.975 314.575 553.375 314.275 554.825C314.008 556.258 313.558 557.467 312.925 558.45H319.575ZM325.023 560V558.375C326.273 558.742 327.157 558.15 327.673 556.6C327.807 556.217 327.898 555.742 327.948 555.175L328.048 553.65C328.065 553.383 328.073 552.858 328.073 552.075V547.3H336.873V560H334.673V548.85H330.123V552.075C330.123 553.125 330.098 554.008 330.048 554.725C329.998 555.425 329.873 556.192 329.673 557.025C329.39 558.208 328.882 559.05 328.148 559.55C327.415 560.05 326.373 560.2 325.023 560ZM348.238 555H345.338L342.013 560H339.588L343.088 554.975C342.121 554.875 341.338 554.5 340.738 553.85C340.138 553.2 339.838 552.35 339.838 551.3C339.838 550.317 340.096 549.458 340.613 548.725C341.23 547.775 342.396 547.3 344.113 547.3H350.438V560H348.238V555ZM348.238 553.45V548.85H345.063C343.096 548.85 342.113 549.642 342.113 551.225C342.113 551.875 342.355 552.408 342.838 552.825C343.321 553.242 344.088 553.45 345.138 553.45H348.238ZM368.497 548.85H362.072V560H359.872V547.3H370.697V560H368.497V548.85ZM383.451 556.325H385.551C385.351 557.442 384.809 558.417 383.926 559.25C383.043 560.083 381.734 560.5 380.001 560.5C377.651 560.5 375.926 559.725 374.826 558.175C374.276 557.358 373.918 556.483 373.751 555.55C373.634 554.9 373.576 554.283 373.576 553.7C373.576 552.583 373.743 551.533 374.076 550.55C374.293 549.85 374.609 549.242 375.026 548.725C375.476 548.175 376.118 547.717 376.951 547.35C377.784 546.983 378.726 546.8 379.776 546.8C381.643 546.8 383.051 547.317 384.001 548.35C384.401 548.783 384.726 549.333 384.976 550C385.343 550.967 385.568 552.142 385.651 553.525C385.651 553.575 385.651 553.683 385.651 553.85C385.668 554.017 385.676 554.117 385.676 554.15H375.901C375.901 555.417 376.234 556.533 376.901 557.5C377.568 558.467 378.576 558.95 379.926 558.95C380.893 558.95 381.684 558.708 382.301 558.225C382.918 557.742 383.301 557.108 383.451 556.325ZM375.901 552.6H383.351C383.334 551.617 383.101 550.708 382.651 549.875C382.134 548.858 381.193 548.35 379.826 548.35C378.276 548.35 377.209 548.867 376.626 549.9C376.143 550.733 375.901 551.633 375.901 552.6ZM388.559 564.625V547.3H390.609V549.05H390.684C391.684 547.55 393.084 546.8 394.884 546.8C396.534 546.8 397.9 547.375 398.984 548.525C400.067 549.692 400.609 551.4 400.609 553.65C400.609 555.95 400.059 557.667 398.959 558.8C397.875 559.933 396.534 560.5 394.934 560.5C394.434 560.5 393.825 560.392 393.109 560.175C392.059 559.858 391.275 559.192 390.759 558.175V564.625H388.559ZM390.609 553.7C390.609 555.467 391.009 556.792 391.809 557.675C392.642 558.525 393.55 558.95 394.534 558.95C395.567 558.95 396.45 558.533 397.184 557.7C397.917 556.833 398.284 555.483 398.284 553.65C398.284 551.983 397.942 550.683 397.259 549.75C396.592 548.817 395.642 548.35 394.409 548.35C393.759 548.35 393.15 548.525 392.584 548.875C391.267 549.658 390.609 551.267 390.609 553.7ZM412.626 556.325H414.726C414.526 557.442 413.984 558.417 413.101 559.25C412.217 560.083 410.909 560.5 409.176 560.5C406.826 560.5 405.101 559.725 404.001 558.175C403.451 557.358 403.092 556.483 402.926 555.55C402.809 554.9 402.751 554.283 402.751 553.7C402.751 552.583 402.917 551.533 403.251 550.55C403.467 549.85 403.784 549.242 404.201 548.725C404.651 548.175 405.292 547.717 406.126 547.35C406.959 546.983 407.901 546.8 408.951 546.8C410.817 546.8 412.226 547.317 413.176 548.35C413.576 548.783 413.901 549.333 414.151 550C414.517 550.967 414.742 552.142 414.826 553.525C414.826 553.575 414.826 553.683 414.826 553.85C414.842 554.017 414.851 554.117 414.851 554.15H405.076C405.076 555.417 405.409 556.533 406.076 557.5C406.742 558.467 407.751 558.95 409.101 558.95C410.067 558.95 410.859 558.708 411.476 558.225C412.092 557.742 412.476 557.108 412.626 556.325ZM405.076 552.6H412.526C412.509 551.617 412.276 550.708 411.826 549.875C411.309 548.858 410.367 548.35 409.001 548.35C407.451 548.35 406.384 548.867 405.801 549.9C405.317 550.733 405.076 551.633 405.076 552.6ZM417.734 564.625V547.3H419.784V549.05H419.859C420.859 547.55 422.259 546.8 424.059 546.8C425.709 546.8 427.075 547.375 428.159 548.525C429.242 549.692 429.784 551.4 429.784 553.65C429.784 555.95 429.234 557.667 428.134 558.8C427.05 559.933 425.709 560.5 424.109 560.5C423.609 560.5 423 560.392 422.284 560.175C421.234 559.858 420.45 559.192 419.934 558.175V564.625H417.734ZM419.784 553.7C419.784 555.467 420.184 556.792 420.984 557.675C421.817 558.525 422.725 558.95 423.709 558.95C424.742 558.95 425.625 558.533 426.359 557.7C427.092 556.833 427.459 555.483 427.459 553.65C427.459 551.983 427.117 550.683 426.434 549.75C425.767 548.817 424.817 548.35 423.584 548.35C422.934 548.35 422.325 548.525 421.759 548.875C420.442 549.658 419.784 551.267 419.784 553.7ZM434.326 551.05H432.226C432.226 550.05 432.559 549.133 433.226 548.3C434.026 547.3 435.492 546.8 437.626 546.8C438.876 546.8 439.976 547.05 440.926 547.55C441.476 547.817 441.909 548.258 442.226 548.875C442.542 549.492 442.692 550.225 442.676 551.075L442.551 556.95C442.551 557.433 442.601 557.808 442.701 558.075C442.851 558.342 443.242 558.467 443.876 558.45V560C443.626 560.067 443.292 560.1 442.876 560.1C442.142 560.1 441.609 559.975 441.276 559.725C440.959 559.475 440.734 558.983 440.601 558.25C439.784 559.75 438.334 560.5 436.251 560.5C434.817 560.5 433.709 560.183 432.926 559.55C432.159 558.9 431.776 557.942 431.776 556.675C431.776 555.475 432.209 554.567 433.076 553.95C433.942 553.3 435.584 552.867 438.001 552.65C439.117 552.567 439.784 552.458 440.001 552.325C440.317 552.108 440.476 551.633 440.476 550.9C440.476 549.2 439.526 548.35 437.626 548.35C435.376 548.35 434.276 549.25 434.326 551.05ZM440.426 554.575L440.476 553.5C440.226 553.683 439.859 553.833 439.376 553.95C438.642 554 438.076 554.058 437.676 554.125C436.292 554.358 435.451 554.55 435.151 554.7C434.417 555.05 434.051 555.683 434.051 556.6C434.051 557.333 434.267 557.908 434.701 558.325C435.151 558.742 435.751 558.95 436.501 558.95C436.984 558.95 437.426 558.883 437.826 558.75C438.242 558.617 438.642 558.4 439.026 558.1C439.426 557.783 439.742 557.325 439.976 556.725C440.226 556.125 440.376 555.408 440.426 554.575ZM455.494 541.675H457.369C457.302 542.892 456.736 543.7 455.669 544.1C455.086 544.3 454.586 544.433 454.169 544.5C452.302 544.733 451.219 544.892 450.919 544.975C449.786 545.292 448.919 545.867 448.319 546.7C447.719 547.517 447.402 548.692 447.369 550.225H447.419C448.219 548.075 449.861 547 452.344 547C454.361 547 455.869 547.667 456.869 549C457.886 550.317 458.394 551.933 458.394 553.85C458.394 555.683 457.869 557.25 456.819 558.55C455.769 559.85 454.211 560.5 452.144 560.5C449.861 560.5 448.169 559.633 447.069 557.9C446.519 556.95 446.144 555.883 445.944 554.7C445.811 553.767 445.744 552.842 445.744 551.925C445.744 548.708 446.236 546.458 447.219 545.175C448.086 544.058 449.261 543.342 450.744 543.025C452.144 542.708 453.327 542.525 454.294 542.475C454.944 542.392 455.344 542.125 455.494 541.675ZM448.069 554C448.069 555.1 448.319 556.158 448.819 557.175C449.402 558.358 450.494 558.95 452.094 558.95C453.361 558.95 454.336 558.525 455.019 557.675C455.719 556.808 456.069 555.617 456.069 554.1C456.069 552.85 455.852 551.692 455.419 550.625C454.869 549.242 453.761 548.55 452.094 548.55C450.427 548.55 449.302 549.225 448.719 550.575C448.286 551.608 448.069 552.75 448.069 554ZM460.864 556.15C460.431 554.367 460.447 552.642 460.914 550.975C461.381 549.308 462.364 548.117 463.864 547.4C464.697 547 465.672 546.8 466.789 546.8C467.906 546.8 468.881 547 469.714 547.4C471.214 548.1 472.206 549.35 472.689 551.15C472.906 551.983 473.014 552.825 473.014 553.675C473.031 554.508 472.931 555.333 472.714 556.15C472.514 556.95 472.156 557.683 471.639 558.35C471.139 559.017 470.497 559.542 469.714 559.925C468.864 560.308 467.889 560.5 466.789 560.5C465.689 560.5 464.714 560.308 463.864 559.925C462.414 559.225 461.414 557.967 460.864 556.15ZM463.189 551.125C462.972 551.792 462.864 552.625 462.864 553.625C462.864 554.608 462.972 555.45 463.189 556.15C463.406 556.85 463.656 557.375 463.939 557.725C464.539 558.392 465.222 558.783 465.989 558.9C466.522 558.983 467.056 558.983 467.589 558.9C467.822 558.883 468.147 558.767 468.564 558.55C469.014 558.317 469.381 558.025 469.664 557.675C469.947 557.325 470.189 556.817 470.389 556.15C470.606 555.45 470.714 554.608 470.714 553.625C470.714 552.625 470.606 551.792 470.389 551.125C470.156 550.392 469.897 549.867 469.614 549.55C469.347 549.233 469.014 548.967 468.614 548.75C468.214 548.533 467.872 548.4 467.589 548.35C467.056 548.267 466.522 548.267 465.989 548.35C465.756 548.367 465.422 548.492 464.989 548.725C464.139 549.142 463.539 549.942 463.189 551.125ZM478.056 560V548.85H473.656V547.3H484.656V548.85H480.256V560H478.056ZM488.684 547.3V552.85L494.109 547.3H496.684L490.734 553.2L497.009 560H494.384L488.684 553.65V560H486.484V547.3H488.684ZM500.915 547.3V557.425L507.54 547.3H509.99V560H507.79V549.85L501.19 560H498.715V547.3H500.915Z" fill="black"/>
<path d="M171.575 46.75C171.575 42.55 172.637 39.3417 174.76 37.125C176.907 34.885 179.742 33.765 183.265 33.765C185.692 33.765 187.838 34.3367 189.705 35.48C191.315 36.4133 192.587 37.825 193.52 39.715C194.453 41.5817 194.932 43.9267 194.955 46.75C194.955 48.4533 194.757 50.04 194.36 51.51C193.613 54.0767 192.423 55.99 190.79 57.25C189.32 58.37 187.792 59.0817 186.205 59.385C185.202 59.6183 184.222 59.735 183.265 59.735C182.728 59.735 182.332 59.7233 182.075 59.7C180.792 59.63 179.427 59.2917 177.98 58.685C176.067 57.775 174.597 56.5267 173.57 54.94C172.24 52.8167 171.575 50.0867 171.575 46.75ZM175.075 46.75C175.075 48.6633 175.367 50.425 175.95 52.035C177.14 55.325 179.578 56.97 183.265 56.97C183.708 56.97 184.035 56.9583 184.245 56.935C185.248 56.8883 186.228 56.5967 187.185 56.06C190.032 54.5667 191.455 51.4633 191.455 46.75C191.455 43.6933 190.767 41.2317 189.39 39.365C188.037 37.475 185.995 36.53 183.265 36.53C181.912 36.53 180.698 36.7983 179.625 37.335C178.552 37.8717 177.712 38.5483 177.105 39.365C176.545 40.135 176.113 41.0217 175.81 42.025C175.32 43.5417 175.075 45.1167 175.075 46.75ZM204.958 59V37.265H196.978V34.5H216.193V37.265H208.248V59H204.958ZM235.24 47.485H222.92V59H219.63V34.5H222.92V44.72H235.24V34.5H238.53V59H235.24V47.485ZM247.769 37.265V44.965H260.614V47.73H247.769V56.235H262.329V59H244.479V34.5H261.944V37.265H247.769ZM269.2 59H265.91V34.5H276.76C282.173 34.5 284.88 36.6933 284.88 41.08C284.88 42.55 284.495 43.8567 283.725 45C283.001 46.1433 281.986 46.855 280.68 47.135V47.24C282.266 47.8467 283.258 48.6867 283.655 49.76C284.005 50.7167 284.191 51.8483 284.215 53.155V54.45C284.238 54.87 284.261 55.2667 284.285 55.64C284.308 56.0133 284.32 56.27 284.32 56.41C284.343 56.8067 284.425 57.2733 284.565 57.81C284.658 58.1133 284.868 58.51 285.195 59H281.73C281.31 58.44 281.053 57.8567 280.96 57.25C280.866 56.69 280.82 55.5467 280.82 53.82C280.82 52.3733 280.598 51.2067 280.155 50.32C279.595 49.1767 278.276 48.605 276.2 48.605H269.2V59ZM276.06 37.265H269.2V45.84H276.55C277.04 45.84 277.518 45.7817 277.985 45.665C278.475 45.5483 278.988 45.35 279.525 45.07C280.085 44.79 280.528 44.335 280.855 43.705C281.205 43.075 281.38 42.3167 281.38 41.43C281.38 38.6533 279.606 37.265 276.06 37.265ZM290.468 59V55.185H293.933V60.085C293.933 61.2517 293.606 62.1733 292.953 62.85C292.299 63.5267 291.471 63.97 290.468 64.18V62.255C290.958 62.2083 291.366 61.9633 291.693 61.52C292.043 61.1 292.218 60.6217 292.218 60.085V59H290.468ZM299.202 46.75C299.202 42.55 300.264 39.3417 302.387 37.125C304.534 34.885 307.369 33.765 310.892 33.765C313.319 33.765 315.465 34.3367 317.332 35.48C318.942 36.4133 320.214 37.825 321.147 39.715C322.08 41.5817 322.559 43.9267 322.582 46.75C322.582 48.4533 322.384 50.04 321.987 51.51C321.24 54.0767 320.05 55.99 318.417 57.25C316.947 58.37 315.419 59.0817 313.832 59.385C312.829 59.6183 311.849 59.735 310.892 59.735C310.355 59.735 309.959 59.7233 309.702 59.7C308.419 59.63 307.054 59.2917 305.607 58.685C303.694 57.775 302.224 56.5267 301.197 54.94C299.867 52.8167 299.202 50.0867 299.202 46.75ZM302.702 46.75C302.702 48.6633 302.994 50.425 303.577 52.035C304.767 55.325 307.205 56.97 310.892 56.97C311.335 56.97 311.662 56.9583 311.872 56.935C312.875 56.8883 313.855 56.5967 314.812 56.06C317.659 54.5667 319.082 51.4633 319.082 46.75C319.082 43.6933 318.394 41.2317 317.017 39.365C315.664 37.475 313.622 36.53 310.892 36.53C309.539 36.53 308.325 36.7983 307.252 37.335C306.179 37.8717 305.339 38.5483 304.732 39.365C304.172 40.135 303.74 41.0217 303.437 42.025C302.947 43.5417 302.702 45.1167 302.702 46.75ZM367.242 37.265H354.922V59H351.632V34.5H370.532V59H367.242V37.265ZM376.481 59V34.5H386.456C391.986 34.5 394.751 36.845 394.751 41.535C394.751 46.6683 391.881 49.235 386.141 49.235H379.771V59H376.481ZM385.791 37.265H379.771V46.47H385.791C387.728 46.47 389.139 46.0733 390.026 45.28C390.936 44.4633 391.391 43.2383 391.391 41.605C391.391 40.0883 390.936 38.9917 390.026 38.315C389.116 37.615 387.704 37.265 385.791 37.265ZM397.434 46.75C397.434 42.55 398.496 39.3417 400.619 37.125C402.766 34.885 405.601 33.765 409.124 33.765C411.551 33.765 413.698 34.3367 415.564 35.48C417.174 36.4133 418.446 37.825 419.379 39.715C420.313 41.5817 420.791 43.9267 420.814 46.75C420.814 48.4533 420.616 50.04 420.219 51.51C419.473 54.0767 418.283 55.99 416.649 57.25C415.179 58.37 413.651 59.0817 412.064 59.385C411.061 59.6183 410.081 59.735 409.124 59.735C408.588 59.735 408.191 59.7233 407.934 59.7C406.651 59.63 405.286 59.2917 403.839 58.685C401.926 57.775 400.456 56.5267 399.429 54.94C398.099 52.8167 397.434 50.0867 397.434 46.75ZM400.934 46.75C400.934 48.6633 401.226 50.425 401.809 52.035C402.999 55.325 405.438 56.97 409.124 56.97C409.568 56.97 409.894 56.9583 410.104 56.935C411.108 56.8883 412.088 56.5967 413.044 56.06C415.891 54.5667 417.314 51.4633 417.314 46.75C417.314 43.6933 416.626 41.2317 415.249 39.365C413.896 37.475 411.854 36.53 409.124 36.53C407.771 36.53 406.558 36.7983 405.484 37.335C404.411 37.8717 403.571 38.5483 402.964 39.365C402.404 40.135 401.973 41.0217 401.669 42.025C401.179 43.5417 400.934 45.1167 400.934 46.75ZM423.832 42.2V34.5H427.122V41.675C427.122 43.4483 427.553 44.5917 428.417 45.105C429.28 45.595 430.82 45.84 433.037 45.84C434.553 45.84 436.14 45.7583 437.797 45.595V34.5H441.087V59H437.797V48.36C435.93 48.5233 434.133 48.605 432.407 48.605C429.257 48.605 427.04 48.1733 425.757 47.31C424.473 46.4467 423.832 44.7433 423.832 42.2ZM450.318 37.265V44.965H463.163V47.73H450.318V56.235H464.878V59H447.028V34.5H464.493V37.265H450.318ZM471.748 37.265V44.965H484.593V47.73H471.748V56.235H486.308V59H468.458V34.5H485.923V37.265H471.748Z" fill="black"/>
<path d="M33.125 532V514.5H40.8C41.8 514.5 42.6583 514.633 43.375 514.9C44.0917 515.15 44.6333 515.508 45 515.975C45.3667 516.425 45.625 516.892 45.775 517.375C45.9417 517.858 46.025 518.383 46.025 518.95C46.025 519.883 45.7417 520.708 45.175 521.425C44.625 522.142 43.9333 522.567 43.1 522.7V522.775C43.5167 522.842 43.9167 522.958 44.3 523.125C44.6833 523.292 45.0667 523.533 45.45 523.85C45.85 524.167 46.1667 524.608 46.4 525.175C46.65 525.742 46.775 526.392 46.775 527.125C46.775 530.375 44.6917 532 40.525 532H33.125ZM40.275 516.475H35.475V521.925H40.2C41.35 521.925 42.2083 521.683 42.775 521.2C43.3417 520.7 43.625 520.033 43.625 519.2C43.625 518.9 43.5833 518.617 43.5 518.35C43.4167 518.067 43.2667 517.775 43.05 517.475C42.8333 517.175 42.4833 516.933 42 516.75C41.5333 516.567 40.9583 516.475 40.275 516.475ZM40.35 523.9H35.475V530.025H40.35C41.1167 530.025 41.8167 529.933 42.45 529.75C43.7333 529.367 44.375 528.425 44.375 526.925C44.375 524.908 43.0333 523.9 40.35 523.9ZM50.0363 532V519.3H52.2363V524.325H55.4363C56.453 524.325 57.303 524.425 57.9863 524.625C59.6197 525.042 60.4697 526.233 60.5363 528.2C60.5363 529.367 60.178 530.292 59.4613 530.975C58.7613 531.658 57.6697 532 56.1863 532H50.0363ZM54.9113 525.875H52.2363V530.45H55.3113C57.278 530.45 58.2613 529.65 58.2613 528.05C58.2613 527.267 58.003 526.7 57.4863 526.35C57.3197 526.217 57.0447 526.108 56.6613 526.025C56.2613 525.925 55.678 525.875 54.9113 525.875ZM62.0863 532V519.3H64.2863V532H62.0863ZM76.783 527.475H78.883C78.8163 528.442 78.4497 529.458 77.783 530.525C77.4163 531.125 76.8413 531.608 76.058 531.975C75.2913 532.325 74.3913 532.5 73.358 532.5C73.008 532.5 72.758 532.492 72.608 532.475C71.8747 532.442 71.1247 532.25 70.358 531.9C68.2247 530.833 67.158 528.717 67.158 525.55C67.158 523.883 67.5413 522.4 68.308 521.1C69.258 519.567 70.8913 518.8 73.208 518.8C74.8413 518.8 76.1413 519.217 77.108 520.05C78.0747 520.867 78.633 521.942 78.783 523.275H76.683C76.3497 521.325 75.208 520.35 73.258 520.35C71.9913 520.35 71.0413 520.817 70.408 521.75C69.7913 522.667 69.483 523.933 69.483 525.55C69.483 527.117 69.808 528.408 70.458 529.425C71.108 530.442 72.0913 530.95 73.408 530.95C74.5413 530.95 75.3663 530.592 75.883 529.875C76.433 529.158 76.733 528.358 76.783 527.475ZM81.1793 528.15C80.746 526.367 80.7626 524.642 81.2293 522.975C81.696 521.308 82.6793 520.117 84.1793 519.4C85.0126 519 85.9876 518.8 87.1043 518.8C88.221 518.8 89.196 519 90.0293 519.4C91.5293 520.1 92.521 521.35 93.0043 523.15C93.221 523.983 93.3293 524.825 93.3293 525.675C93.346 526.508 93.246 527.333 93.0293 528.15C92.8293 528.95 92.471 529.683 91.9543 530.35C91.4543 531.017 90.8126 531.542 90.0293 531.925C89.1793 532.308 88.2043 532.5 87.1043 532.5C86.0043 532.5 85.0293 532.308 84.1793 531.925C82.7293 531.225 81.7293 529.967 81.1793 528.15ZM83.5043 523.125C83.2876 523.792 83.1793 524.625 83.1793 525.625C83.1793 526.608 83.2876 527.45 83.5043 528.15C83.721 528.85 83.971 529.375 84.2543 529.725C84.8543 530.392 85.5376 530.783 86.3043 530.9C86.8376 530.983 87.371 530.983 87.9043 530.9C88.1376 530.883 88.4626 530.767 88.8793 530.55C89.3293 530.317 89.696 530.025 89.9793 529.675C90.2626 529.325 90.5043 528.817 90.7043 528.15C90.921 527.45 91.0293 526.608 91.0293 525.625C91.0293 524.625 90.921 523.792 90.7043 523.125C90.471 522.392 90.2126 521.867 89.9293 521.55C89.6626 521.233 89.3293 520.967 88.9293 520.75C88.5293 520.533 88.1876 520.4 87.9043 520.35C87.371 520.267 86.8376 520.267 86.3043 520.35C86.071 520.367 85.7376 520.492 85.3043 520.725C84.4543 521.142 83.8543 521.942 83.5043 523.125ZM98.4277 519.3V524.85L103.853 519.3H106.428L100.478 525.2L106.753 532H104.128L98.4277 525.65V532H96.2277V519.3H98.4277ZM110.659 519.3V529.425L117.284 519.3H119.734V532H117.534V521.85L110.934 532H108.459V519.3H110.659ZM125.527 519.3V529.425L132.152 519.3H134.602V532H132.402V521.85L125.802 532H123.327V519.3H125.527ZM131.327 514.5H133.202C132.852 516.333 131.752 517.408 129.902 517.725C129.586 517.775 129.252 517.8 128.902 517.8C126.752 517.8 125.377 516.925 124.777 515.175C124.727 515.058 124.669 514.833 124.602 514.5H126.477C126.427 514.933 126.577 515.342 126.927 515.725C127.177 515.992 127.469 516.192 127.802 516.325C128.102 516.425 128.469 516.475 128.902 516.475C129.619 516.475 130.211 516.3 130.677 515.95C131.144 515.583 131.361 515.1 131.327 514.5ZM33.275 564.6V562.975C33.9083 563.058 34.275 563.1 34.375 563.1C35.0083 563.1 35.4583 562.867 35.725 562.4C35.8917 562.15 36 561.942 36.05 561.775C36.1 561.692 36.2083 561.417 36.375 560.95L36.675 560L31.175 547.3H33.8L37.875 557.575L41.25 547.3H43.45L38.4 561.5C38 562.633 37.6583 563.375 37.375 563.725C36.8083 564.392 36.0417 564.725 35.075 564.725C34.325 564.725 33.725 564.683 33.275 564.6ZM45.2512 564.625V547.3H47.3012V549.05H47.3762C48.3762 547.55 49.7762 546.8 51.5762 546.8C53.2262 546.8 54.5928 547.375 55.6762 548.525C56.7595 549.692 57.3012 551.4 57.3012 553.65C57.3012 555.95 56.7512 557.667 55.6512 558.8C54.5678 559.933 53.2262 560.5 51.6262 560.5C51.1262 560.5 50.5178 560.392 49.8012 560.175C48.7512 559.858 47.9678 559.192 47.4512 558.175V564.625H45.2512ZM47.3012 553.7C47.3012 555.467 47.7012 556.792 48.5012 557.675C49.3345 558.525 50.2428 558.95 51.2262 558.95C52.2595 558.95 53.1428 558.533 53.8762 557.7C54.6095 556.833 54.9762 555.483 54.9762 553.65C54.9762 551.983 54.6345 550.683 53.9512 549.75C53.2845 548.817 52.3345 548.35 51.1012 548.35C50.4512 548.35 49.8428 548.525 49.2762 548.875C47.9595 549.658 47.3012 551.267 47.3012 553.7ZM59.7682 556.15C59.3348 554.367 59.3515 552.642 59.8182 550.975C60.2848 549.308 61.2682 548.117 62.7682 547.4C63.6015 547 64.5765 546.8 65.6932 546.8C66.8098 546.8 67.7848 547 68.6182 547.4C70.1182 548.1 71.1098 549.35 71.5932 551.15C71.8098 551.983 71.9182 552.825 71.9182 553.675C71.9348 554.508 71.8348 555.333 71.6182 556.15C71.4182 556.95 71.0598 557.683 70.5432 558.35C70.0432 559.017 69.4015 559.542 68.6182 559.925C67.7682 560.308 66.7932 560.5 65.6932 560.5C64.5932 560.5 63.6182 560.308 62.7682 559.925C61.3182 559.225 60.3182 557.967 59.7682 556.15ZM62.0932 551.125C61.8765 551.792 61.7682 552.625 61.7682 553.625C61.7682 554.608 61.8765 555.45 62.0932 556.15C62.3098 556.85 62.5598 557.375 62.8432 557.725C63.4432 558.392 64.1265 558.783 64.8932 558.9C65.4265 558.983 65.9598 558.983 66.4932 558.9C66.7265 558.883 67.0515 558.767 67.4682 558.55C67.9182 558.317 68.2848 558.025 68.5682 557.675C68.8515 557.325 69.0932 556.817 69.2932 556.15C69.5098 555.45 69.6182 554.608 69.6182 553.625C69.6182 552.625 69.5098 551.792 69.2932 551.125C69.0598 550.392 68.8015 549.867 68.5182 549.55C68.2515 549.233 67.9182 548.967 67.5182 548.75C67.1182 548.533 66.7765 548.4 66.4932 548.35C65.9598 548.267 65.4265 548.267 64.8932 548.35C64.6598 548.367 64.3265 548.492 63.8932 548.725C63.0432 549.142 62.4432 549.942 62.0932 551.125ZM74.8166 560V547.3H80.8666C83.5499 547.3 84.8916 548.308 84.8916 550.325C84.8916 551.775 84.1249 552.767 82.5916 553.3V553.375C83.6249 553.625 84.3416 554.025 84.7416 554.575C85.1583 555.125 85.3666 555.833 85.3666 556.7C85.3666 558.083 84.8583 559 83.8416 559.45C83.0083 559.817 81.9916 560 80.7916 560H74.8166ZM80.1666 548.85H77.0166V552.6H80.0666C80.9499 552.6 81.5999 552.425 82.0166 552.075C82.4499 551.708 82.6666 551.233 82.6666 550.65C82.6666 549.45 81.8333 548.85 80.1666 548.85ZM80.1666 554.15H77.0166V558.45H80.2416C82.1416 558.45 83.0916 557.8 83.0916 556.5C83.0916 554.933 82.1166 554.15 80.1666 554.15ZM97.4432 556.325H99.5432C99.3432 557.442 98.8015 558.417 97.9182 559.25C97.0348 560.083 95.7265 560.5 93.9932 560.5C91.6432 560.5 89.9182 559.725 88.8182 558.175C88.2682 557.358 87.9098 556.483 87.7432 555.55C87.6265 554.9 87.5682 554.283 87.5682 553.7C87.5682 552.583 87.7348 551.533 88.0682 550.55C88.2848 549.85 88.6015 549.242 89.0182 548.725C89.4682 548.175 90.1098 547.717 90.9432 547.35C91.7765 546.983 92.7182 546.8 93.7682 546.8C95.6348 546.8 97.0432 547.317 97.9932 548.35C98.3932 548.783 98.7182 549.333 98.9682 550C99.3348 550.967 99.5598 552.142 99.6432 553.525C99.6432 553.575 99.6432 553.683 99.6432 553.85C99.6598 554.017 99.6682 554.117 99.6682 554.15H89.8932C89.8932 555.417 90.2265 556.533 90.8932 557.5C91.5598 558.467 92.5682 558.95 93.9182 558.95C94.8848 558.95 95.6765 558.708 96.2932 558.225C96.9098 557.742 97.2932 557.108 97.4432 556.325ZM89.8932 552.6H97.3432C97.3265 551.617 97.0932 550.708 96.6432 549.875C96.1265 548.858 95.1848 548.35 93.8182 548.35C92.2682 548.35 91.2015 548.867 90.6182 549.9C90.1348 550.733 89.8932 551.633 89.8932 552.6ZM111.026 554.075H104.751V560H102.551V547.3H104.751V552.525H111.026V547.3H113.226V560H111.026V554.075ZM116.833 560V547.3H119.033V552.35H122.208C123.458 552.35 124.533 552.533 125.433 552.9C126.683 553.35 127.308 554.4 127.308 556.05C127.308 557.417 126.908 558.433 126.108 559.1C125.775 559.367 125.383 559.567 124.933 559.7C124.333 559.9 123.675 560 122.958 560H116.833ZM121.708 553.9H119.033V558.45H122.083C123.117 558.45 123.875 558.242 124.358 557.825C124.842 557.342 125.067 556.75 125.033 556.05C125.033 555.283 124.783 554.717 124.283 554.35C124.117 554.233 123.85 554.133 123.483 554.05C123.083 553.95 122.558 553.9 121.908 553.9H121.708ZM135.11 556.15C134.677 554.367 134.693 552.642 135.16 550.975C135.627 549.308 136.61 548.117 138.11 547.4C138.943 547 139.918 546.8 141.035 546.8C142.152 546.8 143.127 547 143.96 547.4C145.46 548.1 146.452 549.35 146.935 551.15C147.152 551.983 147.26 552.825 147.26 553.675C147.277 554.508 147.177 555.333 146.96 556.15C146.76 556.95 146.402 557.683 145.885 558.35C145.385 559.017 144.743 559.542 143.96 559.925C143.11 560.308 142.135 560.5 141.035 560.5C139.935 560.5 138.96 560.308 138.11 559.925C136.66 559.225 135.66 557.967 135.11 556.15ZM137.435 551.125C137.218 551.792 137.11 552.625 137.11 553.625C137.11 554.608 137.218 555.45 137.435 556.15C137.652 556.85 137.902 557.375 138.185 557.725C138.785 558.392 139.468 558.783 140.235 558.9C140.768 558.983 141.302 558.983 141.835 558.9C142.068 558.883 142.393 558.767 142.81 558.55C143.26 558.317 143.627 558.025 143.91 557.675C144.193 557.325 144.435 556.817 144.635 556.15C144.852 555.45 144.96 554.608 144.96 553.625C144.96 552.625 144.852 551.792 144.635 551.125C144.402 550.392 144.143 549.867 143.86 549.55C143.593 549.233 143.26 548.967 142.86 548.75C142.46 548.533 142.118 548.4 141.835 548.35C141.302 548.267 140.768 548.267 140.235 548.35C140.002 548.367 139.668 548.492 139.235 548.725C138.385 549.142 137.785 549.942 137.435 551.125ZM158.783 548.85H152.358V560H150.158V547.3H160.983V560H158.783V548.85ZM166.262 551.05H164.162C164.162 550.05 164.495 549.133 165.162 548.3C165.962 547.3 167.429 546.8 169.562 546.8C170.812 546.8 171.912 547.05 172.862 547.55C173.412 547.817 173.845 548.258 174.162 548.875C174.479 549.492 174.629 550.225 174.612 551.075L174.487 556.95C174.487 557.433 174.537 557.808 174.637 558.075C174.787 558.342 175.179 558.467 175.812 558.45V560C175.562 560.067 175.229 560.1 174.812 560.1C174.079 560.1 173.545 559.975 173.212 559.725C172.895 559.475 172.67 558.983 172.537 558.25C171.72 559.75 170.27 560.5 168.187 560.5C166.754 560.5 165.645 560.183 164.862 559.55C164.095 558.9 163.712 557.942 163.712 556.675C163.712 555.475 164.145 554.567 165.012 553.95C165.879 553.3 167.52 552.867 169.937 552.65C171.054 552.567 171.72 552.458 171.937 552.325C172.254 552.108 172.412 551.633 172.412 550.9C172.412 549.2 171.462 548.35 169.562 548.35C167.312 548.35 166.212 549.25 166.262 551.05ZM172.362 554.575L172.412 553.5C172.162 553.683 171.795 553.833 171.312 553.95C170.579 554 170.012 554.058 169.612 554.125C168.229 554.358 167.387 554.55 167.087 554.7C166.354 555.05 165.987 555.683 165.987 556.6C165.987 557.333 166.204 557.908 166.637 558.325C167.087 558.742 167.687 558.95 168.437 558.95C168.92 558.95 169.362 558.883 169.762 558.75C170.179 558.617 170.579 558.4 170.962 558.1C171.362 557.783 171.679 557.325 171.912 556.725C172.162 556.125 172.312 555.408 172.362 554.575ZM187.305 555.475H189.405C189.339 556.442 188.972 557.458 188.305 558.525C187.939 559.125 187.364 559.608 186.58 559.975C185.814 560.325 184.914 560.5 183.88 560.5C183.53 560.5 183.28 560.492 183.13 560.475C182.397 560.442 181.647 560.25 180.88 559.9C178.747 558.833 177.68 556.717 177.68 553.55C177.68 551.883 178.064 550.4 178.83 549.1C179.78 547.567 181.414 546.8 183.73 546.8C185.364 546.8 186.664 547.217 187.63 548.05C188.597 548.867 189.155 549.942 189.305 551.275H187.205C186.872 549.325 185.73 548.35 183.78 548.35C182.514 548.35 181.564 548.817 180.93 549.75C180.314 550.667 180.005 551.933 180.005 553.55C180.005 555.117 180.33 556.408 180.98 557.425C181.63 558.442 182.614 558.95 183.93 558.95C185.064 558.95 185.889 558.592 186.405 557.875C186.955 557.158 187.255 556.358 187.305 555.475ZM200.577 554.075H194.302V560H192.102V547.3H194.302V552.525H200.577V547.3H202.777V560H200.577V554.075ZM205.984 556.15C205.551 554.367 205.567 552.642 206.034 550.975C206.501 549.308 207.484 548.117 208.984 547.4C209.817 547 210.792 546.8 211.909 546.8C213.026 546.8 214.001 547 214.834 547.4C216.334 548.1 217.326 549.35 217.809 551.15C218.026 551.983 218.134 552.825 218.134 553.675C218.151 554.508 218.051 555.333 217.834 556.15C217.634 556.95 217.276 557.683 216.759 558.35C216.259 559.017 215.617 559.542 214.834 559.925C213.984 560.308 213.009 560.5 211.909 560.5C210.809 560.5 209.834 560.308 208.984 559.925C207.534 559.225 206.534 557.967 205.984 556.15ZM208.309 551.125C208.092 551.792 207.984 552.625 207.984 553.625C207.984 554.608 208.092 555.45 208.309 556.15C208.526 556.85 208.776 557.375 209.059 557.725C209.659 558.392 210.342 558.783 211.109 558.9C211.642 558.983 212.176 558.983 212.709 558.9C212.942 558.883 213.267 558.767 213.684 558.55C214.134 558.317 214.501 558.025 214.784 557.675C215.067 557.325 215.309 556.817 215.509 556.15C215.726 555.45 215.834 554.608 215.834 553.625C215.834 552.625 215.726 551.792 215.509 551.125C215.276 550.392 215.017 549.867 214.734 549.55C214.467 549.233 214.134 548.967 213.734 548.75C213.334 548.533 212.992 548.4 212.709 548.35C212.176 548.267 211.642 548.267 211.109 548.35C210.876 548.367 210.542 548.492 210.109 548.725C209.259 549.142 208.659 549.942 208.309 551.125ZM229.932 555.475H232.032C231.966 556.442 231.599 557.458 230.932 558.525C230.566 559.125 229.991 559.608 229.207 559.975C228.441 560.325 227.541 560.5 226.507 560.5C226.157 560.5 225.907 560.492 225.757 560.475C225.024 560.442 224.274 560.25 223.507 559.9C221.374 558.833 220.307 556.717 220.307 553.55C220.307 551.883 220.691 550.4 221.457 549.1C222.407 547.567 224.041 546.8 226.357 546.8C227.991 546.8 229.291 547.217 230.257 548.05C231.224 548.867 231.782 549.942 231.932 551.275H229.832C229.499 549.325 228.357 548.35 226.407 548.35C225.141 548.35 224.191 548.817 223.557 549.75C222.941 550.667 222.632 551.933 222.632 553.55C222.632 555.117 222.957 556.408 223.607 557.425C224.257 558.442 225.241 558.95 226.557 558.95C227.691 558.95 228.516 558.592 229.032 557.875C229.582 557.158 229.882 556.358 229.932 555.475ZM237.214 560V548.85H232.814V547.3H243.814V548.85H239.414V560H237.214ZM247.695 547.3V557.425L254.32 547.3H256.77V560H254.57V549.85L247.97 560H245.495V547.3H247.695Z" fill="black"/>
<path d="M31 449H36.7143V454.714H31V449ZM42.4286 460.429H36.7143V454.714H42.4286V460.429ZM48.1429 466.143H42.4286V460.429H48.1429V466.143ZM53.8571 466.143H48.1429V471.857H42.4286V477.571H36.7143V483.286H31V489H36.7143V483.286H42.4286V477.571H48.1429V471.857H53.8571V477.571H59.5714V483.286H65.2857V489H71V483.286H65.2857V477.571H59.5714V471.857H53.8571V466.143ZM59.5714 460.429V466.143H53.8571V460.429H59.5714ZM65.2857 454.714V460.429H59.5714V454.714H65.2857ZM65.2857 454.714V449H71V454.714H65.2857Z" fill="black"/>
<path d="M309 449H314.714V454.714H309V449ZM320.429 460.429H314.714V454.714H320.429V460.429ZM326.143 466.143H320.429V460.429H326.143V466.143ZM331.857 466.143H326.143V471.857H320.429V477.571H314.714V483.286H309V489H314.714V483.286H320.429V477.571H326.143V471.857H331.857V477.571H337.571V483.286H343.286V489H349V483.286H343.286V477.571H337.571V471.857H331.857V466.143ZM337.571 460.429V466.143H331.857V460.429H337.571ZM343.286 454.714V460.429H337.571V454.714H343.286ZM343.286 454.714V449H349V454.714H343.286Z" fill="black"/>
<path d="M141.031 230.02L132.719 215.06L125.727 218.94L134.039 233.908C134.676 235.042 135.004 236.325 134.988 237.626C134.971 238.928 134.612 240.202 133.947 241.32C132.587 243.624 130.183 245 127.507 245H98.3189L108.639 234.64L102.999 229L82.999 249L102.999 269L108.639 263.36L98.3189 253H127.511C130.207 253.014 132.859 252.317 135.199 250.978C137.539 249.64 139.484 247.707 140.839 245.376C142.22 243.059 142.965 240.419 142.999 237.722C143.033 235.025 142.354 232.371 141.031 230.02ZM46.4913 245C45.1889 245.008 43.9077 244.671 42.7769 244.025C41.6462 243.379 40.706 242.446 40.0513 241.32C39.3862 240.201 39.0278 238.927 39.0124 237.626C38.9969 236.324 39.3249 235.042 39.9633 233.908L56.4032 204.308L60.5992 218.388L68.2471 216.12L60.2112 189L33.0914 197.032L35.3594 204.68L49.3313 200.56L32.9714 230.02C31.6478 232.37 30.9681 235.028 31.0011 237.725C31.0342 240.422 31.7787 243.063 33.1594 245.38C34.5145 247.711 36.4608 249.643 38.8017 250.981C41.1425 252.319 43.7951 253.015 46.4913 253H70.9991V245H46.4913ZM125.039 179.616L120.847 193.692L100.399 156.88C97.6549 151.948 92.6469 149 86.999 149C81.351 149 76.3391 151.948 73.5991 156.884L61.2792 179.06L68.2751 182.94L80.595 160.768C81.899 158.408 84.295 157 86.999 157C89.703 157 92.0949 158.412 93.4069 160.768L113.775 197.436L99.7989 193.316L97.5349 200.968L124.655 209L132.687 181.88L125.039 179.616Z" fill="black"/>
<path d="M76.0568 206.21V202.5H94.9568V205.58C92.0402 208.59 89.7535 212.078 88.0968 216.045C87.2802 217.888 86.6968 219.592 86.3468 221.155C85.9968 222.718 85.7168 224.667 85.5068 227H80.8168C81.2368 223.617 82.1935 220.175 83.6868 216.675C85.3902 212.825 87.7818 209.337 90.8618 206.21H76.0568Z" fill="black"/>
<path d="M331.205 61.975H329L341.495 31H343.7L331.205 61.975Z" fill="black"/>
</svg>
