<svg width="388" height="389" viewBox="0 0 388 389" fill="none" xmlns="http://www.w3.org/2000/svg">
<rect width="388" height="388" transform="translate(0 0.108398)" fill="#DCDCDC"/>
<path d="M30.3876 192.153V202.277H32.0342L31.8875 206.14H30.5506V203.564H21.6821V206.14H20.3453L20.2148 202.277H21.2419C22.6874 200.472 23.4101 197.88 23.4101 194.5V192.153H30.3876ZM28.8552 202.277V193.441H24.9426V194.859C24.9426 196.478 24.8067 197.853 24.535 198.983C24.2524 200.157 23.7634 201.255 23.0678 202.277H28.8552ZM34.5167 197.728H33.1473C33.1473 197.076 33.3647 196.478 33.7994 195.935C34.3211 195.283 35.2775 194.957 36.6687 194.957C37.4838 194.957 38.2011 195.12 38.8206 195.446C39.1793 195.62 39.4618 195.908 39.6683 196.31C39.8748 196.712 39.9727 197.19 39.9618 197.744L39.8803 201.576C39.8803 201.891 39.9129 202.135 39.9781 202.309C40.0759 202.483 40.3313 202.565 40.7443 202.554V203.564C40.5813 203.608 40.3639 203.63 40.0922 203.63C39.614 203.63 39.2662 203.548 39.0488 203.385C38.8423 203.222 38.6956 202.901 38.6087 202.423C38.0761 203.401 37.1306 203.891 35.772 203.891C34.8374 203.891 34.1146 203.684 33.6038 203.271C33.1039 202.847 32.8539 202.222 32.8539 201.396C32.8539 200.614 33.1365 200.021 33.7016 199.619C34.2668 199.195 35.3373 198.913 36.9132 198.772C37.6414 198.717 38.0761 198.647 38.2174 198.56C38.4239 198.418 38.5272 198.109 38.5272 197.63C38.5272 196.522 37.9077 195.967 36.6687 195.967C35.2014 195.967 34.4841 196.554 34.5167 197.728ZM38.4946 200.027L38.5272 199.326C38.3641 199.445 38.125 199.543 37.8099 199.619C37.3316 199.652 36.9621 199.69 36.7013 199.733C35.7992 199.886 35.2504 200.011 35.0547 200.108C34.5765 200.337 34.3374 200.75 34.3374 201.347C34.3374 201.826 34.4787 202.2 34.7613 202.472C35.0547 202.744 35.446 202.88 35.9351 202.88C36.2502 202.88 36.5383 202.836 36.7991 202.749C37.0708 202.662 37.3316 202.521 37.5816 202.325C37.8425 202.119 38.049 201.82 38.2011 201.429C38.3641 201.038 38.462 200.57 38.4946 200.027ZM47.962 199.701H43.8701V203.564H42.4354V195.283H43.8701V198.69H47.962V195.283H49.3966V203.564H47.962V199.701ZM57.2754 199.701H53.1835V203.564H51.7489V195.283H53.1835V198.69H57.2754V195.283H58.7101V203.564H57.2754V199.701ZM61.0623 203.564V195.283H62.497V198.56H64.5837C65.2467 198.56 65.8009 198.625 66.2465 198.755C67.3116 199.027 67.8659 199.804 67.9094 201.086C67.9094 201.847 67.6757 202.45 67.2084 202.896C66.7519 203.342 66.04 203.564 65.0728 203.564H61.0623ZM64.2413 199.57H62.497V202.554H64.5022C65.7846 202.554 66.4259 202.032 66.4259 200.989C66.4259 200.478 66.2574 200.108 65.9205 199.88C65.8118 199.793 65.6325 199.722 65.3825 199.668C65.1217 199.603 64.7413 199.57 64.2413 199.57ZM68.9202 203.564V195.283H70.3548V203.564H68.9202ZM74.1348 195.283V201.885L78.455 195.283H80.0526V203.564H78.618V196.946L74.3141 203.564H72.7002V195.283H74.1348ZM77.917 192.153H79.1397C78.9114 193.348 78.1941 194.049 76.9877 194.256C76.7812 194.288 76.5639 194.305 76.3356 194.305C74.9336 194.305 74.037 193.734 73.6457 192.593C73.6131 192.517 73.5751 192.37 73.5316 192.153H74.7543C74.7217 192.435 74.8195 192.702 75.0477 192.952C75.2108 193.125 75.401 193.256 75.6183 193.343C75.814 193.408 76.0531 193.441 76.3356 193.441C76.803 193.441 77.1888 193.326 77.4931 193.098C77.7974 192.859 77.9387 192.544 77.917 192.153ZM86.2007 203.564V195.283H90.1459C91.8957 195.283 92.7706 195.94 92.7706 197.255C92.7706 198.201 92.2707 198.848 91.2708 199.195V199.244C91.9446 199.407 92.412 199.668 92.6728 200.027C92.9445 200.385 93.0804 200.847 93.0804 201.413C93.0804 202.315 92.7489 202.912 92.0859 203.206C91.5425 203.445 90.8795 203.564 90.097 203.564H86.2007ZM89.6894 196.294H87.6353V198.739H89.6242C90.2003 198.739 90.6241 198.625 90.8958 198.397C91.1784 198.157 91.3197 197.848 91.3197 197.467C91.3197 196.685 90.7763 196.294 89.6894 196.294ZM89.6894 199.75H87.6353V202.554H89.7384C90.9773 202.554 91.5968 202.13 91.5968 201.282C91.5968 200.26 90.961 199.75 89.6894 199.75ZM96.4234 195.283V201.885L100.744 195.283H102.341V203.564H100.907V196.946L96.6027 203.564H94.9888V195.283H96.4234ZM103.641 205.716L103.511 202.554H104.554C105.456 201.228 105.907 199.266 105.907 196.668V195.283H111.841V202.554H113.276L113.162 205.716H111.955V203.564H104.847V205.716H103.641ZM110.407 202.554V196.294H107.244V197.451C107.244 198.331 107.146 199.244 106.95 200.19C106.776 201.125 106.483 201.912 106.07 202.554H110.407ZM123.937 196.294H119.747V203.564H118.312V195.283H125.371V203.564H123.937V196.294ZM126.759 203.564V202.505C127.574 202.744 128.15 202.358 128.487 201.347C128.574 201.097 128.634 200.788 128.667 200.418L128.732 199.424C128.743 199.25 128.748 198.907 128.748 198.397V195.283H134.487V203.564H133.052V196.294H130.085V198.397C130.085 199.081 130.069 199.657 130.036 200.125C130.004 200.581 129.922 201.081 129.792 201.624C129.607 202.396 129.275 202.945 128.797 203.271C128.319 203.597 127.64 203.695 126.759 203.564ZM137.92 197.728H136.551C136.551 197.076 136.768 196.478 137.203 195.935C137.724 195.283 138.681 194.957 140.072 194.957C140.887 194.957 141.604 195.12 142.224 195.446C142.582 195.62 142.865 195.908 143.072 196.31C143.278 196.712 143.376 197.19 143.365 197.744L143.283 201.576C143.283 201.891 143.316 202.135 143.381 202.309C143.479 202.483 143.735 202.565 144.148 202.554V203.564C143.984 203.608 143.767 203.63 143.495 203.63C143.017 203.63 142.669 203.548 142.452 203.385C142.246 203.222 142.099 202.901 142.012 202.423C141.479 203.401 140.534 203.891 139.175 203.891C138.241 203.891 137.518 203.684 137.007 203.271C136.507 202.847 136.257 202.222 136.257 201.396C136.257 200.614 136.54 200.021 137.105 199.619C137.67 199.195 138.741 198.913 140.316 198.772C141.045 198.717 141.479 198.647 141.621 198.56C141.827 198.418 141.93 198.109 141.93 197.63C141.93 196.522 141.311 195.967 140.072 195.967C138.605 195.967 137.887 196.554 137.92 197.728ZM141.898 200.027L141.93 199.326C141.767 199.445 141.528 199.543 141.213 199.619C140.735 199.652 140.365 199.69 140.104 199.733C139.202 199.886 138.654 200.011 138.458 200.108C137.98 200.337 137.741 200.75 137.741 201.347C137.741 201.826 137.882 202.2 138.164 202.472C138.458 202.744 138.849 202.88 139.338 202.88C139.653 202.88 139.941 202.836 140.202 202.749C140.474 202.662 140.735 202.521 140.985 202.325C141.246 202.119 141.452 201.82 141.604 201.429C141.767 201.038 141.865 200.57 141.898 200.027ZM151.642 200.614H153.012C152.968 201.244 152.729 201.907 152.294 202.603C152.055 202.994 151.68 203.309 151.17 203.548C150.67 203.776 150.083 203.891 149.409 203.891C149.181 203.891 149.018 203.885 148.92 203.874C148.442 203.852 147.953 203.727 147.453 203.499C146.061 202.804 145.366 201.423 145.366 199.358C145.366 198.272 145.616 197.304 146.116 196.457C146.735 195.457 147.8 194.957 149.311 194.957C150.376 194.957 151.224 195.228 151.854 195.772C152.485 196.304 152.849 197.005 152.947 197.875H151.577C151.36 196.603 150.615 195.967 149.344 195.967C148.518 195.967 147.898 196.272 147.485 196.88C147.083 197.478 146.882 198.304 146.882 199.358C146.882 200.38 147.094 201.222 147.518 201.885C147.942 202.548 148.583 202.88 149.442 202.88C150.181 202.88 150.719 202.646 151.055 202.179C151.414 201.711 151.61 201.19 151.642 200.614ZM156.391 203.564V196.294H153.522V195.283H160.695V196.294H157.825V203.564H156.391ZM163.226 195.283V201.885L167.546 195.283H169.143V203.564H167.709V196.946L163.405 203.564H161.791V195.283H163.226ZM172.921 195.283V198.902L176.459 195.283H178.138L174.258 199.13L178.35 203.564H176.638L172.921 199.424V203.564H171.486V195.283H172.921ZM180.555 197.728H179.185C179.185 197.076 179.403 196.478 179.838 195.935C180.359 195.283 181.316 194.957 182.707 194.957C183.522 194.957 184.239 195.12 184.859 195.446C185.217 195.62 185.5 195.908 185.706 196.31C185.913 196.712 186.011 197.19 186 197.744L185.918 201.576C185.918 201.891 185.951 202.135 186.016 202.309C186.114 202.483 186.369 202.565 186.782 202.554V203.564C186.619 203.608 186.402 203.63 186.13 203.63C185.652 203.63 185.304 203.548 185.087 203.385C184.88 203.222 184.734 202.901 184.647 202.423C184.114 203.401 183.169 203.891 181.81 203.891C180.875 203.891 180.153 203.684 179.642 203.271C179.142 202.847 178.892 202.222 178.892 201.396C178.892 200.614 179.175 200.021 179.74 199.619C180.305 199.195 181.375 198.913 182.951 198.772C183.68 198.717 184.114 198.647 184.256 198.56C184.462 198.418 184.565 198.109 184.565 197.63C184.565 196.522 183.946 195.967 182.707 195.967C181.24 195.967 180.522 196.554 180.555 197.728ZM184.533 200.027L184.565 199.326C184.402 199.445 184.163 199.543 183.848 199.619C183.37 199.652 183 199.69 182.739 199.733C181.837 199.886 181.288 200.011 181.093 200.108C180.615 200.337 180.376 200.75 180.376 201.347C180.376 201.826 180.517 202.2 180.799 202.472C181.093 202.744 181.484 202.88 181.973 202.88C182.288 202.88 182.576 202.836 182.837 202.749C183.109 202.662 183.37 202.521 183.62 202.325C183.881 202.119 184.087 201.82 184.239 201.429C184.402 201.038 184.5 200.57 184.533 200.027ZM193.713 195.283V201.885L198.033 195.283H199.631V203.564H198.196V196.946L193.892 203.564H192.279V195.283H193.713ZM207.778 200.614H209.147C209.104 201.244 208.865 201.907 208.43 202.603C208.191 202.994 207.816 203.309 207.305 203.548C206.805 203.776 206.218 203.891 205.544 203.891C205.316 203.891 205.153 203.885 205.055 203.874C204.577 203.852 204.088 203.727 203.588 203.499C202.197 202.804 201.501 201.423 201.501 199.358C201.501 198.272 201.751 197.304 202.251 196.457C202.871 195.457 203.936 194.957 205.447 194.957C206.512 194.957 207.359 195.228 207.99 195.772C208.62 196.304 208.984 197.005 209.082 197.875H207.713C207.495 196.603 206.751 195.967 205.479 195.967C204.653 195.967 204.034 196.272 203.621 196.88C203.219 197.478 203.017 198.304 203.017 199.358C203.017 200.38 203.229 201.222 203.653 201.885C204.077 202.548 204.718 202.88 205.577 202.88C206.316 202.88 206.854 202.646 207.191 202.179C207.55 201.711 207.745 201.19 207.778 200.614ZM216.53 196.294H212.34V203.564H210.905V195.283H217.964V203.564H216.53V196.294ZM220.054 201.054C219.771 199.891 219.782 198.766 220.086 197.679C220.391 196.592 221.032 195.815 222.01 195.348C222.553 195.087 223.189 194.957 223.917 194.957C224.645 194.957 225.281 195.087 225.825 195.348C226.803 195.804 227.449 196.62 227.765 197.793C227.906 198.337 227.977 198.886 227.977 199.44C227.987 199.983 227.922 200.521 227.781 201.054C227.651 201.576 227.417 202.054 227.08 202.488C226.754 202.923 226.335 203.266 225.825 203.516C225.27 203.766 224.635 203.891 223.917 203.891C223.2 203.891 222.564 203.766 222.01 203.516C221.064 203.059 220.412 202.239 220.054 201.054ZM221.57 197.777C221.428 198.212 221.358 198.755 221.358 199.407C221.358 200.049 221.428 200.597 221.57 201.054C221.711 201.51 221.874 201.853 222.059 202.081C222.45 202.516 222.896 202.771 223.396 202.847C223.743 202.901 224.091 202.901 224.439 202.847C224.591 202.836 224.803 202.76 225.075 202.619C225.368 202.467 225.607 202.277 225.792 202.048C225.977 201.82 226.134 201.489 226.265 201.054C226.406 200.597 226.477 200.049 226.477 199.407C226.477 198.755 226.406 198.212 226.265 197.777C226.113 197.299 225.944 196.956 225.759 196.75C225.586 196.543 225.368 196.37 225.107 196.228C224.847 196.087 224.624 196 224.439 195.967C224.091 195.913 223.743 195.913 223.396 195.967C223.243 195.978 223.026 196.06 222.743 196.212C222.189 196.484 221.798 197.005 221.57 197.777ZM228.905 203.564V202.505C229.72 202.744 230.296 202.358 230.633 201.347C230.72 201.097 230.78 200.788 230.812 200.418L230.877 199.424C230.888 199.25 230.894 198.907 230.894 198.397V195.283H236.632V203.564H235.198V196.294H232.231V198.397C232.231 199.081 232.214 199.657 232.182 200.125C232.149 200.581 232.068 201.081 231.937 201.624C231.752 202.396 231.421 202.945 230.943 203.271C230.464 203.597 229.785 203.695 228.905 203.564ZM238.973 203.564V195.283H240.408V198.576H242.478C243.293 198.576 243.994 198.695 244.581 198.935C245.396 199.228 245.804 199.913 245.804 200.989C245.804 201.88 245.543 202.543 245.021 202.978C244.804 203.151 244.549 203.282 244.255 203.369C243.864 203.499 243.435 203.564 242.967 203.564H238.973ZM242.152 199.587H240.408V202.554H242.397C243.071 202.554 243.565 202.418 243.88 202.146C244.195 201.831 244.342 201.445 244.32 200.989C244.32 200.489 244.157 200.119 243.831 199.88C243.723 199.804 243.549 199.739 243.31 199.684C243.049 199.619 242.706 199.587 242.283 199.587H242.152ZM246.6 201.021H247.969C247.969 201.565 248.165 202.01 248.556 202.358C248.947 202.706 249.485 202.88 250.17 202.88C250.844 202.88 251.371 202.744 251.751 202.472C252.132 202.19 252.322 201.782 252.322 201.249C252.322 200.26 251.697 199.766 250.447 199.766H249.224V198.755H250.284C251.436 198.755 252.012 198.326 252.012 197.467C252.012 197.326 251.99 197.185 251.947 197.043C251.914 196.902 251.838 196.745 251.719 196.571C251.61 196.386 251.42 196.239 251.148 196.131C250.876 196.022 250.539 195.967 250.137 195.967C249.42 195.967 248.915 196.136 248.621 196.473C248.328 196.81 248.181 197.174 248.181 197.565H246.812C246.844 197 246.991 196.527 247.252 196.147C247.513 195.766 247.85 195.495 248.263 195.332C248.936 195.082 249.588 194.957 250.219 194.957C250.773 194.957 251.262 195.022 251.686 195.152C252.11 195.272 252.431 195.419 252.648 195.593C252.876 195.766 253.055 195.973 253.186 196.212C253.327 196.451 253.414 196.663 253.447 196.848C253.479 197.022 253.496 197.196 253.496 197.369C253.496 198.337 253.017 198.94 252.061 199.179V199.228C252.572 199.304 252.99 199.527 253.316 199.896C253.642 200.266 253.805 200.75 253.805 201.347C253.805 201.956 253.588 202.51 253.153 203.01C252.621 203.597 251.664 203.891 250.284 203.891C249.121 203.891 248.235 203.646 247.627 203.157C246.942 202.559 246.6 201.847 246.6 201.021ZM255.776 206.564V205.504C256.189 205.559 256.429 205.586 256.494 205.586C256.907 205.586 257.2 205.434 257.374 205.129C257.483 204.966 257.553 204.831 257.586 204.722C257.619 204.668 257.689 204.488 257.798 204.184L257.994 203.564L254.407 195.283H256.119L258.776 201.983L260.977 195.283H262.412L259.119 204.543C258.858 205.282 258.635 205.765 258.45 205.994C258.081 206.428 257.581 206.646 256.95 206.646C256.461 206.646 256.07 206.618 255.776 206.564ZM269.553 201.168H270.922C270.792 201.896 270.439 202.532 269.863 203.075C269.287 203.619 268.433 203.891 267.303 203.891C265.771 203.891 264.646 203.385 263.929 202.374C263.57 201.842 263.336 201.271 263.228 200.663C263.151 200.239 263.113 199.837 263.113 199.456C263.113 198.728 263.222 198.043 263.439 197.402C263.581 196.946 263.787 196.549 264.059 196.212C264.352 195.853 264.771 195.554 265.314 195.315C265.858 195.076 266.472 194.957 267.156 194.957C268.374 194.957 269.292 195.294 269.912 195.967C270.172 196.25 270.384 196.609 270.547 197.043C270.786 197.674 270.933 198.44 270.988 199.342C270.988 199.375 270.988 199.445 270.988 199.554C270.998 199.663 271.004 199.728 271.004 199.75H264.63C264.63 200.576 264.847 201.304 265.282 201.934C265.716 202.565 266.374 202.88 267.254 202.88C267.885 202.88 268.401 202.722 268.803 202.407C269.205 202.092 269.455 201.679 269.553 201.168ZM264.63 198.739H269.488C269.477 198.098 269.325 197.505 269.031 196.962C268.694 196.299 268.08 195.967 267.189 195.967C266.178 195.967 265.483 196.304 265.102 196.978C264.787 197.522 264.63 198.109 264.63 198.739ZM274.791 203.564V196.294H271.922V195.283H279.095V196.294H276.226V203.564H274.791ZM285.867 200.614H287.237C287.193 201.244 286.954 201.907 286.52 202.603C286.28 202.994 285.906 203.309 285.395 203.548C284.895 203.776 284.308 203.891 283.634 203.891C283.406 203.891 283.243 203.885 283.145 203.874C282.667 203.852 282.178 203.727 281.678 203.499C280.287 202.804 279.591 201.423 279.591 199.358C279.591 198.272 279.841 197.304 280.341 196.457C280.96 195.457 282.026 194.957 283.536 194.957C284.601 194.957 285.449 195.228 286.079 195.772C286.71 196.304 287.074 197.005 287.172 197.875H285.802C285.585 196.603 284.84 195.967 283.569 195.967C282.743 195.967 282.123 196.272 281.71 196.88C281.308 197.478 281.107 198.304 281.107 199.358C281.107 200.38 281.319 201.222 281.743 201.885C282.167 202.548 282.808 202.88 283.667 202.88C284.406 202.88 284.944 202.646 285.281 202.179C285.639 201.711 285.835 201.19 285.867 200.614ZM294.065 200.304H292.174L290.006 203.564H288.425L290.707 200.288C290.077 200.222 289.566 199.978 289.174 199.554C288.783 199.13 288.588 198.576 288.588 197.891C288.588 197.25 288.756 196.69 289.093 196.212C289.495 195.593 290.256 195.283 291.375 195.283H295.5V203.564H294.065V200.304ZM294.065 199.293V196.294H291.995C290.712 196.294 290.071 196.81 290.071 197.842C290.071 198.266 290.229 198.614 290.544 198.886C290.859 199.157 291.359 199.293 292.044 199.293H294.065ZM20.3453 223.716L20.2148 220.554H21.2582C22.1603 219.228 22.6113 217.266 22.6113 214.668V213.283H28.5454V220.554H29.9801L29.8659 223.716H28.6596V221.564H21.5517V223.716H20.3453ZM27.1108 220.554V214.294H23.9481V215.451C23.9481 216.331 23.8503 217.244 23.6547 218.19C23.4808 219.125 23.1873 219.912 22.7743 220.554H27.1108ZM30.6636 221.564V220.505C31.4787 220.744 32.0548 220.358 32.3917 219.347C32.4786 219.097 32.5384 218.788 32.571 218.418L32.6362 217.424C32.6471 217.25 32.6525 216.907 32.6525 216.397V213.283H38.391V221.564H36.9564V214.294H33.9893V216.397C33.9893 217.081 33.973 217.657 33.9404 218.125C33.9078 218.581 33.8263 219.081 33.6959 219.624C33.5111 220.396 33.1796 220.945 32.7014 221.271C32.2232 221.597 31.544 221.695 30.6636 221.564ZM45.802 218.304H43.9109L41.7427 221.564H40.1614L42.4437 218.288C41.8134 218.222 41.3025 217.978 40.9113 217.554C40.52 217.13 40.3244 216.576 40.3244 215.891C40.3244 215.25 40.4928 214.69 40.8298 214.212C41.2319 213.593 41.9927 213.283 43.1121 213.283H47.2367V221.564H45.802V218.304ZM45.802 217.293V214.294H43.7316C42.4492 214.294 41.8079 214.81 41.8079 215.842C41.8079 216.266 41.9655 216.614 42.2807 216.886C42.5959 217.157 43.0958 217.293 43.7805 217.293H45.802ZM54.8233 213.283V219.885L59.1435 213.283H60.7411V221.564H59.3065V214.946L55.0026 221.564H53.3887V213.283H54.8233ZM62.4321 219.021H63.8016C63.8016 219.565 63.9972 220.01 64.3884 220.358C64.7797 220.706 65.3177 220.88 66.0024 220.88C66.6762 220.88 67.2033 220.744 67.5837 220.472C67.9641 220.19 68.1543 219.782 68.1543 219.249C68.1543 218.26 67.5294 217.766 66.2795 217.766H65.0568V216.755H66.1165C67.2686 216.755 67.8446 216.326 67.8446 215.467C67.8446 215.326 67.8228 215.185 67.7794 215.043C67.7468 214.902 67.6707 214.745 67.5511 214.571C67.4424 214.386 67.2523 214.239 66.9805 214.131C66.7088 214.022 66.3719 213.967 65.9698 213.967C65.2525 213.967 64.7471 214.136 64.4537 214.473C64.1602 214.81 64.0135 215.174 64.0135 215.565H62.6441C62.6767 215 62.8234 214.527 63.0842 214.147C63.3451 213.766 63.682 213.495 64.095 213.332C64.7688 213.082 65.4209 212.957 66.0513 212.957C66.6056 212.957 67.0947 213.022 67.5185 213.152C67.9424 213.272 68.263 213.419 68.4804 213.593C68.7086 213.766 68.8879 213.973 69.0184 214.212C69.1596 214.451 69.2466 214.663 69.2792 214.848C69.3118 215.022 69.3281 215.196 69.3281 215.369C69.3281 216.337 68.8499 216.94 67.8935 217.179V217.228C68.4043 217.304 68.8227 217.527 69.1488 217.896C69.4748 218.266 69.6379 218.75 69.6379 219.347C69.6379 219.956 69.4205 220.51 68.9858 221.01C68.4532 221.597 67.4968 221.891 66.1165 221.891C64.9536 221.891 64.0678 221.646 63.4592 221.157C62.7745 220.559 62.4321 219.847 62.4321 219.021ZM77.1794 214.294H72.9408V221.564H71.5061V213.283H77.1794V214.294ZM77.8841 219.054C77.6015 217.891 77.6124 216.766 77.9167 215.679C78.221 214.592 78.8623 213.815 79.8404 213.348C80.3838 213.087 81.0196 212.957 81.7478 212.957C82.476 212.957 83.1118 213.087 83.6552 213.348C84.6334 213.804 85.28 214.62 85.5952 215.793C85.7365 216.337 85.8072 216.886 85.8072 217.44C85.818 217.983 85.7528 218.521 85.6115 219.054C85.4811 219.576 85.2474 220.054 84.9105 220.488C84.5845 220.923 84.166 221.266 83.6552 221.516C83.1009 221.766 82.4651 221.891 81.7478 221.891C81.0305 221.891 80.3947 221.766 79.8404 221.516C78.8949 221.059 78.2428 220.239 77.8841 219.054ZM79.4003 215.777C79.259 216.212 79.1883 216.755 79.1883 217.407C79.1883 218.049 79.259 218.597 79.4003 219.054C79.5415 219.51 79.7046 219.853 79.8893 220.081C80.2806 220.516 80.7262 220.771 81.2261 220.847C81.5739 220.901 81.9217 220.901 82.2695 220.847C82.4217 220.836 82.6336 220.76 82.9053 220.619C83.1987 220.467 83.4379 220.277 83.6226 220.048C83.8074 219.82 83.965 219.489 84.0954 219.054C84.2367 218.597 84.3073 218.049 84.3073 217.407C84.3073 216.755 84.2367 216.212 84.0954 215.777C83.9432 215.299 83.7748 214.956 83.59 214.75C83.4161 214.543 83.1987 214.37 82.9379 214.228C82.6771 214.087 82.4543 214 82.2695 213.967C81.9217 213.913 81.5739 213.913 81.2261 213.967C81.074 213.978 80.8566 214.06 80.574 214.212C80.0198 214.484 79.6285 215.005 79.4003 215.777ZM89.0952 221.564V214.294H86.2259V213.283H93.399V214.294H90.5298V221.564H89.0952ZM94.2185 219.054C93.9359 217.891 93.9468 216.766 94.2511 215.679C94.5554 214.592 95.1966 213.815 96.1748 213.348C96.7182 213.087 97.354 212.957 98.0822 212.957C98.8104 212.957 99.4462 213.087 99.9896 213.348C100.968 213.804 101.614 214.62 101.93 215.793C102.071 216.337 102.142 216.886 102.142 217.44C102.152 217.983 102.087 218.521 101.946 219.054C101.815 219.576 101.582 220.054 101.245 220.488C100.919 220.923 100.5 221.266 99.9896 221.516C99.4353 221.766 98.7995 221.891 98.0822 221.891C97.3649 221.891 96.7291 221.766 96.1748 221.516C95.2292 221.059 94.5771 220.239 94.2185 219.054ZM95.7346 215.777C95.5933 216.212 95.5227 216.755 95.5227 217.407C95.5227 218.049 95.5933 218.597 95.7346 219.054C95.8759 219.51 96.0389 219.853 96.2237 220.081C96.615 220.516 97.0606 220.771 97.5605 220.847C97.9083 220.901 98.2561 220.901 98.6039 220.847C98.756 220.836 98.968 220.76 99.2397 220.619C99.5331 220.467 99.7722 220.277 99.957 220.048C100.142 219.82 100.299 219.489 100.43 219.054C100.571 218.597 100.642 218.049 100.642 217.407C100.642 216.755 100.571 216.212 100.43 215.777C100.278 215.299 100.109 214.956 99.9244 214.75C99.7505 214.543 99.5331 214.37 99.2723 214.228C99.0114 214.087 98.7886 214 98.6039 213.967C98.2561 213.913 97.9083 213.913 97.5605 213.967C97.4084 213.978 97.191 214.06 96.9084 214.212C96.3541 214.484 95.9629 215.005 95.7346 215.777ZM104.032 221.564V213.283H107.977C109.727 213.283 110.602 213.94 110.602 215.255C110.602 216.201 110.102 216.848 109.102 217.195V217.244C109.776 217.407 110.243 217.668 110.504 218.027C110.775 218.385 110.911 218.847 110.911 219.413C110.911 220.315 110.58 220.912 109.917 221.206C109.373 221.445 108.71 221.564 107.928 221.564H104.032ZM107.52 214.294H105.466V216.739H107.455C108.031 216.739 108.455 216.625 108.727 216.397C109.009 216.157 109.151 215.848 109.151 215.467C109.151 214.685 108.607 214.294 107.52 214.294ZM107.52 217.75H105.466V220.554H107.569C108.808 220.554 109.428 220.13 109.428 219.282C109.428 218.26 108.792 217.75 107.52 217.75ZM111.858 221.564V220.505C112.673 220.744 113.249 220.358 113.586 219.347C113.673 219.097 113.733 218.788 113.765 218.418L113.83 217.424C113.841 217.25 113.847 216.907 113.847 216.397V213.283H119.585V221.564H118.151V214.294H115.184V216.397C115.184 217.081 115.167 217.657 115.135 218.125C115.102 218.581 115.021 219.081 114.89 219.624C114.705 220.396 114.374 220.945 113.896 221.271C113.417 221.597 112.738 221.695 111.858 221.564ZM127.893 219.168H129.262C129.132 219.896 128.779 220.532 128.203 221.075C127.627 221.619 126.773 221.891 125.643 221.891C124.111 221.891 122.986 221.385 122.269 220.374C121.91 219.842 121.676 219.271 121.567 218.663C121.491 218.239 121.453 217.837 121.453 217.456C121.453 216.728 121.562 216.043 121.779 215.402C121.921 214.946 122.127 214.549 122.399 214.212C122.692 213.853 123.111 213.554 123.654 213.315C124.198 213.076 124.812 212.957 125.496 212.957C126.714 212.957 127.632 213.294 128.252 213.967C128.512 214.25 128.724 214.609 128.887 215.043C129.126 215.674 129.273 216.44 129.328 217.342C129.328 217.375 129.328 217.445 129.328 217.554C129.338 217.663 129.344 217.728 129.344 217.75H122.97C122.97 218.576 123.187 219.304 123.622 219.934C124.056 220.565 124.714 220.88 125.594 220.88C126.225 220.88 126.741 220.722 127.143 220.407C127.545 220.092 127.795 219.679 127.893 219.168ZM122.97 216.739H127.828C127.817 216.098 127.665 215.505 127.371 214.962C127.034 214.299 126.42 213.967 125.529 213.967C124.518 213.967 123.823 214.304 123.442 214.978C123.127 215.522 122.97 216.109 122.97 216.739ZM136.75 217.701H132.658V221.564H131.224V213.283H132.658V216.69H136.75V213.283H138.185V221.564H136.75V217.701ZM141.972 213.283V219.885L146.292 213.283H147.89V221.564H146.455V214.946L142.151 221.564H140.537V213.283H141.972ZM155.303 218.304H153.412L151.243 221.564H149.662L151.944 218.288C151.314 218.222 150.803 217.978 150.412 217.554C150.021 217.13 149.825 216.576 149.825 215.891C149.825 215.25 149.994 214.69 150.33 214.212C150.733 213.593 151.493 213.283 152.613 213.283H156.737V221.564H155.303V218.304ZM155.303 217.293V214.294H153.232C151.95 214.294 151.309 214.81 151.309 215.842C151.309 216.266 151.466 216.614 151.781 216.886C152.097 217.157 152.597 217.293 153.281 217.293H155.303ZM162.889 221.564V213.283H166.835C168.584 213.283 169.459 213.94 169.459 215.255C169.459 216.201 168.959 216.848 167.96 217.195V217.244C168.633 217.407 169.101 217.668 169.362 218.027C169.633 218.385 169.769 218.847 169.769 219.413C169.769 220.315 169.438 220.912 168.775 221.206C168.231 221.445 167.568 221.564 166.786 221.564H162.889ZM166.378 214.294H164.324V216.739H166.313C166.889 216.739 167.313 216.625 167.585 216.397C167.867 216.157 168.008 215.848 168.008 215.467C168.008 214.685 167.465 214.294 166.378 214.294ZM166.378 217.75H164.324V220.554H166.427C167.666 220.554 168.286 220.13 168.286 219.282C168.286 218.26 167.65 217.75 166.378 217.75ZM177.481 218.614H178.851C178.807 219.244 178.568 219.907 178.133 220.603C177.894 220.994 177.519 221.309 177.008 221.548C176.508 221.776 175.922 221.891 175.248 221.891C175.02 221.891 174.856 221.885 174.759 221.874C174.28 221.852 173.791 221.727 173.291 221.499C171.9 220.804 171.205 219.423 171.205 217.358C171.205 216.272 171.455 215.304 171.955 214.457C172.574 213.457 173.639 212.957 175.15 212.957C176.215 212.957 177.063 213.228 177.693 213.772C178.324 214.304 178.688 215.005 178.785 215.875H177.416C177.199 214.603 176.454 213.967 175.183 213.967C174.357 213.967 173.737 214.272 173.324 214.88C172.922 215.478 172.721 216.304 172.721 217.358C172.721 218.38 172.933 219.222 173.357 219.885C173.781 220.548 174.422 220.88 175.28 220.88C176.019 220.88 176.557 220.646 176.894 220.179C177.253 219.711 177.449 219.19 177.481 218.614ZM186.576 219.168H187.945C187.815 219.896 187.461 220.532 186.885 221.075C186.309 221.619 185.456 221.891 184.326 221.891C182.793 221.891 181.669 221.385 180.951 220.374C180.593 219.842 180.359 219.271 180.25 218.663C180.174 218.239 180.136 217.837 180.136 217.456C180.136 216.728 180.245 216.043 180.462 215.402C180.603 214.946 180.81 214.549 181.082 214.212C181.375 213.853 181.794 213.554 182.337 213.315C182.88 213.076 183.494 212.957 184.179 212.957C185.396 212.957 186.315 213.294 186.934 213.967C187.195 214.25 187.407 214.609 187.57 215.043C187.809 215.674 187.956 216.44 188.01 217.342C188.01 217.375 188.01 217.445 188.01 217.554C188.021 217.663 188.027 217.728 188.027 217.75H181.652C181.652 218.576 181.87 219.304 182.304 219.934C182.739 220.565 183.397 220.88 184.277 220.88C184.907 220.88 185.424 220.722 185.826 220.407C186.228 220.092 186.478 219.679 186.576 219.168ZM181.652 216.739H186.51C186.5 216.098 186.347 215.505 186.054 214.962C185.717 214.299 185.103 213.967 184.212 213.967C183.201 213.967 182.505 214.304 182.125 214.978C181.81 215.522 181.652 216.109 181.652 216.739ZM195.58 214.294H191.341V221.564H189.906V213.283H195.58V214.294ZM196.284 219.054C196.002 217.891 196.013 216.766 196.317 215.679C196.621 214.592 197.263 213.815 198.241 213.348C198.784 213.087 199.42 212.957 200.148 212.957C200.876 212.957 201.512 213.087 202.055 213.348C203.034 213.804 203.68 214.62 203.995 215.793C204.137 216.337 204.207 216.886 204.207 217.44C204.218 217.983 204.153 218.521 204.012 219.054C203.881 219.576 203.648 220.054 203.311 220.488C202.985 220.923 202.566 221.266 202.055 221.516C201.501 221.766 200.865 221.891 200.148 221.891C199.431 221.891 198.795 221.766 198.241 221.516C197.295 221.059 196.643 220.239 196.284 219.054ZM197.801 215.777C197.659 216.212 197.589 216.755 197.589 217.407C197.589 218.049 197.659 218.597 197.801 219.054C197.942 219.51 198.105 219.853 198.29 220.081C198.681 220.516 199.126 220.771 199.626 220.847C199.974 220.901 200.322 220.901 200.67 220.847C200.822 220.836 201.034 220.76 201.306 220.619C201.599 220.467 201.838 220.277 202.023 220.048C202.208 219.82 202.365 219.489 202.496 219.054C202.637 218.597 202.708 218.049 202.708 217.407C202.708 216.755 202.637 216.212 202.496 215.777C202.343 215.299 202.175 214.956 201.99 214.75C201.816 214.543 201.599 214.37 201.338 214.228C201.077 214.087 200.855 214 200.67 213.967C200.322 213.913 199.974 213.913 199.626 213.967C199.474 213.978 199.257 214.06 198.974 214.212C198.42 214.484 198.029 215.005 197.801 215.777ZM215.527 214.294H211.337V221.564H209.902V213.283H216.961V221.564H215.527V214.294ZM218.35 221.564V220.505C219.165 220.744 219.741 220.358 220.078 219.347C220.165 219.097 220.224 218.788 220.257 218.418L220.322 217.424C220.333 217.25 220.338 216.907 220.338 216.397V213.283H226.077V221.564H224.642V214.294H221.675V216.397C221.675 217.081 221.659 217.657 221.626 218.125C221.594 218.581 221.512 219.081 221.382 219.624C221.197 220.396 220.866 220.945 220.387 221.271C219.909 221.597 219.23 221.695 218.35 221.564ZM229.51 215.728H228.141C228.141 215.076 228.358 214.478 228.793 213.935C229.315 213.283 230.271 212.957 231.662 212.957C232.477 212.957 233.195 213.12 233.814 213.446C234.173 213.62 234.455 213.908 234.662 214.31C234.868 214.712 234.966 215.19 234.955 215.744L234.874 219.576C234.874 219.891 234.906 220.135 234.972 220.309C235.069 220.483 235.325 220.565 235.738 220.554V221.564C235.575 221.608 235.357 221.63 235.086 221.63C234.607 221.63 234.26 221.548 234.042 221.385C233.836 221.222 233.689 220.901 233.602 220.423C233.07 221.401 232.124 221.891 230.765 221.891C229.831 221.891 229.108 221.684 228.597 221.271C228.097 220.847 227.847 220.222 227.847 219.396C227.847 218.614 228.13 218.021 228.695 217.619C229.26 217.195 230.331 216.913 231.907 216.772C232.635 216.717 233.07 216.647 233.211 216.56C233.417 216.418 233.521 216.109 233.521 215.63C233.521 214.522 232.901 213.967 231.662 213.967C230.195 213.967 229.478 214.554 229.51 215.728ZM233.488 218.027L233.521 217.326C233.358 217.445 233.118 217.543 232.803 217.619C232.325 217.652 231.956 217.69 231.695 217.733C230.793 217.886 230.244 218.011 230.048 218.108C229.57 218.337 229.331 218.75 229.331 219.347C229.331 219.826 229.472 220.2 229.755 220.472C230.048 220.744 230.439 220.88 230.929 220.88C231.244 220.88 231.532 220.836 231.793 220.749C232.064 220.662 232.325 220.521 232.575 220.325C232.836 220.119 233.042 219.82 233.195 219.429C233.358 219.038 233.455 218.57 233.488 218.027ZM243.233 218.614H244.602C244.559 219.244 244.319 219.907 243.885 220.603C243.646 220.994 243.271 221.309 242.76 221.548C242.26 221.776 241.673 221.891 240.999 221.891C240.771 221.891 240.608 221.885 240.51 221.874C240.032 221.852 239.543 221.727 239.043 221.499C237.652 220.804 236.956 219.423 236.956 217.358C236.956 216.272 237.206 215.304 237.706 214.457C238.326 213.457 239.391 212.957 240.901 212.957C241.966 212.957 242.814 213.228 243.445 213.772C244.075 214.304 244.439 215.005 244.537 215.875H243.167C242.95 214.603 242.206 213.967 240.934 213.967C240.108 213.967 239.488 214.272 239.075 214.88C238.673 215.478 238.472 216.304 238.472 217.358C238.472 218.38 238.684 219.222 239.108 219.885C239.532 220.548 240.173 220.88 241.032 220.88C241.771 220.88 242.309 220.646 242.646 220.179C243.004 219.711 243.2 219.19 243.233 218.614ZM247.981 221.564V214.294H245.112V213.283H252.285V214.294H249.416V221.564H247.981ZM254.816 213.283V219.885L259.136 213.283H260.734V221.564H259.299V214.946L254.995 221.564H253.381V213.283H254.816ZM264.511 213.283V216.902L268.049 213.283H269.728L265.848 217.13L269.94 221.564H268.228L264.511 217.424V221.564H263.077V213.283H264.511ZM272.145 215.728H270.776C270.776 215.076 270.993 214.478 271.428 213.935C271.949 213.283 272.906 212.957 274.297 212.957C275.112 212.957 275.829 213.12 276.449 213.446C276.808 213.62 277.09 213.908 277.297 214.31C277.503 214.712 277.601 215.19 277.59 215.744L277.509 219.576C277.509 219.891 277.541 220.135 277.606 220.309C277.704 220.483 277.96 220.565 278.373 220.554V221.564C278.21 221.608 277.992 221.63 277.721 221.63C277.242 221.63 276.895 221.548 276.677 221.385C276.471 221.222 276.324 220.901 276.237 220.423C275.704 221.401 274.759 221.891 273.4 221.891C272.466 221.891 271.743 221.684 271.232 221.271C270.732 220.847 270.482 220.222 270.482 219.396C270.482 218.614 270.765 218.021 271.33 217.619C271.895 217.195 272.966 216.913 274.542 216.772C275.27 216.717 275.704 216.647 275.846 216.56C276.052 216.418 276.156 216.109 276.156 215.63C276.156 214.522 275.536 213.967 274.297 213.967C272.83 213.967 272.113 214.554 272.145 215.728ZM276.123 218.027L276.156 217.326C275.993 217.445 275.753 217.543 275.438 217.619C274.96 217.652 274.59 217.69 274.33 217.733C273.428 217.886 272.879 218.011 272.683 218.108C272.205 218.337 271.966 218.75 271.966 219.347C271.966 219.826 272.107 220.2 272.39 220.472C272.683 220.744 273.074 220.88 273.563 220.88C273.879 220.88 274.167 220.836 274.427 220.749C274.699 220.662 274.96 220.521 275.21 220.325C275.471 220.119 275.677 219.82 275.829 219.429C275.993 219.038 276.09 218.57 276.123 218.027ZM280.618 221.564V219.787H282.232V222.07C282.232 222.613 282.08 223.043 281.776 223.358C281.471 223.673 281.085 223.879 280.618 223.977V223.081C280.846 223.059 281.037 222.945 281.189 222.738C281.352 222.543 281.433 222.32 281.433 222.07V221.564H280.618ZM26.9152 235.701H22.8232V239.564H21.3886V231.283H22.8232V234.69H26.9152V231.283H28.3498V239.564H26.9152V235.701ZM36.6688 237.168H38.0382C37.9078 237.896 37.5546 238.532 36.9785 239.075C36.4025 239.619 35.5494 239.891 34.4191 239.891C32.8866 239.891 31.7617 239.385 31.0444 238.374C30.6858 237.842 30.4521 237.271 30.3434 236.663C30.2673 236.239 30.2293 235.837 30.2293 235.456C30.2293 234.728 30.338 234.043 30.5554 233.402C30.6966 232.946 30.9031 232.549 31.1749 232.212C31.4683 231.853 31.8867 231.554 32.4301 231.315C32.9736 231.076 33.5876 230.957 34.2723 230.957C35.4896 230.957 36.408 231.294 37.0275 231.967C37.2883 232.25 37.5002 232.609 37.6633 233.043C37.9024 233.674 38.0491 234.44 38.1034 235.342C38.1034 235.375 38.1034 235.445 38.1034 235.554C38.1143 235.663 38.1197 235.728 38.1197 235.75H31.7454C31.7454 236.576 31.9628 237.304 32.3975 237.934C32.8323 238.565 33.4898 238.88 34.3701 238.88C35.0005 238.88 35.5168 238.722 35.9189 238.407C36.321 238.092 36.571 237.679 36.6688 237.168ZM31.7454 234.739H36.6036C36.5927 234.098 36.4406 233.505 36.1471 232.962C35.8102 232.299 35.1961 231.967 34.3049 231.967C33.2942 231.967 32.5986 232.304 32.2182 232.978C31.903 233.522 31.7454 234.109 31.7454 234.739ZM43.8046 239.564V231.283H47.7498C49.4996 231.283 50.3745 231.94 50.3745 233.255C50.3745 234.201 49.8746 234.848 48.8747 235.195V235.244C49.5485 235.407 50.0159 235.668 50.2767 236.027C50.5484 236.385 50.6843 236.847 50.6843 237.413C50.6843 238.315 50.3528 238.912 49.6898 239.206C49.1464 239.445 48.4834 239.564 47.7009 239.564H43.8046ZM47.2933 232.294H45.2392V234.739H47.2281C47.8041 234.739 48.228 234.625 48.4997 234.397C48.7823 234.157 48.9236 233.848 48.9236 233.467C48.9236 232.685 48.3802 232.294 47.2933 232.294ZM47.2933 235.75H45.2392V238.554H47.3422C48.5812 238.554 49.2007 238.13 49.2007 237.282C49.2007 236.26 48.5649 235.75 47.2933 235.75ZM52.3318 237.054C52.0493 235.891 52.0601 234.766 52.3644 233.679C52.6688 232.592 53.31 231.815 54.2881 231.348C54.8316 231.087 55.4673 230.957 56.1955 230.957C56.9237 230.957 57.5595 231.087 58.1029 231.348C59.0811 231.804 59.7277 232.62 60.0429 233.793C60.1842 234.337 60.2549 234.886 60.2549 235.44C60.2657 235.983 60.2005 236.521 60.0592 237.054C59.9288 237.576 59.6951 238.054 59.3582 238.488C59.0322 238.923 58.6137 239.266 58.1029 239.516C57.5486 239.766 56.9128 239.891 56.1955 239.891C55.4782 239.891 54.8424 239.766 54.2881 239.516C53.3426 239.059 52.6905 238.239 52.3318 237.054ZM53.848 233.777C53.7067 234.212 53.636 234.755 53.636 235.407C53.636 236.049 53.7067 236.597 53.848 237.054C53.9893 237.51 54.1523 237.853 54.337 238.081C54.7283 238.516 55.1739 238.771 55.6738 238.847C56.0216 238.901 56.3694 238.901 56.7172 238.847C56.8694 238.836 57.0813 238.76 57.353 238.619C57.6465 238.467 57.8856 238.277 58.0703 238.048C58.2551 237.82 58.4127 237.489 58.5431 237.054C58.6844 236.597 58.755 236.049 58.755 235.407C58.755 234.755 58.6844 234.212 58.5431 233.777C58.3909 233.299 58.2225 232.956 58.0377 232.75C57.8638 232.543 57.6465 232.37 57.3856 232.228C57.1248 232.087 56.902 232 56.7172 231.967C56.3694 231.913 56.0216 231.913 55.6738 231.967C55.5217 231.978 55.3043 232.06 55.0217 232.212C54.4675 232.484 54.0762 233.005 53.848 233.777ZM63.5796 231.283V238.554H67.0357V231.283H68.4703V238.554H71.9264V231.283H73.3611V239.564H62.1449V231.283H63.5796ZM81.6759 237.168H83.0453C82.9149 237.896 82.5616 238.532 81.9856 239.075C81.4096 239.619 80.5564 239.891 79.4261 239.891C77.8937 239.891 76.7688 239.385 76.0515 238.374C75.6928 237.842 75.4592 237.271 75.3505 236.663C75.2744 236.239 75.2364 235.837 75.2364 235.456C75.2364 234.728 75.3451 234.043 75.5624 233.402C75.7037 232.946 75.9102 232.549 76.1819 232.212C76.4754 231.853 76.8938 231.554 77.4372 231.315C77.9806 231.076 78.5947 230.957 79.2794 230.957C80.4966 230.957 81.415 231.294 82.0345 231.967C82.2954 232.25 82.5073 232.609 82.6703 233.043C82.9094 233.674 83.0561 234.44 83.1105 235.342C83.1105 235.375 83.1105 235.445 83.1105 235.554C83.1214 235.663 83.1268 235.728 83.1268 235.75H76.7525C76.7525 236.576 76.9699 237.304 77.4046 237.934C77.8393 238.565 78.4969 238.88 79.3772 238.88C80.0076 238.88 80.5238 238.722 80.9259 238.407C81.3281 238.092 81.578 237.679 81.6759 237.168ZM76.7525 234.739H81.6107C81.5998 234.098 81.4476 233.505 81.1542 232.962C80.8173 232.299 80.2032 231.967 79.312 231.967C78.3012 231.967 77.6057 232.304 77.2253 232.978C76.9101 233.522 76.7525 234.109 76.7525 234.739ZM83.9633 241.716L83.8329 238.554H84.8763C85.7783 237.228 86.2294 235.266 86.2294 232.668V231.283H92.1635V238.554H93.5981L93.484 241.716H92.2776V239.564H85.1697V241.716H83.9633ZM90.7289 238.554V232.294H87.5662V233.451C87.5662 234.331 87.4684 235.244 87.2727 236.19C87.0988 237.125 86.8054 237.912 86.3924 238.554H90.7289ZM96.2642 231.283V238.554H99.7203V231.283H101.155V238.554H104.611V231.283H106.046V239.564H94.8296V231.283H96.2642ZM114.361 237.168H115.73C115.599 237.896 115.246 238.532 114.67 239.075C114.094 239.619 113.241 239.891 112.111 239.891C110.578 239.891 109.453 239.385 108.736 238.374C108.377 237.842 108.144 237.271 108.035 236.663C107.959 236.239 107.921 235.837 107.921 235.456C107.921 234.728 108.03 234.043 108.247 233.402C108.388 232.946 108.595 232.549 108.867 232.212C109.16 231.853 109.578 231.554 110.122 231.315C110.665 231.076 111.279 230.957 111.964 230.957C113.181 230.957 114.1 231.294 114.719 231.967C114.98 232.25 115.192 232.609 115.355 233.043C115.594 233.674 115.741 234.44 115.795 235.342C115.795 235.375 115.795 235.445 115.795 235.554C115.806 235.663 115.811 235.728 115.811 235.75H109.437C109.437 236.576 109.655 237.304 110.089 237.934C110.524 238.565 111.182 238.88 112.062 238.88C112.692 238.88 113.208 238.722 113.611 238.407C114.013 238.092 114.263 237.679 114.361 237.168ZM109.437 234.739H114.295C114.284 234.098 114.132 233.505 113.839 232.962C113.502 232.299 112.888 231.967 111.997 231.967C110.986 231.967 110.29 232.304 109.91 232.978C109.595 233.522 109.437 234.109 109.437 234.739ZM123.365 232.294H119.126V239.564H117.691V231.283H123.365V232.294ZM124.069 237.054C123.787 235.891 123.798 234.766 124.102 233.679C124.406 232.592 125.047 231.815 126.026 231.348C126.569 231.087 127.205 230.957 127.933 230.957C128.661 230.957 129.297 231.087 129.84 231.348C130.819 231.804 131.465 232.62 131.78 233.793C131.922 234.337 131.992 234.886 131.992 235.44C132.003 235.983 131.938 236.521 131.797 237.054C131.666 237.576 131.433 238.054 131.096 238.488C130.77 238.923 130.351 239.266 129.84 239.516C129.286 239.766 128.65 239.891 127.933 239.891C127.216 239.891 126.58 239.766 126.026 239.516C125.08 239.059 124.428 238.239 124.069 237.054ZM125.585 233.777C125.444 234.212 125.374 234.755 125.374 235.407C125.374 236.049 125.444 236.597 125.585 237.054C125.727 237.51 125.89 237.853 126.075 238.081C126.466 238.516 126.911 238.771 127.411 238.847C127.759 238.901 128.107 238.901 128.455 238.847C128.607 238.836 128.819 238.76 129.09 238.619C129.384 238.467 129.623 238.277 129.808 238.048C129.993 237.82 130.15 237.489 130.281 237.054C130.422 236.597 130.492 236.049 130.492 235.407C130.492 234.755 130.422 234.212 130.281 233.777C130.128 233.299 129.96 232.956 129.775 232.75C129.601 232.543 129.384 232.37 129.123 232.228C128.862 232.087 128.639 232 128.455 231.967C128.107 231.913 127.759 231.913 127.411 231.967C127.259 231.978 127.042 232.06 126.759 232.212C126.205 232.484 125.814 233.005 125.585 233.777ZM137.687 239.564V231.283H141.633C143.382 231.283 144.257 231.94 144.257 233.255C144.257 234.201 143.757 234.848 142.757 235.195V235.244C143.431 235.407 143.899 235.668 144.159 236.027C144.431 236.385 144.567 236.847 144.567 237.413C144.567 238.315 144.236 238.912 143.573 239.206C143.029 239.445 142.366 239.564 141.584 239.564H137.687ZM141.176 232.294H139.122V234.739H141.111C141.687 234.739 142.111 234.625 142.383 234.397C142.665 234.157 142.806 233.848 142.806 233.467C142.806 232.685 142.263 232.294 141.176 232.294ZM141.176 235.75H139.122V238.554H141.225C142.464 238.554 143.084 238.13 143.084 237.282C143.084 236.26 142.448 235.75 141.176 235.75ZM155.954 232.294H151.715V239.564H150.28V231.283H155.954V232.294ZM156.919 242.58V231.283H158.256V232.424H158.305C158.957 231.446 159.87 230.957 161.044 230.957C162.12 230.957 163.011 231.332 163.717 232.082C164.424 232.842 164.777 233.956 164.777 235.424C164.777 236.923 164.418 238.043 163.701 238.782C162.995 239.521 162.12 239.891 161.076 239.891C160.75 239.891 160.354 239.82 159.886 239.679C159.202 239.472 158.691 239.037 158.354 238.374V242.58H156.919ZM158.256 235.456C158.256 236.608 158.517 237.472 159.039 238.048C159.582 238.603 160.174 238.88 160.816 238.88C161.489 238.88 162.065 238.608 162.544 238.065C163.022 237.499 163.261 236.619 163.261 235.424C163.261 234.337 163.038 233.489 162.593 232.88C162.158 232.272 161.538 231.967 160.734 231.967C160.31 231.967 159.913 232.082 159.544 232.31C158.685 232.821 158.256 233.869 158.256 235.456ZM166.654 242.564V241.504C167.067 241.559 167.306 241.586 167.371 241.586C167.784 241.586 168.078 241.434 168.252 241.129C168.36 240.966 168.431 240.831 168.463 240.722C168.496 240.668 168.567 240.488 168.675 240.184L168.871 239.564L165.284 231.283H166.996L169.654 237.983L171.854 231.283H173.289L169.996 240.543C169.735 241.282 169.512 241.765 169.328 241.994C168.958 242.428 168.458 242.646 167.828 242.646C167.339 242.646 166.947 242.618 166.654 242.564ZM180.088 232.294H175.898V239.564H174.464V231.283H181.523V239.564H180.088V232.294ZM189.497 232.294H185.307V239.564H183.873V231.283H190.932V239.564H189.497V232.294ZM193.282 239.564V231.283H194.716V234.56H196.803C197.466 234.56 198.02 234.625 198.466 234.755C199.531 235.027 200.085 235.804 200.129 237.086C200.129 237.847 199.895 238.45 199.428 238.896C198.971 239.342 198.259 239.564 197.292 239.564H193.282ZM196.461 235.57H194.716V238.554H196.721C198.004 238.554 198.645 238.032 198.645 236.989C198.645 236.478 198.477 236.108 198.14 235.88C198.031 235.793 197.852 235.722 197.602 235.668C197.341 235.603 196.96 235.57 196.461 235.57ZM201.139 239.564V231.283H202.574V239.564H201.139ZM208.724 239.564V231.283H212.67C214.419 231.283 215.294 231.94 215.294 233.255C215.294 234.201 214.794 234.848 213.794 235.195V235.244C214.468 235.407 214.936 235.668 215.196 236.027C215.468 236.385 215.604 236.847 215.604 237.413C215.604 238.315 215.273 238.912 214.61 239.206C214.066 239.445 213.403 239.564 212.621 239.564H208.724ZM212.213 232.294H210.159V234.739H212.148C212.724 234.739 213.148 234.625 213.419 234.397C213.702 234.157 213.843 233.848 213.843 233.467C213.843 232.685 213.3 232.294 212.213 232.294ZM212.213 235.75H210.159V238.554H212.262C213.501 238.554 214.12 238.13 214.12 237.282C214.12 236.26 213.485 235.75 212.213 235.75ZM217.512 239.564V231.283H218.947V234.56H221.034C221.697 234.56 222.251 234.625 222.697 234.755C223.762 235.027 224.316 235.804 224.359 237.086C224.359 237.847 224.126 238.45 223.658 238.896C223.202 239.342 222.49 239.564 221.523 239.564H217.512ZM220.691 235.57H218.947V238.554H220.952C222.235 238.554 222.876 238.032 222.876 236.989C222.876 236.478 222.708 236.108 222.371 235.88C222.262 235.793 222.083 235.722 221.833 235.668C221.572 235.603 221.191 235.57 220.691 235.57ZM225.37 239.564V231.283H226.805V239.564H225.37ZM230.585 231.283V238.554H234.041V231.283H235.476V238.554H238.932V231.283H240.366V239.564H229.15V231.283H230.585ZM248.681 237.168H250.051C249.92 237.896 249.567 238.532 248.991 239.075C248.415 239.619 247.562 239.891 246.431 239.891C244.899 239.891 243.774 239.385 243.057 238.374C242.698 237.842 242.465 237.271 242.356 236.663C242.28 236.239 242.242 235.837 242.242 235.456C242.242 234.728 242.35 234.043 242.568 233.402C242.709 232.946 242.916 232.549 243.187 232.212C243.481 231.853 243.899 231.554 244.443 231.315C244.986 231.076 245.6 230.957 246.285 230.957C247.502 230.957 248.42 231.294 249.04 231.967C249.301 232.25 249.513 232.609 249.676 233.043C249.915 233.674 250.061 234.44 250.116 235.342C250.116 235.375 250.116 235.445 250.116 235.554C250.127 235.663 250.132 235.728 250.132 235.75H243.758C243.758 236.576 243.975 237.304 244.41 237.934C244.845 238.565 245.502 238.88 246.383 238.88C247.013 238.88 247.529 238.722 247.931 238.407C248.333 238.092 248.583 237.679 248.681 237.168ZM243.758 234.739H248.616C248.605 234.098 248.453 233.505 248.16 232.962C247.823 232.299 247.209 231.967 246.317 231.967C245.307 231.967 244.611 232.304 244.231 232.978C243.915 233.522 243.758 234.109 243.758 234.739Z" fill="black"/>
<path d="M210.156 341.663H204.417V347.026H202.885V335.615H204.417V340.375H210.156V335.615H211.688V347.026H210.156V341.663ZM220.214 344.63H221.583C221.453 345.358 221.099 345.994 220.523 346.537C219.947 347.081 219.094 347.352 217.964 347.352C216.431 347.352 215.307 346.847 214.589 345.836C214.231 345.304 213.997 344.733 213.888 344.125C213.812 343.701 213.774 343.299 213.774 342.918C213.774 342.19 213.883 341.505 214.1 340.864C214.242 340.408 214.448 340.011 214.72 339.674C215.013 339.315 215.432 339.016 215.975 338.777C216.518 338.538 217.133 338.419 217.817 338.419C219.034 338.419 219.953 338.756 220.572 339.429C220.833 339.712 221.045 340.071 221.208 340.505C221.447 341.136 221.594 341.902 221.648 342.804C221.648 342.837 221.648 342.907 221.648 343.016C221.659 343.125 221.665 343.19 221.665 343.212H215.29C215.29 344.038 215.508 344.766 215.942 345.396C216.377 346.026 217.035 346.342 217.915 346.342C218.545 346.342 219.062 346.184 219.464 345.869C219.866 345.554 220.116 345.141 220.214 344.63ZM215.29 342.201H220.148C220.138 341.56 219.985 340.967 219.692 340.424C219.355 339.761 218.741 339.429 217.85 339.429C216.839 339.429 216.143 339.766 215.763 340.44C215.448 340.984 215.29 341.57 215.29 342.201ZM232.974 339.755H228.784V347.026H227.349V338.745H234.408V347.026H232.974V339.755ZM236.758 350.042V338.745H238.095V339.886H238.144C238.796 338.908 239.709 338.419 240.883 338.419C241.959 338.419 242.85 338.794 243.557 339.544C244.263 340.304 244.616 341.418 244.616 342.886C244.616 344.385 244.258 345.505 243.54 346.244C242.834 346.983 241.959 347.352 240.916 347.352C240.59 347.352 240.193 347.282 239.726 347.14C239.041 346.934 238.53 346.499 238.193 345.836V350.042H236.758ZM238.095 342.918C238.095 344.07 238.356 344.934 238.878 345.51C239.421 346.065 240.014 346.342 240.655 346.342C241.329 346.342 241.905 346.07 242.383 345.527C242.861 344.961 243.1 344.081 243.1 342.886C243.1 341.799 242.877 340.951 242.432 340.342C241.997 339.734 241.377 339.429 240.573 339.429C240.149 339.429 239.753 339.544 239.383 339.772C238.525 340.283 238.095 341.331 238.095 342.918ZM247.92 338.745V345.347L252.241 338.745H253.838V347.026H252.404V340.408L248.1 347.026H246.486V338.745H247.92ZM261.855 339.755H257.616V347.026H256.181V338.745H261.855V339.755ZM262.559 344.516C262.277 343.353 262.288 342.228 262.592 341.141C262.896 340.054 263.538 339.277 264.516 338.81C265.059 338.549 265.695 338.419 266.423 338.419C267.151 338.419 267.787 338.549 268.33 338.81C269.309 339.266 269.955 340.081 270.27 341.255C270.412 341.799 270.482 342.348 270.482 342.902C270.493 343.445 270.428 343.983 270.287 344.516C270.156 345.037 269.923 345.516 269.586 345.95C269.26 346.385 268.841 346.727 268.33 346.977C267.776 347.227 267.14 347.352 266.423 347.352C265.706 347.352 265.07 347.227 264.516 346.977C263.57 346.521 262.918 345.7 262.559 344.516ZM264.075 341.239C263.934 341.674 263.864 342.217 263.864 342.869C263.864 343.51 263.934 344.059 264.075 344.516C264.217 344.972 264.38 345.315 264.565 345.543C264.956 345.978 265.401 346.233 265.901 346.309C266.249 346.363 266.597 346.363 266.945 346.309C267.097 346.298 267.309 346.222 267.581 346.081C267.874 345.929 268.113 345.738 268.298 345.51C268.483 345.282 268.64 344.951 268.771 344.516C268.912 344.059 268.983 343.51 268.983 342.869C268.983 342.217 268.912 341.674 268.771 341.239C268.618 340.761 268.45 340.418 268.265 340.212C268.091 340.005 267.874 339.832 267.613 339.69C267.352 339.549 267.129 339.462 266.945 339.429C266.597 339.375 266.249 339.375 265.901 339.429C265.749 339.44 265.532 339.522 265.249 339.674C264.695 339.946 264.304 340.467 264.075 341.239ZM271.329 349.178L271.199 346.016H272.242C273.144 344.69 273.595 342.728 273.595 340.13V338.745H279.529V346.016H280.964L280.85 349.178H279.643V347.026H272.535V349.178H271.329ZM278.095 346.016V339.755H274.932V340.913C274.932 341.793 274.834 342.706 274.639 343.652C274.465 344.586 274.171 345.374 273.758 346.016H278.095ZM288.162 344.63H289.532C289.401 345.358 289.048 345.994 288.472 346.537C287.896 347.081 287.043 347.352 285.912 347.352C284.38 347.352 283.255 346.847 282.538 345.836C282.179 345.304 281.945 344.733 281.837 344.125C281.761 343.701 281.723 343.299 281.723 342.918C281.723 342.19 281.831 341.505 282.049 340.864C282.19 340.408 282.396 340.011 282.668 339.674C282.962 339.315 283.38 339.016 283.923 338.777C284.467 338.538 285.081 338.419 285.766 338.419C286.983 338.419 287.901 338.756 288.521 339.429C288.782 339.712 288.994 340.071 289.157 340.505C289.396 341.136 289.542 341.902 289.597 342.804C289.597 342.837 289.597 342.907 289.597 343.016C289.608 343.125 289.613 343.19 289.613 343.212H283.239C283.239 344.038 283.456 344.766 283.891 345.396C284.326 346.026 284.983 346.342 285.863 346.342C286.494 346.342 287.01 346.184 287.412 345.869C287.814 345.554 288.064 345.141 288.162 344.63ZM283.239 342.201H288.097C288.086 341.56 287.934 340.967 287.64 340.424C287.303 339.761 286.689 339.429 285.798 339.429C284.787 339.429 284.092 339.766 283.711 340.44C283.396 340.984 283.239 341.57 283.239 342.201ZM297.019 343.163H292.928V347.026H291.493V338.745H292.928V342.152H297.019V338.745H298.454V347.026H297.019V343.163ZM201.629 367.178L201.499 364.016H202.542C203.444 362.69 203.895 360.728 203.895 358.13V356.745H209.83V364.016H211.264L211.15 367.178H209.944V365.026H202.836V367.178H201.629ZM208.395 364.016V357.755H205.232V358.913C205.232 359.793 205.134 360.706 204.939 361.652C204.765 362.586 204.472 363.374 204.059 364.016H208.395ZM211.948 365.026V363.967C212.763 364.206 213.339 363.82 213.676 362.809C213.763 362.559 213.823 362.25 213.855 361.88L213.92 360.886C213.931 360.712 213.937 360.369 213.937 359.858V356.745H219.675V365.026H218.241V357.755H215.274V359.858C215.274 360.543 215.257 361.119 215.225 361.587C215.192 362.043 215.11 362.543 214.98 363.086C214.795 363.858 214.464 364.407 213.986 364.733C213.507 365.059 212.828 365.157 211.948 365.026ZM227.086 361.766H225.195L223.027 365.026H221.446L223.728 361.75C223.098 361.684 222.587 361.44 222.195 361.016C221.804 360.592 221.609 360.038 221.609 359.353C221.609 358.712 221.777 358.152 222.114 357.674C222.516 357.054 223.277 356.745 224.396 356.745H228.521V365.026H227.086V361.766ZM227.086 360.755V357.755H225.016C223.733 357.755 223.092 358.272 223.092 359.304C223.092 359.728 223.25 360.076 223.565 360.348C223.88 360.619 224.38 360.755 225.065 360.755H227.086ZM240.297 357.755H236.107V365.026H234.673V356.745H241.732V365.026H240.297V357.755ZM250.049 362.63H251.418C251.288 363.358 250.934 363.994 250.358 364.537C249.782 365.081 248.929 365.352 247.799 365.352C246.266 365.352 245.142 364.847 244.424 363.836C244.066 363.304 243.832 362.733 243.723 362.125C243.647 361.701 243.609 361.299 243.609 360.918C243.609 360.19 243.718 359.505 243.935 358.864C244.076 358.408 244.283 358.011 244.555 357.674C244.848 357.315 245.267 357.016 245.81 356.777C246.353 356.538 246.967 356.419 247.652 356.419C248.869 356.419 249.788 356.756 250.407 357.429C250.668 357.712 250.88 358.071 251.043 358.505C251.282 359.136 251.429 359.902 251.483 360.804C251.483 360.837 251.483 360.907 251.483 361.016C251.494 361.125 251.499 361.19 251.499 361.212H245.125C245.125 362.038 245.343 362.766 245.777 363.396C246.212 364.026 246.87 364.342 247.75 364.342C248.38 364.342 248.897 364.184 249.299 363.869C249.701 363.554 249.951 363.141 250.049 362.63ZM245.125 360.201H249.983C249.972 359.56 249.82 358.967 249.527 358.424C249.19 357.761 248.576 357.429 247.685 357.429C246.674 357.429 245.978 357.766 245.598 358.44C245.283 358.984 245.125 359.57 245.125 360.201ZM253.379 368.042V356.745H254.716V357.886H254.765C255.417 356.908 256.33 356.419 257.504 356.419C258.58 356.419 259.471 356.794 260.178 357.544C260.884 358.304 261.237 359.418 261.237 360.886C261.237 362.385 260.879 363.505 260.161 364.244C259.455 364.983 258.58 365.352 257.537 365.352C257.21 365.352 256.814 365.282 256.346 365.14C255.662 364.934 255.151 364.499 254.814 363.836V368.042H253.379ZM254.716 360.918C254.716 362.07 254.977 362.934 255.499 363.51C256.042 364.065 256.634 364.342 257.276 364.342C257.95 364.342 258.526 364.07 259.004 363.527C259.482 362.961 259.721 362.081 259.721 360.886C259.721 359.799 259.498 358.951 259.053 358.342C258.618 357.734 257.998 357.429 257.194 357.429C256.77 357.429 256.374 357.544 256.004 357.772C255.145 358.283 254.716 359.331 254.716 360.918ZM269.073 362.63H270.443C270.312 363.358 269.959 363.994 269.383 364.537C268.807 365.081 267.954 365.352 266.824 365.352C265.291 365.352 264.166 364.847 263.449 363.836C263.09 363.304 262.857 362.733 262.748 362.125C262.672 361.701 262.634 361.299 262.634 360.918C262.634 360.19 262.743 359.505 262.96 358.864C263.101 358.408 263.308 358.011 263.58 357.674C263.873 357.315 264.291 357.016 264.835 356.777C265.378 356.538 265.992 356.419 266.677 356.419C267.894 356.419 268.813 356.756 269.432 357.429C269.693 357.712 269.905 358.071 270.068 358.505C270.307 359.136 270.454 359.902 270.508 360.804C270.508 360.837 270.508 360.907 270.508 361.016C270.519 361.125 270.524 361.19 270.524 361.212H264.15C264.15 362.038 264.367 362.766 264.802 363.396C265.237 364.026 265.894 364.342 266.775 364.342C267.405 364.342 267.921 364.184 268.324 363.869C268.726 363.554 268.976 363.141 269.073 362.63ZM264.15 360.201H269.008C268.997 359.56 268.845 358.967 268.552 358.424C268.215 357.761 267.601 357.429 266.71 357.429C265.699 357.429 265.003 357.766 264.623 358.44C264.308 358.984 264.15 359.57 264.15 360.201ZM272.404 368.042V356.745H273.741V357.886H273.79C274.442 356.908 275.355 356.419 276.529 356.419C277.605 356.419 278.496 356.794 279.202 357.544C279.909 358.304 280.262 359.418 280.262 360.886C280.262 362.385 279.903 363.505 279.186 364.244C278.48 364.983 277.605 365.352 276.561 365.352C276.235 365.352 275.839 365.282 275.371 365.14C274.687 364.934 274.176 364.499 273.839 363.836V368.042H272.404ZM273.741 360.918C273.741 362.07 274.002 362.934 274.524 363.51C275.067 364.065 275.659 364.342 276.301 364.342C276.974 364.342 277.55 364.07 278.029 363.527C278.507 362.961 278.746 362.081 278.746 360.886C278.746 359.799 278.523 358.951 278.078 358.342C277.643 357.734 277.023 357.429 276.219 357.429C275.795 357.429 275.399 357.544 275.029 357.772C274.17 358.283 273.741 359.331 273.741 360.918ZM283.224 359.19H281.855C281.855 358.538 282.072 357.94 282.507 357.397C283.028 356.745 283.985 356.419 285.376 356.419C286.191 356.419 286.908 356.582 287.528 356.908C287.886 357.082 288.169 357.37 288.376 357.772C288.582 358.174 288.68 358.652 288.669 359.206L288.587 363.037C288.587 363.353 288.62 363.597 288.685 363.771C288.783 363.945 289.039 364.026 289.452 364.016V365.026C289.288 365.07 289.071 365.092 288.799 365.092C288.321 365.092 287.973 365.01 287.756 364.847C287.55 364.684 287.403 364.363 287.316 363.885C286.783 364.863 285.838 365.352 284.479 365.352C283.545 365.352 282.822 365.146 282.311 364.733C281.811 364.309 281.561 363.684 281.561 362.858C281.561 362.076 281.844 361.483 282.409 361.081C282.974 360.657 284.045 360.375 285.62 360.233C286.349 360.179 286.783 360.108 286.925 360.021C287.131 359.88 287.234 359.57 287.234 359.092C287.234 357.984 286.615 357.429 285.376 357.429C283.909 357.429 283.191 358.016 283.224 359.19ZM287.202 361.489L287.234 360.788C287.071 360.907 286.832 361.005 286.517 361.081C286.039 361.114 285.669 361.152 285.408 361.195C284.506 361.347 283.958 361.472 283.762 361.57C283.284 361.798 283.045 362.211 283.045 362.809C283.045 363.287 283.186 363.662 283.468 363.934C283.762 364.206 284.153 364.342 284.642 364.342C284.957 364.342 285.245 364.298 285.506 364.211C285.778 364.124 286.039 363.983 286.289 363.787C286.55 363.581 286.756 363.282 286.908 362.891C287.071 362.499 287.169 362.032 287.202 361.489ZM297.028 353.077H298.251C298.207 353.87 297.838 354.397 297.142 354.658C296.762 354.788 296.436 354.875 296.164 354.919C294.947 355.071 294.24 355.174 294.044 355.229C293.305 355.435 292.74 355.81 292.349 356.353C291.958 356.886 291.751 357.652 291.73 358.652H291.762C292.284 357.25 293.354 356.549 294.974 356.549C296.289 356.549 297.272 356.984 297.924 357.853C298.587 358.712 298.919 359.766 298.919 361.016C298.919 362.211 298.577 363.233 297.892 364.081C297.207 364.929 296.191 365.352 294.843 365.352C293.354 365.352 292.251 364.787 291.534 363.657C291.175 363.037 290.931 362.342 290.8 361.57C290.713 360.962 290.67 360.358 290.67 359.761C290.67 357.663 290.99 356.196 291.632 355.359C292.197 354.631 292.963 354.163 293.93 353.957C294.843 353.75 295.615 353.631 296.245 353.598C296.669 353.544 296.93 353.37 297.028 353.077ZM292.186 361.114C292.186 361.831 292.349 362.521 292.675 363.184C293.055 363.956 293.767 364.342 294.811 364.342C295.637 364.342 296.273 364.065 296.718 363.51C297.175 362.945 297.403 362.168 297.403 361.179C297.403 360.364 297.262 359.608 296.979 358.913C296.62 358.011 295.898 357.56 294.811 357.56C293.724 357.56 292.99 358 292.61 358.88C292.327 359.554 292.186 360.299 292.186 361.114ZM300.53 362.516C300.247 361.353 300.258 360.228 300.562 359.141C300.867 358.054 301.508 357.277 302.486 356.81C303.029 356.549 303.665 356.419 304.393 356.419C305.121 356.419 305.757 356.549 306.301 356.81C307.279 357.266 307.925 358.081 308.241 359.255C308.382 359.799 308.453 360.348 308.453 360.902C308.463 361.445 308.398 361.983 308.257 362.516C308.127 363.037 307.893 363.516 307.556 363.95C307.23 364.385 306.811 364.727 306.301 364.977C305.746 365.227 305.111 365.352 304.393 365.352C303.676 365.352 303.04 365.227 302.486 364.977C301.54 364.521 300.888 363.7 300.53 362.516ZM302.046 359.239C301.904 359.674 301.834 360.217 301.834 360.869C301.834 361.51 301.904 362.059 302.046 362.516C302.187 362.972 302.35 363.315 302.535 363.543C302.926 363.978 303.372 364.233 303.872 364.309C304.219 364.363 304.567 364.363 304.915 364.309C305.067 364.298 305.279 364.222 305.551 364.081C305.844 363.929 306.083 363.738 306.268 363.51C306.453 363.282 306.61 362.951 306.741 362.516C306.882 362.059 306.953 361.51 306.953 360.869C306.953 360.217 306.882 359.674 306.741 359.239C306.589 358.761 306.42 358.418 306.235 358.212C306.062 358.005 305.844 357.832 305.583 357.69C305.323 357.549 305.1 357.462 304.915 357.429C304.567 357.375 304.219 357.375 303.872 357.429C303.719 357.44 303.502 357.522 303.22 357.674C302.665 357.946 302.274 358.467 302.046 359.239ZM311.741 365.026V357.755H308.871V356.745H316.044V357.755H313.175V365.026H311.741ZM318.671 356.745V360.364L322.209 356.745H323.888L320.008 360.592L324.1 365.026H322.388L318.671 360.886V365.026H317.236V356.745H318.671ZM326.647 356.745V363.347L330.967 356.745H332.565V365.026H331.13V358.408L326.826 365.026H325.212V356.745H326.647Z" fill="black"/>
<path d="M111.884 30.6827C111.884 27.9438 112.577 25.8517 113.961 24.4062C115.361 22.9455 117.21 22.2151 119.507 22.2151C121.09 22.2151 122.49 22.5879 123.707 23.3335C124.757 23.9421 125.586 24.8627 126.195 26.0951C126.803 27.3124 127.115 28.8416 127.13 30.6827C127.13 31.7934 127.001 32.8281 126.742 33.7867C126.255 35.4604 125.479 36.7081 124.414 37.5297C123.456 38.2601 122.459 38.7242 121.424 38.922C120.77 39.0741 120.131 39.1502 119.507 39.1502C119.157 39.1502 118.899 39.1426 118.731 39.1274C117.894 39.0817 117.004 38.8611 116.061 38.4655C114.813 37.8721 113.855 37.058 113.185 36.0234C112.318 34.6387 111.884 32.8585 111.884 30.6827ZM114.167 30.6827C114.167 31.9303 114.357 33.0791 114.737 34.129C115.513 36.2744 117.103 37.3471 119.507 37.3471C119.796 37.3471 120.009 37.3395 120.146 37.3243C120.801 37.2939 121.44 37.1037 122.064 36.7537C123.92 35.7799 124.848 33.7562 124.848 30.6827C124.848 28.6894 124.399 27.0842 123.501 25.8669C122.619 24.6344 121.288 24.0182 119.507 24.0182C118.625 24.0182 117.834 24.1932 117.134 24.5431C116.434 24.8931 115.886 25.3343 115.49 25.8669C115.125 26.369 114.844 26.9472 114.646 27.6015C114.326 28.5905 114.167 29.6176 114.167 30.6827ZM133.654 38.6709V24.4975H128.45V22.6944H140.98V24.4975H135.799V38.6709H133.654ZM153.4 31.162H145.367V38.6709H143.221V22.6944H145.367V29.3589H153.4V22.6944H155.546V38.6709H153.4V31.162ZM161.57 24.4975V29.5187H169.947V31.3217H161.57V36.8678H171.065V38.6709H159.425V22.6944H170.814V24.4975H161.57ZM175.545 38.6709H173.4V22.6944H180.475C184.005 22.6944 185.77 24.1247 185.77 26.9853C185.77 27.9438 185.519 28.7959 185.017 29.5415C184.545 30.2871 183.884 30.7511 183.031 30.9337V31.0022C184.066 31.3978 184.713 31.9456 184.971 32.6455C185.2 33.2693 185.321 34.0073 185.337 34.8594V35.7038C185.352 35.9777 185.367 36.2364 185.382 36.4798C185.397 36.7233 185.405 36.8907 185.405 36.982C185.42 37.2406 185.474 37.5449 185.565 37.8949C185.626 38.0927 185.763 38.3514 185.976 38.6709H183.716C183.442 38.3057 183.275 37.9253 183.214 37.5297C183.153 37.1645 183.123 36.419 183.123 35.293C183.123 34.3496 182.978 33.5889 182.689 33.0107C182.324 32.2651 181.464 31.8923 180.11 31.8923H175.545V38.6709ZM180.019 24.4975H175.545V30.0893H180.338C180.658 30.0893 180.97 30.0512 181.274 29.9751C181.594 29.8991 181.928 29.7697 182.278 29.5871C182.643 29.4045 182.933 29.1078 183.146 28.697C183.374 28.2862 183.488 27.7917 183.488 27.2135C183.488 25.4028 182.332 24.4975 180.019 24.4975ZM189.414 38.6709V36.1831H191.674V39.3784C191.674 40.1392 191.461 40.7402 191.035 41.1815C190.609 41.6227 190.069 41.9118 189.414 42.0488V40.7935C189.734 40.7631 190 40.6033 190.213 40.3142C190.441 40.0403 190.556 39.7284 190.556 39.3784V38.6709H189.414ZM195.11 30.6827C195.11 27.9438 195.802 25.8517 197.187 24.4062C198.587 22.9455 200.435 22.2151 202.733 22.2151C204.315 22.2151 205.715 22.5879 206.932 23.3335C207.982 23.9421 208.812 24.8627 209.42 26.0951C210.029 27.3124 210.341 28.8416 210.356 30.6827C210.356 31.7934 210.227 32.8281 209.968 33.7867C209.481 35.4604 208.705 36.7081 207.64 37.5297C206.681 38.2601 205.685 38.7242 204.65 38.922C203.996 39.0741 203.357 39.1502 202.733 39.1502C202.383 39.1502 202.124 39.1426 201.957 39.1274C201.12 39.0817 200.23 38.8611 199.287 38.4655C198.039 37.8721 197.08 37.058 196.411 36.0234C195.544 34.6387 195.11 32.8585 195.11 30.6827ZM197.392 30.6827C197.392 31.9303 197.582 33.0791 197.963 34.129C198.739 36.2744 200.329 37.3471 202.733 37.3471C203.022 37.3471 203.235 37.3395 203.372 37.3243C204.026 37.2939 204.665 37.1037 205.289 36.7537C207.145 35.7799 208.074 33.7562 208.074 30.6827C208.074 28.6894 207.625 27.0842 206.727 25.8669C205.845 24.6344 204.513 24.0182 202.733 24.0182C201.85 24.0182 201.059 24.1932 200.359 24.5431C199.659 24.8931 199.112 25.3343 198.716 25.8669C198.351 26.369 198.069 26.9472 197.872 27.6015C197.552 28.5905 197.392 29.6176 197.392 30.6827ZM212.817 42.8933H211.379L219.527 22.6944H220.965L212.817 42.8933ZM233.082 24.4975H225.048V38.6709H222.903V22.6944H235.228V38.6709H233.082V24.4975ZM239.107 38.6709V22.6944H245.611C249.218 22.6944 251.021 24.2236 251.021 27.282C251.021 30.6294 249.149 32.3031 245.406 32.3031H241.252V38.6709H239.107ZM245.178 24.4975H241.252V30.5001H245.178C246.441 30.5001 247.361 30.2414 247.939 29.7241C248.533 29.1915 248.83 28.3927 248.83 27.3276C248.83 26.3386 248.533 25.6234 247.939 25.1822C247.346 24.7257 246.425 24.4975 245.178 24.4975ZM252.77 30.6827C252.77 27.9438 253.463 25.8517 254.847 24.4062C256.247 22.9455 258.096 22.2151 260.394 22.2151C261.976 22.2151 263.376 22.5879 264.593 23.3335C265.643 23.9421 266.472 24.8627 267.081 26.0951C267.689 27.3124 268.001 28.8416 268.017 30.6827C268.017 31.7934 267.887 32.8281 267.629 33.7867C267.142 35.4604 266.366 36.7081 265.301 37.5297C264.342 38.2601 263.345 38.7242 262.311 38.922C261.656 39.0741 261.017 39.1502 260.394 39.1502C260.044 39.1502 259.785 39.1426 259.618 39.1274C258.781 39.0817 257.891 38.8611 256.947 38.4655C255.7 37.8721 254.741 37.058 254.071 36.0234C253.204 34.6387 252.77 32.8585 252.77 30.6827ZM255.053 30.6827C255.053 31.9303 255.243 33.0791 255.623 34.129C256.399 36.2744 257.989 37.3471 260.394 37.3471C260.683 37.3471 260.896 37.3395 261.033 37.3243C261.687 37.2939 262.326 37.1037 262.95 36.7537C264.806 35.7799 265.734 33.7562 265.734 30.6827C265.734 28.6894 265.285 27.0842 264.388 25.8669C263.505 24.6344 262.174 24.0182 260.394 24.0182C259.511 24.0182 258.72 24.1932 258.02 24.5431C257.32 24.8931 256.772 25.3343 256.377 25.8669C256.011 26.369 255.73 26.9472 255.532 27.6015C255.213 28.5905 255.053 29.6176 255.053 30.6827ZM269.984 27.7156V22.6944H272.13V27.3733C272.13 28.5296 272.411 29.2752 272.974 29.61C273.537 29.9295 274.541 30.0893 275.987 30.0893C276.976 30.0893 278.011 30.036 279.091 29.9295V22.6944H281.236V38.6709H279.091V31.7325C277.874 31.8391 276.702 31.8923 275.576 31.8923C273.522 31.8923 272.076 31.6108 271.24 31.0478C270.403 30.4849 269.984 29.3741 269.984 27.7156ZM287.256 24.4975V29.5187H295.632V31.3217H287.256V36.8678H296.75V38.6709H285.11V22.6944H296.499V24.4975H287.256ZM301.231 24.4975V29.5187H309.607V31.3217H301.231V36.8678H310.725V38.6709H299.085V22.6944H310.474V24.4975H301.231Z" fill="black"/>
<path d="M61.1943 130.83H51.6312V129.027H63.294V130.488C61.4225 132.588 59.9466 134.977 58.8663 137.655C57.999 139.724 57.4132 142.174 57.1089 145.004H54.8265C55.146 142.463 55.7851 140.074 56.7437 137.837C57.9305 135.129 59.414 132.793 61.1943 130.83Z" fill="black"/>
<path d="M26.99 157.072C26.5108 156.24 26.2614 155.294 26.2675 154.332C26.2737 153.37 26.5352 152.427 27.025 151.601L35.6282 136.883L37.5752 145.529L42.8516 144.323L38.8134 126.39L21.014 130.459L22.2111 135.775L31.1973 133.721L22.3627 148.835C21.3949 150.491 20.8786 152.375 20.8663 154.297C20.854 156.219 21.3461 158.109 22.2927 159.778C23.2392 161.446 24.6067 162.833 26.2565 163.797C27.9063 164.761 29.7798 165.269 31.6872 165.269H45.625L51.0354 159.818H31.6872C30.7323 159.824 29.7932 159.573 28.9673 159.09C28.1414 158.607 27.4587 157.91 26.99 157.072ZM63.3501 105.407L72.4375 120.954L64.1438 119.65L63.3096 125.036L81.3434 127.871L84.1569 109.702L78.8112 108.862L77.311 118.549L68.0124 102.641C67.0566 101.006 65.6936 99.6498 64.0582 98.7079C62.4228 97.766 60.5716 97.2705 58.6879 97.2705C56.8041 97.2705 54.9529 97.766 53.3175 98.7079C51.6821 99.6498 50.3191 101.006 49.3633 102.641L42.6105 114.194L44.3701 121.926L54.0254 105.407C54.5033 104.589 55.1848 103.912 56.0025 103.441C56.8202 102.97 57.7457 102.722 58.6875 102.722C59.6293 102.722 60.5549 102.97 61.3725 103.441C62.1902 103.912 62.8722 104.589 63.3501 105.407ZM95.0133 148.835L86.9201 134.989L79.9629 133.829L90.3512 151.601C90.8351 152.429 91.0932 153.371 91.0994 154.332C91.1055 155.293 90.8595 156.238 90.3862 157.073C89.9128 157.907 89.2291 158.6 88.4041 159.082C87.5792 159.564 86.6424 159.818 85.6887 159.818H66.8444L73.3301 153.284L69.5044 149.43L56.5984 162.433L69.5044 175.436L73.3301 171.581L67.0654 165.27H85.6887C87.5961 165.27 89.4696 164.762 91.1194 163.797C92.7692 162.833 94.1366 161.446 95.0832 159.778C96.0298 158.11 96.5219 156.219 96.5096 154.297C96.4972 152.376 95.9812 150.491 95.0133 148.835Z" fill="black"/>
<path d="M21.6006 347.026V335.615H26.6054C27.2575 335.615 27.8173 335.702 28.2846 335.875C28.7519 336.038 29.1052 336.272 29.3443 336.576C29.5834 336.87 29.7518 337.174 29.8496 337.489C29.9583 337.805 30.0127 338.147 30.0127 338.516C30.0127 339.125 29.8279 339.663 29.4584 340.13C29.0997 340.598 28.6487 340.875 28.1053 340.962V341.011C28.377 341.054 28.6378 341.13 28.8878 341.239C29.1378 341.348 29.3877 341.505 29.6377 341.712C29.8985 341.918 30.105 342.206 30.2572 342.576C30.4202 342.945 30.5017 343.369 30.5017 343.847C30.5017 345.967 29.1432 347.026 26.4261 347.026H21.6006ZM26.2631 336.902H23.133V340.456H26.2142C26.9641 340.456 27.5238 340.299 27.8933 339.984C28.2629 339.658 28.4476 339.223 28.4476 338.679C28.4476 338.484 28.4204 338.299 28.3661 338.125C28.3118 337.94 28.2139 337.75 28.0727 337.555C27.9314 337.359 27.7031 337.201 27.388 337.082C27.0836 336.962 26.7087 336.902 26.2631 336.902ZM26.312 341.744H23.133V345.738H26.312C26.8119 345.738 27.2684 345.679 27.6814 345.559C28.5183 345.309 28.9367 344.695 28.9367 343.717C28.9367 342.402 28.0618 341.744 26.312 341.744ZM32.6285 347.026V338.745H34.0631V342.021H36.1498C36.8128 342.021 37.3671 342.087 37.8127 342.217C38.8778 342.489 39.432 343.266 39.4755 344.548C39.4755 345.309 39.2418 345.912 38.7745 346.358C38.318 346.804 37.6062 347.026 36.6389 347.026H32.6285ZM35.8074 343.032H34.0631V346.016H36.0683C37.3507 346.016 37.992 345.494 37.992 344.451C37.992 343.94 37.8235 343.57 37.4866 343.342C37.3779 343.255 37.1986 343.184 36.9486 343.13C36.6878 343.065 36.3074 343.032 35.8074 343.032ZM40.4863 347.026V338.745H41.9209V347.026H40.4863ZM50.07 344.076H51.4394C51.3959 344.706 51.1568 345.369 50.7221 346.065C50.483 346.456 50.108 346.771 49.5972 347.01C49.0973 347.238 48.5104 347.352 47.8365 347.352C47.6083 347.352 47.4453 347.347 47.3475 347.336C46.8693 347.314 46.3802 347.189 45.8802 346.961C44.4891 346.266 43.7935 344.885 43.7935 342.82C43.7935 341.733 44.0435 340.766 44.5434 339.918C45.1629 338.919 46.228 338.419 47.7387 338.419C48.8038 338.419 49.6516 338.69 50.2819 339.234C50.9123 339.766 51.2764 340.467 51.3742 341.337H50.0048C49.7874 340.065 49.0429 339.429 47.7713 339.429C46.9453 339.429 46.3258 339.734 45.9128 340.342C45.5107 340.94 45.3096 341.766 45.3096 342.82C45.3096 343.842 45.5216 344.684 45.9454 345.347C46.3693 346.01 47.0105 346.342 47.8691 346.342C48.6082 346.342 49.1462 346.108 49.4831 345.641C49.8418 345.173 50.0374 344.652 50.07 344.076ZM52.9368 344.516C52.6542 343.353 52.6651 342.228 52.9694 341.141C53.2737 340.054 53.915 339.277 54.8931 338.81C55.4365 338.549 56.0723 338.419 56.8005 338.419C57.5287 338.419 58.1645 338.549 58.7079 338.81C59.6861 339.266 60.3327 340.081 60.6479 341.255C60.7892 341.799 60.8598 342.348 60.8598 342.902C60.8707 343.445 60.8055 343.983 60.6642 344.516C60.5338 345.037 60.3001 345.516 59.9632 345.95C59.6371 346.385 59.2187 346.727 58.7079 346.977C58.1536 347.227 57.5178 347.352 56.8005 347.352C56.0832 347.352 55.4474 347.227 54.8931 346.977C53.9476 346.521 53.2955 345.7 52.9368 344.516ZM54.4529 341.239C54.3117 341.674 54.241 342.217 54.241 342.869C54.241 343.51 54.3117 344.059 54.4529 344.516C54.5942 344.972 54.7573 345.315 54.942 345.543C55.3333 345.978 55.7789 346.233 56.2788 346.309C56.6266 346.363 56.9744 346.363 57.3222 346.309C57.4743 346.298 57.6863 346.222 57.958 346.081C58.2514 345.929 58.4905 345.738 58.6753 345.51C58.8601 345.282 59.0177 344.951 59.1481 344.516C59.2894 344.059 59.36 343.51 59.36 342.869C59.36 342.217 59.2894 341.674 59.1481 341.239C58.9959 340.761 58.8275 340.418 58.6427 340.212C58.4688 340.005 58.2514 339.832 57.9906 339.69C57.7298 339.549 57.507 339.462 57.3222 339.429C56.9744 339.375 56.6266 339.375 56.2788 339.429C56.1267 339.44 55.9093 339.522 55.6267 339.674C55.0724 339.946 54.6812 340.467 54.4529 341.239ZM64.1845 338.745V342.364L67.7222 338.745H69.4013L65.5213 342.592L69.6133 347.026H67.9015L64.1845 342.886V347.026H62.7499V338.745H64.1845ZM72.1607 338.745V345.347L76.4808 338.745H78.0785V347.026H76.6439V340.408L72.34 347.026H70.726V338.745H72.1607ZM81.8562 338.745V345.347L86.1764 338.745H87.774V347.026H86.3394V340.408L82.0355 347.026H80.4216V338.745H81.8562ZM85.6384 335.615H86.8611C86.6328 336.81 85.9155 337.511 84.7092 337.718C84.5027 337.75 84.2853 337.767 84.0571 337.767C82.655 337.767 81.7584 337.196 81.3671 336.055C81.3345 335.979 81.2965 335.832 81.253 335.615H82.4757C82.4431 335.897 82.5409 336.163 82.7692 336.413C82.9322 336.587 83.1224 336.718 83.3397 336.805C83.5354 336.87 83.7745 336.902 84.0571 336.902C84.5244 336.902 84.9102 336.788 85.2145 336.56C85.5188 336.321 85.6601 336.006 85.6384 335.615ZM21.6984 368.026V366.966C22.1114 367.021 22.3505 367.048 22.4157 367.048C22.8287 367.048 23.1221 366.896 23.296 366.591C23.4047 366.428 23.4753 366.293 23.508 366.184C23.5406 366.13 23.6112 365.95 23.7199 365.646L23.9155 365.026L20.329 356.745H22.0407L24.698 363.445L26.8989 356.745H28.3335L25.0404 366.005C24.7796 366.744 24.5567 367.227 24.372 367.455C24.0025 367.89 23.5025 368.108 22.8722 368.108C22.3831 368.108 21.9918 368.08 21.6984 368.026ZM29.508 368.042V356.745H30.8449V357.886H30.8938C31.5459 356.908 32.4588 356.419 33.6326 356.419C34.7086 356.419 35.5998 356.794 36.3062 357.544C37.0126 358.304 37.3659 359.418 37.3659 360.886C37.3659 362.385 37.0072 363.505 36.2899 364.244C35.5835 364.983 34.7086 365.352 33.6652 365.352C33.3391 365.352 32.9424 365.282 32.4751 365.14C31.7904 364.934 31.2796 364.499 30.9427 363.836V368.042H29.508ZM30.8449 360.918C30.8449 362.07 31.1057 362.934 31.6274 363.51C32.1708 364.065 32.7631 364.342 33.4043 364.342C34.0782 364.342 34.6542 364.07 35.1324 363.527C35.6106 362.961 35.8497 362.081 35.8497 360.886C35.8497 359.799 35.6269 358.951 35.1813 358.342C34.7466 357.734 34.1271 357.429 33.3228 357.429C32.899 357.429 32.5023 357.544 32.1328 357.772C31.2742 358.283 30.8449 359.331 30.8449 360.918ZM38.9746 362.516C38.692 361.353 38.7029 360.228 39.0072 359.141C39.3115 358.054 39.9527 357.277 40.9309 356.81C41.4743 356.549 42.1101 356.419 42.8383 356.419C43.5665 356.419 44.2023 356.549 44.7457 356.81C45.7238 357.266 46.3705 358.081 46.6857 359.255C46.827 359.799 46.8976 360.348 46.8976 360.902C46.9085 361.445 46.8433 361.983 46.702 362.516C46.5716 363.037 46.3379 363.516 46.001 363.95C45.6749 364.385 45.2565 364.727 44.7457 364.977C44.1914 365.227 43.5556 365.352 42.8383 365.352C42.121 365.352 41.4852 365.227 40.9309 364.977C39.9853 364.521 39.3332 363.7 38.9746 362.516ZM40.4907 359.239C40.3494 359.674 40.2788 360.217 40.2788 360.869C40.2788 361.51 40.3494 362.059 40.4907 362.516C40.632 362.972 40.795 363.315 40.9798 363.543C41.3711 363.978 41.8167 364.233 42.3166 364.309C42.6644 364.363 43.0122 364.363 43.36 364.309C43.5121 364.298 43.7241 364.222 43.9958 364.081C44.2892 363.929 44.5283 363.738 44.7131 363.51C44.8978 363.282 45.0554 362.951 45.1859 362.516C45.3271 362.059 45.3978 361.51 45.3978 360.869C45.3978 360.217 45.3271 359.674 45.1859 359.239C45.0337 358.761 44.8652 358.418 44.6805 358.212C44.5066 358.005 44.2892 357.832 44.0284 357.69C43.7675 357.549 43.5447 357.462 43.36 357.429C43.0122 357.375 42.6644 357.375 42.3166 357.429C42.1645 357.44 41.9471 357.522 41.6645 357.674C41.1102 357.946 40.719 358.467 40.4907 359.239ZM48.7877 365.026V356.745H52.7329C54.4827 356.745 55.3576 357.402 55.3576 358.717C55.3576 359.663 54.8577 360.31 53.8578 360.657V360.706C54.5316 360.869 54.9989 361.13 55.2598 361.489C55.5315 361.847 55.6674 362.309 55.6674 362.874C55.6674 363.777 55.3359 364.374 54.6729 364.668C54.1295 364.907 53.4665 365.026 52.684 365.026H48.7877ZM52.2764 357.755H50.2223V360.201H52.2112C52.7872 360.201 53.2111 360.087 53.4828 359.858C53.7654 359.619 53.9067 359.31 53.9067 358.929C53.9067 358.147 53.3633 357.755 52.2764 357.755ZM52.2764 361.212H50.2223V364.016H52.3253C53.5643 364.016 54.1838 363.592 54.1838 362.744C54.1838 361.722 53.548 361.212 52.2764 361.212ZM63.5425 362.63H64.9119C64.7815 363.358 64.4283 363.994 63.8522 364.537C63.2762 365.081 62.4231 365.352 61.2927 365.352C59.7603 365.352 58.6354 364.847 57.9181 363.836C57.5595 363.304 57.3258 362.733 57.2171 362.125C57.141 361.701 57.103 361.299 57.103 360.918C57.103 360.19 57.2117 359.505 57.429 358.864C57.5703 358.408 57.7768 358.011 58.0485 357.674C58.342 357.315 58.7604 357.016 59.3038 356.777C59.8473 356.538 60.4613 356.419 61.146 356.419C62.3633 356.419 63.2817 356.756 63.9011 357.429C64.162 357.712 64.3739 358.071 64.5369 358.505C64.776 359.136 64.9228 359.902 64.9771 360.804C64.9771 360.837 64.9771 360.907 64.9771 361.016C64.988 361.125 64.9934 361.19 64.9934 361.212H58.6191C58.6191 362.038 58.8365 362.766 59.2712 363.396C59.706 364.026 60.3635 364.342 61.2438 364.342C61.8742 364.342 62.3904 364.184 62.7926 363.869C63.1947 363.554 63.4447 363.141 63.5425 362.63ZM58.6191 360.201H63.4773C63.4664 359.56 63.3143 358.967 63.0208 358.424C62.6839 357.761 62.0698 357.429 61.1786 357.429C60.1679 357.429 59.4723 357.766 59.0919 358.44C58.7767 358.984 58.6191 359.57 58.6191 360.201ZM72.3999 361.163H68.3079V365.026H66.8733V356.745H68.3079V360.152H72.3999V356.745H73.8345V365.026H72.3999V361.163ZM76.1868 365.026V356.745H77.6214V360.038H79.6918C80.5069 360.038 81.2079 360.157 81.7948 360.396C82.6099 360.69 83.0175 361.375 83.0175 362.451C83.0175 363.342 82.7567 364.005 82.235 364.439C82.0176 364.613 81.7622 364.744 81.4688 364.831C81.0775 364.961 80.6482 365.026 80.1809 365.026H76.1868ZM79.3657 361.049H77.6214V364.016H79.6103C80.2841 364.016 80.7786 363.88 81.0938 363.608C81.409 363.293 81.5557 362.907 81.534 362.451C81.534 361.951 81.371 361.581 81.0449 361.342C80.9362 361.266 80.7623 361.201 80.5232 361.146C80.2624 361.081 79.92 361.049 79.4962 361.049H79.3657ZM88.105 362.516C87.8225 361.353 87.8333 360.228 88.1376 359.141C88.442 358.054 89.0832 357.277 90.0613 356.81C90.6048 356.549 91.2406 356.419 91.9687 356.419C92.6969 356.419 93.3327 356.549 93.8761 356.81C94.8543 357.266 95.501 358.081 95.8161 359.255C95.9574 359.799 96.0281 360.348 96.0281 360.902C96.0389 361.445 95.9737 361.983 95.8324 362.516C95.702 363.037 95.4683 363.516 95.1314 363.95C94.8054 364.385 94.3869 364.727 93.8761 364.977C93.3218 365.227 92.6861 365.352 91.9687 365.352C91.2514 365.352 90.6156 365.227 90.0613 364.977C89.1158 364.521 88.4637 363.7 88.105 362.516ZM89.6212 359.239C89.4799 359.674 89.4092 360.217 89.4092 360.869C89.4092 361.51 89.4799 362.059 89.6212 362.516C89.7625 362.972 89.9255 363.315 90.1103 363.543C90.5015 363.978 90.9471 364.233 91.4471 364.309C91.7948 364.363 92.1426 364.363 92.4904 364.309C92.6426 364.298 92.8545 364.222 93.1262 364.081C93.4197 363.929 93.6588 363.738 93.8435 363.51C94.0283 363.282 94.1859 362.951 94.3163 362.516C94.4576 362.059 94.5282 361.51 94.5282 360.869C94.5282 360.217 94.4576 359.674 94.3163 359.239C94.1641 358.761 93.9957 358.418 93.8109 358.212C93.637 358.005 93.4197 357.832 93.1588 357.69C92.898 357.549 92.6752 357.462 92.4904 357.429C92.1426 357.375 91.7948 357.375 91.4471 357.429C91.2949 357.44 91.0775 357.522 90.795 357.674C90.2407 357.946 89.8494 358.467 89.6212 359.239ZM103.543 357.755H99.3528V365.026H97.9181V356.745H104.977V365.026H103.543V357.755ZM108.419 359.19H107.05C107.05 358.538 107.267 357.94 107.702 357.397C108.224 356.745 109.18 356.419 110.571 356.419C111.386 356.419 112.104 356.582 112.723 356.908C113.082 357.082 113.364 357.37 113.571 357.772C113.777 358.174 113.875 358.652 113.864 359.206L113.783 363.037C113.783 363.353 113.816 363.597 113.881 363.771C113.979 363.945 114.234 364.026 114.647 364.016V365.026C114.484 365.07 114.267 365.092 113.995 365.092C113.517 365.092 113.169 365.01 112.951 364.847C112.745 364.684 112.598 364.363 112.511 363.885C111.979 364.863 111.033 365.352 109.675 365.352C108.74 365.352 108.017 365.146 107.506 364.733C107.007 364.309 106.757 363.684 106.757 362.858C106.757 362.076 107.039 361.483 107.604 361.081C108.169 360.657 109.24 360.375 110.816 360.233C111.544 360.179 111.979 360.108 112.12 360.021C112.327 359.88 112.43 359.57 112.43 359.092C112.43 357.984 111.81 357.429 110.571 357.429C109.104 357.429 108.387 358.016 108.419 359.19ZM112.397 361.489L112.43 360.788C112.267 360.907 112.028 361.005 111.712 361.081C111.234 361.114 110.865 361.152 110.604 361.195C109.702 361.347 109.153 361.472 108.957 361.57C108.479 361.798 108.24 362.211 108.24 362.809C108.24 363.287 108.381 363.662 108.664 363.934C108.957 364.206 109.349 364.342 109.838 364.342C110.153 364.342 110.441 364.298 110.702 364.211C110.973 364.124 111.234 363.983 111.484 363.787C111.745 363.581 111.952 363.282 112.104 362.891C112.267 362.499 112.365 362.032 112.397 361.489ZM122.142 362.076H123.511C123.468 362.706 123.229 363.369 122.794 364.065C122.555 364.456 122.18 364.771 121.669 365.01C121.169 365.238 120.582 365.352 119.908 365.352C119.68 365.352 119.517 365.347 119.419 365.336C118.941 365.314 118.452 365.189 117.952 364.961C116.561 364.266 115.865 362.885 115.865 360.82C115.865 359.733 116.115 358.766 116.615 357.918C117.235 356.919 118.3 356.419 119.811 356.419C120.876 356.419 121.723 356.69 122.354 357.234C122.984 357.766 123.348 358.467 123.446 359.337H122.077C121.859 358.065 121.115 357.429 119.843 357.429C119.017 357.429 118.398 357.734 117.985 358.342C117.583 358.94 117.381 359.766 117.381 360.82C117.381 361.842 117.593 362.684 118.017 363.347C118.441 364.01 119.082 364.342 119.941 364.342C120.68 364.342 121.218 364.108 121.555 363.641C121.914 363.173 122.109 362.652 122.142 362.076ZM130.796 361.163H126.704V365.026H125.269V356.745H126.704V360.152H130.796V356.745H132.231V365.026H130.796V361.163ZM134.322 362.516C134.039 361.353 134.05 360.228 134.355 359.141C134.659 358.054 135.3 357.277 136.278 356.81C136.822 356.549 137.458 356.419 138.186 356.419C138.914 356.419 139.55 356.549 140.093 356.81C141.071 357.266 141.718 358.081 142.033 359.255C142.174 359.799 142.245 360.348 142.245 360.902C142.256 361.445 142.191 361.983 142.049 362.516C141.919 363.037 141.685 363.516 141.348 363.95C141.022 364.385 140.604 364.727 140.093 364.977C139.539 365.227 138.903 365.352 138.186 365.352C137.468 365.352 136.833 365.227 136.278 364.977C135.333 364.521 134.681 363.7 134.322 362.516ZM135.838 359.239C135.697 359.674 135.626 360.217 135.626 360.869C135.626 361.51 135.697 362.059 135.838 362.516C135.979 362.972 136.143 363.315 136.327 363.543C136.719 363.978 137.164 364.233 137.664 364.309C138.012 364.363 138.36 364.363 138.707 364.309C138.86 364.298 139.072 364.222 139.343 364.081C139.637 363.929 139.876 363.738 140.061 363.51C140.245 363.282 140.403 362.951 140.533 362.516C140.675 362.059 140.745 361.51 140.745 360.869C140.745 360.217 140.675 359.674 140.533 359.239C140.381 358.761 140.213 358.418 140.028 358.212C139.854 358.005 139.637 357.832 139.376 357.69C139.115 357.549 138.892 357.462 138.707 357.429C138.36 357.375 138.012 357.375 137.664 357.429C137.512 357.44 137.295 357.522 137.012 357.674C136.458 357.946 136.066 358.467 135.838 359.239ZM149.939 362.076H151.308C151.265 362.706 151.026 363.369 150.591 364.065C150.352 364.456 149.977 364.771 149.466 365.01C148.966 365.238 148.379 365.352 147.705 365.352C147.477 365.352 147.314 365.347 147.216 365.336C146.738 365.314 146.249 365.189 145.749 364.961C144.358 364.266 143.662 362.885 143.662 360.82C143.662 359.733 143.912 358.766 144.412 357.918C145.032 356.919 146.097 356.419 147.608 356.419C148.673 356.419 149.52 356.69 150.151 357.234C150.781 357.766 151.145 358.467 151.243 359.337H149.874C149.656 358.065 148.912 357.429 147.64 357.429C146.814 357.429 146.195 357.734 145.782 358.342C145.38 358.94 145.179 359.766 145.179 360.82C145.179 361.842 145.39 362.684 145.814 363.347C146.238 364.01 146.879 364.342 147.738 364.342C148.477 364.342 149.015 364.108 149.352 363.641C149.711 363.173 149.906 362.652 149.939 362.076ZM154.687 365.026V357.755H151.818V356.745H158.991V357.755H156.122V365.026H154.687ZM161.522 356.745V363.347L165.842 356.745H167.44V365.026H166.005V358.408L161.701 365.026H160.087V356.745H161.522Z" fill="black"/>
<path d="M20.2148 292.901H23.9411V296.628H20.2148V292.901ZM27.6674 300.354H23.9411V296.628H27.6674V300.354ZM31.3937 304.08H27.6674V300.354H31.3937V304.08ZM35.12 304.08H31.3937V307.807H27.6674V311.533H23.9411V315.259H20.2148V318.985H23.9411V315.259H27.6674V311.533H31.3937V307.807H35.12V311.533H38.8463V315.259H42.5726V318.985H46.2989V315.259H42.5726V311.533H38.8463V307.807H35.12V304.08ZM38.8463 300.354V304.08H35.12V300.354H38.8463ZM42.5726 296.628V300.354H38.8463V296.628H42.5726ZM42.5726 296.628V292.901H46.2989V296.628H42.5726Z" fill="black"/>
<path d="M201.499 292.901H205.225V296.628H201.499V292.901ZM208.952 300.354H205.225V296.628H208.952V300.354ZM212.678 304.08H208.952V300.354H212.678V304.08ZM216.404 304.08H212.678V307.807H208.952V311.533H205.225V315.259H201.499V318.985H205.225V315.259H208.952V311.533H212.678V307.807H216.404V311.533H220.13V315.259H223.857V318.985H227.583V315.259H223.857V311.533H220.13V307.807H216.404V304.08ZM220.13 300.354V304.08H216.404V300.354H220.13ZM223.857 296.628V300.354H220.13V296.628H223.857ZM223.857 296.628V292.901H227.583V296.628H223.857Z" fill="black"/>
</svg>
