<svg width="391" height="388" viewBox="0 0 391 388" fill="none" xmlns="http://www.w3.org/2000/svg">
<rect width="391" height="387" transform="translate(0 0.975098)" fill="white"/>
<path d="M97.2709 42.5194C97.2709 38.2267 98.356 34.9475 100.526 32.6818C102.72 30.3924 105.618 29.2476 109.219 29.2476C111.699 29.2476 113.893 29.8319 115.801 31.0005C117.447 31.9545 118.747 33.3973 119.701 35.3291C120.655 37.237 121.144 39.6338 121.167 42.5194C121.167 44.2604 120.965 45.8821 120.559 47.3846C119.796 50.008 118.58 51.9636 116.91 53.2514C115.408 54.3961 113.846 55.1235 112.224 55.4335C111.199 55.672 110.197 55.7913 109.219 55.7913C108.671 55.7913 108.265 55.7794 108.003 55.7555C106.691 55.684 105.296 55.3381 103.817 54.7181C101.862 53.788 100.359 52.5121 99.31 50.8904C97.9506 48.7201 97.2709 45.9298 97.2709 42.5194ZM100.848 42.5194C100.848 44.475 101.146 46.2756 101.743 47.9212C102.959 51.2839 105.451 52.9652 109.219 52.9652C109.672 52.9652 110.006 52.9533 110.221 52.9294C111.246 52.8817 112.248 52.5836 113.226 52.0351C116.135 50.5088 117.59 47.3369 117.59 42.5194C117.59 39.3953 116.887 36.8792 115.479 34.9713C114.096 33.0396 112.009 32.0737 109.219 32.0737C107.836 32.0737 106.596 32.348 105.499 32.8965C104.402 33.445 103.543 34.1366 102.923 34.9713C102.351 35.7583 101.91 36.6646 101.599 37.6901C101.099 39.2402 100.848 40.85 100.848 42.5194ZM125.346 61.6581V36.8673H128.28V39.3714H128.387C129.818 37.225 131.821 36.1518 134.397 36.1518C136.758 36.1518 138.713 36.9746 140.263 38.6202C141.814 40.2896 142.589 42.7341 142.589 45.9537C142.589 49.2448 141.802 51.7012 140.228 53.3229C138.678 54.9446 136.758 55.7555 134.468 55.7555C133.753 55.7555 132.882 55.6005 131.857 55.2905C130.354 54.8373 129.233 53.8834 128.494 52.4286V61.6581H125.346ZM128.28 46.0252C128.28 48.5532 128.852 50.4492 129.997 51.7131C131.189 52.9294 132.489 53.5376 133.896 53.5376C135.375 53.5376 136.638 52.9413 137.688 51.7489C138.737 50.5088 139.262 48.577 139.262 45.9537C139.262 43.5688 138.773 41.7086 137.795 40.3731C136.841 39.0375 135.482 38.3698 133.717 38.3698C132.787 38.3698 131.916 38.6202 131.106 39.121C129.222 40.2419 128.28 42.5433 128.28 46.0252ZM149.088 42.2333H146.083C146.083 40.8023 146.56 39.4907 147.514 38.2982C148.659 36.8673 150.757 36.1518 153.81 36.1518C155.599 36.1518 157.173 36.5096 158.532 37.225C159.319 37.6066 159.939 38.2386 160.392 39.121C160.845 40.0034 161.06 41.0528 161.036 42.269L160.857 50.6757C160.857 51.3673 160.929 51.9039 161.072 52.2855C161.287 52.6671 161.847 52.846 162.753 52.8221V55.04C162.396 55.1354 161.919 55.1831 161.322 55.1831C160.273 55.1831 159.51 55.0043 159.033 54.6465C158.58 54.2888 158.258 53.5853 158.067 52.5359C156.898 54.6823 154.824 55.7555 151.843 55.7555C149.792 55.7555 148.206 55.3024 147.085 54.3961C145.988 53.466 145.439 52.0947 145.439 50.2822C145.439 48.5651 146.059 47.2653 147.299 46.3829C148.539 45.4528 150.889 44.8328 154.347 44.5227C155.945 44.4035 156.898 44.2485 157.208 44.0577C157.662 43.7477 157.888 43.068 157.888 42.0186C157.888 39.5861 156.529 38.3698 153.81 38.3698C150.59 38.3698 149.016 39.6576 149.088 42.2333ZM157.817 47.2773L157.888 45.739C157.53 46.0014 157.006 46.216 156.314 46.3829C155.265 46.4545 154.454 46.538 153.882 46.6334C151.902 46.9672 150.698 47.2415 150.269 47.4561C149.219 47.957 148.694 48.8632 148.694 50.1749C148.694 51.2242 149.005 52.047 149.625 52.6432C150.269 53.2395 151.127 53.5376 152.2 53.5376C152.892 53.5376 153.524 53.4422 154.096 53.2514C154.692 53.0606 155.265 52.7506 155.813 52.3213C156.386 51.8682 156.839 51.2123 157.173 50.3538C157.53 49.4952 157.745 48.4697 157.817 47.2773ZM167.681 39.6218V29.9989H171.222V39.6218L170.328 47.8496H168.575L167.681 39.6218ZM171.222 55.04H167.681V51.1408H171.222V55.04ZM186.388 55.04V29.9989H197.37C198.801 29.9989 200.029 30.1897 201.055 30.5712C202.08 30.929 202.855 31.4417 203.38 32.1095C203.905 32.7534 204.274 33.4212 204.489 34.1128C204.728 34.8044 204.847 35.5556 204.847 36.3665C204.847 37.702 204.441 38.8825 203.631 39.908C202.844 40.9335 201.854 41.5417 200.661 41.7324V41.8398C201.258 41.9352 201.83 42.1021 202.378 42.3406C202.927 42.5791 203.476 42.9249 204.024 43.378C204.596 43.8311 205.05 44.4631 205.383 45.274C205.741 46.0848 205.92 47.0149 205.92 48.0643C205.92 52.7148 202.939 55.04 196.977 55.04H186.388ZM196.619 32.8249H189.751V40.6235H196.512C198.157 40.6235 199.385 40.2777 200.196 39.5861C201.007 38.8706 201.413 37.9166 201.413 36.7242C201.413 36.2949 201.353 35.8895 201.234 35.5079C201.114 35.1025 200.9 34.6851 200.59 34.2559C200.28 33.8266 199.779 33.4808 199.087 33.2184C198.42 32.9561 197.597 32.8249 196.619 32.8249ZM196.726 43.4496H189.751V52.214H196.726C197.823 52.214 198.825 52.0828 199.731 51.8205C201.568 51.2719 202.486 49.9245 202.486 47.7781C202.486 44.8924 200.566 43.4496 196.726 43.4496ZM210.014 49.531C209.394 46.9792 209.418 44.5108 210.086 42.1259C210.754 39.7411 212.161 38.0359 214.307 37.0104C215.5 36.438 216.895 36.1518 218.493 36.1518C220.09 36.1518 221.486 36.438 222.678 37.0104C224.824 38.012 226.243 39.8007 226.935 42.3764C227.245 43.5688 227.4 44.7732 227.4 45.9894C227.424 47.1819 227.281 48.3624 226.971 49.531C226.685 50.6757 226.172 51.7251 225.433 52.679C224.717 53.633 223.799 54.3842 222.678 54.9327C221.462 55.4812 220.067 55.7555 218.493 55.7555C216.919 55.7555 215.523 55.4812 214.307 54.9327C212.232 53.9311 210.801 52.1305 210.014 49.531ZM213.341 42.3406C213.031 43.2945 212.876 44.487 212.876 45.9179C212.876 47.325 213.031 48.5293 213.341 49.531C213.651 50.5326 214.009 51.2839 214.414 51.7847C215.273 52.7386 216.251 53.2991 217.348 53.466C218.111 53.5853 218.874 53.5853 219.637 53.466C219.971 53.4422 220.436 53.2752 221.032 52.9652C221.676 52.6313 222.201 52.214 222.606 51.7131C223.012 51.2123 223.358 50.4849 223.644 49.531C223.954 48.5293 224.109 47.325 224.109 45.9179C224.109 44.487 223.954 43.2945 223.644 42.3406C223.31 41.2912 222.94 40.54 222.535 40.0869C222.153 39.6338 221.676 39.2522 221.104 38.9421C220.532 38.6321 220.043 38.4413 219.637 38.3698C218.874 38.2505 218.111 38.2505 217.348 38.3698C217.014 38.3936 216.537 38.5725 215.917 38.9064C214.701 39.5026 213.842 40.6473 213.341 42.3406ZM231.548 61.6581V36.8673H234.481V39.3714H234.588C236.019 37.225 238.022 36.1518 240.598 36.1518C242.959 36.1518 244.915 36.9746 246.465 38.6202C248.015 40.2896 248.79 42.7341 248.79 45.9537C248.79 49.2448 248.003 51.7012 246.429 53.3229C244.879 54.9446 242.959 55.7555 240.67 55.7555C239.954 55.7555 239.084 55.6005 238.058 55.2905C236.556 54.8373 235.435 53.8834 234.696 52.4286V61.6581H231.548ZM234.481 46.0252C234.481 48.5532 235.053 50.4492 236.198 51.7131C237.39 52.9294 238.69 53.5376 240.097 53.5376C241.576 53.5376 242.84 52.9413 243.889 51.7489C244.939 50.5088 245.463 48.577 245.463 45.9537C245.463 43.5688 244.974 41.7086 243.997 40.3731C243.043 39.0375 241.683 38.3698 239.918 38.3698C238.988 38.3698 238.118 38.6202 237.307 39.121C235.423 40.2419 234.481 42.5433 234.481 46.0252ZM256.041 36.8673V44.8089L263.803 36.8673H267.488L258.974 45.3098L267.953 55.04H264.197L256.041 45.9537V55.04H252.893V36.8673H256.041ZM273.543 36.8673V52.8221H281.127V36.8673H284.275V52.8221H291.859V36.8673H295.007V55.04H270.395V36.8673H273.543ZM299.587 49.531C298.967 46.9792 298.991 44.5108 299.658 42.1259C300.326 39.7411 301.733 38.0359 303.88 37.0104C305.072 36.438 306.467 36.1518 308.065 36.1518C309.663 36.1518 311.058 36.438 312.251 37.0104C314.397 38.012 315.816 39.8007 316.508 42.3764C316.818 43.5688 316.973 44.7732 316.973 45.9894C316.996 47.1819 316.853 48.3624 316.543 49.531C316.257 50.6757 315.744 51.7251 315.005 52.679C314.29 53.633 313.371 54.3842 312.251 54.9327C311.034 55.4812 309.639 55.7555 308.065 55.7555C306.491 55.7555 305.096 55.4812 303.88 54.9327C301.805 53.9311 300.374 52.1305 299.587 49.531ZM302.914 42.3406C302.604 43.2945 302.449 44.487 302.449 45.9179C302.449 47.325 302.604 48.5293 302.914 49.531C303.224 50.5326 303.582 51.2839 303.987 51.7847C304.846 52.7386 305.823 53.2991 306.92 53.466C307.684 53.5853 308.447 53.5853 309.21 53.466C309.544 53.4422 310.009 53.2752 310.605 52.9652C311.249 52.6313 311.774 52.214 312.179 51.7131C312.584 51.2123 312.93 50.4849 313.216 49.531C313.526 48.5293 313.681 47.325 313.681 45.9179C313.681 44.487 313.526 43.2945 313.216 42.3406C312.883 41.2912 312.513 40.54 312.107 40.0869C311.726 39.6338 311.249 39.2522 310.677 38.9421C310.104 38.6321 309.615 38.4413 309.21 38.3698C308.447 38.2505 307.684 38.2505 306.92 38.3698C306.586 38.3936 306.109 38.5725 305.489 38.9064C304.273 39.5026 303.415 40.6473 302.914 42.3406ZM333.462 39.0852H324.268V55.04H321.12V36.8673H336.61V55.04H333.462V39.0852ZM95.9473 95.7621L95.6611 88.8221H97.9506C99.9301 85.9126 100.92 81.6079 100.92 75.908V72.8673H113.941V88.8221H117.089L116.839 95.7621H114.192V91.04H98.5945V95.7621H95.9473ZM110.793 88.8221V75.0852H103.853V77.6251C103.853 79.5569 103.639 81.5602 103.209 83.635C102.828 85.686 102.184 87.415 101.278 88.8221H110.793ZM118.589 91.04V88.7148C120.378 89.2395 121.642 88.3928 122.381 86.1749C122.572 85.6264 122.703 84.9467 122.775 84.1358L122.918 81.9537C122.942 81.5721 122.954 80.8209 122.954 79.7V72.8673H135.546V91.04H132.398V75.0852H125.887V79.7C125.887 81.2024 125.851 82.4664 125.78 83.4919C125.708 84.4936 125.529 85.5906 125.243 86.783C124.838 88.4763 124.11 89.6807 123.061 90.3961C122.011 91.1116 120.521 91.3262 118.589 91.04ZM151.808 83.8854H147.658L142.9 91.04H139.43L144.439 83.8496C143.055 83.7066 141.934 83.17 141.076 82.2399C140.217 81.3098 139.788 80.0935 139.788 78.591C139.788 77.1839 140.158 75.9557 140.897 74.9064C141.779 73.547 143.449 72.8673 145.905 72.8673H154.956V91.04H151.808V83.8854ZM151.808 81.6675V75.0852H147.265C144.451 75.0852 143.043 76.218 143.043 78.4837C143.043 79.4138 143.389 80.1769 144.081 80.7732C144.772 81.3694 145.87 81.6675 147.372 81.6675H151.808ZM166.166 95.7621L165.88 88.8221H168.169C170.149 85.9126 171.138 81.6079 171.138 75.908V72.8673H184.16V88.8221H187.308L187.058 95.7621H184.41V91.04H168.813V95.7621H166.166ZM181.012 88.8221V75.0852H174.072V77.6251C174.072 79.5569 173.857 81.5602 173.428 83.635C173.046 85.686 172.402 87.415 171.496 88.8221H181.012ZM193.158 72.8673V87.3554L202.638 72.8673H206.144V91.04H202.996V76.5162L193.552 91.04H190.01V72.8673H193.158ZM209.854 85.4594H212.859C212.859 86.6519 213.289 87.6297 214.147 88.3928C215.006 89.156 216.186 89.5376 217.689 89.5376C219.167 89.5376 220.324 89.2395 221.159 88.6432C221.993 88.0232 222.411 87.1288 222.411 85.9603C222.411 83.79 221.04 82.7049 218.297 82.7049H215.614V80.487H217.939C220.467 80.487 221.731 79.5449 221.731 77.6609C221.731 77.3509 221.683 77.0408 221.588 76.7308C221.517 76.4208 221.35 76.075 221.087 75.6934C220.849 75.2879 220.431 74.966 219.835 74.7275C219.239 74.489 218.5 74.3698 217.617 74.3698C216.043 74.3698 214.934 74.7394 214.29 75.4787C213.646 76.218 213.324 77.017 213.324 77.8755H210.32C210.391 76.6354 210.713 75.598 211.285 74.7633C211.858 73.9286 212.597 73.3323 213.503 72.9746C214.982 72.4261 216.413 72.1518 217.796 72.1518C219.012 72.1518 220.086 72.2949 221.016 72.5811C221.946 72.8435 222.649 73.1654 223.126 73.547C223.627 73.9286 224.021 74.3817 224.307 74.9064C224.617 75.431 224.808 75.8961 224.879 76.3015C224.951 76.6831 224.987 77.0647 224.987 77.4463C224.987 79.5688 223.937 80.8924 221.838 81.4171V81.5244C222.959 81.6913 223.878 82.1802 224.593 82.9911C225.308 83.8019 225.666 84.8632 225.666 86.1749C225.666 87.5104 225.189 88.7267 224.235 89.8238C223.067 91.1116 220.968 91.7555 217.939 91.7555C215.387 91.7555 213.444 91.2189 212.108 90.1457C210.606 88.834 209.854 87.2719 209.854 85.4594ZM232.163 78.2333H229.158C229.158 76.8023 229.635 75.4907 230.589 74.2982C231.733 72.8673 233.832 72.1518 236.885 72.1518C238.673 72.1518 240.247 72.5096 241.607 73.225C242.394 73.6066 243.014 74.2386 243.467 75.121C243.92 76.0034 244.135 77.0528 244.111 78.269L243.932 86.6757C243.932 87.3673 244.004 87.9039 244.147 88.2855C244.361 88.6671 244.922 88.846 245.828 88.8221V91.04C245.47 91.1354 244.993 91.1831 244.397 91.1831C243.348 91.1831 242.585 91.0043 242.108 90.6465C241.654 90.2888 241.332 89.5853 241.142 88.5359C239.973 90.6823 237.898 91.7555 234.917 91.7555C232.866 91.7555 231.28 91.3024 230.159 90.3961C229.062 89.466 228.514 88.0947 228.514 86.2822C228.514 84.5651 229.134 83.2653 230.374 82.3829C231.614 81.4528 233.963 80.8328 237.421 80.5227C239.019 80.4035 239.973 80.2485 240.283 80.0577C240.736 79.7477 240.963 79.068 240.963 78.0186C240.963 75.5861 239.603 74.3698 236.885 74.3698C233.665 74.3698 232.091 75.6576 232.163 78.2333ZM240.891 83.2773L240.963 81.739C240.605 82.0014 240.08 82.216 239.389 82.3829C238.339 82.4545 237.529 82.538 236.956 82.6334C234.977 82.9672 233.772 83.2415 233.343 83.4561C232.294 83.957 231.769 84.8632 231.769 86.1749C231.769 87.2242 232.079 88.047 232.699 88.6432C233.343 89.2395 234.202 89.5376 235.275 89.5376C235.967 89.5376 236.599 89.4422 237.171 89.2514C237.767 89.0606 238.339 88.7506 238.888 88.3213C239.46 87.8682 239.913 87.2123 240.247 86.3538C240.605 85.4952 240.82 84.4697 240.891 83.2773ZM252.687 72.8673V87.3554L262.167 72.8673H265.673V91.04H262.525V76.5162L253.08 91.04H249.539V72.8673H252.687ZM260.986 65.9989H263.669C263.168 68.6222 261.594 70.1605 258.947 70.6136C258.494 70.6851 258.017 70.7209 257.516 70.7209C254.44 70.7209 252.472 69.4689 251.614 66.9647C251.542 66.7978 251.459 66.4758 251.363 65.9989H254.046C253.975 66.6189 254.189 67.2032 254.69 67.7517C255.048 68.1333 255.465 68.4195 255.942 68.6103C256.372 68.7534 256.896 68.8249 257.516 68.8249C258.542 68.8249 259.388 68.5745 260.056 68.0737C260.724 67.549 261.034 66.8574 260.986 65.9989ZM282.941 82.5618H273.962V91.04H270.814V72.8673H273.962V80.3439H282.941V72.8673H286.089V91.04H282.941V82.5618ZM304.344 85.7814H307.349C307.063 87.3793 306.288 88.7744 305.024 89.9668C303.76 91.1593 301.887 91.7555 299.407 91.7555C296.044 91.7555 293.576 90.6465 292.002 88.4286C291.215 87.26 290.702 86.008 290.464 84.6724C290.297 83.7423 290.213 82.8599 290.213 82.0252C290.213 80.4273 290.452 78.9249 290.929 77.5178C291.239 76.5162 291.692 75.6457 292.288 74.9064C292.932 74.1194 293.85 73.4635 295.043 72.9388C296.235 72.4142 297.583 72.1518 299.085 72.1518C301.756 72.1518 303.771 72.8911 305.131 74.3698C305.703 74.9898 306.168 75.7768 306.526 76.7308C307.051 78.114 307.373 79.7954 307.492 81.7748C307.492 81.8463 307.492 82.0014 307.492 82.2399C307.516 82.4783 307.528 82.6214 307.528 82.6691H293.54C293.54 84.4816 294.017 86.0795 294.971 87.4627C295.925 88.846 297.368 89.5376 299.3 89.5376C300.683 89.5376 301.816 89.1918 302.698 88.5001C303.581 87.8085 304.129 86.9023 304.344 85.7814ZM293.54 80.4512H304.201C304.177 79.0441 303.843 77.7444 303.199 76.5519C302.46 75.0972 301.112 74.3698 299.157 74.3698C296.939 74.3698 295.413 75.1091 294.578 76.5877C293.886 77.7801 293.54 79.068 293.54 80.4512ZM311.653 97.6581V72.8673H314.586V75.3714H314.693C316.124 73.225 318.128 72.1518 320.703 72.1518C323.064 72.1518 325.02 72.9746 326.57 74.6202C328.12 76.2896 328.895 78.7341 328.895 81.9537C328.895 85.2448 328.108 87.7012 326.534 89.3229C324.984 90.9446 323.064 91.7555 320.775 91.7555C320.059 91.7555 319.189 91.6005 318.163 91.2905C316.661 90.8373 315.54 89.8834 314.801 88.4286V97.6581H311.653ZM314.586 82.0252C314.586 84.5532 315.159 86.4492 316.303 87.7131C317.496 88.9294 318.795 89.5376 320.203 89.5376C321.681 89.5376 322.945 88.9413 323.994 87.7489C325.044 86.5088 325.568 84.577 325.568 81.9537C325.568 79.5688 325.08 77.7086 324.102 76.3731C323.148 75.0375 321.788 74.3698 320.024 74.3698C319.094 74.3698 318.223 74.6202 317.412 75.121C315.528 76.2419 314.586 78.5433 314.586 82.0252ZM332.425 85.531C331.805 82.9792 331.829 80.5108 332.497 78.1259C333.165 75.7411 334.572 74.0359 336.718 73.0104C337.911 72.438 339.306 72.1518 340.904 72.1518C342.502 72.1518 343.897 72.438 345.089 73.0104C347.236 74.012 348.655 75.8007 349.346 78.3764C349.656 79.5688 349.811 80.7732 349.811 81.9894C349.835 83.1819 349.692 84.3624 349.382 85.531C349.096 86.6757 348.583 87.7251 347.844 88.679C347.128 89.633 346.21 90.3842 345.089 90.9327C343.873 91.4812 342.478 91.7555 340.904 91.7555C339.33 91.7555 337.935 91.4812 336.718 90.9327C334.643 89.9311 333.212 88.1305 332.425 85.531ZM335.752 78.3406C335.442 79.2945 335.287 80.487 335.287 81.9179C335.287 83.325 335.442 84.5293 335.752 85.531C336.062 86.5326 336.42 87.2839 336.826 87.7847C337.684 88.7386 338.662 89.2991 339.759 89.466C340.522 89.5853 341.285 89.5853 342.048 89.466C342.382 89.4422 342.847 89.2752 343.444 88.9652C344.087 88.6313 344.612 88.214 345.018 87.7131C345.423 87.2123 345.769 86.4849 346.055 85.531C346.365 84.5293 346.52 83.325 346.52 81.9179C346.52 80.487 346.365 79.2945 346.055 78.3406C345.721 77.2912 345.351 76.54 344.946 76.0869C344.564 75.6338 344.087 75.2522 343.515 74.9421C342.943 74.6321 342.454 74.4413 342.048 74.3698C341.285 74.2505 340.522 74.2505 339.759 74.3698C339.425 74.3936 338.948 74.5725 338.328 74.9064C337.112 75.5026 336.253 76.6473 335.752 78.3406ZM353.959 91.04V72.8673H362.616C366.455 72.8673 368.375 74.3101 368.375 77.1958C368.375 79.2707 367.278 80.6897 365.084 81.4528V81.5602C366.563 81.9179 367.588 82.4903 368.161 83.2773C368.757 84.0643 369.055 85.0779 369.055 86.318C369.055 88.2974 368.327 89.6091 366.873 90.253C365.68 90.7777 364.226 91.04 362.508 91.04H353.959ZM361.614 75.0852H357.107V80.4512H361.471C362.735 80.4512 363.665 80.2008 364.261 79.7C364.881 79.1753 365.191 78.4956 365.191 77.6609C365.191 75.9438 363.999 75.0852 361.614 75.0852ZM361.614 82.6691H357.107V88.8221H361.721C364.44 88.8221 365.8 87.892 365.8 86.0318C365.8 83.79 364.404 82.6691 361.614 82.6691Z" fill="black"/>
<path d="M19.3421 137.83H22.5616L22.669 138.652C23.1698 141.896 24.9107 143.517 27.8918 143.517C29.7997 143.517 31.2187 143.052 32.1488 142.122C33.1028 141.168 33.5798 139.869 33.5798 138.223C33.5798 136.84 33.1624 135.743 32.3277 134.932C31.5168 134.121 30.4079 133.716 29.0008 133.716H26.4251V130.997H27.4268C28.2138 130.997 29.0008 130.901 29.7878 130.711C31.8626 130.138 32.9001 128.791 32.9001 126.668C32.9001 125.381 32.4946 124.343 31.6838 123.556C30.8968 122.745 29.6566 122.34 27.9634 122.34C24.7199 122.34 23.0982 124.236 23.0982 128.028H19.986C19.986 126.668 20.2006 125.381 20.6299 124.164C21.5838 121.255 24.0641 119.752 28.0707 119.657C30.6941 119.657 32.6258 120.277 33.8659 121.517C35.2969 122.829 36.0123 124.498 36.0123 126.525C36.0123 127.885 35.6307 129.065 34.8676 130.067C34.1283 131.068 33.1386 131.736 31.8984 132.07V132.142C33.3055 132.356 34.4622 133.024 35.3684 134.145C36.2747 135.266 36.7278 136.709 36.7278 138.473C36.7278 140.882 35.9289 142.778 34.331 144.161C32.7331 145.521 30.6583 146.2 28.1065 146.2C25.4354 146.2 23.3606 145.545 21.8819 144.233C20.1887 142.516 19.3421 140.381 19.3421 137.83ZM45.7527 126.633H40.029V124.88H40.7802C42.3542 124.88 43.6898 124.474 44.7868 123.663C45.9077 122.829 46.5635 121.744 46.7543 120.408H49.1153V145.449H45.7527V126.633ZM62.2754 145.449H58.7338V141.55H62.2754V145.449ZM78.0709 146.057C76.9977 146.248 75.8887 146.248 74.744 146.057C74.2193 145.986 73.4919 145.7 72.5618 145.199C71.584 144.674 70.7732 143.971 70.1293 143.088C69.4853 142.206 68.913 140.918 68.4121 139.225C67.9113 137.436 67.6609 135.337 67.6609 132.929C67.6609 130.496 67.9113 128.409 68.4121 126.668C68.9607 124.856 69.545 123.532 70.165 122.698C70.7612 121.911 71.5125 121.255 72.4187 120.73C73.3488 120.205 74.1239 119.895 74.744 119.8C75.8887 119.609 76.9977 119.609 78.0709 119.8C78.6194 119.871 79.3587 120.158 80.2888 120.658C81.2905 121.183 82.1013 121.887 82.7214 122.769C83.3653 123.651 83.9257 124.951 84.4027 126.668C84.9274 128.385 85.1897 130.472 85.1897 132.929C85.1897 135.385 84.9274 137.484 84.4027 139.225C83.8781 141.013 83.2938 142.325 82.6498 143.16C82.0059 144.018 81.2189 144.698 80.2888 145.199C79.3587 145.7 78.6194 145.986 78.0709 146.057ZM72.2756 140.477C73.1819 142.409 74.5651 143.374 76.4253 143.374C78.3094 143.374 79.6807 142.409 80.5392 140.477C81.4216 138.569 81.8628 136.053 81.8628 132.929C81.8628 129.804 81.4216 127.288 80.5392 125.381C79.6807 123.449 78.3094 122.483 76.4253 122.483C74.5651 122.483 73.1819 123.449 72.2756 125.381C71.4171 127.312 70.9878 129.828 70.9878 132.929C70.9878 136.029 71.4171 138.545 72.2756 140.477ZM88.4479 139.046H91.739C91.8582 140.167 92.3233 141.192 93.1342 142.122C93.945 143.052 95.1971 143.517 96.8903 143.517C100.778 143.517 102.721 141.455 102.721 137.329C102.721 135.278 102.185 133.787 101.112 132.857C100.086 131.903 98.7863 131.426 97.2123 131.426C96.3299 131.426 95.3879 131.629 94.3862 132.034C93.3607 132.44 92.6691 132.964 92.3114 133.608H89.1633L90.9162 120.408H104.438V123.234H93.3846L92.3829 130.639C93.8377 129.375 95.7217 128.743 98.0351 128.743C100.372 128.743 102.256 129.518 103.687 131.068C105.142 132.595 105.869 134.67 105.869 137.293C105.869 140.012 105.094 142.182 103.544 143.804C101.994 145.402 99.776 146.2 96.8903 146.2C93.8138 146.2 91.6317 145.354 90.3439 143.661C89.223 142.206 88.591 140.668 88.4479 139.046ZM114.887 145.449H111.345V141.55H114.887V145.449ZM124.422 142.623H137.658V145.449H120.702C120.559 142.969 121.346 140.703 123.063 138.652C123.421 138.199 124.017 137.651 124.851 137.007C125.829 136.244 126.485 135.755 126.819 135.54L129.18 134.038L129.895 133.608L130.683 133.072L131.326 132.607C131.78 132.297 132.066 132.082 132.185 131.963C132.924 131.128 133.342 130.627 133.437 130.46C134.009 129.22 134.296 128.159 134.296 127.276C134.296 125.75 133.842 124.57 132.936 123.735C132.054 122.9 130.826 122.483 129.252 122.483C127.654 122.483 126.39 122.936 125.46 123.842C124.53 124.749 124.064 125.953 124.064 127.455V128.385H120.773V127.634C120.773 126.346 121.048 125.094 121.596 123.878C122.765 121.135 125.352 119.728 129.359 119.657C131.935 119.657 133.974 120.336 135.476 121.696C136.979 123.031 137.73 124.88 137.73 127.241C137.849 129.196 137.241 130.973 135.905 132.571C135.619 132.929 135.083 133.406 134.296 134.002C133.604 134.526 132.948 135.003 132.328 135.433C131.899 135.719 131.016 136.291 129.681 137.15C127.988 138.223 126.747 139.177 125.96 140.012C125.173 140.823 124.661 141.693 124.422 142.623ZM151.434 146.057C150.361 146.248 149.252 146.248 148.107 146.057C147.582 145.986 146.855 145.7 145.925 145.199C144.947 144.674 144.136 143.971 143.492 143.088C142.848 142.206 142.276 140.918 141.775 139.225C141.274 137.436 141.024 135.337 141.024 132.929C141.024 130.496 141.274 128.409 141.775 126.668C142.323 124.856 142.908 123.532 143.528 122.698C144.124 121.911 144.875 121.255 145.782 120.73C146.712 120.205 147.487 119.895 148.107 119.8C149.252 119.609 150.361 119.609 151.434 119.8C151.982 119.871 152.722 120.158 153.652 120.658C154.653 121.183 155.464 121.887 156.084 122.769C156.728 123.651 157.289 124.951 157.766 126.668C158.29 128.385 158.553 130.472 158.553 132.929C158.553 135.385 158.29 137.484 157.766 139.225C157.241 141.013 156.657 142.325 156.013 143.16C155.369 144.018 154.582 144.698 153.652 145.199C152.722 145.7 151.982 145.986 151.434 146.057ZM145.638 140.477C146.545 142.409 147.928 143.374 149.788 143.374C151.672 143.374 153.043 142.409 153.902 140.477C154.784 138.569 155.226 136.053 155.226 132.929C155.226 129.804 154.784 127.288 153.902 125.381C153.043 123.449 151.672 122.483 149.788 122.483C147.928 122.483 146.545 123.449 145.638 125.381C144.78 127.312 144.351 129.828 144.351 132.929C144.351 136.029 144.78 138.545 145.638 140.477ZM165.925 142.623H179.161V145.449H162.204C162.061 142.969 162.848 140.703 164.565 138.652C164.923 138.199 165.519 137.651 166.354 137.007C167.332 136.244 167.988 135.755 168.321 135.54L170.682 134.038L171.398 133.608L172.185 133.072L172.829 132.607C173.282 132.297 173.568 132.082 173.687 131.963C174.427 131.128 174.844 130.627 174.939 130.46C175.512 129.22 175.798 128.159 175.798 127.276C175.798 125.75 175.345 124.57 174.439 123.735C173.556 122.9 172.328 122.483 170.754 122.483C169.156 122.483 167.892 122.936 166.962 123.842C166.032 124.749 165.567 125.953 165.567 127.455V128.385H162.276V127.634C162.276 126.346 162.55 125.094 163.099 123.878C164.267 121.135 166.855 119.728 170.861 119.657C173.437 119.657 175.476 120.336 176.978 121.696C178.481 123.031 179.232 124.88 179.232 127.241C179.351 129.196 178.743 130.973 177.408 132.571C177.122 132.929 176.585 133.406 175.798 134.002C175.106 134.526 174.451 135.003 173.83 135.433C173.401 135.719 172.519 136.291 171.183 137.15C169.49 138.223 168.25 139.177 167.463 140.012C166.676 140.823 166.163 141.693 165.925 142.623ZM182.562 139.046H185.853C185.972 140.167 186.437 141.192 187.248 142.122C188.059 143.052 189.311 143.517 191.004 143.517C194.892 143.517 196.835 141.455 196.835 137.329C196.835 135.278 196.299 133.787 195.226 132.857C194.2 131.903 192.9 131.426 191.326 131.426C190.444 131.426 189.502 131.629 188.5 132.034C187.475 132.44 186.783 132.964 186.425 133.608H183.277L185.03 120.408H198.552V123.234H187.499L186.497 130.639C187.952 129.375 189.836 128.743 192.149 128.743C194.486 128.743 196.37 129.518 197.801 131.068C199.256 132.595 199.983 134.67 199.983 137.293C199.983 140.012 199.208 142.182 197.658 143.804C196.108 145.402 193.89 146.2 191.004 146.2C187.928 146.2 185.746 145.354 184.458 143.661C183.337 142.206 182.705 140.668 182.562 139.046ZM23.6706 178.623H36.9067V181.449H19.9502C19.8071 178.969 20.5941 176.703 22.3112 174.652C22.669 174.199 23.2652 173.651 24.0999 173.007C25.0777 172.244 25.7335 171.755 26.0674 171.54L28.4284 170.038L29.1439 169.608L29.9309 169.072L30.5748 168.607C31.0279 168.297 31.3141 168.082 31.4334 167.963C32.1727 167.128 32.59 166.627 32.6854 166.46C33.2578 165.22 33.544 164.159 33.544 163.276C33.544 161.75 33.0909 160.57 32.1846 159.735C31.3022 158.9 30.074 158.483 28.5 158.483C26.9021 158.483 25.6381 158.936 24.708 159.842C23.7779 160.749 23.3129 161.953 23.3129 163.455V164.385H20.0217V163.634C20.0217 162.346 20.296 161.094 20.8445 159.878C22.0131 157.135 24.6007 155.728 28.6073 155.657C31.183 155.657 33.222 156.336 34.7245 157.696C36.227 159.031 36.9782 160.88 36.9782 163.241C37.0974 165.196 36.4893 166.973 35.1538 168.571C34.8676 168.929 34.331 169.406 33.544 170.002C32.8524 170.526 32.1965 171.003 31.5765 171.433C31.1472 171.719 30.2648 172.291 28.9293 173.15C27.236 174.223 25.9959 175.177 25.2088 176.012C24.4218 176.823 23.9091 177.693 23.6706 178.623ZM50.6821 182.057C49.6089 182.248 48.4999 182.248 47.3552 182.057C46.8305 181.986 46.1031 181.7 45.173 181.199C44.1952 180.674 43.3844 179.971 42.7405 179.088C42.0965 178.206 41.5242 176.918 41.0234 175.225C40.5225 173.436 40.2721 171.337 40.2721 168.929C40.2721 166.496 40.5225 164.409 41.0234 162.668C41.5719 160.856 42.1562 159.532 42.7762 158.698C43.3725 157.911 44.1237 157.255 45.0299 156.73C45.96 156.205 46.7351 155.895 47.3552 155.8C48.4999 155.609 49.6089 155.609 50.6821 155.8C51.2306 155.871 51.9699 156.158 52.9 156.658C53.9017 157.183 54.7125 157.887 55.3326 158.769C55.9765 159.651 56.537 160.951 57.0139 162.668C57.5386 164.385 57.8009 166.472 57.8009 168.929C57.8009 171.385 57.5386 173.484 57.0139 175.225C56.4893 177.013 55.905 178.325 55.2611 179.16C54.6171 180.018 53.8301 180.698 52.9 181.199C51.9699 181.7 51.2306 181.986 50.6821 182.057ZM44.8869 176.477C45.7931 178.409 47.1763 179.374 49.0365 179.374C50.9206 179.374 52.2919 178.409 53.1504 176.477C54.0328 174.569 54.474 172.053 54.474 168.929C54.474 165.804 54.0328 163.288 53.1504 161.381C52.2919 159.449 50.9206 158.483 49.0365 158.483C47.1763 158.483 45.7931 159.449 44.8869 161.381C44.0283 163.312 43.599 165.828 43.599 168.929C43.599 172.029 44.0283 174.545 44.8869 176.477ZM66.747 167.176H63.2055V163.276H66.747V167.176ZM66.747 181.449H63.2055V177.55H66.747V181.449ZM82.5425 182.057C81.4693 182.248 80.3604 182.248 79.2156 182.057C78.6909 181.986 77.9636 181.7 77.0335 181.199C76.0557 180.674 75.2448 179.971 74.6009 179.088C73.957 178.206 73.3846 176.918 72.8838 175.225C72.383 173.436 72.1325 171.337 72.1325 168.929C72.1325 166.496 72.383 164.409 72.8838 162.668C73.4323 160.856 74.0166 159.532 74.6367 158.698C75.2329 157.911 75.9841 157.255 76.8904 156.73C77.8205 156.205 78.5956 155.895 79.2156 155.8C80.3604 155.609 81.4693 155.609 82.5425 155.8C83.091 155.871 83.8304 156.158 84.7605 156.658C85.7621 157.183 86.573 157.887 87.193 158.769C87.8369 159.651 88.3974 160.951 88.8744 162.668C89.399 164.385 89.6614 166.472 89.6614 168.929C89.6614 171.385 89.399 173.484 88.8744 175.225C88.3497 177.013 87.7654 178.325 87.1215 179.16C86.4776 180.018 85.6906 180.698 84.7605 181.199C83.8304 181.7 83.091 181.986 82.5425 182.057ZM76.7473 176.477C77.6535 178.409 79.0368 179.374 80.897 179.374C82.781 179.374 84.1523 178.409 85.0109 176.477C85.8933 174.569 86.3345 172.053 86.3345 168.929C86.3345 165.804 85.8933 163.288 85.0109 161.381C84.1523 159.449 82.781 158.483 80.897 158.483C79.0368 158.483 77.6535 159.449 76.7473 161.381C75.8887 163.312 75.4594 165.828 75.4594 168.929C75.4594 172.029 75.8887 174.545 76.7473 176.477ZM103.294 182.057C102.221 182.248 101.112 182.248 99.9668 182.057C99.4422 181.986 98.7148 181.7 97.7847 181.199C96.8069 180.674 95.996 179.971 95.3521 179.088C94.7082 178.206 94.1358 176.918 93.635 175.225C93.1342 173.436 92.8837 171.337 92.8837 168.929C92.8837 166.496 93.1342 164.409 93.635 162.668C94.1835 160.856 94.7678 159.532 95.3879 158.698C95.9841 157.911 96.7353 157.255 97.6416 156.73C98.5717 156.205 99.3468 155.895 99.9668 155.8C101.112 155.609 102.221 155.609 103.294 155.8C103.842 155.871 104.582 156.158 105.512 156.658C106.513 157.183 107.324 157.887 107.944 158.769C108.588 159.651 109.149 160.951 109.626 162.668C110.15 164.385 110.413 166.472 110.413 168.929C110.413 171.385 110.15 173.484 109.626 175.225C109.101 177.013 108.517 178.325 107.873 179.16C107.229 180.018 106.442 180.698 105.512 181.199C104.582 181.7 103.842 181.986 103.294 182.057ZM97.4985 176.477C98.4047 178.409 99.788 179.374 101.648 179.374C103.532 179.374 104.904 178.409 105.762 176.477C106.644 174.569 107.086 172.053 107.086 168.929C107.086 165.804 106.644 163.288 105.762 161.381C104.904 159.449 103.532 158.483 101.648 158.483C99.788 158.483 98.4047 159.449 97.4985 161.381C96.6399 163.312 96.2106 165.828 96.2106 168.929C96.2106 172.029 96.6399 174.545 97.4985 176.477Z" fill="black"/>
<path d="M121.726 303.461H120.49L116.783 293.9H116.75L116.783 294.339V303.461H115.254V292.079H117.547L121.108 301.445L124.669 292.079H126.962V303.461H125.433V294.339L125.466 293.9H125.417L121.726 303.461ZM129.509 303.461V295.201H130.94V298.469H133.021C133.682 298.469 134.235 298.534 134.68 298.664C135.742 298.935 136.295 299.71 136.338 300.989C136.338 301.748 136.105 302.35 135.639 302.794C135.184 303.239 134.474 303.461 133.509 303.461H129.509ZM132.68 299.477H130.94V302.453H132.94C134.219 302.453 134.859 301.932 134.859 300.892C134.859 300.382 134.691 300.014 134.355 299.786C134.246 299.699 134.067 299.629 133.818 299.575C133.558 299.51 133.178 299.477 132.68 299.477ZM137.347 303.461V295.201H138.777V303.461H137.347ZM144.652 300.957C144.37 299.797 144.381 298.675 144.684 297.591C144.988 296.507 145.627 295.732 146.603 295.266C147.145 295.005 147.779 294.875 148.506 294.875C149.232 294.875 149.866 295.005 150.408 295.266C151.384 295.721 152.029 296.534 152.343 297.705C152.484 298.247 152.554 298.794 152.554 299.347C152.565 299.889 152.5 300.426 152.359 300.957C152.229 301.477 151.996 301.954 151.66 302.388C151.335 302.821 150.918 303.163 150.408 303.412C149.855 303.661 149.221 303.786 148.506 303.786C147.79 303.786 147.156 303.661 146.603 303.412C145.66 302.957 145.01 302.138 144.652 300.957ZM146.164 297.688C146.023 298.122 145.953 298.664 145.953 299.315C145.953 299.954 146.023 300.502 146.164 300.957C146.305 301.412 146.468 301.754 146.652 301.981C147.042 302.415 147.487 302.67 147.985 302.745C148.332 302.8 148.679 302.8 149.026 302.745C149.178 302.735 149.389 302.659 149.66 302.518C149.953 302.366 150.191 302.176 150.376 301.949C150.56 301.721 150.717 301.39 150.847 300.957C150.988 300.502 151.058 299.954 151.058 299.315C151.058 298.664 150.988 298.122 150.847 297.688C150.695 297.211 150.527 296.87 150.343 296.664C150.17 296.458 149.953 296.285 149.693 296.144C149.432 296.003 149.21 295.916 149.026 295.884C148.679 295.829 148.332 295.829 147.985 295.884C147.833 295.894 147.617 295.976 147.335 296.127C146.782 296.398 146.392 296.919 146.164 297.688ZM154.44 306.469V295.201H155.773V296.339H155.822C156.472 295.363 157.383 294.875 158.554 294.875C159.627 294.875 160.516 295.249 161.22 295.997C161.925 296.756 162.277 297.867 162.277 299.331C162.277 300.827 161.919 301.943 161.204 302.68C160.499 303.418 159.627 303.786 158.586 303.786C158.261 303.786 157.865 303.716 157.399 303.575C156.716 303.369 156.207 302.935 155.871 302.274V306.469H154.44ZM155.773 299.363C155.773 300.512 156.033 301.374 156.553 301.949C157.095 302.502 157.686 302.778 158.326 302.778C158.998 302.778 159.573 302.507 160.049 301.965C160.526 301.401 160.765 300.523 160.765 299.331C160.765 298.247 160.543 297.401 160.098 296.794C159.665 296.187 159.047 295.884 158.245 295.884C157.822 295.884 157.426 295.997 157.058 296.225C156.201 296.735 155.773 297.781 155.773 299.363ZM169.801 296.209H165.573V303.461H164.142V295.201H169.801V296.209ZM171.758 297.64H170.392C170.392 296.989 170.609 296.393 171.042 295.851C171.563 295.201 172.517 294.875 173.904 294.875C174.717 294.875 175.433 295.038 176.051 295.363C176.408 295.537 176.69 295.824 176.896 296.225C177.102 296.626 177.2 297.103 177.189 297.656L177.108 301.477C177.108 301.792 177.14 302.035 177.205 302.209C177.303 302.382 177.557 302.464 177.969 302.453V303.461C177.807 303.504 177.59 303.526 177.319 303.526C176.842 303.526 176.495 303.445 176.278 303.282C176.072 303.119 175.926 302.8 175.839 302.323C175.308 303.298 174.365 303.786 173.01 303.786C172.078 303.786 171.357 303.58 170.847 303.168C170.349 302.745 170.099 302.122 170.099 301.298C170.099 300.518 170.381 299.927 170.945 299.526C171.508 299.103 172.576 298.821 174.148 298.68C174.874 298.626 175.308 298.556 175.449 298.469C175.655 298.328 175.758 298.019 175.758 297.542C175.758 296.436 175.14 295.884 173.904 295.884C172.441 295.884 171.725 296.469 171.758 297.64ZM175.725 299.932L175.758 299.233C175.595 299.352 175.357 299.45 175.042 299.526C174.565 299.558 174.197 299.596 173.937 299.64C173.037 299.791 172.49 299.916 172.294 300.014C171.817 300.241 171.579 300.653 171.579 301.25C171.579 301.726 171.72 302.1 172.002 302.371C172.294 302.642 172.685 302.778 173.172 302.778C173.487 302.778 173.774 302.735 174.034 302.648C174.305 302.561 174.565 302.42 174.815 302.225C175.075 302.019 175.281 301.721 175.433 301.331C175.595 300.941 175.693 300.474 175.725 299.932ZM185.168 299.607H181.087V303.461H179.656V295.201H181.087V298.599H185.168V295.201H186.599V303.461H185.168V299.607ZM190.376 295.201V301.786L194.686 295.201H196.279V303.461H194.848V296.859L190.555 303.461H188.946V295.201H190.376ZM197.966 300.924H199.332C199.332 301.466 199.527 301.911 199.917 302.258C200.307 302.605 200.844 302.778 201.527 302.778C202.199 302.778 202.725 302.642 203.104 302.371C203.483 302.09 203.673 301.683 203.673 301.152C203.673 300.165 203.05 299.672 201.803 299.672H200.584V298.664H201.641C202.79 298.664 203.364 298.236 203.364 297.38C203.364 297.239 203.342 297.098 203.299 296.957C203.267 296.816 203.191 296.659 203.071 296.485C202.963 296.301 202.773 296.155 202.502 296.046C202.231 295.938 201.895 295.884 201.494 295.884C200.779 295.884 200.275 296.052 199.982 296.388C199.689 296.724 199.543 297.087 199.543 297.477H198.177C198.21 296.913 198.356 296.442 198.616 296.062C198.876 295.683 199.212 295.412 199.624 295.249C200.296 295 200.947 294.875 201.576 294.875C202.128 294.875 202.616 294.94 203.039 295.071C203.462 295.19 203.782 295.336 203.998 295.51C204.226 295.683 204.405 295.889 204.535 296.127C204.676 296.366 204.763 296.577 204.795 296.762C204.828 296.935 204.844 297.109 204.844 297.282C204.844 298.247 204.367 298.848 203.413 299.087V299.136C203.922 299.212 204.34 299.434 204.665 299.802C204.99 300.171 205.153 300.653 205.153 301.25C205.153 301.857 204.936 302.409 204.502 302.908C203.971 303.493 203.017 303.786 201.641 303.786C200.481 303.786 199.597 303.542 198.99 303.054C198.307 302.458 197.966 301.748 197.966 300.924ZM206.756 300.957C206.474 299.797 206.485 298.675 206.789 297.591C207.092 296.507 207.732 295.732 208.707 295.266C209.249 295.005 209.884 294.875 210.61 294.875C211.336 294.875 211.97 295.005 212.512 295.266C213.488 295.721 214.133 296.534 214.447 297.705C214.588 298.247 214.659 298.794 214.659 299.347C214.67 299.889 214.605 300.426 214.464 300.957C214.334 301.477 214.1 301.954 213.764 302.388C213.439 302.821 213.022 303.163 212.512 303.412C211.959 303.661 211.325 303.786 210.61 303.786C209.894 303.786 209.26 303.661 208.707 303.412C207.764 302.957 207.114 302.138 206.756 300.957ZM208.268 297.688C208.127 298.122 208.057 298.664 208.057 299.315C208.057 299.954 208.127 300.502 208.268 300.957C208.409 301.412 208.572 301.754 208.756 301.981C209.146 302.415 209.591 302.67 210.09 302.745C210.436 302.8 210.783 302.8 211.13 302.745C211.282 302.735 211.493 302.659 211.764 302.518C212.057 302.366 212.296 302.176 212.48 301.949C212.664 301.721 212.821 301.39 212.951 300.957C213.092 300.502 213.163 299.954 213.163 299.315C213.163 298.664 213.092 298.122 212.951 297.688C212.8 297.211 212.632 296.87 212.447 296.664C212.274 296.458 212.057 296.285 211.797 296.144C211.537 296.003 211.314 295.916 211.13 295.884C210.783 295.829 210.436 295.829 210.09 295.884C209.938 295.894 209.721 295.976 209.439 296.127C208.886 296.398 208.496 296.919 208.268 297.688ZM216.544 303.461V295.201H220.479C222.224 295.201 223.097 295.856 223.097 297.168C223.097 298.111 222.598 298.756 221.601 299.103V299.152C222.273 299.315 222.739 299.575 222.999 299.932C223.27 300.29 223.406 300.751 223.406 301.315C223.406 302.214 223.075 302.811 222.414 303.103C221.872 303.342 221.211 303.461 220.43 303.461H216.544ZM220.024 296.209H217.975V298.648H219.959C220.533 298.648 220.956 298.534 221.227 298.306C221.509 298.068 221.65 297.759 221.65 297.38C221.65 296.599 221.108 296.209 220.024 296.209ZM220.024 299.656H217.975V302.453H220.072C221.308 302.453 221.926 302.03 221.926 301.184C221.926 300.165 221.292 299.656 220.024 299.656ZM225.309 303.461V295.201H226.74V298.469H228.822C229.483 298.469 230.036 298.534 230.48 298.664C231.543 298.935 232.095 299.71 232.139 300.989C232.139 301.748 231.906 302.35 231.44 302.794C230.984 303.239 230.274 303.461 229.309 303.461H225.309ZM228.48 299.477H226.74V302.453H228.74C230.019 302.453 230.659 301.932 230.659 300.892C230.659 300.382 230.491 300.014 230.155 299.786C230.047 299.699 229.868 299.629 229.618 299.575C229.358 299.51 228.979 299.477 228.48 299.477ZM233.147 303.461V295.201H234.578V303.461H233.147ZM236.917 303.461V295.201H240.852C242.598 295.201 243.47 295.856 243.47 297.168C243.47 298.111 242.972 298.756 241.974 299.103V299.152C242.646 299.315 243.112 299.575 243.373 299.932C243.644 300.29 243.779 300.751 243.779 301.315C243.779 302.214 243.449 302.811 242.787 303.103C242.245 303.342 241.584 303.461 240.803 303.461H236.917ZM240.397 296.209H238.348V298.648H240.332C240.906 298.648 241.329 298.534 241.6 298.306C241.882 298.068 242.023 297.759 242.023 297.38C242.023 296.599 241.481 296.209 240.397 296.209ZM240.397 299.656H238.348V302.453H240.446C241.682 302.453 242.299 302.03 242.299 301.184C242.299 300.165 241.665 299.656 240.397 299.656ZM246.772 297.64H245.406C245.406 296.989 245.623 296.393 246.057 295.851C246.577 295.201 247.531 294.875 248.918 294.875C249.732 294.875 250.447 295.038 251.065 295.363C251.423 295.537 251.704 295.824 251.91 296.225C252.116 296.626 252.214 297.103 252.203 297.656L252.122 301.477C252.122 301.792 252.154 302.035 252.219 302.209C252.317 302.382 252.572 302.464 252.984 302.453V303.461C252.821 303.504 252.604 303.526 252.333 303.526C251.856 303.526 251.509 303.445 251.293 303.282C251.087 303.119 250.94 302.8 250.853 302.323C250.322 303.298 249.379 303.786 248.024 303.786C247.092 303.786 246.371 303.58 245.862 303.168C245.363 302.745 245.114 302.122 245.114 301.298C245.114 300.518 245.395 299.927 245.959 299.526C246.523 299.103 247.591 298.821 249.162 298.68C249.889 298.626 250.322 298.556 250.463 298.469C250.669 298.328 250.772 298.019 250.772 297.542C250.772 296.436 250.154 295.884 248.918 295.884C247.455 295.884 246.74 296.469 246.772 297.64ZM250.74 299.932L250.772 299.233C250.61 299.352 250.371 299.45 250.057 299.526C249.58 299.558 249.211 299.596 248.951 299.64C248.051 299.791 247.504 299.916 247.309 300.014C246.832 300.241 246.593 300.653 246.593 301.25C246.593 301.726 246.734 302.1 247.016 302.371C247.309 302.642 247.699 302.778 248.187 302.778C248.501 302.778 248.788 302.735 249.049 302.648C249.32 302.561 249.58 302.42 249.829 302.225C250.089 302.019 250.295 301.721 250.447 301.331C250.61 300.941 250.707 300.474 250.74 299.932ZM260.622 301.071H261.988C261.858 301.797 261.505 302.431 260.931 302.973C260.356 303.515 259.505 303.786 258.378 303.786C256.849 303.786 255.727 303.282 255.012 302.274C254.654 301.743 254.421 301.174 254.313 300.567C254.237 300.144 254.199 299.743 254.199 299.363C254.199 298.637 254.307 297.954 254.524 297.314C254.665 296.859 254.871 296.464 255.142 296.127C255.435 295.77 255.852 295.472 256.394 295.233C256.936 294.995 257.548 294.875 258.231 294.875C259.446 294.875 260.362 295.211 260.979 295.884C261.24 296.165 261.451 296.523 261.614 296.957C261.852 297.585 261.998 298.35 262.053 299.249C262.053 299.282 262.053 299.352 262.053 299.461C262.063 299.569 262.069 299.634 262.069 299.656H255.711C255.711 300.48 255.928 301.206 256.361 301.835C256.795 302.464 257.451 302.778 258.329 302.778C258.958 302.778 259.473 302.621 259.874 302.306C260.275 301.992 260.524 301.58 260.622 301.071ZM255.711 298.648H260.557C260.546 298.008 260.394 297.417 260.101 296.875C259.765 296.214 259.153 295.884 258.264 295.884C257.256 295.884 256.562 296.22 256.183 296.892C255.868 297.434 255.711 298.019 255.711 298.648ZM269.277 303.461H268.172L265.375 296.827H265.342L265.375 297.266V303.461H263.944V295.201H265.911L268.725 301.916L271.538 295.201H273.505V303.461H272.074V297.266L272.123 296.827H272.074L269.277 303.461ZM285.259 296.209H281.08V303.461H279.649V295.201H286.689V303.461H285.259V296.209ZM294.985 301.071H296.351C296.221 301.797 295.868 302.431 295.294 302.973C294.719 303.515 293.868 303.786 292.741 303.786C291.212 303.786 290.09 303.282 289.375 302.274C289.017 301.743 288.784 301.174 288.676 300.567C288.6 300.144 288.562 299.743 288.562 299.363C288.562 298.637 288.67 297.954 288.887 297.314C289.028 296.859 289.234 296.464 289.505 296.127C289.798 295.77 290.215 295.472 290.757 295.233C291.299 294.995 291.912 294.875 292.594 294.875C293.809 294.875 294.725 295.211 295.342 295.884C295.603 296.165 295.814 296.523 295.977 296.957C296.215 297.585 296.361 298.35 296.416 299.249C296.416 299.282 296.416 299.352 296.416 299.461C296.427 299.569 296.432 299.634 296.432 299.656H290.074C290.074 300.48 290.291 301.206 290.724 301.835C291.158 302.464 291.814 302.778 292.692 302.778C293.321 302.778 293.836 302.621 294.237 302.306C294.638 301.992 294.887 301.58 294.985 301.071ZM290.074 298.648H294.92C294.909 298.008 294.757 297.417 294.464 296.875C294.128 296.214 293.516 295.884 292.627 295.884C291.619 295.884 290.925 296.22 290.546 296.892C290.231 297.434 290.074 298.019 290.074 298.648ZM298.307 306.469V295.201H299.64V296.339H299.689C300.34 295.363 301.25 294.875 302.421 294.875C303.494 294.875 304.383 295.249 305.088 295.997C305.792 296.756 306.145 297.867 306.145 299.331C306.145 300.827 305.787 301.943 305.071 302.68C304.367 303.418 303.494 303.786 302.453 303.786C302.128 303.786 301.733 303.716 301.266 303.575C300.583 303.369 300.074 302.935 299.738 302.274V306.469H298.307ZM299.64 299.363C299.64 300.512 299.9 301.374 300.421 301.949C300.963 302.502 301.554 302.778 302.193 302.778C302.865 302.778 303.44 302.507 303.917 301.965C304.394 301.401 304.632 300.523 304.632 299.331C304.632 298.247 304.41 297.401 303.966 296.794C303.532 296.187 302.914 295.884 302.112 295.884C301.689 295.884 301.293 295.997 300.925 296.225C300.069 296.735 299.64 297.781 299.64 299.363ZM308.009 303.461V295.201H311.944C313.69 295.201 314.562 295.856 314.562 297.168C314.562 298.111 314.064 298.756 313.066 299.103V299.152C313.738 299.315 314.205 299.575 314.465 299.932C314.736 300.29 314.871 300.751 314.871 301.315C314.871 302.214 314.541 302.811 313.879 303.103C313.337 303.342 312.676 303.461 311.896 303.461H308.009ZM311.489 296.209H309.44V298.648H311.424C311.999 298.648 312.421 298.534 312.692 298.306C312.974 298.068 313.115 297.759 313.115 297.38C313.115 296.599 312.573 296.209 311.489 296.209ZM311.489 299.656H309.44V302.453H311.538C312.774 302.453 313.391 302.03 313.391 301.184C313.391 300.165 312.757 299.656 311.489 299.656ZM316.775 303.461V295.201H318.206V298.469H320.287C320.948 298.469 321.501 298.534 321.946 298.664C323.008 298.935 323.561 299.71 323.604 300.989C323.604 301.748 323.371 302.35 322.905 302.794C322.45 303.239 321.74 303.461 320.775 303.461H316.775ZM319.945 299.477H318.206V302.453H320.206C321.485 302.453 322.124 301.932 322.124 300.892C322.124 300.382 321.956 300.014 321.62 299.786C321.512 299.699 321.333 299.629 321.084 299.575C320.824 299.51 320.444 299.477 319.945 299.477ZM324.612 303.461V295.201H326.043V303.461H324.612ZM329.813 295.201V301.786L334.123 295.201H335.716V303.461H334.285V296.859L329.992 303.461H328.383V295.201H329.813ZM333.586 292.079H334.805C334.578 293.271 333.862 293.97 332.659 294.176C332.453 294.209 332.236 294.225 332.009 294.225C330.61 294.225 329.716 293.656 329.326 292.518C329.293 292.442 329.255 292.295 329.212 292.079H330.431C330.399 292.36 330.496 292.626 330.724 292.875C330.887 293.049 331.076 293.179 331.293 293.266C331.488 293.331 331.727 293.363 332.009 293.363C332.475 293.363 332.86 293.249 333.163 293.022C333.467 292.783 333.608 292.469 333.586 292.079ZM115.043 321.461V313.201H118.978C120.723 313.201 121.596 313.856 121.596 315.168C121.596 316.111 121.097 316.756 120.1 317.103V317.152C120.772 317.315 121.238 317.575 121.498 317.932C121.769 318.29 121.905 318.751 121.905 319.315C121.905 320.214 121.574 320.811 120.913 321.103C120.371 321.342 119.71 321.461 118.929 321.461H115.043ZM118.523 314.209H116.474V316.648H118.458C119.032 316.648 119.455 316.534 119.726 316.306C120.008 316.068 120.149 315.759 120.149 315.38C120.149 314.599 119.607 314.209 118.523 314.209ZM118.523 317.656H116.474V320.453H118.571C119.807 320.453 120.425 320.03 120.425 319.184C120.425 318.165 119.791 317.656 118.523 317.656ZM133.896 318.518H129.083L128.01 321.461H126.368L130.677 310.079H132.303L136.612 321.461H134.969L133.896 318.518ZM131.49 311.623L129.506 317.233H133.473L131.49 311.623ZM143.589 309.542H144.808C144.765 310.333 144.396 310.859 143.702 311.119C143.323 311.249 142.998 311.336 142.727 311.379C141.513 311.531 140.808 311.634 140.613 311.688C139.876 311.894 139.312 312.268 138.922 312.81C138.532 313.342 138.326 314.106 138.304 315.103H138.337C138.857 313.705 139.925 313.005 141.54 313.005C142.852 313.005 143.833 313.439 144.483 314.306C145.144 315.163 145.475 316.214 145.475 317.461C145.475 318.653 145.133 319.672 144.45 320.518C143.768 321.363 142.754 321.786 141.41 321.786C139.925 321.786 138.824 321.222 138.109 320.095C137.751 319.477 137.507 318.783 137.377 318.014C137.29 317.407 137.247 316.805 137.247 316.209C137.247 314.117 137.567 312.653 138.206 311.818C138.77 311.092 139.534 310.626 140.499 310.42C141.41 310.214 142.179 310.095 142.808 310.062C143.231 310.008 143.491 309.835 143.589 309.542ZM138.759 317.558C138.759 318.274 138.922 318.962 139.247 319.624C139.627 320.393 140.337 320.778 141.377 320.778C142.201 320.778 142.835 320.502 143.28 319.949C143.735 319.385 143.963 318.61 143.963 317.623C143.963 316.81 143.822 316.057 143.54 315.363C143.182 314.464 142.461 314.014 141.377 314.014C140.293 314.014 139.561 314.453 139.182 315.331C138.9 316.003 138.759 316.745 138.759 317.558ZM147.69 313.201L149.804 316.258L151.918 313.201H153.511L150.617 317.152L153.739 321.461H152.146L149.804 318.062L147.463 321.461H145.869L148.991 317.152L146.097 313.201H147.69ZM156.005 315.64H154.64C154.64 314.989 154.856 314.393 155.29 313.851C155.81 313.201 156.764 312.875 158.152 312.875C158.965 312.875 159.68 313.038 160.298 313.363C160.656 313.537 160.938 313.824 161.144 314.225C161.35 314.626 161.447 315.103 161.436 315.656L161.355 319.477C161.355 319.792 161.388 320.035 161.453 320.209C161.55 320.382 161.805 320.464 162.217 320.453V321.461C162.054 321.504 161.838 321.526 161.567 321.526C161.09 321.526 160.743 321.445 160.526 321.282C160.32 321.119 160.174 320.8 160.087 320.323C159.556 321.298 158.613 321.786 157.258 321.786C156.325 321.786 155.604 321.58 155.095 321.168C154.596 320.745 154.347 320.122 154.347 319.298C154.347 318.518 154.629 317.927 155.192 317.526C155.756 317.103 156.824 316.821 158.396 316.68C159.122 316.626 159.556 316.556 159.697 316.469C159.903 316.328 160.006 316.019 160.006 315.542C160.006 314.436 159.388 313.884 158.152 313.884C156.688 313.884 155.973 314.469 156.005 315.64ZM159.973 317.932L160.006 317.233C159.843 317.352 159.604 317.45 159.29 317.526C158.813 317.558 158.445 317.596 158.184 317.64C157.285 317.791 156.737 317.916 156.542 318.014C156.065 318.241 155.827 318.653 155.827 319.25C155.827 319.726 155.968 320.1 156.249 320.371C156.542 320.642 156.932 320.778 157.42 320.778C157.734 320.778 158.022 320.735 158.282 320.648C158.553 320.561 158.813 320.42 159.062 320.225C159.323 320.019 159.529 319.721 159.68 319.331C159.843 318.941 159.94 318.474 159.973 317.932ZM163.253 318.924H164.619C164.619 319.466 164.814 319.911 165.205 320.258C165.595 320.605 166.131 320.778 166.814 320.778C167.486 320.778 168.012 320.642 168.392 320.371C168.771 320.09 168.961 319.683 168.961 319.152C168.961 318.165 168.337 317.672 167.091 317.672H165.871V316.664H166.928C168.077 316.664 168.652 316.236 168.652 315.38C168.652 315.239 168.63 315.098 168.587 314.957C168.554 314.816 168.478 314.659 168.359 314.485C168.251 314.301 168.061 314.155 167.79 314.046C167.519 313.938 167.183 313.884 166.782 313.884C166.066 313.884 165.562 314.052 165.27 314.388C164.977 314.724 164.831 315.087 164.831 315.477H163.465C163.497 314.913 163.644 314.442 163.904 314.062C164.164 313.683 164.5 313.412 164.912 313.249C165.584 313 166.234 312.875 166.863 312.875C167.416 312.875 167.904 312.94 168.327 313.071C168.749 313.19 169.069 313.336 169.286 313.51C169.514 313.683 169.692 313.889 169.823 314.127C169.963 314.366 170.05 314.577 170.083 314.762C170.115 314.935 170.132 315.109 170.132 315.282C170.132 316.247 169.655 316.848 168.701 317.087V317.136C169.21 317.212 169.627 317.434 169.953 317.802C170.278 318.171 170.44 318.653 170.44 319.25C170.44 319.857 170.224 320.409 169.79 320.908C169.259 321.493 168.305 321.786 166.928 321.786C165.768 321.786 164.885 321.542 164.278 321.054C163.595 320.458 163.253 319.748 163.253 318.924ZM173.735 313.201V319.786L178.044 313.201H179.637V321.461H178.206V314.859L173.914 321.461H172.304V313.201H173.735ZM183.405 313.201V319.786L187.714 313.201H189.308V321.461H187.877V314.859L183.584 321.461H181.974V313.201H183.405ZM194.4 323.607L194.269 320.453H195.31C196.21 319.13 196.66 317.174 196.66 314.583V313.201H202.579V320.453H204.01L203.896 323.607H202.692V321.461H195.603V323.607H194.4ZM201.148 320.453V314.209H197.993V315.363C197.993 316.241 197.896 317.152 197.7 318.095C197.527 319.027 197.234 319.813 196.822 320.453H201.148ZM206.669 313.201V319.786L210.978 313.201H212.571V321.461H211.14V314.859L206.848 321.461H205.238V313.201H206.669ZM214.258 318.924H215.624C215.624 319.466 215.819 319.911 216.209 320.258C216.599 320.605 217.136 320.778 217.819 320.778C218.491 320.778 219.017 320.642 219.396 320.371C219.776 320.09 219.965 319.683 219.965 319.152C219.965 318.165 219.342 317.672 218.095 317.672H216.876V316.664H217.933C219.082 316.664 219.656 316.236 219.656 315.38C219.656 315.239 219.635 315.098 219.591 314.957C219.559 314.816 219.483 314.659 219.364 314.485C219.255 314.301 219.066 314.155 218.795 314.046C218.524 313.938 218.188 313.884 217.786 313.884C217.071 313.884 216.567 314.052 216.274 314.388C215.982 314.724 215.835 315.087 215.835 315.477H214.469C214.502 314.913 214.648 314.442 214.908 314.062C215.169 313.683 215.505 313.412 215.917 313.249C216.589 313 217.239 312.875 217.868 312.875C218.421 312.875 218.908 312.94 219.331 313.071C219.754 313.19 220.074 313.336 220.291 313.51C220.518 313.683 220.697 313.889 220.827 314.127C220.968 314.366 221.055 314.577 221.087 314.762C221.12 314.935 221.136 315.109 221.136 315.282C221.136 316.247 220.659 316.848 219.705 317.087V317.136C220.215 317.212 220.632 317.434 220.957 317.802C221.282 318.171 221.445 318.653 221.445 319.25C221.445 319.857 221.228 320.409 220.795 320.908C220.263 321.493 219.31 321.786 217.933 321.786C216.773 321.786 215.889 321.542 215.282 321.054C214.599 320.458 214.258 319.748 214.258 318.924ZM224.398 315.64H223.032C223.032 314.989 223.249 314.393 223.683 313.851C224.203 313.201 225.157 312.875 226.544 312.875C227.357 312.875 228.073 313.038 228.691 313.363C229.049 313.537 229.33 313.824 229.536 314.225C229.742 314.626 229.84 315.103 229.829 315.656L229.748 319.477C229.748 319.792 229.78 320.035 229.845 320.209C229.943 320.382 230.198 320.464 230.61 320.453V321.461C230.447 321.504 230.23 321.526 229.959 321.526C229.482 321.526 229.135 321.445 228.918 321.282C228.712 321.119 228.566 320.8 228.479 320.323C227.948 321.298 227.005 321.786 225.65 321.786C224.718 321.786 223.997 321.58 223.487 321.168C222.989 320.745 222.739 320.122 222.739 319.298C222.739 318.518 223.021 317.927 223.585 317.526C224.149 317.103 225.216 316.821 226.788 316.68C227.515 316.626 227.948 316.556 228.089 316.469C228.295 316.328 228.398 316.019 228.398 315.542C228.398 314.436 227.78 313.884 226.544 313.884C225.081 313.884 224.365 314.469 224.398 315.64ZM228.366 317.932L228.398 317.233C228.235 317.352 227.997 317.45 227.683 317.526C227.206 317.558 226.837 317.596 226.577 317.64C225.677 317.791 225.13 317.916 224.935 318.014C224.458 318.241 224.219 318.653 224.219 319.25C224.219 319.726 224.36 320.1 224.642 320.371C224.935 320.642 225.325 320.778 225.813 320.778C226.127 320.778 226.414 320.735 226.674 320.648C226.945 320.561 227.206 320.42 227.455 320.225C227.715 320.019 227.921 319.721 228.073 319.331C228.235 318.941 228.333 318.474 228.366 317.932ZM233.727 313.201V319.786L238.036 313.201H239.63V321.461H238.199V314.859L233.906 321.461H232.296V313.201H233.727ZM237.5 310.079H238.719C238.492 311.271 237.776 311.97 236.573 312.176C236.367 312.209 236.15 312.225 235.922 312.225C234.524 312.225 233.63 311.656 233.239 310.518C233.207 310.442 233.169 310.295 233.126 310.079H234.345C234.313 310.36 234.41 310.626 234.638 310.875C234.8 311.049 234.99 311.179 235.207 311.266C235.402 311.331 235.641 311.363 235.922 311.363C236.389 311.363 236.773 311.249 237.077 311.022C237.38 310.783 237.521 310.469 237.5 310.079ZM247.479 317.607H243.398V321.461H241.967V313.201H243.398V316.599H247.479V313.201H248.91V321.461H247.479V317.607ZM257.208 319.071H258.574C258.443 319.797 258.091 320.431 257.517 320.973C256.942 321.515 256.091 321.786 254.964 321.786C253.435 321.786 252.313 321.282 251.598 320.274C251.24 319.743 251.007 319.174 250.899 318.567C250.823 318.144 250.785 317.743 250.785 317.363C250.785 316.637 250.893 315.954 251.11 315.314C251.251 314.859 251.457 314.464 251.728 314.127C252.021 313.77 252.438 313.472 252.98 313.233C253.522 312.995 254.134 312.875 254.817 312.875C256.031 312.875 256.947 313.211 257.565 313.884C257.826 314.165 258.037 314.523 258.2 314.957C258.438 315.585 258.584 316.35 258.639 317.249C258.639 317.282 258.639 317.352 258.639 317.461C258.649 317.569 258.655 317.634 258.655 317.656H252.297C252.297 318.48 252.514 319.206 252.947 319.835C253.381 320.464 254.037 320.778 254.915 320.778C255.544 320.778 256.059 320.621 256.46 320.306C256.861 319.992 257.11 319.58 257.208 319.071ZM252.297 316.648H257.143C257.132 316.008 256.98 315.417 256.687 314.875C256.351 314.214 255.739 313.884 254.85 313.884C253.842 313.884 253.148 314.22 252.769 314.892C252.454 315.434 252.297 316.019 252.297 316.648ZM260.53 324.469V313.201H261.863V314.339H261.912C262.562 313.363 263.473 312.875 264.644 312.875C265.717 312.875 266.606 313.249 267.311 313.997C268.015 314.756 268.367 315.867 268.367 317.331C268.367 318.827 268.01 319.943 267.294 320.68C266.59 321.418 265.717 321.786 264.676 321.786C264.351 321.786 263.955 321.716 263.489 321.575C262.806 321.369 262.297 320.935 261.961 320.274V324.469H260.53ZM261.863 317.363C261.863 318.512 262.123 319.374 262.644 319.949C263.186 320.502 263.777 320.778 264.416 320.778C265.088 320.778 265.663 320.507 266.14 319.965C266.617 319.401 266.855 318.523 266.855 317.331C266.855 316.247 266.633 315.401 266.189 314.794C265.755 314.187 265.137 313.884 264.335 313.884C263.912 313.884 263.516 313.997 263.148 314.225C262.291 314.735 261.863 315.781 261.863 317.363ZM276.021 318.518H277.387C277.343 319.147 277.105 319.808 276.671 320.502C276.433 320.892 276.059 321.206 275.549 321.445C275.051 321.672 274.465 321.786 273.793 321.786C273.566 321.786 273.403 321.781 273.305 321.77C272.828 321.748 272.341 321.624 271.842 321.396C270.454 320.702 269.761 319.325 269.761 317.266C269.761 316.182 270.01 315.217 270.509 314.371C271.127 313.374 272.189 312.875 273.696 312.875C274.758 312.875 275.604 313.146 276.232 313.688C276.861 314.22 277.224 314.919 277.322 315.786H275.956C275.739 314.518 274.997 313.884 273.728 313.884C272.904 313.884 272.286 314.187 271.874 314.794C271.473 315.39 271.273 316.214 271.273 317.266C271.273 318.285 271.484 319.125 271.907 319.786C272.33 320.447 272.969 320.778 273.826 320.778C274.563 320.778 275.099 320.545 275.436 320.079C275.793 319.613 275.988 319.092 276.021 318.518ZM280.571 313.201V316.81L284.1 313.201H285.775L281.905 317.038L285.986 321.461H284.279L280.571 317.331V321.461H279.141V313.201H280.571ZM288.527 313.201V319.786L292.836 313.201H294.43V321.461H292.999V314.859L288.706 321.461H287.096V313.201H288.527ZM298.198 313.201V319.786L302.507 313.201H304.1V321.461H302.669V314.859L298.376 321.461H296.767V313.201H298.198ZM301.97 310.079H303.19C302.962 311.271 302.246 311.97 301.043 312.176C300.837 312.209 300.62 312.225 300.393 312.225C298.994 312.225 298.1 311.656 297.71 310.518C297.677 310.442 297.639 310.295 297.596 310.079H298.815C298.783 310.36 298.881 310.626 299.108 310.875C299.271 311.049 299.46 311.179 299.677 311.266C299.872 311.331 300.111 311.363 300.393 311.363C300.859 311.363 301.244 311.249 301.547 311.022C301.851 310.783 301.992 310.469 301.97 310.079ZM115.043 339.461V331.201H118.978C120.723 331.201 121.596 331.856 121.596 333.168C121.596 334.111 121.097 334.756 120.1 335.103V335.152C120.772 335.315 121.238 335.575 121.498 335.932C121.769 336.29 121.905 336.751 121.905 337.315C121.905 338.214 121.574 338.811 120.913 339.103C120.371 339.342 119.71 339.461 118.929 339.461H115.043ZM118.523 332.209H116.474V334.648H118.458C119.032 334.648 119.455 334.534 119.726 334.306C120.008 334.068 120.149 333.759 120.149 333.38C120.149 332.599 119.607 332.209 118.523 332.209ZM118.523 335.656H116.474V338.453H118.571C119.807 338.453 120.425 338.03 120.425 337.184C120.425 336.165 119.791 335.656 118.523 335.656ZM123.548 336.957C123.266 335.797 123.277 334.675 123.581 333.591C123.884 332.507 124.524 331.732 125.499 331.266C126.041 331.005 126.676 330.875 127.402 330.875C128.128 330.875 128.762 331.005 129.304 331.266C130.28 331.721 130.925 332.534 131.239 333.705C131.38 334.247 131.451 334.794 131.451 335.347C131.462 335.889 131.396 336.426 131.256 336.957C131.125 337.477 130.892 337.954 130.556 338.388C130.231 338.821 129.814 339.163 129.304 339.412C128.751 339.661 128.117 339.786 127.402 339.786C126.686 339.786 126.052 339.661 125.499 339.412C124.556 338.957 123.906 338.138 123.548 336.957ZM125.06 333.688C124.919 334.122 124.849 334.664 124.849 335.315C124.849 335.954 124.919 336.502 125.06 336.957C125.201 337.412 125.364 337.754 125.548 337.981C125.938 338.415 126.383 338.67 126.881 338.745C127.228 338.8 127.575 338.8 127.922 338.745C128.074 338.735 128.285 338.659 128.556 338.518C128.849 338.366 129.087 338.176 129.272 337.949C129.456 337.721 129.613 337.39 129.743 336.957C129.884 336.502 129.955 335.954 129.955 335.315C129.955 334.664 129.884 334.122 129.743 333.688C129.592 333.211 129.424 332.87 129.239 332.664C129.066 332.458 128.849 332.285 128.589 332.144C128.329 332.003 128.106 331.916 127.922 331.884C127.575 331.829 127.228 331.829 126.881 331.884C126.73 331.894 126.513 331.976 126.231 332.127C125.678 332.398 125.288 332.919 125.06 333.688ZM133.336 342.469V331.201H134.669V332.339H134.718C135.368 331.363 136.279 330.875 137.45 330.875C138.523 330.875 139.412 331.249 140.117 331.997C140.821 332.756 141.173 333.867 141.173 335.331C141.173 336.827 140.816 337.943 140.1 338.68C139.396 339.418 138.523 339.786 137.482 339.786C137.157 339.786 136.761 339.716 136.295 339.575C135.612 339.369 135.103 338.935 134.767 338.274V342.469H133.336ZM134.669 335.363C134.669 336.512 134.929 337.374 135.45 337.949C135.992 338.502 136.583 338.778 137.222 338.778C137.894 338.778 138.469 338.507 138.946 337.965C139.423 337.401 139.661 336.523 139.661 335.331C139.661 334.247 139.439 333.401 138.995 332.794C138.561 332.187 137.943 331.884 137.141 331.884C136.718 331.884 136.322 331.997 135.954 332.225C135.097 332.735 134.669 333.781 134.669 335.363ZM144.469 331.201V334.81L147.998 331.201H149.672L145.802 335.038L149.884 339.461H148.177L144.469 335.331V339.461H143.038V331.201H144.469ZM152.425 331.201V338.453H155.872V331.201H157.303V338.453H160.75V331.201H162.181V339.461H150.994V331.201H152.425ZM164.263 336.957C163.981 335.797 163.992 334.675 164.295 333.591C164.599 332.507 165.238 331.732 166.214 331.266C166.756 331.005 167.39 330.875 168.117 330.875C168.843 330.875 169.477 331.005 170.019 331.266C170.995 331.721 171.64 332.534 171.954 333.705C172.095 334.247 172.165 334.794 172.165 335.347C172.176 335.889 172.111 336.426 171.97 336.957C171.84 337.477 171.607 337.954 171.271 338.388C170.946 338.821 170.529 339.163 170.019 339.412C169.466 339.661 168.832 339.786 168.117 339.786C167.401 339.786 166.767 339.661 166.214 339.412C165.271 338.957 164.621 338.138 164.263 336.957ZM165.775 333.688C165.634 334.122 165.564 334.664 165.564 335.315C165.564 335.954 165.634 336.502 165.775 336.957C165.916 337.412 166.079 337.754 166.263 337.981C166.653 338.415 167.098 338.67 167.596 338.745C167.943 338.8 168.29 338.8 168.637 338.745C168.789 338.735 169 338.659 169.271 338.518C169.564 338.366 169.802 338.176 169.987 337.949C170.171 337.721 170.328 337.39 170.458 336.957C170.599 336.502 170.67 335.954 170.67 335.315C170.67 334.664 170.599 334.122 170.458 333.688C170.306 333.211 170.138 332.87 169.954 332.664C169.781 332.458 169.564 332.285 169.304 332.144C169.043 332.003 168.821 331.916 168.637 331.884C168.29 331.829 167.943 331.829 167.596 331.884C167.445 331.894 167.228 331.976 166.946 332.127C166.393 332.398 166.003 332.919 165.775 333.688ZM179.661 332.209H175.482V339.461H174.051V331.201H181.091V339.461H179.661V332.209ZM183.988 339.461V337.689H185.598V339.965C185.598 340.507 185.446 340.935 185.143 341.25C184.839 341.564 184.454 341.77 183.988 341.867V340.973C184.216 340.951 184.406 340.838 184.557 340.632C184.72 340.437 184.801 340.214 184.801 339.965V339.461H183.988ZM197.89 332.209H193.711V339.461H192.28V331.201H199.321V339.461H197.89V332.209ZM201.405 336.957C201.123 335.797 201.134 334.675 201.437 333.591C201.741 332.507 202.38 331.732 203.356 331.266C203.898 331.005 204.532 330.875 205.259 330.875C205.985 330.875 206.619 331.005 207.161 331.266C208.137 331.721 208.782 332.534 209.096 333.705C209.237 334.247 209.307 334.794 209.307 335.347C209.318 335.889 209.253 336.426 209.112 336.957C208.982 337.477 208.749 337.954 208.413 338.388C208.088 338.821 207.67 339.163 207.161 339.412C206.608 339.661 205.974 339.786 205.259 339.786C204.543 339.786 203.909 339.661 203.356 339.412C202.413 338.957 201.763 338.138 201.405 336.957ZM202.917 333.688C202.776 334.122 202.706 334.664 202.706 335.315C202.706 335.954 202.776 336.502 202.917 336.957C203.058 337.412 203.221 337.754 203.405 337.981C203.795 338.415 204.24 338.67 204.738 338.745C205.085 338.8 205.432 338.8 205.779 338.745C205.931 338.735 206.142 338.659 206.413 338.518C206.706 338.366 206.944 338.176 207.128 337.949C207.313 337.721 207.47 337.39 207.6 336.957C207.741 336.502 207.811 335.954 207.811 335.315C207.811 334.664 207.741 334.122 207.6 333.688C207.448 333.211 207.28 332.87 207.096 332.664C206.923 332.458 206.706 332.285 206.446 332.144C206.185 332.003 205.963 331.916 205.779 331.884C205.432 331.829 205.085 331.829 204.738 331.884C204.586 331.894 204.37 331.976 204.088 332.127C203.535 332.398 203.145 332.919 202.917 333.688ZM216.981 336.518H218.347C218.304 337.147 218.065 337.808 217.632 338.502C217.393 338.892 217.019 339.206 216.51 339.445C216.011 339.672 215.426 339.786 214.754 339.786C214.526 339.786 214.363 339.781 214.266 339.77C213.789 339.748 213.301 339.624 212.802 339.396C211.415 338.702 210.721 337.325 210.721 335.266C210.721 334.182 210.97 333.217 211.469 332.371C212.087 331.374 213.149 330.875 214.656 330.875C215.718 330.875 216.564 331.146 217.193 331.688C217.821 332.22 218.185 332.919 218.282 333.786H216.916C216.699 332.518 215.957 331.884 214.689 331.884C213.865 331.884 213.247 332.187 212.835 332.794C212.434 333.39 212.233 334.214 212.233 335.266C212.233 336.285 212.445 337.125 212.867 337.786C213.29 338.447 213.93 338.778 214.786 338.778C215.523 338.778 216.06 338.545 216.396 338.079C216.754 337.613 216.949 337.092 216.981 336.518ZM220.101 339.461V331.201H224.036C225.781 331.201 226.654 331.856 226.654 333.168C226.654 334.111 226.155 334.756 225.158 335.103V335.152C225.83 335.315 226.296 335.575 226.556 335.932C226.827 336.29 226.963 336.751 226.963 337.315C226.963 338.214 226.632 338.811 225.971 339.103C225.429 339.342 224.768 339.461 223.987 339.461H220.101ZM223.581 332.209H221.532V334.648H223.516C224.09 334.648 224.513 334.534 224.784 334.306C225.066 334.068 225.207 333.759 225.207 333.38C225.207 332.599 224.665 332.209 223.581 332.209ZM223.581 335.656H221.532V338.453H223.629C224.865 338.453 225.483 338.03 225.483 337.184C225.483 336.165 224.849 335.656 223.581 335.656ZM233.923 336.209H232.037L229.875 339.461H228.297L230.574 336.193C229.945 336.128 229.435 335.884 229.045 335.461C228.655 335.038 228.46 334.485 228.46 333.802C228.46 333.163 228.628 332.604 228.964 332.127C229.365 331.51 230.124 331.201 231.24 331.201H235.354V339.461H233.923V336.209ZM233.923 335.201V332.209H231.858C230.579 332.209 229.94 332.724 229.94 333.754C229.94 334.176 230.097 334.523 230.411 334.794C230.725 335.065 231.224 335.201 231.907 335.201H233.923ZM239.126 331.201V338.453H242.573V331.201H244.004V338.453H247.452V331.201H248.883V338.453H250.281L250.151 341.607H248.948V339.461H237.695V331.201H239.126ZM257.462 337.071H258.828C258.698 337.797 258.345 338.431 257.771 338.973C257.196 339.515 256.345 339.786 255.218 339.786C253.689 339.786 252.567 339.282 251.852 338.274C251.494 337.743 251.261 337.174 251.153 336.567C251.077 336.144 251.039 335.743 251.039 335.363C251.039 334.637 251.147 333.954 251.364 333.314C251.505 332.859 251.711 332.464 251.982 332.127C252.275 331.77 252.692 331.472 253.234 331.233C253.776 330.995 254.388 330.875 255.071 330.875C256.286 330.875 257.202 331.211 257.819 331.884C258.08 332.165 258.291 332.523 258.454 332.957C258.692 333.585 258.838 334.35 258.893 335.249C258.893 335.282 258.893 335.352 258.893 335.461C258.903 335.569 258.909 335.634 258.909 335.656H252.551C252.551 336.48 252.768 337.206 253.201 337.835C253.635 338.464 254.291 338.778 255.169 338.778C255.798 338.778 256.313 338.621 256.714 338.306C257.115 337.992 257.364 337.58 257.462 337.071ZM252.551 334.648H257.397C257.386 334.008 257.234 333.417 256.941 332.875C256.605 332.214 255.993 331.884 255.104 331.884C254.096 331.884 253.402 332.22 253.023 332.892C252.708 333.434 252.551 334.019 252.551 334.648ZM266.296 335.607H262.215V339.461H260.784V331.201H262.215V334.599H266.296V331.201H267.727V339.461H266.296V335.607ZM275.586 335.607H271.504V339.461H270.073V331.201H271.504V334.599H275.586V331.201H277.017V339.461H275.586V335.607ZM279.363 339.461V331.201H280.794V334.469H282.875C283.536 334.469 284.089 334.534 284.534 334.664C285.596 334.935 286.149 335.71 286.192 336.989C286.192 337.748 285.959 338.35 285.493 338.794C285.038 339.239 284.328 339.461 283.363 339.461H279.363ZM282.534 335.477H280.794V338.453H282.794C284.073 338.453 284.713 337.932 284.713 336.892C284.713 336.382 284.545 336.014 284.208 335.786C284.1 335.699 283.921 335.629 283.672 335.575C283.412 335.51 283.032 335.477 282.534 335.477ZM287.2 339.461V331.201H288.631V339.461H287.2ZM292.402 331.201V337.786L296.711 331.201H298.304V339.461H296.873V332.859L292.58 339.461H290.971V331.201H292.402ZM296.174 328.079H297.394C297.166 329.271 296.45 329.97 295.247 330.176C295.041 330.209 294.824 330.225 294.597 330.225C293.198 330.225 292.304 329.656 291.914 328.518C291.881 328.442 291.843 328.295 291.8 328.079H293.02C292.987 328.36 293.085 328.626 293.312 328.875C293.475 329.049 293.665 329.179 293.881 329.266C294.076 329.331 294.315 329.363 294.597 329.363C295.063 329.363 295.448 329.249 295.751 329.022C296.055 328.783 296.196 328.469 296.174 328.079ZM304.436 342.469V331.201H305.77V332.339H305.819C306.469 331.363 307.38 330.875 308.55 330.875C309.624 330.875 310.512 331.249 311.217 331.997C311.922 332.756 312.274 333.867 312.274 335.331C312.274 336.827 311.916 337.943 311.201 338.68C310.496 339.418 309.624 339.786 308.583 339.786C308.258 339.786 307.862 339.716 307.396 339.575C306.713 339.369 306.203 338.935 305.867 338.274V342.469H304.436ZM305.77 335.363C305.77 336.512 306.03 337.374 306.55 337.949C307.092 338.502 307.683 338.778 308.323 338.778C308.995 338.778 309.569 338.507 310.046 337.965C310.523 337.401 310.762 336.523 310.762 335.331C310.762 334.247 310.54 333.401 310.095 332.794C309.661 332.187 309.044 331.884 308.241 331.884C307.819 331.884 307.423 331.997 307.054 332.225C306.198 332.735 305.77 333.781 305.77 335.363ZM315.228 333.64H313.862C313.862 332.989 314.079 332.393 314.513 331.851C315.033 331.201 315.987 330.875 317.375 330.875C318.188 330.875 318.903 331.038 319.521 331.363C319.879 331.537 320.161 331.824 320.367 332.225C320.572 332.626 320.67 333.103 320.659 333.656L320.578 337.477C320.578 337.792 320.61 338.035 320.675 338.209C320.773 338.382 321.028 338.464 321.44 338.453V339.461C321.277 339.504 321.06 339.526 320.789 339.526C320.312 339.526 319.965 339.445 319.749 339.282C319.543 339.119 319.396 338.8 319.31 338.323C318.778 339.298 317.835 339.786 316.48 339.786C315.548 339.786 314.827 339.58 314.318 339.168C313.819 338.745 313.57 338.122 313.57 337.298C313.57 336.518 313.851 335.927 314.415 335.526C314.979 335.103 316.047 334.821 317.618 334.68C318.345 334.626 318.778 334.556 318.919 334.469C319.125 334.328 319.228 334.019 319.228 333.542C319.228 332.436 318.61 331.884 317.375 331.884C315.911 331.884 315.196 332.469 315.228 333.64ZM319.196 335.932L319.228 335.233C319.066 335.352 318.827 335.45 318.513 335.526C318.036 335.558 317.667 335.596 317.407 335.64C316.507 335.791 315.96 335.916 315.765 336.014C315.288 336.241 315.049 336.653 315.049 337.25C315.049 337.726 315.19 338.1 315.472 338.371C315.765 338.642 316.155 338.778 316.643 338.778C316.957 338.778 317.244 338.735 317.505 338.648C317.776 338.561 318.036 338.42 318.285 338.225C318.545 338.019 318.751 337.721 318.903 337.331C319.066 336.941 319.163 336.474 319.196 335.932ZM328.997 327.542H330.216C330.173 328.333 329.804 328.859 329.11 329.119C328.731 329.249 328.406 329.336 328.135 329.379C326.921 329.531 326.216 329.634 326.021 329.688C325.284 329.894 324.72 330.268 324.33 330.81C323.939 331.342 323.734 332.106 323.712 333.103H323.744C324.265 331.705 325.332 331.005 326.948 331.005C328.259 331.005 329.24 331.439 329.891 332.306C330.552 333.163 330.883 334.214 330.883 335.461C330.883 336.653 330.541 337.672 329.858 338.518C329.175 339.363 328.162 339.786 326.818 339.786C325.332 339.786 324.232 339.222 323.517 338.095C323.159 337.477 322.915 336.783 322.785 336.014C322.698 335.407 322.655 334.805 322.655 334.209C322.655 332.117 322.975 330.653 323.614 329.818C324.178 329.092 324.942 328.626 325.907 328.42C326.818 328.214 327.587 328.095 328.216 328.062C328.639 328.008 328.899 327.835 328.997 327.542ZM324.167 335.558C324.167 336.274 324.33 336.962 324.655 337.624C325.034 338.393 325.744 338.778 326.785 338.778C327.609 338.778 328.243 338.502 328.688 337.949C329.143 337.385 329.37 336.61 329.37 335.623C329.37 334.81 329.23 334.057 328.948 333.363C328.59 332.464 327.869 332.014 326.785 332.014C325.701 332.014 324.969 332.453 324.59 333.331C324.308 334.003 324.167 334.745 324.167 335.558ZM332.489 336.957C332.207 335.797 332.218 334.675 332.522 333.591C332.825 332.507 333.465 331.732 334.44 331.266C334.982 331.005 335.617 330.875 336.343 330.875C337.069 330.875 337.703 331.005 338.245 331.266C339.221 331.721 339.866 332.534 340.18 333.705C340.321 334.247 340.392 334.794 340.392 335.347C340.403 335.889 340.338 336.426 340.197 336.957C340.067 337.477 339.834 337.954 339.497 338.388C339.172 338.821 338.755 339.163 338.245 339.412C337.693 339.661 337.058 339.786 336.343 339.786C335.627 339.786 334.993 339.661 334.44 339.412C333.497 338.957 332.847 338.138 332.489 336.957ZM334.001 333.688C333.861 334.122 333.79 334.664 333.79 335.315C333.79 335.954 333.861 336.502 334.001 336.957C334.142 337.412 334.305 337.754 334.489 337.981C334.88 338.415 335.324 338.67 335.823 338.745C336.17 338.8 336.516 338.8 336.863 338.745C337.015 338.735 337.226 338.659 337.497 338.518C337.79 338.366 338.029 338.176 338.213 337.949C338.397 337.721 338.554 337.39 338.684 336.957C338.825 336.502 338.896 335.954 338.896 335.315C338.896 334.664 338.825 334.122 338.684 333.688C338.533 333.211 338.365 332.87 338.18 332.664C338.007 332.458 337.79 332.285 337.53 332.144C337.27 332.003 337.048 331.916 336.863 331.884C336.516 331.829 336.17 331.829 335.823 331.884C335.671 331.894 335.454 331.976 335.172 332.127C334.619 332.398 334.229 332.919 334.001 333.688ZM343.671 339.461V332.209H340.81V331.201H347.964V332.209H345.102V339.461H343.671ZM354.882 337.071H356.248C356.118 337.797 355.765 338.431 355.191 338.973C354.616 339.515 353.765 339.786 352.638 339.786C351.109 339.786 349.987 339.282 349.272 338.274C348.914 337.743 348.681 337.174 348.573 336.567C348.497 336.144 348.459 335.743 348.459 335.363C348.459 334.637 348.567 333.954 348.784 333.314C348.925 332.859 349.131 332.464 349.402 332.127C349.695 331.77 350.112 331.472 350.654 331.233C351.196 330.995 351.809 330.875 352.492 330.875C353.706 330.875 354.622 331.211 355.24 331.884C355.5 332.165 355.711 332.523 355.874 332.957C356.112 333.585 356.259 334.35 356.313 335.249C356.313 335.282 356.313 335.352 356.313 335.461C356.324 335.569 356.329 335.634 356.329 335.656H349.971C349.971 336.48 350.188 337.206 350.622 337.835C351.055 338.464 351.711 338.778 352.589 338.778C353.218 338.778 353.733 338.621 354.134 338.306C354.535 337.992 354.784 337.58 354.882 337.071ZM349.971 334.648H354.817C354.806 334.008 354.654 333.417 354.361 332.875C354.025 332.214 353.413 331.884 352.524 331.884C351.516 331.884 350.822 332.22 350.443 332.892C350.128 333.434 349.971 334.019 349.971 334.648ZM120.832 354.518H122.197C122.154 355.147 121.916 355.808 121.482 356.502C121.243 356.892 120.87 357.206 120.36 357.445C119.861 357.672 119.276 357.786 118.604 357.786C118.376 357.786 118.214 357.781 118.116 357.77C117.639 357.748 117.151 357.624 116.653 357.396C115.265 356.702 114.571 355.325 114.571 353.266C114.571 352.182 114.821 351.217 115.319 350.371C115.937 349.374 117 348.875 118.506 348.875C119.569 348.875 120.414 349.146 121.043 349.688C121.672 350.22 122.035 350.919 122.132 351.786H120.767C120.55 350.518 119.807 349.884 118.539 349.884C117.715 349.884 117.097 350.187 116.685 350.794C116.284 351.39 116.083 352.214 116.083 353.266C116.083 354.285 116.295 355.125 116.718 355.786C117.14 356.447 117.78 356.778 118.636 356.778C119.374 356.778 119.91 356.545 120.246 356.079C120.604 355.613 120.799 355.092 120.832 354.518ZM133.356 350.209H129.177V357.461H127.746V349.201H134.787V357.461H133.356V350.209ZM143.082 355.071H144.448C144.318 355.797 143.966 356.431 143.391 356.973C142.817 357.515 141.966 357.786 140.838 357.786C139.31 357.786 138.188 357.282 137.473 356.274C137.115 355.743 136.882 355.174 136.773 354.567C136.697 354.144 136.66 353.743 136.66 353.363C136.66 352.637 136.768 351.954 136.985 351.314C137.126 350.859 137.332 350.464 137.603 350.127C137.895 349.77 138.313 349.472 138.855 349.233C139.397 348.995 140.009 348.875 140.692 348.875C141.906 348.875 142.822 349.211 143.44 349.884C143.7 350.165 143.912 350.523 144.074 350.957C144.313 351.585 144.459 352.35 144.513 353.249C144.513 353.282 144.513 353.352 144.513 353.461C144.524 353.569 144.53 353.634 144.53 353.656H138.172C138.172 354.48 138.389 355.206 138.822 355.835C139.256 356.464 139.912 356.778 140.79 356.778C141.418 356.778 141.933 356.621 142.334 356.306C142.736 355.992 142.985 355.58 143.082 355.071ZM138.172 352.648H143.017C143.007 352.008 142.855 351.417 142.562 350.875C142.226 350.214 141.614 349.884 140.725 349.884C139.716 349.884 139.023 350.22 138.643 350.892C138.329 351.434 138.172 352.019 138.172 352.648ZM146.405 360.469V349.201H147.738V350.339H147.787C148.437 349.363 149.348 348.875 150.519 348.875C151.592 348.875 152.481 349.249 153.185 349.997C153.89 350.756 154.242 351.867 154.242 353.331C154.242 354.827 153.884 355.943 153.169 356.68C152.464 357.418 151.592 357.786 150.551 357.786C150.226 357.786 149.83 357.716 149.364 357.575C148.681 357.369 148.172 356.935 147.836 356.274V360.469H146.405ZM147.738 353.363C147.738 354.512 147.998 355.374 148.519 355.949C149.061 356.502 149.651 356.778 150.291 356.778C150.963 356.778 151.538 356.507 152.015 355.965C152.491 355.401 152.73 354.523 152.73 353.331C152.73 352.247 152.508 351.401 152.063 350.794C151.63 350.187 151.012 349.884 150.21 349.884C149.787 349.884 149.391 349.997 149.023 350.225C148.166 350.735 147.738 351.781 147.738 353.363ZM162.058 355.071H163.424C163.294 355.797 162.942 356.431 162.367 356.973C161.793 357.515 160.942 357.786 159.814 357.786C158.286 357.786 157.164 357.282 156.448 356.274C156.091 355.743 155.858 355.174 155.749 354.567C155.673 354.144 155.635 353.743 155.635 353.363C155.635 352.637 155.744 351.954 155.961 351.314C156.102 350.859 156.307 350.464 156.579 350.127C156.871 349.77 157.289 349.472 157.831 349.233C158.373 348.995 158.985 348.875 159.668 348.875C160.882 348.875 161.798 349.211 162.416 349.884C162.676 350.165 162.888 350.523 163.05 350.957C163.289 351.585 163.435 352.35 163.489 353.249C163.489 353.282 163.489 353.352 163.489 353.461C163.5 353.569 163.505 353.634 163.505 353.656H157.148C157.148 354.48 157.364 355.206 157.798 355.835C158.232 356.464 158.887 356.778 159.766 356.778C160.394 356.778 160.909 356.621 161.31 356.306C161.711 355.992 161.961 355.58 162.058 355.071ZM157.148 352.648H161.993C161.982 352.008 161.831 351.417 161.538 350.875C161.202 350.214 160.589 349.884 159.701 349.884C158.692 349.884 157.999 350.22 157.619 350.892C157.305 351.434 157.148 352.019 157.148 352.648ZM165.381 360.469V349.201H166.714V350.339H166.763C167.413 349.363 168.324 348.875 169.494 348.875C170.568 348.875 171.457 349.249 172.161 349.997C172.866 350.756 173.218 351.867 173.218 353.331C173.218 354.827 172.86 355.943 172.145 356.68C171.44 357.418 170.568 357.786 169.527 357.786C169.202 357.786 168.806 357.716 168.34 357.575C167.657 357.369 167.147 356.935 166.811 356.274V360.469H165.381ZM166.714 353.363C166.714 354.512 166.974 355.374 167.494 355.949C168.036 356.502 168.627 356.778 169.267 356.778C169.939 356.778 170.513 356.507 170.99 355.965C171.467 355.401 171.706 354.523 171.706 353.331C171.706 352.247 171.484 351.401 171.039 350.794C170.606 350.187 169.988 349.884 169.185 349.884C168.763 349.884 168.367 349.997 167.998 350.225C167.142 350.735 166.714 351.781 166.714 353.363ZM176.172 351.64H174.806C174.806 350.989 175.023 350.393 175.457 349.851C175.977 349.201 176.931 348.875 178.319 348.875C179.132 348.875 179.847 349.038 180.465 349.363C180.823 349.537 181.105 349.824 181.311 350.225C181.517 350.626 181.614 351.103 181.603 351.656L181.522 355.477C181.522 355.792 181.555 356.035 181.62 356.209C181.717 356.382 181.972 356.464 182.384 356.453V357.461C182.221 357.504 182.004 357.526 181.733 357.526C181.256 357.526 180.91 357.445 180.693 357.282C180.487 357.119 180.34 356.8 180.254 356.323C179.722 357.298 178.779 357.786 177.424 357.786C176.492 357.786 175.771 357.58 175.262 357.168C174.763 356.745 174.514 356.122 174.514 355.298C174.514 354.518 174.796 353.927 175.359 353.526C175.923 353.103 176.991 352.821 178.563 352.68C179.289 352.626 179.722 352.556 179.863 352.469C180.069 352.328 180.172 352.019 180.172 351.542C180.172 350.436 179.554 349.884 178.319 349.884C176.855 349.884 176.14 350.469 176.172 351.64ZM180.14 353.932L180.172 353.233C180.01 353.352 179.771 353.45 179.457 353.526C178.98 353.558 178.611 353.596 178.351 353.64C177.451 353.791 176.904 353.916 176.709 354.014C176.232 354.241 175.993 354.653 175.993 355.25C175.993 355.726 176.134 356.1 176.416 356.371C176.709 356.642 177.099 356.778 177.587 356.778C177.901 356.778 178.189 356.735 178.449 356.648C178.72 356.561 178.98 356.42 179.229 356.225C179.489 356.019 179.695 355.721 179.847 355.331C180.01 354.941 180.107 354.474 180.14 353.932ZM189.941 345.542H191.16C191.117 346.333 190.748 346.859 190.054 347.119C189.675 347.249 189.35 347.336 189.079 347.379C187.865 347.531 187.16 347.634 186.965 347.688C186.228 347.894 185.664 348.268 185.274 348.81C184.884 349.342 184.678 350.106 184.656 351.103H184.688C185.209 349.705 186.277 349.005 187.892 349.005C189.203 349.005 190.185 349.439 190.835 350.306C191.496 351.163 191.827 352.214 191.827 353.461C191.827 354.653 191.485 355.672 190.802 356.518C190.119 357.363 189.106 357.786 187.762 357.786C186.277 357.786 185.176 357.222 184.461 356.095C184.103 355.477 183.859 354.783 183.729 354.014C183.642 353.407 183.599 352.805 183.599 352.209C183.599 350.117 183.919 348.653 184.558 347.818C185.122 347.092 185.886 346.626 186.851 346.42C187.762 346.214 188.531 346.095 189.16 346.062C189.583 346.008 189.843 345.835 189.941 345.542ZM185.111 353.558C185.111 354.274 185.274 354.962 185.599 355.624C185.978 356.393 186.689 356.778 187.729 356.778C188.553 356.778 189.187 356.502 189.632 355.949C190.087 355.385 190.315 354.61 190.315 353.623C190.315 352.81 190.174 352.057 189.892 351.363C189.534 350.464 188.813 350.014 187.729 350.014C186.645 350.014 185.913 350.453 185.534 351.331C185.252 352.003 185.111 352.745 185.111 353.558ZM193.433 354.957C193.151 353.797 193.162 352.675 193.466 351.591C193.769 350.507 194.409 349.732 195.385 349.266C195.927 349.005 196.561 348.875 197.287 348.875C198.013 348.875 198.648 349.005 199.19 349.266C200.165 349.721 200.81 350.534 201.125 351.705C201.265 352.247 201.336 352.794 201.336 353.347C201.347 353.889 201.282 354.426 201.141 354.957C201.011 355.477 200.778 355.954 200.442 356.388C200.116 356.821 199.699 357.163 199.19 357.412C198.637 357.661 198.003 357.786 197.287 357.786C196.572 357.786 195.937 357.661 195.385 357.412C194.441 356.957 193.791 356.138 193.433 354.957ZM194.946 351.688C194.805 352.122 194.734 352.664 194.734 353.315C194.734 353.954 194.805 354.502 194.946 354.957C195.086 355.412 195.249 355.754 195.433 355.981C195.824 356.415 196.268 356.67 196.767 356.745C197.114 356.8 197.461 356.8 197.807 356.745C197.959 356.735 198.171 356.659 198.442 356.518C198.734 356.366 198.973 356.176 199.157 355.949C199.341 355.721 199.498 355.39 199.629 354.957C199.769 354.502 199.84 353.954 199.84 353.315C199.84 352.664 199.769 352.122 199.629 351.688C199.477 351.211 199.309 350.87 199.124 350.664C198.951 350.458 198.734 350.285 198.474 350.144C198.214 350.003 197.992 349.916 197.807 349.884C197.461 349.829 197.114 349.829 196.767 349.884C196.615 349.894 196.398 349.976 196.116 350.127C195.563 350.398 195.173 350.919 194.946 351.688ZM204.615 357.461V350.209H201.754V349.201H208.908V350.209H206.046V357.461H204.615ZM210.964 351.64H209.598C209.598 350.989 209.815 350.393 210.249 349.851C210.769 349.201 211.723 348.875 213.11 348.875C213.923 348.875 214.639 349.038 215.257 349.363C215.615 349.537 215.896 349.824 216.102 350.225C216.308 350.626 216.406 351.103 216.395 351.656L216.314 355.477C216.314 355.792 216.346 356.035 216.411 356.209C216.509 356.382 216.764 356.464 217.176 356.453V357.461C217.013 357.504 216.796 357.526 216.525 357.526C216.048 357.526 215.701 357.445 215.484 357.282C215.278 357.119 215.132 356.8 215.045 356.323C214.514 357.298 213.571 357.786 212.216 357.786C211.284 357.786 210.563 357.58 210.053 357.168C209.555 356.745 209.305 356.122 209.305 355.298C209.305 354.518 209.587 353.927 210.151 353.526C210.715 353.103 211.782 352.821 213.354 352.68C214.081 352.626 214.514 352.556 214.655 352.469C214.861 352.328 214.964 352.019 214.964 351.542C214.964 350.436 214.346 349.884 213.11 349.884C211.647 349.884 210.932 350.469 210.964 351.64ZM214.932 353.932L214.964 353.233C214.802 353.352 214.563 353.45 214.249 353.526C213.772 353.558 213.403 353.596 213.143 353.64C212.243 353.791 211.696 353.916 211.501 354.014C211.024 354.241 210.785 354.653 210.785 355.25C210.785 355.726 210.926 356.1 211.208 356.371C211.501 356.642 211.891 356.778 212.379 356.778C212.693 356.778 212.98 356.735 213.241 356.648C213.512 356.561 213.772 356.42 214.021 356.225C214.281 356.019 214.487 355.721 214.639 355.331C214.802 354.941 214.899 354.474 214.932 353.932ZM224.375 353.607H220.293V357.461H218.862V349.201H220.293V352.599H224.375V349.201H225.806V357.461H224.375V353.607ZM233.664 353.607H229.583V357.461H228.152V349.201H229.583V352.599H233.664V349.201H235.095V357.461H233.664V353.607ZM237.441 357.461V349.201H238.872V352.469H240.953C241.615 352.469 242.168 352.534 242.612 352.664C243.674 352.935 244.227 353.71 244.271 354.989C244.271 355.748 244.038 356.35 243.571 356.794C243.116 357.239 242.406 357.461 241.441 357.461H237.441ZM240.612 353.477H238.872V356.453H240.872C242.151 356.453 242.791 355.932 242.791 354.892C242.791 354.382 242.623 354.014 242.287 353.786C242.178 353.699 242 353.629 241.75 353.575C241.49 353.51 241.111 353.477 240.612 353.477ZM245.279 357.461V349.201H246.71V357.461H245.279ZM254.383 357.461H253.277L250.48 350.827H250.447L250.48 351.266V357.461H249.049V349.201H251.017L253.83 355.916L256.643 349.201H258.61V357.461H257.179V351.266L257.228 350.827H257.179L254.383 357.461ZM270.364 350.209H266.185V357.461H264.754V349.201H271.795V357.461H270.364V350.209ZM273.179 357.461V356.404C273.992 356.642 274.567 356.258 274.903 355.25C274.989 355 275.049 354.691 275.082 354.323L275.147 353.331C275.158 353.157 275.163 352.816 275.163 352.306V349.201H280.887V357.461H279.456V350.209H276.496V352.306C276.496 352.989 276.48 353.564 276.448 354.03C276.415 354.485 276.334 354.984 276.204 355.526C276.019 356.296 275.689 356.843 275.212 357.168C274.735 357.493 274.057 357.591 273.179 357.461ZM284.311 351.64H282.945C282.945 350.989 283.162 350.393 283.596 349.851C284.116 349.201 285.07 348.875 286.457 348.875C287.27 348.875 287.986 349.038 288.604 349.363C288.961 349.537 289.243 349.824 289.449 350.225C289.655 350.626 289.753 351.103 289.742 351.656L289.661 355.477C289.661 355.792 289.693 356.035 289.758 356.209C289.856 356.382 290.111 356.464 290.523 356.453V357.461C290.36 357.504 290.143 357.526 289.872 357.526C289.395 357.526 289.048 357.445 288.831 357.282C288.625 357.119 288.479 356.8 288.392 356.323C287.861 357.298 286.918 357.786 285.563 357.786C284.631 357.786 283.91 357.58 283.4 357.168C282.902 356.745 282.652 356.122 282.652 355.298C282.652 354.518 282.934 353.927 283.498 353.526C284.062 353.103 285.129 352.821 286.701 352.68C287.428 352.626 287.861 352.556 288.002 352.469C288.208 352.328 288.311 352.019 288.311 351.542C288.311 350.436 287.693 349.884 286.457 349.884C284.994 349.884 284.278 350.469 284.311 351.64ZM288.279 353.932L288.311 353.233C288.148 353.352 287.91 353.45 287.596 353.526C287.119 353.558 286.75 353.596 286.49 353.64C285.59 353.791 285.043 353.916 284.848 354.014C284.371 354.241 284.132 354.653 284.132 355.25C284.132 355.726 284.273 356.1 284.555 356.371C284.848 356.642 285.238 356.778 285.726 356.778C286.04 356.778 286.327 356.735 286.587 356.648C286.858 356.561 287.119 356.42 287.368 356.225C287.628 356.019 287.834 355.721 287.986 355.331C288.148 354.941 288.246 354.474 288.279 353.932ZM297.998 354.518H299.364C299.321 355.147 299.082 355.808 298.648 356.502C298.41 356.892 298.036 357.206 297.526 357.445C297.028 357.672 296.442 357.786 295.77 357.786C295.543 357.786 295.38 357.781 295.283 357.77C294.806 357.748 294.318 357.624 293.819 357.396C292.431 356.702 291.738 355.325 291.738 353.266C291.738 352.182 291.987 351.217 292.486 350.371C293.104 349.374 294.166 348.875 295.673 348.875C296.735 348.875 297.581 349.146 298.209 349.688C298.838 350.22 299.201 350.919 299.299 351.786H297.933C297.716 350.518 296.974 349.884 295.705 349.884C294.881 349.884 294.264 350.187 293.852 350.794C293.45 351.39 293.25 352.214 293.25 353.266C293.25 354.285 293.461 355.125 293.884 355.786C294.307 356.447 294.946 356.778 295.803 356.778C296.54 356.778 297.077 356.545 297.413 356.079C297.77 355.613 297.965 355.092 297.998 354.518ZM302.734 357.461V350.209H299.872V349.201H307.027V350.209H304.165V357.461H302.734ZM309.551 349.201V355.786L313.86 349.201H315.454V357.461H314.023V350.859L309.73 357.461H308.12V349.201H309.551ZM319.222 349.201V352.81L322.75 349.201H324.425L320.555 353.038L324.637 357.461H322.929L319.222 353.331V357.461H317.791V349.201H319.222ZM325.185 354.957C324.903 353.797 324.914 352.675 325.217 351.591C325.521 350.507 326.16 349.732 327.136 349.266C327.678 349.005 328.312 348.875 329.038 348.875C329.765 348.875 330.399 349.005 330.941 349.266C331.917 349.721 332.562 350.534 332.876 351.705C333.017 352.247 333.087 352.794 333.087 353.347C333.098 353.889 333.033 354.426 332.892 354.957C332.762 355.477 332.529 355.954 332.193 356.388C331.868 356.821 331.45 357.163 330.941 357.412C330.388 357.661 329.754 357.786 329.038 357.786C328.323 357.786 327.689 357.661 327.136 357.412C326.193 356.957 325.542 356.138 325.185 354.957ZM326.697 351.688C326.556 352.122 326.486 352.664 326.486 353.315C326.486 353.954 326.556 354.502 326.697 354.957C326.838 355.412 327 355.754 327.185 355.981C327.575 356.415 328.019 356.67 328.518 356.745C328.865 356.8 329.212 356.8 329.559 356.745C329.711 356.735 329.922 356.659 330.193 356.518C330.486 356.366 330.724 356.176 330.908 355.949C331.093 355.721 331.25 355.39 331.38 354.957C331.521 354.502 331.591 353.954 331.591 353.315C331.591 352.664 331.521 352.122 331.38 351.688C331.228 351.211 331.06 350.87 330.876 350.664C330.702 350.458 330.486 350.285 330.225 350.144C329.965 350.003 329.743 349.916 329.559 349.884C329.212 349.829 328.865 349.829 328.518 349.884C328.366 349.894 328.15 349.976 327.868 350.127C327.315 350.398 326.925 350.919 326.697 351.688ZM340.306 357.461H339.2L336.403 350.827H336.371L336.403 351.266V357.461H334.972V349.201H336.94L339.753 355.916L342.566 349.201H344.534V357.461H343.103V351.266L343.152 350.827H343.103L340.306 357.461Z" fill="black"/>
<rect x="20.1631" y="20.4878" width="6.5042" height="6.5042" fill="black"/>
<rect x="20.1631" y="271.55" width="6.5042" height="6.5042" fill="black"/>
<rect x="365.634" y="20.4878" width="6.5042" height="6.5042" fill="black"/>
<rect x="91.0586" y="271.55" width="6.5042" height="6.5042" fill="black"/>
<rect x="365.634" y="271.55" width="6.5042" height="6.5042" fill="black"/>
</svg>
