<svg width="391" height="388" viewBox="0 0 391 388" fill="none" xmlns="http://www.w3.org/2000/svg">
<rect width="391" height="387" transform="translate(0 0.975098)" fill="#FFFF00"/>
<path d="M117.007 29.349L124.198 44.4094L130.207 29.349H133.749L125.271 49.9185C124.293 52.1841 123.208 53.5912 122.015 54.1397C121.133 54.5452 120.096 54.7479 118.903 54.7479C117.854 54.7479 116.924 54.6286 116.113 54.3901V51.4567C116.9 51.7191 117.687 51.8502 118.474 51.8502C119.046 51.8502 119.523 51.7906 119.905 51.6714C120.31 51.5521 120.751 51.2063 121.228 50.634C121.705 50.0616 122.099 49.2388 122.409 48.1656L112.893 29.349H117.007ZM134.697 48.8811C134.077 46.3293 134.101 43.8609 134.769 41.476C135.436 39.0912 136.843 37.386 138.99 36.3605C140.182 35.7881 141.577 35.5019 143.175 35.5019C144.773 35.5019 146.168 35.7881 147.361 36.3605C149.507 37.3621 150.926 39.1508 151.618 41.7265C151.928 42.9189 152.083 44.1233 152.083 45.3395C152.107 46.532 151.963 47.7125 151.653 48.8811C151.367 50.0258 150.854 51.0752 150.115 52.0291C149.4 52.9831 148.482 53.7343 147.361 54.2828C146.144 54.8313 144.749 55.1056 143.175 55.1056C141.601 55.1056 140.206 54.8313 138.99 54.2828C136.915 53.2812 135.484 51.4806 134.697 48.8811ZM138.024 41.6907C137.714 42.6446 137.559 43.8371 137.559 45.268C137.559 46.6751 137.714 47.8794 138.024 48.8811C138.334 49.8827 138.692 50.634 139.097 51.1348C139.956 52.0887 140.933 52.6492 142.03 52.8161C142.794 52.9354 143.557 52.9354 144.32 52.8161C144.654 52.7923 145.119 52.6253 145.715 52.3153C146.359 51.9814 146.884 51.5641 147.289 51.0632C147.695 50.5624 148.04 49.835 148.327 48.8811C148.637 47.8794 148.792 46.6751 148.792 45.268C148.792 43.8371 148.637 42.6446 148.327 41.6907C147.993 40.6413 147.623 39.8901 147.218 39.437C146.836 38.9839 146.359 38.6023 145.787 38.2922C145.214 37.9822 144.725 37.7914 144.32 37.7199C143.557 37.6006 142.794 37.6006 142.03 37.7199C141.697 37.7437 141.22 37.9226 140.6 38.2565C139.383 38.8527 138.525 39.9974 138.024 41.6907ZM156.246 60.9724V58.6471C157.152 58.7664 157.677 58.826 157.82 58.826C158.726 58.826 159.37 58.4921 159.752 57.8244C159.99 57.4666 160.145 57.1685 160.217 56.93C160.288 56.8108 160.443 56.4173 160.682 55.7495L161.111 54.3901L153.241 36.2174H156.997L162.828 50.9201L167.658 36.2174H170.806L163.58 56.5365C163.007 58.1582 162.518 59.2195 162.113 59.7203C161.302 60.6743 160.205 61.1513 158.822 61.1513C157.749 61.1513 156.89 61.0916 156.246 60.9724ZM174.599 54.3901V50.4909H178.141V55.4991C178.141 56.6915 177.807 57.6336 177.139 58.3252C176.471 59.0168 175.625 59.4699 174.599 59.6846V57.717C175.1 57.6693 175.518 57.4189 175.851 56.9658C176.209 56.5365 176.388 56.0476 176.388 55.4991V54.3901H174.599ZM193.521 60.9724V58.6471C194.428 58.7664 194.952 58.826 195.095 58.826C196.002 58.826 196.646 58.4921 197.027 57.8244C197.266 57.4666 197.421 57.1685 197.492 56.93C197.564 56.8108 197.719 56.4173 197.957 55.7495L198.387 54.3901L190.516 36.2174H194.273L200.104 50.9201L204.933 36.2174H208.081L200.855 56.5365C200.282 58.1582 199.794 59.2195 199.388 59.7203C198.577 60.6743 197.48 61.1513 196.097 61.1513C195.024 61.1513 194.165 61.0916 193.521 60.9724ZM208.548 54.3901V52.0649C210.336 52.5896 211.6 51.7429 212.34 49.525C212.53 48.9765 212.662 48.2968 212.733 47.4859L212.876 45.3038C212.9 44.9222 212.912 44.171 212.912 43.0501V36.2174H225.504V54.3901H222.356V38.4353H215.845V43.0501C215.845 44.5525 215.81 45.8165 215.738 46.842C215.667 47.8437 215.488 48.9407 215.202 50.1331C214.796 51.8264 214.069 53.0308 213.019 53.7462C211.97 54.4617 210.479 54.6763 208.548 54.3901ZM233.789 36.2174V50.7055L243.269 36.2174H246.775V54.3901H243.627V39.8663L234.183 54.3901H230.641V36.2174H233.789ZM250.95 42.2988V36.2174H254.098V41.798C254.098 42.7758 254.265 43.5032 254.599 43.9802C255.005 44.5048 256.209 44.7672 258.212 44.7672C258.403 44.7672 259.095 44.7433 260.287 44.6956C260.406 44.6718 260.657 44.6599 261.038 44.6599H261.79V36.2174H264.938V54.3901H261.79V46.8778C260.74 46.9493 259.333 46.9851 257.568 46.9851C254.516 46.9851 252.596 46.5081 251.809 45.5542C251.451 45.0772 251.213 44.6241 251.093 44.1948C250.998 43.7655 250.95 43.1335 250.95 42.2988ZM282.209 45.9119H273.23V54.3901H270.082V36.2174H273.23V43.694H282.209V36.2174H285.357V54.3901H282.209V45.9119ZM290.519 54.3901V36.2174H293.667V43.4078H298.246C299.701 43.4078 300.917 43.5509 301.895 43.8371C304.232 44.4333 305.448 46.1385 305.544 48.9526C305.544 50.622 305.031 51.9456 304.006 52.9234C303.004 53.9012 301.442 54.3901 299.319 54.3901H290.519ZM297.495 45.6257H293.667V52.1722H298.067C300.881 52.1722 302.288 51.0275 302.288 48.738C302.288 47.6171 301.919 46.8062 301.179 46.3054C300.941 46.1146 300.547 45.9596 299.999 45.8404C299.427 45.6973 298.592 45.6257 297.495 45.6257ZM307.762 54.3901V36.2174H310.91V54.3901H307.762ZM319.204 36.2174V50.7055L328.684 36.2174H332.19V54.3901H329.042V39.8663L319.598 54.3901H316.056V36.2174H319.204ZM327.504 29.349H330.187C329.686 31.9723 328.112 33.5106 325.465 33.9637C325.011 34.0352 324.535 34.071 324.034 34.071C320.957 34.071 318.99 32.819 318.131 30.3148C318.06 30.1479 317.976 29.8259 317.881 29.349H320.564C320.492 29.969 320.707 30.5533 321.208 31.1018C321.565 31.4834 321.983 31.7696 322.46 31.9604C322.889 32.1035 323.414 32.175 324.034 32.175C325.059 32.175 325.906 31.9246 326.574 31.4238C327.241 30.8991 327.551 30.2075 327.504 29.349ZM127.489 82.055H119.654V79.8371H127.489C127.465 78.7639 127.31 77.8338 127.024 77.0468C126.737 76.2598 126.404 75.6635 126.022 75.2581C125.64 74.8527 125.187 74.5307 124.663 74.2922C124.138 74.0299 123.697 73.8749 123.339 73.8272C123.005 73.7556 122.671 73.7199 122.337 73.7199C120.787 73.7199 119.535 74.1134 118.581 74.9004C117.651 75.6635 117.138 76.6652 117.043 77.9053H114.038C114.348 75.4012 115.529 73.5768 117.58 72.432C118.104 72.0982 118.677 71.8835 119.297 71.7881C120.274 71.5973 121.181 71.5019 122.015 71.5019C127.882 71.5019 130.816 74.8169 130.816 81.4469C130.816 87.886 127.942 91.1056 122.194 91.1056C120.787 91.1056 119.559 90.9267 118.51 90.569C116.077 89.8058 114.539 87.6475 113.895 84.0941H116.9C117.305 87.2898 119.07 88.8877 122.194 88.8877C123.339 88.8877 124.305 88.6373 125.092 88.1364C125.879 87.6118 126.427 86.9201 126.737 86.0616C127.238 84.6545 127.489 83.319 127.489 82.055ZM138.068 72.2174V80.159L145.831 72.2174H149.515L141.001 80.6599L149.98 90.3901H146.224L138.068 81.3038V90.3901H134.92V72.2174H138.068ZM151.186 84.8811C150.566 82.3293 150.59 79.8609 151.258 77.476C151.925 75.0912 153.333 73.386 155.479 72.3605C156.671 71.7881 158.066 71.5019 159.664 71.5019C161.262 71.5019 162.657 71.7881 163.85 72.3605C165.996 73.3621 167.415 75.1508 168.107 77.7265C168.417 78.9189 168.572 80.1233 168.572 81.3395C168.596 82.532 168.453 83.7125 168.143 84.8811C167.856 86.0258 167.344 87.0752 166.604 88.0291C165.889 88.9831 164.971 89.7343 163.85 90.2828C162.634 90.8313 161.238 91.1056 159.664 91.1056C158.09 91.1056 156.695 90.8313 155.479 90.2828C153.404 89.2812 151.973 87.4806 151.186 84.8811ZM154.513 77.6907C154.203 78.6446 154.048 79.8371 154.048 81.268C154.048 82.6751 154.203 83.8794 154.513 84.8811C154.823 85.8827 155.181 86.634 155.586 87.1348C156.445 88.0887 157.423 88.6492 158.52 88.8161C159.283 88.9354 160.046 88.9354 160.809 88.8161C161.143 88.7923 161.608 88.6253 162.204 88.3153C162.848 87.9814 163.373 87.5641 163.778 87.0632C164.184 86.5624 164.529 85.835 164.816 84.8811C165.126 83.8794 165.281 82.6751 165.281 81.268C165.281 79.8371 165.126 78.6446 164.816 77.6907C164.482 76.6413 164.112 75.8901 163.707 75.437C163.325 74.9839 162.848 74.6023 162.276 74.2922C161.703 73.9822 161.215 73.7914 160.809 73.7199C160.046 73.6006 159.283 73.6006 158.52 73.7199C158.186 73.7437 157.709 73.9226 157.089 74.2565C155.872 74.8527 155.014 75.9974 154.513 77.6907ZM182.414 82.3412H172.97V79.3005H182.414V82.3412ZM190.959 72.2174V80.159L198.722 72.2174H202.407L193.893 80.6599L202.872 90.3901H199.115L190.959 81.3038V90.3901H187.811V72.2174H190.959ZM205.313 90.3901V72.2174H213.97C217.81 72.2174 219.73 73.6602 219.73 76.5459C219.73 78.6208 218.633 80.0398 216.439 80.8029V80.9103C217.917 81.268 218.943 81.8404 219.515 82.6274C220.112 83.4144 220.41 84.428 220.41 85.6681C220.41 87.6475 219.682 88.9592 218.227 89.6031C217.035 90.1278 215.58 90.3901 213.863 90.3901H205.313ZM212.969 74.4353H208.461V79.8013H212.826C214.09 79.8013 215.02 79.5509 215.616 79.0501C216.236 78.5254 216.546 77.8457 216.546 77.011C216.546 75.2939 215.354 74.4353 212.969 74.4353ZM212.969 82.0192H208.461V88.1722H213.076C215.795 88.1722 217.154 87.2421 217.154 85.3819C217.154 83.1401 215.759 82.0192 212.969 82.0192ZM237.69 85.1315H240.695C240.409 86.7294 239.634 88.1245 238.37 89.3169C237.106 90.5094 235.234 91.1056 232.754 91.1056C229.391 91.1056 226.923 89.9966 225.349 87.7787C224.562 86.6101 224.049 85.3581 223.81 84.0225C223.643 83.0924 223.56 82.21 223.56 81.3753C223.56 79.7774 223.798 78.275 224.275 76.8679C224.585 75.8663 225.038 74.9958 225.635 74.2565C226.279 73.4695 227.197 72.8136 228.389 72.2889C229.582 71.7643 230.929 71.5019 232.432 71.5019C235.103 71.5019 237.118 72.2412 238.477 73.7199C239.05 74.3399 239.515 75.1269 239.872 76.0809C240.397 77.4641 240.719 79.1455 240.838 81.1249C240.838 81.1964 240.838 81.3515 240.838 81.59C240.862 81.8284 240.874 81.9715 240.874 82.0192H226.887C226.887 83.8317 227.364 85.4296 228.318 86.8128C229.272 88.1961 230.714 88.8877 232.646 88.8877C234.029 88.8877 235.162 88.5419 236.045 87.8502C236.927 87.1586 237.476 86.2524 237.69 85.1315ZM226.887 79.8013H237.547C237.523 78.3942 237.189 77.0945 236.546 75.902C235.806 74.4473 234.459 73.7199 232.503 73.7199C230.285 73.7199 228.759 74.4592 227.924 75.9378C227.233 77.1302 226.887 78.4181 226.887 79.8013ZM257.734 83.9152H260.739C260.644 85.2984 260.119 86.7532 259.165 88.2795C258.641 89.1381 257.818 89.8297 256.697 90.3544C255.6 90.8552 254.312 91.1056 252.833 91.1056C252.333 91.1056 251.975 91.0937 251.76 91.0698C250.711 91.0221 249.638 90.7479 248.541 90.247C245.488 88.7207 243.962 85.6919 243.962 81.1607C243.962 78.7758 244.51 76.6533 245.607 74.7931C246.967 72.599 249.304 71.5019 252.619 71.5019C254.956 71.5019 256.816 72.0982 258.199 73.2906C259.583 74.4592 260.382 75.9974 260.596 77.9053H257.591C257.114 75.115 255.481 73.7199 252.69 73.7199C250.878 73.7199 249.518 74.3876 248.612 75.7232C247.73 77.0348 247.289 78.8473 247.289 81.1607C247.289 83.4025 247.754 85.2507 248.684 86.7055C249.614 88.1603 251.021 88.8877 252.905 88.8877C254.527 88.8877 255.707 88.3749 256.447 87.3494C257.234 86.3239 257.663 85.1792 257.734 83.9152ZM268.154 90.3901V74.4353H261.858V72.2174H277.598V74.4353H271.302V90.3901H268.154Z" fill="black"/>
<path d="M26.3342 126.632H20.6105V124.879H21.3617C22.9357 124.879 24.2712 124.474 25.3683 123.663C26.4892 122.828 27.145 121.743 27.3358 120.408H29.6968V145.449H26.3342V126.632ZM40.0601 142.623H53.2962V145.449H36.3397C36.1966 142.968 36.9837 140.703 38.7008 138.652C39.0585 138.199 39.6547 137.65 40.4894 137.006C41.4672 136.243 42.1231 135.754 42.4569 135.54L44.818 134.037L45.5334 133.608L46.3204 133.071L46.9643 132.606C47.4175 132.296 47.7037 132.082 47.8229 131.962C48.5622 131.128 48.9796 130.627 49.075 130.46C49.6473 129.22 49.9335 128.158 49.9335 127.276C49.9335 125.75 49.4804 124.569 48.5741 123.734C47.6917 122.9 46.4635 122.482 44.8895 122.482C43.2916 122.482 42.0277 122.936 41.0976 123.842C40.1675 124.748 39.7024 125.952 39.7024 127.455V128.385H36.4113V127.634C36.4113 126.346 36.6855 125.094 37.2341 123.878C38.4027 121.135 40.9902 119.728 44.9968 119.656C47.5725 119.656 49.6116 120.336 51.114 121.695C52.6165 123.031 53.3677 124.879 53.3677 127.24C53.487 129.196 52.8788 130.973 51.5433 132.57C51.2571 132.928 50.7205 133.405 49.9335 134.001C49.2419 134.526 48.5861 135.003 47.966 135.432C47.5367 135.718 46.6543 136.291 45.3188 137.149C43.6255 138.223 42.3854 139.177 41.5984 140.011C40.8114 140.822 40.2986 141.693 40.0601 142.623ZM62.3854 145.449H58.8438V141.549H62.3854V145.449ZM78.1809 146.057C77.1077 146.248 75.9987 146.248 74.854 146.057C74.3293 145.985 73.6019 145.699 72.6718 145.198C71.694 144.674 70.8831 143.97 70.2392 143.088C69.5953 142.205 69.0229 140.917 68.5221 139.224C68.0213 137.436 67.7709 135.337 67.7709 132.928C67.7709 130.496 68.0213 128.409 68.5221 126.668C69.0706 124.855 69.6549 123.532 70.275 122.697C70.8712 121.91 71.6225 121.254 72.5287 120.73C73.4588 120.205 74.2339 119.895 74.854 119.799C75.9987 119.609 77.1077 119.609 78.1809 119.799C78.7294 119.871 79.4687 120.157 80.3988 120.658C81.4004 121.183 82.2113 121.886 82.8314 122.769C83.4753 123.651 84.0357 124.951 84.5127 126.668C85.0374 128.385 85.2997 130.472 85.2997 132.928C85.2997 135.385 85.0374 137.483 84.5127 139.224C83.988 141.013 83.4037 142.325 82.7598 143.159C82.1159 144.018 81.3289 144.697 80.3988 145.198C79.4687 145.699 78.7294 145.985 78.1809 146.057ZM72.3856 140.476C73.2919 142.408 74.6751 143.374 76.5353 143.374C78.4193 143.374 79.7906 142.408 80.6492 140.476C81.5316 138.568 81.9728 136.052 81.9728 132.928C81.9728 129.804 81.5316 127.288 80.6492 125.38C79.7906 123.448 78.4193 122.482 76.5353 122.482C74.6751 122.482 73.2919 123.448 72.3856 125.38C71.5271 127.312 71.0978 129.828 71.0978 132.928C71.0978 136.028 71.5271 138.545 72.3856 140.476ZM105.693 125.917H102.688C102.116 123.532 100.518 122.339 97.8946 122.339C93.8404 122.339 91.8132 125.428 91.8132 131.605H91.8848C93.2203 129.84 95.2594 128.957 98.002 128.957C100.339 128.957 102.259 129.72 103.761 131.247C105.288 132.749 106.051 134.788 106.051 137.364C106.051 140.035 105.288 142.17 103.761 143.767C102.211 145.389 100.113 146.2 97.4654 146.2C96.0106 146.2 94.7585 145.985 93.7092 145.556C92.6598 145.151 91.7297 144.471 90.9189 143.517C90.108 142.539 89.4999 141.204 89.0945 139.51C88.689 137.793 88.4863 135.707 88.4863 133.25C88.5579 127.98 89.5595 124.331 91.4913 122.304C92.5406 121.159 93.745 120.396 95.1043 120.014C95.939 119.776 96.8811 119.656 97.9304 119.656C98.9559 119.656 99.9576 119.811 100.935 120.121C101.699 120.384 102.366 120.706 102.939 121.087C104.393 122.137 105.312 123.746 105.693 125.917ZM92.0278 137.436C92.0278 139.153 92.5048 140.596 93.4588 141.764C94.4127 142.933 95.7959 143.517 97.6085 143.517C99.3017 143.517 100.601 142.921 101.508 141.728C102.39 140.56 102.831 139.093 102.831 137.328C102.831 135.659 102.354 134.299 101.4 133.25C100.47 132.177 99.1825 131.64 97.5369 131.64C95.8198 131.64 94.4723 132.165 93.4945 133.214C92.5167 134.24 92.0278 135.647 92.0278 137.436ZM114.997 145.449H111.455V141.549H114.997V145.449ZM124.532 142.623H137.768V145.449H120.812C120.669 142.968 121.456 140.703 123.173 138.652C123.531 138.199 124.127 137.65 124.961 137.006C125.939 136.243 126.595 135.754 126.929 135.54L129.29 134.037L130.005 133.608L130.792 133.071L131.436 132.606C131.89 132.296 132.176 132.082 132.295 131.962C133.034 131.128 133.452 130.627 133.547 130.46C134.119 129.22 134.406 128.158 134.406 127.276C134.406 125.75 133.952 124.569 133.046 123.734C132.164 122.9 130.936 122.482 129.362 122.482C127.764 122.482 126.5 122.936 125.57 123.842C124.64 124.748 124.174 125.952 124.174 127.455V128.385H120.883V127.634C120.883 126.346 121.158 125.094 121.706 123.878C122.875 121.135 125.462 119.728 129.469 119.656C132.045 119.656 134.084 120.336 135.586 121.695C137.089 123.031 137.84 124.879 137.84 127.24C137.959 129.196 137.351 130.973 136.015 132.57C135.729 132.928 135.193 133.405 134.406 134.001C133.714 134.526 133.058 135.003 132.438 135.432C132.009 135.718 131.126 136.291 129.791 137.149C128.098 138.223 126.857 139.177 126.07 140.011C125.283 140.822 124.771 141.693 124.532 142.623ZM151.544 146.057C150.47 146.248 149.362 146.248 148.217 146.057C147.692 145.985 146.965 145.699 146.035 145.198C145.057 144.674 144.246 143.97 143.602 143.088C142.958 142.205 142.386 140.917 141.885 139.224C141.384 137.436 141.134 135.337 141.134 132.928C141.134 130.496 141.384 128.409 141.885 126.668C142.433 124.855 143.018 123.532 143.638 122.697C144.234 121.91 144.985 121.254 145.892 120.73C146.822 120.205 147.597 119.895 148.217 119.799C149.362 119.609 150.47 119.609 151.544 119.799C152.092 119.871 152.832 120.157 153.762 120.658C154.763 121.183 155.574 121.886 156.194 122.769C156.838 123.651 157.399 124.951 157.876 126.668C158.4 128.385 158.663 130.472 158.663 132.928C158.663 135.385 158.4 137.483 157.876 139.224C157.351 141.013 156.767 142.325 156.123 143.159C155.479 144.018 154.692 144.697 153.762 145.198C152.832 145.699 152.092 145.985 151.544 146.057ZM145.748 140.476C146.655 142.408 148.038 143.374 149.898 143.374C151.782 143.374 153.153 142.408 154.012 140.476C154.894 138.568 155.336 136.052 155.336 132.928C155.336 129.804 154.894 127.288 154.012 125.38C153.153 123.448 151.782 122.482 149.898 122.482C148.038 122.482 146.655 123.448 145.748 125.38C144.89 127.312 144.461 129.828 144.461 132.928C144.461 136.028 144.89 138.545 145.748 140.476ZM166.035 142.623H179.271V145.449H162.314C162.171 142.968 162.958 140.703 164.675 138.652C165.033 138.199 165.629 137.65 166.464 137.006C167.442 136.243 168.098 135.754 168.431 135.54L170.792 134.037L171.508 133.608L172.295 133.071L172.939 132.606C173.392 132.296 173.678 132.082 173.797 131.962C174.537 131.128 174.954 130.627 175.049 130.46C175.622 129.22 175.908 128.158 175.908 127.276C175.908 125.75 175.455 124.569 174.549 123.734C173.666 122.9 172.438 122.482 170.864 122.482C169.266 122.482 168.002 122.936 167.072 123.842C166.142 124.748 165.677 125.952 165.677 127.455V128.385H162.386V127.634C162.386 126.346 162.66 125.094 163.209 123.878C164.377 121.135 166.965 119.728 170.971 119.656C173.547 119.656 175.586 120.336 177.088 121.695C178.591 123.031 179.342 124.879 179.342 127.24C179.461 129.196 178.853 130.973 177.518 132.57C177.232 132.928 176.695 133.405 175.908 134.001C175.216 134.526 174.561 135.003 173.94 135.432C173.511 135.718 172.629 136.291 171.293 137.149C169.6 138.223 168.36 139.177 167.573 140.011C166.786 140.822 166.273 141.693 166.035 142.623ZM182.672 139.045H185.963C186.082 140.166 186.547 141.192 187.358 142.122C188.169 143.052 189.421 143.517 191.114 143.517C195.002 143.517 196.945 141.454 196.945 137.328C196.945 135.277 196.409 133.787 195.336 132.857C194.31 131.903 193.01 131.426 191.436 131.426C190.554 131.426 189.612 131.628 188.61 132.034C187.585 132.439 186.893 132.964 186.535 133.608H183.387L185.14 120.408H198.662V123.234H187.609L186.607 130.639C188.062 129.375 189.946 128.743 192.259 128.743C194.596 128.743 196.48 129.518 197.911 131.068C199.366 132.594 200.093 134.669 200.093 137.292C200.093 140.011 199.318 142.181 197.768 143.803C196.218 145.401 194 146.2 191.114 146.2C188.038 146.2 185.856 145.353 184.568 143.66C183.447 142.205 182.815 140.667 182.672 139.045ZM26.3342 162.632H20.6105V160.879H21.3617C22.9357 160.879 24.2712 160.474 25.3683 159.663C26.4892 158.828 27.145 157.743 27.3358 156.408H29.6968V181.449H26.3342V162.632ZM40.0601 178.623H53.2962V181.449H36.3397C36.1966 178.968 36.9837 176.703 38.7008 174.652C39.0585 174.199 39.6547 173.65 40.4894 173.006C41.4672 172.243 42.1231 171.754 42.4569 171.54L44.818 170.037L45.5334 169.608L46.3204 169.071L46.9643 168.606C47.4175 168.296 47.7037 168.082 47.8229 167.962C48.5622 167.128 48.9796 166.627 49.075 166.46C49.6473 165.22 49.9335 164.158 49.9335 163.276C49.9335 161.75 49.4804 160.569 48.5741 159.734C47.6917 158.9 46.4635 158.482 44.8895 158.482C43.2916 158.482 42.0277 158.936 41.0976 159.842C40.1675 160.748 39.7024 161.952 39.7024 163.455V164.385H36.4113V163.634C36.4113 162.346 36.6855 161.094 37.2341 159.878C38.4027 157.135 40.9902 155.728 44.9968 155.656C47.5725 155.656 49.6116 156.336 51.114 157.695C52.6165 159.031 53.3677 160.879 53.3677 163.24C53.487 165.196 52.8788 166.973 51.5433 168.57C51.2571 168.928 50.7205 169.405 49.9335 170.001C49.2419 170.526 48.5861 171.003 47.966 171.432C47.5367 171.718 46.6543 172.291 45.3188 173.149C43.6255 174.223 42.3854 175.177 41.5984 176.011C40.8114 176.822 40.2986 177.693 40.0601 178.623ZM62.3854 167.175H58.8438V163.276H62.3854V167.175ZM62.3854 181.449H58.8438V177.549H62.3854V181.449ZM78.1809 182.057C77.1077 182.248 75.9987 182.248 74.854 182.057C74.3293 181.985 73.6019 181.699 72.6718 181.198C71.694 180.674 70.8831 179.97 70.2392 179.088C69.5953 178.205 69.0229 176.917 68.5221 175.224C68.0213 173.436 67.7709 171.337 67.7709 168.928C67.7709 166.496 68.0213 164.409 68.5221 162.668C69.0706 160.855 69.6549 159.532 70.275 158.697C70.8712 157.91 71.6225 157.254 72.5287 156.73C73.4588 156.205 74.2339 155.895 74.854 155.799C75.9987 155.609 77.1077 155.609 78.1809 155.799C78.7294 155.871 79.4687 156.157 80.3988 156.658C81.4004 157.183 82.2113 157.886 82.8314 158.769C83.4753 159.651 84.0357 160.951 84.5127 162.668C85.0374 164.385 85.2997 166.472 85.2997 168.928C85.2997 171.385 85.0374 173.483 84.5127 175.224C83.988 177.013 83.4037 178.325 82.7598 179.159C82.1159 180.018 81.3289 180.697 80.3988 181.198C79.4687 181.699 78.7294 181.985 78.1809 182.057ZM72.3856 176.476C73.2919 178.408 74.6751 179.374 76.5353 179.374C78.4193 179.374 79.7906 178.408 80.6492 176.476C81.5316 174.568 81.9728 172.052 81.9728 168.928C81.9728 165.804 81.5316 163.288 80.6492 161.38C79.7906 159.448 78.4193 158.482 76.5353 158.482C74.6751 158.482 73.2919 159.448 72.3856 161.38C71.5271 163.312 71.0978 165.828 71.0978 168.928C71.0978 172.028 71.5271 174.545 72.3856 176.476ZM98.9321 182.057C97.8589 182.248 96.7499 182.248 95.6052 182.057C95.0805 181.985 94.3531 181.699 93.423 181.198C92.4452 180.674 91.6343 179.97 90.9904 179.088C90.3465 178.205 89.7741 176.917 89.2733 175.224C88.7725 173.436 88.5221 171.337 88.5221 168.928C88.5221 166.496 88.7725 164.409 89.2733 162.668C89.8218 160.855 90.4061 159.532 91.0262 158.697C91.6224 157.91 92.3737 157.254 93.2799 156.73C94.21 156.205 94.9851 155.895 95.6052 155.799C96.7499 155.609 97.8589 155.609 98.9321 155.799C99.4806 155.871 100.22 156.157 101.15 156.658C102.152 157.183 102.962 157.886 103.583 158.769C104.226 159.651 104.787 160.951 105.264 162.668C105.789 164.385 106.051 166.472 106.051 168.928C106.051 171.385 105.789 173.483 105.264 175.224C104.739 177.013 104.155 178.325 103.511 179.159C102.867 180.018 102.08 180.697 101.15 181.198C100.22 181.699 99.4806 181.985 98.9321 182.057ZM93.1368 176.476C94.0431 178.408 95.4263 179.374 97.2865 179.374C99.1705 179.374 100.542 178.408 101.4 176.476C102.283 174.568 102.724 172.052 102.724 168.928C102.724 165.804 102.283 163.288 101.4 161.38C100.542 159.448 99.1705 158.482 97.2865 158.482C95.4263 158.482 94.0431 159.448 93.1368 161.38C92.2783 163.312 91.849 165.828 91.849 168.928C91.849 172.028 92.2783 174.545 93.1368 176.476Z" fill="black"/>
<path d="M121.727 303.461H120.491L116.784 293.9H116.751L116.784 294.339V303.461H115.255V292.079H117.548L121.109 301.445L124.67 292.079H126.963V303.461H125.434V294.339L125.467 293.9H125.418L121.727 303.461ZM129.51 303.461V295.201H130.941V298.469H133.022C133.683 298.469 134.236 298.534 134.681 298.664C135.743 298.935 136.296 299.71 136.339 300.989C136.339 301.748 136.106 302.35 135.64 302.794C135.185 303.239 134.475 303.461 133.51 303.461H129.51ZM132.681 299.477H130.941V302.453H132.941C134.22 302.453 134.86 301.932 134.86 300.892C134.86 300.382 134.692 300.014 134.356 299.786C134.247 299.699 134.068 299.629 133.819 299.575C133.559 299.51 133.179 299.477 132.681 299.477ZM137.347 303.461V295.201H138.778V303.461H137.347ZM144.263 300.924H145.628C145.628 301.466 145.824 301.911 146.214 302.258C146.604 302.605 147.141 302.778 147.824 302.778C148.496 302.778 149.021 302.642 149.401 302.371C149.78 302.09 149.97 301.683 149.97 301.152C149.97 300.165 149.347 299.672 148.1 299.672H146.88V298.664H147.937C149.086 298.664 149.661 298.236 149.661 297.38C149.661 297.239 149.639 297.098 149.596 296.957C149.563 296.816 149.488 296.659 149.368 296.485C149.26 296.301 149.07 296.155 148.799 296.046C148.528 295.938 148.192 295.884 147.791 295.884C147.076 295.884 146.572 296.052 146.279 296.388C145.986 296.724 145.84 297.087 145.84 297.477H144.474C144.506 296.913 144.653 296.442 144.913 296.062C145.173 295.683 145.509 295.412 145.921 295.249C146.593 295 147.244 294.875 147.872 294.875C148.425 294.875 148.913 294.94 149.336 295.071C149.759 295.19 150.078 295.336 150.295 295.51C150.523 295.683 150.702 295.889 150.832 296.127C150.973 296.366 151.059 296.577 151.092 296.762C151.124 296.935 151.141 297.109 151.141 297.282C151.141 298.247 150.664 298.848 149.71 299.087V299.136C150.219 299.212 150.637 299.434 150.962 299.802C151.287 300.171 151.45 300.653 151.45 301.25C151.45 301.857 151.233 302.409 150.799 302.908C150.268 303.493 149.314 303.786 147.937 303.786C146.777 303.786 145.894 303.542 145.287 303.054C144.604 302.458 144.263 301.748 144.263 300.924ZM154.403 297.64H153.037C153.037 296.989 153.254 296.393 153.687 295.851C154.207 295.201 155.161 294.875 156.549 294.875C157.362 294.875 158.077 295.038 158.695 295.363C159.053 295.537 159.335 295.824 159.541 296.225C159.747 296.626 159.844 297.103 159.834 297.656L159.752 301.477C159.752 301.792 159.785 302.035 159.85 302.209C159.947 302.382 160.202 302.464 160.614 302.453V303.461C160.452 303.504 160.235 303.526 159.964 303.526C159.487 303.526 159.14 303.445 158.923 303.282C158.717 303.119 158.571 302.8 158.484 302.323C157.953 303.298 157.01 303.786 155.655 303.786C154.722 303.786 154.002 303.58 153.492 303.168C152.993 302.745 152.744 302.122 152.744 301.298C152.744 300.518 153.026 299.927 153.59 299.526C154.153 299.103 155.221 298.821 156.793 298.68C157.519 298.626 157.953 298.556 158.094 298.469C158.3 298.328 158.403 298.019 158.403 297.542C158.403 296.436 157.785 295.884 156.549 295.884C155.086 295.884 154.37 296.469 154.403 297.64ZM158.37 299.932L158.403 299.233C158.24 299.352 158.002 299.45 157.687 299.526C157.21 299.558 156.842 299.596 156.582 299.64C155.682 299.791 155.134 299.916 154.939 300.014C154.462 300.241 154.224 300.653 154.224 301.25C154.224 301.726 154.365 302.1 154.647 302.371C154.939 302.642 155.329 302.778 155.817 302.778C156.132 302.778 156.419 302.735 156.679 302.648C156.95 302.561 157.21 302.42 157.46 302.225C157.72 302.019 157.926 301.721 158.077 301.331C158.24 300.941 158.338 300.474 158.37 299.932ZM167.911 296.209H163.732V303.461H162.301V295.201H169.342V303.461H167.911V296.209ZM171.995 306.453V305.396C172.407 305.45 172.645 305.477 172.71 305.477C173.122 305.477 173.415 305.325 173.588 305.022C173.697 304.859 173.767 304.724 173.799 304.615C173.832 304.561 173.902 304.382 174.011 304.079L174.206 303.461L170.629 295.201H172.336L174.987 301.884L177.182 295.201H178.613L175.328 304.437C175.068 305.174 174.846 305.656 174.661 305.884C174.293 306.317 173.794 306.534 173.165 306.534C172.678 306.534 172.287 306.507 171.995 306.453ZM185.573 300.518H186.939C186.895 301.147 186.657 301.808 186.223 302.502C185.985 302.892 185.611 303.206 185.101 303.445C184.603 303.672 184.017 303.786 183.345 303.786C183.118 303.786 182.955 303.781 182.857 303.77C182.38 303.748 181.893 303.624 181.394 303.396C180.006 302.702 179.313 301.325 179.313 299.266C179.313 298.182 179.562 297.217 180.061 296.371C180.678 295.374 181.741 294.875 183.248 294.875C184.31 294.875 185.156 295.146 185.784 295.688C186.413 296.22 186.776 296.919 186.874 297.786H185.508C185.291 296.518 184.548 295.884 183.28 295.884C182.456 295.884 181.838 296.187 181.426 296.794C181.025 297.39 180.825 298.214 180.825 299.266C180.825 300.285 181.036 301.125 181.459 301.786C181.882 302.447 182.521 302.778 183.378 302.778C184.115 302.778 184.651 302.545 184.987 302.079C185.345 301.613 185.54 301.092 185.573 300.518ZM190.123 295.201V298.81L193.652 295.201H195.327L191.457 299.038L195.538 303.461H193.831L190.123 299.331V303.461H188.692V295.201H190.123ZM197.737 297.64H196.372C196.372 296.989 196.588 296.393 197.022 295.851C197.542 295.201 198.496 294.875 199.884 294.875C200.697 294.875 201.412 295.038 202.03 295.363C202.388 295.537 202.67 295.824 202.876 296.225C203.082 296.626 203.179 297.103 203.168 297.656L203.087 301.477C203.087 301.792 203.12 302.035 203.185 302.209C203.282 302.382 203.537 302.464 203.949 302.453V303.461C203.786 303.504 203.57 303.526 203.299 303.526C202.822 303.526 202.475 303.445 202.258 303.282C202.052 303.119 201.906 302.8 201.819 302.323C201.288 303.298 200.345 303.786 198.99 303.786C198.057 303.786 197.336 303.58 196.827 303.168C196.328 302.745 196.079 302.122 196.079 301.298C196.079 300.518 196.361 299.927 196.924 299.526C197.488 299.103 198.556 298.821 200.128 298.68C200.854 298.626 201.288 298.556 201.429 298.469C201.635 298.328 201.738 298.019 201.738 297.542C201.738 296.436 201.12 295.884 199.884 295.884C198.42 295.884 197.705 296.469 197.737 297.64ZM201.705 299.932L201.738 299.233C201.575 299.352 201.336 299.45 201.022 299.526C200.545 299.558 200.177 299.596 199.916 299.64C199.017 299.791 198.469 299.916 198.274 300.014C197.797 300.241 197.559 300.653 197.559 301.25C197.559 301.726 197.7 302.1 197.981 302.371C198.274 302.642 198.664 302.778 199.152 302.778C199.467 302.778 199.754 302.735 200.014 302.648C200.285 302.561 200.545 302.42 200.794 302.225C201.055 302.019 201.261 301.721 201.412 301.331C201.575 300.941 201.673 300.474 201.705 299.932ZM211.587 301.071H212.953C212.823 301.797 212.471 302.431 211.896 302.973C211.322 303.515 210.471 303.786 209.343 303.786C207.815 303.786 206.693 303.282 205.977 302.274C205.62 301.743 205.386 301.174 205.278 300.567C205.202 300.144 205.164 299.743 205.164 299.363C205.164 298.637 205.273 297.954 205.489 297.314C205.63 296.859 205.836 296.464 206.107 296.127C206.4 295.77 206.817 295.472 207.359 295.233C207.901 294.995 208.514 294.875 209.197 294.875C210.411 294.875 211.327 295.211 211.945 295.884C212.205 296.165 212.416 296.523 212.579 296.957C212.817 297.585 212.964 298.35 213.018 299.249C213.018 299.282 213.018 299.352 213.018 299.461C213.029 299.569 213.034 299.634 213.034 299.656H206.676C206.676 300.48 206.893 301.206 207.327 301.835C207.76 302.464 208.416 302.778 209.294 302.778C209.923 302.778 210.438 302.621 210.839 302.306C211.24 301.992 211.49 301.58 211.587 301.071ZM206.676 298.648H211.522C211.511 298.008 211.359 297.417 211.067 296.875C210.731 296.214 210.118 295.884 209.229 295.884C208.221 295.884 207.527 296.22 207.148 296.892C206.834 297.434 206.676 298.019 206.676 298.648ZM220.243 303.461H219.137L216.34 296.827H216.308L216.34 297.266V303.461H214.909V295.201H216.877L219.69 301.916L222.503 295.201H224.471V303.461H223.04V297.266L223.088 296.827H223.04L220.243 303.461ZM236.224 296.209H232.045V303.461H230.614V295.201H237.655V303.461H236.224V296.209ZM245.95 301.071H247.316C247.186 301.797 246.834 302.431 246.259 302.973C245.685 303.515 244.834 303.786 243.706 303.786C242.178 303.786 241.056 303.282 240.34 302.274C239.983 301.743 239.749 301.174 239.641 300.567C239.565 300.144 239.527 299.743 239.527 299.363C239.527 298.637 239.636 297.954 239.852 297.314C239.993 296.859 240.199 296.464 240.47 296.127C240.763 295.77 241.18 295.472 241.722 295.233C242.264 294.995 242.877 294.875 243.56 294.875C244.774 294.875 245.69 295.211 246.308 295.884C246.568 296.165 246.779 296.523 246.942 296.957C247.181 297.585 247.327 298.35 247.381 299.249C247.381 299.282 247.381 299.352 247.381 299.461C247.392 299.569 247.397 299.634 247.397 299.656H241.039C241.039 300.48 241.256 301.206 241.69 301.835C242.123 302.464 242.779 302.778 243.657 302.778C244.286 302.778 244.801 302.621 245.202 302.306C245.603 301.992 245.853 301.58 245.95 301.071ZM241.039 298.648H245.885C245.874 298.008 245.722 297.417 245.43 296.875C245.094 296.214 244.481 295.884 243.592 295.884C242.584 295.884 241.89 296.22 241.511 296.892C241.197 297.434 241.039 298.019 241.039 298.648ZM249.272 306.469V295.201H250.606V296.339H250.654C251.305 295.363 252.216 294.875 253.386 294.875C254.459 294.875 255.348 295.249 256.053 295.997C256.758 296.756 257.11 297.867 257.11 299.331C257.11 300.827 256.752 301.943 256.037 302.68C255.332 303.418 254.459 303.786 253.419 303.786C253.094 303.786 252.698 303.716 252.232 303.575C251.549 303.369 251.039 302.935 250.703 302.274V306.469H249.272ZM250.606 299.363C250.606 300.512 250.866 301.374 251.386 301.949C251.928 302.502 252.519 302.778 253.159 302.778C253.831 302.778 254.405 302.507 254.882 301.965C255.359 301.401 255.598 300.523 255.598 299.331C255.598 298.247 255.375 297.401 254.931 296.794C254.497 296.187 253.879 295.884 253.077 295.884C252.655 295.884 252.259 295.997 251.89 296.225C251.034 296.735 250.606 297.781 250.606 299.363ZM258.975 303.461V295.201H262.91C264.655 295.201 265.528 295.856 265.528 297.168C265.528 298.111 265.029 298.756 264.032 299.103V299.152C264.704 299.315 265.17 299.575 265.43 299.932C265.701 300.29 265.837 300.751 265.837 301.315C265.837 302.214 265.506 302.811 264.845 303.103C264.303 303.342 263.641 303.461 262.861 303.461H258.975ZM262.454 296.209H260.406V298.648H262.389C262.964 298.648 263.387 298.534 263.658 298.306C263.94 298.068 264.08 297.759 264.08 297.38C264.08 296.599 263.538 296.209 262.454 296.209ZM262.454 299.656H260.406V302.453H262.503C263.739 302.453 264.357 302.03 264.357 301.184C264.357 300.165 263.723 299.656 262.454 299.656ZM267.74 303.461V295.201H269.171V298.469H271.252C271.914 298.469 272.466 298.534 272.911 298.664C273.973 298.935 274.526 299.71 274.57 300.989C274.57 301.748 274.336 302.35 273.87 302.794C273.415 303.239 272.705 303.461 271.74 303.461H267.74ZM270.911 299.477H269.171V302.453H271.171C272.45 302.453 273.09 301.932 273.09 300.892C273.09 300.382 272.922 300.014 272.586 299.786C272.477 299.699 272.298 299.629 272.049 299.575C271.789 299.51 271.41 299.477 270.911 299.477ZM275.578 303.461V295.201H277.009V303.461H275.578ZM280.779 295.201V301.786L285.088 295.201H286.681V303.461H285.251V296.859L280.958 303.461H279.348V295.201H280.779ZM284.551 292.079H285.771C285.543 293.271 284.828 293.97 283.624 294.176C283.418 294.209 283.202 294.225 282.974 294.225C281.576 294.225 280.681 293.656 280.291 292.518C280.259 292.442 280.221 292.295 280.177 292.079H281.397C281.364 292.36 281.462 292.626 281.689 292.875C281.852 293.049 282.042 293.179 282.259 293.266C282.454 293.331 282.692 293.363 282.974 293.363C283.44 293.363 283.825 293.249 284.129 293.022C284.432 292.783 284.573 292.469 284.551 292.079ZM302.479 291.542H303.698C303.655 292.333 303.286 292.859 302.593 293.119C302.213 293.249 301.888 293.336 301.617 293.379C300.403 293.531 299.698 293.634 299.503 293.688C298.766 293.894 298.202 294.268 297.812 294.81C297.422 295.342 297.216 296.106 297.194 297.103H297.227C297.747 295.705 298.815 295.005 300.43 295.005C301.742 295.005 302.723 295.439 303.373 296.306C304.034 297.163 304.365 298.214 304.365 299.461C304.365 300.653 304.024 301.672 303.341 302.518C302.658 303.363 301.644 303.786 300.3 303.786C298.815 303.786 297.715 303.222 296.999 302.095C296.641 301.477 296.397 300.783 296.267 300.014C296.181 299.407 296.137 298.805 296.137 298.209C296.137 296.117 296.457 294.653 297.097 293.818C297.66 293.092 298.425 292.626 299.389 292.42C300.3 292.214 301.07 292.095 301.698 292.062C302.121 292.008 302.381 291.835 302.479 291.542ZM297.65 299.558C297.65 300.274 297.812 300.962 298.137 301.624C298.517 302.393 299.227 302.778 300.267 302.778C301.091 302.778 301.725 302.502 302.17 301.949C302.625 301.385 302.853 300.61 302.853 299.623C302.853 298.81 302.712 298.057 302.43 297.363C302.072 296.464 301.351 296.014 300.267 296.014C299.183 296.014 298.452 296.453 298.072 297.331C297.79 298.003 297.65 298.745 297.65 299.558ZM305.972 300.957C305.69 299.797 305.701 298.675 306.004 297.591C306.308 296.507 306.947 295.732 307.923 295.266C308.465 295.005 309.099 294.875 309.825 294.875C310.552 294.875 311.186 295.005 311.728 295.266C312.703 295.721 313.348 296.534 313.663 297.705C313.804 298.247 313.874 298.794 313.874 299.347C313.885 299.889 313.82 300.426 313.679 300.957C313.549 301.477 313.316 301.954 312.98 302.388C312.655 302.821 312.237 303.163 311.728 303.412C311.175 303.661 310.541 303.786 309.825 303.786C309.11 303.786 308.476 303.661 307.923 303.412C306.98 302.957 306.329 302.138 305.972 300.957ZM307.484 297.688C307.343 298.122 307.272 298.664 307.272 299.315C307.272 299.954 307.343 300.502 307.484 300.957C307.625 301.412 307.787 301.754 307.972 301.981C308.362 302.415 308.806 302.67 309.305 302.745C309.652 302.8 309.999 302.8 310.346 302.745C310.497 302.735 310.709 302.659 310.98 302.518C311.273 302.366 311.511 302.176 311.695 301.949C311.88 301.721 312.037 301.39 312.167 300.957C312.308 300.502 312.378 299.954 312.378 299.315C312.378 298.664 312.308 298.122 312.167 297.688C312.015 297.211 311.847 296.87 311.663 296.664C311.489 296.458 311.273 296.285 311.012 296.144C310.752 296.003 310.53 295.916 310.346 295.884C309.999 295.829 309.652 295.829 309.305 295.884C309.153 295.894 308.936 295.976 308.655 296.127C308.102 296.398 307.711 296.919 307.484 297.688ZM314.8 303.461V302.404C315.613 302.642 316.188 302.258 316.524 301.25C316.61 301 316.67 300.691 316.703 300.323L316.768 299.331C316.778 299.157 316.784 298.816 316.784 298.306V295.201H322.508V303.461H321.077V296.209H318.117V298.306C318.117 298.989 318.101 299.564 318.068 300.03C318.036 300.485 317.955 300.984 317.824 301.526C317.64 302.296 317.31 302.843 316.833 303.168C316.356 303.493 315.678 303.591 314.8 303.461ZM324.842 303.461V295.201H326.273V298.485H328.338C329.151 298.485 329.851 298.604 330.436 298.843C331.249 299.136 331.656 299.819 331.656 300.892C331.656 301.781 331.395 302.442 330.875 302.876C330.658 303.049 330.404 303.179 330.111 303.266C329.721 303.396 329.292 303.461 328.826 303.461H324.842ZM328.013 299.493H326.273V302.453H328.257C328.929 302.453 329.422 302.317 329.737 302.046C330.051 301.732 330.198 301.347 330.176 300.892C330.176 300.393 330.013 300.025 329.688 299.786C329.58 299.71 329.406 299.645 329.168 299.591C328.908 299.526 328.566 299.493 328.143 299.493H328.013ZM334.626 295.201V302.453H338.073V295.201H339.504V302.453H342.951V295.201H344.382V303.461H333.195V295.201H334.626ZM346.464 300.957C346.182 299.797 346.193 298.675 346.497 297.591C346.8 296.507 347.44 295.732 348.415 295.266C348.957 295.005 349.591 294.875 350.318 294.875C351.044 294.875 351.678 295.005 352.22 295.266C353.196 295.721 353.841 296.534 354.155 297.705C354.296 298.247 354.367 298.794 354.367 299.347C354.378 299.889 354.312 300.426 354.172 300.957C354.041 301.477 353.808 301.954 353.472 302.388C353.147 302.821 352.73 303.163 352.22 303.412C351.667 303.661 351.033 303.786 350.318 303.786C349.602 303.786 348.968 303.661 348.415 303.412C347.472 302.957 346.822 302.138 346.464 300.957ZM347.976 297.688C347.835 298.122 347.765 298.664 347.765 299.315C347.765 299.954 347.835 300.502 347.976 300.957C348.117 301.412 348.28 301.754 348.464 301.981C348.854 302.415 349.299 302.67 349.797 302.745C350.144 302.8 350.491 302.8 350.838 302.745C350.99 302.735 351.201 302.659 351.472 302.518C351.765 302.366 352.003 302.176 352.188 301.949C352.372 301.721 352.529 301.39 352.659 300.957C352.8 300.502 352.871 299.954 352.871 299.315C352.871 298.664 352.8 298.122 352.659 297.688C352.508 297.211 352.34 296.87 352.155 296.664C351.982 296.458 351.765 296.285 351.505 296.144C351.245 296.003 351.022 295.916 350.838 295.884C350.491 295.829 350.144 295.829 349.797 295.884C349.646 295.894 349.429 295.976 349.147 296.127C348.594 296.398 348.204 296.919 347.976 297.688ZM357.683 295.201V301.786L361.992 295.201H363.585V303.461H362.154V296.859L357.862 303.461H356.252V295.201H357.683ZM361.455 292.079H362.675C362.447 293.271 361.732 293.97 360.528 294.176C360.322 294.209 360.106 294.225 359.878 294.225C358.48 294.225 357.585 293.656 357.195 292.518C357.162 292.442 357.125 292.295 357.081 292.079H358.301C358.268 292.36 358.366 292.626 358.593 292.875C358.756 293.049 358.946 293.179 359.162 293.266C359.358 293.331 359.596 293.363 359.878 293.363C360.344 293.363 360.729 293.249 361.032 293.022C361.336 292.783 361.477 292.469 361.455 292.079ZM120.702 314.209H116.475V321.461H115.044V313.201H120.702V314.209ZM121.405 318.957C121.123 317.797 121.134 316.675 121.438 315.591C121.741 314.507 122.381 313.732 123.357 313.266C123.899 313.005 124.533 312.875 125.259 312.875C125.985 312.875 126.62 313.005 127.162 313.266C128.137 313.721 128.782 314.534 129.097 315.705C129.237 316.247 129.308 316.794 129.308 317.347C129.319 317.889 129.254 318.426 129.113 318.957C128.983 319.477 128.75 319.954 128.414 320.388C128.088 320.821 127.671 321.163 127.162 321.412C126.609 321.661 125.975 321.786 125.259 321.786C124.544 321.786 123.909 321.661 123.357 321.412C122.413 320.957 121.763 320.138 121.405 318.957ZM122.918 315.688C122.777 316.122 122.706 316.664 122.706 317.315C122.706 317.954 122.777 318.502 122.918 318.957C123.058 319.412 123.221 319.754 123.405 319.981C123.796 320.415 124.24 320.67 124.739 320.745C125.086 320.8 125.433 320.8 125.779 320.745C125.931 320.735 126.143 320.659 126.414 320.518C126.706 320.366 126.945 320.176 127.129 319.949C127.313 319.721 127.471 319.39 127.601 318.957C127.742 318.502 127.812 317.954 127.812 317.315C127.812 316.664 127.742 316.122 127.601 315.688C127.449 315.211 127.281 314.87 127.097 314.664C126.923 314.458 126.706 314.285 126.446 314.144C126.186 314.003 125.964 313.916 125.779 313.884C125.433 313.829 125.086 313.829 124.739 313.884C124.587 313.894 124.37 313.976 124.088 314.127C123.535 314.398 123.145 314.919 122.918 315.688ZM131.193 324.469V313.201H132.527V314.339H132.575C133.226 313.363 134.136 312.875 135.307 312.875C136.38 312.875 137.269 313.249 137.974 313.997C138.678 314.756 139.031 315.867 139.031 317.331C139.031 318.827 138.673 319.943 137.958 320.68C137.253 321.418 136.38 321.786 135.34 321.786C135.014 321.786 134.619 321.716 134.153 321.575C133.47 321.369 132.96 320.935 132.624 320.274V324.469H131.193ZM132.527 317.363C132.527 318.512 132.787 319.374 133.307 319.949C133.849 320.502 134.44 320.778 135.079 320.778C135.752 320.778 136.326 320.507 136.803 319.965C137.28 319.401 137.518 318.523 137.518 317.331C137.518 316.247 137.296 315.401 136.852 314.794C136.418 314.187 135.8 313.884 134.998 313.884C134.575 313.884 134.18 313.997 133.811 314.225C132.955 314.735 132.527 315.781 132.527 317.363ZM140.635 318.957C140.353 317.797 140.364 316.675 140.668 315.591C140.971 314.507 141.611 313.732 142.587 313.266C143.129 313.005 143.763 312.875 144.489 312.875C145.215 312.875 145.849 313.005 146.392 313.266C147.367 313.721 148.012 314.534 148.327 315.705C148.467 316.247 148.538 316.794 148.538 317.347C148.549 317.889 148.484 318.426 148.343 318.957C148.213 319.477 147.98 319.954 147.644 320.388C147.318 320.821 146.901 321.163 146.392 321.412C145.839 321.661 145.204 321.786 144.489 321.786C143.774 321.786 143.139 321.661 142.587 321.412C141.643 320.957 140.993 320.138 140.635 318.957ZM142.148 315.688C142.007 316.122 141.936 316.664 141.936 317.315C141.936 317.954 142.007 318.502 142.148 318.957C142.288 319.412 142.451 319.754 142.635 319.981C143.026 320.415 143.47 320.67 143.969 320.745C144.316 320.8 144.662 320.8 145.009 320.745C145.161 320.735 145.373 320.659 145.644 320.518C145.936 320.366 146.175 320.176 146.359 319.949C146.543 319.721 146.7 319.39 146.831 318.957C146.971 318.502 147.042 317.954 147.042 317.315C147.042 316.664 146.971 316.122 146.831 315.688C146.679 315.211 146.511 314.87 146.326 314.664C146.153 314.458 145.936 314.285 145.676 314.144C145.416 314.003 145.194 313.916 145.009 313.884C144.662 313.829 144.316 313.829 143.969 313.884C143.817 313.894 143.6 313.976 143.318 314.127C142.765 314.398 142.375 314.919 142.148 315.688ZM149.382 323.607L149.252 320.453H150.293C151.193 319.13 151.643 317.174 151.643 314.583V313.201H157.561V320.453H158.992L158.879 323.607H157.675V321.461H150.586V323.607H149.382ZM156.131 320.453V314.209H152.976V315.363C152.976 316.241 152.878 317.152 152.683 318.095C152.51 319.027 152.217 319.813 151.805 320.453H156.131ZM166.009 318.518H167.375C167.332 319.147 167.093 319.808 166.66 320.502C166.421 320.892 166.047 321.206 165.538 321.445C165.039 321.672 164.454 321.786 163.782 321.786C163.554 321.786 163.391 321.781 163.294 321.77C162.817 321.748 162.329 321.624 161.83 321.396C160.443 320.702 159.749 319.325 159.749 317.266C159.749 316.182 159.998 315.217 160.497 314.371C161.115 313.374 162.177 312.875 163.684 312.875C164.747 312.875 165.592 313.146 166.221 313.688C166.85 314.22 167.213 314.919 167.31 315.786H165.944C165.728 314.518 164.985 313.884 163.717 313.884C162.893 313.884 162.275 314.187 161.863 314.794C161.462 315.39 161.261 316.214 161.261 317.266C161.261 318.285 161.473 319.125 161.896 319.786C162.318 320.447 162.958 320.778 163.814 320.778C164.551 320.778 165.088 320.545 165.424 320.079C165.782 319.613 165.977 319.092 166.009 318.518ZM170.56 313.201V316.81L174.088 313.201H175.763L171.893 317.038L175.975 321.461H174.267L170.56 317.331V321.461H169.129V313.201H170.56ZM176.523 318.957C176.241 317.797 176.252 316.675 176.555 315.591C176.859 314.507 177.498 313.732 178.474 313.266C179.016 313.005 179.65 312.875 180.376 312.875C181.103 312.875 181.737 313.005 182.279 313.266C183.255 313.721 183.9 314.534 184.214 315.705C184.355 316.247 184.425 316.794 184.425 317.347C184.436 317.889 184.371 318.426 184.23 318.957C184.1 319.477 183.867 319.954 183.531 320.388C183.206 320.821 182.788 321.163 182.279 321.412C181.726 321.661 181.092 321.786 180.376 321.786C179.661 321.786 179.027 321.661 178.474 321.412C177.531 320.957 176.88 320.138 176.523 318.957ZM178.035 315.688C177.894 316.122 177.824 316.664 177.824 317.315C177.824 317.954 177.894 318.502 178.035 318.957C178.176 319.412 178.338 319.754 178.523 319.981C178.913 320.415 179.357 320.67 179.856 320.745C180.203 320.8 180.55 320.8 180.897 320.745C181.049 320.735 181.26 320.659 181.531 320.518C181.824 320.366 182.062 320.176 182.246 319.949C182.431 319.721 182.588 319.39 182.718 318.957C182.859 318.502 182.929 317.954 182.929 317.315C182.929 316.664 182.859 316.122 182.718 315.688C182.566 315.211 182.398 314.87 182.214 314.664C182.04 314.458 181.824 314.285 181.563 314.144C181.303 314.003 181.081 313.916 180.897 313.884C180.55 313.829 180.203 313.829 179.856 313.884C179.704 313.894 179.488 313.976 179.206 314.127C178.653 314.398 178.263 314.919 178.035 315.688ZM187.741 313.201V319.786L192.051 313.201H193.644V321.461H192.213V314.859L187.92 321.461H186.311V313.201H187.741ZM191.514 310.079H192.733C192.506 311.271 191.79 311.97 190.587 312.176C190.381 312.209 190.164 312.225 189.937 312.225C188.538 312.225 187.644 311.656 187.254 310.518C187.221 310.442 187.183 310.295 187.14 310.079H188.359C188.327 310.36 188.424 310.626 188.652 310.875C188.815 311.049 189.004 311.179 189.221 311.266C189.416 311.331 189.655 311.363 189.937 311.363C190.403 311.363 190.788 311.249 191.091 311.022C191.395 310.783 191.536 310.469 191.514 310.079ZM205.386 317.672H201.825V316.664H205.386C205.375 316.176 205.305 315.754 205.175 315.396C205.045 315.038 204.893 314.767 204.719 314.583C204.546 314.398 204.34 314.252 204.102 314.144C203.863 314.024 203.663 313.954 203.5 313.932C203.348 313.9 203.196 313.884 203.045 313.884C202.34 313.884 201.771 314.062 201.337 314.42C200.915 314.767 200.681 315.222 200.638 315.786H199.272C199.413 314.648 199.95 313.819 200.882 313.298C201.12 313.146 201.381 313.049 201.662 313.005C202.107 312.919 202.519 312.875 202.898 312.875C205.565 312.875 206.898 314.382 206.898 317.396C206.898 320.323 205.592 321.786 202.98 321.786C202.34 321.786 201.782 321.705 201.305 321.542C200.199 321.195 199.5 320.214 199.207 318.599H200.573C200.757 320.052 201.56 320.778 202.98 320.778C203.5 320.778 203.939 320.664 204.297 320.437C204.654 320.198 204.904 319.884 205.045 319.493C205.272 318.854 205.386 318.247 205.386 317.672ZM210.195 313.201V316.81L213.723 313.201H215.398L211.528 317.038L215.61 321.461H213.902L210.195 317.331V321.461H208.764V313.201H210.195ZM216.158 318.957C215.876 317.797 215.887 316.675 216.19 315.591C216.494 314.507 217.133 313.732 218.109 313.266C218.651 313.005 219.285 312.875 220.011 312.875C220.738 312.875 221.372 313.005 221.914 313.266C222.89 313.721 223.535 314.534 223.849 315.705C223.99 316.247 224.06 316.794 224.06 317.347C224.071 317.889 224.006 318.426 223.865 318.957C223.735 319.477 223.502 319.954 223.166 320.388C222.841 320.821 222.423 321.163 221.914 321.412C221.361 321.661 220.727 321.786 220.011 321.786C219.296 321.786 218.662 321.661 218.109 321.412C217.166 320.957 216.515 320.138 216.158 318.957ZM217.67 315.688C217.529 316.122 217.459 316.664 217.459 317.315C217.459 317.954 217.529 318.502 217.67 318.957C217.811 319.412 217.973 319.754 218.158 319.981C218.548 320.415 218.992 320.67 219.491 320.745C219.838 320.8 220.185 320.8 220.532 320.745C220.684 320.735 220.895 320.659 221.166 320.518C221.459 320.366 221.697 320.176 221.881 319.949C222.066 319.721 222.223 319.39 222.353 318.957C222.494 318.502 222.564 317.954 222.564 317.315C222.564 316.664 222.494 316.122 222.353 315.688C222.201 315.211 222.033 314.87 221.849 314.664C221.675 314.458 221.459 314.285 221.198 314.144C220.938 314.003 220.716 313.916 220.532 313.884C220.185 313.829 219.838 313.829 219.491 313.884C219.339 313.894 219.123 313.976 218.841 314.127C218.288 314.398 217.898 314.919 217.67 315.688ZM230.352 317.802H226.059V316.42H230.352V317.802ZM234.236 313.201V316.81L237.765 313.201H239.44L235.57 317.038L239.651 321.461H237.944L234.236 317.331V321.461H232.805V313.201H234.236ZM240.761 321.461V313.201H244.696C246.441 313.201 247.314 313.856 247.314 315.168C247.314 316.111 246.815 316.756 245.818 317.103V317.152C246.49 317.315 246.956 317.575 247.216 317.932C247.487 318.29 247.623 318.751 247.623 319.315C247.623 320.214 247.292 320.811 246.631 321.103C246.089 321.342 245.428 321.461 244.647 321.461H240.761ZM244.241 314.209H242.192V316.648H244.176C244.75 316.648 245.173 316.534 245.444 316.306C245.726 316.068 245.867 315.759 245.867 315.38C245.867 314.599 245.325 314.209 244.241 314.209ZM244.241 317.656H242.192V320.453H244.29C245.525 320.453 246.143 320.03 246.143 319.184C246.143 318.165 245.509 317.656 244.241 317.656ZM255.478 319.071H256.844C256.714 319.797 256.361 320.431 255.787 320.973C255.212 321.515 254.361 321.786 253.234 321.786C251.705 321.786 250.583 321.282 249.868 320.274C249.51 319.743 249.277 319.174 249.169 318.567C249.093 318.144 249.055 317.743 249.055 317.363C249.055 316.637 249.163 315.954 249.38 315.314C249.521 314.859 249.727 314.464 249.998 314.127C250.291 313.77 250.708 313.472 251.25 313.233C251.792 312.995 252.405 312.875 253.087 312.875C254.302 312.875 255.218 313.211 255.835 313.884C256.096 314.165 256.307 314.523 256.47 314.957C256.708 315.585 256.854 316.35 256.909 317.249C256.909 317.282 256.909 317.352 256.909 317.461C256.92 317.569 256.925 317.634 256.925 317.656H250.567C250.567 318.48 250.784 319.206 251.218 319.835C251.651 320.464 252.307 320.778 253.185 320.778C253.814 320.778 254.329 320.621 254.73 320.306C255.131 319.992 255.38 319.58 255.478 319.071ZM250.567 316.648H255.413C255.402 316.008 255.25 315.417 254.957 314.875C254.621 314.214 254.009 313.884 253.12 313.884C252.112 313.884 251.418 314.22 251.039 314.892C250.724 315.434 250.567 316.019 250.567 316.648ZM264.589 318.518H265.955C265.911 319.147 265.673 319.808 265.239 320.502C265.001 320.892 264.627 321.206 264.117 321.445C263.619 321.672 263.033 321.786 262.361 321.786C262.133 321.786 261.971 321.781 261.873 321.77C261.396 321.748 260.908 321.624 260.41 321.396C259.022 320.702 258.328 319.325 258.328 317.266C258.328 316.182 258.578 315.217 259.076 314.371C259.694 313.374 260.757 312.875 262.263 312.875C263.326 312.875 264.171 313.146 264.8 313.688C265.429 314.22 265.792 314.919 265.89 315.786H264.524C264.307 314.518 263.564 313.884 262.296 313.884C261.472 313.884 260.854 314.187 260.442 314.794C260.041 315.39 259.841 316.214 259.841 317.266C259.841 318.285 260.052 319.125 260.475 319.786C260.898 320.447 261.537 320.778 262.394 320.778C263.131 320.778 263.667 320.545 264.003 320.079C264.361 319.613 264.556 319.092 264.589 318.518ZM269.325 321.461V314.209H266.463V313.201H273.618V314.209H270.756V321.461H269.325ZM278.792 321.461V313.201H282.727C284.472 313.201 285.345 313.856 285.345 315.168C285.345 316.111 284.846 316.756 283.849 317.103V317.152C284.521 317.315 284.987 317.575 285.248 317.932C285.519 318.29 285.654 318.751 285.654 319.315C285.654 320.214 285.323 320.811 284.662 321.103C284.12 321.342 283.459 321.461 282.678 321.461H278.792ZM282.272 314.209H280.223V316.648H282.207C282.781 316.648 283.204 316.534 283.475 316.306C283.757 316.068 283.898 315.759 283.898 315.38C283.898 314.599 283.356 314.209 282.272 314.209ZM282.272 317.656H280.223V320.453H282.321C283.556 320.453 284.174 320.03 284.174 319.184C284.174 318.165 283.54 317.656 282.272 317.656ZM297.646 318.518H292.832L291.759 321.461H290.117L294.426 310.079H296.052L300.361 321.461H298.719L297.646 318.518ZM295.239 311.623L293.255 317.233H297.223L295.239 311.623ZM307.338 309.542H308.558C308.514 310.333 308.146 310.859 307.452 311.119C307.072 311.249 306.747 311.336 306.476 311.379C305.262 311.531 304.557 311.634 304.362 311.688C303.625 311.894 303.061 312.268 302.671 312.81C302.281 313.342 302.075 314.106 302.053 315.103H302.086C302.606 313.705 303.674 313.005 305.289 313.005C306.601 313.005 307.582 313.439 308.232 314.306C308.894 315.163 309.224 316.214 309.224 317.461C309.224 318.653 308.883 319.672 308.2 320.518C307.517 321.363 306.503 321.786 305.159 321.786C303.674 321.786 302.574 321.222 301.858 320.095C301.5 319.477 301.257 318.783 301.126 318.014C301.04 317.407 300.996 316.805 300.996 316.209C300.996 314.117 301.316 312.653 301.956 311.818C302.519 311.092 303.284 310.626 304.248 310.42C305.159 310.214 305.929 310.095 306.557 310.062C306.98 310.008 307.24 309.835 307.338 309.542ZM302.509 317.558C302.509 318.274 302.671 318.962 302.996 319.624C303.376 320.393 304.086 320.778 305.127 320.778C305.95 320.778 306.585 320.502 307.029 319.949C307.484 319.385 307.712 318.61 307.712 317.623C307.712 316.81 307.571 316.057 307.289 315.363C306.931 314.464 306.211 314.014 305.127 314.014C304.043 314.014 303.311 314.453 302.931 315.331C302.65 316.003 302.509 316.745 302.509 317.558ZM311.44 313.201L313.553 316.258L315.667 313.201H317.261L314.366 317.152L317.488 321.461H315.895L313.553 318.062L311.212 321.461H309.618L312.74 317.152L309.846 313.201H311.44ZM319.755 315.64H318.389C318.389 314.989 318.606 314.393 319.039 313.851C319.56 313.201 320.514 312.875 321.901 312.875C322.714 312.875 323.43 313.038 324.048 313.363C324.405 313.537 324.687 313.824 324.893 314.225C325.099 314.626 325.197 315.103 325.186 315.656L325.104 319.477C325.104 319.792 325.137 320.035 325.202 320.209C325.3 320.382 325.554 320.464 325.966 320.453V321.461C325.804 321.504 325.587 321.526 325.316 321.526C324.839 321.526 324.492 321.445 324.275 321.282C324.069 321.119 323.923 320.8 323.836 320.323C323.305 321.298 322.362 321.786 321.007 321.786C320.075 321.786 319.354 321.58 318.844 321.168C318.346 320.745 318.096 320.122 318.096 319.298C318.096 318.518 318.378 317.927 318.942 317.526C319.505 317.103 320.573 316.821 322.145 316.68C322.871 316.626 323.305 316.556 323.446 316.469C323.652 316.328 323.755 316.019 323.755 315.542C323.755 314.436 323.137 313.884 321.901 313.884C320.438 313.884 319.722 314.469 319.755 315.64ZM323.722 317.932L323.755 317.233C323.592 317.352 323.354 317.45 323.039 317.526C322.562 317.558 322.194 317.596 321.934 317.64C321.034 317.791 320.487 317.916 320.291 318.014C319.814 318.241 319.576 318.653 319.576 319.25C319.576 319.726 319.717 320.1 319.999 320.371C320.291 320.642 320.682 320.778 321.169 320.778C321.484 320.778 321.771 320.735 322.031 320.648C322.302 320.561 322.562 320.42 322.812 320.225C323.072 320.019 323.278 319.721 323.43 319.331C323.592 318.941 323.69 318.474 323.722 317.932ZM327.003 318.924H328.369C328.369 319.466 328.564 319.911 328.954 320.258C329.344 320.605 329.881 320.778 330.564 320.778C331.236 320.778 331.762 320.642 332.141 320.371C332.52 320.09 332.71 319.683 332.71 319.152C332.71 318.165 332.087 317.672 330.84 317.672H329.621V316.664H330.678C331.827 316.664 332.401 316.236 332.401 315.38C332.401 315.239 332.379 315.098 332.336 314.957C332.304 314.816 332.228 314.659 332.108 314.485C332 314.301 331.81 314.155 331.539 314.046C331.268 313.938 330.932 313.884 330.531 313.884C329.816 313.884 329.312 314.052 329.019 314.388C328.726 314.724 328.58 315.087 328.58 315.477H327.214C327.247 314.913 327.393 314.442 327.653 314.062C327.913 313.683 328.249 313.412 328.661 313.249C329.333 313 329.984 312.875 330.612 312.875C331.165 312.875 331.653 312.94 332.076 313.071C332.499 313.19 332.818 313.336 333.035 313.51C333.263 313.683 333.442 313.889 333.572 314.127C333.713 314.366 333.8 314.577 333.832 314.762C333.865 314.935 333.881 315.109 333.881 315.282C333.881 316.247 333.404 316.848 332.45 317.087V317.136C332.959 317.212 333.377 317.434 333.702 317.802C334.027 318.171 334.19 318.653 334.19 319.25C334.19 319.857 333.973 320.409 333.539 320.908C333.008 321.493 332.054 321.786 330.678 321.786C329.518 321.786 328.634 321.542 328.027 321.054C327.344 320.458 327.003 319.748 327.003 318.924ZM337.484 313.201V319.786L341.793 313.201H343.387V321.461H341.956V314.859L337.663 321.461H336.053V313.201H337.484ZM347.155 313.201V319.786L351.464 313.201H353.057V321.461H351.626V314.859L347.334 321.461H345.724V313.201H347.155ZM355.947 321.461V319.689H357.557V321.965C357.557 322.507 357.405 322.935 357.102 323.25C356.798 323.564 356.413 323.77 355.947 323.867V322.973C356.175 322.951 356.365 322.838 356.516 322.632C356.679 322.437 356.76 322.214 356.76 321.965V321.461H355.947ZM120.654 332.209H116.475V339.461H115.044V331.201H122.085V339.461H120.654V332.209ZM124.168 336.957C123.887 335.797 123.897 334.675 124.201 333.591C124.504 332.507 125.144 331.732 126.12 331.266C126.662 331.005 127.296 330.875 128.022 330.875C128.748 330.875 129.383 331.005 129.925 331.266C130.9 331.721 131.545 332.534 131.86 333.705C132.001 334.247 132.071 334.794 132.071 335.347C132.082 335.889 132.017 336.426 131.876 336.957C131.746 337.477 131.513 337.954 131.177 338.388C130.851 338.821 130.434 339.163 129.925 339.412C129.372 339.661 128.738 339.786 128.022 339.786C127.307 339.786 126.672 339.661 126.12 339.412C125.177 338.957 124.526 338.138 124.168 336.957ZM125.681 333.688C125.54 334.122 125.469 334.664 125.469 335.315C125.469 335.954 125.54 336.502 125.681 336.957C125.822 337.412 125.984 337.754 126.168 337.981C126.559 338.415 127.003 338.67 127.502 338.745C127.849 338.8 128.196 338.8 128.542 338.745C128.694 338.735 128.906 338.659 129.177 338.518C129.469 338.366 129.708 338.176 129.892 337.949C130.076 337.721 130.234 337.39 130.364 336.957C130.505 336.502 130.575 335.954 130.575 335.315C130.575 334.664 130.505 334.122 130.364 333.688C130.212 333.211 130.044 332.87 129.86 332.664C129.686 332.458 129.469 332.285 129.209 332.144C128.949 332.003 128.727 331.916 128.542 331.884C128.196 331.829 127.849 331.829 127.502 331.884C127.35 331.894 127.133 331.976 126.851 332.127C126.298 332.398 125.908 332.919 125.681 333.688ZM139.745 336.518H141.111C141.067 337.147 140.829 337.808 140.395 338.502C140.157 338.892 139.783 339.206 139.273 339.445C138.775 339.672 138.189 339.786 137.517 339.786C137.29 339.786 137.127 339.781 137.029 339.77C136.552 339.748 136.065 339.624 135.566 339.396C134.178 338.702 133.485 337.325 133.485 335.266C133.485 334.182 133.734 333.217 134.233 332.371C134.85 331.374 135.913 330.875 137.42 330.875C138.482 330.875 139.328 331.146 139.956 331.688C140.585 332.22 140.948 332.919 141.046 333.786H139.68C139.463 332.518 138.72 331.884 137.452 331.884C136.628 331.884 136.01 332.187 135.598 332.794C135.197 333.39 134.997 334.214 134.997 335.266C134.997 336.285 135.208 337.125 135.631 337.786C136.054 338.447 136.693 338.778 137.55 338.778C138.287 338.778 138.823 338.545 139.16 338.079C139.517 337.613 139.712 337.092 139.745 336.518ZM142.865 339.461V331.201H146.8C148.545 331.201 149.417 331.856 149.417 333.168C149.417 334.111 148.919 334.756 147.922 335.103V335.152C148.594 335.315 149.06 335.575 149.32 335.932C149.591 336.29 149.726 336.751 149.726 337.315C149.726 338.214 149.396 338.811 148.735 339.103C148.193 339.342 147.531 339.461 146.751 339.461H142.865ZM146.344 332.209H144.295V334.648H146.279C146.854 334.648 147.277 334.534 147.548 334.306C147.829 334.068 147.97 333.759 147.97 333.38C147.97 332.599 147.428 332.209 146.344 332.209ZM146.344 335.656H144.295V338.453H146.393C147.629 338.453 148.247 338.03 148.247 337.184C148.247 336.165 147.613 335.656 146.344 335.656ZM156.687 336.209H154.801L152.638 339.461H151.061L153.337 336.193C152.709 336.128 152.199 335.884 151.809 335.461C151.419 335.038 151.223 334.485 151.223 333.802C151.223 333.163 151.391 332.604 151.728 332.127C152.129 331.51 152.887 331.201 154.004 331.201H158.118V339.461H156.687V336.209ZM156.687 335.201V332.209H154.622C153.343 332.209 152.703 332.724 152.703 333.754C152.703 334.176 152.86 334.523 153.175 334.794C153.489 335.065 153.988 335.201 154.671 335.201H156.687ZM161.89 331.201V338.453H165.337V331.201H166.768V338.453H170.215V331.201H171.646V338.453H173.045L172.914 341.607H171.711V339.461H160.459V331.201H161.89ZM180.225 337.071H181.591C181.461 337.797 181.109 338.431 180.534 338.973C179.96 339.515 179.109 339.786 177.981 339.786C176.453 339.786 175.331 339.282 174.615 338.274C174.258 337.743 174.025 337.174 173.916 336.567C173.84 336.144 173.802 335.743 173.802 335.363C173.802 334.637 173.911 333.954 174.128 333.314C174.269 332.859 174.475 332.464 174.746 332.127C175.038 331.77 175.456 331.472 175.998 331.233C176.54 330.995 177.152 330.875 177.835 330.875C179.049 330.875 179.965 331.211 180.583 331.884C180.843 332.165 181.055 332.523 181.217 332.957C181.456 333.585 181.602 334.35 181.656 335.249C181.656 335.282 181.656 335.352 181.656 335.461C181.667 335.569 181.672 335.634 181.672 335.656H175.315C175.315 336.48 175.531 337.206 175.965 337.835C176.399 338.464 177.055 338.778 177.933 338.778C178.561 338.778 179.076 338.621 179.477 338.306C179.878 337.992 180.128 337.58 180.225 337.071ZM175.315 334.648H180.16C180.149 334.008 179.998 333.417 179.705 332.875C179.369 332.214 178.756 331.884 177.868 331.884C176.859 331.884 176.166 332.22 175.786 332.892C175.472 333.434 175.315 334.019 175.315 334.648ZM189.06 335.607H184.978V339.461H183.548V331.201H184.978V334.599H189.06V331.201H190.491V339.461H189.06V335.607ZM198.349 335.607H194.268V339.461H192.837V331.201H194.268V334.599H198.349V331.201H199.78V339.461H198.349V335.607ZM202.126 339.461V331.201H203.557V334.469H205.639C206.3 334.469 206.853 334.534 207.297 334.664C208.36 334.935 208.912 335.71 208.956 336.989C208.956 337.748 208.723 338.35 208.257 338.794C207.801 339.239 207.091 339.461 206.127 339.461H202.126ZM205.297 335.477H203.557V338.453H205.557C206.837 338.453 207.476 337.932 207.476 336.892C207.476 336.382 207.308 336.014 206.972 335.786C206.864 335.699 206.685 335.629 206.435 335.575C206.175 335.51 205.796 335.477 205.297 335.477ZM209.964 339.461V331.201H211.395V339.461H209.964ZM215.165 331.201V337.786L219.474 331.201H221.068V339.461H219.637V332.859L215.344 339.461H213.734V331.201H215.165ZM218.938 328.079H220.157C219.93 329.271 219.214 329.97 218.011 330.176C217.805 330.209 217.588 330.225 217.36 330.225C215.962 330.225 215.068 329.656 214.677 328.518C214.645 328.442 214.607 328.295 214.564 328.079H215.783C215.751 328.36 215.848 328.626 216.076 328.875C216.238 329.049 216.428 329.179 216.645 329.266C216.84 329.331 217.079 329.363 217.36 329.363C217.826 329.363 218.211 329.249 218.515 329.022C218.818 328.783 218.959 328.469 218.938 328.079ZM232.989 336.518H234.355C234.311 337.147 234.073 337.808 233.639 338.502C233.401 338.892 233.027 339.206 232.517 339.445C232.019 339.672 231.433 339.786 230.761 339.786C230.533 339.786 230.371 339.781 230.273 339.77C229.796 339.748 229.308 339.624 228.81 339.396C227.422 338.702 226.728 337.325 226.728 335.266C226.728 334.182 226.978 333.217 227.476 332.371C228.094 331.374 229.157 330.875 230.663 330.875C231.726 330.875 232.571 331.146 233.2 331.688C233.829 332.22 234.192 332.919 234.29 333.786H232.924C232.707 332.518 231.964 331.884 230.696 331.884C229.872 331.884 229.254 332.187 228.842 332.794C228.441 333.39 228.241 334.214 228.241 335.266C228.241 336.285 228.452 337.125 228.875 337.786C229.298 338.447 229.937 338.778 230.794 338.778C231.531 338.778 232.067 338.545 232.403 338.079C232.761 337.613 232.956 337.092 232.989 336.518ZM235.848 336.957C235.566 335.797 235.577 334.675 235.881 333.591C236.184 332.507 236.824 331.732 237.799 331.266C238.341 331.005 238.976 330.875 239.702 330.875C240.428 330.875 241.062 331.005 241.604 331.266C242.58 331.721 243.225 332.534 243.539 333.705C243.68 334.247 243.751 334.794 243.751 335.347C243.762 335.889 243.697 336.426 243.556 336.957C243.426 337.477 243.192 337.954 242.856 338.388C242.531 338.821 242.114 339.163 241.604 339.412C241.052 339.661 240.417 339.786 239.702 339.786C238.986 339.786 238.352 339.661 237.799 339.412C236.856 338.957 236.206 338.138 235.848 336.957ZM237.36 333.688C237.219 334.122 237.149 334.664 237.149 335.315C237.149 335.954 237.219 336.502 237.36 336.957C237.501 337.412 237.664 337.754 237.848 337.981C238.238 338.415 238.683 338.67 239.182 338.745C239.528 338.8 239.875 338.8 240.222 338.745C240.374 338.735 240.585 338.659 240.856 338.518C241.149 338.366 241.388 338.176 241.572 337.949C241.756 337.721 241.913 337.39 242.043 336.957C242.184 336.502 242.255 335.954 242.255 335.315C242.255 334.664 242.184 334.122 242.043 333.688C241.892 333.211 241.724 332.87 241.539 332.664C241.366 332.458 241.149 332.285 240.889 332.144C240.629 332.003 240.407 331.916 240.222 331.884C239.875 331.829 239.528 331.829 239.182 331.884C239.03 331.894 238.813 331.976 238.531 332.127C237.978 332.398 237.588 332.919 237.36 333.688ZM245.636 342.469V331.201H246.969V332.339H247.018C247.669 331.363 248.579 330.875 249.75 330.875C250.823 330.875 251.712 331.249 252.417 331.997C253.121 332.756 253.474 333.867 253.474 335.331C253.474 336.827 253.116 337.943 252.4 338.68C251.696 339.418 250.823 339.786 249.782 339.786C249.457 339.786 249.062 339.716 248.595 339.575C247.912 339.369 247.403 338.935 247.067 338.274V342.469H245.636ZM246.969 335.363C246.969 336.512 247.23 337.374 247.75 337.949C248.292 338.502 248.883 338.778 249.522 338.778C250.194 338.778 250.769 338.507 251.246 337.965C251.723 337.401 251.961 336.523 251.961 335.331C251.961 334.247 251.739 333.401 251.295 332.794C250.861 332.187 250.243 331.884 249.441 331.884C249.018 331.884 248.622 331.997 248.254 332.225C247.398 332.735 246.969 333.781 246.969 335.363ZM257.034 339.461V332.209H254.172V331.201H261.327V332.209H258.465V339.461H257.034ZM263.851 331.201V337.786L268.16 331.201H269.754V339.461H268.323V332.859L264.03 339.461H262.42V331.201H263.851ZM272.091 342.469V331.201H273.424V332.339H273.473C274.124 331.363 275.034 330.875 276.205 330.875C277.278 330.875 278.167 331.249 278.872 331.997C279.576 332.756 279.929 333.867 279.929 335.331C279.929 336.827 279.571 337.943 278.855 338.68C278.151 339.418 277.278 339.786 276.237 339.786C275.912 339.786 275.517 339.716 275.05 339.575C274.368 339.369 273.858 338.935 273.522 338.274V342.469H272.091ZM273.424 335.363C273.424 336.512 273.685 337.374 274.205 337.949C274.747 338.502 275.338 338.778 275.977 338.778C276.649 338.778 277.224 338.507 277.701 337.965C278.178 337.401 278.416 336.523 278.416 335.331C278.416 334.247 278.194 333.401 277.75 332.794C277.316 332.187 276.698 331.884 275.896 331.884C275.473 331.884 275.078 331.997 274.709 332.225C273.853 332.735 273.424 333.781 273.424 335.363ZM281.533 336.957C281.251 335.797 281.262 334.675 281.566 333.591C281.869 332.507 282.509 331.732 283.484 331.266C284.026 331.005 284.661 330.875 285.387 330.875C286.113 330.875 286.747 331.005 287.289 331.266C288.265 331.721 288.91 332.534 289.224 333.705C289.365 334.247 289.436 334.794 289.436 335.347C289.447 335.889 289.382 336.426 289.241 336.957C289.111 337.477 288.878 337.954 288.541 338.388C288.216 338.821 287.799 339.163 287.289 339.412C286.737 339.661 286.102 339.786 285.387 339.786C284.671 339.786 284.037 339.661 283.484 339.412C282.541 338.957 281.891 338.138 281.533 336.957ZM283.045 333.688C282.904 334.122 282.834 334.664 282.834 335.315C282.834 335.954 282.904 336.502 283.045 336.957C283.186 337.412 283.349 337.754 283.533 337.981C283.923 338.415 284.368 338.67 284.867 338.745C285.213 338.8 285.56 338.8 285.907 338.745C286.059 338.735 286.27 338.659 286.541 338.518C286.834 338.366 287.073 338.176 287.257 337.949C287.441 337.721 287.598 337.39 287.728 336.957C287.869 336.502 287.94 335.954 287.94 335.315C287.94 334.664 287.869 334.122 287.728 333.688C287.577 333.211 287.409 332.87 287.224 332.664C287.051 332.458 286.834 332.285 286.574 332.144C286.314 332.003 286.092 331.916 285.907 331.884C285.56 331.829 285.213 331.829 284.867 331.884C284.715 331.894 284.498 331.976 284.216 332.127C283.663 332.398 283.273 332.919 283.045 333.688ZM291.321 339.461V331.201H295.256C297.001 331.201 297.874 331.856 297.874 333.168C297.874 334.111 297.375 334.756 296.378 335.103V335.152C297.05 335.315 297.516 335.575 297.776 335.932C298.047 336.29 298.183 336.751 298.183 337.315C298.183 338.214 297.852 338.811 297.191 339.103C296.649 339.342 295.988 339.461 295.207 339.461H291.321ZM294.801 332.209H292.752V334.648H294.736C295.31 334.648 295.733 334.534 296.004 334.306C296.286 334.068 296.427 333.759 296.427 333.38C296.427 332.599 295.885 332.209 294.801 332.209ZM294.801 335.656H292.752V338.453H294.85C296.085 338.453 296.703 338.03 296.703 337.184C296.703 336.165 296.069 335.656 294.801 335.656ZM301.517 331.201V334.81L305.046 331.201H306.721L302.851 335.038L306.932 339.461H305.225L301.517 335.331V339.461H300.086V331.201H301.517ZM313.993 337.071H315.359C315.229 337.797 314.877 338.431 314.302 338.973C313.728 339.515 312.877 339.786 311.749 339.786C310.221 339.786 309.099 339.282 308.383 338.274C308.026 337.743 307.793 337.174 307.684 336.567C307.608 336.144 307.57 335.743 307.57 335.363C307.57 334.637 307.679 333.954 307.896 333.314C308.037 332.859 308.243 332.464 308.514 332.127C308.806 331.77 309.224 331.472 309.766 331.233C310.308 330.995 310.92 330.875 311.603 330.875C312.817 330.875 313.733 331.211 314.351 331.884C314.611 332.165 314.823 332.523 314.985 332.957C315.224 333.585 315.37 334.35 315.424 335.249C315.424 335.282 315.424 335.352 315.424 335.461C315.435 335.569 315.441 335.634 315.441 335.656H309.083C309.083 336.48 309.299 337.206 309.733 337.835C310.167 338.464 310.823 338.778 311.701 338.778C312.329 338.778 312.844 338.621 313.245 338.306C313.646 337.992 313.896 337.58 313.993 337.071ZM309.083 334.648H313.928C313.917 334.008 313.766 333.417 313.473 332.875C313.137 332.214 312.524 331.884 311.636 331.884C310.627 331.884 309.934 332.22 309.554 332.892C309.24 333.434 309.083 334.019 309.083 334.648ZM116.475 349.201V355.786L120.784 349.201H122.377V357.461H120.946V350.859L116.654 357.461H115.044V349.201H116.475ZM134.298 354.518H135.664C135.621 355.147 135.382 355.808 134.949 356.502C134.71 356.892 134.336 357.206 133.827 357.445C133.328 357.672 132.743 357.786 132.071 357.786C131.843 357.786 131.68 357.781 131.583 357.77C131.106 357.748 130.618 357.624 130.119 357.396C128.732 356.702 128.038 355.325 128.038 353.266C128.038 352.182 128.287 351.217 128.786 350.371C129.404 349.374 130.466 348.875 131.973 348.875C133.035 348.875 133.881 349.146 134.51 349.688C135.138 350.22 135.502 350.919 135.599 351.786H134.233C134.016 350.518 133.274 349.884 132.006 349.884C131.182 349.884 130.564 350.187 130.152 350.794C129.751 351.39 129.55 352.214 129.55 353.266C129.55 354.285 129.762 355.125 130.184 355.786C130.607 356.447 131.247 356.778 132.103 356.778C132.84 356.778 133.377 356.545 133.713 356.079C134.071 355.613 134.266 355.092 134.298 354.518ZM143.288 345.542H144.507C144.464 346.333 144.096 346.859 143.402 347.119C143.022 347.249 142.697 347.336 142.426 347.379C141.212 347.531 140.507 347.634 140.312 347.688C139.575 347.894 139.011 348.268 138.621 348.81C138.231 349.342 138.025 350.106 138.003 351.103H138.036C138.556 349.705 139.624 349.005 141.239 349.005C142.551 349.005 143.532 349.439 144.182 350.306C144.844 351.163 145.174 352.214 145.174 353.461C145.174 354.653 144.833 355.672 144.15 356.518C143.467 357.363 142.453 357.786 141.109 357.786C139.624 357.786 138.524 357.222 137.808 356.095C137.45 355.477 137.206 354.783 137.076 354.014C136.99 353.407 136.946 352.805 136.946 352.209C136.946 350.117 137.266 348.653 137.906 347.818C138.469 347.092 139.234 346.626 140.198 346.42C141.109 346.214 141.879 346.095 142.507 346.062C142.93 346.008 143.19 345.835 143.288 345.542ZM138.459 353.558C138.459 354.274 138.621 354.962 138.946 355.624C139.326 356.393 140.036 356.778 141.076 356.778C141.9 356.778 142.535 356.502 142.979 355.949C143.434 355.385 143.662 354.61 143.662 353.623C143.662 352.81 143.521 352.057 143.239 351.363C142.881 350.464 142.161 350.014 141.076 350.014C139.992 350.014 139.261 350.453 138.881 351.331C138.599 352.003 138.459 352.745 138.459 353.558ZM146.781 354.957C146.499 353.797 146.51 352.675 146.813 351.591C147.117 350.507 147.756 349.732 148.732 349.266C149.274 349.005 149.908 348.875 150.634 348.875C151.361 348.875 151.995 349.005 152.537 349.266C153.512 349.721 154.157 350.534 154.472 351.705C154.613 352.247 154.683 352.794 154.683 353.347C154.694 353.889 154.629 354.426 154.488 354.957C154.358 355.477 154.125 355.954 153.789 356.388C153.464 356.821 153.046 357.163 152.537 357.412C151.984 357.661 151.35 357.786 150.634 357.786C149.919 357.786 149.285 357.661 148.732 357.412C147.789 356.957 147.138 356.138 146.781 354.957ZM148.293 351.688C148.152 352.122 148.081 352.664 148.081 353.315C148.081 353.954 148.152 354.502 148.293 354.957C148.434 355.412 148.596 355.754 148.781 355.981C149.171 356.415 149.615 356.67 150.114 356.745C150.461 356.8 150.808 356.8 151.155 356.745C151.306 356.735 151.518 356.659 151.789 356.518C152.082 356.366 152.32 356.176 152.504 355.949C152.689 355.721 152.846 355.39 152.976 354.957C153.117 354.502 153.187 353.954 153.187 353.315C153.187 352.664 153.117 352.122 152.976 351.688C152.824 351.211 152.656 350.87 152.472 350.664C152.298 350.458 152.082 350.285 151.821 350.144C151.561 350.003 151.339 349.916 151.155 349.884C150.808 349.829 150.461 349.829 150.114 349.884C149.962 349.894 149.745 349.976 149.464 350.127C148.911 350.398 148.52 350.919 148.293 351.688ZM156.568 360.469V349.201H157.902V350.339H157.951C158.601 349.363 159.512 348.875 160.682 348.875C161.756 348.875 162.644 349.249 163.349 349.997C164.054 350.756 164.406 351.867 164.406 353.331C164.406 354.827 164.048 355.943 163.333 356.68C162.628 357.418 161.756 357.786 160.715 357.786C160.39 357.786 159.994 357.716 159.528 357.575C158.845 357.369 158.335 356.935 157.999 356.274V360.469H156.568ZM157.902 353.363C157.902 354.512 158.162 355.374 158.682 355.949C159.224 356.502 159.815 356.778 160.455 356.778C161.127 356.778 161.701 356.507 162.178 355.965C162.655 355.401 162.894 354.523 162.894 353.331C162.894 352.247 162.672 351.401 162.227 350.794C161.793 350.187 161.176 349.884 160.373 349.884C159.951 349.884 159.555 349.997 159.186 350.225C158.33 350.735 157.902 351.781 157.902 353.363ZM166.278 360.453V359.396C166.69 359.45 166.928 359.477 166.993 359.477C167.405 359.477 167.698 359.325 167.872 359.022C167.98 358.859 168.05 358.724 168.083 358.615C168.115 358.561 168.186 358.382 168.294 358.079L168.489 357.461L164.912 349.201H166.619L169.27 355.884L171.465 349.201H172.896L169.611 358.437C169.351 359.174 169.129 359.656 168.945 359.884C168.576 360.317 168.077 360.534 167.449 360.534C166.961 360.534 166.571 360.507 166.278 360.453ZM183.473 350.209H179.294V357.461H177.863V349.201H184.903V357.461H183.473V350.209ZM186.288 357.461V356.404C187.101 356.642 187.676 356.258 188.012 355.25C188.098 355 188.158 354.691 188.191 354.323L188.256 353.331C188.266 353.157 188.272 352.816 188.272 352.306V349.201H193.996V357.461H192.565V350.209H189.605V352.306C189.605 352.989 189.589 353.564 189.556 354.03C189.524 354.485 189.443 354.984 189.313 355.526C189.128 356.296 188.798 356.843 188.321 357.168C187.844 357.493 187.166 357.591 186.288 357.461ZM197.42 351.64H196.054C196.054 350.989 196.271 350.393 196.704 349.851C197.225 349.201 198.179 348.875 199.566 348.875C200.379 348.875 201.095 349.038 201.713 349.363C202.07 349.537 202.352 349.824 202.558 350.225C202.764 350.626 202.862 351.103 202.851 351.656L202.77 355.477C202.77 355.792 202.802 356.035 202.867 356.209C202.965 356.382 203.219 356.464 203.631 356.453V357.461C203.469 357.504 203.252 357.526 202.981 357.526C202.504 357.526 202.157 357.445 201.94 357.282C201.734 357.119 201.588 356.8 201.501 356.323C200.97 357.298 200.027 357.786 198.672 357.786C197.74 357.786 197.019 357.58 196.509 357.168C196.011 356.745 195.761 356.122 195.761 355.298C195.761 354.518 196.043 353.927 196.607 353.526C197.171 353.103 198.238 352.821 199.81 352.68C200.536 352.626 200.97 352.556 201.111 352.469C201.317 352.328 201.42 352.019 201.42 351.542C201.42 350.436 200.802 349.884 199.566 349.884C198.103 349.884 197.387 350.469 197.42 351.64ZM201.387 353.932L201.42 353.233C201.257 353.352 201.019 353.45 200.705 353.526C200.228 353.558 199.859 353.596 199.599 353.64C198.699 353.791 198.152 353.916 197.956 354.014C197.48 354.241 197.241 354.653 197.241 355.25C197.241 355.726 197.382 356.1 197.664 356.371C197.956 356.642 198.347 356.778 198.835 356.778C199.149 356.778 199.436 356.735 199.696 356.648C199.967 356.561 200.228 356.42 200.477 356.225C200.737 356.019 200.943 355.721 201.095 355.331C201.257 354.941 201.355 354.474 201.387 353.932ZM211.107 354.518H212.473C212.429 355.147 212.191 355.808 211.757 356.502C211.519 356.892 211.145 357.206 210.635 357.445C210.137 357.672 209.551 357.786 208.879 357.786C208.652 357.786 208.489 357.781 208.391 357.77C207.914 357.748 207.427 357.624 206.928 357.396C205.54 356.702 204.847 355.325 204.847 353.266C204.847 352.182 205.096 351.217 205.595 350.371C206.213 349.374 207.275 348.875 208.782 348.875C209.844 348.875 210.69 349.146 211.318 349.688C211.947 350.22 212.31 350.919 212.408 351.786H211.042C210.825 350.518 210.083 349.884 208.814 349.884C207.99 349.884 207.372 350.187 206.96 350.794C206.559 351.39 206.359 352.214 206.359 353.266C206.359 354.285 206.57 355.125 206.993 355.786C207.416 356.447 208.055 356.778 208.912 356.778C209.649 356.778 210.185 356.545 210.522 356.079C210.879 355.613 211.074 355.092 211.107 354.518ZM215.843 357.461V350.209H212.981V349.201H220.136V350.209H217.274V357.461H215.843ZM222.66 349.201V355.786L226.969 349.201H228.563V357.461H227.132V350.859L222.839 357.461H221.229V349.201H222.66ZM232.331 349.201V352.81L235.859 349.201H237.534L233.664 353.038L237.746 357.461H236.038L232.331 353.331V357.461H230.9V349.201H232.331ZM238.294 354.957C238.012 353.797 238.023 352.675 238.326 351.591C238.63 350.507 239.269 349.732 240.245 349.266C240.787 349.005 241.421 348.875 242.147 348.875C242.874 348.875 243.508 349.005 244.05 349.266C245.025 349.721 245.67 350.534 245.985 351.705C246.126 352.247 246.196 352.794 246.196 353.347C246.207 353.889 246.142 354.426 246.001 354.957C245.871 355.477 245.638 355.954 245.302 356.388C244.977 356.821 244.559 357.163 244.05 357.412C243.497 357.661 242.863 357.786 242.147 357.786C241.432 357.786 240.798 357.661 240.245 357.412C239.302 356.957 238.651 356.138 238.294 354.957ZM239.806 351.688C239.665 352.122 239.594 352.664 239.594 353.315C239.594 353.954 239.665 354.502 239.806 354.957C239.947 355.412 240.109 355.754 240.294 355.981C240.684 356.415 241.128 356.67 241.627 356.745C241.974 356.8 242.321 356.8 242.668 356.745C242.819 356.735 243.031 356.659 243.302 356.518C243.595 356.366 243.833 356.176 244.017 355.949C244.202 355.721 244.359 355.39 244.489 354.957C244.63 354.502 244.7 353.954 244.7 353.315C244.7 352.664 244.63 352.122 244.489 351.688C244.337 351.211 244.169 350.87 243.985 350.664C243.811 350.458 243.595 350.285 243.334 350.144C243.074 350.003 242.852 349.916 242.668 349.884C242.321 349.829 241.974 349.829 241.627 349.884C241.475 349.894 241.258 349.976 240.977 350.127C240.424 350.398 240.033 350.919 239.806 351.688ZM248.081 357.461V349.201H252.016C253.762 349.201 254.634 349.856 254.634 351.168C254.634 352.111 254.136 352.756 253.138 353.103V353.152C253.811 353.315 254.277 353.575 254.537 353.932C254.808 354.29 254.943 354.751 254.943 355.315C254.943 356.214 254.613 356.811 253.951 357.103C253.409 357.342 252.748 357.461 251.968 357.461H248.081ZM251.561 350.209H249.512V352.648H251.496C252.071 352.648 252.493 352.534 252.764 352.306C253.046 352.068 253.187 351.759 253.187 351.38C253.187 350.599 252.645 350.209 251.561 350.209ZM251.561 353.656H249.512V356.453H251.61C252.846 356.453 253.464 356.03 253.464 355.184C253.464 354.165 252.829 353.656 251.561 353.656ZM256.847 357.461V349.201H258.278V352.469H260.359C261.02 352.469 261.573 352.534 262.018 352.664C263.08 352.935 263.633 353.71 263.676 354.989C263.676 355.748 263.443 356.35 262.977 356.794C262.522 357.239 261.812 357.461 260.847 357.461H256.847ZM260.018 353.477H258.278V356.453H260.278C261.557 356.453 262.197 355.932 262.197 354.892C262.197 354.382 262.029 354.014 261.692 353.786C261.584 353.699 261.405 353.629 261.156 353.575C260.896 353.51 260.516 353.477 260.018 353.477ZM264.684 357.461V349.201H266.115V357.461H264.684ZM269.105 349.201L271.219 352.258L273.333 349.201H274.926L272.032 353.152L275.154 357.461H273.56L271.219 354.062L268.877 357.461H267.284L270.406 353.152L267.512 349.201H269.105ZM279.866 354.957C279.584 353.797 279.595 352.675 279.898 351.591C280.202 350.507 280.841 349.732 281.817 349.266C282.359 349.005 282.993 348.875 283.72 348.875C284.446 348.875 285.08 349.005 285.622 349.266C286.598 349.721 287.243 350.534 287.557 351.705C287.698 352.247 287.768 352.794 287.768 353.347C287.779 353.889 287.714 354.426 287.573 354.957C287.443 355.477 287.21 355.954 286.874 356.388C286.549 356.821 286.132 357.163 285.622 357.412C285.069 357.661 284.435 357.786 283.72 357.786C283.004 357.786 282.37 357.661 281.817 357.412C280.874 356.957 280.224 356.138 279.866 354.957ZM281.378 351.688C281.237 352.122 281.167 352.664 281.167 353.315C281.167 353.954 281.237 354.502 281.378 354.957C281.519 355.412 281.682 355.754 281.866 355.981C282.256 356.415 282.701 356.67 283.199 356.745C283.546 356.8 283.893 356.8 284.24 356.745C284.392 356.735 284.603 356.659 284.874 356.518C285.167 356.366 285.405 356.176 285.59 355.949C285.774 355.721 285.931 355.39 286.061 354.957C286.202 354.502 286.273 353.954 286.273 353.315C286.273 352.664 286.202 352.122 286.061 351.688C285.909 351.211 285.741 350.87 285.557 350.664C285.384 350.458 285.167 350.285 284.907 350.144C284.646 350.003 284.424 349.916 284.24 349.884C283.893 349.829 283.546 349.829 283.199 349.884C283.048 349.894 282.831 349.976 282.549 350.127C281.996 350.398 281.606 350.919 281.378 351.688ZM291.048 357.461V350.209H288.186V349.201H295.341V350.209H292.479V357.461H291.048ZM297.37 349.201L299.484 352.258L301.598 349.201H303.192L300.297 353.152L303.419 357.461H301.826L299.484 354.062L297.143 357.461H295.549L298.671 353.152L295.777 349.201H297.37ZM304.336 354.957C304.054 353.797 304.065 352.675 304.369 351.591C304.672 350.507 305.312 349.732 306.287 349.266C306.829 349.005 307.463 348.875 308.19 348.875C308.916 348.875 309.55 349.005 310.092 349.266C311.068 349.721 311.713 350.534 312.027 351.705C312.168 352.247 312.239 352.794 312.239 353.347C312.249 353.889 312.184 354.426 312.043 354.957C311.913 355.477 311.68 355.954 311.344 356.388C311.019 356.821 310.602 357.163 310.092 357.412C309.539 357.661 308.905 357.786 308.19 357.786C307.474 357.786 306.84 357.661 306.287 357.412C305.344 356.957 304.694 356.138 304.336 354.957ZM305.848 351.688C305.707 352.122 305.637 352.664 305.637 353.315C305.637 353.954 305.707 354.502 305.848 354.957C305.989 355.412 306.152 355.754 306.336 355.981C306.726 356.415 307.171 356.67 307.669 356.745C308.016 356.8 308.363 356.8 308.71 356.745C308.862 356.735 309.073 356.659 309.344 356.518C309.637 356.366 309.875 356.176 310.06 355.949C310.244 355.721 310.401 355.39 310.531 354.957C310.672 354.502 310.743 353.954 310.743 353.315C310.743 352.664 310.672 352.122 310.531 351.688C310.38 351.211 310.211 350.87 310.027 350.664C309.854 350.458 309.637 350.285 309.377 350.144C309.117 350.003 308.894 349.916 308.71 349.884C308.363 349.829 308.016 349.829 307.669 349.884C307.518 349.894 307.301 349.976 307.019 350.127C306.466 350.398 306.076 350.919 305.848 351.688ZM313.083 359.607L312.953 356.453H313.994C314.893 355.13 315.343 353.174 315.343 350.583V349.201H321.262V356.453H322.693L322.579 359.607H321.376V357.461H314.286V359.607H313.083ZM319.831 356.453V350.209H316.677V351.363C316.677 352.241 316.579 353.152 316.384 354.095C316.211 355.027 315.918 355.813 315.506 356.453H319.831ZM323.661 354.957C323.379 353.797 323.39 352.675 323.694 351.591C323.997 350.507 324.637 349.732 325.613 349.266C326.155 349.005 326.789 348.875 327.515 348.875C328.241 348.875 328.875 349.005 329.417 349.266C330.393 349.721 331.038 350.534 331.352 351.705C331.493 352.247 331.564 352.794 331.564 353.347C331.575 353.889 331.51 354.426 331.369 354.957C331.239 355.477 331.006 355.954 330.67 356.388C330.344 356.821 329.927 357.163 329.417 357.412C328.865 357.661 328.23 357.786 327.515 357.786C326.8 357.786 326.165 357.661 325.613 357.412C324.669 356.957 324.019 356.138 323.661 354.957ZM325.173 351.688C325.033 352.122 324.962 352.664 324.962 353.315C324.962 353.954 325.033 354.502 325.173 354.957C325.314 355.412 325.477 355.754 325.661 355.981C326.052 356.415 326.496 356.67 326.995 356.745C327.342 356.8 327.688 356.8 328.035 356.745C328.187 356.735 328.398 356.659 328.669 356.518C328.962 356.366 329.201 356.176 329.385 355.949C329.569 355.721 329.726 355.39 329.856 354.957C329.997 354.502 330.068 353.954 330.068 353.315C330.068 352.664 329.997 352.122 329.856 351.688C329.705 351.211 329.537 350.87 329.352 350.664C329.179 350.458 328.962 350.285 328.702 350.144C328.442 350.003 328.22 349.916 328.035 349.884C327.688 349.829 327.342 349.829 326.995 349.884C326.843 349.894 326.626 349.976 326.344 350.127C325.791 350.398 325.401 350.919 325.173 351.688ZM333.449 357.461V349.201H337.384C339.129 349.201 340.002 349.856 340.002 351.168C340.002 352.111 339.503 352.756 338.506 353.103V353.152C339.178 353.315 339.644 353.575 339.904 353.932C340.175 354.29 340.311 354.751 340.311 355.315C340.311 356.214 339.98 356.811 339.319 357.103C338.777 357.342 338.116 357.461 337.335 357.461H333.449ZM336.929 350.209H334.88V352.648H336.864C337.438 352.648 337.861 352.534 338.132 352.306C338.414 352.068 338.555 351.759 338.555 351.38C338.555 350.599 338.013 350.209 336.929 350.209ZM336.929 353.656H334.88V356.453H336.978C338.213 356.453 338.831 356.03 338.831 355.184C338.831 354.165 338.197 353.656 336.929 353.656Z" fill="black"/>
<rect x="20.1631" y="20.4878" width="6.5042" height="6.5042" fill="black"/>
<rect x="20.1631" y="271.549" width="6.5042" height="6.5042" fill="black"/>
<rect x="365.634" y="20.4878" width="6.5042" height="6.5042" fill="black"/>
<rect x="91.0596" y="271.549" width="6.5042" height="6.5042" fill="black"/>
<rect x="365.634" y="271.549" width="6.5042" height="6.5042" fill="black"/>
</svg>
