<svg width="320" height="320" viewBox="0 0 320 320" fill="none" xmlns="http://www.w3.org/2000/svg">
<rect width="319.694" height="319.694" fill="white"/>
<path d="M78.7029 34.5378C78.7029 30.9916 79.5993 28.2827 81.3921 26.4111C83.2046 24.5198 85.5982 23.5742 88.5731 23.5742C90.622 23.5742 92.4345 24.0568 94.0106 25.0222C95.37 25.8102 96.4437 27.0021 97.2317 28.5979C98.0198 30.174 98.4236 32.154 98.4433 34.5378C98.4433 35.976 98.2759 37.3157 97.941 38.5568C97.3105 40.7239 96.3058 42.3394 94.9267 43.4033C93.6855 44.3489 92.3951 44.9498 91.0554 45.2059C90.2083 45.4029 89.3808 45.5014 88.5731 45.5014C88.12 45.5014 87.7851 45.4916 87.5683 45.4719C86.4848 45.4128 85.3323 45.1271 84.1108 44.6149C82.4953 43.8466 81.2542 42.7925 80.3873 41.4529C79.2643 39.6601 78.7029 37.3551 78.7029 34.5378ZM81.658 34.5378C81.658 36.1533 81.9043 37.6407 82.3968 39.0001C83.4016 41.7779 85.4603 43.1669 88.5731 43.1669C88.9474 43.1669 89.2232 43.157 89.4005 43.1373C90.2477 43.0979 91.0751 42.8517 91.8829 42.3985C94.2864 41.1377 95.4882 38.5174 95.4882 34.5378C95.4882 31.957 94.907 29.8785 93.7446 28.3024C92.602 26.7066 90.8781 25.9087 88.5731 25.9087C87.4304 25.9087 86.406 26.1353 85.4997 26.5884C84.5935 27.0416 83.8842 27.6129 83.372 28.3024C82.8992 28.9526 82.5347 29.7012 82.2786 30.5483C81.8649 31.8289 81.658 33.1587 81.658 34.5378ZM101.895 50.3479V29.8687H104.319V31.9373H104.407C105.589 30.1642 107.244 29.2776 109.372 29.2776C111.322 29.2776 112.938 29.9573 114.218 31.3167C115.499 32.6958 116.139 34.7151 116.139 37.3748C116.139 40.0935 115.489 42.1227 114.189 43.4624C112.908 44.8021 111.322 45.4719 109.431 45.4719C108.84 45.4719 108.121 45.3438 107.274 45.0877C106.033 44.7134 105.107 43.9254 104.496 42.7236V50.3479H101.895ZM104.319 37.4339C104.319 39.5222 104.791 41.0884 105.737 42.1326C106.722 43.1373 107.796 43.6397 108.958 43.6397C110.18 43.6397 111.224 43.1472 112.091 42.1621C112.957 41.1377 113.391 39.5419 113.391 37.3748C113.391 35.4047 112.987 33.868 112.179 32.7647C111.391 31.6614 110.268 31.1098 108.81 31.1098C108.042 31.1098 107.323 31.3167 106.653 31.7304C105.097 32.6564 104.319 34.5575 104.319 37.4339ZM121.508 34.3014H119.026C119.026 33.1193 119.42 32.0358 120.208 31.0507C121.153 29.8687 122.887 29.2776 125.409 29.2776C126.886 29.2776 128.187 29.5731 129.31 30.1642C129.96 30.4794 130.472 31.0015 130.846 31.7304C131.221 32.4593 131.398 33.3262 131.378 34.3309L131.231 41.2756C131.231 41.8469 131.29 42.2902 131.408 42.6054C131.585 42.9206 132.048 43.0684 132.797 43.0487V44.8809C132.501 44.9597 132.107 44.9991 131.615 44.9991C130.748 44.9991 130.117 44.8513 129.723 44.5558C129.349 44.2603 129.083 43.6791 128.926 42.8122C127.96 44.5853 126.246 45.4719 123.784 45.4719C122.089 45.4719 120.779 45.0976 119.853 44.3489C118.947 43.5806 118.494 42.4478 118.494 40.9505C118.494 39.532 119.006 38.4583 120.031 37.7294C121.055 36.961 122.996 36.4488 125.852 36.1927C127.172 36.0942 127.96 35.9661 128.216 35.8085C128.591 35.5524 128.778 34.9909 128.778 34.1241C128.778 32.1146 127.655 31.1098 125.409 31.1098C122.749 31.1098 121.449 32.1737 121.508 34.3014ZM128.719 38.4682L128.778 37.1974C128.482 37.4142 128.049 37.5915 127.478 37.7294C126.611 37.7885 125.941 37.8574 125.468 37.9362C123.833 38.2121 122.838 38.4386 122.483 38.6159C121.616 39.0296 121.183 39.7783 121.183 40.8618C121.183 41.7287 121.439 42.4084 121.951 42.9009C122.483 43.3934 123.193 43.6397 124.079 43.6397C124.65 43.6397 125.173 43.5609 125.645 43.4033C126.138 43.2457 126.611 42.9896 127.064 42.6349C127.537 42.2606 127.911 41.7188 128.187 41.0096C128.482 40.3004 128.66 39.4532 128.719 38.4682ZM136.867 32.1441V24.1947H139.793V32.1441L139.054 38.941H137.606L136.867 32.1441ZM139.793 44.8809H136.867V41.6597H139.793V44.8809ZM152.321 44.8809V24.1947H161.393C162.575 24.1947 163.59 24.3524 164.437 24.6676C165.284 24.9631 165.925 25.3867 166.358 25.9383C166.791 26.4702 167.097 27.0218 167.274 27.5932C167.471 28.1645 167.57 28.7851 167.57 29.4549C167.57 30.5582 167.235 31.5334 166.565 32.3805C165.915 33.2277 165.097 33.7301 164.112 33.8877V33.9763C164.605 34.0551 165.077 34.193 165.531 34.39C165.984 34.5871 166.437 34.8727 166.89 35.247C167.363 35.6214 167.737 36.1434 168.013 36.8133C168.308 37.4831 168.456 38.2515 168.456 39.1183C168.456 42.96 165.993 44.8809 161.068 44.8809H152.321ZM160.773 26.5293H155.099V32.9716H160.684C162.043 32.9716 163.058 32.6859 163.728 32.1146C164.398 31.5235 164.733 30.7355 164.733 29.7504C164.733 29.3958 164.683 29.0609 164.585 28.7457C164.486 28.4108 164.309 28.066 164.053 27.7114C163.797 27.3568 163.383 27.0711 162.812 26.8544C162.26 26.6377 161.58 26.5293 160.773 26.5293ZM160.861 35.3061H155.099V42.5463H160.861C161.768 42.5463 162.595 42.4379 163.344 42.2212C164.861 41.7681 165.619 40.655 165.619 38.8819C165.619 36.4981 164.033 35.3061 160.861 35.3061ZM171.838 40.3299C171.326 38.2219 171.346 36.1828 171.897 34.2127C172.449 32.2426 173.611 30.834 175.385 29.9869C176.37 29.514 177.522 29.2776 178.842 29.2776C180.162 29.2776 181.315 29.514 182.3 29.9869C184.073 30.8143 185.245 32.2919 185.816 34.4196C186.072 35.4047 186.2 36.3996 186.2 37.4043C186.22 38.3894 186.102 39.3646 185.846 40.3299C185.609 41.2756 185.186 42.1424 184.575 42.9305C183.984 43.7185 183.226 44.3391 182.3 44.7922C181.295 45.2453 180.142 45.4719 178.842 45.4719C177.542 45.4719 176.389 45.2453 175.385 44.7922C173.671 43.9648 172.489 42.4773 171.838 40.3299ZM174.587 34.39C174.331 35.1781 174.203 36.1631 174.203 37.3452C174.203 38.5076 174.331 39.5025 174.587 40.3299C174.843 41.1574 175.138 41.7779 175.473 42.1917C176.182 42.9797 176.99 43.4427 177.896 43.5806C178.527 43.6791 179.157 43.6791 179.788 43.5806C180.064 43.5609 180.448 43.423 180.94 43.1669C181.472 42.8911 181.906 42.5463 182.241 42.1326C182.575 41.7188 182.861 41.118 183.098 40.3299C183.354 39.5025 183.482 38.5076 183.482 37.3452C183.482 36.1631 183.354 35.1781 183.098 34.39C182.822 33.5232 182.516 32.9026 182.181 32.5283C181.866 32.154 181.472 31.8388 180.999 31.5826C180.527 31.3265 180.123 31.1689 179.788 31.1098C179.157 31.0113 178.527 31.0113 177.896 31.1098C177.621 31.1295 177.227 31.2773 176.714 31.5531C175.71 32.0456 175 32.9913 174.587 34.39ZM189.627 50.3479V29.8687H192.05V31.9373H192.138C193.321 30.1642 194.975 29.2776 197.103 29.2776C199.054 29.2776 200.669 29.9573 201.95 31.3167C203.23 32.6958 203.87 34.7151 203.87 37.3748C203.87 40.0935 203.22 42.1227 201.92 43.4624C200.639 44.8021 199.054 45.4719 197.162 45.4719C196.571 45.4719 195.852 45.3438 195.005 45.0877C193.764 44.7134 192.838 43.9254 192.227 42.7236V50.3479H189.627ZM192.05 37.4339C192.05 39.5222 192.523 41.0884 193.468 42.1326C194.453 43.1373 195.527 43.6397 196.689 43.6397C197.911 43.6397 198.955 43.1472 199.822 42.1621C200.689 41.1377 201.122 39.5419 201.122 37.3748C201.122 35.4047 200.718 33.868 199.911 32.7647C199.123 31.6614 198 31.1098 196.542 31.1098C195.773 31.1098 195.054 31.3167 194.384 31.7304C192.828 32.6564 192.05 34.5575 192.05 37.4339ZM209.86 29.8687V36.4291L216.273 29.8687H219.316L212.283 36.8428L219.701 44.8809H216.598L209.86 37.3748V44.8809H207.259V29.8687H209.86ZM224.318 29.8687V43.0487H230.583V29.8687H233.184V43.0487H239.449V29.8687H242.049V44.8809H221.718V29.8687H224.318ZM245.833 40.3299C245.321 38.2219 245.34 36.1828 245.892 34.2127C246.444 32.2426 247.606 30.834 249.379 29.9869C250.364 29.514 251.517 29.2776 252.837 29.2776C254.156 29.2776 255.309 29.514 256.294 29.9869C258.067 30.8143 259.239 32.2919 259.811 34.4196C260.067 35.4047 260.195 36.3996 260.195 37.4043C260.215 38.3894 260.096 39.3646 259.84 40.3299C259.604 41.2756 259.18 42.1424 258.57 42.9305C257.978 43.7185 257.22 44.3391 256.294 44.7922C255.289 45.2453 254.137 45.4719 252.837 45.4719C251.536 45.4719 250.384 45.2453 249.379 44.7922C247.665 43.9648 246.483 42.4773 245.833 40.3299ZM248.581 34.39C248.325 35.1781 248.197 36.1631 248.197 37.3452C248.197 38.5076 248.325 39.5025 248.581 40.3299C248.837 41.1574 249.133 41.7779 249.468 42.1917C250.177 42.9797 250.985 43.4427 251.891 43.5806C252.521 43.6791 253.152 43.6791 253.782 43.5806C254.058 43.5609 254.442 43.423 254.935 43.1669C255.467 42.8911 255.9 42.5463 256.235 42.1326C256.57 41.7188 256.856 41.118 257.092 40.3299C257.348 39.5025 257.476 38.5076 257.476 37.3452C257.476 36.1631 257.348 35.1781 257.092 34.39C256.816 33.5232 256.511 32.9026 256.176 32.5283C255.861 32.154 255.467 31.8388 254.994 31.5826C254.521 31.3265 254.117 31.1689 253.782 31.1098C253.152 31.0113 252.521 31.0113 251.891 31.1098C251.615 31.1295 251.221 31.2773 250.709 31.5531C249.704 32.0456 248.995 32.9913 248.581 34.39ZM273.816 31.7009H266.222V44.8809H263.621V29.8687H276.417V44.8809H273.816V31.7009ZM77.6095 78.7817L77.373 73.0487H79.2643C80.8995 70.6451 81.7171 67.0891 81.7171 62.3805V59.8687H92.4739V73.0487H95.0744L94.8676 78.7817H92.6808V74.8809H79.7963V78.7817H77.6095ZM89.8734 73.0487V61.7009H84.1404V63.799C84.1404 65.3948 83.9631 67.0497 83.6084 68.7637C83.2932 70.458 82.7613 71.8863 82.0126 73.0487H89.8734ZM96.3135 74.8809V72.96C97.7911 73.3934 98.8353 72.694 99.446 70.8618C99.6036 70.4087 99.712 69.8472 99.7711 69.1774L99.8893 67.3748C99.909 67.0595 99.9188 66.439 99.9188 65.513V59.8687H110.321V74.8809H107.72V61.7009H102.342V65.513C102.342 66.7542 102.313 67.7983 102.253 68.6455C102.194 69.4729 102.047 70.3792 101.81 71.3642C101.475 72.763 100.874 73.7579 100.007 74.3489C99.1406 74.94 97.9093 75.1173 96.3135 74.8809ZM123.755 68.9705H120.327L116.397 74.8809H113.53L117.667 68.941C116.525 68.8228 115.599 68.3795 114.889 67.6112C114.18 66.8428 113.826 65.8381 113.826 64.5969C113.826 63.4345 114.131 62.4199 114.742 61.5531C115.471 60.4301 116.85 59.8687 118.879 59.8687H126.355V74.8809H123.755V68.9705ZM123.755 67.1383V61.7009H120.002C117.677 61.7009 116.515 62.6367 116.515 64.5083C116.515 65.2766 116.8 65.907 117.372 66.3996C117.943 66.8921 118.849 67.1383 120.091 67.1383H123.755ZM135.616 78.7817L135.38 73.0487H137.271C138.906 70.6451 139.724 67.0891 139.724 62.3805V59.8687H150.48V73.0487H153.081L152.874 78.7817H150.687V74.8809H137.803V78.7817H135.616ZM147.88 73.0487V61.7009H142.147V63.799C142.147 65.3948 141.97 67.0497 141.615 68.7637C141.3 70.458 140.768 71.8863 140.019 73.0487H147.88ZM157.914 59.8687V71.837L165.745 59.8687H168.641V74.8809H166.041V62.8829L158.239 74.8809H155.313V59.8687H157.914ZM171.706 70.2708H174.189C174.189 71.2559 174.543 72.0636 175.253 72.694C175.962 73.3245 176.937 73.6397 178.178 73.6397C179.4 73.6397 180.355 73.3934 181.045 72.9009C181.734 72.3887 182.079 71.6499 182.079 70.6845C182.079 68.8917 180.946 67.9953 178.68 67.9953H176.464V66.1631H178.385C180.473 66.1631 181.517 65.3849 181.517 63.8286C181.517 63.5725 181.478 63.3163 181.399 63.0602C181.34 62.8041 181.202 62.5184 180.986 62.2032C180.789 61.8683 180.444 61.6023 179.951 61.4053C179.459 61.2083 178.848 61.1098 178.119 61.1098C176.819 61.1098 175.903 61.4152 175.371 62.0259C174.839 62.6367 174.573 63.2966 174.573 64.0059H172.09C172.15 62.9814 172.416 62.1244 172.888 61.4349C173.361 60.7454 173.972 60.2528 174.721 59.9573C175.942 59.5042 177.124 59.2776 178.267 59.2776C179.272 59.2776 180.158 59.3958 180.926 59.6322C181.695 59.849 182.276 60.1149 182.67 60.4301C183.084 60.7454 183.409 61.1197 183.645 61.5531C183.901 61.9865 184.059 62.3707 184.118 62.7056C184.177 63.0208 184.207 63.336 184.207 63.6513C184.207 65.4047 183.34 66.4981 181.606 66.9315V67.0201C182.532 67.158 183.291 67.5619 183.882 68.2318C184.473 68.9016 184.768 69.7783 184.768 70.8618C184.768 71.9651 184.374 72.9699 183.586 73.8761C182.621 74.94 180.887 75.4719 178.385 75.4719C176.277 75.4719 174.671 75.0286 173.568 74.1421C172.327 73.0585 171.706 71.7681 171.706 70.2708ZM190.135 64.3014H187.652C187.652 63.1193 188.046 62.0358 188.834 61.0507C189.78 59.8687 191.514 59.2776 194.036 59.2776C195.513 59.2776 196.813 59.5731 197.936 60.1642C198.586 60.4794 199.099 61.0015 199.473 61.7304C199.847 62.4593 200.025 63.3262 200.005 64.3309L199.857 71.2756C199.857 71.8469 199.916 72.2902 200.035 72.6054C200.212 72.9206 200.675 73.0684 201.423 73.0487V74.8809C201.128 74.9597 200.734 74.9991 200.241 74.9991C199.375 74.9991 198.744 74.8513 198.35 74.5558C197.976 74.2603 197.71 73.6791 197.552 72.8122C196.587 74.5853 194.873 75.4719 192.41 75.4719C190.716 75.4719 189.406 75.0976 188.48 74.3489C187.574 73.5806 187.12 72.4478 187.12 70.9505C187.12 69.532 187.633 68.4583 188.657 67.7294C189.682 66.961 191.622 66.4488 194.479 66.1927C195.799 66.0942 196.587 65.9661 196.843 65.8085C197.217 65.5524 197.404 64.9909 197.404 64.1241C197.404 62.1146 196.281 61.1098 194.036 61.1098C191.376 61.1098 190.076 62.1737 190.135 64.3014ZM197.345 68.4682L197.404 67.1974C197.109 67.4142 196.675 67.5915 196.104 67.7294C195.237 67.7885 194.567 67.8574 194.095 67.9362C192.459 68.2121 191.465 68.4386 191.11 68.6159C190.243 69.0296 189.81 69.7783 189.81 70.8618C189.81 71.7287 190.066 72.4084 190.578 72.9009C191.11 73.3934 191.819 73.6397 192.706 73.6397C193.277 73.6397 193.799 73.5609 194.272 73.4033C194.764 73.2457 195.237 72.9896 195.69 72.6349C196.163 72.2606 196.538 71.7188 196.813 71.0096C197.109 70.3004 197.286 69.4532 197.345 68.4682ZM207.09 59.8687V71.837L214.921 59.8687H217.817V74.8809H215.216V62.8829L207.415 74.8809H204.489V59.8687H207.09ZM213.945 54.1947H216.162C215.748 56.3619 214.448 57.6326 212.261 58.0069C211.887 58.066 211.493 58.0956 211.079 58.0956C208.538 58.0956 206.912 57.0613 206.203 54.9926C206.144 54.8547 206.075 54.5888 205.996 54.1947H208.212C208.153 54.707 208.331 55.1897 208.744 55.6428C209.04 55.958 209.385 56.1944 209.779 56.352C210.133 56.4702 210.567 56.5293 211.079 56.5293C211.926 56.5293 212.626 56.3225 213.177 55.9087C213.729 55.4753 213.985 54.904 213.945 54.1947ZM232.082 67.8771H224.665V74.8809H222.064V59.8687H224.665V66.0449H232.082V59.8687H234.683V74.8809H232.082V67.8771ZM249.762 70.5368H252.245C252.008 71.8567 251.368 73.0093 250.324 73.9943C249.28 74.9794 247.733 75.4719 245.684 75.4719C242.906 75.4719 240.867 74.5558 239.567 72.7236C238.917 71.7582 238.493 70.7239 238.296 69.6207C238.159 68.8523 238.09 68.1234 238.09 67.4339C238.09 66.1139 238.287 64.8727 238.681 63.7104C238.937 62.8829 239.311 62.1638 239.804 61.5531C240.336 60.903 241.094 60.3612 242.079 59.9278C243.064 59.4943 244.177 59.2776 245.418 59.2776C247.625 59.2776 249.29 59.8884 250.413 61.1098C250.885 61.622 251.27 62.2722 251.565 63.0602C251.999 64.2029 252.264 65.5918 252.363 67.227C252.363 67.2861 252.363 67.4142 252.363 67.6112C252.383 67.8082 252.393 67.9264 252.393 67.9658H240.838C240.838 69.4631 241.232 70.783 242.02 71.9257C242.808 73.0684 244 73.6397 245.596 73.6397C246.738 73.6397 247.674 73.354 248.403 72.7827C249.132 72.2114 249.585 71.4627 249.762 70.5368ZM240.838 66.1336H249.644C249.625 64.9712 249.349 63.8975 248.817 62.9125C248.206 61.7107 247.093 61.1098 245.477 61.1098C243.645 61.1098 242.384 61.7206 241.695 62.942C241.124 63.9271 240.838 64.9909 240.838 66.1336ZM255.8 80.3479V59.8687H258.223V61.9373H258.312C259.494 60.1642 261.149 59.2776 263.277 59.2776C265.227 59.2776 266.843 59.9573 268.123 61.3167C269.404 62.6958 270.044 64.7151 270.044 67.3748C270.044 70.0935 269.394 72.1227 268.094 73.4624C266.813 74.8021 265.227 75.4719 263.336 75.4719C262.745 75.4719 262.026 75.3438 261.179 75.0877C259.937 74.7134 259.011 73.9254 258.401 72.7236V80.3479H255.8ZM258.223 67.4339C258.223 69.5222 258.696 71.0884 259.642 72.1326C260.627 73.1373 261.701 73.6397 262.863 73.6397C264.085 73.6397 265.129 73.1472 265.996 72.1621C266.862 71.1377 267.296 69.5419 267.296 67.3748C267.296 65.4047 266.892 63.868 266.084 62.7647C265.296 61.6614 264.173 61.1098 262.715 61.1098C261.947 61.1098 261.228 61.3167 260.558 61.7304C259.002 62.6564 258.223 64.5575 258.223 67.4339ZM272.96 70.3299C272.448 68.2219 272.468 66.1828 273.019 64.2127C273.571 62.2426 274.733 60.834 276.506 59.9869C277.491 59.514 278.644 59.2776 279.964 59.2776C281.284 59.2776 282.436 59.514 283.421 59.9869C285.195 60.8143 286.367 62.2919 286.938 64.4196C287.194 65.4047 287.322 66.3996 287.322 67.4043C287.342 68.3894 287.224 69.3646 286.968 70.3299C286.731 71.2756 286.308 72.1424 285.697 72.9305C285.106 73.7185 284.347 74.3391 283.421 74.7922C282.417 75.2453 281.264 75.4719 279.964 75.4719C278.664 75.4719 277.511 75.2453 276.506 74.7922C274.792 73.9648 273.61 72.4773 272.96 70.3299ZM275.709 64.39C275.452 65.1781 275.324 66.1631 275.324 67.3452C275.324 68.5076 275.452 69.5025 275.709 70.3299C275.965 71.1574 276.26 71.7779 276.595 72.1917C277.304 72.9797 278.112 73.4427 279.018 73.5806C279.649 73.6791 280.279 73.6791 280.91 73.5806C281.185 73.5609 281.57 73.423 282.062 73.1669C282.594 72.8911 283.027 72.5463 283.362 72.1326C283.697 71.7188 283.983 71.118 284.219 70.3299C284.475 69.5025 284.604 68.5076 284.604 67.3452C284.604 66.1631 284.475 65.1781 284.219 64.39C283.944 63.5232 283.638 62.9026 283.303 62.5283C282.988 62.154 282.594 61.8388 282.121 61.5826C281.648 61.3265 281.245 61.1689 280.91 61.1098C280.279 61.0113 279.649 61.0113 279.018 61.1098C278.742 61.1295 278.348 61.2773 277.836 61.5531C276.831 62.0456 276.122 62.9913 275.709 64.39ZM290.748 74.8809V59.8687H297.9C301.072 59.8687 302.658 61.0606 302.658 63.4444C302.658 65.1584 301.751 66.3306 299.939 66.961V67.0497C301.16 67.3452 302.008 67.818 302.48 68.4682C302.973 69.1183 303.219 69.9556 303.219 70.9801C303.219 72.6152 302.618 73.6988 301.417 74.2307C300.431 74.6641 299.23 74.8809 297.811 74.8809H290.748ZM297.072 61.7009H293.349V66.1336H296.954C297.998 66.1336 298.767 65.9267 299.259 65.513C299.772 65.0796 300.028 64.5181 300.028 63.8286C300.028 62.4101 299.043 61.7009 297.072 61.7009ZM297.072 67.9658H293.349V73.0487H297.161C299.407 73.0487 300.53 72.2803 300.53 70.7436C300.53 68.8917 299.377 67.9658 297.072 67.9658Z" fill="black"/>
<path d="M18.7285 117.23H29.6626V119.564H15.6551C15.5369 117.516 16.1871 115.644 17.6055 113.95C17.9011 113.575 18.3936 113.122 19.0831 112.59C19.8909 111.96 20.4327 111.556 20.7085 111.379L22.6589 110.137L23.2499 109.783L23.9 109.34L24.432 108.955C24.8063 108.699 25.0427 108.522 25.1412 108.424C25.7519 107.734 26.0967 107.32 26.1755 107.182C26.6483 106.158 26.8847 105.281 26.8847 104.552C26.8847 103.291 26.5104 102.316 25.7618 101.627C25.0328 100.937 24.0182 100.592 22.718 100.592C21.398 100.592 20.3538 100.967 19.5855 101.715C18.8172 102.464 18.433 103.459 18.433 104.7V105.468H15.7142V104.848C15.7142 103.784 15.9408 102.75 16.3939 101.745C17.3593 99.4792 19.4969 98.3169 22.8066 98.2578C24.9343 98.2578 26.6188 98.8192 27.8599 99.9422C29.1011 101.045 29.7217 102.572 29.7217 104.523C29.8202 106.138 29.3178 107.606 28.2146 108.926C27.9782 109.221 27.5349 109.615 26.8847 110.108C26.3134 110.541 25.7716 110.935 25.2594 111.29C24.9048 111.526 24.1759 111.999 23.0726 112.708C21.6738 113.595 20.6494 114.383 19.9992 115.073C19.3491 115.742 18.9255 116.462 18.7285 117.23ZM32.4723 114.275H35.1911C35.2896 115.201 35.6737 116.048 36.3436 116.816C37.0134 117.584 38.0477 117.969 39.4465 117.969C42.6578 117.969 44.2634 116.265 44.2634 112.856C44.2634 111.162 43.8201 109.931 42.9336 109.162C42.0864 108.374 41.0127 107.98 39.7124 107.98C38.9835 107.98 38.2053 108.148 37.3779 108.483C36.5307 108.818 35.9594 109.251 35.6639 109.783H33.0633L34.5114 98.8783H45.6819V101.213H36.5504L35.723 107.33C36.9247 106.286 38.4811 105.764 40.3921 105.764C42.3228 105.764 43.8792 106.404 45.0613 107.685C46.263 108.946 46.8639 110.66 46.8639 112.827C46.8639 115.073 46.2236 116.865 44.9431 118.205C43.6625 119.525 41.8303 120.185 39.4465 120.185C36.905 120.185 35.1024 119.486 34.0385 118.087C33.1126 116.885 32.5905 115.614 32.4723 114.275ZM54.3132 119.564H51.3876V116.343H54.3132V119.564ZM67.3616 120.067C66.4751 120.224 65.559 120.224 64.6133 120.067C64.1799 120.008 63.579 119.771 62.8107 119.358C62.003 118.924 61.3331 118.343 60.8012 117.614C60.2693 116.885 59.7964 115.821 59.3827 114.422C58.969 112.945 58.7621 111.211 58.7621 109.221C58.7621 107.212 58.969 105.488 59.3827 104.05C59.8358 102.553 60.3185 101.459 60.8307 100.77C61.3233 100.12 61.9439 99.5777 62.6925 99.1443C63.4608 98.7109 64.1011 98.4548 64.6133 98.376C65.559 98.2184 66.4751 98.2184 67.3616 98.376C67.8148 98.4351 68.4255 98.6715 69.1938 99.0852C70.0213 99.5186 70.6911 100.1 71.2034 100.829C71.7353 101.558 72.1983 102.631 72.5923 104.05C73.0257 105.468 73.2424 107.192 73.2424 109.221C73.2424 111.251 73.0257 112.984 72.5923 114.422C72.1589 115.9 71.6762 116.984 71.1442 117.673C70.6123 118.382 69.9622 118.944 69.1938 119.358C68.4255 119.771 67.8148 120.008 67.3616 120.067ZM62.5743 115.457C63.3229 117.053 64.4656 117.85 66.0023 117.85C67.5587 117.85 68.6915 117.053 69.4007 115.457C70.1296 113.881 70.4941 111.802 70.4941 109.221C70.4941 106.641 70.1296 104.562 69.4007 102.986C68.6915 101.39 67.5587 100.592 66.0023 100.592C64.4656 100.592 63.3229 101.39 62.5743 102.986C61.8651 104.582 61.5104 106.66 61.5104 109.221C61.5104 111.783 61.8651 113.861 62.5743 115.457ZM85.0063 119.564V114.777H75.2542V112.443L84.9767 98.8783H87.7841V112.443H91.0348V114.777H87.7841V119.564H85.0063ZM85.0063 102.513L77.9139 112.443H85.0063V102.513ZM97.7748 119.564H94.8492V116.343H97.7748V119.564ZM105.652 117.23H116.586V119.564H102.578C102.46 117.516 103.11 115.644 104.529 113.95C104.824 113.575 105.317 113.122 106.006 112.59C106.814 111.96 107.356 111.556 107.632 111.379L109.582 110.137L110.173 109.783L110.823 109.34L111.355 108.955C111.73 108.699 111.966 108.522 112.064 108.424C112.675 107.734 113.02 107.32 113.099 107.182C113.572 106.158 113.808 105.281 113.808 104.552C113.808 103.291 113.434 102.316 112.685 101.627C111.956 100.937 110.941 100.592 109.641 100.592C108.321 100.592 107.277 100.967 106.509 101.715C105.74 102.464 105.356 103.459 105.356 104.7V105.468H102.637V104.848C102.637 103.784 102.864 102.75 103.317 101.745C104.283 99.4792 106.42 98.3169 109.73 98.2578C111.858 98.2578 113.542 98.8192 114.783 99.9422C116.024 101.045 116.645 102.572 116.645 104.523C116.743 106.138 116.241 107.606 115.138 108.926C114.901 109.221 114.458 109.615 113.808 110.108C113.237 110.541 112.695 110.935 112.183 111.29C111.828 111.526 111.099 111.999 109.996 112.708C108.597 113.595 107.573 114.383 106.922 115.073C106.272 115.742 105.849 116.462 105.652 117.23ZM127.965 120.067C127.079 120.224 126.163 120.224 125.217 120.067C124.784 120.008 124.183 119.771 123.415 119.358C122.607 118.924 121.937 118.343 121.405 117.614C120.873 116.885 120.4 115.821 119.987 114.422C119.573 112.945 119.366 111.211 119.366 109.221C119.366 107.212 119.573 105.488 119.987 104.05C120.44 102.553 120.922 101.459 121.435 100.77C121.927 100.12 122.548 99.5777 123.296 99.1443C124.065 98.7109 124.705 98.4548 125.217 98.376C126.163 98.2184 127.079 98.2184 127.965 98.376C128.419 98.4351 129.029 98.6715 129.798 99.0852C130.625 99.5186 131.295 100.1 131.807 100.829C132.339 101.558 132.802 102.631 133.196 104.05C133.63 105.468 133.846 107.192 133.846 109.221C133.846 111.251 133.63 112.984 133.196 114.422C132.763 115.9 132.28 116.984 131.748 117.673C131.216 118.382 130.566 118.944 129.798 119.358C129.029 119.771 128.419 120.008 127.965 120.067ZM123.178 115.457C123.927 117.053 125.069 117.85 126.606 117.85C128.162 117.85 129.295 117.053 130.005 115.457C130.733 113.881 131.098 111.802 131.098 109.221C131.098 106.641 130.733 104.562 130.005 102.986C129.295 101.39 128.162 100.592 126.606 100.592C125.069 100.592 123.927 101.39 123.178 102.986C122.469 104.582 122.114 106.66 122.114 109.221C122.114 111.783 122.469 113.861 123.178 115.457ZM139.936 117.23H150.87V119.564H136.863C136.745 117.516 137.395 115.644 138.813 113.95C139.109 113.575 139.601 113.122 140.291 112.59C141.099 111.96 141.64 111.556 141.916 111.379L143.867 110.137L144.458 109.783L145.108 109.34L145.64 108.955C146.014 108.699 146.25 108.522 146.349 108.424C146.96 107.734 147.304 107.32 147.383 107.182C147.856 106.158 148.092 105.281 148.092 104.552C148.092 103.291 147.718 102.316 146.969 101.627C146.241 100.937 145.226 100.592 143.926 100.592C142.606 100.592 141.562 100.967 140.793 101.715C140.025 102.464 139.641 103.459 139.641 104.7V105.468H136.922V104.848C136.922 103.784 137.148 102.75 137.602 101.745C138.567 99.4792 140.705 98.3169 144.014 98.2578C146.142 98.2578 147.826 98.8192 149.068 99.9422C150.309 101.045 150.929 102.572 150.929 104.523C151.028 106.138 150.526 107.606 149.422 108.926C149.186 109.221 148.743 109.615 148.092 110.108C147.521 110.541 146.979 110.935 146.467 111.29C146.112 111.526 145.384 111.999 144.28 112.708C142.881 113.595 141.857 114.383 141.207 115.073C140.557 115.742 140.133 116.462 139.936 117.23ZM153.68 114.275H156.399C156.497 115.201 156.881 116.048 157.551 116.816C158.221 117.584 159.255 117.969 160.654 117.969C163.865 117.969 165.471 116.265 165.471 112.856C165.471 111.162 165.028 109.931 164.141 109.162C163.294 108.374 162.22 107.98 160.92 107.98C160.191 107.98 159.413 108.148 158.586 108.483C157.738 108.818 157.167 109.251 156.872 109.783H154.271L155.719 98.8783H166.89V101.213H157.758L156.931 107.33C158.132 106.286 159.689 105.764 161.6 105.764C163.531 105.764 165.087 106.404 166.269 107.685C167.471 108.946 168.072 110.66 168.072 112.827C168.072 115.073 167.431 116.865 166.151 118.205C164.87 119.525 163.038 120.185 160.654 120.185C158.113 120.185 156.31 119.486 155.246 118.087C154.32 116.885 153.798 115.614 153.68 114.275ZM22.5407 134.02H17.8124V132.572H18.433C19.7333 132.572 20.8365 132.237 21.7428 131.568C22.6687 130.878 23.2105 129.982 23.3681 128.878H25.3185V149.564H22.5407V134.02ZM29.3514 143.27H32.011L32.0997 143.95C32.5134 146.629 33.9516 147.969 36.4142 147.969C37.9903 147.969 39.1625 147.584 39.9308 146.816C40.7189 146.028 41.1129 144.954 41.1129 143.595C41.1129 142.452 40.7681 141.546 40.0786 140.876C39.4088 140.206 38.4927 139.872 37.3303 139.872H35.2026V137.626H36.03C36.6802 137.626 37.3303 137.547 37.9804 137.389C39.6944 136.916 40.5514 135.803 40.5514 134.05C40.5514 132.986 40.2165 132.129 39.5467 131.479C38.8965 130.809 37.8721 130.474 36.4733 130.474C33.794 130.474 32.4543 132.04 32.4543 135.173H29.8833C29.8833 134.05 30.0606 132.986 30.4152 131.981C31.2033 129.578 33.2522 128.337 36.562 128.258C38.7291 128.258 40.3249 128.77 41.3493 129.794C42.5314 130.878 43.1224 132.257 43.1224 133.932C43.1224 135.055 42.8072 136.03 42.1768 136.857C41.566 137.685 40.7484 138.236 39.724 138.512V138.571C40.8864 138.749 41.8419 139.3 42.5905 140.226C43.3391 141.152 43.7135 142.344 43.7135 143.802C43.7135 145.792 43.0535 147.358 41.7335 148.501C40.4135 149.624 38.6995 150.185 36.5915 150.185C34.385 150.185 32.671 149.643 31.4495 148.56C30.0508 147.141 29.3514 145.378 29.3514 143.27ZM51.3696 137.773H48.444V134.552H51.3696V137.773ZM51.3696 149.564H48.444V146.343H51.3696V149.564ZM64.418 150.067C63.5315 150.224 62.6154 150.224 61.6697 150.067C61.2363 150.008 60.6354 149.771 59.8671 149.358C59.0593 148.924 58.3895 148.343 57.8576 147.614C57.3257 146.885 56.8528 145.821 56.4391 144.422C56.0254 142.945 55.8185 141.211 55.8185 139.221C55.8185 137.212 56.0254 135.488 56.4391 134.05C56.8922 132.553 57.3749 131.459 57.8871 130.77C58.3797 130.12 59.0002 129.578 59.7489 129.144C60.5172 128.711 61.1575 128.455 61.6697 128.376C62.6154 128.218 63.5315 128.218 64.418 128.376C64.8712 128.435 65.4819 128.671 66.2502 129.085C67.0777 129.519 67.7475 130.1 68.2597 130.829C68.7917 131.558 69.2546 132.631 69.6487 134.05C70.0821 135.468 70.2988 137.192 70.2988 139.221C70.2988 141.251 70.0821 142.984 69.6487 144.422C69.2152 145.9 68.7326 146.984 68.2006 147.673C67.6687 148.382 67.0186 148.944 66.2502 149.358C65.4819 149.771 64.8712 150.008 64.418 150.067ZM59.6307 145.457C60.3793 147.053 61.522 147.85 63.0587 147.85C64.615 147.85 65.7479 147.053 66.4571 145.457C67.186 143.881 67.5505 141.802 67.5505 139.221C67.5505 136.641 67.186 134.562 66.4571 132.986C65.7479 131.39 64.615 130.592 63.0587 130.592C61.522 130.592 60.3793 131.39 59.6307 132.986C58.9214 134.582 58.5668 136.66 58.5668 139.221C58.5668 141.783 58.9214 143.861 59.6307 145.457ZM81.5603 150.067C80.6737 150.224 79.7576 150.224 78.812 150.067C78.3785 150.008 77.7777 149.771 77.0093 149.358C76.2016 148.924 75.5317 148.343 74.9998 147.614C74.4679 146.885 73.9951 145.821 73.5813 144.422C73.1676 142.945 72.9607 141.211 72.9607 139.221C72.9607 137.212 73.1676 135.488 73.5813 134.05C74.0345 132.553 74.5171 131.459 75.0294 130.77C75.5219 130.12 76.1425 129.578 76.8911 129.144C77.6595 128.711 78.2997 128.455 78.812 128.376C79.7576 128.218 80.6737 128.218 81.5603 128.376C82.0134 128.435 82.6241 128.671 83.3925 129.085C84.2199 129.519 84.8897 130.1 85.402 130.829C85.9339 131.558 86.3969 132.631 86.7909 134.05C87.2243 135.468 87.441 137.192 87.441 139.221C87.441 141.251 87.2243 142.984 86.7909 144.422C86.3575 145.9 85.8748 146.984 85.3429 147.673C84.8109 148.382 84.1608 148.944 83.3925 149.358C82.6241 149.771 82.0134 150.008 81.5603 150.067ZM76.7729 145.457C77.5215 147.053 78.6642 147.85 80.2009 147.85C81.7573 147.85 82.8901 147.053 83.5993 145.457C84.3283 143.881 84.6927 141.802 84.6927 139.221C84.6927 136.641 84.3283 134.562 83.5993 132.986C82.8901 131.39 81.7573 130.592 80.2009 130.592C78.6642 130.592 77.5215 131.39 76.7729 132.986C76.0637 134.582 75.709 136.66 75.709 139.221C75.709 141.783 76.0637 143.861 76.7729 145.457Z" fill="black"/>
<path d="M98.9039 249.488H97.8831L94.8204 241.59H94.7936L94.8204 241.953V249.488H93.5578V240.086H95.4518L98.3935 247.823L101.335 240.086H103.229V249.488H101.967V241.953L101.993 241.59H101.953L98.9039 249.488ZM105.333 249.488V242.665H106.515V245.364H108.235C108.781 245.364 109.238 245.418 109.605 245.526C110.483 245.75 110.939 246.39 110.975 247.447C110.975 248.073 110.783 248.57 110.397 248.938C110.021 249.305 109.435 249.488 108.638 249.488H105.333ZM107.953 246.197H106.515V248.655H108.168C109.224 248.655 109.753 248.226 109.753 247.366C109.753 246.945 109.614 246.641 109.336 246.453C109.247 246.381 109.099 246.323 108.893 246.278C108.678 246.224 108.365 246.197 107.953 246.197ZM111.808 249.488V242.665H112.99V249.488H111.808ZM117.843 247.42C117.61 246.461 117.619 245.535 117.87 244.639C118.12 243.744 118.649 243.103 119.455 242.718C119.902 242.503 120.426 242.396 121.026 242.396C121.626 242.396 122.15 242.503 122.598 242.718C123.404 243.094 123.937 243.766 124.196 244.733C124.313 245.181 124.371 245.633 124.371 246.09C124.38 246.538 124.326 246.981 124.21 247.42C124.102 247.85 123.91 248.244 123.632 248.602C123.363 248.96 123.019 249.242 122.598 249.448C122.141 249.654 121.617 249.757 121.026 249.757C120.435 249.757 119.911 249.654 119.455 249.448C118.675 249.072 118.138 248.396 117.843 247.42ZM119.092 244.72C118.975 245.078 118.917 245.526 118.917 246.063C118.917 246.591 118.975 247.044 119.092 247.42C119.208 247.796 119.343 248.078 119.495 248.266C119.817 248.624 120.184 248.835 120.596 248.897C120.883 248.942 121.169 248.942 121.456 248.897C121.581 248.888 121.756 248.826 121.98 248.709C122.222 248.584 122.419 248.427 122.571 248.239C122.723 248.051 122.853 247.778 122.96 247.42C123.077 247.044 123.135 246.591 123.135 246.063C123.135 245.526 123.077 245.078 122.96 244.72C122.835 244.326 122.696 244.044 122.544 243.873C122.401 243.703 122.222 243.56 122.007 243.444C121.792 243.327 121.608 243.256 121.456 243.229C121.169 243.184 120.883 243.184 120.596 243.229C120.471 243.238 120.292 243.305 120.059 243.43C119.602 243.654 119.28 244.084 119.092 244.72ZM125.928 251.973V242.665H127.03V243.605H127.07C127.607 242.799 128.359 242.396 129.327 242.396C130.213 242.396 130.947 242.705 131.53 243.323C132.112 243.95 132.403 244.867 132.403 246.076C132.403 247.312 132.107 248.235 131.516 248.844C130.934 249.452 130.213 249.757 129.354 249.757C129.085 249.757 128.758 249.699 128.373 249.582C127.809 249.412 127.388 249.054 127.11 248.508V251.973H125.928ZM127.03 246.103C127.03 247.053 127.245 247.764 127.674 248.239C128.122 248.696 128.61 248.924 129.139 248.924C129.694 248.924 130.168 248.7 130.562 248.252C130.956 247.787 131.153 247.061 131.153 246.076C131.153 245.181 130.97 244.482 130.603 243.981C130.245 243.479 129.734 243.229 129.071 243.229C128.722 243.229 128.395 243.323 128.091 243.511C127.383 243.932 127.03 244.796 127.03 246.103ZM138.618 243.497H135.125V249.488H133.943V242.665H138.618V243.497ZM140.234 244.679H139.106C139.106 244.142 139.285 243.65 139.643 243.202C140.073 242.665 140.861 242.396 142.008 242.396C142.679 242.396 143.27 242.53 143.781 242.799C144.076 242.942 144.309 243.179 144.479 243.511C144.649 243.842 144.73 244.236 144.721 244.693L144.654 247.85C144.654 248.109 144.681 248.311 144.734 248.454C144.815 248.597 145.025 248.664 145.366 248.655V249.488C145.231 249.524 145.052 249.542 144.828 249.542C144.434 249.542 144.148 249.475 143.969 249.341C143.799 249.206 143.678 248.942 143.606 248.548C143.167 249.354 142.388 249.757 141.269 249.757C140.499 249.757 139.903 249.587 139.482 249.246C139.07 248.897 138.864 248.382 138.864 247.702C138.864 247.057 139.097 246.569 139.563 246.238C140.029 245.888 140.911 245.656 142.209 245.539C142.809 245.494 143.167 245.436 143.284 245.364C143.454 245.248 143.539 244.993 143.539 244.599C143.539 243.685 143.028 243.229 142.008 243.229C140.799 243.229 140.208 243.712 140.234 244.679ZM143.512 246.573L143.539 245.996C143.405 246.094 143.208 246.175 142.948 246.238C142.554 246.264 142.249 246.296 142.034 246.332C141.291 246.457 140.839 246.56 140.678 246.641C140.284 246.829 140.087 247.169 140.087 247.661C140.087 248.055 140.203 248.364 140.436 248.588C140.678 248.812 141 248.924 141.403 248.924C141.663 248.924 141.9 248.888 142.115 248.817C142.339 248.745 142.554 248.629 142.76 248.467C142.975 248.297 143.145 248.051 143.27 247.729C143.405 247.406 143.485 247.021 143.512 246.573ZM151.313 246.305H147.941V249.488H146.759V242.665H147.941V245.472H151.313V242.665H152.495V249.488H151.313V246.305ZM155.615 242.665V248.105L159.175 242.665H160.491V249.488H159.309V244.035L155.763 249.488H154.433V242.665H155.615ZM161.884 247.393H163.013C163.013 247.841 163.174 248.208 163.496 248.494C163.819 248.781 164.262 248.924 164.826 248.924C165.381 248.924 165.816 248.812 166.129 248.588C166.442 248.355 166.599 248.02 166.599 247.581C166.599 246.766 166.084 246.358 165.054 246.358H164.047V245.526H164.92C165.869 245.526 166.344 245.172 166.344 244.465C166.344 244.348 166.326 244.232 166.29 244.115C166.263 243.999 166.201 243.869 166.102 243.726C166.013 243.573 165.856 243.453 165.632 243.363C165.408 243.273 165.131 243.229 164.799 243.229C164.208 243.229 163.792 243.368 163.55 243.645C163.308 243.923 163.187 244.223 163.187 244.545H162.059C162.086 244.079 162.207 243.69 162.422 243.376C162.637 243.063 162.914 242.839 163.255 242.705C163.81 242.499 164.347 242.396 164.866 242.396C165.323 242.396 165.726 242.45 166.075 242.557C166.425 242.656 166.689 242.776 166.868 242.92C167.056 243.063 167.204 243.233 167.311 243.43C167.428 243.627 167.499 243.802 167.526 243.954C167.553 244.097 167.566 244.241 167.566 244.384C167.566 245.181 167.172 245.678 166.384 245.875V245.915C166.805 245.978 167.15 246.161 167.419 246.466C167.687 246.77 167.822 247.169 167.822 247.661C167.822 248.163 167.642 248.62 167.284 249.032C166.845 249.515 166.057 249.757 164.92 249.757C163.962 249.757 163.232 249.555 162.731 249.152C162.166 248.66 161.884 248.073 161.884 247.393ZM169.146 247.42C168.913 246.461 168.922 245.535 169.173 244.639C169.424 243.744 169.952 243.103 170.758 242.718C171.206 242.503 171.73 242.396 172.33 242.396C172.93 242.396 173.453 242.503 173.901 242.718C174.707 243.094 175.24 243.766 175.5 244.733C175.616 245.181 175.674 245.633 175.674 246.09C175.683 246.538 175.629 246.981 175.513 247.42C175.406 247.85 175.213 248.244 174.935 248.602C174.667 248.96 174.322 249.242 173.901 249.448C173.444 249.654 172.921 249.757 172.33 249.757C171.739 249.757 171.215 249.654 170.758 249.448C169.979 249.072 169.442 248.396 169.146 247.42ZM170.395 244.72C170.279 245.078 170.221 245.526 170.221 246.063C170.221 246.591 170.279 247.044 170.395 247.42C170.512 247.796 170.646 248.078 170.798 248.266C171.121 248.624 171.488 248.835 171.9 248.897C172.186 248.942 172.473 248.942 172.759 248.897C172.885 248.888 173.059 248.826 173.283 248.709C173.525 248.584 173.722 248.427 173.874 248.239C174.027 248.051 174.156 247.778 174.264 247.42C174.38 247.044 174.438 246.591 174.438 246.063C174.438 245.526 174.38 245.078 174.264 244.72C174.138 244.326 174 244.044 173.847 243.873C173.704 243.703 173.525 243.56 173.31 243.444C173.095 243.327 172.912 243.256 172.759 243.229C172.473 243.184 172.186 243.184 171.9 243.229C171.774 243.238 171.595 243.305 171.362 243.43C170.906 243.654 170.583 244.084 170.395 244.72ZM177.232 249.488V242.665H180.482C181.924 242.665 182.645 243.206 182.645 244.29C182.645 245.069 182.233 245.602 181.409 245.888V245.929C181.964 246.063 182.349 246.278 182.564 246.573C182.788 246.869 182.9 247.25 182.9 247.715C182.9 248.458 182.627 248.951 182.081 249.193C181.633 249.39 181.087 249.488 180.442 249.488H177.232ZM180.106 243.497H178.414V245.512H180.052C180.527 245.512 180.876 245.418 181.1 245.23C181.333 245.033 181.449 244.778 181.449 244.465C181.449 243.82 181.002 243.497 180.106 243.497ZM180.106 246.345H178.414V248.655H180.146C181.167 248.655 181.678 248.306 181.678 247.608C181.678 246.766 181.154 246.345 180.106 246.345ZM184.473 249.488V242.665H185.655V245.364H187.374C187.92 245.364 188.377 245.418 188.744 245.526C189.622 245.75 190.078 246.39 190.114 247.447C190.114 248.073 189.922 248.57 189.537 248.938C189.161 249.305 188.574 249.488 187.777 249.488H184.473ZM187.092 246.197H185.655V248.655H187.307C188.364 248.655 188.892 248.226 188.892 247.366C188.892 246.945 188.753 246.641 188.475 246.453C188.386 246.381 188.238 246.323 188.032 246.278C187.817 246.224 187.504 246.197 187.092 246.197ZM190.947 249.488V242.665H192.129V249.488H190.947ZM194.062 249.488V242.665H197.312C198.754 242.665 199.475 243.206 199.475 244.29C199.475 245.069 199.063 245.602 198.239 245.888V245.929C198.794 246.063 199.179 246.278 199.394 246.573C199.618 246.869 199.73 247.25 199.73 247.715C199.73 248.458 199.457 248.951 198.911 249.193C198.463 249.39 197.917 249.488 197.272 249.488H194.062ZM196.936 243.497H195.244V245.512H196.882C197.357 245.512 197.706 245.418 197.93 245.23C198.163 245.033 198.279 244.778 198.279 244.465C198.279 243.82 197.832 243.497 196.936 243.497ZM196.936 246.345H195.244V248.655H196.976C197.997 248.655 198.508 248.306 198.508 247.608C198.508 246.766 197.984 246.345 196.936 246.345ZM202.203 244.679H201.074C201.074 244.142 201.253 243.65 201.612 243.202C202.041 242.665 202.829 242.396 203.976 242.396C204.647 242.396 205.238 242.53 205.749 242.799C206.044 242.942 206.277 243.179 206.447 243.511C206.617 243.842 206.698 244.236 206.689 244.693L206.622 247.85C206.622 248.109 206.649 248.311 206.702 248.454C206.783 248.597 206.994 248.664 207.334 248.655V249.488C207.199 249.524 207.02 249.542 206.797 249.542C206.402 249.542 206.116 249.475 205.937 249.341C205.767 249.206 205.646 248.942 205.574 248.548C205.135 249.354 204.356 249.757 203.237 249.757C202.467 249.757 201.871 249.587 201.45 249.246C201.038 248.897 200.832 248.382 200.832 247.702C200.832 247.057 201.065 246.569 201.531 246.238C201.997 245.888 202.879 245.656 204.177 245.539C204.777 245.494 205.135 245.436 205.252 245.364C205.422 245.248 205.507 244.993 205.507 244.599C205.507 243.685 204.997 243.229 203.976 243.229C202.767 243.229 202.176 243.712 202.203 244.679ZM205.48 246.573L205.507 245.996C205.373 246.094 205.176 246.175 204.916 246.238C204.522 246.264 204.217 246.296 204.003 246.332C203.259 246.457 202.807 246.56 202.646 246.641C202.252 246.829 202.055 247.169 202.055 247.661C202.055 248.055 202.171 248.364 202.404 248.588C202.646 248.812 202.968 248.924 203.371 248.924C203.631 248.924 203.868 248.888 204.083 248.817C204.307 248.745 204.522 248.629 204.728 248.467C204.943 248.297 205.113 248.051 205.238 247.729C205.373 247.406 205.453 247.021 205.48 246.573ZM213.644 247.514H214.772C214.664 248.114 214.373 248.638 213.899 249.085C213.424 249.533 212.721 249.757 211.79 249.757C210.527 249.757 209.6 249.341 209.009 248.508C208.714 248.069 208.521 247.599 208.432 247.097C208.369 246.748 208.338 246.417 208.338 246.103C208.338 245.503 208.427 244.939 208.606 244.411C208.723 244.035 208.893 243.708 209.117 243.43C209.359 243.135 209.703 242.888 210.151 242.691C210.599 242.494 211.105 242.396 211.669 242.396C212.672 242.396 213.429 242.674 213.939 243.229C214.154 243.462 214.329 243.757 214.463 244.115C214.66 244.635 214.781 245.266 214.826 246.009C214.826 246.036 214.826 246.094 214.826 246.184C214.835 246.273 214.839 246.327 214.839 246.345H209.587C209.587 247.026 209.766 247.626 210.124 248.145C210.482 248.664 211.024 248.924 211.75 248.924C212.269 248.924 212.694 248.794 213.026 248.535C213.357 248.275 213.563 247.935 213.644 247.514ZM209.587 245.512H213.59C213.581 244.984 213.455 244.496 213.214 244.048C212.936 243.502 212.43 243.229 211.696 243.229C210.863 243.229 210.29 243.506 209.976 244.062C209.717 244.509 209.587 244.993 209.587 245.512ZM220.794 249.488H219.88L217.57 244.008H217.543L217.57 244.37V249.488H216.388V242.665H218.013L220.337 248.212L222.661 242.665H224.286V249.488H223.104V244.37L223.145 244.008H223.104L220.794 249.488ZM233.996 243.497H230.543V249.488H229.361V242.665H235.178V249.488H233.996V243.497ZM242.03 247.514H243.159C243.051 248.114 242.76 248.638 242.285 249.085C241.811 249.533 241.108 249.757 240.177 249.757C238.914 249.757 237.987 249.341 237.396 248.508C237.101 248.069 236.908 247.599 236.818 247.097C236.756 246.748 236.724 246.417 236.724 246.103C236.724 245.503 236.814 244.939 236.993 244.411C237.109 244.035 237.28 243.708 237.503 243.43C237.745 243.135 238.09 242.888 238.538 242.691C238.986 242.494 239.492 242.396 240.056 242.396C241.059 242.396 241.815 242.674 242.326 243.229C242.541 243.462 242.715 243.757 242.85 244.115C243.047 244.635 243.168 245.266 243.212 246.009C243.212 246.036 243.212 246.094 243.212 246.184C243.221 246.273 243.226 246.327 243.226 246.345H237.974C237.974 247.026 238.153 247.626 238.511 248.145C238.869 248.664 239.411 248.924 240.136 248.924C240.656 248.924 241.081 248.794 241.412 248.535C241.744 248.275 241.95 247.935 242.03 247.514ZM237.974 245.512H241.977C241.968 244.984 241.842 244.496 241.6 244.048C241.323 243.502 240.817 243.229 240.083 243.229C239.25 243.229 238.677 243.506 238.363 244.062C238.103 244.509 237.974 244.993 237.974 245.512ZM244.775 251.973V242.665H245.876V243.605H245.916C246.454 242.799 247.206 242.396 248.173 242.396C249.06 242.396 249.794 242.705 250.376 243.323C250.958 243.95 251.249 244.867 251.249 246.076C251.249 247.312 250.954 248.235 250.363 248.844C249.781 249.452 249.06 249.757 248.2 249.757C247.931 249.757 247.604 249.699 247.219 249.582C246.655 249.412 246.234 249.054 245.957 248.508V251.973H244.775ZM245.876 246.103C245.876 247.053 246.091 247.764 246.521 248.239C246.969 248.696 247.457 248.924 247.985 248.924C248.54 248.924 249.015 248.7 249.409 248.252C249.803 247.787 250 247.061 250 246.076C250 245.181 249.816 244.482 249.449 243.981C249.091 243.479 248.581 243.229 247.918 243.229C247.569 243.229 247.242 243.323 246.937 243.511C246.23 243.932 245.876 244.796 245.876 246.103ZM252.79 249.488V242.665H256.04C257.482 242.665 258.203 243.206 258.203 244.29C258.203 245.069 257.791 245.602 256.967 245.888V245.929C257.522 246.063 257.907 246.278 258.122 246.573C258.346 246.869 258.458 247.25 258.458 247.715C258.458 248.458 258.185 248.951 257.639 249.193C257.191 249.39 256.645 249.488 256 249.488H252.79ZM255.664 243.497H253.972V245.512H255.61C256.085 245.512 256.434 245.418 256.658 245.23C256.891 245.033 257.007 244.778 257.007 244.465C257.007 243.82 256.56 243.497 255.664 243.497ZM255.664 246.345H253.972V248.655H255.704C256.725 248.655 257.236 248.306 257.236 247.608C257.236 246.766 256.712 246.345 255.664 246.345ZM260.031 249.488V242.665H261.213V245.364H262.932C263.478 245.364 263.935 245.418 264.302 245.526C265.18 245.75 265.636 246.39 265.672 247.447C265.672 248.073 265.48 248.57 265.095 248.938C264.719 249.305 264.132 249.488 263.335 249.488H260.031ZM262.65 246.197H261.213V248.655H262.865C263.922 248.655 264.45 248.226 264.45 247.366C264.45 246.945 264.311 246.641 264.033 246.453C263.944 246.381 263.796 246.323 263.59 246.278C263.375 246.224 263.062 246.197 262.65 246.197ZM266.505 249.488V242.665H267.687V249.488H266.505ZM270.802 242.665V248.105L274.361 242.665H275.678V249.488H274.496V244.035L270.949 249.488H269.62V242.665H270.802ZM273.918 240.086H274.925C274.737 241.071 274.146 241.648 273.152 241.818C272.982 241.845 272.803 241.859 272.615 241.859C271.46 241.859 270.721 241.388 270.399 240.448C270.372 240.385 270.341 240.265 270.305 240.086H271.312C271.285 240.318 271.366 240.538 271.554 240.744C271.688 240.887 271.845 240.994 272.024 241.066C272.185 241.12 272.382 241.147 272.615 241.147C273 241.147 273.318 241.053 273.569 240.865C273.82 240.668 273.936 240.408 273.918 240.086ZM93.3832 264.488V257.665H96.6338C98.0756 257.665 98.7965 258.206 98.7965 259.29C98.7965 260.069 98.3845 260.602 97.5607 260.888V260.929C98.1159 261.063 98.501 261.278 98.7159 261.573C98.9398 261.869 99.0517 262.25 99.0517 262.715C99.0517 263.458 98.7786 263.951 98.2323 264.193C97.7846 264.39 97.2383 264.488 96.5935 264.488H93.3832ZM96.2577 258.497H94.5652V260.512H96.204C96.6786 260.512 97.0279 260.418 97.2517 260.23C97.4846 260.033 97.601 259.778 97.601 259.465C97.601 258.82 97.1532 258.497 96.2577 258.497ZM96.2577 261.345H94.5652V263.655H96.298C97.3189 263.655 97.8293 263.306 97.8293 262.608C97.8293 261.766 97.3055 261.345 96.2577 261.345ZM108.958 262.057H104.982L104.095 264.488H102.738L106.298 255.086H107.641L111.201 264.488H109.844L108.958 262.057ZM106.97 256.362L105.331 260.996H108.608L106.97 256.362ZM116.964 254.642H117.972C117.936 255.296 117.632 255.73 117.058 255.945C116.745 256.053 116.476 256.124 116.252 256.16C115.25 256.285 114.667 256.371 114.506 256.415C113.897 256.585 113.432 256.894 113.109 257.342C112.787 257.781 112.617 258.412 112.599 259.236H112.626C113.056 258.081 113.938 257.503 115.272 257.503C116.355 257.503 117.166 257.862 117.703 258.578C118.249 259.285 118.523 260.154 118.523 261.184C118.523 262.169 118.24 263.011 117.676 263.709C117.112 264.408 116.275 264.757 115.164 264.757C113.938 264.757 113.029 264.291 112.438 263.36C112.142 262.85 111.941 262.276 111.833 261.641C111.762 261.139 111.726 260.642 111.726 260.15C111.726 258.421 111.99 257.212 112.518 256.523C112.984 255.923 113.615 255.538 114.412 255.368C115.164 255.197 115.8 255.099 116.32 255.072C116.669 255.027 116.884 254.884 116.964 254.642ZM112.975 261.264C112.975 261.856 113.109 262.424 113.378 262.97C113.691 263.606 114.278 263.924 115.138 263.924C115.818 263.924 116.342 263.696 116.709 263.239C117.085 262.773 117.273 262.133 117.273 261.318C117.273 260.647 117.157 260.024 116.924 259.451C116.629 258.708 116.033 258.336 115.138 258.336C114.242 258.336 113.638 258.699 113.324 259.424C113.091 259.979 112.975 260.593 112.975 261.264ZM120.353 257.665L122.099 260.19L123.845 257.665H125.162L122.771 260.929L125.35 264.488H124.033L122.099 261.681L120.165 264.488H118.848L121.427 260.929L119.036 257.665H120.353ZM127.222 259.679H126.093C126.093 259.142 126.272 258.65 126.631 258.202C127.061 257.665 127.849 257.396 128.995 257.396C129.666 257.396 130.257 257.53 130.768 257.799C131.063 257.942 131.296 258.179 131.466 258.511C131.637 258.842 131.717 259.236 131.708 259.693L131.641 262.85C131.641 263.109 131.668 263.311 131.722 263.454C131.802 263.597 132.013 263.664 132.353 263.655V264.488C132.219 264.524 132.04 264.542 131.816 264.542C131.422 264.542 131.135 264.475 130.956 264.341C130.786 264.206 130.665 263.942 130.593 263.548C130.154 264.354 129.375 264.757 128.256 264.757C127.486 264.757 126.89 264.587 126.469 264.246C126.058 263.897 125.852 263.382 125.852 262.702C125.852 262.057 126.084 261.569 126.55 261.238C127.016 260.888 127.898 260.656 129.196 260.539C129.796 260.494 130.154 260.436 130.271 260.364C130.441 260.248 130.526 259.993 130.526 259.599C130.526 258.685 130.016 258.229 128.995 258.229C127.786 258.229 127.195 258.712 127.222 259.679ZM130.499 261.573L130.526 260.996C130.392 261.094 130.195 261.175 129.935 261.238C129.541 261.264 129.237 261.296 129.022 261.332C128.278 261.457 127.826 261.56 127.665 261.641C127.271 261.829 127.074 262.169 127.074 262.661C127.074 263.055 127.19 263.364 127.423 263.588C127.665 263.812 127.987 263.924 128.39 263.924C128.65 263.924 128.887 263.888 129.102 263.817C129.326 263.745 129.541 263.629 129.747 263.467C129.962 263.297 130.132 263.051 130.257 262.729C130.392 262.406 130.472 262.021 130.499 261.573ZM133.209 262.393H134.337C134.337 262.841 134.499 263.208 134.821 263.494C135.143 263.781 135.587 263.924 136.151 263.924C136.706 263.924 137.14 263.812 137.454 263.588C137.767 263.355 137.924 263.02 137.924 262.581C137.924 261.766 137.409 261.358 136.379 261.358H135.372V260.526H136.245C137.194 260.526 137.669 260.172 137.669 259.465C137.669 259.348 137.651 259.232 137.615 259.115C137.588 258.999 137.525 258.869 137.427 258.726C137.337 258.573 137.181 258.453 136.957 258.363C136.733 258.273 136.455 258.229 136.124 258.229C135.533 258.229 135.116 258.368 134.875 258.645C134.633 258.923 134.512 259.223 134.512 259.545H133.384C133.411 259.079 133.531 258.69 133.746 258.376C133.961 258.063 134.239 257.839 134.579 257.705C135.134 257.499 135.672 257.396 136.191 257.396C136.648 257.396 137.051 257.45 137.4 257.557C137.749 257.656 138.013 257.776 138.193 257.92C138.381 258.063 138.528 258.233 138.636 258.43C138.752 258.627 138.824 258.802 138.851 258.954C138.878 259.097 138.891 259.241 138.891 259.384C138.891 260.181 138.497 260.678 137.709 260.875V260.915C138.13 260.978 138.475 261.161 138.743 261.466C139.012 261.77 139.146 262.169 139.146 262.661C139.146 263.163 138.967 263.62 138.609 264.032C138.17 264.515 137.382 264.757 136.245 264.757C135.287 264.757 134.557 264.555 134.055 264.152C133.491 263.66 133.209 263.073 133.209 262.393ZM141.868 257.665V263.105L145.427 257.665H146.744V264.488H145.562V259.035L142.015 264.488H140.686V257.665H141.868ZM149.856 257.665V263.105L153.416 257.665H154.732V264.488H153.55V259.035L150.004 264.488H148.674V257.665H149.856ZM158.938 266.261L158.831 263.655H159.691C160.434 262.563 160.806 260.947 160.806 258.806V257.665H165.695V263.655H166.877L166.783 266.261H165.789V264.488H159.932V266.261H158.938ZM164.513 263.655V258.497H161.907V259.451C161.907 260.176 161.826 260.929 161.665 261.708C161.522 262.478 161.28 263.127 160.94 263.655H164.513ZM169.074 257.665V263.105L172.633 257.665H173.95V264.488H172.768V259.035L169.222 264.488H167.892V257.665H169.074ZM175.343 262.393H176.471C176.471 262.841 176.633 263.208 176.955 263.494C177.277 263.781 177.721 263.924 178.285 263.924C178.84 263.924 179.274 263.812 179.588 263.588C179.901 263.355 180.058 263.02 180.058 262.581C180.058 261.766 179.543 261.358 178.513 261.358H177.506V260.526H178.379C179.328 260.526 179.803 260.172 179.803 259.465C179.803 259.348 179.785 259.232 179.749 259.115C179.722 258.999 179.659 258.869 179.561 258.726C179.471 258.573 179.315 258.453 179.091 258.363C178.867 258.273 178.589 258.229 178.258 258.229C177.667 258.229 177.251 258.368 177.009 258.645C176.767 258.923 176.646 259.223 176.646 259.545H175.518C175.545 259.079 175.666 258.69 175.88 258.376C176.095 258.063 176.373 257.839 176.713 257.705C177.268 257.499 177.806 257.396 178.325 257.396C178.782 257.396 179.185 257.45 179.534 257.557C179.883 257.656 180.148 257.776 180.327 257.92C180.515 258.063 180.662 258.233 180.77 258.43C180.886 258.627 180.958 258.802 180.985 258.954C181.012 259.097 181.025 259.241 181.025 259.384C181.025 260.181 180.631 260.678 179.843 260.875V260.915C180.264 260.978 180.609 261.161 180.877 261.466C181.146 261.77 181.28 262.169 181.28 262.661C181.28 263.163 181.101 263.62 180.743 264.032C180.304 264.515 179.516 264.757 178.379 264.757C177.421 264.757 176.691 264.555 176.189 264.152C175.625 263.66 175.343 263.073 175.343 262.393ZM183.72 259.679H182.591C182.591 259.142 182.77 258.65 183.129 258.202C183.559 257.665 184.347 257.396 185.493 257.396C186.164 257.396 186.755 257.53 187.266 257.799C187.561 257.942 187.794 258.179 187.964 258.511C188.135 258.842 188.215 259.236 188.206 259.693L188.139 262.85C188.139 263.109 188.166 263.311 188.22 263.454C188.3 263.597 188.511 263.664 188.851 263.655V264.488C188.717 264.524 188.538 264.542 188.314 264.542C187.92 264.542 187.633 264.475 187.454 264.341C187.284 264.206 187.163 263.942 187.091 263.548C186.652 264.354 185.873 264.757 184.754 264.757C183.984 264.757 183.388 264.587 182.967 264.246C182.556 263.897 182.35 263.382 182.35 262.702C182.35 262.057 182.582 261.569 183.048 261.238C183.514 260.888 184.396 260.656 185.694 260.539C186.294 260.494 186.652 260.436 186.769 260.364C186.939 260.248 187.024 259.993 187.024 259.599C187.024 258.685 186.514 258.229 185.493 258.229C184.284 258.229 183.693 258.712 183.72 259.679ZM186.997 261.573L187.024 260.996C186.89 261.094 186.693 261.175 186.433 261.238C186.039 261.264 185.735 261.296 185.52 261.332C184.776 261.457 184.324 261.56 184.163 261.641C183.769 261.829 183.572 262.169 183.572 262.661C183.572 263.055 183.688 263.364 183.921 263.588C184.163 263.812 184.485 263.924 184.888 263.924C185.148 263.924 185.385 263.888 185.6 263.817C185.824 263.745 186.039 263.629 186.245 263.467C186.46 263.297 186.63 263.051 186.755 262.729C186.89 262.406 186.97 262.021 186.997 261.573ZM191.426 257.665V263.105L194.986 257.665H196.302V264.488H195.12V259.035L191.574 264.488H190.244V257.665H191.426ZM194.543 255.086H195.55C195.362 256.071 194.771 256.648 193.777 256.818C193.607 256.845 193.428 256.859 193.24 256.859C192.085 256.859 191.346 256.388 191.023 255.448C190.997 255.385 190.965 255.265 190.929 255.086H191.937C191.91 255.318 191.991 255.538 192.179 255.744C192.313 255.887 192.47 255.994 192.649 256.066C192.81 256.12 193.007 256.147 193.24 256.147C193.625 256.147 193.943 256.053 194.194 255.865C194.444 255.668 194.561 255.408 194.543 255.086ZM202.787 261.305H199.415V264.488H198.233V257.665H199.415V260.472H202.787V257.665H203.969V264.488H202.787V261.305ZM210.823 262.514H211.952C211.844 263.114 211.553 263.638 211.078 264.085C210.604 264.533 209.901 264.757 208.97 264.757C207.707 264.757 206.78 264.341 206.189 263.508C205.893 263.069 205.701 262.599 205.611 262.097C205.549 261.748 205.517 261.417 205.517 261.103C205.517 260.503 205.607 259.939 205.786 259.411C205.902 259.035 206.073 258.708 206.296 258.43C206.538 258.135 206.883 257.888 207.331 257.691C207.779 257.494 208.284 257.396 208.849 257.396C209.852 257.396 210.608 257.674 211.119 258.229C211.334 258.462 211.508 258.757 211.643 259.115C211.84 259.635 211.961 260.266 212.005 261.009C212.005 261.036 212.005 261.094 212.005 261.184C212.014 261.273 212.019 261.327 212.019 261.345H206.767C206.767 262.026 206.946 262.626 207.304 263.145C207.662 263.664 208.204 263.924 208.929 263.924C209.449 263.924 209.874 263.794 210.205 263.535C210.537 263.275 210.743 262.935 210.823 262.514ZM206.767 260.512H210.769C210.761 259.984 210.635 259.496 210.393 259.048C210.116 258.502 209.61 258.229 208.876 258.229C208.043 258.229 207.47 258.506 207.156 259.062C206.896 259.509 206.767 259.993 206.767 260.512ZM213.568 266.973V257.665H214.669V258.605H214.709C215.247 257.799 215.999 257.396 216.966 257.396C217.853 257.396 218.587 257.705 219.169 258.323C219.751 258.95 220.042 259.867 220.042 261.076C220.042 262.312 219.747 263.235 219.156 263.844C218.574 264.452 217.853 264.757 216.993 264.757C216.724 264.757 216.397 264.699 216.012 264.582C215.448 264.412 215.027 264.054 214.75 263.508V266.973H213.568ZM214.669 261.103C214.669 262.053 214.884 262.764 215.314 263.239C215.762 263.696 216.25 263.924 216.778 263.924C217.333 263.924 217.808 263.7 218.202 263.252C218.596 262.787 218.793 262.061 218.793 261.076C218.793 260.181 218.609 259.482 218.242 258.981C217.884 258.479 217.374 258.229 216.711 258.229C216.362 258.229 216.035 258.323 215.73 258.511C215.023 258.932 214.669 259.796 214.669 261.103ZM226.365 262.057H227.493C227.457 262.576 227.26 263.123 226.902 263.696C226.705 264.018 226.396 264.278 225.975 264.475C225.563 264.663 225.08 264.757 224.524 264.757C224.336 264.757 224.202 264.752 224.121 264.743C223.727 264.726 223.324 264.623 222.912 264.435C221.766 263.861 221.193 262.724 221.193 261.023C221.193 260.127 221.399 259.33 221.811 258.632C222.321 257.808 223.199 257.396 224.444 257.396C225.321 257.396 226.02 257.62 226.539 258.068C227.059 258.506 227.359 259.084 227.439 259.8H226.311C226.132 258.753 225.518 258.229 224.471 258.229C223.79 258.229 223.28 258.479 222.939 258.981C222.608 259.473 222.442 260.154 222.442 261.023C222.442 261.864 222.617 262.558 222.966 263.105C223.315 263.651 223.844 263.924 224.551 263.924C225.16 263.924 225.603 263.732 225.881 263.347C226.177 262.961 226.338 262.532 226.365 262.057ZM230.124 257.665V260.647L233.039 257.665H234.422L231.225 260.835L234.597 264.488H233.186L230.124 261.076V264.488H228.942V257.665H230.124ZM236.696 257.665V263.105L240.255 257.665H241.572V264.488H240.39V259.035L236.843 264.488H235.514V257.665H236.696ZM244.684 257.665V263.105L248.244 257.665H249.56V264.488H248.378V259.035L244.832 264.488H243.502V257.665H244.684ZM247.801 255.086H248.808C248.62 256.071 248.029 256.648 247.035 256.818C246.865 256.845 246.686 256.859 246.498 256.859C245.343 256.859 244.604 256.388 244.281 255.448C244.254 255.385 244.223 255.265 244.187 255.086H245.195C245.168 255.318 245.248 255.538 245.437 255.744C245.571 255.887 245.728 255.994 245.907 256.066C246.068 256.12 246.265 256.147 246.498 256.147C246.883 256.147 247.201 256.053 247.451 255.865C247.702 255.668 247.819 255.408 247.801 255.086ZM93.3832 279.488V272.665H96.6338C98.0756 272.665 98.7965 273.206 98.7965 274.29C98.7965 275.069 98.3845 275.602 97.5607 275.888V275.929C98.1159 276.063 98.501 276.278 98.7159 276.573C98.9398 276.869 99.0517 277.25 99.0517 277.715C99.0517 278.458 98.7786 278.951 98.2323 279.193C97.7846 279.39 97.2383 279.488 96.5935 279.488H93.3832ZM96.2577 273.497H94.5652V275.512H96.204C96.6786 275.512 97.0279 275.418 97.2517 275.23C97.4846 275.033 97.601 274.778 97.601 274.465C97.601 273.82 97.1532 273.497 96.2577 273.497ZM96.2577 276.345H94.5652V278.655H96.298C97.3189 278.655 97.8293 278.306 97.8293 277.608C97.8293 276.766 97.3055 276.345 96.2577 276.345ZM100.409 277.42C100.176 276.461 100.185 275.535 100.436 274.639C100.687 273.744 101.215 273.103 102.021 272.718C102.469 272.503 102.993 272.396 103.593 272.396C104.193 272.396 104.717 272.503 105.164 272.718C105.97 273.094 106.503 273.766 106.763 274.733C106.879 275.181 106.937 275.633 106.937 276.09C106.946 276.538 106.893 276.981 106.776 277.42C106.669 277.85 106.476 278.244 106.199 278.602C105.93 278.96 105.585 279.242 105.164 279.448C104.708 279.654 104.184 279.757 103.593 279.757C103.002 279.757 102.478 279.654 102.021 279.448C101.242 279.072 100.705 278.396 100.409 277.42ZM101.658 274.72C101.542 275.078 101.484 275.526 101.484 276.063C101.484 276.591 101.542 277.044 101.658 277.42C101.775 277.796 101.909 278.078 102.061 278.266C102.384 278.624 102.751 278.835 103.163 278.897C103.449 278.942 103.736 278.942 104.023 278.897C104.148 278.888 104.323 278.826 104.546 278.709C104.788 278.584 104.985 278.427 105.137 278.239C105.29 278.051 105.42 277.778 105.527 277.42C105.643 277.044 105.702 276.591 105.702 276.063C105.702 275.526 105.643 275.078 105.527 274.72C105.402 274.326 105.263 274.044 105.111 273.873C104.967 273.703 104.788 273.56 104.573 273.444C104.358 273.327 104.175 273.256 104.023 273.229C103.736 273.184 103.449 273.184 103.163 273.229C103.038 273.238 102.858 273.305 102.626 273.43C102.169 273.654 101.846 274.084 101.658 274.72ZM108.495 281.973V272.665H109.596V273.605H109.637C110.174 272.799 110.926 272.396 111.893 272.396C112.78 272.396 113.514 272.705 114.096 273.323C114.678 273.95 114.969 274.867 114.969 276.076C114.969 277.312 114.674 278.235 114.083 278.844C113.501 279.452 112.78 279.757 111.92 279.757C111.651 279.757 111.325 279.699 110.939 279.582C110.375 279.412 109.954 279.054 109.677 278.508V281.973H108.495ZM109.596 276.103C109.596 277.053 109.811 277.764 110.241 278.239C110.689 278.696 111.177 278.924 111.705 278.924C112.26 278.924 112.735 278.7 113.129 278.252C113.523 277.787 113.72 277.061 113.72 276.076C113.72 275.181 113.536 274.482 113.169 273.981C112.811 273.479 112.301 273.229 111.638 273.229C111.289 273.229 110.962 273.323 110.657 273.511C109.95 273.932 109.596 274.796 109.596 276.103ZM117.692 272.665V275.647L120.607 272.665H121.99L118.793 275.835L122.165 279.488H120.754L117.692 276.076V279.488H116.51V272.665H117.692ZM124.264 272.665V278.655H127.111V272.665H128.293V278.655H131.141V272.665H132.323V279.488H123.082V272.665H124.264ZM134.043 277.42C133.81 276.461 133.819 275.535 134.07 274.639C134.321 273.744 134.849 273.103 135.655 272.718C136.103 272.503 136.627 272.396 137.227 272.396C137.827 272.396 138.35 272.503 138.798 272.718C139.604 273.094 140.137 273.766 140.397 274.733C140.513 275.181 140.571 275.633 140.571 276.09C140.58 276.538 140.526 276.981 140.41 277.42C140.303 277.85 140.11 278.244 139.832 278.602C139.564 278.96 139.219 279.242 138.798 279.448C138.341 279.654 137.818 279.757 137.227 279.757C136.636 279.757 136.112 279.654 135.655 279.448C134.876 279.072 134.339 278.396 134.043 277.42ZM135.292 274.72C135.176 275.078 135.118 275.526 135.118 276.063C135.118 276.591 135.176 277.044 135.292 277.42C135.409 277.796 135.543 278.078 135.695 278.266C136.018 278.624 136.385 278.835 136.797 278.897C137.083 278.942 137.37 278.942 137.656 278.897C137.782 278.888 137.956 278.826 138.18 278.709C138.422 278.584 138.619 278.427 138.771 278.239C138.924 278.051 139.053 277.778 139.161 277.42C139.277 277.044 139.335 276.591 139.335 276.063C139.335 275.526 139.277 275.078 139.161 274.72C139.035 274.326 138.897 274.044 138.744 273.873C138.601 273.703 138.422 273.56 138.207 273.444C137.992 273.327 137.809 273.256 137.656 273.229C137.37 273.184 137.083 273.184 136.797 273.229C136.671 273.238 136.492 273.305 136.259 273.43C135.803 273.654 135.48 274.084 135.292 274.72ZM146.763 273.497H143.311V279.488H142.129V272.665H147.945V279.488H146.763V273.497ZM150.338 279.488V278.024H151.668V279.905C151.668 280.352 151.542 280.706 151.292 280.966C151.041 281.226 150.723 281.396 150.338 281.476V280.738C150.526 280.72 150.683 280.626 150.808 280.455C150.942 280.294 151.009 280.111 151.009 279.905V279.488H150.338ZM161.822 273.497H158.37V279.488H157.188V272.665H163.004V279.488H161.822V273.497ZM164.725 277.42C164.493 276.461 164.501 275.535 164.752 274.639C165.003 273.744 165.531 273.103 166.337 272.718C166.785 272.503 167.309 272.396 167.909 272.396C168.509 272.396 169.033 272.503 169.48 272.718C170.286 273.094 170.819 273.766 171.079 274.733C171.195 275.181 171.254 275.633 171.254 276.09C171.263 276.538 171.209 276.981 171.092 277.42C170.985 277.85 170.792 278.244 170.515 278.602C170.246 278.96 169.901 279.242 169.48 279.448C169.024 279.654 168.5 279.757 167.909 279.757C167.318 279.757 166.794 279.654 166.337 279.448C165.558 279.072 165.021 278.396 164.725 277.42ZM165.975 274.72C165.858 275.078 165.8 275.526 165.8 276.063C165.8 276.591 165.858 277.044 165.975 277.42C166.091 277.796 166.225 278.078 166.378 278.266C166.7 278.624 167.067 278.835 167.479 278.897C167.766 278.942 168.052 278.942 168.339 278.897C168.464 278.888 168.639 278.826 168.863 278.709C169.104 278.584 169.301 278.427 169.454 278.239C169.606 278.051 169.736 277.778 169.843 277.42C169.96 277.044 170.018 276.591 170.018 276.063C170.018 275.526 169.96 275.078 169.843 274.72C169.718 274.326 169.579 274.044 169.427 273.873C169.283 273.703 169.104 273.56 168.889 273.444C168.675 273.327 168.491 273.256 168.339 273.229C168.052 273.184 167.766 273.184 167.479 273.229C167.354 273.238 167.175 273.305 166.942 273.43C166.485 273.654 166.163 274.084 165.975 274.72ZM177.593 277.057H178.721C178.685 277.576 178.488 278.123 178.13 278.696C177.933 279.018 177.624 279.278 177.203 279.475C176.791 279.663 176.308 279.757 175.753 279.757C175.565 279.757 175.43 279.752 175.35 279.743C174.956 279.726 174.553 279.623 174.141 279.435C172.994 278.861 172.421 277.724 172.421 276.023C172.421 275.127 172.627 274.33 173.039 273.632C173.55 272.808 174.427 272.396 175.672 272.396C176.55 272.396 177.248 272.62 177.768 273.068C178.287 273.506 178.587 274.084 178.668 274.8H177.539C177.36 273.753 176.747 273.229 175.699 273.229C175.018 273.229 174.508 273.479 174.168 273.981C173.836 274.473 173.671 275.154 173.671 276.023C173.671 276.864 173.845 277.558 174.194 278.105C174.544 278.651 175.072 278.924 175.78 278.924C176.388 278.924 176.832 278.732 177.109 278.347C177.405 277.961 177.566 277.532 177.593 277.057ZM180.17 279.488V272.665H183.421C184.862 272.665 185.583 273.206 185.583 274.29C185.583 275.069 185.171 275.602 184.347 275.888V275.929C184.903 276.063 185.288 276.278 185.503 276.573C185.727 276.869 185.838 277.25 185.838 277.715C185.838 278.458 185.565 278.951 185.019 279.193C184.571 279.39 184.025 279.488 183.38 279.488H180.17ZM183.045 273.497H181.352V275.512H182.991C183.465 275.512 183.815 275.418 184.039 275.23C184.271 275.033 184.388 274.778 184.388 274.465C184.388 273.82 183.94 273.497 183.045 273.497ZM183.045 276.345H181.352V278.655H183.085C184.106 278.655 184.616 278.306 184.616 277.608C184.616 276.766 184.092 276.345 183.045 276.345ZM191.588 276.802H190.03L188.244 279.488H186.941L188.821 276.788C188.302 276.735 187.881 276.533 187.559 276.184C187.236 275.835 187.075 275.378 187.075 274.814C187.075 274.285 187.214 273.824 187.492 273.43C187.823 272.92 188.45 272.665 189.372 272.665H192.771V279.488H191.588V276.802ZM191.588 275.969V273.497H189.883C188.826 273.497 188.297 273.923 188.297 274.773C188.297 275.123 188.427 275.409 188.687 275.633C188.947 275.857 189.359 275.969 189.923 275.969H191.588ZM195.886 272.665V278.655H198.734V272.665H199.916V278.655H202.764V272.665H203.946V278.655H205.101L204.994 281.261H204V279.488H194.704V272.665H195.886ZM211.033 277.514H212.161C212.054 278.114 211.763 278.638 211.288 279.085C210.814 279.533 210.111 279.757 209.179 279.757C207.917 279.757 206.99 279.341 206.399 278.508C206.103 278.069 205.911 277.599 205.821 277.097C205.759 276.748 205.727 276.417 205.727 276.103C205.727 275.503 205.817 274.939 205.996 274.411C206.112 274.035 206.282 273.708 206.506 273.43C206.748 273.135 207.093 272.888 207.541 272.691C207.988 272.494 208.494 272.396 209.059 272.396C210.061 272.396 210.818 272.674 211.329 273.229C211.544 273.462 211.718 273.757 211.852 274.115C212.049 274.635 212.17 275.266 212.215 276.009C212.215 276.036 212.215 276.094 212.215 276.184C212.224 276.273 212.229 276.327 212.229 276.345H206.976C206.976 277.026 207.156 277.626 207.514 278.145C207.872 278.664 208.414 278.924 209.139 278.924C209.659 278.924 210.084 278.794 210.415 278.535C210.747 278.275 210.953 277.935 211.033 277.514ZM206.976 275.512H210.979C210.97 274.984 210.845 274.496 210.603 274.048C210.326 273.502 209.82 273.229 209.085 273.229C208.253 273.229 207.679 273.506 207.366 274.062C207.106 274.509 206.976 274.993 206.976 275.512ZM218.331 276.305H214.96V279.488H213.778V272.665H214.96V275.472H218.331V272.665H219.513V279.488H218.331V276.305ZM226.005 276.305H222.633V279.488H221.451V272.665H222.633V275.472H226.005V272.665H227.187V279.488H226.005V276.305ZM229.125 279.488V272.665H230.307V275.364H232.027C232.573 275.364 233.03 275.418 233.397 275.526C234.274 275.75 234.731 276.39 234.767 277.447C234.767 278.073 234.574 278.57 234.189 278.938C233.813 279.305 233.227 279.488 232.43 279.488H229.125ZM231.745 276.197H230.307V278.655H231.96C233.016 278.655 233.545 278.226 233.545 277.366C233.545 276.945 233.406 276.641 233.128 276.453C233.039 276.381 232.891 276.323 232.685 276.278C232.47 276.224 232.157 276.197 231.745 276.197ZM235.6 279.488V272.665H236.782V279.488H235.6ZM239.896 272.665V278.105L243.456 272.665H244.772V279.488H243.59V274.035L240.044 279.488H238.714V272.665H239.896ZM243.013 270.086H244.02C243.832 271.071 243.241 271.648 242.247 271.818C242.077 271.845 241.898 271.859 241.71 271.859C240.555 271.859 239.816 271.388 239.493 270.448C239.467 270.385 239.435 270.265 239.399 270.086H240.407C240.38 270.318 240.461 270.538 240.649 270.744C240.783 270.887 240.94 270.994 241.119 271.066C241.28 271.12 241.477 271.147 241.71 271.147C242.095 271.147 242.413 271.053 242.663 270.865C242.914 270.668 243.031 270.408 243.013 270.086ZM249.838 281.973V272.665H250.94V273.605H250.98C251.517 272.799 252.269 272.396 253.237 272.396C254.123 272.396 254.857 272.705 255.439 273.323C256.022 273.95 256.313 274.867 256.313 276.076C256.313 277.312 256.017 278.235 255.426 278.844C254.844 279.452 254.123 279.757 253.263 279.757C252.995 279.757 252.668 279.699 252.283 279.582C251.719 279.412 251.298 279.054 251.02 278.508V281.973H249.838ZM250.94 276.103C250.94 277.053 251.155 277.764 251.584 278.239C252.032 278.696 252.52 278.924 253.049 278.924C253.604 278.924 254.078 278.7 254.472 278.252C254.866 277.787 255.063 277.061 255.063 276.076C255.063 275.181 254.88 274.482 254.513 273.981C254.154 273.479 253.644 273.229 252.981 273.229C252.632 273.229 252.305 273.323 252.001 273.511C251.293 273.932 250.94 274.796 250.94 276.103ZM258.753 274.679H257.625C257.625 274.142 257.804 273.65 258.162 273.202C258.592 272.665 259.38 272.396 260.526 272.396C261.198 272.396 261.789 272.53 262.299 272.799C262.595 272.942 262.828 273.179 262.998 273.511C263.168 273.842 263.248 274.236 263.24 274.693L263.172 277.85C263.172 278.109 263.199 278.311 263.253 278.454C263.334 278.597 263.544 278.664 263.884 278.655V279.488C263.75 279.524 263.571 279.542 263.347 279.542C262.953 279.542 262.666 279.475 262.487 279.341C262.317 279.206 262.196 278.942 262.125 278.548C261.686 279.354 260.907 279.757 259.787 279.757C259.017 279.757 258.422 279.587 258.001 279.246C257.589 278.897 257.383 278.382 257.383 277.702C257.383 277.057 257.616 276.569 258.081 276.238C258.547 275.888 259.429 275.656 260.728 275.539C261.328 275.494 261.686 275.436 261.802 275.364C261.972 275.248 262.057 274.993 262.057 274.599C262.057 273.685 261.547 273.229 260.526 273.229C259.317 273.229 258.726 273.712 258.753 274.679ZM262.031 276.573L262.057 275.996C261.923 276.094 261.726 276.175 261.466 276.238C261.072 276.264 260.768 276.296 260.553 276.332C259.81 276.457 259.357 276.56 259.196 276.641C258.802 276.829 258.605 277.169 258.605 277.661C258.605 278.055 258.722 278.364 258.955 278.588C259.196 278.812 259.519 278.924 259.922 278.924C260.181 278.924 260.419 278.888 260.634 278.817C260.857 278.745 261.072 278.629 261.278 278.467C261.493 278.297 261.663 278.051 261.789 277.729C261.923 277.406 262.004 277.021 262.031 276.573ZM270.127 269.642H271.134C271.098 270.296 270.794 270.73 270.221 270.945C269.907 271.053 269.639 271.124 269.415 271.16C268.412 271.285 267.83 271.371 267.669 271.415C267.06 271.585 266.594 271.894 266.272 272.342C265.949 272.781 265.779 273.412 265.761 274.236H265.788C266.218 273.081 267.1 272.503 268.434 272.503C269.518 272.503 270.328 272.862 270.866 273.578C271.412 274.285 271.685 275.154 271.685 276.184C271.685 277.169 271.403 278.011 270.839 278.709C270.275 279.408 269.437 279.757 268.327 279.757C267.1 279.757 266.191 279.291 265.6 278.36C265.305 277.85 265.103 277.276 264.996 276.641C264.924 276.139 264.888 275.642 264.888 275.15C264.888 273.421 265.152 272.212 265.681 271.523C266.146 270.923 266.778 270.538 267.575 270.368C268.327 270.197 268.963 270.099 269.482 270.072C269.831 270.027 270.046 269.884 270.127 269.642ZM266.137 276.264C266.137 276.856 266.272 277.424 266.54 277.97C266.854 278.606 267.44 278.924 268.3 278.924C268.981 278.924 269.504 278.696 269.872 278.239C270.248 277.773 270.436 277.133 270.436 276.318C270.436 275.647 270.319 275.024 270.087 274.451C269.791 273.708 269.195 273.336 268.3 273.336C267.404 273.336 266.8 273.699 266.487 274.424C266.254 274.979 266.137 275.593 266.137 276.264ZM273.012 277.42C272.779 276.461 272.788 275.535 273.039 274.639C273.29 273.744 273.818 273.103 274.624 272.718C275.072 272.503 275.596 272.396 276.196 272.396C276.796 272.396 277.319 272.503 277.767 272.718C278.573 273.094 279.106 273.766 279.366 274.733C279.482 275.181 279.54 275.633 279.54 276.09C279.549 276.538 279.496 276.981 279.379 277.42C279.272 277.85 279.079 278.244 278.802 278.602C278.533 278.96 278.188 279.242 277.767 279.448C277.311 279.654 276.787 279.757 276.196 279.757C275.605 279.757 275.081 279.654 274.624 279.448C273.845 279.072 273.308 278.396 273.012 277.42ZM274.261 274.72C274.145 275.078 274.087 275.526 274.087 276.063C274.087 276.591 274.145 277.044 274.261 277.42C274.378 277.796 274.512 278.078 274.664 278.266C274.987 278.624 275.354 278.835 275.766 278.897C276.052 278.942 276.339 278.942 276.625 278.897C276.751 278.888 276.925 278.826 277.149 278.709C277.391 278.584 277.588 278.427 277.74 278.239C277.893 278.051 278.022 277.778 278.13 277.42C278.246 277.044 278.305 276.591 278.305 276.063C278.305 275.526 278.246 275.078 278.13 274.72C278.005 274.326 277.866 274.044 277.713 273.873C277.57 273.703 277.391 273.56 277.176 273.444C276.961 273.327 276.778 273.256 276.625 273.229C276.339 273.184 276.052 273.184 275.766 273.229C275.64 273.238 275.461 273.305 275.228 273.43C274.772 273.654 274.449 274.084 274.261 274.72ZM282.249 279.488V273.497H279.885V272.665H285.796V273.497H283.432V279.488H282.249ZM291.51 277.514H292.639C292.531 278.114 292.24 278.638 291.765 279.085C291.291 279.533 290.588 279.757 289.657 279.757C288.394 279.757 287.467 279.341 286.876 278.508C286.581 278.069 286.388 277.599 286.298 277.097C286.236 276.748 286.204 276.417 286.204 276.103C286.204 275.503 286.294 274.939 286.473 274.411C286.589 274.035 286.76 273.708 286.984 273.43C287.225 273.135 287.57 272.888 288.018 272.691C288.466 272.494 288.972 272.396 289.536 272.396C290.539 272.396 291.295 272.674 291.806 273.229C292.021 273.462 292.195 273.757 292.33 274.115C292.527 274.635 292.648 275.266 292.692 276.009C292.692 276.036 292.692 276.094 292.692 276.184C292.701 276.273 292.706 276.327 292.706 276.345H287.454C287.454 277.026 287.633 277.626 287.991 278.145C288.349 278.664 288.891 278.924 289.616 278.924C290.136 278.924 290.561 278.794 290.892 278.535C291.224 278.275 291.43 277.935 291.51 277.514ZM287.454 275.512H291.457C291.448 274.984 291.322 274.496 291.08 274.048C290.803 273.502 290.297 273.229 289.563 273.229C288.73 273.229 288.157 273.506 287.843 274.062C287.583 274.509 287.454 274.993 287.454 275.512ZM98.1651 292.057H99.2935C99.2577 292.576 99.0606 293.123 98.7024 293.696C98.5054 294.018 98.1965 294.278 97.7756 294.475C97.3637 294.663 96.8801 294.757 96.3249 294.757C96.1368 294.757 96.0025 294.752 95.9219 294.743C95.5279 294.726 95.1249 294.623 94.713 294.435C93.5667 293.861 92.9936 292.724 92.9936 291.023C92.9936 290.127 93.1996 289.33 93.6115 288.632C94.1219 287.808 94.9995 287.396 96.2443 287.396C97.1219 287.396 97.8204 287.62 98.3398 288.068C98.8592 288.506 99.1592 289.084 99.2397 289.8H98.1114C97.9323 288.753 97.3189 288.229 96.2712 288.229C95.5906 288.229 95.0801 288.479 94.7398 288.981C94.4085 289.473 94.2428 290.154 94.2428 291.023C94.2428 291.864 94.4175 292.558 94.7667 293.105C95.116 293.651 95.6443 293.924 96.3517 293.924C96.9607 293.924 97.404 293.732 97.6816 293.347C97.9771 292.961 98.1383 292.532 98.1651 292.057ZM108.512 288.497H105.059V294.488H103.877V287.665H109.694V294.488H108.512V288.497ZM116.546 292.514H117.675C117.567 293.114 117.276 293.638 116.801 294.085C116.327 294.533 115.624 294.757 114.693 294.757C113.43 294.757 112.503 294.341 111.912 293.508C111.616 293.069 111.424 292.599 111.334 292.097C111.272 291.748 111.24 291.417 111.24 291.103C111.24 290.503 111.33 289.939 111.509 289.411C111.625 289.035 111.796 288.708 112.019 288.43C112.261 288.135 112.606 287.888 113.054 287.691C113.501 287.494 114.007 287.396 114.572 287.396C115.575 287.396 116.331 287.674 116.842 288.229C117.057 288.462 117.231 288.757 117.366 289.115C117.563 289.635 117.683 290.266 117.728 291.009C117.728 291.036 117.728 291.094 117.728 291.184C117.737 291.273 117.742 291.327 117.742 291.345H112.49C112.49 292.026 112.669 292.626 113.027 293.145C113.385 293.664 113.927 293.924 114.652 293.924C115.172 293.924 115.597 293.794 115.928 293.535C116.26 293.275 116.466 292.935 116.546 292.514ZM112.49 290.512H116.492C116.484 289.984 116.358 289.496 116.116 289.048C115.839 288.502 115.333 288.229 114.598 288.229C113.766 288.229 113.193 288.506 112.879 289.062C112.619 289.509 112.49 289.993 112.49 290.512ZM119.291 296.973V287.665H120.392V288.605H120.432C120.97 287.799 121.722 287.396 122.689 287.396C123.576 287.396 124.31 287.705 124.892 288.323C125.474 288.95 125.765 289.867 125.765 291.076C125.765 292.312 125.47 293.235 124.879 293.844C124.297 294.452 123.576 294.757 122.716 294.757C122.447 294.757 122.12 294.699 121.735 294.582C121.171 294.412 120.75 294.054 120.473 293.508V296.973H119.291ZM120.392 291.103C120.392 292.053 120.607 292.764 121.037 293.239C121.485 293.696 121.973 293.924 122.501 293.924C123.056 293.924 123.531 293.7 123.925 293.252C124.319 292.787 124.516 292.061 124.516 291.076C124.516 290.181 124.332 289.482 123.965 288.981C123.607 288.479 123.097 288.229 122.434 288.229C122.085 288.229 121.758 288.323 121.453 288.511C120.746 288.932 120.392 289.796 120.392 291.103ZM132.222 292.514H133.35C133.243 293.114 132.952 293.638 132.477 294.085C132.002 294.533 131.3 294.757 130.368 294.757C129.106 294.757 128.179 294.341 127.588 293.508C127.292 293.069 127.1 292.599 127.01 292.097C126.947 291.748 126.916 291.417 126.916 291.103C126.916 290.503 127.006 289.939 127.185 289.411C127.301 289.035 127.471 288.708 127.695 288.43C127.937 288.135 128.282 287.888 128.729 287.691C129.177 287.494 129.683 287.396 130.247 287.396C131.25 287.396 132.007 287.674 132.517 288.229C132.732 288.462 132.907 288.757 133.041 289.115C133.238 289.635 133.359 290.266 133.404 291.009C133.404 291.036 133.404 291.094 133.404 291.184C133.413 291.273 133.417 291.327 133.417 291.345H128.165C128.165 292.026 128.344 292.626 128.703 293.145C129.061 293.664 129.603 293.924 130.328 293.924C130.847 293.924 131.273 293.794 131.604 293.535C131.935 293.275 132.141 292.935 132.222 292.514ZM128.165 290.512H132.168C132.159 289.984 132.034 289.496 131.792 289.048C131.514 288.502 131.008 288.229 130.274 288.229C129.441 288.229 128.868 288.506 128.555 289.062C128.295 289.509 128.165 289.993 128.165 290.512ZM134.966 296.973V287.665H136.068V288.605H136.108C136.645 287.799 137.398 287.396 138.365 287.396C139.251 287.396 139.986 287.705 140.568 288.323C141.15 288.95 141.441 289.867 141.441 291.076C141.441 292.312 141.145 293.235 140.554 293.844C139.972 294.452 139.251 294.757 138.392 294.757C138.123 294.757 137.796 294.699 137.411 294.582C136.847 294.412 136.426 294.054 136.148 293.508V296.973H134.966ZM136.068 291.103C136.068 292.053 136.283 292.764 136.713 293.239C137.16 293.696 137.648 293.924 138.177 293.924C138.732 293.924 139.207 293.7 139.601 293.252C139.995 292.787 140.192 292.061 140.192 291.076C140.192 290.181 140.008 289.482 139.641 288.981C139.283 288.479 138.772 288.229 138.11 288.229C137.76 288.229 137.433 288.323 137.129 288.511C136.422 288.932 136.068 289.796 136.068 291.103ZM143.881 289.679H142.753C142.753 289.142 142.932 288.65 143.29 288.202C143.72 287.665 144.508 287.396 145.654 287.396C146.326 287.396 146.917 287.53 147.427 287.799C147.723 287.942 147.956 288.179 148.126 288.511C148.296 288.842 148.377 289.236 148.368 289.693L148.301 292.85C148.301 293.109 148.327 293.311 148.381 293.454C148.462 293.597 148.672 293.664 149.012 293.655V294.488C148.878 294.524 148.699 294.542 148.475 294.542C148.081 294.542 147.795 294.475 147.615 294.341C147.445 294.206 147.324 293.942 147.253 293.548C146.814 294.354 146.035 294.757 144.916 294.757C144.145 294.757 143.55 294.587 143.129 294.246C142.717 293.897 142.511 293.382 142.511 292.702C142.511 292.057 142.744 291.569 143.21 291.238C143.675 290.888 144.557 290.656 145.856 290.539C146.456 290.494 146.814 290.436 146.93 290.364C147.101 290.248 147.186 289.993 147.186 289.599C147.186 288.685 146.675 288.229 145.654 288.229C144.445 288.229 143.854 288.712 143.881 289.679ZM147.159 291.573L147.186 290.996C147.051 291.094 146.854 291.175 146.595 291.238C146.201 291.264 145.896 291.296 145.681 291.332C144.938 291.457 144.486 291.56 144.324 291.641C143.93 291.829 143.733 292.169 143.733 292.661C143.733 293.055 143.85 293.364 144.083 293.588C144.324 293.812 144.647 293.924 145.05 293.924C145.31 293.924 145.547 293.888 145.762 293.817C145.986 293.745 146.201 293.629 146.407 293.467C146.621 293.297 146.792 293.051 146.917 292.729C147.051 292.406 147.132 292.021 147.159 291.573ZM155.255 284.642H156.262C156.227 285.296 155.922 285.73 155.349 285.945C155.036 286.053 154.767 286.124 154.543 286.16C153.54 286.285 152.958 286.371 152.797 286.415C152.188 286.585 151.722 286.894 151.4 287.342C151.077 287.781 150.907 288.412 150.889 289.236H150.916C151.346 288.081 152.228 287.503 153.563 287.503C154.646 287.503 155.456 287.862 155.994 288.578C156.54 289.285 156.813 290.154 156.813 291.184C156.813 292.169 156.531 293.011 155.967 293.709C155.403 294.408 154.565 294.757 153.455 294.757C152.228 294.757 151.319 294.291 150.728 293.36C150.433 292.85 150.231 292.276 150.124 291.641C150.052 291.139 150.016 290.642 150.016 290.15C150.016 288.421 150.28 287.212 150.809 286.523C151.274 285.923 151.906 285.538 152.703 285.368C153.455 285.197 154.091 285.099 154.61 285.072C154.959 285.027 155.174 284.884 155.255 284.642ZM151.266 291.264C151.266 291.856 151.4 292.424 151.669 292.97C151.982 293.606 152.568 293.924 153.428 293.924C154.109 293.924 154.633 293.696 155 293.239C155.376 292.773 155.564 292.133 155.564 291.318C155.564 290.647 155.448 290.024 155.215 289.451C154.919 288.708 154.324 288.336 153.428 288.336C152.533 288.336 151.928 288.699 151.615 289.424C151.382 289.979 151.266 290.593 151.266 291.264ZM158.14 292.42C157.907 291.461 157.916 290.535 158.167 289.639C158.418 288.744 158.946 288.103 159.752 287.718C160.2 287.503 160.724 287.396 161.324 287.396C161.924 287.396 162.448 287.503 162.895 287.718C163.701 288.094 164.234 288.766 164.494 289.733C164.61 290.181 164.668 290.633 164.668 291.09C164.677 291.538 164.624 291.981 164.507 292.42C164.4 292.85 164.207 293.244 163.93 293.602C163.661 293.96 163.316 294.242 162.895 294.448C162.439 294.654 161.915 294.757 161.324 294.757C160.733 294.757 160.209 294.654 159.752 294.448C158.973 294.072 158.436 293.396 158.14 292.42ZM159.39 289.72C159.273 290.078 159.215 290.526 159.215 291.063C159.215 291.591 159.273 292.044 159.39 292.42C159.506 292.796 159.64 293.078 159.792 293.266C160.115 293.624 160.482 293.835 160.894 293.897C161.181 293.942 161.467 293.942 161.754 293.897C161.879 293.888 162.054 293.826 162.277 293.709C162.519 293.584 162.716 293.427 162.869 293.239C163.021 293.051 163.151 292.778 163.258 292.42C163.374 292.044 163.433 291.591 163.433 291.063C163.433 290.526 163.374 290.078 163.258 289.72C163.133 289.326 162.994 289.044 162.842 288.873C162.698 288.703 162.519 288.56 162.304 288.444C162.089 288.327 161.906 288.256 161.754 288.229C161.467 288.184 161.181 288.184 160.894 288.229C160.769 288.238 160.589 288.305 160.357 288.43C159.9 288.654 159.578 289.084 159.39 289.72ZM167.378 294.488V288.497H165.014V287.665H170.924V288.497H168.56V294.488H167.378ZM172.622 289.679H171.494C171.494 289.142 171.673 288.65 172.031 288.202C172.461 287.665 173.249 287.396 174.395 287.396C175.067 287.396 175.658 287.53 176.168 287.799C176.464 287.942 176.697 288.179 176.867 288.511C177.037 288.842 177.118 289.236 177.109 289.693L177.041 292.85C177.041 293.109 177.068 293.311 177.122 293.454C177.203 293.597 177.413 293.664 177.753 293.655V294.488C177.619 294.524 177.44 294.542 177.216 294.542C176.822 294.542 176.535 294.475 176.356 294.341C176.186 294.206 176.065 293.942 175.994 293.548C175.555 294.354 174.776 294.757 173.656 294.757C172.886 294.757 172.291 294.587 171.87 294.246C171.458 293.897 171.252 293.382 171.252 292.702C171.252 292.057 171.485 291.569 171.951 291.238C172.416 290.888 173.298 290.656 174.597 290.539C175.197 290.494 175.555 290.436 175.671 290.364C175.841 290.248 175.927 289.993 175.927 289.599C175.927 288.685 175.416 288.229 174.395 288.229C173.186 288.229 172.595 288.712 172.622 289.679ZM175.9 291.573L175.927 290.996C175.792 291.094 175.595 291.175 175.336 291.238C174.941 291.264 174.637 291.296 174.422 291.332C173.679 291.457 173.227 291.56 173.065 291.641C172.671 291.829 172.474 292.169 172.474 292.661C172.474 293.055 172.591 293.364 172.824 293.588C173.065 293.812 173.388 293.924 173.791 293.924C174.05 293.924 174.288 293.888 174.503 293.817C174.727 293.745 174.941 293.629 175.147 293.467C175.362 293.297 175.533 293.051 175.658 292.729C175.792 292.406 175.873 292.021 175.9 291.573ZM183.7 291.305H180.329V294.488H179.147V287.665H180.329V290.472H183.7V287.665H184.882V294.488H183.7V291.305ZM191.374 291.305H188.003V294.488H186.821V287.665H188.003V290.472H191.374V287.665H192.556V294.488H191.374V291.305ZM194.494 294.488V287.665H195.677V290.364H197.396C197.942 290.364 198.399 290.418 198.766 290.526C199.644 290.75 200.1 291.39 200.136 292.447C200.136 293.073 199.944 293.57 199.559 293.938C199.182 294.305 198.596 294.488 197.799 294.488H194.494ZM197.114 291.197H195.677V293.655H197.329C198.385 293.655 198.914 293.226 198.914 292.366C198.914 291.945 198.775 291.641 198.497 291.453C198.408 291.381 198.26 291.323 198.054 291.278C197.839 291.224 197.526 291.197 197.114 291.197ZM200.969 294.488V287.665H202.151V294.488H200.969ZM208.489 294.488H207.576L205.266 289.008H205.239L205.266 289.37V294.488H204.084V287.665H205.709L208.033 293.212L210.357 287.665H211.982V294.488H210.8V289.37L210.84 289.008H210.8L208.489 294.488ZM221.691 288.497H218.239V294.488H217.057V287.665H222.873V294.488H221.691V288.497ZM224.017 294.488V293.615C224.689 293.812 225.163 293.494 225.441 292.661C225.513 292.455 225.562 292.2 225.589 291.896L225.642 291.076C225.651 290.933 225.656 290.651 225.656 290.23V287.665H230.384V294.488H229.202V288.497H226.757V290.23C226.757 290.794 226.744 291.269 226.717 291.654C226.69 292.03 226.623 292.442 226.515 292.89C226.363 293.526 226.09 293.978 225.696 294.246C225.302 294.515 224.742 294.596 224.017 294.488ZM233.213 289.679H232.085C232.085 289.142 232.264 288.65 232.622 288.202C233.052 287.665 233.84 287.396 234.986 287.396C235.658 287.396 236.249 287.53 236.759 287.799C237.055 287.942 237.287 288.179 237.458 288.511C237.628 288.842 237.708 289.236 237.699 289.693L237.632 292.85C237.632 293.109 237.659 293.311 237.713 293.454C237.793 293.597 238.004 293.664 238.344 293.655V294.488C238.21 294.524 238.031 294.542 237.807 294.542C237.413 294.542 237.126 294.475 236.947 294.341C236.777 294.206 236.656 293.942 236.584 293.548C236.146 294.354 235.367 294.757 234.247 294.757C233.477 294.757 232.882 294.587 232.461 294.246C232.049 293.897 231.843 293.382 231.843 292.702C231.843 292.057 232.076 291.569 232.541 291.238C233.007 290.888 233.889 290.656 235.187 290.539C235.787 290.494 236.146 290.436 236.262 290.364C236.432 290.248 236.517 289.993 236.517 289.599C236.517 288.685 236.007 288.229 234.986 288.229C233.777 288.229 233.186 288.712 233.213 289.679ZM236.49 291.573L236.517 290.996C236.383 291.094 236.186 291.175 235.926 291.238C235.532 291.264 235.228 291.296 235.013 291.332C234.27 291.457 233.817 291.56 233.656 291.641C233.262 291.829 233.065 292.169 233.065 292.661C233.065 293.055 233.181 293.364 233.414 293.588C233.656 293.812 233.978 293.924 234.381 293.924C234.641 293.924 234.878 293.888 235.093 293.817C235.317 293.745 235.532 293.629 235.738 293.467C235.953 293.297 236.123 293.051 236.249 292.729C236.383 292.406 236.464 292.021 236.49 291.573ZM244.519 292.057H245.648C245.612 292.576 245.415 293.123 245.057 293.696C244.86 294.018 244.551 294.278 244.13 294.475C243.718 294.663 243.234 294.757 242.679 294.757C242.491 294.757 242.357 294.752 242.276 294.743C241.882 294.726 241.479 294.623 241.067 294.435C239.921 293.861 239.348 292.724 239.348 291.023C239.348 290.127 239.554 289.33 239.966 288.632C240.476 287.808 241.354 287.396 242.599 287.396C243.476 287.396 244.175 287.62 244.694 288.068C245.213 288.506 245.513 289.084 245.594 289.8H244.466C244.287 288.753 243.673 288.229 242.625 288.229C241.945 288.229 241.434 288.479 241.094 288.981C240.763 289.473 240.597 290.154 240.597 291.023C240.597 291.864 240.772 292.558 241.121 293.105C241.47 293.651 241.999 293.924 242.706 293.924C243.315 293.924 243.758 293.732 244.036 293.347C244.331 292.961 244.493 292.532 244.519 292.057ZM248.432 294.488V288.497H246.068V287.665H251.978V288.497H249.614V294.488H248.432ZM254.063 287.665V293.105L257.623 287.665H258.94V294.488H257.757V289.035L254.211 294.488H252.881V287.665H254.063ZM262.052 287.665V290.647L264.967 287.665H266.351L263.154 290.835L266.525 294.488H265.115L262.052 291.076V294.488H260.87V287.665H262.052ZM266.978 292.42C266.745 291.461 266.754 290.535 267.005 289.639C267.256 288.744 267.784 288.103 268.59 287.718C269.038 287.503 269.561 287.396 270.161 287.396C270.761 287.396 271.285 287.503 271.733 287.718C272.539 288.094 273.072 288.766 273.332 289.733C273.448 290.181 273.506 290.633 273.506 291.09C273.515 291.538 273.461 291.981 273.345 292.42C273.238 292.85 273.045 293.244 272.767 293.602C272.499 293.96 272.154 294.242 271.733 294.448C271.276 294.654 270.752 294.757 270.161 294.757C269.57 294.757 269.047 294.654 268.59 294.448C267.811 294.072 267.273 293.396 266.978 292.42ZM268.227 289.72C268.111 290.078 268.053 290.526 268.053 291.063C268.053 291.591 268.111 292.044 268.227 292.42C268.344 292.796 268.478 293.078 268.63 293.266C268.953 293.624 269.32 293.835 269.732 293.897C270.018 293.942 270.305 293.942 270.591 293.897C270.717 293.888 270.891 293.826 271.115 293.709C271.357 293.584 271.554 293.427 271.706 293.239C271.858 293.051 271.988 292.778 272.096 292.42C272.212 292.044 272.27 291.591 272.27 291.063C272.27 290.526 272.212 290.078 272.096 289.72C271.97 289.326 271.832 289.044 271.679 288.873C271.536 288.703 271.357 288.56 271.142 288.444C270.927 288.327 270.744 288.256 270.591 288.229C270.305 288.184 270.018 288.184 269.732 288.229C269.606 288.238 269.427 288.305 269.194 288.43C268.738 288.654 268.415 289.084 268.227 289.72ZM279.469 294.488H278.556L276.246 289.008H276.219L276.246 289.37V294.488H275.063V287.665H276.689L279.013 293.212L281.336 287.665H282.962V294.488H281.78V289.37L281.82 289.008H281.78L279.469 294.488Z" fill="black"/>
<rect x="16.6562" y="16.1191" width="5.37302" height="5.37302" fill="black"/>
<rect x="16.6562" y="223.518" width="5.37302" height="5.37302" fill="black"/>
<rect x="298.74" y="16.1191" width="5.37302" height="5.37302" fill="black"/>
<rect x="75.2227" y="223.518" width="5.37302" height="5.37302" fill="black"/>
<rect x="298.74" y="223.518" width="5.37302" height="5.37302" fill="black"/>
</svg>
