<svg width="321" height="322" viewBox="0 0 321 322" fill="none" xmlns="http://www.w3.org/2000/svg">
<g clip-path="url(#clip0_863_4596)">
<rect width="320.167" height="320.167" transform="translate(0 0.86084)" fill="#D0D0D0"/>
<path fill-rule="evenodd" clip-rule="evenodd" d="M158.983 57.1724V60.213H162.006H165.028V66.2941V72.3753H168.051H171.073V90.409V108.443H168.051H165.028V114.524V120.605H162.006H158.983V126.581V132.558H156.065H153.146V159.818V187.078H156.065H158.983V190.119V193.159H162.006H165.028V199.24V205.322H168.051H171.073V211.193V217.064H168.155H165.237V214.129V211.193H162.214H159.191V208.152V205.112H153.25H147.31V202.071V199.031H144.287H141.264V192.95V186.868H138.242H135.219V183.933V180.997H138.242H141.264V171.875V162.754H135.115H128.965V168.835V174.916H126.047H123.129V186.973V199.031H120.106H117.083V202.071V205.112H114.061H111.038V208.152V211.193H108.016H104.993V217.169V223.146H102.075H99.1563V208.048V192.95H96.1337H93.1111V189.909V186.868H90.1928H87.2744V180.892V174.916H84.2518H81.2292V171.875V168.835H75.184H69.1388V165.794V162.754H66.1162H63.0936V156.777V150.801H60.1752H57.2568V144.72V138.639H54.2342H51.2116V132.662V126.686H54.2342H57.2568V123.646V120.605H60.1752H63.0936V114.629V108.652H66.1162H69.1388V105.507V102.362H63.0936H57.0484V105.402V108.443H51.0032H44.958V111.483V114.524H41.9354H38.9128V120.5V126.476H35.9944H33.076V147.76V169.044H35.9944H38.9128V175.021V180.997H32.9718H27.0308V186.973V192.95H24.0082H20.9856V217.169V241.389H24.0082H27.0308V247.47V253.551H30.0534H33.076V256.592V259.632H35.9944H38.9128V265.609V271.585H41.9354H44.958V274.626V277.666H47.9806H51.0032V283.747V289.828H54.0258H57.0484V298.74V307.652H54.13H51.2116V301.676V295.7H48.189H45.1664V292.659V289.619H42.1438H39.1212V286.578V283.538H30.0534H20.9856V286.683V289.828H24.0082H27.0308V295.805V301.781H30.0534H33.076V304.717V307.652H30.0534H27.0308V316.774V325.896H24.0082H20.9856V377.271V428.646H165.132H309.279V380.312V331.977H312.301H315.324L315.315 325.85H309.384L303.234 325.908V328.942V331.977H300.316H297.397V325.896V319.815H294.375H291.352V313.734V307.652H288.33H285.307V298.74V289.828H288.33H291.352V286.788V283.747H294.375H297.397V280.602V277.456H288.33H279.262V271.585V265.714H282.284H285.307V253.551V241.389H282.284H279.262V226.291V211.193H282.284H285.307V208.152V205.112H279.262H273.217V190.014V174.916H270.298H267.38V168.835V162.754H261.335H255.289V159.713V156.672H252.267H249.244V153.737V150.801H246.222H243.199V156.882V162.963H246.117H249.036V169.044V175.126H252.058H255.081V184.038V192.95H252.058H249.036V195.99V199.031H246.117H243.199V202.071V205.112H237.154H231.109V208.152V211.193H228.086H225.063V238.348V265.504H216.204H207.345V262.568V259.632H210.263H213.181V253.551V247.47H216.204H219.227V220.21V192.95H216.204H213.181V186.973V180.997H210.263H207.345V171.875V162.754H204.322H201.299V156.777V150.801H204.322H207.345V144.825V138.848H210.263H213.181V132.662V126.476H207.24H201.299V105.402V84.3278H198.277H195.254V78.2467V72.1656H192.232H189.209V69.125V66.0844H186.186H183.164V63.1487V60.213H180.245H177.327V57.1724V54.1318H168.155H158.983V57.1724ZM39.1212 199.031V217.064H48.0848H57.0484V208.152V199.24H54.0258H51.0032V193.159V187.078H47.9806H44.958V184.038V180.997H42.0396H39.1212V199.031ZM117.292 223.25V235.308H120.21H123.129V238.348V241.389H132.092H141.056V235.413V229.436H138.033H135.011V223.355V217.274H131.988H128.965V214.234V211.193H123.129H117.292V223.25ZM171.282 223.25V229.227H174.2H177.119V223.25V217.274H174.2H171.282V223.25ZM237.362 229.332V235.308H240.281H243.199V229.332V223.355H240.281H237.362V229.332ZM93.1111 238.453V241.389H90.1928H87.2744V247.47V253.551H84.2518H81.2292V262.568V271.585H84.1476H87.0659V268.544V265.504H90.0885H93.1111V256.382V247.26H96.1337H99.1563V250.301V253.342H102.075H104.993V247.365V241.389H101.97H98.9479V238.453V235.518H96.0295H93.1111V238.453ZM177.327 238.453V241.389H180.245H183.164V238.453V235.518H180.245H177.327V238.453ZM105.202 256.487V259.423H108.12H111.038V256.487V253.551H108.12H105.202V256.487ZM111.247 274.626V283.538H114.165H117.083V280.497V277.456H120.106H123.129V274.521V271.585H120.106H117.083V268.649V265.714H114.165H111.247V274.626ZM231.317 268.649V271.585H228.294H225.272V274.626V277.666H222.249H219.227V286.683V295.7H222.249H225.272V301.676V307.652H231.213H237.154V304.717V301.781H240.176H243.199V289.724V277.666H240.176H237.154V271.69V265.714H234.235H231.317V268.649ZM273.217 280.602V283.538H276.135H279.053V280.602V277.666H276.135H273.217V280.602ZM129.174 286.788V289.828H126.151H123.129V301.781V313.734H126.151H129.174V316.774V319.815H132.197H135.219V328.832V337.848H138.137H141.056V316.879V295.91H138.033H135.011V289.828V283.747H132.092H129.174V286.788ZM195.254 286.788V289.828H192.232H189.209V304.822V319.815H195.15H201.091V301.781V283.747H198.173H195.254V286.788ZM99.1563 316.879V319.815H102.075H104.993V316.879V313.943H102.075H99.1563V316.879ZM21.0882 377.271C21.0882 405.585 21.1123 417.168 21.1419 403.011C21.1715 388.854 21.1715 365.688 21.1419 351.531C21.1123 337.374 21.0882 348.957 21.0882 377.271ZM99.1563 344.034V356.092H105.097H111.038V353.156V350.22H108.016H104.993V341.099V331.977H102.075H99.1563V344.034ZM195.254 337.953V343.93H198.173H201.091V337.953V331.977H198.173H195.254V337.953ZM195.254 353.156V356.092H198.173H201.091V353.156V350.22H198.173H195.254V353.156Z" fill="#FFFF00"/>
<path d="M30.4373 41.8516H28.1881L21.4404 24.4496H21.3812L21.4404 25.2486V41.8516H18.6584V21.1349H22.8313L29.3127 38.1818L35.7941 21.1349H39.967V41.8516H37.185V25.2486L37.2442 24.4496H37.1554L30.4373 41.8516ZM44.1295 37.2939C43.6165 35.1828 43.6363 33.1407 44.1887 31.1677C44.7411 29.1947 45.9052 27.784 47.6809 26.9356C48.6674 26.462 49.8217 26.2253 51.1436 26.2253C52.4655 26.2253 53.6197 26.462 54.6062 26.9356C56.3819 27.7642 57.5559 29.244 58.1281 31.3748C58.3846 32.3614 58.5128 33.3577 58.5128 34.364C58.5325 35.3505 58.4141 36.3271 58.1577 37.2939C57.9209 38.2409 57.4967 39.1091 56.8851 39.8983C56.2932 40.6875 55.5335 41.309 54.6062 41.7628C53.6 42.2166 52.4458 42.4435 51.1436 42.4435C49.8414 42.4435 48.6872 42.2166 47.6809 41.7628C45.9644 40.9341 44.7806 39.4445 44.1295 37.2939ZM46.8819 31.3453C46.6254 32.1345 46.4971 33.121 46.4971 34.3048C46.4971 35.4689 46.6254 36.4652 46.8819 37.2939C47.1384 38.1226 47.4343 38.7441 47.7697 39.1584C48.48 39.9476 49.2889 40.4113 50.1965 40.5494C50.8279 40.648 51.4593 40.648 52.0906 40.5494C52.3669 40.5296 52.7516 40.3915 53.2448 40.135C53.7776 39.8588 54.2116 39.5135 54.547 39.0992C54.8824 38.6849 55.1685 38.0831 55.4053 37.2939C55.6618 36.4652 55.79 35.4689 55.79 34.3048C55.79 33.121 55.6618 32.1345 55.4053 31.3453C55.1291 30.4771 54.8233 29.8556 54.4878 29.4808C54.1722 29.1059 53.7776 28.7902 53.304 28.5337C52.8305 28.2772 52.426 28.1194 52.0906 28.0602C51.4593 27.9615 50.8279 27.9615 50.1965 28.0602C49.9203 28.0799 49.5257 28.2279 49.0127 28.5041C48.0065 28.9974 47.2962 29.9444 46.8819 31.3453ZM71.1275 41.8516H68.5232V34.4232L62.5449 41.8516H59.319L66.2147 33.9496L59.7038 26.8172H62.7817L68.5232 33.6241V26.8172H71.1275V33.6241L76.869 26.8172H79.9469L73.436 33.9496L80.3317 41.8516H77.1058L71.1275 34.4232V41.8516ZM92.3813 34.8375H84.9529V41.8516H82.3485V26.8172H84.9529V33.0026H92.3813V26.8172H94.9857V41.8516H92.3813V34.8375ZM98.7824 37.2939C98.2695 35.1828 98.2892 33.1407 98.8416 31.1677C99.3941 29.1947 100.558 27.784 102.334 26.9356C103.32 26.462 104.475 26.2253 105.797 26.2253C107.118 26.2253 108.273 26.462 109.259 26.9356C111.035 27.7642 112.209 29.244 112.781 31.3748C113.037 32.3614 113.166 33.3577 113.166 34.364C113.185 35.3505 113.067 36.3271 112.811 37.2939C112.574 38.2409 112.15 39.1091 111.538 39.8983C110.946 40.6875 110.186 41.309 109.259 41.7628C108.253 42.2166 107.099 42.4435 105.797 42.4435C104.494 42.4435 103.34 42.2166 102.334 41.7628C100.617 40.9341 99.4335 39.4445 98.7824 37.2939ZM101.535 31.3453C101.278 32.1345 101.15 33.121 101.15 34.3048C101.15 35.4689 101.278 36.4652 101.535 37.2939C101.791 38.1226 102.087 38.7441 102.423 39.1584C103.133 39.9476 103.942 40.4113 104.849 40.5494C105.481 40.648 106.112 40.648 106.744 40.5494C107.02 40.5296 107.405 40.3915 107.898 40.135C108.43 39.8588 108.865 39.5135 109.2 39.0992C109.535 38.6849 109.821 38.0831 110.058 37.2939C110.315 36.4652 110.443 35.4689 110.443 34.3048C110.443 33.121 110.315 32.1345 110.058 31.3453C109.782 30.4771 109.476 29.8556 109.141 29.4808C108.825 29.1059 108.43 28.7902 107.957 28.5337C107.483 28.2772 107.079 28.1194 106.744 28.0602C106.112 27.9615 105.481 27.9615 104.849 28.0602C104.573 28.0799 104.179 28.2279 103.666 28.5041C102.659 28.9974 101.949 29.9444 101.535 31.3453ZM121.758 41.8516V39.9279C123.238 40.3619 124.284 39.6615 124.895 37.8266C125.053 37.3728 125.162 36.8105 125.221 36.1397L125.339 34.3344C125.359 34.0187 125.369 33.3972 125.369 32.4699V26.8172H135.786V41.8516H133.182V28.6521H127.796V32.4699C127.796 33.7129 127.766 34.7586 127.707 35.607C127.648 36.4356 127.5 37.3432 127.263 38.3297C126.928 39.7306 126.326 40.7269 125.458 41.3188C124.59 41.9108 123.356 42.0883 121.758 41.8516ZM142.64 26.8172V38.8033L150.483 26.8172H153.384V41.8516H150.779V29.8359L142.966 41.8516H140.036V26.8172H142.64ZM174.104 41.8516H171.5V34.4232L165.521 41.8516H162.295L169.191 33.9496L162.68 26.8172H165.758L171.5 33.6241V26.8172H174.104V33.6241L179.845 26.8172H182.923L176.412 33.9496L183.308 41.8516H180.082L174.104 34.4232V41.8516ZM196.157 37.5011H198.643C198.406 38.823 197.765 39.9772 196.719 40.9637C195.673 41.9502 194.125 42.4435 192.073 42.4435C189.291 42.4435 187.249 41.526 185.946 39.6911C185.295 38.7243 184.871 37.6885 184.674 36.5836C184.536 35.8141 184.467 35.0841 184.467 34.3936C184.467 33.0716 184.664 31.8286 185.059 30.6646C185.315 29.8359 185.69 29.1157 186.183 28.5041C186.716 27.853 187.476 27.3104 188.462 26.8764C189.449 26.4423 190.563 26.2253 191.806 26.2253C194.016 26.2253 195.683 26.8369 196.808 28.0602C197.281 28.5732 197.666 29.2243 197.962 30.0135C198.396 31.1578 198.663 32.5488 198.761 34.1864C198.761 34.2456 198.761 34.3738 198.761 34.5711C198.781 34.7684 198.791 34.8868 198.791 34.9263H187.219C187.219 36.4258 187.614 37.7477 188.403 38.892C189.192 40.0364 190.386 40.6086 191.984 40.6086C193.128 40.6086 194.065 40.3225 194.795 39.7503C195.525 39.1781 195.979 38.4284 196.157 37.5011ZM187.219 33.0914H196.038C196.019 31.9273 195.742 30.852 195.21 29.8655C194.598 28.662 193.483 28.0602 191.865 28.0602C190.031 28.0602 188.768 28.6718 188.077 29.8951C187.505 30.8816 187.219 31.947 187.219 33.0914ZM201.404 31.8484V26.8172H204.009V31.434C204.009 32.243 204.147 32.8447 204.423 33.2393C204.759 33.6734 205.755 33.8904 207.412 33.8904C207.57 33.8904 208.142 33.8707 209.129 33.8313C209.227 33.8115 209.435 33.8017 209.75 33.8017H210.372V26.8172H212.976V41.8516H210.372V35.6366C209.504 35.6958 208.34 35.7253 206.88 35.7253C204.354 35.7253 202.766 35.3307 202.115 34.5415C201.819 34.1469 201.621 33.7721 201.523 33.4169C201.444 33.0618 201.404 32.5389 201.404 31.8484ZM217.232 41.8516V26.8172H219.837V32.7954H223.595C225.075 32.7954 226.348 33.0125 227.413 33.4465C228.893 33.9792 229.633 35.2222 229.633 37.1755C229.633 38.7934 229.159 39.9969 228.212 40.7861C227.818 41.1018 227.354 41.3386 226.821 41.4964C226.111 41.7332 225.332 41.8516 224.483 41.8516H217.232ZM223.003 34.6303H219.837V40.0167H223.447C224.671 40.0167 225.568 39.77 226.14 39.2768C226.713 38.7046 226.979 38.0042 226.94 37.1755C226.94 36.2679 226.644 35.5971 226.052 35.163C225.854 35.0249 225.539 34.9065 225.105 34.8079C224.631 34.6895 224.01 34.6303 223.24 34.6303H223.003ZM28.484 61.6521H20.8781V74.8516H18.2737V59.8172H31.0884V74.8516H28.484V61.6521ZM33.6084 74.8516V72.9279C35.0882 73.3619 36.1339 72.6615 36.7455 70.8266C36.9033 70.3728 37.0119 69.8105 37.071 69.1397L37.1894 67.3344C37.2092 67.0187 37.219 66.3972 37.219 65.4699V59.8172H47.6365V74.8516H45.0322V61.6521H39.6458V65.4699C39.6458 66.7129 39.6162 67.7586 39.557 68.607C39.4979 69.4356 39.3499 70.3432 39.1131 71.3297C38.7777 72.7306 38.1759 73.7269 37.3078 74.3188C36.4397 74.9108 35.2065 75.0883 33.6084 74.8516ZM53.8691 64.2565H51.3831C51.3831 63.0727 51.7777 61.9875 52.5669 61.001C53.514 59.8172 55.2502 59.2253 57.7757 59.2253C59.2555 59.2253 60.5576 59.5212 61.6823 60.1131C62.3334 60.4288 62.8463 60.9517 63.2212 61.6817C63.5961 62.4117 63.7737 63.2798 63.7539 64.2861L63.606 71.2409C63.606 71.8131 63.6651 72.257 63.7835 72.5727C63.9611 72.8884 64.4248 73.0364 65.1745 73.0167V74.8516C64.8786 74.9305 64.4839 74.9699 63.9907 74.9699C63.1226 74.9699 62.4912 74.822 62.0966 74.526C61.7217 74.2301 61.4554 73.648 61.2975 72.7799C60.3307 74.5556 58.6142 75.4435 56.148 75.4435C54.4512 75.4435 53.1391 75.0686 52.2118 74.3188C51.3042 73.5494 50.8504 72.4149 50.8504 70.9154C50.8504 69.4948 51.3634 68.4195 52.3894 67.6895C53.4153 66.92 55.3587 66.4071 58.2196 66.1506C59.5415 66.0519 60.3307 65.9237 60.5872 65.7658C60.9621 65.5093 61.1495 64.947 61.1495 64.0789C61.1495 62.0664 60.0249 61.0602 57.7757 61.0602C55.1121 61.0602 53.8099 62.1256 53.8691 64.2565ZM61.0904 68.4294L61.1495 67.1568C60.8536 67.3738 60.4195 67.5514 59.8474 67.6895C58.9792 67.7487 58.3084 67.8178 57.8349 67.8967C56.1973 68.1729 55.2009 68.3998 54.8458 68.5774C53.9776 68.9917 53.5436 69.7415 53.5436 70.8266C53.5436 71.6947 53.8001 72.3754 54.313 72.8687C54.8458 73.3619 55.556 73.6086 56.4439 73.6086C57.0161 73.6086 57.5389 73.5296 58.0125 73.3718C58.5057 73.214 58.9792 72.9575 59.433 72.6023C59.9065 72.2275 60.2814 71.6849 60.5576 70.9746C60.8536 70.2643 61.0312 69.4159 61.0904 68.4294ZM78.7804 69.4948H81.2664C81.1875 70.6392 80.7535 71.8427 79.9643 73.1054C79.5302 73.8157 78.8495 74.3879 77.9222 74.822C77.0146 75.2363 75.9492 75.4435 74.7259 75.4435C74.3116 75.4435 74.0156 75.4336 73.838 75.4139C72.9699 75.3744 72.0821 75.1475 71.1745 74.7332C68.649 73.4705 67.3863 70.9647 67.3863 67.216C67.3863 65.243 67.8401 63.487 68.7477 61.948C69.8723 60.1329 71.8058 59.2253 74.5483 59.2253C76.4819 59.2253 78.0208 59.7185 79.1652 60.705C80.3095 61.6718 80.9705 62.9444 81.1481 64.5228H78.6621C78.2675 62.2144 76.9159 61.0602 74.6075 61.0602C73.108 61.0602 71.9834 61.6126 71.2337 62.7175C70.5036 63.8027 70.1386 65.3022 70.1386 67.216C70.1386 69.0706 70.5234 70.5997 71.2929 71.8033C72.0623 73.0068 73.2264 73.6086 74.7851 73.6086C76.1267 73.6086 77.1034 73.1844 77.715 72.336C78.3661 71.4876 78.7213 70.5405 78.7804 69.4948ZM87.4008 74.8516V61.6521H82.192V59.8172H95.2139V61.6521H90.0051V74.8516H87.4008ZM99.8083 59.8172V71.8033L107.651 59.8172H110.551V74.8516H107.947V62.8359L100.134 74.8516H97.2039V59.8172H99.8083ZM117.409 59.8172V66.3873L123.832 59.8172H126.88L119.836 66.8017L127.265 74.8516H124.157L117.409 67.3344V74.8516H114.805V59.8172H117.409ZM146.225 67.8375H138.797V74.8516H136.192V59.8172H138.797V66.0026H146.225V59.8172H148.829V74.8516H146.225V67.8375ZM155.083 64.2565H152.597C152.597 63.0727 152.991 61.9875 153.78 61.001C154.727 59.8172 156.464 59.2253 158.989 59.2253C160.469 59.2253 161.771 59.5212 162.896 60.1131C163.547 60.4288 164.06 60.9517 164.435 61.6817C164.809 62.4117 164.987 63.2798 164.967 64.2861L164.819 71.2409C164.819 71.8131 164.879 72.257 164.997 72.5727C165.174 72.8884 165.638 73.0364 166.388 73.0167V74.8516C166.092 74.9305 165.697 74.9699 165.204 74.9699C164.336 74.9699 163.705 74.822 163.31 74.526C162.935 74.2301 162.669 73.648 162.511 72.7799C161.544 74.5556 159.828 75.4435 157.361 75.4435C155.665 75.4435 154.353 75.0686 153.425 74.3188C152.518 73.5494 152.064 72.4149 152.064 70.9154C152.064 69.4948 152.577 68.4195 153.603 67.6895C154.629 66.92 156.572 66.4071 159.433 66.1506C160.755 66.0519 161.544 65.9237 161.801 65.7658C162.176 65.5093 162.363 64.947 162.363 64.0789C162.363 62.0664 161.238 61.0602 158.989 61.0602C156.326 61.0602 155.023 62.1256 155.083 64.2565ZM162.304 68.4294L162.363 67.1568C162.067 67.3738 161.633 67.5514 161.061 67.6895C160.193 67.7487 159.522 67.8178 159.048 67.8967C157.411 68.1729 156.414 68.3998 156.059 68.5774C155.191 68.9917 154.757 69.7415 154.757 70.8266C154.757 71.6947 155.013 72.3754 155.526 72.8687C156.059 73.3619 156.769 73.6086 157.657 73.6086C158.229 73.6086 158.752 73.5296 159.226 73.3718C159.719 73.214 160.193 72.9575 160.646 72.6023C161.12 72.2275 161.495 71.6849 161.771 70.9746C162.067 70.2643 162.245 69.4159 162.304 68.4294ZM178.97 59.8172V66.3873L185.392 59.8172H188.44L181.397 66.8017L188.825 74.8516H185.718L178.97 67.3344V74.8516H176.365V59.8172H178.97ZM189.822 70.2939C189.309 68.1828 189.329 66.1407 189.882 64.1677C190.434 62.1947 191.598 60.784 193.374 59.9356C194.36 59.462 195.515 59.2253 196.837 59.2253C198.158 59.2253 199.313 59.462 200.299 59.9356C202.075 60.7642 203.249 62.244 203.821 64.3748C204.078 65.3614 204.206 66.3577 204.206 67.364C204.225 68.3505 204.107 69.3271 203.851 70.2939C203.614 71.2409 203.19 72.1091 202.578 72.8983C201.986 73.6875 201.227 74.309 200.299 74.7628C199.293 75.2166 198.139 75.4435 196.837 75.4435C195.534 75.4435 194.38 75.2166 193.374 74.7628C191.657 73.9341 190.474 72.4445 189.822 70.2939ZM192.575 64.3453C192.318 65.1345 192.19 66.121 192.19 67.3048C192.19 68.4689 192.318 69.4652 192.575 70.2939C192.831 71.1226 193.127 71.7441 193.463 72.1584C194.173 72.9476 194.982 73.4113 195.89 73.5494C196.521 73.648 197.152 73.648 197.784 73.5494C198.06 73.5296 198.445 73.3915 198.938 73.135C199.471 72.8588 199.905 72.5135 200.24 72.0992C200.575 71.6849 200.862 71.0831 201.098 70.2939C201.355 69.4652 201.483 68.4689 201.483 67.3048C201.483 66.121 201.355 65.1345 201.098 64.3453C200.822 63.4771 200.516 62.8556 200.181 62.4808C199.865 62.1059 199.471 61.7902 198.997 61.5337C198.523 61.2772 198.119 61.1194 197.784 61.0602C197.152 60.9615 196.521 60.9615 195.89 61.0602C195.613 61.0799 195.219 61.2279 194.706 61.5041C193.699 61.9974 192.989 62.9444 192.575 64.3453ZM218.173 69.4948H220.659C220.58 70.6392 220.146 71.8427 219.357 73.1054C218.923 73.8157 218.242 74.3879 217.315 74.822C216.407 75.2363 215.342 75.4435 214.118 75.4435C213.704 75.4435 213.408 75.4336 213.23 75.4139C212.362 75.3744 211.474 75.1475 210.567 74.7332C208.041 73.4705 206.779 70.9647 206.779 67.216C206.779 65.243 207.232 63.487 208.14 61.948C209.265 60.1329 211.198 59.2253 213.941 59.2253C215.874 59.2253 217.413 59.7185 218.558 60.705C219.702 61.6718 220.363 62.9444 220.54 64.5228H218.054C217.66 62.2144 216.308 61.0602 214 61.0602C212.5 61.0602 211.376 61.6126 210.626 62.7175C209.896 63.8027 209.531 65.3022 209.531 67.216C209.531 69.0706 209.916 70.5997 210.685 71.8033C211.455 73.0068 212.619 73.6086 214.178 73.6086C215.519 73.6086 216.496 73.1844 217.107 72.336C217.759 71.4876 218.114 70.5405 218.173 69.4948ZM226.793 74.8516V61.6521H221.584V59.8172H234.606V61.6521H229.398V74.8516H226.793ZM236.365 80.3267V59.8172H238.792V61.8888H238.881C240.065 60.1131 241.722 59.2253 243.853 59.2253C245.806 59.2253 247.424 59.906 248.706 61.2673C249.989 62.6485 250.63 64.6708 250.63 67.3344C250.63 70.0571 249.979 72.0893 248.677 73.431C247.394 74.7726 245.806 75.4435 243.912 75.4435C243.32 75.4435 242.6 75.3152 241.751 75.0587C240.508 74.6839 239.581 73.8946 238.97 72.6911V80.3267H236.365ZM238.792 67.3936C238.792 69.485 239.265 71.0535 240.213 72.0992C241.199 73.1054 242.274 73.6086 243.438 73.6086C244.662 73.6086 245.707 73.1153 246.575 72.1288C247.444 71.1028 247.878 69.5047 247.878 67.3344C247.878 65.3614 247.473 63.8224 246.664 62.7175C245.875 61.6126 244.75 61.0602 243.29 61.0602C242.521 61.0602 241.801 61.2673 241.13 61.6817C239.571 62.609 238.792 64.513 238.792 67.3936ZM264.856 70.5011H267.342C267.105 71.823 266.464 72.9772 265.418 73.9637C264.372 74.9502 262.824 75.4435 260.772 75.4435C257.99 75.4435 255.948 74.526 254.646 72.6911C253.994 71.7243 253.57 70.6885 253.373 69.5836C253.235 68.8141 253.166 68.0841 253.166 67.3936C253.166 66.0716 253.363 64.8286 253.758 63.6646C254.014 62.8359 254.389 62.1157 254.882 61.5041C255.415 60.853 256.175 60.3104 257.161 59.8764C258.148 59.4423 259.262 59.2253 260.505 59.2253C262.715 59.2253 264.382 59.8369 265.507 61.0602C265.981 61.5732 266.365 62.2243 266.661 63.0135C267.095 64.1578 267.362 65.5488 267.46 67.1864C267.46 67.2456 267.46 67.3738 267.46 67.5711C267.48 67.7684 267.49 67.8868 267.49 67.9263H255.918C255.918 69.4258 256.313 70.7477 257.102 71.892C257.891 73.0364 259.085 73.6086 260.683 73.6086C261.827 73.6086 262.764 73.3225 263.495 72.7503C264.225 72.1781 264.678 71.4284 264.856 70.5011ZM255.918 66.0914H264.738C264.718 64.9273 264.442 63.852 263.909 62.8655C263.297 61.662 262.182 61.0602 260.565 61.0602C258.73 61.0602 257.467 61.6718 256.776 62.8951C256.204 63.8816 255.918 64.947 255.918 66.0914ZM278.331 74.8516H275.401V71.6257H278.331V74.8516ZM273.033 60.3795H270.459C270.38 58.4459 270.843 56.8379 271.85 55.5555C272.895 54.273 274.651 53.6318 277.118 53.6318C279.11 53.6318 280.679 54.1053 281.823 55.0523C282.968 55.9797 283.54 57.2917 283.54 58.9885C283.54 60.0934 283.303 61.0109 282.829 61.7409C282.395 62.4709 281.616 63.3193 280.491 64.2861C279.9 64.7793 279.485 65.1443 279.248 65.3811C278.4 66.19 277.976 67.1371 277.976 68.2222V68.8437H275.815C275.618 66.9891 276.062 65.4896 277.147 64.3453C277.246 64.2269 277.749 63.7632 278.657 62.9543C279.525 62.2045 280.126 61.5633 280.462 61.0306C280.797 60.4781 280.965 59.8369 280.965 59.1069C280.965 58.2585 280.659 57.4989 280.047 56.8281C279.416 56.1178 278.43 55.7626 277.088 55.7626C274.306 55.7626 272.954 57.3016 273.033 60.3795Z" fill="black"/>
</g>
<defs>
<clipPath id="clip0_863_4596">
<rect width="320.167" height="320.167" fill="white" transform="translate(0 0.86084)"/>
</clipPath>
</defs>
</svg>
