<svg width="321" height="321" viewBox="0 0 321 321" fill="none" xmlns="http://www.w3.org/2000/svg">
<rect width="320.167" height="320.167" transform="translate(0 0.694336)" fill="#FFFF00"/>
<path fill-rule="evenodd" clip-rule="evenodd" d="M186.641 44.7326L187.27 47.0811L180.091 49.0048L172.911 50.9285L173.574 53.4006L174.236 55.8727L164.705 58.4266L155.174 60.9804L155.803 63.3289L156.432 65.6774L146.901 68.2313L137.37 70.7851L137.999 73.1336L138.629 75.4821L131.573 77.3727L124.518 79.2632L125.147 81.6117L125.776 83.9602L116.245 86.514L106.714 89.0679L107.343 91.4164L107.973 93.7649L98.4414 96.3187L88.9103 98.8726L89.5727 101.345L90.2351 103.817L80.7039 106.371L71.1728 108.925L71.8021 111.273L72.4314 113.621L65.3758 115.512L58.3203 117.403L58.9496 119.751L59.5789 122.1L52.3996 124.023L45.2203 125.947L45.8495 128.295L46.4788 130.644L44.127 131.274L41.7751 131.904L46.9087 151.063L52.0423 170.222L54.3941 169.592L56.746 168.961L73.9021 232.989L91.0581 297.016L93.41 296.386L95.7618 295.756L97.0204 300.453L98.2789 305.15L100.755 304.486L103.23 303.823L103.893 306.295L104.555 308.767L202.094 282.632L299.634 256.496L298.971 254.024L298.309 251.552L300.661 250.922L303.013 250.291L285.824 186.141L268.634 121.99L183.102 144.908L97.569 167.826L96.9728 165.602L96.3766 163.377L101.08 162.116L105.784 160.856L103.234 151.338L100.684 141.821L103.035 141.191L105.387 140.56L102.208 128.694L99.0282 116.828L101.38 116.198L103.732 115.568L101.811 108.399L99.89 101.23L106.946 99.3392L114.001 97.4487L117.181 109.315L120.36 121.181L118.008 121.811L115.656 122.441L118.173 131.835L120.691 141.229L118.339 141.859L115.987 142.49L117.312 147.434L118.636 152.378L123.464 151.084L128.291 149.791L127.629 147.319L126.967 144.847L136.498 142.293L146.029 139.739L145.4 137.39L144.77 135.042L151.826 133.151L158.881 131.261L158.252 128.912L157.623 126.564L164.802 124.64L171.981 122.717L168.802 110.85L165.622 98.9844L167.974 98.3542L170.326 97.7241L167.776 88.2065L165.226 78.6889L167.577 78.0587L169.929 77.4286L168.041 70.3831L166.154 63.3376L173.209 61.4471L180.265 59.5566L182.782 68.9505L185.299 78.3445L182.947 78.9747L180.595 79.6049L183.775 91.4709L186.954 103.337L184.602 103.967L182.251 104.597L183.542 109.418L184.834 114.239L189.661 112.945L194.489 111.652L193.86 109.303L193.23 106.955L202.761 104.401L212.293 101.847L211.63 99.3747L210.968 96.9026L218.023 95.0121L225.079 93.1216L224.45 90.7731L223.82 88.4246L233.351 85.8707L242.883 83.3168L242.253 80.9684L241.624 78.6199L246.451 77.3263L251.279 76.0328L249.987 71.2122L248.696 66.3917L246.22 67.055L243.744 67.7183L241.194 58.2008L238.644 48.6832L236.292 49.3133L233.94 49.9435L232.019 42.7744L230.098 35.6054L227.746 36.2355L225.395 36.8657L224.765 34.5172L224.136 32.1687L205.074 37.2764L186.011 42.3842L186.641 44.7326ZM179.817 56.8945L180.446 59.243L182.674 58.646L184.902 58.049L184.273 55.7005L183.644 53.352L181.416 53.949L179.187 54.546L179.817 56.8945ZM113.619 95.0339L114.249 97.3824L116.477 96.7854L118.705 96.1884L118.075 93.8399L117.446 91.4914L115.218 92.0884L112.99 92.6854L113.619 95.0339ZM125.192 252.101L126.45 256.798L128.802 256.167L131.154 255.537L131.783 257.886L132.412 260.234L146.523 256.453L160.634 252.672L160.005 250.324L159.376 247.975L161.851 247.312L164.327 246.649L163.069 241.952L161.81 237.255L142.872 242.329L123.933 247.404L125.192 252.101Z" fill="#DCDCDC"/>
<path d="M17.5044 36.3875H20.2272C20.3259 37.3148 20.7106 38.1632 21.3814 38.9327C22.0522 39.7022 23.0881 40.0869 24.4889 40.0869C27.7049 40.0869 29.3129 38.3803 29.3129 34.9669C29.3129 33.2701 28.869 32.037 27.9812 31.2675C27.1328 30.4783 26.0575 30.0837 24.7553 30.0837C24.0253 30.0837 23.2459 30.2514 22.4173 30.5868C21.5689 30.9223 20.9967 31.3563 20.7007 31.889H18.0964L19.5465 20.9684H30.7335V23.3064H21.5886L20.7599 29.4326C21.9635 28.3869 23.5221 27.8641 25.436 27.8641C27.3695 27.8641 28.9282 28.5053 30.112 29.7878C31.3156 31.0505 31.9173 32.767 31.9173 34.9373C31.9173 37.1866 31.2761 38.982 29.9936 40.3237C28.7112 41.6456 26.8763 42.3066 24.4889 42.3066C21.9437 42.3066 20.1384 41.6061 19.073 40.2053C18.1457 39.0018 17.6228 37.7292 17.5044 36.3875ZM40.6028 41.6851V39.7614C42.0826 40.1954 43.1283 39.495 43.7399 37.6601C43.8978 37.2063 44.0063 36.644 44.0655 35.9732L44.1839 34.1679C44.2036 33.8522 44.2135 33.2307 44.2135 32.3034V26.6507H54.631V41.6851H52.0266V28.4856H46.6403V32.3034C46.6403 33.5464 46.6107 34.5921 46.5515 35.4405C46.4923 36.2691 46.3443 37.1767 46.1076 38.1632C45.7721 39.5641 45.1704 40.5604 44.3022 41.1523C43.4341 41.7442 42.201 41.9218 40.6028 41.6851ZM59.443 47.1306V45.2069C60.1927 45.3055 60.6268 45.3549 60.7452 45.3549C61.4949 45.3549 62.0276 45.0786 62.3433 44.5262C62.5406 44.2302 62.6689 43.9836 62.7281 43.7863C62.7872 43.6877 62.9155 43.3621 63.1128 42.8097L63.4679 41.6851L56.957 26.6507H60.0645L64.8885 38.8143L68.8839 26.6507H71.4882L65.51 43.4608C65.0365 44.8024 64.632 45.6804 64.2966 46.0947C63.6258 46.884 62.7182 47.2786 61.5738 47.2786C60.686 47.2786 59.9757 47.2292 59.443 47.1306ZM72.8214 31.6819V26.6507H75.4258V31.2675C75.4258 32.0765 75.5639 32.6782 75.8401 33.0728C76.1755 33.5069 77.1719 33.7239 78.8292 33.7239C78.9871 33.7239 79.5593 33.7042 80.5458 33.6647C80.6444 33.645 80.8516 33.6352 81.1673 33.6352H81.7888V26.6507H84.3932V41.6851H81.7888V35.4701C80.9206 35.5292 79.7566 35.5588 78.2965 35.5588C75.7711 35.5588 74.1828 35.1642 73.5317 34.375C73.2357 33.9804 73.0384 33.6056 72.9398 33.2504C72.8609 32.8953 72.8214 32.3724 72.8214 31.6819ZM91.2537 26.6507V39.8502H97.5279V26.6507H100.132V39.8502H106.406V26.6507H109.011V41.6851H88.6493V26.6507H91.2537ZM115.878 26.6507V38.6367L123.721 26.6507H126.621V41.6851H124.017V29.6694L116.203 41.6851H113.273V26.6507H115.878ZM132.058 26.6507L135.906 32.2146L139.753 26.6507H142.653L137.386 33.8423L143.068 41.6851H140.167L135.906 35.4997L131.644 41.6851H128.744L134.426 33.8423L129.158 26.6507H132.058ZM163.038 47.1602H160.433V42.0698C158.717 42.0303 157.237 41.7936 155.994 41.3595C154.771 40.9057 153.824 40.2941 153.153 39.5246C152.482 38.7551 151.999 37.9265 151.703 37.0386C151.407 36.1507 151.259 35.1642 151.259 34.0791C151.259 32.6388 151.565 31.2971 152.176 30.0541C153.38 27.4892 156.132 26.2363 160.433 26.2955V20.9684H163.038V26.2955C164.814 26.2561 166.382 26.5126 167.744 27.065C168.631 27.4004 169.381 27.8444 169.993 28.3968C170.664 28.9492 171.196 29.7286 171.591 30.7348C172.005 31.7213 172.212 32.8361 172.212 34.0791C172.212 36.5651 171.463 38.4986 169.963 39.8797C168.464 41.2609 166.155 41.9909 163.038 42.0698V47.1602ZM160.433 40.2349V28.1304C158.934 28.0318 157.543 28.3573 156.261 29.1071C154.761 30.0147 154.011 31.6621 154.011 34.0495C154.011 36.062 154.544 37.5713 155.609 38.5776C156.872 39.7219 158.48 40.2744 160.433 40.2349ZM163.038 28.1304V40.2349C165.583 40.2349 167.329 39.5147 168.276 38.0744C169.065 36.8709 169.46 35.5292 169.46 34.0495C169.46 33.576 169.421 33.1024 169.342 32.6289C169.263 32.1357 169.075 31.5931 168.779 31.0012C168.503 30.4093 168.138 29.9062 167.684 29.4918C167.25 29.0578 166.629 28.7125 165.82 28.456C165.031 28.1798 164.103 28.0712 163.038 28.1304ZM178.219 26.6507V38.6367L186.061 26.6507H188.962V41.6851H186.357V29.6694L178.544 41.6851H175.614V26.6507H178.219ZM191.469 41.6851V39.7614C192.949 40.1954 193.995 39.495 194.606 37.6601C194.764 37.2063 194.873 36.644 194.932 35.9732L195.05 34.1679C195.07 33.8522 195.08 33.2307 195.08 32.3034V26.6507H205.497V41.6851H202.893V28.4856H197.507V32.3034C197.507 33.5464 197.477 34.5921 197.418 35.4405C197.359 36.2691 197.211 37.1767 196.974 38.1632C196.638 39.5641 196.037 40.5604 195.169 41.1523C194.3 41.7442 193.067 41.9218 191.469 41.6851ZM209.747 41.6851V26.6507H212.351V32.6289H216.11C217.59 32.6289 218.862 32.8459 219.928 33.28C221.408 33.8127 222.147 35.0557 222.147 37.009C222.147 38.6269 221.674 39.8304 220.727 40.6196C220.332 40.9353 219.869 41.1721 219.336 41.3299C218.626 41.5667 217.846 41.6851 216.998 41.6851H209.747ZM215.518 34.4638H212.351V39.8502H215.962C217.185 39.8502 218.083 39.6035 218.655 39.1103C219.227 38.5381 219.494 37.8377 219.454 37.009C219.454 36.1014 219.158 35.4306 218.566 34.9965C218.369 34.8584 218.053 34.74 217.619 34.6414C217.146 34.523 216.524 34.4638 215.755 34.4638H215.518ZM234.657 41.6851H232.644L227.554 29.6102H227.494L227.554 30.4093V41.6851H224.949V26.6507H228.53L233.65 38.8735L238.77 26.6507H242.351V41.6851H239.747V30.4093L239.836 29.6102H239.747L234.657 41.6851ZM246.152 37.1274C245.639 35.0163 245.659 32.9742 246.211 31.0012C246.764 29.0282 247.928 27.6175 249.703 26.7691C250.69 26.2955 251.844 26.0588 253.166 26.0588C254.488 26.0588 255.642 26.2955 256.629 26.7691C258.404 27.5977 259.578 29.0775 260.15 31.2083C260.407 32.1949 260.535 33.1912 260.535 34.1975C260.555 35.184 260.437 36.1606 260.18 37.1274C259.943 38.0744 259.519 38.9426 258.907 39.7318C258.316 40.521 257.556 41.1425 256.629 41.5963C255.622 42.0501 254.468 42.277 253.166 42.277C251.864 42.277 250.71 42.0501 249.703 41.5963C247.987 40.7676 246.803 39.278 246.152 37.1274ZM248.904 31.1787C248.648 31.968 248.52 32.9545 248.52 34.1383C248.52 35.3024 248.648 36.2987 248.904 37.1274C249.161 37.9561 249.457 38.5776 249.792 38.9919C250.502 39.7811 251.311 40.2448 252.219 40.3829C252.85 40.4815 253.482 40.4815 254.113 40.3829C254.389 40.3631 254.774 40.225 255.267 39.9685C255.8 39.6923 256.234 39.347 256.569 38.9327C256.905 38.5184 257.191 37.9166 257.428 37.1274C257.684 36.2987 257.812 35.3024 257.812 34.1383C257.812 32.9545 257.684 31.968 257.428 31.1787C257.151 30.3106 256.846 29.6891 256.51 29.3142C256.195 28.9394 255.8 28.6237 255.326 28.3672C254.853 28.1107 254.448 27.9529 254.113 27.8937C253.482 27.795 252.85 27.795 252.219 27.8937C251.943 27.9134 251.548 28.0614 251.035 28.3376C250.029 28.8309 249.319 29.7779 248.904 31.1787ZM263.966 41.6851V26.6507H271.128C274.305 26.6507 275.893 27.8444 275.893 30.2317C275.893 31.9482 274.986 33.1222 273.171 33.7535V33.8423C274.394 34.1383 275.242 34.6118 275.716 35.2629C276.209 35.914 276.456 36.7525 276.456 37.7785C276.456 39.4161 275.854 40.5012 274.65 41.034C273.664 41.468 272.46 41.6851 271.04 41.6851H263.966ZM270.3 28.4856H266.571V32.9249H270.181C271.227 32.9249 271.997 32.7177 272.49 32.3034C273.003 31.8693 273.259 31.307 273.259 30.6164C273.259 29.1959 272.273 28.4856 270.3 28.4856ZM270.3 34.7598H266.571V39.8502H270.389C272.638 39.8502 273.762 39.0807 273.762 37.5417C273.762 35.6871 272.608 34.7598 270.3 34.7598ZM17.8004 70.1274C17.2874 68.0163 17.3071 65.9742 17.8596 64.0012C18.412 62.0282 19.5761 60.6175 21.3518 59.7691C22.3383 59.2955 23.4926 59.0588 24.8145 59.0588C26.1364 59.0588 27.2906 59.2955 28.2771 59.7691C30.0528 60.5977 31.2268 62.0775 31.7989 64.2083C32.0554 65.1949 32.1837 66.1912 32.1837 67.1975C32.2034 68.184 32.085 69.1606 31.8285 70.1274C31.5918 71.0744 31.1676 71.9426 30.5559 72.7318C29.964 73.521 29.2044 74.1425 28.2771 74.5963C27.2709 75.0501 26.1167 75.277 24.8145 75.277C23.5123 75.277 22.3581 75.0501 21.3518 74.5963C19.6353 73.7676 18.4515 72.278 17.8004 70.1274ZM20.5528 64.1787C20.2963 64.968 20.168 65.9545 20.168 67.1383C20.168 68.3024 20.2963 69.2987 20.5528 70.1274C20.8092 70.9561 21.1052 71.5776 21.4406 71.9919C22.1509 72.7811 22.9598 73.2448 23.8674 73.3829C24.4988 73.4815 25.1302 73.4815 25.7615 73.3829C26.0377 73.3631 26.4225 73.225 26.9157 72.9685C27.4484 72.6923 27.8825 72.347 28.2179 71.9327C28.5533 71.5184 28.8394 70.9166 29.0762 70.1274C29.3327 69.2987 29.4609 68.3024 29.4609 67.1383C29.4609 65.9545 29.3327 64.968 29.0762 64.1787C28.8 63.3106 28.4941 62.6891 28.1587 62.3142C27.8431 61.9394 27.4484 61.6237 26.9749 61.3672C26.5014 61.1107 26.0969 60.9529 25.7615 60.8937C25.1302 60.795 24.4988 60.795 23.8674 60.8937C23.5912 60.9134 23.1966 61.0614 22.6836 61.3376C21.6774 61.8309 20.9671 62.7779 20.5528 64.1787ZM52.7327 61.4856H45.1267V74.6851H42.5224V59.6507H55.3371V74.6851H52.7327V61.4856ZM70.4351 70.3346H72.9211C72.6843 71.6565 72.0431 72.8107 70.9974 73.7972C69.9517 74.7837 68.4029 75.277 66.3509 75.277C63.569 75.277 61.5269 74.3595 60.2247 72.5246C59.5736 71.5578 59.1494 70.522 58.9521 69.4171C58.814 68.6476 58.7449 67.9176 58.7449 67.2271C58.7449 65.9051 58.9422 64.6621 59.3369 63.4981C59.5933 62.6694 59.9682 61.9492 60.4615 61.3376C60.9942 60.6865 61.7538 60.1439 62.7403 59.7099C63.7268 59.2758 64.8416 59.0588 66.0846 59.0588C68.2943 59.0588 69.9615 59.6704 71.0862 60.8937C71.5597 61.4067 71.9444 62.0578 72.2404 62.847C72.6744 63.9913 72.9408 65.3823 73.0394 67.0199C73.0394 67.0791 73.0394 67.2073 73.0394 67.4046C73.0592 67.6019 73.069 67.7203 73.069 67.7598H61.4973C61.4973 69.2593 61.8919 70.5812 62.6811 71.7255C63.4703 72.8699 64.664 73.4421 66.2621 73.4421C67.4065 73.4421 68.3437 73.156 69.0737 72.5838C69.8037 72.0116 70.2575 71.2619 70.4351 70.3346ZM61.4973 65.9249H70.3167C70.297 64.7608 70.0207 63.6855 69.488 62.699C68.8764 61.4954 67.7616 60.8937 66.1438 60.8937C64.3089 60.8937 63.0461 61.5053 62.3556 62.7286C61.7834 63.7151 61.4973 64.7805 61.4973 65.9249ZM76.4817 80.1602V59.6507H78.9086V61.7223H78.9973C80.1811 59.9466 81.8385 59.0588 83.9693 59.0588C85.9226 59.0588 87.5405 59.7395 88.823 61.1008C90.1054 62.482 90.7466 64.5043 90.7466 67.1679C90.7466 69.8906 90.0956 71.9228 88.7934 73.2645C87.5109 74.6061 85.9226 75.277 84.0285 75.277C83.4366 75.277 82.7165 75.1487 81.8681 74.8922C80.6251 74.5174 79.6978 73.7281 79.0861 72.5246V80.1602H76.4817ZM78.9086 67.2271C78.9086 69.3185 79.3821 70.887 80.3291 71.9327C81.3156 72.9389 82.3909 73.4421 83.555 73.4421C84.7783 73.4421 85.824 72.9488 86.6921 71.9623C87.5602 70.9363 87.9943 69.3382 87.9943 67.1679C87.9943 65.1949 87.5898 63.6559 86.7809 62.551C85.9917 61.4461 84.8671 60.8937 83.407 60.8937C82.6376 60.8937 81.9174 61.1008 81.2466 61.5152C79.6879 62.4425 78.9086 64.3465 78.9086 67.2271ZM104.972 70.3346H107.458C107.222 71.6565 106.58 72.8107 105.535 73.7972C104.489 74.7837 102.94 75.277 100.888 75.277C98.1064 75.277 96.0643 74.3595 94.7621 72.5246C94.111 71.5578 93.6868 70.522 93.4895 69.4171C93.3514 68.6476 93.2824 67.9176 93.2824 67.2271C93.2824 65.9051 93.4797 64.6621 93.8743 63.4981C94.1308 62.6694 94.5056 61.9492 94.9989 61.3376C95.5316 60.6865 96.2912 60.1439 97.2777 59.7099C98.2642 59.2758 99.379 59.0588 100.622 59.0588C102.832 59.0588 104.499 59.6704 105.624 60.8937C106.097 61.4067 106.482 62.0578 106.778 62.847C107.212 63.9913 107.478 65.3823 107.577 67.0199C107.577 67.0791 107.577 67.2073 107.577 67.4046C107.597 67.6019 107.606 67.7203 107.606 67.7598H96.0347C96.0347 69.2593 96.4293 70.5812 97.2185 71.7255C98.0077 72.8699 99.2014 73.4421 100.8 73.4421C101.944 73.4421 102.881 73.156 103.611 72.5838C104.341 72.0116 104.795 71.2619 104.972 70.3346ZM96.0347 65.9249H104.854C104.834 64.7608 104.558 63.6855 104.025 62.699C103.414 61.4954 102.299 60.8937 100.681 60.8937C98.8463 60.8937 97.5835 61.5053 96.893 62.7286C96.3208 63.7151 96.0347 64.7805 96.0347 65.9249ZM111.019 80.1602V59.6507H113.446V61.7223H113.535C114.719 59.9466 116.376 59.0588 118.507 59.0588C120.46 59.0588 122.078 59.7395 123.36 61.1008C124.643 62.482 125.284 64.5043 125.284 67.1679C125.284 69.8906 124.633 71.9228 123.331 73.2645C122.048 74.6061 120.46 75.277 118.566 75.277C117.974 75.277 117.254 75.1487 116.405 74.8922C115.162 74.5174 114.235 73.7281 113.624 72.5246V80.1602H111.019ZM113.446 67.2271C113.446 69.3185 113.919 70.887 114.867 71.9327C115.853 72.9389 116.928 73.4421 118.092 73.4421C119.316 73.4421 120.361 72.9488 121.23 71.9623C122.098 70.9363 122.532 69.3382 122.532 67.1679C122.532 65.1949 122.127 63.6559 121.318 62.551C120.529 61.4461 119.404 60.8937 117.944 60.8937C117.175 60.8937 116.455 61.1008 115.784 61.5152C114.225 62.4425 113.446 64.3465 113.446 67.2271ZM130.661 64.09H128.175C128.175 62.9062 128.57 61.821 129.359 60.8345C130.306 59.6507 132.042 59.0588 134.567 59.0588C136.047 59.0588 137.349 59.3547 138.474 59.9466C139.125 60.2623 139.638 60.7852 140.013 61.5152C140.388 62.2452 140.565 63.1133 140.546 64.1196L140.398 71.0744C140.398 71.6466 140.457 72.0905 140.575 72.4062C140.753 72.7219 141.217 72.8699 141.966 72.8502V74.6851C141.67 74.764 141.276 74.8034 140.782 74.8034C139.914 74.8034 139.283 74.6555 138.888 74.3595C138.514 74.0636 138.247 73.4815 138.089 72.6134C137.123 74.3891 135.406 75.277 132.94 75.277C131.243 75.277 129.931 74.9021 129.004 74.1523C128.096 73.3829 127.642 72.2484 127.642 70.7489C127.642 69.3283 128.155 68.253 129.181 67.523C130.207 66.7535 132.151 66.2406 135.011 65.9841C136.333 65.8854 137.123 65.7572 137.379 65.5993C137.754 65.3428 137.941 64.7805 137.941 63.9124C137.941 61.8999 136.817 60.8937 134.567 60.8937C131.904 60.8937 130.602 61.9591 130.661 64.09ZM137.882 68.2629L137.941 66.9903C137.645 67.2073 137.211 67.3849 136.639 67.523C135.771 67.5822 135.1 67.6513 134.627 67.7302C132.989 68.0064 131.993 68.2333 131.638 68.4109C130.769 68.8252 130.335 69.5749 130.335 70.6601C130.335 71.5282 130.592 72.2089 131.105 72.7022C131.638 73.1954 132.348 73.4421 133.236 73.4421C133.808 73.4421 134.331 73.3631 134.804 73.2053C135.297 73.0475 135.771 72.791 136.225 72.4358C136.698 72.0609 137.073 71.5184 137.349 70.8081C137.645 70.0978 137.823 69.2494 137.882 68.2629ZM155.72 52.9917H157.94C157.861 54.432 157.19 55.389 155.927 55.8625C155.237 56.0992 154.645 56.2571 154.152 56.336C151.942 56.6122 150.659 56.7997 150.304 56.8983C148.963 57.2732 147.937 57.9539 147.226 58.9404C146.516 59.9072 146.141 61.2981 146.102 63.1133H146.161C147.108 60.5681 149.051 59.2955 151.991 59.2955C154.379 59.2955 156.164 60.0847 157.348 61.6632C158.551 63.2218 159.153 65.1357 159.153 67.4046C159.153 69.5749 158.532 71.4296 157.289 72.9685C156.046 74.5075 154.201 75.277 151.754 75.277C149.051 75.277 147.049 74.251 145.747 72.1991C145.096 71.0744 144.652 69.8117 144.415 68.4109C144.257 67.306 144.178 66.211 144.178 65.1258C144.178 61.3179 144.76 58.6543 145.924 57.1351C146.95 55.8132 148.341 54.9648 150.097 54.5899C151.754 54.215 153.155 53.998 154.3 53.9388C155.069 53.8401 155.543 53.5245 155.72 52.9917ZM146.93 67.5822C146.93 68.8844 147.226 70.1373 147.818 71.3408C148.509 72.7416 149.801 73.4421 151.695 73.4421C153.195 73.4421 154.349 72.9389 155.158 71.9327C155.987 70.9067 156.401 69.496 156.401 67.7006C156.401 66.2208 156.144 64.8496 155.631 63.5868C154.98 61.9492 153.668 61.1304 151.695 61.1304C149.722 61.1304 148.39 61.9295 147.7 63.5277C147.187 64.7509 146.93 66.1024 146.93 67.5822ZM162.077 70.1274C161.564 68.0163 161.584 65.9742 162.136 64.0012C162.689 62.0282 163.853 60.6175 165.629 59.7691C166.615 59.2955 167.769 59.0588 169.091 59.0588C170.413 59.0588 171.567 59.2955 172.554 59.7691C174.33 60.5977 175.504 62.0775 176.076 64.2083C176.332 65.1949 176.46 66.1912 176.46 67.1975C176.48 68.184 176.362 69.1606 176.105 70.1274C175.869 71.0744 175.444 71.9426 174.833 72.7318C174.241 73.521 173.481 74.1425 172.554 74.5963C171.548 75.0501 170.393 75.277 169.091 75.277C167.789 75.277 166.635 75.0501 165.629 74.5963C163.912 73.7676 162.728 72.278 162.077 70.1274ZM164.83 64.1787C164.573 64.968 164.445 65.9545 164.445 67.1383C164.445 68.3024 164.573 69.2987 164.83 70.1274C165.086 70.9561 165.382 71.5776 165.717 71.9919C166.428 72.7811 167.237 73.2448 168.144 73.3829C168.776 73.4815 169.407 73.4815 170.038 73.3829C170.315 73.3631 170.699 73.225 171.193 72.9685C171.725 72.6923 172.159 72.347 172.495 71.9327C172.83 71.5184 173.116 70.9166 173.353 70.1274C173.609 69.2987 173.738 68.3024 173.738 67.1383C173.738 65.9545 173.609 64.968 173.353 64.1787C173.077 63.3106 172.771 62.6891 172.436 62.3142C172.12 61.9394 171.725 61.6237 171.252 61.3672C170.778 61.1107 170.374 60.9529 170.038 60.8937C169.407 60.795 168.776 60.795 168.144 60.8937C167.868 60.9134 167.473 61.0614 166.96 61.3376C165.954 61.8309 165.244 62.7779 164.83 64.1787ZM182.429 74.6851V61.4856H177.221V59.6507H190.243V61.4856H185.034V74.6851H182.429ZM195.01 59.6507V66.2208L201.433 59.6507H204.481L197.437 66.6352L204.866 74.6851H201.758L195.01 67.1679V74.6851H192.406V59.6507H195.01ZM217.718 70.3346H220.204C219.967 71.6565 219.326 72.8107 218.28 73.7972C217.234 74.7837 215.685 75.277 213.633 75.277C210.852 75.277 208.809 74.3595 207.507 72.5246C206.856 71.5578 206.432 70.522 206.235 69.4171C206.097 68.6476 206.027 67.9176 206.027 67.2271C206.027 65.9051 206.225 64.6621 206.619 63.4981C206.876 62.6694 207.251 61.9492 207.744 61.3376C208.277 60.6865 209.036 60.1439 210.023 59.7099C211.009 59.2758 212.124 59.0588 213.367 59.0588C215.577 59.0588 217.244 59.6704 218.369 60.8937C218.842 61.4067 219.227 62.0578 219.523 62.847C219.957 63.9913 220.223 65.3823 220.322 67.0199C220.322 67.0791 220.322 67.2073 220.322 67.4046C220.342 67.6019 220.352 67.7203 220.352 67.7598H208.78C208.78 69.2593 209.174 70.5812 209.964 71.7255C210.753 72.8699 211.947 73.4421 213.545 73.4421C214.689 73.4421 215.626 73.156 216.356 72.5838C217.086 72.0116 217.54 71.2619 217.718 70.3346ZM208.78 65.9249H217.599C217.58 64.7608 217.303 63.6855 216.771 62.699C216.159 61.4954 215.044 60.8937 213.426 60.8937C211.591 60.8937 210.329 61.5053 209.638 62.7286C209.066 63.7151 208.78 64.7805 208.78 65.9249ZM28.4843 94.4856H20.8783V107.685H18.2739V92.6507H31.0887V107.685H28.4843V94.4856ZM33.6086 107.685V105.761C35.0884 106.195 36.1341 105.495 36.7457 103.66C36.9036 103.206 37.0121 102.644 37.0713 101.973L37.1897 100.168C37.2094 99.8522 37.2193 99.2307 37.2193 98.3034V92.6507H47.6368V107.685H45.0324V94.4856H39.6461V98.3034C39.6461 99.5464 39.6165 100.592 39.5573 101.44C39.4981 102.269 39.3501 103.177 39.1134 104.163C38.778 105.564 38.1762 106.56 37.3081 107.152C36.4399 107.744 35.2068 107.922 33.6086 107.685ZM53.8694 97.09H51.3834C51.3834 95.9062 51.778 94.821 52.5672 93.8345C53.5142 92.6507 55.2505 92.0588 57.7759 92.0588C59.2557 92.0588 60.5579 92.3547 61.6825 92.9466C62.3336 93.2623 62.8466 93.7852 63.2215 94.5152C63.5963 95.2452 63.7739 96.1133 63.7542 97.1196L63.6062 104.074C63.6062 104.647 63.6654 105.091 63.7838 105.406C63.9613 105.722 64.425 105.87 65.1747 105.85V107.685C64.8788 107.764 64.4842 107.803 63.9909 107.803C63.1228 107.803 62.4914 107.655 62.0968 107.36C61.722 107.064 61.4556 106.482 61.2978 105.613C60.331 107.389 58.6145 108.277 56.1482 108.277C54.4514 108.277 53.1393 107.902 52.212 107.152C51.3044 106.383 50.8507 105.248 50.8507 103.749C50.8507 102.328 51.3636 101.253 52.3896 100.523C53.4156 99.7535 55.359 99.2406 58.2199 98.9841C59.5418 98.8854 60.331 98.7572 60.5875 98.5993C60.9624 98.3428 61.1498 97.7805 61.1498 96.9124C61.1498 94.8999 60.0252 93.8937 57.7759 93.8937C55.1124 93.8937 53.8102 94.9591 53.8694 97.09ZM61.0906 101.263L61.1498 99.9903C60.8538 100.207 60.4198 100.385 59.8476 100.523C58.9795 100.582 58.3087 100.651 57.8351 100.73C56.1975 101.006 55.2012 101.233 54.846 101.411C53.9779 101.825 53.5438 102.575 53.5438 103.66C53.5438 104.528 53.8003 105.209 54.3133 105.702C54.846 106.195 55.5563 106.442 56.4442 106.442C57.0163 106.442 57.5392 106.363 58.0127 106.205C58.506 106.047 58.9795 105.791 59.4333 105.436C59.9068 105.061 60.2817 104.518 60.5579 103.808C60.8538 103.098 61.0314 102.249 61.0906 101.263ZM78.7807 102.328H81.2667C81.1878 103.473 80.7537 104.676 79.9645 105.939C79.5304 106.649 78.8497 107.221 77.9224 107.655C77.0148 108.07 75.9494 108.277 74.7261 108.277C74.3118 108.277 74.0159 108.267 73.8383 108.247C72.9702 108.208 72.0823 107.981 71.1747 107.567C68.6493 106.304 67.3865 103.798 67.3865 100.049C67.3865 98.0765 67.8403 96.3205 68.7479 94.7815C69.8725 92.9664 71.8061 92.0588 74.5486 92.0588C76.4821 92.0588 78.0211 92.552 79.1654 93.5385C80.3098 94.5053 80.9707 95.7779 81.1483 97.3563H78.6623C78.2677 95.0479 76.9162 93.8937 74.6078 93.8937C73.1083 93.8937 71.9837 94.4461 71.2339 95.551C70.5039 96.6362 70.1389 98.1357 70.1389 100.049C70.1389 101.904 70.5236 103.433 71.2931 104.637C72.0626 105.84 73.2267 106.442 74.7853 106.442C76.127 106.442 77.1036 106.018 77.7153 105.169C78.3664 104.321 78.7215 103.374 78.7807 102.328ZM87.401 107.685V94.4856H82.1922V92.6507H95.2141V94.4856H90.0054V107.685H87.401ZM99.8086 92.6507V104.637L107.651 92.6507H110.552V107.685H107.947V95.6694L100.134 107.685H97.2042V92.6507H99.8086ZM117.41 92.6507V99.2208L123.832 92.6507H126.88L119.836 99.6352L127.265 107.685H124.157L117.41 100.168V107.685H114.805V92.6507H117.41ZM131.268 97.09H128.782C128.782 95.9062 129.176 94.821 129.966 93.8345C130.913 92.6507 132.649 92.0588 135.174 92.0588C136.654 92.0588 137.956 92.3547 139.081 92.9466C139.732 93.2623 140.245 93.7852 140.62 94.5152C140.995 95.2452 141.172 96.1133 141.153 97.1196L141.005 104.074C141.005 104.647 141.064 105.091 141.182 105.406C141.36 105.722 141.823 105.87 142.573 105.85V107.685C142.277 107.764 141.883 107.803 141.389 107.803C140.521 107.803 139.89 107.655 139.495 107.36C139.12 107.064 138.854 106.482 138.696 105.613C137.729 107.389 136.013 108.277 133.547 108.277C131.85 108.277 130.538 107.902 129.611 107.152C128.703 106.383 128.249 105.248 128.249 103.749C128.249 102.328 128.762 101.253 129.788 100.523C130.814 99.7535 132.757 99.2406 135.618 98.9841C136.94 98.8854 137.729 98.7572 137.986 98.5993C138.361 98.3428 138.548 97.7805 138.548 96.9124C138.548 94.8999 137.424 93.8937 135.174 93.8937C132.511 93.8937 131.209 94.9591 131.268 97.09ZM138.489 101.263L138.548 99.9903C138.252 100.207 137.818 100.385 137.246 100.523C136.378 100.582 135.707 100.651 135.234 100.73C133.596 101.006 132.6 101.233 132.244 101.411C131.376 101.825 130.942 102.575 130.942 103.66C130.942 104.528 131.199 105.209 131.712 105.702C132.244 106.195 132.955 106.442 133.843 106.442C134.415 106.442 134.938 106.363 135.411 106.205C135.904 106.047 136.378 105.791 136.832 105.436C137.305 105.061 137.68 104.518 137.956 103.808C138.252 103.098 138.43 102.249 138.489 101.263Z" fill="black"/>
</svg>
