<svg width="388" height="388" viewBox="0 0 388 388" fill="none" xmlns="http://www.w3.org/2000/svg">
<g clip-path="url(#clip0_895_7383)">
<rect width="387.202" height="387.202" transform="translate(0 0.563477)" fill="#FFFF00"/>
<path d="M29.9023 30.6569H24.1757V28.9031H24.9273C26.5021 28.9031 27.8384 28.4975 28.936 27.6862C30.0574 26.8511 30.7136 25.7654 30.9045 24.4292H33.2668V49.4834H29.9023V30.6569ZM49.899 50.0919C48.8253 50.2827 47.7157 50.2827 46.5704 50.0919C46.0454 50.0203 45.3177 49.7339 44.3871 49.2329C43.4088 48.7079 42.5975 48.004 41.9533 47.1211C41.309 46.2383 40.7363 44.9498 40.2352 43.2556C39.7342 41.466 39.4836 39.3663 39.4836 36.9563C39.4836 34.5225 39.7342 32.4346 40.2352 30.6927C40.7841 28.8793 41.3687 27.555 41.989 26.7199C42.5856 25.9324 43.3372 25.2763 44.2439 24.7513C45.1745 24.2264 45.95 23.9162 46.5704 23.8207C47.7157 23.6298 48.8253 23.6298 49.899 23.8207C50.4478 23.8923 51.1875 24.1786 52.1181 24.6797C53.1203 25.2047 53.9316 25.9086 54.5519 26.7914C55.1962 27.6743 55.7569 28.9747 56.2342 30.6927C56.7591 32.4107 57.0216 34.4986 57.0216 36.9563C57.0216 39.414 56.7591 41.5138 56.2342 43.2556C55.7092 45.0452 55.1246 46.3576 54.4804 47.1927C53.8361 48.0517 53.0487 48.7318 52.1181 49.2329C51.1875 49.7339 50.4478 50.0203 49.899 50.0919ZM44.1008 44.5083C45.0075 46.4411 46.3914 47.4075 48.2526 47.4075C50.1376 47.4075 51.5096 46.4411 52.3686 44.5083C53.2515 42.5995 53.6929 40.0821 53.6929 36.9563C53.6929 33.8305 53.2515 31.3131 52.3686 29.4042C51.5096 27.4715 50.1376 26.5051 48.2526 26.5051C46.3914 26.5051 45.0075 27.4715 44.1008 29.4042C43.2418 31.337 42.8123 33.8543 42.8123 36.9563C42.8123 40.0582 43.2418 42.5756 44.1008 44.5083ZM81.6991 41.0008H72.7154V49.4834H69.5657V31.3012H72.7154V38.7817H81.6991V31.3012H84.8488V49.4834H81.6991V41.0008ZM103.113 44.222H106.119C105.833 45.8207 105.058 47.2166 103.793 48.4096C102.528 49.6027 100.655 50.1992 98.1737 50.1992C94.8093 50.1992 92.3396 49.0897 90.7648 46.8706C89.9774 45.7014 89.4644 44.4487 89.2258 43.1125C89.0587 42.1819 88.9752 41.299 88.9752 40.4639C88.9752 38.8652 89.2138 37.3619 89.691 35.9541C90.0012 34.952 90.4546 34.081 91.0511 33.3413C91.6954 32.5539 92.614 31.8977 93.8071 31.3728C95.0002 30.8478 96.3483 30.5854 97.8516 30.5854C100.524 30.5854 102.54 31.3251 103.9 32.8044C104.473 33.4248 104.938 34.2123 105.296 35.1667C105.821 36.5506 106.143 38.2329 106.263 40.2133C106.263 40.2849 106.263 40.44 106.263 40.6786C106.286 40.9172 106.298 41.0604 106.298 41.1081H92.3038C92.3038 42.9216 92.7811 44.5203 93.7355 45.9042C94.69 47.2882 96.1336 47.9801 98.0663 47.9801C99.4503 47.9801 100.584 47.6342 101.467 46.9422C102.349 46.2502 102.898 45.3435 103.113 44.222ZM92.3038 38.889H102.97C102.946 37.4812 102.612 36.1808 101.968 34.9877C101.228 33.5322 99.8798 32.8044 97.9231 32.8044C95.7041 32.8044 94.1769 33.5441 93.3418 35.0235C92.6498 36.2166 92.3038 37.5051 92.3038 38.889ZM109.853 43.9715C109.233 41.4183 109.256 38.9487 109.925 36.5626C110.593 34.1765 112 32.4704 114.148 31.4444C115.341 30.8717 116.737 30.5854 118.336 30.5854C119.934 30.5854 121.33 30.8717 122.523 31.4444C124.671 32.4465 126.09 34.2361 126.782 36.8131C127.093 38.0062 127.248 39.2112 127.248 40.4281C127.272 41.6211 127.128 42.8023 126.818 43.9715C126.532 45.1168 126.019 46.1667 125.279 47.1211C124.563 48.0756 123.645 48.8272 122.523 49.376C121.306 49.9248 119.91 50.1992 118.336 50.1992C116.761 50.1992 115.365 49.9248 114.148 49.376C112.072 48.3739 110.64 46.5723 109.853 43.9715ZM113.182 36.7773C112.871 37.7318 112.716 38.9248 112.716 40.3565C112.716 41.7643 112.871 42.9693 113.182 43.9715C113.492 44.9736 113.85 45.7253 114.255 46.2263C115.114 47.1808 116.093 47.7415 117.19 47.9086C117.954 48.0279 118.717 48.0279 119.481 47.9086C119.815 47.8847 120.28 47.7177 120.877 47.4075C121.521 47.0734 122.046 46.6559 122.452 46.1548C122.857 45.6537 123.203 44.9259 123.49 43.9715C123.8 42.9693 123.955 41.7643 123.955 40.3565C123.955 38.9248 123.8 37.7318 123.49 36.7773C123.156 35.7274 122.786 34.9758 122.38 34.5225C121.998 34.0691 121.521 33.6873 120.948 33.3771C120.376 33.0669 119.887 32.876 119.481 32.8044C118.717 32.6851 117.954 32.6851 117.19 32.8044C116.856 32.8283 116.379 33.0073 115.759 33.3413C114.542 33.9379 113.683 35.0832 113.182 36.7773ZM144.318 23.2481H147.003C146.907 24.9899 146.096 26.1472 144.569 26.7199C143.734 27.0062 143.018 27.1971 142.421 27.2925C139.749 27.6266 138.198 27.8533 137.768 27.9726C136.146 28.4259 134.905 29.2491 134.046 30.4422C133.187 31.6114 132.734 33.2936 132.686 35.4888H132.757C133.903 32.4107 136.253 30.8717 139.808 30.8717C142.696 30.8717 144.855 31.8261 146.287 33.735C147.742 35.6201 148.47 37.9346 148.47 40.6786C148.47 43.3034 147.718 45.5463 146.215 47.4075C144.712 49.2686 142.481 50.1992 139.522 50.1992C136.253 50.1992 133.831 48.9585 132.256 46.4769C131.469 45.1168 130.932 43.5897 130.646 41.8955C130.455 40.5593 130.359 39.235 130.359 37.9227C130.359 33.3175 131.063 30.0962 132.471 28.2589C133.712 26.6602 135.394 25.6342 137.518 25.1808C139.522 24.7274 141.216 24.465 142.6 24.3934C143.531 24.2741 144.103 23.8923 144.318 23.2481ZM133.688 40.8934C133.688 42.4682 134.046 43.9834 134.762 45.4389C135.597 47.1331 137.16 47.9801 139.451 47.9801C141.264 47.9801 142.66 47.3717 143.638 46.1548C144.64 44.914 145.141 43.2079 145.141 41.0365C145.141 39.247 144.831 37.5886 144.211 36.0615C143.423 34.081 141.837 33.0908 139.451 33.0908C137.064 33.0908 135.454 34.0572 134.619 35.9899C133.998 37.4693 133.688 39.1038 133.688 40.8934ZM152.579 49.4834V31.3012H155.728V38.4953H160.31C161.765 38.4953 162.982 38.6385 163.961 38.9248C166.299 39.5214 167.516 41.2274 167.611 44.0431C167.611 45.7133 167.098 47.0376 166.072 48.0159C165.07 48.9942 163.507 49.4834 161.384 49.4834H152.579ZM159.558 40.7144H155.728V47.2643H160.131C162.946 47.2643 164.354 46.119 164.354 43.8283C164.354 42.7068 163.984 41.8955 163.245 41.3945C163.006 41.2036 162.612 41.0485 162.064 40.9292C161.491 40.786 160.656 40.7144 159.558 40.7144ZM169.83 49.4834V31.3012H172.98V49.4834H169.83ZM177.163 37.3858V31.3012H180.313V36.8847C180.313 37.863 180.48 38.5908 180.814 39.068C181.219 39.5929 182.424 39.8554 184.429 39.8554C184.62 39.8554 185.312 39.8316 186.505 39.7838C186.624 39.76 186.874 39.748 187.256 39.748H188.008V31.3012H191.158V49.4834H188.008V41.9671C186.958 42.0387 185.55 42.0745 183.784 42.0745C180.73 42.0745 178.809 41.5973 178.022 40.6428C177.664 40.1656 177.425 39.7123 177.306 39.2828C177.211 38.8533 177.163 38.2209 177.163 37.3858ZM208.438 41.0008H199.455V49.4834H196.305V31.3012H199.455V38.7817H208.438V31.3012H211.588V49.4834H208.438V41.0008ZM216.752 49.4834V31.3012H219.902V38.4953H224.483C225.939 38.4953 227.156 38.6385 228.134 38.9248C230.472 39.5214 231.689 41.2274 231.785 44.0431C231.785 45.7133 231.272 47.0376 230.246 48.0159C229.244 48.9942 227.681 49.4834 225.557 49.4834H216.752ZM223.732 40.7144H219.902V47.2643H224.304C227.12 47.2643 228.528 46.119 228.528 43.8283C228.528 42.7068 228.158 41.8955 227.418 41.3945C227.18 41.2036 226.786 41.0485 226.237 40.9292C225.664 40.786 224.829 40.7144 223.732 40.7144ZM234.004 49.4834V31.3012H237.154V49.4834H234.004ZM243.735 31.3012L248.387 38.03L253.04 31.3012H256.548L250.177 39.9986L257.049 49.4834H253.541L248.387 42.0029L243.233 49.4834H239.726L246.598 39.9986L240.227 31.3012H243.735ZM35.3069 95.1049H32.1572V88.9487C30.0813 88.901 28.2917 88.6146 26.7885 88.0897C25.3091 87.5409 24.1637 86.8012 23.3525 85.8706C22.5412 84.94 21.9566 83.9378 21.5987 82.8641C21.2407 81.7903 21.0618 80.5973 21.0618 79.2849C21.0618 77.5431 21.4316 75.9205 22.1713 74.4172C23.6269 71.3153 26.9555 69.8001 32.1572 69.8717V63.4292H35.3069V69.8717C37.4544 69.824 39.3514 70.1342 40.9978 70.8023C42.0715 71.2079 42.9783 71.7448 43.718 72.4129C44.5292 73.081 45.1735 74.0235 45.6507 75.2405C46.1518 76.4335 46.4023 77.7817 46.4023 79.2849C46.4023 82.2914 45.4956 84.6298 43.6822 86.3001C41.8687 87.9704 39.077 88.8532 35.3069 88.9487V95.1049ZM32.1572 86.7296V72.0908C30.3438 71.9715 28.6616 72.3652 27.1106 73.2719C25.2971 74.3695 24.3904 76.3619 24.3904 79.2491C24.3904 81.683 25.0347 83.5083 26.3232 84.7253C27.8503 86.1092 29.795 86.7773 32.1572 86.7296ZM35.3069 72.0908V86.7296C38.385 86.7296 40.4967 85.8587 41.642 84.1168C42.5965 82.6613 43.0737 81.0387 43.0737 79.2491C43.0737 78.6765 43.026 78.1038 42.9305 77.5311C42.8351 76.9346 42.6084 76.2784 42.2505 75.5626C41.9164 74.8467 41.475 74.2383 40.9262 73.7372C40.4013 73.2123 39.6496 72.7947 38.6713 72.4845C37.7169 72.1504 36.5954 72.0192 35.3069 72.0908ZM52.9145 75.67H49.908C49.908 74.2383 50.3852 72.9259 51.3396 71.7329C52.485 70.3012 54.5848 69.5854 57.639 69.5854C59.4286 69.5854 61.0034 69.9433 62.3635 70.6591C63.1509 71.0409 63.7713 71.6732 64.2247 72.5561C64.678 73.4389 64.8928 74.4888 64.8689 75.7057L64.69 84.1168C64.69 84.8088 64.7615 85.3457 64.9047 85.7274C65.1195 86.1092 65.6802 86.2882 66.5869 86.2643V88.4834C66.229 88.5788 65.7518 88.6266 65.1552 88.6266C64.1054 88.6266 63.3418 88.4476 62.8646 88.0897C62.4112 87.7318 62.0891 87.0279 61.8982 85.978C60.729 88.1255 58.6531 89.1992 55.6704 89.1992C53.6184 89.1992 52.0316 88.7459 50.9101 87.8391C49.8125 86.9086 49.2637 85.5365 49.2637 83.7231C49.2637 82.0051 49.8841 80.7047 51.1249 79.8218C52.3657 78.8912 54.716 78.2708 58.1759 77.9606C59.7746 77.8413 60.729 77.6862 61.0392 77.4953C61.4926 77.1851 61.7192 76.5051 61.7192 75.4552C61.7192 73.0214 60.3592 71.8044 57.639 71.8044C54.4177 71.8044 52.8429 73.0929 52.9145 75.67ZM61.6477 80.7166L61.7192 79.1775C61.3613 79.44 60.8364 79.6548 60.1444 79.8218C59.0945 79.8934 58.2832 79.9769 57.7106 80.0723C55.7301 80.4064 54.5251 80.6808 54.0956 80.8955C53.0457 81.3966 52.5208 82.3034 52.5208 83.6157C52.5208 84.6656 52.831 85.4888 53.4513 86.0854C54.0956 86.6819 54.9546 86.9801 56.0284 86.9801C56.7203 86.9801 57.3526 86.8847 57.9253 86.6938C58.5218 86.5029 59.0945 86.1927 59.6433 85.7632C60.216 85.3099 60.6694 84.6537 61.0034 83.7947C61.3613 82.9357 61.5761 81.9096 61.6477 80.7166ZM73.4494 70.3012V78.247L81.2162 70.3012H84.9028L76.3843 78.748L85.3681 88.4834H81.6099L73.4494 79.3923V88.4834H70.2998V70.3012H73.4494ZM91.9988 88.4834V72.5203H85.6994V70.3012H101.448V72.5203H95.1484V88.4834H91.9988ZM103.247 82.9715C102.627 80.4183 102.65 77.9487 103.318 75.5626C103.987 73.1765 105.394 71.4704 107.542 70.4444C108.735 69.8717 110.131 69.5854 111.73 69.5854C113.328 69.5854 114.724 69.8717 115.917 70.4444C118.065 71.4465 119.484 73.2361 120.176 75.8131C120.487 77.0062 120.642 78.2112 120.642 79.4281C120.666 80.6211 120.522 81.8023 120.212 82.9715C119.926 84.1168 119.413 85.1667 118.673 86.1211C117.957 87.0756 117.039 87.8272 115.917 88.376C114.7 88.9248 113.304 89.1992 111.73 89.1992C110.155 89.1992 108.759 88.9248 107.542 88.376C105.466 87.3739 104.034 85.5723 103.247 82.9715ZM106.576 75.7773C106.265 76.7318 106.11 77.9248 106.11 79.3565C106.11 80.7643 106.265 81.9693 106.576 82.9715C106.886 83.9736 107.244 84.7253 107.649 85.2263C108.508 86.1808 109.487 86.7415 110.584 86.9086C111.348 87.0279 112.111 87.0279 112.875 86.9086C113.209 86.8847 113.674 86.7177 114.271 86.4075C114.915 86.0734 115.44 85.6559 115.846 85.1548C116.251 84.6537 116.597 83.9259 116.884 82.9715C117.194 81.9693 117.349 80.7643 117.349 79.3565C117.349 77.9248 117.194 76.7318 116.884 75.7773C116.549 74.7274 116.18 73.9758 115.774 73.5225C115.392 73.0691 114.915 72.6873 114.342 72.3771C113.77 72.0669 113.281 71.876 112.875 71.8044C112.111 71.6851 111.348 71.6851 110.584 71.8044C110.25 71.8283 109.773 72.0073 109.153 72.3413C107.936 72.9379 107.077 74.0832 106.576 75.7773ZM124.791 88.4834V70.3012H133.453C137.295 70.3012 139.215 71.7448 139.215 74.632C139.215 76.7079 138.118 78.1277 135.923 78.8912V78.9986C137.402 79.3565 138.428 79.9292 139.001 80.7166C139.597 81.504 139.895 82.5181 139.895 83.7589C139.895 85.7394 139.168 87.0517 137.712 87.696C136.519 88.2209 135.064 88.4834 133.346 88.4834H124.791ZM132.451 72.5203H127.941V77.889H132.308C133.572 77.889 134.503 77.6385 135.099 77.1374C135.72 76.6125 136.03 75.9324 136.03 75.0973C136.03 73.3793 134.837 72.5203 132.451 72.5203ZM132.451 80.1081H127.941V86.2643H132.558C135.278 86.2643 136.638 85.3337 136.638 83.4726C136.638 81.2296 135.242 80.1081 132.451 80.1081ZM151.866 82.9715C151.246 80.4183 151.27 77.9487 151.938 75.5626C152.606 73.1765 154.014 71.4704 156.161 70.4444C157.354 69.8717 158.75 69.5854 160.349 69.5854C161.948 69.5854 163.344 69.8717 164.537 70.4444C166.684 71.4465 168.104 73.2361 168.796 75.8131C169.106 77.0062 169.261 78.2112 169.261 79.4281C169.285 80.6211 169.142 81.8023 168.832 82.9715C168.545 84.1168 168.032 85.1667 167.293 86.1211C166.577 87.0756 165.658 87.8272 164.537 88.376C163.32 88.9248 161.924 89.1992 160.349 89.1992C158.774 89.1992 157.378 88.9248 156.161 88.376C154.085 87.3739 152.654 85.5723 151.866 82.9715ZM155.195 75.7773C154.885 76.7318 154.73 77.9248 154.73 79.3565C154.73 80.7643 154.885 81.9693 155.195 82.9715C155.505 83.9736 155.863 84.7253 156.269 85.2263C157.128 86.1808 158.106 86.7415 159.204 86.9086C159.967 87.0279 160.731 87.0279 161.494 86.9086C161.828 86.8847 162.294 86.7177 162.89 86.4075C163.534 86.0734 164.059 85.6559 164.465 85.1548C164.871 84.6537 165.217 83.9259 165.503 82.9715C165.813 81.9693 165.968 80.7643 165.968 79.3565C165.968 77.9248 165.813 76.7318 165.503 75.7773C165.169 74.7274 164.799 73.9758 164.393 73.5225C164.012 73.0691 163.534 72.6873 162.962 72.3771C162.389 72.0669 161.9 71.876 161.494 71.8044C160.731 71.6851 159.967 71.6851 159.204 71.8044C158.87 71.8283 158.392 72.0073 157.772 72.3413C156.555 72.9379 155.696 74.0832 155.195 75.7773ZM194.113 72.5203H184.914V88.4834H181.764V70.3012H197.262V88.4834H194.113V72.5203ZM200.31 88.4834V86.1569C202.099 86.6819 203.364 85.8348 204.104 83.6157C204.295 83.0669 204.426 82.3869 204.498 81.5756L204.641 79.3923C204.665 79.0105 204.676 78.2589 204.676 77.1374V70.3012H217.275V88.4834H214.126V72.5203H207.611V77.1374C207.611 78.6407 207.576 79.9053 207.504 80.9313C207.432 81.9335 207.253 83.0311 206.967 84.2242C206.562 85.9183 205.834 87.1233 204.784 87.8391C203.734 88.555 202.243 88.7697 200.31 88.4834ZM224.813 75.67H221.806C221.806 74.2383 222.283 72.9259 223.238 71.7329C224.383 70.3012 226.483 69.5854 229.537 69.5854C231.327 69.5854 232.902 69.9433 234.262 70.6591C235.049 71.0409 235.67 71.6732 236.123 72.5561C236.576 73.4389 236.791 74.4888 236.767 75.7057L236.588 84.1168C236.588 84.8088 236.66 85.3457 236.803 85.7274C237.018 86.1092 237.578 86.2882 238.485 86.2643V88.4834C238.127 88.5788 237.65 88.6266 237.053 88.6266C236.004 88.6266 235.24 88.4476 234.763 88.0897C234.309 87.7318 233.987 87.0279 233.796 85.978C232.627 88.1255 230.551 89.1992 227.569 89.1992C225.517 89.1992 223.93 88.7459 222.808 87.8391C221.711 86.9086 221.162 85.5365 221.162 83.7231C221.162 82.0051 221.782 80.7047 223.023 79.8218C224.264 78.8912 226.614 78.2708 230.074 77.9606C231.673 77.8413 232.627 77.6862 232.937 77.4953C233.391 77.1851 233.617 76.5051 233.617 75.4552C233.617 73.0214 232.257 71.8044 229.537 71.8044C226.316 71.8044 224.741 73.0929 224.813 75.67ZM233.546 80.7166L233.617 79.1775C233.26 79.44 232.735 79.6548 232.043 79.8218C230.993 79.8934 230.181 79.9769 229.609 80.0723C227.628 80.4064 226.423 80.6808 225.994 80.8955C224.944 81.3966 224.419 82.3034 224.419 83.6157C224.419 84.6656 224.729 85.4888 225.35 86.0854C225.994 86.6819 226.853 86.9801 227.927 86.9801C228.619 86.9801 229.251 86.8847 229.824 86.6938C230.42 86.5029 230.993 86.1927 231.542 85.7632C232.114 85.3099 232.568 84.6537 232.902 83.7947C233.26 82.9357 233.474 81.9096 233.546 80.7166ZM254.94 82.0051H257.946C257.851 83.389 257.326 84.8446 256.372 86.3717C255.847 87.2307 255.023 87.9227 253.902 88.4476C252.804 88.9487 251.516 89.1992 250.036 89.1992C249.535 89.1992 249.177 89.1873 248.963 89.1634C247.913 89.1157 246.839 88.8413 245.741 88.3402C242.687 86.8131 241.16 83.7827 241.16 79.2491C241.16 76.863 241.709 74.7394 242.806 72.8782C244.167 70.683 246.505 69.5854 249.822 69.5854C252.16 69.5854 254.021 70.1819 255.405 71.3749C256.789 72.5441 257.588 74.0832 257.803 75.9921H254.797C254.319 73.2003 252.685 71.8044 249.893 71.8044C248.08 71.8044 246.72 72.4726 245.813 73.8088C244.93 75.1211 244.489 76.9346 244.489 79.2491C244.489 81.4921 244.954 83.3413 245.885 84.7968C246.815 86.2524 248.223 86.9801 250.108 86.9801C251.731 86.9801 252.912 86.4671 253.651 85.4411C254.439 84.4151 254.868 83.2697 254.94 82.0051ZM265.365 88.4834V72.5203H259.066V70.3012H274.814V72.5203H268.515V88.4834H265.365ZM280.37 70.3012V84.7968L289.855 70.3012H293.363V88.4834H290.213V73.952L280.764 88.4834H277.221V70.3012H280.37ZM301.657 70.3012V78.247L309.424 70.3012H313.11L304.592 78.748L313.575 88.4834H309.817L301.657 79.3923V88.4834H298.507V70.3012H301.657ZM329.118 83.222H332.125C331.838 84.8207 331.063 86.2166 329.798 87.4096C328.534 88.6027 326.661 89.1992 324.179 89.1992C320.815 89.1992 318.345 88.0897 316.77 85.8706C315.983 84.7014 315.47 83.4487 315.231 82.1125C315.064 81.1819 314.98 80.299 314.98 79.4639C314.98 77.8652 315.219 76.3619 315.696 74.9541C316.007 73.952 316.46 73.081 317.056 72.3413C317.701 71.5539 318.619 70.8977 319.812 70.3728C321.005 69.8478 322.354 69.5854 323.857 69.5854C326.529 69.5854 328.546 70.3251 329.906 71.8044C330.478 72.4248 330.944 73.2123 331.302 74.1667C331.826 75.5506 332.149 77.2329 332.268 79.2133C332.268 79.2849 332.268 79.44 332.268 79.6786C332.292 79.9172 332.304 80.0604 332.304 80.1081H318.309C318.309 81.9216 318.786 83.5203 319.741 84.9042C320.695 86.2882 322.139 86.9801 324.072 86.9801C325.456 86.9801 326.589 86.6342 327.472 85.9422C328.355 85.2502 328.903 84.3435 329.118 83.222ZM318.309 77.889H328.975C328.951 76.4812 328.617 75.1808 327.973 73.9877C327.233 72.5322 325.885 71.8044 323.928 71.8044C321.709 71.8044 320.182 72.5441 319.347 74.0235C318.655 75.2166 318.309 76.5051 318.309 77.889Z" fill="black"/>
<path fill-rule="evenodd" clip-rule="evenodd" d="M345.878 191.367L345.722 191.622L344.149 190.664L342.577 189.706L342.413 189.976L342.249 190.245L341.456 189.762L340.663 189.278L340.507 189.534L340.351 189.79L339.832 189.473L339.312 189.157L339.157 189.412L339.001 189.668L338.468 189.343L337.934 189.018L337.779 189.274L337.623 189.53L337.363 189.372L337.103 189.213L336.947 189.469L336.792 189.725L336.532 189.566L336.272 189.408L336.108 189.677L335.944 189.947L335.684 189.788L335.424 189.63L335.269 189.886L335.113 190.141L334.853 189.983L334.593 189.825L334.438 190.081L334.282 190.336L334.008 190.17L333.735 190.003L333.423 190.515L333.112 191.026L332.852 190.868L332.592 190.709L332.272 191.234L331.953 191.759L331.693 191.601L331.433 191.443L330.966 192.21L330.498 192.977L330.238 192.819L329.979 192.66L329.347 193.697L328.716 194.733L328.456 194.575L328.196 194.416L327.089 196.233L325.983 198.05L326.242 198.208L326.502 198.367L325.871 199.403L325.239 200.439L325.499 200.598L325.759 200.756L325.439 201.281L325.119 201.806L325.379 201.964L325.639 202.122L325.327 202.634L325.016 203.145L325.276 203.303L325.535 203.462L325.224 203.973L324.912 204.484L325.186 204.651L325.459 204.818L325.295 205.087L325.131 205.356L325.391 205.514L325.651 205.673L325.495 205.928L325.339 206.184L325.599 206.342L325.859 206.5L325.555 206.998L325.252 207.496L323.149 206.224L321.046 204.953L320.878 205.21L320.711 205.468L319.139 204.511L317.568 203.553L317.412 203.809L317.256 204.065L316.204 203.423L315.151 202.782L314.995 203.038L314.839 203.293L313.8 202.66L312.761 202.027L312.605 202.283L312.449 202.538L311.397 201.897L310.344 201.256L310.188 201.511L310.032 201.767L308.733 200.976L307.434 200.184L307.59 199.929L307.746 199.673L306.693 199.032L305.64 198.39L305.796 198.134L305.952 197.879L305.159 197.396L304.366 196.912L304.522 196.657L304.678 196.401L303.898 195.926L303.119 195.451L303.275 195.196L303.43 194.94L301.571 193.807L299.711 192.674L299.556 192.93L299.4 193.186L299.14 193.027L298.88 192.869L298.569 193.381L298.257 193.892L297.997 193.734L297.738 193.575L297.262 194.356L296.786 195.137L296.527 194.978L296.267 194.82L295.8 195.587L295.332 196.354L295.072 196.196L294.813 196.038L294.493 196.563L294.173 197.088L293.9 196.921L293.626 196.754L293.159 197.521L292.691 198.289L292.432 198.13L292.172 197.972L291.54 199.008L290.909 200.045L290.649 199.886L290.39 199.728L288.176 203.362L285.962 206.996L286.222 207.154L286.481 207.312L286.014 208.079L285.547 208.847L285.806 209.005L286.066 209.163L285.746 209.688L285.427 210.213L285.7 210.379L285.973 210.546L285.662 211.057L285.35 211.569L285.61 211.727L285.87 211.885L285.714 212.141L285.558 212.397L285.818 212.555L286.078 212.713L285.914 212.983L285.75 213.252L286.01 213.41L286.269 213.568L286.114 213.824L285.958 214.08L286.218 214.238L286.477 214.396L286.322 214.652L286.166 214.908L286.439 215.074L286.713 215.241L286.557 215.497L286.401 215.752L286.661 215.911L286.921 216.069L286.765 216.325L286.609 216.58L286.869 216.739L287.129 216.897L286.965 217.166L286.801 217.435L287.32 217.752L287.84 218.068L287.684 218.324L287.528 218.58L288.061 218.904L288.595 219.229L288.439 219.485L288.283 219.741L289.336 220.382L290.389 221.024L290.233 221.279L290.077 221.535L291.39 222.335L292.702 223.134L292.546 223.39L292.391 223.646L295.016 225.245L297.641 226.845L297.477 227.114L297.313 227.383L302.03 230.257L306.747 233.131L306.591 233.386L306.436 233.642L309.594 235.566L312.752 237.49L312.908 237.235L313.064 236.979L316.222 238.903L319.381 240.828L319.545 240.558L319.709 240.289L321.281 241.247L322.853 242.205L323.009 241.949L323.165 241.694L324.478 242.493L325.79 243.293L325.946 243.037L326.102 242.782L326.895 243.265L327.688 243.748L327.843 243.492L327.999 243.236L328.519 243.553L329.038 243.87L329.194 243.614L329.35 243.358L329.87 243.675L330.389 243.991L330.553 243.722L330.717 243.453L330.991 243.619L331.264 243.786L331.42 243.53L331.576 243.275L331.835 243.433L332.095 243.591L332.251 243.335L332.407 243.08L332.926 243.396L333.446 243.713L333.602 243.457L333.757 243.201L334.017 243.36L334.277 243.518L334.597 242.993L334.917 242.468L335.19 242.635L335.463 242.801L335.619 242.546L335.775 242.29L336.035 242.448L336.295 242.607L336.45 242.351L336.606 242.095L336.866 242.253L337.126 242.412L337.601 241.631L338.077 240.85L338.337 241.009L338.596 241.167L340.646 237.802L342.696 234.438L342.436 234.279L342.177 234.121L342.488 233.61L342.8 233.098L342.54 232.94L342.28 232.782L342.6 232.257L342.92 231.732L342.66 231.574L342.4 231.416L342.712 230.904L343.023 230.393L342.75 230.226L342.477 230.059L342.632 229.804L342.788 229.548L342.528 229.39L342.269 229.232L342.588 228.707L342.908 228.182L342.648 228.023L342.389 227.865L342.544 227.609L342.7 227.354L342.44 227.196L342.181 227.037L342.336 226.782L342.492 226.526L342.233 226.368L341.974 226.21L342.282 225.687L342.59 225.165L342.328 224.994L342.066 224.824L342.222 224.57L342.377 224.315L342.117 224.157L341.857 223.998L342.013 223.743L342.169 223.487L341.909 223.329L341.649 223.17L341.805 222.915L341.961 222.659L341.701 222.501L341.441 222.342L341.597 222.087L341.753 221.831L341.493 221.673L341.233 221.514L341.553 220.99L341.873 220.465L341.599 220.298L341.326 220.131L341.474 219.889L341.621 219.647L341.895 219.814L342.168 219.98L342.324 219.724L342.48 219.469L342.739 219.627L342.999 219.785L343.163 219.516L343.327 219.247L343.587 219.405L343.847 219.563L344.003 219.308L344.158 219.052L344.678 219.369L345.197 219.685L345.353 219.429L345.509 219.174L346.042 219.499L346.576 219.823L346.731 219.568L346.887 219.312L347.407 219.629L347.926 219.945L348.082 219.689L348.238 219.434L349.031 219.917L349.824 220.4L349.988 220.131L350.152 219.862L350.671 220.178L351.191 220.495L351.347 220.239L351.503 219.983L352.296 220.466L353.089 220.95L353.244 220.694L353.4 220.438L353.66 220.596L353.92 220.755L354.076 220.499L354.231 220.243L354.491 220.402L354.751 220.56L354.907 220.304L355.062 220.048L355.322 220.207L355.582 220.365L356.066 219.571L356.55 218.777L356.29 218.619L356.03 218.46L356.186 218.205L356.342 217.949L355.822 217.632L355.302 217.316L355.45 217.074L355.598 216.831L355.857 216.99L356.117 217.148L356.437 216.623L356.757 216.098L357.017 216.256L357.276 216.415L357.432 216.159L357.588 215.903L357.848 216.061L358.107 216.22L358.747 215.17L359.387 214.12L357.541 212.996L355.695 211.871L355.531 212.14L355.367 212.409L353.55 211.302L351.732 210.195L351.884 209.928L352.036 209.66L351.774 209.49L351.512 209.32L351.823 208.81L352.134 208.299L351.875 208.141L351.615 207.983L352.09 207.202L352.566 206.422L352.306 206.263L352.046 206.105L352.358 205.594L352.67 205.082L352.41 204.924L352.15 204.766L352.626 203.985L353.101 203.204L352.841 203.046L352.582 202.888L352.737 202.632L352.893 202.376L352.62 202.21L352.346 202.043L352.658 201.532L352.969 201.02L352.71 200.862L352.45 200.704L352.606 200.448L352.761 200.192L352.502 200.034L352.242 199.876L352.406 199.607L352.57 199.338L352.31 199.179L352.05 199.021L352.206 198.765L352.362 198.51L352.102 198.351L351.842 198.193L351.998 197.937L352.154 197.682L351.621 197.357L351.087 197.032L351.243 196.776L351.399 196.52L350.879 196.204L350.36 195.887L350.516 195.632L350.671 195.376L350.138 195.051L349.605 194.726L349.769 194.457L349.933 194.188L348.361 193.23L346.788 192.272L346.944 192.016L347.1 191.761L346.567 191.436L346.033 191.111L345.878 191.367ZM347.159 199.972L347.003 200.227L347.263 200.386L347.523 200.544L346.9 201.567L346.276 202.59L347.316 203.223L348.355 203.856L348.502 203.614L348.65 203.371L348.39 203.213L348.13 203.055L348.441 202.544L348.752 202.034L348.49 201.864L348.228 201.694L348.381 201.426L348.533 201.159L348.274 201.002L348.015 200.844L348.171 200.588L348.327 200.332L347.821 200.024L347.315 199.716L347.159 199.972ZM345.102 206.857L344.79 207.368L345.05 207.526L345.31 207.685L344.99 208.209L344.67 208.734L344.41 208.576L344.151 208.418L343.995 208.674L343.839 208.929L344.359 209.246L344.878 209.562L345.042 209.293L345.206 209.024L345.466 209.182L345.726 209.34L346.349 208.318L346.972 207.295L346.193 206.82L345.413 206.345L345.102 206.857ZM333.234 225.167L332.922 225.678L332.663 225.52L332.403 225.362L331.935 226.129L331.468 226.896L331.728 227.054L331.988 227.212L331.676 227.724L331.364 228.235L331.624 228.393L331.884 228.552L331.728 228.807L331.572 229.063L332.612 229.696L333.651 230.329L333.806 230.074L333.962 229.818L334.222 229.976L334.482 230.134L334.785 229.636L335.089 229.138L334.829 228.98L334.569 228.822L335.2 227.786L335.832 226.749L335.572 226.591L335.312 226.433L335.468 226.177L335.624 225.921L334.585 225.288L333.546 224.655L333.234 225.167Z" fill="black"/>
<path fill-rule="evenodd" clip-rule="evenodd" d="M344.41 280.516L343.383 281.371L340.431 277.823L337.48 274.276L337.993 273.848L338.507 273.421L337.641 272.381L336.775 271.341L336.262 271.768L335.748 272.195L334.905 271.181L334.062 270.168L334.575 269.741L335.089 269.313L333.357 267.233L331.626 265.152L331.113 265.579L330.599 266.007L328.469 263.446L326.338 260.885L325.824 261.313L325.311 261.74L324.911 261.26L324.512 260.78L325.025 260.352L325.539 259.925L324.252 258.378L322.964 256.831L322.451 257.258L321.937 257.686L318.941 254.085L315.945 250.484L315.404 250.933L314.864 251.383L312.733 248.822L310.602 246.262L310.089 246.689L309.575 247.116L308.31 245.596L307.045 244.075L306.532 244.503L306.018 244.93L305.152 243.89L304.287 242.849L303.773 243.277L303.26 243.704L302.838 243.197L302.416 242.69L301.362 243.568L300.308 244.445L299.909 243.964L299.509 243.484L301.077 242.18L302.644 240.876L301.757 239.809L300.869 238.742L299.842 239.596L298.815 240.451L298.393 239.944L297.971 239.437L296.89 240.337L295.809 241.236L296.231 241.743L296.653 242.25L296.139 242.677L295.626 243.105L296.491 244.145L297.357 245.185L296.843 245.612L296.33 246.04L296.751 246.546L297.173 247.053L296.66 247.481L296.146 247.908L296.568 248.415L296.989 248.921L296.476 249.349L295.962 249.776L296.382 250.281L296.803 250.786L296.288 251.24L295.774 251.693L296.191 252.226L296.609 252.759L296.097 253.185L295.585 253.611L296.007 254.118L296.429 254.624L295.915 255.052L295.402 255.479L295.823 255.986L296.245 256.493L295.732 256.92L295.218 257.347L295.64 257.854L296.061 258.361L292.953 260.947L289.845 263.533L290.267 264.039L290.688 264.546L287.578 267.157L284.467 269.768L284.885 270.301L285.302 270.834L281.682 273.846L278.063 276.858L278.484 277.365L278.906 277.872L275.284 280.885L271.663 283.899L272.084 284.405L272.506 284.912L268.857 287.948L265.209 290.984L265.63 291.491L266.052 291.998L262.43 295.011L258.809 298.025L259.23 298.531L259.651 299.038L256.028 302.076L252.404 305.115L252.821 305.648L253.239 306.181L248.592 310.047L243.945 313.914L244.367 314.42L244.788 314.927L242.707 316.659L240.626 318.39L241.048 318.897L241.47 319.404L240.416 320.281L239.361 321.158L239.783 321.665L240.205 322.172L238.664 323.454L237.124 324.735L237.545 325.242L237.967 325.749L237.454 326.176L236.94 326.604L237.384 327.137L237.828 327.671L237.287 328.12L236.747 328.57L237.168 329.077L237.59 329.584L237.077 330.011L236.563 330.438L236.985 330.945L237.406 331.452L236.893 331.879L236.379 332.307L237.223 333.32L238.066 334.334L237.553 334.761L237.039 335.188L237.905 336.229L238.77 337.269L238.257 337.696L237.743 338.123L238.587 339.137L239.43 340.151L238.89 340.6L238.349 341.05L239.636 342.597L240.924 344.144L240.41 344.572L239.897 344.999L246.733 353.215L253.568 361.43L254.082 361.003L254.595 360.576L255.439 361.589L256.282 362.603L256.823 362.153L257.363 361.703L258.229 362.743L259.095 363.784L259.608 363.356L260.122 362.929L260.965 363.943L261.808 364.956L262.322 364.529L262.835 364.102L263.257 364.609L263.679 365.115L264.192 364.688L264.706 364.261L265.571 365.301L266.437 366.341L266.951 365.914L267.464 365.487L267.886 365.994L268.307 366.5L268.848 366.051L269.389 365.601L269.81 366.108L270.232 366.615L273.854 363.601L277.475 360.588L277.897 361.094L278.319 361.601L281.94 358.588L285.562 355.574L285.984 356.081L286.405 356.588L290.568 353.124L294.73 349.661L295.174 350.195L295.618 350.728L298.726 348.142L301.834 345.556L302.256 346.063L302.677 346.569L305.272 344.41L307.867 342.251L308.288 342.758L308.71 343.265L311.818 340.679L314.926 338.093L315.348 338.599L315.77 339.106L318.905 336.498L322.04 333.889L322.462 334.396L322.884 334.902L325.992 332.316L329.1 329.73L329.544 330.264L329.988 330.797L333.609 327.784L337.231 324.77L337.653 325.277L338.074 325.784L341.723 322.748L345.372 319.712L345.794 320.218L346.215 320.725L346.729 320.298L347.242 319.871L348.53 321.418L349.817 322.965L350.33 322.538L350.844 322.11L352.975 324.671L355.105 327.232L355.619 326.804L356.132 326.377L357.819 328.404L359.506 330.432L360.017 330.006L360.529 329.58L360.977 330.087L361.426 330.595L363.018 329.293L364.611 327.992L364.167 327.458L363.722 326.923L364.236 326.496L364.749 326.069L363.906 325.055L363.062 324.042L363.576 323.614L364.089 323.187L362.802 321.64L361.515 320.093L362.028 319.665L362.542 319.238L361.699 318.225L360.855 317.211L361.396 316.761L361.936 316.311L360.649 314.764L359.362 313.217L359.875 312.79L360.389 312.363L359.124 310.842L357.859 309.322L358.372 308.895L358.886 308.467L357.598 306.92L356.311 305.373L356.825 304.946L357.338 304.519L356.073 302.998L354.808 301.478L355.321 301.05L355.835 300.623L354.548 299.076L353.26 297.529L353.801 297.079L354.341 296.629L353.498 295.616L352.655 294.602L353.168 294.175L353.682 293.748L352.394 292.201L351.107 290.653L351.621 290.226L352.134 289.799L350.847 288.252L349.56 286.705L350.073 286.277L350.587 285.85L348.012 282.756L345.437 279.662L344.41 280.516ZM342.887 281.874L342.401 282.279L344.11 284.333L345.819 286.387L345.278 286.836L344.738 287.286L346.025 288.833L347.312 290.38L346.799 290.808L346.285 291.235L347.106 292.222L347.928 293.209L348.441 292.782L348.955 292.354L348.533 291.847L348.111 291.341L348.625 290.913L349.138 290.486L347.851 288.939L346.564 287.392L347.077 286.965L347.591 286.537L345.482 284.003L343.374 281.469L342.887 281.874ZM347.431 293.712L346.945 294.117L347.788 295.13L348.632 296.144L349.118 295.739L349.605 295.334L348.761 294.321L347.918 293.307L347.431 293.712ZM348.091 296.594L347.605 296.999L348.048 297.532L348.492 298.065L347.438 298.943L346.384 299.82L345.94 299.286L345.496 298.753L344.956 299.202L344.415 299.652L343.994 299.145L343.572 298.639L343.058 299.066L342.545 299.493L339.571 295.919L336.597 292.345L335.57 293.199L334.543 294.054L334.121 293.547L333.699 293.04L333.186 293.467L332.672 293.895L330.098 290.8L327.523 287.706L328.037 287.279L328.55 286.852L328.106 286.318L327.662 285.785L328.689 284.93L329.716 284.076L329.317 283.596L328.917 283.115L328.404 283.543L327.89 283.97L327.469 283.463L327.047 282.956L326.02 283.811L324.993 284.665L323.706 283.118L322.418 281.571L321.878 282.021L321.337 282.471L320.916 281.964L320.494 281.457L319.98 281.885L319.467 282.312L315.205 277.19L310.944 272.069L310.458 272.474L309.971 272.879L310.393 273.385L310.814 273.892L310.301 274.32L309.787 274.747L312.34 277.814L314.892 280.882L314.352 281.332L313.811 281.781L317.207 285.862L320.603 289.944L321.143 289.494L321.684 289.044L322.105 289.551L322.527 290.058L323.041 289.63L323.554 289.203L324.442 290.27L325.33 291.337L324.816 291.764L324.303 292.192L325.546 293.685L326.789 295.179L327.302 294.752L327.816 294.324L329.525 296.378L331.234 298.432L331.747 298.005L332.261 297.578L333.126 298.618L333.992 299.658L333.478 300.086L332.965 300.513L333.386 301.02L333.808 301.526L334.322 301.099L334.835 300.672L338.231 304.753L341.627 308.834L342.14 308.407L342.654 307.979L343.941 309.527L345.228 311.074L345.742 310.646L346.255 310.219L347.964 312.273L349.673 314.327L350.214 313.877L350.754 313.427L351.176 313.934L351.598 314.441L352.598 313.609L353.598 312.777L353.176 312.27L352.754 311.763L353.268 311.336L353.781 310.909L353.36 310.402L352.938 309.895L353.479 309.445L354.019 308.995L353.598 308.489L353.176 307.982L351.635 309.264L350.095 310.546L350.516 311.052L350.938 311.559L350.398 312.009L349.857 312.459L347.305 309.391L344.752 306.324L344.239 306.751L343.725 307.178L343.281 306.645L342.837 306.111L343.891 305.234L344.946 304.357L345.367 304.864L345.789 305.371L346.789 304.539L347.789 303.707L346.946 302.693L346.102 301.679L347.183 300.78L348.264 299.88L349.13 300.921L349.996 301.961L349.455 302.411L348.914 302.86L349.78 303.901L350.646 304.941L350.132 305.368L349.619 305.796L350.44 306.782L351.261 307.769L351.774 307.342L352.288 306.915L351.866 306.408L351.445 305.901L351.958 305.474L352.472 305.047L351.628 304.033L350.785 303.019L351.298 302.592L351.812 302.165L350.946 301.125L350.081 300.084L350.594 299.657L351.108 299.23L349.843 297.709L348.578 296.189L348.091 296.594ZM301.526 246.952L299.985 248.234L300.407 248.741L300.829 249.248L300.315 249.675L299.802 250.102L300.645 251.116L301.488 252.13L302.488 251.298L303.489 250.466L303.067 249.959L302.645 249.452L303.699 248.575L304.753 247.698L303.91 246.684L303.066 245.671L301.526 246.952ZM300.992 252.633L300.506 253.038L300.905 253.518L301.305 253.998L301.791 253.593L302.278 253.188L301.878 252.708L301.479 252.228L300.992 252.633Z" fill="#DCDCDC"/>
<path fill-rule="evenodd" clip-rule="evenodd" d="M172.365 222.362V227.108H175.468H178.571V227.626V228.144H179.596H180.621V228.663V229.181H181.134H181.646V230.218V231.254H181.134H180.621V235.973V240.692H180.109H179.596V242.247V243.802H179.083H178.571V245.384V246.966H178.058H177.545V249.066V251.167H179.11H180.675V250.649V250.13H181.188H181.7V249.612V249.094H182.213H182.726V248.575V248.057H183.265H183.805V246.993V245.93H184.317H184.83V244.893V243.856H185.343H185.855V242.82V241.783H186.368H186.881V240.719V239.656H187.393H187.906V238.101V236.546H188.931H189.956V237.064V237.583H190.469H190.982V238.101V238.619H191.494H192.007V241.729V244.838H191.494H190.982V249.066V253.295H192.034H193.086V253.786V254.277H191.521H189.956V254.795V255.313H189.444H188.931V255.859V256.404H188.419H187.906V257.441V258.477H187.366H186.827V262.16V265.842H187.366H187.906V267.915V269.988H187.366H186.827V273.671V277.353H187.366H187.906V278.39V279.427H187.366H186.827V279.945V280.463H185.801H184.776V280.981V281.5H184.264H183.751V282.045V282.591H183.238H182.726V283.109V283.627H182.186H181.646V284.146V284.664H181.134H180.621V285.182V285.7H180.109H179.596V286.764V287.828H179.083H178.571V288.865V289.901H178.058H177.545V291.483V293.065H177.006H176.466V294.62V296.175H175.954H175.441V297.757V299.339H174.928H174.416V302.476V305.613H173.903H173.39V320.289V334.964H173.903H174.416V338.647V342.329H174.928H175.441V344.948V347.566H175.954H176.466V349.121V350.676H177.006H177.545V351.194V351.713H177.006H176.466V355.395V359.078H177.006H177.545V359.596V360.114H179.596H181.646V360.632V361.151H200.856H220.066V360.632V360.114H220.579H221.092V359.596V359.078H221.604H222.117V355.395V351.713H221.604H221.092V351.194V350.676H221.604H222.117V349.639V348.603H222.63H223.142V345.984V343.366H223.655H224.167V340.229V337.092H224.707H225.247V318.734V300.376H224.707H224.167V298.275V296.175H223.655H223.142V294.62V293.065H222.63H222.117V290.965V288.865H221.604H221.092V286.246V283.627H220.579H220.066V281.527V279.427H219.527H218.987V277.326V275.226H218.475H217.962V273.671V272.116H217.449H216.937V271.052V269.988H216.424H215.911V268.434V266.879H215.399H214.886V265.815V264.751H214.347H213.807V263.715V262.678H213.294H212.782V261.614V260.55H212.269H211.757V259.514V258.477H211.244H210.731V257.441V256.404H210.219H209.706V255.859V255.313H209.166H208.627V254.795V254.277H208.114H207.602V253.786V253.295H208.654H209.706V252.231V251.167H209.166H208.627V250.649V250.13H209.166H209.706V247.484V244.838H209.166H208.627V241.183V237.528H208.114H207.602V235.973V234.418H208.114H208.627V232.318V230.218H209.166H209.706V229.181V228.144H210.219H210.731V227.626V227.108H211.244H211.757V226.59V226.071H212.269H212.782V225.526V224.98H213.294H213.807V223.398V221.816H213.294H212.782V221.298V220.779H211.244H209.706V220.261V219.743H208.654H207.602V219.197V218.652H203.474H199.346V218.134V217.615H185.855H172.365V222.362Z" fill="#DCDCDC"/>
<path fill-rule="evenodd" clip-rule="evenodd" d="M91.2194 177.398L91.4471 177.955L88.573 179.131L85.6988 180.306L86.1542 181.42L86.6096 182.533L86.0407 182.765L85.4719 182.998L86.1669 184.697L86.862 186.396L86.2632 186.641L85.6644 186.886L85.8921 187.443L86.1198 187.999L85.5509 188.232L84.9821 188.465L85.2098 189.021L85.4375 189.578L84.8686 189.81L84.2998 190.043L84.5395 190.629L84.7791 191.215L84.2103 191.448L83.6415 191.68L84.0968 192.793L84.5522 193.907L83.9834 194.139L83.4145 194.372L87.5608 204.507L91.7071 214.643L92.276 214.41L92.8448 214.177L93.7675 216.433L94.6903 218.688L95.2591 218.456L95.828 218.223L96.2833 219.336L96.7387 220.449L93.8945 221.613L91.0503 222.776L90.8226 222.22L90.5949 221.663L88.8285 222.386L87.0621 223.108L87.2898 223.665L87.5175 224.221L86.3798 224.687L85.2421 225.152L85.4698 225.709L85.6975 226.265L84.5598 226.731L83.4221 227.196L83.6498 227.753L83.8775 228.309L82.7099 228.787L81.5423 229.265L81.7699 229.821L81.9976 230.378L81.4288 230.611L80.86 230.843L81.0996 231.429L81.3393 232.015L80.2016 232.48L79.0639 232.946L79.2916 233.502L79.5193 234.059L78.3517 234.537L77.1841 235.014L77.4117 235.571L77.6394 236.127L77.0706 236.36L76.5017 236.593L76.7294 237.149L76.9571 237.706L75.8194 238.171L74.6818 238.637L74.9094 239.193L75.1371 239.75L73.9695 240.228L72.8019 240.705L73.0416 241.291L73.2812 241.877L72.1435 242.342L71.0059 242.808L71.2336 243.364L71.4612 243.921L70.8924 244.154L70.3236 244.386L70.5512 244.943L70.7789 245.499L67.306 246.92L63.8331 248.341L64.0608 248.898L64.2885 249.454L59.7377 251.316L55.187 253.177L53.3535 248.696L51.52 244.214L52.0889 243.981L52.6577 243.748L47.8164 231.914L42.975 220.08L42.4062 220.313L41.8373 220.545L41.6216 220.018L41.4059 219.491L41.9748 219.258L42.5436 219.025L41.8486 217.326L41.1535 215.627L41.7224 215.395L42.2912 215.162L41.5962 213.463L40.9011 211.764L40.3323 211.997L39.7634 212.229L39.3081 211.116L38.8527 210.003L37.6851 210.481L36.5175 210.958L38.3509 215.44L40.1844 219.922L39.5856 220.167L38.9869 220.412L39.6819 222.111L40.3769 223.81L39.838 224.03L39.2991 224.251L38.1607 221.468L37.0223 218.685L37.5911 218.453L38.1599 218.22L36.5422 214.265L34.9244 210.311L36.092 209.833L37.2596 209.355L37.032 208.799L36.8043 208.242L37.3432 208.022L37.8821 207.801L38.1098 208.358L38.3374 208.914L38.9362 208.67L39.535 208.425L39.0676 207.282L38.6003 206.14L36.8638 206.85L35.1274 207.56L35.3551 208.117L35.5827 208.674L35.0139 208.906L34.4451 209.139L34.2174 208.582L33.9897 208.026L31.1155 209.202L28.2414 210.377L28.0137 209.821L27.786 209.264L23.7442 210.918L19.7025 212.571L20.3855 214.241L21.0686 215.911L20.4998 216.143L19.9309 216.376L22.2318 222L24.5326 227.625L23.9638 227.857L23.3949 228.09L24.3176 230.345L25.2404 232.601L24.6416 232.846L24.0428 233.091L25.1932 235.903L26.3437 238.715L25.7748 238.948L25.206 239.181L26.1287 241.436L27.0514 243.692L26.4826 243.924L25.9138 244.157L30.2877 254.849L34.6617 265.541L34.0929 265.774L33.524 266.006L38.8088 278.924L44.0935 291.843L43.5247 292.075L42.9558 292.308L49.415 308.097L55.8741 323.886L56.4429 323.653L57.0118 323.42L61.1461 333.526L65.2804 343.632L65.8492 343.4L66.4181 343.167L68.4912 348.235L70.5644 353.302L71.1332 353.069L71.7021 352.837L72.3971 354.536L73.0921 356.235L73.661 356.002L74.2298 355.769L74.6852 356.882L75.1406 357.996L75.7394 357.751L76.3381 357.506L76.5658 358.062L76.7935 358.619L77.3623 358.386L77.9312 358.153L78.1709 358.739L78.4105 359.325L78.9794 359.092L79.5482 358.86L79.7759 359.416L80.0036 359.973L81.74 359.262L83.4765 358.552L83.7042 359.109L83.9319 359.665L85.0696 359.2L86.2072 358.734L86.4349 359.291L86.6626 359.847L88.3991 359.137L90.1355 358.427L89.9079 357.87L89.6802 357.314L90.8478 356.836L92.0154 356.358L91.7877 355.802L91.56 355.245L97.3083 352.894L103.057 350.542L102.829 349.986L102.601 349.429L110.634 346.126L118.667 342.822L118.45 342.244L118.233 341.666L121.105 340.491L123.977 339.316L123.75 338.76L123.522 338.203L126.396 337.027L129.27 335.851L129.043 335.295L128.815 334.738L135.132 332.154L141.449 329.57L141.222 329.013L140.994 328.457L143.299 327.513L145.604 326.57L145.377 326.014L145.149 325.457L148.592 324.049L152.035 322.64L151.795 322.054L151.556 321.469L153.861 320.525L156.166 319.582L155.939 319.026L155.711 318.469L160.86 316.363L166.01 314.256L165.782 313.699L165.555 313.143L166.722 312.665L167.89 312.187L167.662 311.631L167.434 311.074L168.003 310.842L168.572 310.609L168.344 310.052L168.117 309.496L168.686 309.263L169.254 309.03L169.015 308.445L168.775 307.859L168.206 308.091L167.637 308.324L165.804 303.842L163.97 299.361L164.539 299.128L165.108 298.895L164.401 297.167L163.694 295.439L163.125 295.671L162.556 295.904L162.341 295.377L162.125 294.849L163.263 294.384L164.4 293.919L164.173 293.362L163.945 292.805L164.544 292.56L165.143 292.316L163.525 288.361L161.907 284.406L162.476 284.174L163.045 283.941L161.894 281.129L160.744 278.317L161.313 278.084L161.882 277.851L160.731 275.039L159.581 272.227L160.149 271.995L160.718 271.762L162.345 275.696C163.24 277.859 161.061 272.511 157.502 263.811C153.943 255.111 151.657 249.544 152.423 251.441L153.815 254.889L153.247 255.122L152.678 255.355L151.528 252.542L150.377 249.73L149.808 249.963L149.24 250.196L148.545 248.497L147.85 246.798L147.282 247.03L146.714 247.262L146.009 245.585L145.304 243.907L144.713 244.129L144.122 244.351L143.668 243.24L143.213 242.129L142.645 242.362L142.076 242.594L141.381 240.895L140.686 239.196L140.117 239.429L139.548 239.662L138.637 237.435L137.727 235.209L137.158 235.442L136.589 235.675L135.894 233.976L135.199 232.277L134.63 232.509L134.061 232.742L133.138 230.487L132.216 228.231L131.617 228.476L131.018 228.721L130.095 226.465L129.173 224.21L128.604 224.443L128.035 224.675L127.124 222.449L126.213 220.223L125.645 220.455L125.076 220.688L124.381 218.989L123.686 217.29L123.117 217.523L122.548 217.756L121.625 215.5L120.702 213.244L120.134 213.477L119.566 213.709L118.634 211.475L117.701 209.24L117.111 209.462L116.52 209.685L115.61 207.46L114.7 205.236L114.131 205.469L113.563 205.702L113.095 204.559L112.628 203.417L112.059 203.65L111.49 203.882L109.884 199.957L108.279 196.032L107.71 196.264L107.141 196.497L105.763 193.128L104.385 189.76L103.816 189.993L103.247 190.225L101.174 185.158L99.1007 180.09L98.502 180.335L97.9032 180.58L97.2081 178.881L96.5131 177.182L95.9443 177.415L95.3754 177.647L94.92 176.534L94.4647 175.421L92.7282 176.131L90.9917 176.842L91.2194 177.398ZM39.3208 214.394L39.5365 214.921L40.0754 214.701L40.6143 214.48L40.3986 213.953L40.1829 213.426L39.644 213.646L39.1051 213.866L39.3208 214.394ZM36.2807 226.783L37.1906 229.007L37.7813 228.785L38.3719 228.563L38.6227 229.127L38.8735 229.691L38.2726 229.937L37.6717 230.183L39.732 235.219L41.7923 240.255L42.3829 240.033L42.9736 239.811L44.5914 243.766L46.2092 247.72L45.0415 248.198L43.8739 248.675L43.169 246.998L42.464 245.32L41.9261 245.54L41.3881 245.76L42.3108 248.016L43.2335 250.271L42.6647 250.504L42.0959 250.736L42.3116 251.264L42.5273 251.791L43.0961 251.558L43.6649 251.326L44.5997 253.61L45.5344 255.895L44.9356 256.14L44.3368 256.385L43.8695 255.243L43.4021 254.1L42.8632 254.321L42.3243 254.541L43.247 256.797L44.1698 259.052L43.0021 259.53L41.8345 260.008L42.0622 260.564L42.2899 261.121L42.8587 260.888L43.4276 260.655L43.6672 261.241L43.9069 261.827L43.3381 262.06L42.7692 262.293L44.1473 265.661L45.5254 269.03L44.9566 269.263L44.3878 269.495L46.2212 273.977L48.0547 278.459L47.4859 278.692L46.917 278.924L47.3724 280.037L47.8278 281.151L48.3966 280.918L48.9655 280.685L49.9002 282.97L50.8349 285.255L50.2661 285.488L49.6972 285.72L49.9249 286.277L50.1526 286.833L49.5837 287.066L49.0149 287.299L49.2306 287.826L49.4463 288.353L50.0151 288.121L50.584 287.888L51.0513 289.03L51.5187 290.173L52.0576 289.952L52.5965 289.732L52.1292 288.589L51.6618 287.447L52.2306 287.214L52.7995 286.982L52.1164 285.312L51.4334 283.642L52.0321 283.397L52.6309 283.152L51.9359 281.453L51.2408 279.754L51.8097 279.522L52.3785 279.289L51.9231 278.176L51.4678 277.063L52.0366 276.83L52.6054 276.597L51.6827 274.342L50.76 272.086L51.3288 271.853L51.8977 271.621L51.4303 270.478L50.9629 269.336L52.1306 268.858L53.2982 268.381L53.0825 267.853L52.8668 267.326L52.2673 267.571L51.6678 267.816L50.7547 265.54L49.8417 263.263L50.4187 263.008L50.9956 262.752L50.5411 261.641L50.0866 260.53L50.6554 260.297L51.2243 260.065L49.3788 255.554L47.5334 251.042L48.1022 250.81L48.671 250.577L48.2157 249.464L47.7603 248.351L48.3291 248.118L48.898 247.885L48.6823 247.358L48.4666 246.831L47.8977 247.064L47.3289 247.296L47.0892 246.71L46.8495 246.125L47.4184 245.892L47.9872 245.659L47.5199 244.517L47.0525 243.374L47.6214 243.142L48.1902 242.909L47.5071 241.239L46.8241 239.569L46.2552 239.802L45.6864 240.035L44.9914 238.336L44.2963 236.637L44.8651 236.404L45.434 236.171L44.2956 233.389L43.1571 230.606L42.5883 230.839L42.0194 231.071L41.7917 230.515L41.5641 229.958L40.9952 230.191L40.4264 230.424L39.7313 228.725L39.0363 227.026L38.4674 227.258L37.8986 227.491L37.2036 225.792L36.5085 224.093L35.9397 224.326L35.3708 224.558L36.2807 226.783ZM42.4972 225.576L42.9406 226.659L43.5095 226.427L44.0783 226.194L43.6349 225.11L43.1915 224.026L42.6227 224.259L42.0538 224.492L42.4972 225.576ZM111.481 213.769L111.708 214.325L112.277 214.092L112.846 213.86L112.618 213.303L112.391 212.747L111.822 212.979L111.253 213.212L111.481 213.769ZM40.7185 250.616L40.9342 251.143L41.4731 250.923L42.012 250.702L41.7963 250.175L41.5806 249.648L41.0417 249.868L40.5028 250.089L40.7185 250.616ZM40.6841 257.196L40.8998 257.723L41.4686 257.49L42.0375 257.257L41.8218 256.73L41.6061 256.203L41.0372 256.436L40.4684 256.668L40.6841 257.196ZM103.941 237.883L104.156 238.41L104.695 238.19L105.234 237.969L105.019 237.442L104.803 236.915L104.264 237.135L103.725 237.356L103.941 237.883ZM49.4445 308.085C53.0036 316.785 54.47 320.35 52.7033 316.007C50.9366 311.664 48.0246 304.546 46.2322 300.189C44.4399 295.832 45.8854 299.385 49.4445 308.085ZM51.3038 292.894L51.7471 293.978L52.286 293.757L52.8249 293.537L52.3816 292.453L51.9382 291.369L51.3993 291.589L50.8604 291.81L51.3038 292.894ZM53.1245 294.098L53.3402 294.625L53.8791 294.405L54.418 294.184L54.2023 293.657L53.9866 293.13L53.4477 293.35L52.9088 293.571L53.1245 294.098ZM64.6159 318.942L65.0713 320.055L65.6102 319.834L66.1491 319.614L65.6938 318.501L65.2384 317.388L64.6995 317.608L64.1606 317.828L64.6159 318.942Z" fill="#DCDCDC"/>
<path fill-rule="evenodd" clip-rule="evenodd" d="M218.75 106.72L218.946 107.272L219.505 107.073L220.064 106.874L220.872 109.141L221.68 111.408L221.121 111.607L220.562 111.806L220.945 112.881L221.329 113.957L221.888 113.757L222.447 113.558L222.851 114.692L223.255 115.825L223.813 115.626L224.372 115.427L224.963 117.083L225.553 118.74L226.112 118.54L226.671 118.341L227.085 119.504L227.5 120.666L225.823 121.264L224.146 121.861L224.529 122.937L224.913 124.012L225.472 123.813L226.03 123.614L226.434 124.747L226.838 125.88L227.397 125.681L227.956 125.482L228.153 126.034L228.35 126.586L228.909 126.387L229.468 126.188L229.664 126.74L229.861 127.292L230.45 127.083L231.038 126.873L231.235 127.425L231.432 127.977L231.99 127.778L232.549 127.579L232.746 128.131L232.943 128.683L233.502 128.484L234.061 128.285L234.268 128.866L234.475 129.447L235.034 129.248L235.593 129.049L235.79 129.601L235.987 130.153L236.545 129.954L237.104 129.755L237.498 130.859L237.892 131.964L238.48 131.754L239.068 131.544L239.265 132.096L239.462 132.649L240.021 132.449L240.58 132.25L240.984 133.384L241.388 134.517L241.947 134.318L242.505 134.119L242.899 135.223L243.293 136.327L243.852 136.128L244.41 135.929L244.814 137.062L245.218 138.196L245.777 137.997L246.336 137.797L246.73 138.902L247.123 140.006L247.712 139.796L248.3 139.587L248.901 141.272L249.502 142.958L250.061 142.759L250.619 142.56L253.603 150.929L256.586 159.299L256.027 159.499L255.468 159.698L255.872 160.831L256.276 161.965L255.687 162.174L255.099 162.384L265.633 191.94L276.167 221.496L276.756 221.287L277.344 221.077L280.731 230.58L284.118 240.083L283.53 240.293L282.942 240.503L283.739 242.741L284.537 244.978L283.978 245.178L283.419 245.377L284.206 247.585L284.993 249.794L284.434 249.993L283.875 250.193L284.476 251.878L285.077 253.564L284.518 253.763L283.959 253.962L284.353 255.067L284.746 256.171L284.187 256.37L283.629 256.569L283.836 257.151L284.043 257.732L283.455 257.942L282.866 258.151L283.063 258.703L283.26 259.256L278.73 260.87L274.199 262.485L274.003 261.933L273.806 261.38L272.688 261.779L271.57 262.177L271.363 261.596L271.156 261.015L270.009 261.424L268.861 261.833L268.665 261.28L268.468 260.728L267.938 260.917L267.409 261.106L267.813 262.239L268.217 263.372L267.658 263.572L267.099 263.771L267.492 264.875L267.886 265.98L261.65 268.202L255.413 270.425L255.217 269.873L255.02 269.321L254.431 269.53L253.843 269.74L253.646 269.188L253.45 268.636L252.891 268.835L252.332 269.034L252.125 268.453L251.917 267.872L251.388 268.06L250.858 268.249L251.066 268.83L251.273 269.411L246.154 271.236L241.036 273.06L240.829 272.479L240.621 271.898L240.063 272.097L239.504 272.296L239.307 271.744L239.11 271.192L238.551 271.391L237.992 271.59L237.402 269.933L236.811 268.277L236.252 268.476L235.694 268.675L234.098 264.2L232.503 259.724L231.915 259.934L231.327 260.144L227.939 250.64L224.552 241.137L225.141 240.927L225.729 240.718L225.325 239.584L224.921 238.451L225.48 238.252L226.039 238.052L216.095 210.153L206.152 182.253L206.71 182.054L207.269 181.855L207.083 181.332L206.896 180.809L206.338 181.008L205.779 181.207L205.178 179.521L204.577 177.836L204.018 178.035L203.459 178.234L200.476 169.864L197.493 161.494L198.052 161.295L198.611 161.096L198.01 159.41L197.409 157.725L197.968 157.526L198.527 157.326L198.33 156.774L198.134 156.222L198.693 156.023L199.251 155.824L198.651 154.138L198.05 152.452L198.609 152.253L199.168 152.054L198.774 150.95L198.381 149.845L198.969 149.636L199.557 149.426L199.153 148.292L198.749 147.159L199.308 146.96L199.867 146.761L199.67 146.208L199.473 145.656L200.032 145.457L200.591 145.258L200.395 144.706L200.198 144.154L200.757 143.954L201.316 143.755L200.922 142.651L200.528 141.546L201.087 141.347L201.646 141.148L201.439 140.567L201.232 139.985L201.82 139.776L202.409 139.566L202.212 139.014L202.015 138.462L202.574 138.263L203.133 138.063L202.936 137.511L202.739 136.959L203.298 136.76L203.857 136.561L203.66 136.008L203.463 135.456L204.022 135.257L204.581 135.058L204.384 134.506L204.188 133.953L205.335 133.545L206.482 133.136L205.695 130.927L204.908 128.718L203.76 129.127L202.613 129.536L202.002 127.821L201.391 126.107L201.95 125.907L202.509 125.708L202.115 124.604L201.722 123.5L202.31 123.29L202.898 123.08L202.494 121.947L202.09 120.813L202.649 120.614L203.208 120.415L203.022 119.892L202.835 119.369L202.276 119.568L201.717 119.767L200.909 117.5L200.102 115.233L200.66 115.034L201.219 114.835L200.826 113.731L200.432 112.626L209.492 109.397L218.553 106.168L218.75 106.72ZM215.762 155.638L216.363 157.324L216.922 157.125L217.481 156.925L218.071 158.582L218.661 160.238L217.544 160.637L216.426 161.035L216.219 160.454L216.011 159.873L215.453 160.072L214.894 160.271L214.314 158.644L213.734 157.016L214.292 156.817L214.851 156.618L214.447 155.484L214.043 154.351L214.602 154.152L215.161 153.953L215.762 155.638ZM243.916 163.193L244.113 163.745L241.877 164.542L239.642 165.338L239.445 164.786L239.248 164.234L241.484 163.437L243.719 162.64L243.916 163.193ZM234.132 167.924L234.329 168.477L233.799 168.665L233.27 168.854L233.073 168.302L232.876 167.75L233.405 167.561L233.935 167.372L234.132 167.924ZM245.585 217.919L245.771 218.442L245.242 218.631L244.712 218.82L244.526 218.296L244.339 217.773L244.869 217.585L245.398 217.396L245.585 217.919ZM248.815 219.912L249.208 221.016L248.679 221.205L248.149 221.394L247.953 220.842L247.756 220.29L247.197 220.489L246.638 220.688L246.441 220.136L246.244 219.584L247.333 219.196L248.421 218.808L248.815 219.912ZM246.786 221.29L246.973 221.813L246.443 222.002L245.914 222.191L245.727 221.668L245.541 221.144L246.07 220.956L246.6 220.767L246.786 221.29ZM253.626 222.619L253.822 223.171L253.263 223.371L252.705 223.57L253.098 224.674L253.492 225.779L246.726 228.19L239.96 230.601L239.774 230.078L239.587 229.555L240.146 229.356L240.705 229.157L240.498 228.576L240.291 227.994L243.115 226.988L245.939 225.981L245.742 225.429L245.545 224.877L249.487 223.472L253.429 222.067L253.626 222.619ZM255.137 223.325L255.334 223.877L254.804 224.066L254.275 224.255L254.078 223.703L253.881 223.151L254.411 222.962L254.94 222.773L255.137 223.325ZM256.659 224.06L256.845 224.583L256.316 224.772L255.786 224.961L255.6 224.438L255.413 223.915L255.943 223.726L256.472 223.537L256.659 224.06ZM253 231.653L253.186 232.176L252.656 232.365L252.127 232.554L251.941 232.031L251.754 231.508L252.284 231.319L252.813 231.13L253 231.653ZM250.764 232.45L250.95 232.973L250.421 233.162L249.891 233.351L249.705 232.827L249.518 232.304L250.048 232.116L250.577 231.927L250.764 232.45ZM255.698 231.969L255.895 232.521L257.572 231.923L259.248 231.326L259.435 231.849L259.621 232.372L257.386 233.169L255.15 233.966L254.767 232.89L254.383 231.815L254.942 231.616L255.501 231.417L255.698 231.969ZM261.729 231.031L261.916 231.554L261.357 231.753L260.798 231.953L260.611 231.43L260.425 230.906L260.984 230.707L261.543 230.508L261.729 231.031ZM255.761 235.68L255.958 236.232L255.399 236.432L254.84 236.631L254.643 236.079L254.446 235.527L255.005 235.327L255.564 235.128L255.761 235.68ZM253.466 236.498L253.663 237.05L253.134 237.239L252.604 237.428L252.407 236.876L252.211 236.323L252.74 236.135L253.27 235.946L253.466 236.498ZM259.592 239.359L259.789 239.911L259.23 240.11L258.671 240.31L258.868 240.862L259.064 241.414L256.799 242.221L254.534 243.029L254.731 243.581L254.928 244.133L254.398 244.322L253.869 244.51L253.278 242.854L252.688 241.197L253.776 240.809L254.865 240.421L255.062 240.974L255.258 241.526L255.847 241.316L256.435 241.106L256.238 240.554L256.041 240.002L257.718 239.404L259.395 238.807L259.592 239.359ZM261.103 240.065L261.3 240.617L260.771 240.806L260.241 240.995L260.044 240.442L259.847 239.89L260.377 239.702L260.906 239.513L261.103 240.065ZM261.177 243.806L261.363 244.329L260.804 244.528L260.245 244.727L260.846 246.413L261.447 248.098L260.888 248.297L260.329 248.497L259.728 246.811L259.127 245.125L258.568 245.325L258.01 245.524L257.823 245.001L257.637 244.478L259.313 243.88L260.99 243.282L261.177 243.806ZM254.421 246.246L254.618 246.798L255.177 246.599L255.736 246.4L255.933 246.952L256.129 247.504L256.688 247.305L257.247 247.106L257.641 248.21L258.034 249.314L256.946 249.702L255.858 250.09L255.661 249.538L255.464 248.986L254.876 249.196L254.287 249.405L254.09 248.853L253.894 248.301L253.335 248.5L252.776 248.699L252.382 247.595L251.989 246.491L253.106 246.092L254.224 245.694L254.421 246.246ZM252.2 250.804L252.386 251.327L251.857 251.516L251.327 251.705L251.141 251.182L250.954 250.659L251.484 250.47L252.013 250.281L252.2 250.804ZM279.469 248.619L279.655 249.142L279.096 249.341L278.537 249.54L278.351 249.017L278.164 248.494L278.723 248.295L279.282 248.096L279.469 248.619ZM277.455 253.758L277.859 254.892L278.418 254.693L278.977 254.493L279.163 255.017L279.349 255.54L278.791 255.739L278.232 255.938L278.636 257.071L279.04 258.205L278.51 258.394L277.981 258.582L277.38 256.897L276.779 255.211L275.632 255.62L274.485 256.029L274.298 255.506L274.112 254.983L274.671 254.784L275.229 254.584L275.022 254.003L274.815 253.422L275.933 253.023L277.051 252.625L277.455 253.758ZM265.631 259.839L265.818 260.362L264.7 260.761L263.582 261.159L263.396 260.636L263.209 260.113L264.327 259.715L265.445 259.316L265.631 259.839Z" fill="#DCDCDC"/>
</g>
<defs>
<clipPath id="clip0_895_7383">
<rect width="387.202" height="387.202" fill="white" transform="translate(0 0.563477)"/>
</clipPath>
</defs>
</svg>
