<svg width="321" height="321" viewBox="0 0 321 321" fill="none" xmlns="http://www.w3.org/2000/svg">
<g clip-path="url(#clip0_863_4602)">
<rect width="320.167" height="320.167" transform="translate(0 0.194336)" fill="#FFFF00"/>
<path d="M24.7254 25.6175H19.9902V24.1673H20.6117C21.9139 24.1673 23.0188 23.8319 23.9264 23.1611C24.8537 22.4705 25.3963 21.5728 25.5541 20.4679H27.5074V41.1846H24.7254V25.6175ZM41.2602 41.6877C40.3723 41.8455 39.4549 41.8455 38.5078 41.6877C38.0737 41.6285 37.472 41.3917 36.7025 40.9774C35.8936 40.5433 35.2227 39.9613 34.69 39.2313C34.1573 38.5013 33.6838 37.4358 33.2694 36.035C32.8551 34.5552 32.6479 32.819 32.6479 30.8262C32.6479 28.8138 32.8551 27.0874 33.2694 25.6471C33.7232 24.1476 34.2066 23.0526 34.7196 22.362C35.2129 21.7109 35.8344 21.1683 36.5841 20.7343C37.3536 20.3002 37.9948 20.0437 38.5078 19.9648C39.4549 19.8069 40.3723 19.8069 41.2602 19.9648C41.714 20.024 42.3256 20.2607 43.0951 20.6751C43.9237 21.1091 44.5946 21.6912 45.1075 22.4212C45.6403 23.1512 46.1039 24.2265 46.4985 25.6471C46.9326 27.0676 47.1496 28.794 47.1496 30.8262C47.1496 32.8584 46.9326 34.5947 46.4985 36.035C46.0645 37.5148 45.5811 38.5999 45.0484 39.2905C44.5156 40.0008 43.8645 40.5631 43.0951 40.9774C42.3256 41.3917 41.714 41.6285 41.2602 41.6877ZM36.4657 37.0708C37.2155 38.669 38.3598 39.468 39.8988 39.468C41.4575 39.468 42.5919 38.669 43.3022 37.0708C44.0323 35.4924 44.3973 33.4109 44.3973 30.8262C44.3973 28.2416 44.0323 26.1601 43.3022 24.5816C42.5919 22.9835 41.4575 22.1844 39.8988 22.1844C38.3598 22.1844 37.2155 22.9835 36.4657 24.5816C35.7554 26.1798 35.4003 28.2613 35.4003 30.8262C35.4003 33.3912 35.7554 35.4727 36.4657 37.0708ZM67.5548 34.1705H60.1264V41.1846H57.5221V26.1502H60.1264V32.3356H67.5548V26.1502H70.1592V41.1846H67.5548V34.1705ZM85.2613 36.8341H87.7473C87.5106 38.156 86.8694 39.3102 85.8237 40.2967C84.778 41.2832 83.2291 41.7765 81.1772 41.7765C78.3952 41.7765 76.3532 40.859 75.051 39.0241C74.3999 38.0573 73.9757 37.0215 73.7784 35.9166C73.6403 35.1471 73.5712 34.4171 73.5712 33.7266C73.5712 32.4046 73.7685 31.1616 74.1631 29.9976C74.4196 29.1689 74.7945 28.4488 75.2877 27.8371C75.8205 27.186 76.5801 26.6434 77.5666 26.2094C78.5531 25.7753 79.6678 25.5583 80.9108 25.5583C83.1206 25.5583 84.7878 26.1699 85.9124 27.3932C86.386 27.9062 86.7707 28.5573 87.0667 29.3465C87.5007 30.4908 87.7671 31.8818 87.8657 33.5194C87.8657 33.5786 87.8657 33.7068 87.8657 33.9041C87.8855 34.1014 87.8953 34.2198 87.8953 34.2593H76.3236C76.3236 35.7588 76.7182 37.0807 77.5074 38.225C78.2966 39.3694 79.4903 39.9416 81.0884 39.9416C82.2328 39.9416 83.1699 39.6555 83.9 39.0833C84.63 38.5111 85.0838 37.7614 85.2613 36.8341ZM76.3236 32.4244H85.143C85.1232 31.2603 84.847 30.185 84.3143 29.1985C83.7027 27.995 82.5879 27.3932 80.97 27.3932C79.1351 27.3932 77.8724 28.0048 77.1818 29.2281C76.6097 30.2146 76.3236 31.28 76.3236 32.4244ZM90.8345 36.6269C90.3215 34.5158 90.3412 32.4737 90.8937 30.5007C91.4461 28.5277 92.6102 27.117 94.3859 26.2686C95.3724 25.795 96.5266 25.5583 97.8486 25.5583C99.1705 25.5583 100.325 25.795 101.311 26.2686C103.087 27.0972 104.261 28.577 104.833 30.7079C105.09 31.6944 105.218 32.6907 105.218 33.697C105.238 34.6835 105.119 35.6601 104.863 36.6269C104.626 37.574 104.202 38.4421 103.59 39.2313C102.998 40.0205 102.239 40.642 101.311 41.0958C100.305 41.5496 99.1508 41.7765 97.8486 41.7765C96.5464 41.7765 95.3922 41.5496 94.3859 41.0958C92.6694 40.2671 91.4856 38.7775 90.8345 36.6269ZM93.5869 30.6783C93.3304 31.4675 93.2021 32.454 93.2021 33.6378C93.2021 34.8019 93.3304 35.7982 93.5869 36.6269C93.8433 37.4556 94.1393 38.0771 94.4747 38.4914C95.185 39.2806 95.9939 39.7443 96.9015 39.8824C97.5329 39.981 98.1642 39.981 98.7956 39.8824C99.0718 39.8626 99.4566 39.7245 99.9498 39.468C100.483 39.1918 100.917 38.8465 101.252 38.4322C101.587 38.0179 101.874 37.4161 102.11 36.6269C102.367 35.7982 102.495 34.8019 102.495 33.6378C102.495 32.454 102.367 31.4675 102.11 30.6783C101.834 29.8101 101.528 29.1886 101.193 28.8138C100.877 28.4389 100.483 28.1232 100.009 27.8667C99.5355 27.6102 99.131 27.4524 98.7956 27.3932C98.1642 27.2945 97.5329 27.2945 96.9015 27.3932C96.6253 27.4129 96.2307 27.5609 95.7177 27.8371C94.7115 28.3304 94.0012 29.2774 93.5869 30.6783ZM119.333 19.4913H121.553C121.474 20.9316 120.803 21.8885 119.54 22.362C118.849 22.5988 118.258 22.7566 117.764 22.8355C115.555 23.1117 114.272 23.2992 113.917 23.3978C112.575 23.7727 111.549 24.4534 110.839 25.4399C110.129 26.4067 109.754 27.7977 109.714 29.6128H109.774C110.721 27.0676 112.664 25.795 115.604 25.795C117.991 25.795 119.777 26.5843 120.961 28.1627C122.164 29.7213 122.766 31.6352 122.766 33.9041C122.766 36.0745 122.144 37.9291 120.901 39.468C119.658 41.007 117.814 41.7765 115.367 41.7765C112.664 41.7765 110.661 40.7505 109.359 38.6986C108.708 37.574 108.264 36.3112 108.027 34.9104C107.87 33.8055 107.791 32.7105 107.791 31.6253C107.791 27.8174 108.373 25.1538 109.537 23.6346C110.563 22.3127 111.954 21.4643 113.71 21.0894C115.367 20.7145 116.768 20.4975 117.912 20.4383C118.682 20.3397 119.155 20.024 119.333 19.4913ZM110.543 34.0817C110.543 35.3839 110.839 36.6368 111.431 37.8403C112.121 39.2411 113.414 39.9416 115.308 39.9416C116.807 39.9416 117.962 39.4385 118.771 38.4322C119.599 37.4062 120.014 35.9955 120.014 34.2001C120.014 32.7203 119.757 31.3491 119.244 30.0864C118.593 28.4488 117.281 27.63 115.308 27.63C113.335 27.63 112.003 28.429 111.313 30.0272C110.8 31.2504 110.543 32.602 110.543 34.0817ZM126.163 41.1846V26.1502H128.768V32.0988H132.556C133.759 32.0988 134.766 32.2172 135.575 32.454C137.508 32.9472 138.514 34.3579 138.593 36.6861C138.593 38.0672 138.169 39.1622 137.321 39.9712C136.492 40.7801 135.2 41.1846 133.444 41.1846H126.163ZM131.934 33.9337H128.768V39.3497H132.408C134.736 39.3497 135.9 38.4026 135.9 36.5085C135.9 35.5812 135.594 34.9104 134.983 34.496C134.785 34.3382 134.46 34.21 134.006 34.1113C133.533 33.9929 132.842 33.9337 131.934 33.9337ZM140.428 41.1846V26.1502H143.033V41.1846H140.428ZM146.491 31.1814V26.1502H149.096V30.767C149.096 31.576 149.234 32.1778 149.51 32.5724C149.845 33.0064 150.842 33.2235 152.499 33.2235C152.657 33.2235 153.229 33.2037 154.216 33.1643C154.314 33.1445 154.522 33.1347 154.837 33.1347H155.459V26.1502H158.063V41.1846H155.459V34.9696C154.591 35.0288 153.426 35.0584 151.966 35.0584C149.441 35.0584 147.853 34.6638 147.202 33.8745C146.906 33.4799 146.708 33.1051 146.61 32.7499C146.531 32.3948 146.491 31.8719 146.491 31.1814ZM172.352 34.1705H164.924V41.1846H162.319V26.1502H164.924V32.3356H172.352V26.1502H174.956V41.1846H172.352V34.1705ZM179.227 41.1846V26.1502H181.831V32.0988H185.619C186.823 32.0988 187.829 32.2172 188.638 32.454C190.572 32.9472 191.578 34.3579 191.657 36.6861C191.657 38.0672 191.232 39.1622 190.384 39.9712C189.555 40.7801 188.263 41.1846 186.507 41.1846H179.227ZM184.998 33.9337H181.831V39.3497H185.471C187.799 39.3497 188.964 38.4026 188.964 36.5085C188.964 35.5812 188.658 34.9104 188.046 34.496C187.849 34.3382 187.523 34.21 187.069 34.1113C186.596 33.9929 185.905 33.9337 184.998 33.9337ZM193.492 41.1846V26.1502H196.096V41.1846H193.492ZM201.538 26.1502L205.385 31.7141L209.232 26.1502H212.133L206.865 33.3418L212.547 41.1846H209.647L205.385 34.9992L201.123 41.1846H198.223L203.905 33.3418L198.637 26.1502H201.538ZM29.1943 79.6597H26.5899V74.5693C24.8734 74.5298 23.3937 74.2931 22.1507 73.859C20.9274 73.4052 19.9803 72.7936 19.3095 72.0241C18.6387 71.2546 18.1553 70.426 17.8593 69.5381C17.5634 68.6503 17.4154 67.6638 17.4154 66.5786C17.4154 65.1383 17.7212 63.7966 18.3329 62.5536C19.5364 59.9887 22.2888 58.7359 26.5899 58.795V53.4679H29.1943V58.795C30.97 58.7556 32.5386 59.0121 33.9 59.5645C34.7878 59.8999 35.5376 60.3439 36.1492 60.8963C36.82 61.4488 37.3527 62.2281 37.7473 63.2343C38.1617 64.2208 38.3688 65.3356 38.3688 66.5786C38.3688 69.0646 37.6191 70.9981 36.1196 72.3793C34.6201 73.7604 32.3117 74.4904 29.1943 74.5693V79.6597ZM26.5899 72.7344V60.63C25.0904 60.5313 23.6995 60.8568 22.417 61.6066C20.9175 62.5142 20.1678 64.1616 20.1678 66.549C20.1678 68.5615 20.7005 70.0708 21.7659 71.0771C23.0286 72.2214 24.6367 72.7739 26.5899 72.7344ZM29.1943 60.63V72.7344C31.7395 72.7344 33.4856 72.0143 34.4327 70.574C35.2219 69.3704 35.6165 68.0288 35.6165 66.549C35.6165 66.0755 35.577 65.602 35.4981 65.1284C35.4192 64.6352 35.2318 64.0926 34.9358 63.5007C34.6596 62.9088 34.2946 62.4057 33.8408 61.9913C33.4067 61.5573 32.7852 61.212 31.9763 60.9555C31.1871 60.6793 30.2598 60.5708 29.1943 60.63ZM43.7536 63.5895H41.2676C41.2676 62.4057 41.6622 61.3205 42.4514 60.334C43.3984 59.1502 45.1347 58.5583 47.6601 58.5583C49.1399 58.5583 50.4421 58.8542 51.5667 59.4461C52.2178 59.7618 52.7308 60.2847 53.1057 61.0147C53.4805 61.7447 53.6581 62.6128 53.6384 63.6191L53.4904 70.574C53.4904 71.1461 53.5496 71.5901 53.668 71.9057C53.8455 72.2214 54.3092 72.3694 55.0589 72.3497V74.1846C54.763 74.2635 54.3684 74.303 53.8751 74.303C53.007 74.303 52.3756 74.155 51.981 73.859C51.6062 73.5631 51.3398 72.981 51.182 72.1129C50.2152 73.8886 48.4987 74.7765 46.0324 74.7765C44.3356 74.7765 43.0235 74.4016 42.0962 73.6519C41.1886 72.8824 40.7348 71.7479 40.7348 70.2484C40.7348 68.8278 41.2478 67.7525 42.2738 67.0225C43.2998 66.253 45.2432 65.7401 48.1041 65.4836C49.426 65.3849 50.2152 65.2567 50.4717 65.0988C50.8466 64.8423 51.034 64.28 51.034 63.4119C51.034 61.3994 49.9094 60.3932 47.6601 60.3932C44.9966 60.3932 43.6944 61.4586 43.7536 63.5895ZM50.9748 67.7624L51.034 66.4898C50.738 66.7068 50.304 66.8844 49.7318 67.0225C48.8637 67.0817 48.1928 67.1508 47.7193 67.2297C46.0817 67.5059 45.0853 67.7328 44.7302 67.9104C43.8621 68.3247 43.428 69.0745 43.428 70.1596C43.428 71.0277 43.6845 71.7084 44.1975 72.2017C44.7302 72.6949 45.4405 72.9416 46.3283 72.9416C46.9005 72.9416 47.4234 72.8626 47.8969 72.7048C48.3901 72.547 48.8637 72.2905 49.3175 71.9353C49.791 71.5605 50.1659 71.0179 50.4421 70.3076C50.738 69.5973 50.9156 68.7489 50.9748 67.7624ZM60.7334 59.1502V65.7203L67.1555 59.1502H70.2038L63.1602 66.1347L70.5886 74.1846H67.4811L60.7334 66.6674V74.1846H58.129V59.1502H60.7334ZM76.0713 74.1846V60.9851H70.8626V59.1502H83.8845V60.9851H78.6757V74.1846H76.0713ZM85.3721 69.6269C84.8591 67.5158 84.8788 65.4737 85.4313 63.5007C85.9837 61.5277 87.1478 60.117 88.9235 59.2686C89.91 58.795 91.0642 58.5583 92.3862 58.5583C93.7081 58.5583 94.8623 58.795 95.8488 59.2686C97.6245 60.0972 98.7985 61.577 99.3706 63.7079C99.6271 64.6944 99.7554 65.6907 99.7554 66.697C99.7751 67.6835 99.6567 68.6601 99.4002 69.6269C99.1635 70.574 98.7393 71.4421 98.1276 72.2313C97.5357 73.0205 96.7761 73.642 95.8488 74.0958C94.8426 74.5496 93.6884 74.7765 92.3862 74.7765C91.084 74.7765 89.9298 74.5496 88.9235 74.0958C87.207 73.2671 86.0232 71.7775 85.3721 69.6269ZM88.1245 63.6783C87.868 64.4675 87.7397 65.454 87.7397 66.6378C87.7397 67.8019 87.868 68.7982 88.1245 69.6269C88.3809 70.4556 88.6769 71.0771 89.0123 71.4914C89.7226 72.2806 90.5315 72.7443 91.4391 72.8824C92.0705 72.981 92.7018 72.981 93.3332 72.8824C93.6094 72.8626 93.9942 72.7245 94.4874 72.468C95.0201 72.1918 95.4542 71.8465 95.7896 71.4322C96.125 71.0179 96.4111 70.4161 96.6479 69.6269C96.9044 68.7982 97.0326 67.8019 97.0326 66.6378C97.0326 65.454 96.9044 64.4675 96.6479 63.6783C96.3717 62.8101 96.0658 62.1886 95.7304 61.8138C95.4147 61.4389 95.0201 61.1232 94.5466 60.8667C94.0731 60.6102 93.6686 60.4524 93.3332 60.3932C92.7018 60.2945 92.0705 60.2945 91.4391 60.3932C91.1629 60.4129 90.7683 60.5609 90.2553 60.8371C89.2491 61.3304 88.5388 62.2774 88.1245 63.6783ZM103.187 74.1846V59.1502H110.349C113.525 59.1502 115.113 60.3439 115.113 62.7312C115.113 64.4477 114.206 65.6217 112.391 66.253V66.3418C113.614 66.6378 114.462 67.1113 114.936 67.7624C115.429 68.4135 115.676 69.252 115.676 70.278C115.676 71.9156 115.074 73.0008 113.87 73.5335C112.884 73.9675 111.68 74.1846 110.26 74.1846H103.187ZM109.52 60.9851H105.791V65.4244H109.402C110.447 65.4244 111.217 65.2172 111.71 64.8029C112.223 64.3688 112.479 63.8065 112.479 63.116C112.479 61.6954 111.493 60.9851 109.52 60.9851ZM109.52 67.2593H105.791V72.3497H109.609C111.858 72.3497 112.983 71.5802 112.983 70.0412C112.983 68.1866 111.828 67.2593 109.52 67.2593ZM125.574 69.6269C125.061 67.5158 125.081 65.4737 125.633 63.5007C126.186 61.5277 127.35 60.117 129.126 59.2686C130.112 58.795 131.266 58.5583 132.588 58.5583C133.91 58.5583 135.064 58.795 136.051 59.2686C137.827 60.0972 139.001 61.577 139.573 63.7079C139.829 64.6944 139.958 65.6907 139.958 66.697C139.977 67.6835 139.859 68.6601 139.602 69.6269C139.366 70.574 138.941 71.4421 138.33 72.2313C137.738 73.0205 136.978 73.642 136.051 74.0958C135.045 74.5496 133.89 74.7765 132.588 74.7765C131.286 74.7765 130.132 74.5496 129.126 74.0958C127.409 73.2671 126.225 71.7775 125.574 69.6269ZM128.327 63.6783C128.07 64.4675 127.942 65.454 127.942 66.6378C127.942 67.8019 128.07 68.7982 128.327 69.6269C128.583 70.4556 128.879 71.0771 129.214 71.4914C129.925 72.2806 130.734 72.7443 131.641 72.8824C132.273 72.981 132.904 72.981 133.535 72.8824C133.812 72.8626 134.196 72.7245 134.69 72.468C135.222 72.1918 135.656 71.8465 135.992 71.4322C136.327 71.0179 136.613 70.4161 136.85 69.6269C137.106 68.7982 137.235 67.8019 137.235 66.6378C137.235 65.454 137.106 64.4675 136.85 63.6783C136.574 62.8101 136.268 62.1886 135.933 61.8138C135.617 61.4389 135.222 61.1232 134.749 60.8667C134.275 60.6102 133.871 60.4524 133.535 60.3932C132.904 60.2945 132.273 60.2945 131.641 60.3932C131.365 60.4129 130.97 60.5609 130.457 60.8371C129.451 61.3304 128.741 62.2774 128.327 63.6783ZM160.507 60.9851H152.901V74.1846H150.296V59.1502H163.111V74.1846H160.507V60.9851ZM165.631 74.1846V72.2609C167.111 72.6949 168.156 71.9945 168.768 70.1596C168.926 69.7058 169.034 69.1435 169.094 68.4727L169.212 66.6674C169.232 66.3517 169.242 65.7302 169.242 64.8029V59.1502H179.659V74.1846H177.055V60.9851H171.668V64.8029C171.668 66.0459 171.639 67.0916 171.58 67.94C171.52 68.7686 171.372 69.6762 171.136 70.6627C170.8 72.0636 170.198 73.06 169.33 73.6519C168.462 74.2438 167.229 74.4213 165.631 74.1846ZM185.892 63.5895H183.406C183.406 62.4057 183.8 61.3205 184.589 60.334C185.536 59.1502 187.273 58.5583 189.798 58.5583C191.278 58.5583 192.58 58.8542 193.705 59.4461C194.356 59.7618 194.869 60.2847 195.244 61.0147C195.619 61.7447 195.796 62.6128 195.776 63.6191L195.628 70.574C195.628 71.1461 195.688 71.5901 195.806 71.9057C195.984 72.2214 196.447 72.3694 197.197 72.3497V74.1846C196.901 74.2635 196.506 74.303 196.013 74.303C195.145 74.303 194.514 74.155 194.119 73.859C193.744 73.5631 193.478 72.981 193.32 72.1129C192.353 73.8886 190.637 74.7765 188.17 74.7765C186.474 74.7765 185.162 74.4016 184.234 73.6519C183.327 72.8824 182.873 71.7479 182.873 70.2484C182.873 68.8278 183.386 67.7525 184.412 67.0225C185.438 66.253 187.381 65.7401 190.242 65.4836C191.564 65.3849 192.353 65.2567 192.61 65.0988C192.985 64.8423 193.172 64.28 193.172 63.4119C193.172 61.3994 192.047 60.3932 189.798 60.3932C187.135 60.3932 185.832 61.4586 185.892 63.5895ZM193.113 67.7624L193.172 66.4898C192.876 66.7068 192.442 66.8844 191.87 67.0225C191.002 67.0817 190.331 67.1508 189.857 67.2297C188.22 67.5059 187.223 67.7328 186.868 67.9104C186 68.3247 185.566 69.0745 185.566 70.1596C185.566 71.0277 185.823 71.7084 186.336 72.2017C186.868 72.6949 187.579 72.9416 188.466 72.9416C189.039 72.9416 189.561 72.8626 190.035 72.7048C190.528 72.547 191.002 72.2905 191.456 71.9353C191.929 71.5605 192.304 71.0179 192.58 70.3076C192.876 69.5973 193.054 68.7489 193.113 67.7624ZM210.803 68.8278H213.289C213.21 69.9722 212.776 71.1757 211.987 72.4385C211.553 73.1487 210.872 73.7209 209.945 74.155C209.037 74.5693 207.972 74.7765 206.748 74.7765C206.334 74.7765 206.038 74.7666 205.861 74.7469C204.992 74.7074 204.105 74.4805 203.197 74.0662C200.672 72.8035 199.409 70.2977 199.409 66.549C199.409 64.576 199.863 62.82 200.77 61.281C201.895 59.4659 203.828 58.5583 206.571 58.5583C208.504 58.5583 210.043 59.0515 211.188 60.038C212.332 61.0048 212.993 62.2774 213.171 63.8558H210.685C210.29 61.5474 208.938 60.3932 206.63 60.3932C205.131 60.3932 204.006 60.9456 203.256 62.0505C202.526 63.1357 202.161 64.6352 202.161 66.549C202.161 68.4036 202.546 69.9327 203.315 71.1363C204.085 72.3398 205.249 72.9416 206.808 72.9416C208.149 72.9416 209.126 72.5174 209.738 71.669C210.389 70.8206 210.744 69.8735 210.803 68.8278ZM219.423 74.1846V60.9851H214.214V59.1502H227.236V60.9851H222.028V74.1846H219.423ZM231.831 59.1502V71.1363L239.674 59.1502H242.574V74.1846H239.97V62.1689L232.156 74.1846H229.226V59.1502H231.831ZM249.432 59.1502V65.7203L255.854 59.1502H258.902L251.859 66.1347L259.287 74.1846H256.18L249.432 66.6674V74.1846H246.828V59.1502H249.432ZM272.139 69.8341H274.625C274.388 71.156 273.747 72.3102 272.701 73.2967C271.656 74.2832 270.107 74.7765 268.055 74.7765C265.273 74.7765 263.231 73.859 261.929 72.0241C261.278 71.0573 260.853 70.0215 260.656 68.9166C260.518 68.1471 260.449 67.4171 260.449 66.7266C260.449 65.4046 260.646 64.1616 261.041 62.9976C261.297 62.1689 261.672 61.4488 262.165 60.8371C262.698 60.186 263.458 59.6434 264.444 59.2094C265.431 58.7753 266.546 58.5583 267.789 58.5583C269.998 58.5583 271.666 59.1699 272.79 60.3932C273.264 60.9062 273.648 61.5573 273.944 62.3465C274.378 63.4908 274.645 64.8818 274.743 66.5194C274.743 66.5786 274.743 66.7068 274.743 66.9041C274.763 67.1014 274.773 67.2198 274.773 67.2593H263.201C263.201 68.7588 263.596 70.0807 264.385 71.225C265.174 72.3694 266.368 72.9416 267.966 72.9416C269.111 72.9416 270.048 72.6555 270.778 72.0833C271.508 71.5111 271.962 70.7614 272.139 69.8341ZM263.201 65.4244H272.021C272.001 64.2603 271.725 63.185 271.192 62.1985C270.58 60.995 269.466 60.3932 267.848 60.3932C266.013 60.3932 264.75 61.0048 264.06 62.2281C263.487 63.2146 263.201 64.28 263.201 65.4244Z" fill="black"/>
<path fill-rule="evenodd" clip-rule="evenodd" d="M285.997 157.965L285.868 158.177L284.568 157.385L283.268 156.593L283.132 156.815L282.997 157.038L282.341 156.638L281.685 156.239L281.557 156.45L281.428 156.662L280.998 156.4L280.568 156.138L280.44 156.35L280.311 156.561L279.87 156.292L279.429 156.024L279.3 156.235L279.171 156.447L278.957 156.316L278.742 156.185L278.613 156.396L278.484 156.608L278.269 156.477L278.054 156.346L277.919 156.569L277.783 156.791L277.568 156.66L277.354 156.529L277.225 156.741L277.096 156.952L276.881 156.821L276.666 156.691L276.538 156.902L276.409 157.113L276.183 156.976L275.957 156.838L275.699 157.261L275.441 157.684L275.226 157.553L275.012 157.422L274.747 157.856L274.483 158.29L274.268 158.159L274.053 158.028L273.667 158.663L273.28 159.297L273.065 159.166L272.851 159.035L272.329 159.892L271.807 160.749L271.592 160.618L271.377 160.487L270.462 161.99L269.546 163.492L269.761 163.623L269.976 163.754L269.454 164.61L268.932 165.467L269.147 165.598L269.361 165.729L269.097 166.163L268.833 166.597L269.047 166.728L269.262 166.859L269.005 167.282L268.747 167.705L268.962 167.836L269.177 167.966L268.919 168.389L268.661 168.812L268.887 168.95L269.114 169.088L268.978 169.31L268.842 169.533L269.057 169.664L269.272 169.795L269.143 170.006L269.014 170.217L269.229 170.348L269.444 170.479L269.193 170.891L268.942 171.302L267.203 170.251L265.465 169.199L265.326 169.412L265.187 169.625L263.888 168.834L262.589 168.042L262.46 168.254L262.331 168.465L261.46 167.935L260.59 167.404L260.461 167.616L260.332 167.827L259.473 167.304L258.614 166.78L258.485 166.992L258.356 167.203L257.486 166.673L256.615 166.142L256.486 166.354L256.357 166.565L255.283 165.911L254.209 165.257L254.338 165.045L254.467 164.834L253.597 164.303L252.726 163.773L252.855 163.561L252.984 163.35L252.328 162.951L251.672 162.551L251.801 162.34L251.93 162.128L251.285 161.736L250.641 161.343L250.77 161.132L250.899 160.92L249.361 159.983L247.824 159.047L247.695 159.258L247.566 159.469L247.351 159.339L247.136 159.208L246.879 159.631L246.621 160.053L246.406 159.923L246.191 159.792L245.798 160.437L245.405 161.083L245.19 160.952L244.975 160.821L244.589 161.455L244.202 162.09L243.988 161.959L243.773 161.828L243.508 162.262L243.244 162.696L243.018 162.558L242.792 162.42L242.405 163.055L242.019 163.689L241.804 163.558L241.589 163.427L241.067 164.284L240.545 165.141L240.33 165.01L240.115 164.879L238.285 167.884L236.454 170.889L236.669 171.02L236.884 171.15L236.497 171.785L236.111 172.419L236.326 172.55L236.541 172.681L236.276 173.115L236.012 173.549L236.238 173.687L236.464 173.824L236.206 174.247L235.949 174.67L236.163 174.801L236.378 174.932L236.249 175.143L236.121 175.355L236.335 175.486L236.55 175.616L236.415 175.839L236.279 176.062L236.494 176.192L236.709 176.323L236.58 176.535L236.451 176.746L236.666 176.877L236.881 177.008L236.752 177.219L236.623 177.431L236.849 177.569L237.075 177.706L236.946 177.918L236.818 178.129L237.032 178.26L237.247 178.391L237.118 178.602L236.99 178.814L237.204 178.945L237.419 179.076L237.284 179.298L237.148 179.521L237.578 179.782L238.007 180.044L237.878 180.256L237.75 180.467L238.19 180.736L238.631 181.004L238.503 181.216L238.374 181.427L239.244 181.958L240.115 182.488L239.986 182.699L239.857 182.911L240.942 183.572L242.028 184.233L241.899 184.445L241.77 184.656L243.941 185.979L246.112 187.301L245.976 187.524L245.84 187.746L249.741 190.123L253.641 192.499L253.512 192.71L253.383 192.922L255.995 194.513L258.607 196.104L258.735 195.893L258.864 195.681L261.476 197.272L264.087 198.863L264.223 198.641L264.359 198.418L265.659 199.21L266.959 200.002L267.088 199.791L267.217 199.579L268.302 200.241L269.387 200.902L269.516 200.691L269.645 200.479L270.301 200.879L270.956 201.278L271.085 201.067L271.214 200.855L271.644 201.117L272.073 201.379L272.202 201.167L272.331 200.956L272.76 201.218L273.19 201.479L273.326 201.257L273.461 201.034L273.687 201.172L273.913 201.31L274.042 201.098L274.171 200.887L274.386 201.018L274.601 201.148L274.73 200.937L274.858 200.726L275.288 200.987L275.718 201.249L275.846 201.038L275.975 200.826L276.19 200.957L276.405 201.088L276.669 200.654L276.934 200.22L277.16 200.358L277.386 200.495L277.515 200.284L277.644 200.073L277.858 200.203L278.073 200.334L278.202 200.123L278.331 199.911L278.546 200.042L278.76 200.173L279.154 199.528L279.547 198.882L279.762 199.013L279.976 199.144L281.671 196.362L283.366 193.58L283.152 193.449L282.937 193.318L283.195 192.895L283.452 192.472L283.237 192.341L283.023 192.21L283.287 191.776L283.551 191.342L283.337 191.212L283.122 191.081L283.379 190.658L283.637 190.235L283.411 190.097L283.185 189.959L283.314 189.748L283.442 189.537L283.228 189.406L283.013 189.275L283.277 188.841L283.542 188.407L283.327 188.276L283.112 188.145L283.241 187.934L283.37 187.722L283.155 187.591L282.94 187.46L283.069 187.249L283.198 187.038L282.983 186.907L282.769 186.776L283.024 186.344L283.279 185.912L283.062 185.771L282.846 185.631L282.974 185.42L283.102 185.209L282.888 185.079L282.673 184.948L282.802 184.736L282.93 184.525L282.716 184.394L282.501 184.263L282.63 184.052L282.758 183.84L282.544 183.709L282.329 183.578L282.458 183.367L282.586 183.156L282.372 183.025L282.157 182.894L282.421 182.46L282.686 182.026L282.46 181.888L282.233 181.75L282.356 181.55L282.478 181.35L282.704 181.487L282.93 181.625L283.059 181.414L283.187 181.202L283.402 181.333L283.617 181.464L283.753 181.241L283.888 181.019L284.103 181.15L284.318 181.281L284.447 181.069L284.575 180.858L285.005 181.119L285.435 181.381L285.564 181.17L285.692 180.958L286.133 181.227L286.574 181.496L286.703 181.284L286.832 181.073L287.261 181.334L287.691 181.596L287.82 181.385L287.949 181.173L288.604 181.573L289.26 181.972L289.396 181.75L289.531 181.527L289.961 181.789L290.391 182.051L290.519 181.839L290.648 181.628L291.304 182.027L291.96 182.427L292.088 182.215L292.217 182.004L292.432 182.135L292.647 182.266L292.776 182.054L292.905 181.843L293.119 181.974L293.334 182.104L293.463 181.893L293.592 181.682L293.807 181.812L294.021 181.943L294.421 181.287L294.821 180.63L294.607 180.499L294.392 180.368L294.521 180.157L294.649 179.946L294.22 179.684L293.79 179.422L293.912 179.222L294.034 179.021L294.249 179.152L294.464 179.283L294.728 178.849L294.993 178.415L295.208 178.546L295.422 178.677L295.551 178.465L295.68 178.254L295.895 178.385L296.11 178.516L296.638 177.648L297.167 176.78L295.641 175.85L294.115 174.92L293.979 175.143L293.844 175.365L292.341 174.45L290.838 173.534L290.964 173.313L291.089 173.092L290.873 172.951L290.656 172.811L290.913 172.389L291.171 171.967L290.956 171.836L290.741 171.705L291.134 171.059L291.527 170.414L291.313 170.283L291.098 170.152L291.355 169.729L291.613 169.306L291.398 169.176L291.184 169.045L291.577 168.399L291.97 167.754L291.755 167.623L291.54 167.492L291.669 167.281L291.798 167.069L291.572 166.931L291.346 166.794L291.603 166.371L291.861 165.948L291.646 165.817L291.431 165.686L291.56 165.475L291.689 165.263L291.474 165.132L291.259 165.001L291.395 164.779L291.531 164.556L291.316 164.425L291.101 164.295L291.23 164.083L291.359 163.872L291.144 163.741L290.929 163.61L291.058 163.399L291.187 163.187L290.746 162.918L290.305 162.65L290.434 162.438L290.563 162.227L290.133 161.965L289.703 161.703L289.832 161.492L289.961 161.281L289.52 161.012L289.079 160.743L289.215 160.521L289.35 160.298L288.05 159.506L286.75 158.714L286.879 158.503L287.008 158.291L286.567 158.022L286.126 157.754L285.997 157.965ZM287.057 165.081L286.928 165.292L287.143 165.423L287.357 165.554L286.842 166.4L286.327 167.245L287.186 167.769L288.045 168.292L288.167 168.092L288.289 167.892L288.075 167.761L287.86 167.63L288.117 167.208L288.374 166.786L288.158 166.645L287.941 166.505L288.067 166.284L288.192 166.063L287.978 165.932L287.764 165.802L287.893 165.59L288.022 165.379L287.604 165.124L287.185 164.869L287.057 165.081ZM285.356 170.774L285.098 171.197L285.313 171.327L285.527 171.458L285.263 171.892L284.999 172.326L284.784 172.195L284.569 172.065L284.44 172.276L284.311 172.487L284.741 172.749L285.171 173.011L285.306 172.788L285.442 172.566L285.657 172.697L285.871 172.827L286.387 171.982L286.902 171.136L286.258 170.743L285.613 170.351L285.356 170.774ZM275.542 185.914L275.285 186.337L275.07 186.206L274.855 186.075L274.469 186.709L274.082 187.343L274.297 187.474L274.512 187.605L274.254 188.028L273.997 188.451L274.211 188.582L274.426 188.713L274.297 188.924L274.169 189.136L275.028 189.659L275.887 190.183L276.016 189.971L276.145 189.76L276.359 189.891L276.574 190.021L276.825 189.61L277.076 189.198L276.861 189.067L276.646 188.936L277.168 188.079L277.69 187.222L277.476 187.092L277.261 186.961L277.39 186.749L277.518 186.538L276.659 186.014L275.8 185.491L275.542 185.914Z" fill="black"/>
<path fill-rule="evenodd" clip-rule="evenodd" d="M284.784 231.681L283.935 232.387L281.494 229.454L279.053 226.521L279.477 226.167L279.902 225.814L279.186 224.954L278.471 224.094L278.046 224.447L277.621 224.8L276.924 223.962L276.227 223.124L276.651 222.771L277.076 222.417L275.644 220.697L274.213 218.977L273.788 219.33L273.364 219.683L271.602 217.566L269.84 215.449L269.415 215.802L268.991 216.155L268.661 215.758L268.33 215.361L268.755 215.008L269.179 214.655L268.115 213.375L267.051 212.096L266.626 212.449L266.201 212.803L263.724 209.825L261.246 206.848L260.799 207.219L260.352 207.591L258.591 205.474L256.829 203.357L256.404 203.71L255.979 204.063L254.933 202.806L253.887 201.549L253.463 201.902L253.038 202.255L252.322 201.395L251.607 200.535L251.182 200.888L250.757 201.242L250.409 200.823L250.06 200.404L249.188 201.129L248.317 201.854L247.987 201.457L247.656 201.06L248.952 199.982L250.249 198.903L249.515 198.021L248.78 197.139L247.931 197.845L247.082 198.552L246.733 198.133L246.385 197.714L245.491 198.457L244.597 199.201L244.945 199.62L245.294 200.039L244.869 200.393L244.445 200.746L245.161 201.606L245.876 202.466L245.452 202.82L245.027 203.173L245.376 203.592L245.724 204.011L245.3 204.364L244.875 204.718L245.224 205.137L245.573 205.556L245.148 205.909L244.723 206.262L245.071 206.68L245.418 207.097L244.993 207.473L244.568 207.848L244.913 208.289L245.258 208.729L244.835 209.081L244.412 209.433L244.76 209.852L245.109 210.271L244.684 210.625L244.26 210.978L244.609 211.397L244.957 211.816L244.533 212.169L244.108 212.523L244.457 212.942L244.805 213.361L242.235 215.499L239.665 217.638L240.014 218.057L240.362 218.475L237.79 220.634L235.219 222.794L235.564 223.234L235.909 223.675L232.916 226.165L229.923 228.656L230.271 229.075L230.62 229.494L227.625 231.986L224.631 234.478L224.979 234.897L225.328 235.316L222.311 237.826L219.294 240.336L219.643 240.756L219.991 241.175L216.997 243.666L214.002 246.158L214.35 246.577L214.699 246.996L211.702 249.508L208.706 252.021L209.051 252.461L209.396 252.902L205.554 256.099L201.712 259.296L202.06 259.715L202.409 260.134L200.688 261.566L198.967 262.998L199.316 263.417L199.665 263.836L198.793 264.561L197.922 265.286L198.27 265.706L198.619 266.125L197.345 267.185L196.071 268.244L196.42 268.664L196.769 269.083L196.344 269.436L195.919 269.789L196.286 270.23L196.654 270.671L196.207 271.043L195.76 271.415L196.108 271.834L196.457 272.253L196.032 272.607L195.608 272.96L195.956 273.379L196.305 273.798L195.88 274.151L195.456 274.505L196.153 275.343L196.851 276.181L196.426 276.534L196.001 276.888L196.717 277.748L197.433 278.608L197.008 278.961L196.584 279.315L197.281 280.153L197.978 280.991L197.531 281.363L197.084 281.735L198.149 283.014L199.213 284.293L198.789 284.647L198.364 285L204.017 291.793L209.669 298.586L210.094 298.233L210.518 297.88L211.216 298.718L211.913 299.556L212.36 299.184L212.807 298.812L213.523 299.672L214.238 300.532L214.663 300.179L215.088 299.826L215.785 300.664L216.482 301.502L216.907 301.149L217.332 300.795L217.68 301.215L218.029 301.634L218.454 301.28L218.878 300.927L219.594 301.787L220.31 302.647L220.734 302.294L221.159 301.941L221.508 302.36L221.856 302.779L222.303 302.407L222.75 302.035L223.099 302.454L223.448 302.873L226.442 300.381L229.437 297.89L229.786 298.309L230.134 298.728L233.129 296.236L236.124 293.744L236.472 294.163L236.821 294.582L240.263 291.719L243.704 288.855L244.071 289.296L244.438 289.737L247.008 287.599L249.579 285.46L249.927 285.879L250.276 286.298L252.421 284.513L254.567 282.728L254.915 283.147L255.264 283.566L257.834 281.428L260.404 279.289L260.753 279.708L261.102 280.127L263.694 277.97L266.286 275.813L266.635 276.232L266.984 276.651L269.554 274.513L272.124 272.374L272.491 272.815L272.858 273.257L275.853 270.765L278.847 268.273L279.196 268.692L279.545 269.111L282.562 266.601L285.579 264.09L285.927 264.509L286.276 264.929L286.701 264.575L287.125 264.222L288.19 265.501L289.254 266.78L289.679 266.427L290.103 266.074L291.865 268.191L293.627 270.309L294.052 269.955L294.476 269.602L295.871 271.278L297.266 272.954L297.689 272.602L298.112 272.25L298.483 272.67L298.853 273.089L300.17 272.013L301.487 270.937L301.12 270.495L300.752 270.054L301.177 269.7L301.601 269.347L300.904 268.509L300.207 267.671L300.631 267.317L301.056 266.964L299.991 265.685L298.927 264.406L299.352 264.052L299.776 263.699L299.079 262.861L298.381 262.023L298.828 261.651L299.275 261.279L298.211 260L297.147 258.72L297.571 258.367L297.996 258.014L296.95 256.757L295.904 255.499L296.328 255.146L296.753 254.793L295.688 253.513L294.624 252.234L295.049 251.881L295.473 251.528L294.427 250.27L293.381 249.013L293.806 248.66L294.23 248.307L293.166 247.027L292.102 245.748L292.549 245.376L292.995 245.004L292.298 244.166L291.601 243.328L292.025 242.975L292.45 242.621L291.386 241.342L290.321 240.063L290.746 239.71L291.17 239.356L290.106 238.077L289.041 236.798L289.466 236.445L289.891 236.091L287.762 233.533L285.633 230.974L284.784 231.681ZM283.524 232.804L283.122 233.138L284.535 234.837L285.948 236.535L285.501 236.907L285.054 237.279L286.119 238.558L287.183 239.837L286.759 240.19L286.334 240.544L287.013 241.36L287.692 242.176L288.117 241.823L288.541 241.469L288.193 241.05L287.844 240.631L288.268 240.278L288.693 239.925L287.629 238.645L286.564 237.366L286.989 237.013L287.413 236.659L285.67 234.564L283.927 232.469L283.524 232.804ZM287.282 242.592L286.879 242.927L287.577 243.765L288.274 244.603L288.676 244.268L289.079 243.933L288.381 243.095L287.684 242.257L287.282 242.592ZM287.827 244.975L287.425 245.31L287.792 245.751L288.159 246.192L287.287 246.917L286.416 247.642L286.049 247.201L285.682 246.76L285.235 247.132L284.788 247.504L284.439 247.085L284.091 246.666L283.666 247.019L283.241 247.372L280.782 244.417L278.323 241.461L277.474 242.168L276.624 242.875L276.276 242.455L275.927 242.036L275.502 242.39L275.078 242.743L272.949 240.185L270.82 237.626L271.245 237.273L271.669 236.919L271.302 236.478L270.935 236.037L271.785 235.331L272.634 234.624L272.303 234.227L271.973 233.83L271.548 234.183L271.124 234.537L270.775 234.117L270.426 233.698L269.577 234.405L268.728 235.112L267.664 233.832L266.599 232.553L266.152 232.925L265.705 233.297L265.357 232.878L265.008 232.459L264.583 232.812L264.159 233.165L260.635 228.931L257.111 224.696L256.709 225.031L256.307 225.365L256.656 225.785L257.004 226.204L256.58 226.557L256.155 226.91L258.265 229.447L260.376 231.983L259.929 232.355L259.482 232.727L262.29 236.101L265.098 239.476L265.545 239.104L265.992 238.732L266.34 239.151L266.689 239.57L267.114 239.217L267.538 238.864L268.272 239.746L269.007 240.628L268.582 240.981L268.157 241.335L269.185 242.57L270.213 243.805L270.637 243.452L271.062 243.098L272.475 244.797L273.888 246.495L274.313 246.142L274.737 245.788L275.453 246.649L276.169 247.509L275.744 247.862L275.32 248.215L275.668 248.634L276.017 249.054L276.442 248.7L276.866 248.347L279.674 251.721L282.482 255.096L282.907 254.743L283.331 254.389L284.396 255.669L285.46 256.948L285.885 256.595L286.309 256.241L287.722 257.94L289.136 259.638L289.583 259.266L290.029 258.894L290.378 259.313L290.727 259.732L291.554 259.044L292.381 258.356L292.032 257.937L291.683 257.518L292.108 257.165L292.532 256.811L292.184 256.392L291.835 255.973L292.282 255.601L292.729 255.229L292.38 254.81L292.032 254.391L290.758 255.451L289.484 256.511L289.833 256.93L290.181 257.349L289.734 257.721L289.287 258.093L287.177 255.557L285.066 253.02L284.642 253.374L284.217 253.727L283.85 253.286L283.483 252.845L284.355 252.119L285.226 251.394L285.575 251.813L285.924 252.232L286.751 251.544L287.577 250.856L286.88 250.018L286.183 249.18L287.077 248.436L287.971 247.692L288.686 248.553L289.402 249.413L288.955 249.785L288.508 250.157L289.224 251.017L289.94 251.877L289.515 252.23L289.09 252.584L289.769 253.4L290.448 254.216L290.873 253.862L291.298 253.509L290.949 253.09L290.6 252.671L291.025 252.318L291.449 251.964L290.752 251.126L290.055 250.288L290.479 249.935L290.904 249.581L290.188 248.721L289.472 247.861L289.897 247.508L290.322 247.154L289.276 245.897L288.23 244.64L287.827 244.975ZM249.324 203.928L248.05 204.988L248.399 205.407L248.747 205.826L248.323 206.179L247.898 206.532L248.595 207.371L249.293 208.209L250.12 207.521L250.947 206.833L250.598 206.414L250.249 205.994L251.121 205.269L251.992 204.544L251.295 203.706L250.598 202.868L249.324 203.928ZM248.883 208.625L248.48 208.959L248.811 209.356L249.141 209.753L249.543 209.419L249.945 209.084L249.615 208.687L249.285 208.29L248.883 208.625Z" fill="#DCDCDC"/>
<path fill-rule="evenodd" clip-rule="evenodd" d="M142.524 183.595V187.519H145.09H147.655V187.948V188.376H148.503H149.351V188.805V189.233H149.775H150.199V190.09V190.948H149.775H149.351V194.85V198.752H148.927H148.503V200.037V201.323H148.079H147.655V202.631V203.939H147.231H146.808V205.676V207.413H148.102H149.395V206.984V206.556H149.819H150.243V206.127V205.699H150.667H151.091V205.27V204.842H151.537H151.983V203.962V203.082H152.407H152.831V202.225V201.368H153.255H153.679V200.511V199.654H154.103H154.527V198.774V197.895H154.95H155.374V196.609V195.323H156.222H157.07V195.752V196.18H157.494H157.918V196.609V197.037H158.341H158.765V199.609V202.18H158.341H157.918V205.676V209.172H158.788H159.658V209.578V209.984H158.364H157.07V210.413V210.841H156.646H156.222V211.292V211.743H155.798H155.374V212.601V213.458H154.928H154.482V216.503V219.548H154.928H155.374V221.262V222.976H154.928H154.482V226.021V229.066H154.928H155.374V229.923V230.78H154.928H154.482V231.209V231.637H153.634H152.786V232.066V232.494H152.363H151.939V232.945V233.396H151.515H151.091V233.825V234.254H150.645H150.199V234.682V235.111H149.775H149.351V235.539V235.968H148.927H148.503V236.847V237.727H148.079H147.655V238.584V239.441H147.231H146.808V240.749V242.058H146.361H145.915V243.343V244.629H145.491H145.067V245.937V247.245H144.644H144.22V249.839V252.433H143.796H143.372V264.568V276.703H143.796H144.22V279.747V282.792H144.644H145.067V284.958V287.123H145.491H145.915V288.409V289.694H146.361H146.808V290.123V290.551H146.361H145.915V293.596V296.641H146.361H146.808V297.07V297.498H148.503H150.199V297.927V298.356H166.083H181.967V297.927V297.498H182.391H182.815V297.07V296.641H183.239H183.663V293.596V290.551H183.239H182.815V290.123V289.694H183.239H183.663V288.837V287.98H184.086H184.51V285.815V283.65H184.934H185.358V281.056V278.462H185.804H186.25V263.282V248.102H185.804H185.358V246.366V244.629H184.934H184.51V243.343V242.058H184.086H183.663V240.321V238.584H183.239H182.815V236.419V234.254H182.391H181.967V232.517V230.78H181.521H181.075V229.043V227.307H180.651H180.227V226.021V224.735H179.803H179.379V223.856V222.976H178.955H178.531V221.69V220.405H178.108H177.684V219.525V218.645H177.237H176.791V217.788V216.931H176.367H175.944V216.052V215.172H175.52H175.096V214.315V213.458H174.672H174.248V212.601V211.743H173.824H173.4V211.292V210.841H172.954H172.508V210.413V209.984H172.084H171.66V209.578V209.172H172.53H173.4V208.293V207.413H172.954H172.508V206.984V206.556H172.954H173.4V204.368V202.18H172.954H172.508V199.158V196.135H172.084H171.66V194.85V193.564H172.084H172.508V191.827V190.09H172.954H173.4V189.233V188.376H173.824H174.248V187.948V187.519H174.672H175.096V187.091V186.662H175.52H175.944V186.211V185.76H176.367H176.791V184.452V183.143H176.367H175.944V182.715V182.286H174.672H173.4V181.858V181.429H172.53H171.66V180.978V180.527H168.247H164.833V180.098V179.67H153.679H142.524V183.595Z" fill="#DCDCDC"/>
<path fill-rule="evenodd" clip-rule="evenodd" d="M75.4269 146.415L75.6152 146.876L73.2386 147.848L70.8621 148.82L71.2386 149.74L71.6151 150.661L71.1448 150.853L70.6744 151.046L71.2491 152.45L71.8238 153.855L71.3287 154.058L70.8336 154.26L71.0219 154.721L71.2101 155.181L70.7398 155.373L70.2694 155.566L70.4577 156.026L70.646 156.486L70.1756 156.679L69.7053 156.871L69.9034 157.355L70.1016 157.84L69.6312 158.032L69.1609 158.225L69.5374 159.145L69.914 160.065L69.4436 160.258L68.9732 160.45L72.4017 168.831L75.8302 177.212L76.3005 177.019L76.7709 176.827L77.5339 178.692L78.2969 180.557L78.7672 180.364L79.2376 180.172L79.6141 181.092L79.9906 182.013L77.6388 182.975L75.287 183.937L75.0988 183.477L74.9105 183.017L73.4499 183.614L71.9893 184.212L72.1776 184.672L72.3659 185.132L71.4251 185.517L70.4844 185.902L70.6727 186.362L70.861 186.822L69.9202 187.207L68.9795 187.592L69.1678 188.052L69.3561 188.512L68.3906 188.907L67.4251 189.302L67.6134 189.762L67.8016 190.223L67.3313 190.415L66.8609 190.607L67.0591 191.092L67.2573 191.576L66.3166 191.961L65.3758 192.346L65.5641 192.806L65.7524 193.266L64.7869 193.661L63.8214 194.056L64.0097 194.517L64.198 194.977L63.7276 195.169L63.2572 195.362L63.4455 195.822L63.6338 196.282L62.6931 196.667L61.7523 197.052L61.9406 197.512L62.1289 197.972L61.1634 198.367L60.1979 198.762L60.3961 199.247L60.5943 199.731L59.6536 200.116L58.7128 200.501L58.9011 200.961L59.0894 201.421L58.619 201.613L58.1487 201.806L58.3369 202.266L58.5252 202.726L55.6535 203.901L52.7819 205.076L52.9701 205.536L53.1584 205.996L49.3955 207.536L45.6326 209.075L44.1166 205.369L42.6005 201.663L43.0709 201.471L43.5413 201.278L39.5381 191.493L35.5349 181.707L35.0645 181.9L34.5942 182.092L34.4158 181.656L34.2375 181.22L34.7078 181.028L35.1782 180.836L34.6035 179.431L34.0287 178.026L34.4991 177.833L34.9695 177.641L34.3948 176.236L33.82 174.831L33.3497 175.024L32.8793 175.216L32.5028 174.296L32.1262 173.375L31.1608 173.77L30.1953 174.165L31.7114 177.871L33.2274 181.577L32.7323 181.78L32.2372 181.982L32.8119 183.387L33.3866 184.792L32.941 184.974L32.4954 185.156L31.5541 182.855L30.6127 180.554L31.0831 180.362L31.5534 180.169L30.2157 176.9L28.878 173.63L29.8435 173.235L30.809 172.84L30.6207 172.38L30.4325 171.919L30.8781 171.737L31.3237 171.555L31.5119 172.015L31.7002 172.475L32.1953 172.273L32.6904 172.07L32.304 171.125L31.9175 170.181L30.4817 170.768L29.0459 171.356L29.2341 171.816L29.4224 172.276L28.952 172.468L28.4817 172.661L28.2934 172.201L28.1051 171.74L25.7286 172.713L23.352 173.685L23.1638 173.225L22.9755 172.764L19.6335 174.132L16.2914 175.499L16.8562 176.879L17.4211 178.26L16.9507 178.453L16.4803 178.645L18.3828 183.295L20.2853 187.946L19.815 188.138L19.3446 188.331L20.1076 190.196L20.8706 192.061L20.3755 192.263L19.8803 192.466L20.8316 194.791L21.7828 197.117L21.3125 197.309L20.8421 197.501L21.6051 199.366L22.3681 201.232L21.8977 201.424L21.4274 201.616L25.0441 210.457L28.6608 219.298L28.1905 219.49L27.7201 219.683L32.0899 230.365L36.4597 241.046L35.9894 241.239L35.519 241.431L40.8599 254.486L46.2008 267.542L46.6711 267.349L47.1415 267.157L50.56 275.513L53.9786 283.87L54.449 283.677L54.9193 283.485L56.6336 287.675L58.3478 291.866L58.8181 291.673L59.2885 291.481L59.8632 292.886L60.4379 294.29L60.9083 294.098L61.3787 293.906L61.7552 294.826L62.1317 295.746L62.6268 295.544L63.122 295.341L63.3102 295.801L63.4985 296.262L63.9689 296.069L64.4392 295.877L64.6374 296.361L64.8356 296.846L65.3059 296.653L65.7763 296.461L65.9646 296.921L66.1528 297.381L67.5887 296.794L69.0245 296.206L69.2128 296.667L69.401 297.127L70.3417 296.742L71.2825 296.357L71.4707 296.817L71.659 297.278L73.0948 296.69L74.5307 296.103L74.3424 295.643L74.1541 295.182L75.1196 294.787L76.0851 294.392L75.8968 293.932L75.7086 293.472L80.4617 291.528L85.2148 289.583L85.0266 289.123L84.8384 288.663L91.4803 285.932L98.1222 283.2L97.9431 282.722L97.764 282.244L100.139 281.272L102.514 280.301L102.325 279.841L102.137 279.38L104.514 278.408L106.89 277.436L106.702 276.976L106.514 276.516L111.737 274.379L116.961 272.242L116.772 271.782L116.584 271.321L118.49 270.541L120.396 269.762L120.208 269.301L120.02 268.841L122.867 267.677L125.714 266.512L125.516 266.028L125.317 265.543L127.224 264.763L129.13 263.983L128.941 263.523L128.753 263.063L133.011 261.321L137.269 259.579L137.081 259.119L136.893 258.659L137.858 258.264L138.824 257.869L138.635 257.409L138.447 256.948L138.917 256.756L139.388 256.564L139.2 256.103L139.011 255.643L139.482 255.451L139.952 255.258L139.754 254.774L139.556 254.289L139.085 254.482L138.615 254.674L137.099 250.968L135.583 247.263L136.053 247.07L136.524 246.878L135.939 245.449L135.354 244.02L134.884 244.212L134.414 244.404L134.235 243.968L134.057 243.532L134.998 243.148L135.938 242.763L135.75 242.303L135.562 241.842L136.057 241.64L136.552 241.437L135.214 238.167L133.877 234.897L134.347 234.705L134.817 234.513L133.866 232.187L132.915 229.862L133.385 229.67L133.856 229.477L132.904 227.152L131.953 224.827L132.423 224.634L132.893 224.442L134.239 227.695C134.979 229.483 133.177 225.061 130.234 217.867C127.291 210.674 125.401 206.071 126.034 207.639L127.185 210.491L126.715 210.683L126.246 210.875L125.294 208.55L124.343 206.225L123.873 206.417L123.402 206.609L122.828 205.205L122.253 203.8L121.783 203.992L121.314 204.184L120.731 202.797L120.148 201.409L119.659 201.593L119.171 201.777L118.795 200.858L118.419 199.939L117.949 200.132L117.479 200.324L116.904 198.919L116.329 197.514L115.859 197.707L115.389 197.899L114.635 196.058L113.882 194.218L113.412 194.41L112.942 194.602L112.367 193.198L111.792 191.793L111.322 191.985L110.852 192.178L110.089 190.313L109.326 188.447L108.83 188.65L108.335 188.853L107.572 186.988L106.809 185.122L106.339 185.315L105.869 185.507L105.116 183.666L104.362 181.826L103.892 182.018L103.422 182.21L102.847 180.806L102.272 179.401L101.802 179.593L101.332 179.786L100.569 177.921L99.8057 176.056L99.3359 176.248L98.8661 176.44L98.0951 174.592L97.3241 172.745L96.8357 172.928L96.3473 173.112L95.595 171.273L94.8426 169.434L94.3722 169.626L93.9019 169.819L93.5154 168.874L93.129 167.929L92.6586 168.122L92.1883 168.314L90.8605 165.068L89.5327 161.823L89.0623 162.015L88.592 162.208L87.4525 159.422L86.3129 156.637L85.8426 156.829L85.3722 157.022L83.658 152.831L81.9438 148.641L81.4486 148.843L80.9535 149.046L80.3788 147.641L79.8041 146.236L79.3337 146.429L78.8634 146.621L78.4868 145.701L78.1103 144.78L76.6745 145.368L75.2386 145.955L75.4269 146.415ZM32.5133 177.006L32.6917 177.442L33.1373 177.26L33.5829 177.077L33.4045 176.641L33.2262 176.205L32.7806 176.388L32.335 176.57L32.5133 177.006ZM29.9995 187.25L30.7519 189.089L31.2403 188.905L31.7287 188.722L31.9361 189.188L32.1435 189.655L31.6466 189.858L31.1497 190.061L32.8533 194.226L34.5569 198.39L35.0453 198.206L35.5337 198.023L36.8714 201.293L38.2091 204.563L37.2436 204.957L36.2782 205.352L35.6953 203.965L35.1124 202.578L34.6675 202.76L34.2227 202.942L34.9857 204.807L35.7486 206.672L35.2783 206.864L34.8079 207.057L34.9863 207.493L35.1646 207.929L35.635 207.736L36.1054 207.544L36.8783 209.433L37.6511 211.322L37.156 211.525L36.6609 211.727L36.2745 210.783L35.888 209.838L35.4424 210.02L34.9968 210.203L35.7598 212.068L36.5228 213.933L35.5573 214.328L34.5918 214.723L34.7801 215.183L34.9684 215.643L35.4387 215.451L35.9091 215.258L36.1073 215.743L36.3054 216.227L35.8351 216.42L35.3647 216.612L36.5042 219.398L37.6438 222.183L37.1734 222.375L36.703 222.568L38.2191 226.274L39.7351 229.98L39.2648 230.172L38.7944 230.364L39.171 231.285L39.5475 232.205L40.0179 232.013L40.4882 231.82L41.2611 233.71L42.034 235.599L41.5636 235.791L41.0933 235.984L41.2816 236.444L41.4698 236.904L40.9995 237.097L40.5291 237.289L40.7075 237.725L40.8858 238.161L41.3562 237.969L41.8265 237.776L42.213 238.721L42.5994 239.665L43.045 239.483L43.4906 239.301L43.1042 238.356L42.7177 237.412L43.1881 237.219L43.6585 237.027L43.0937 235.646L42.5289 234.266L43.024 234.063L43.5191 233.86L42.9444 232.456L42.3697 231.051L42.84 230.858L43.3104 230.666L42.9338 229.745L42.5573 228.825L43.0277 228.633L43.498 228.44L42.735 226.575L41.9721 224.71L42.4424 224.518L42.9128 224.325L42.5263 223.381L42.1399 222.436L43.1054 222.041L44.0708 221.646L43.8925 221.21L43.7141 220.774L43.2184 220.977L42.7228 221.18L41.9677 219.297L41.2128 217.415L41.6898 217.203L42.1669 216.992L41.7911 216.073L41.4153 215.155L41.8856 214.962L42.356 214.77L40.83 211.04L39.3041 207.31L39.7744 207.117L40.2448 206.925L39.8682 206.004L39.4917 205.084L39.9621 204.892L40.4324 204.699L40.2541 204.263L40.0757 203.827L39.6053 204.02L39.135 204.212L38.9368 203.728L38.7386 203.243L39.209 203.051L39.6794 202.858L39.2929 201.914L38.9065 200.969L39.3768 200.777L39.8472 200.584L39.2824 199.204L38.7176 197.823L38.2472 198.015L37.7768 198.208L37.2021 196.803L36.6274 195.398L37.0978 195.206L37.5681 195.013L36.6268 192.712L35.6855 190.411L35.2151 190.604L34.7447 190.796L34.5565 190.336L34.3682 189.876L33.8978 190.068L33.4275 190.26L32.8528 188.856L32.2781 187.451L31.8077 187.643L31.3373 187.836L30.7626 186.431L30.1879 185.026L29.7175 185.218L29.2472 185.411L29.9995 187.25ZM35.1398 186.252L35.5064 187.148L35.9768 186.956L36.4472 186.763L36.0805 185.867L35.7139 184.971L35.2435 185.163L34.7732 185.356L35.1398 186.252ZM92.1803 176.489L92.3685 176.949L92.8389 176.757L93.3093 176.564L93.121 176.104L92.9327 175.644L92.4624 175.836L91.992 176.029L92.1803 176.489ZM33.669 206.957L33.8474 207.393L34.293 207.211L34.7386 207.028L34.5602 206.592L34.3819 206.156L33.9363 206.339L33.4907 206.521L33.669 206.957ZM33.6406 212.398L33.8189 212.834L34.2893 212.641L34.7597 212.449L34.5813 212.013L34.4029 211.577L33.9326 211.769L33.4622 211.962L33.6406 212.398ZM85.9458 196.429L86.1242 196.865L86.5698 196.682L87.0154 196.5L86.837 196.064L86.6587 195.628L86.2131 195.81L85.7675 195.993L85.9458 196.429ZM40.8843 254.476C43.8272 261.67 45.0398 264.618 43.579 261.027C42.1181 257.436 39.7102 251.55 38.2282 247.947C36.7461 244.345 37.9414 247.283 40.8843 254.476ZM42.4217 241.915L42.7883 242.812L43.2339 242.629L43.6795 242.447L43.3129 241.551L42.9463 240.655L42.5007 240.837L42.0551 241.019L42.4217 241.915ZM43.9272 242.911L44.1056 243.347L44.5512 243.165L44.9968 242.983L44.8184 242.547L44.6401 242.111L44.1945 242.293L43.7489 242.475L43.9272 242.911ZM53.4292 263.454L53.8057 264.374L54.2513 264.192L54.6969 264.009L54.3204 263.089L53.9439 262.169L53.4983 262.351L53.0527 262.533L53.4292 263.454Z" fill="#DCDCDC"/>
<path fill-rule="evenodd" clip-rule="evenodd" d="M180.878 87.9735L181.041 88.4301L181.503 88.2654L181.965 88.1007L182.633 89.9751L183.301 91.8495L182.839 92.0142L182.377 92.1789L182.694 93.068L183.011 93.9572L183.473 93.7924L183.935 93.6277L184.269 94.5649L184.603 95.5021L185.065 95.3374L185.528 95.1727L186.016 96.5424L186.504 97.9122L186.966 97.7475L187.428 97.5827L187.771 98.544L188.113 99.5052L186.727 99.9993L185.341 100.493L185.657 101.383L185.974 102.272L186.436 102.107L186.899 101.942L187.233 102.88L187.567 103.817L188.029 103.652L188.491 103.487L188.654 103.944L188.816 104.4L189.279 104.236L189.741 104.071L189.903 104.528L190.066 104.984L190.553 104.811L191.039 104.637L191.202 105.094L191.365 105.551L191.827 105.386L192.289 105.221L192.452 105.678L192.614 106.134L193.077 105.97L193.539 105.805L193.71 106.285L193.881 106.766L194.343 106.601L194.806 106.437L194.968 106.893L195.131 107.35L195.593 107.185L196.055 107.02L196.381 107.934L196.706 108.847L197.193 108.673L197.679 108.5L197.842 108.957L198.005 109.413L198.467 109.248L198.929 109.084L199.263 110.021L199.597 110.958L200.059 110.793L200.521 110.629L200.847 111.542L201.172 112.455L201.634 112.29L202.097 112.126L202.431 113.063L202.765 114L203.227 113.835L203.689 113.671L204.014 114.584L204.34 115.497L204.826 115.323L205.313 115.15L205.81 116.544L206.306 117.938L206.769 117.773L207.231 117.608L209.697 124.529L212.164 131.45L211.702 131.615L211.24 131.779L211.574 132.716L211.908 133.654L211.421 133.827L210.935 134L219.645 158.44L228.356 182.879L228.842 182.705L229.328 182.532L232.129 190.39L234.93 198.248L234.443 198.421L233.957 198.595L234.616 200.445L235.276 202.296L234.814 202.46L234.352 202.625L235.002 204.451L235.653 206.278L235.191 206.442L234.729 206.607L235.226 208.001L235.723 209.395L235.26 209.559L234.798 209.724L235.124 210.637L235.449 211.55L234.987 211.715L234.525 211.88L234.696 212.36L234.868 212.841L234.381 213.014L233.895 213.188L234.057 213.644L234.22 214.101L230.474 215.436L226.728 216.771L226.566 216.315L226.403 215.858L225.479 216.187L224.554 216.517L224.383 216.036L224.212 215.556L223.263 215.894L222.314 216.232L222.152 215.775L221.989 215.319L221.551 215.475L221.113 215.631L221.447 216.568L221.781 217.505L221.319 217.67L220.857 217.835L221.182 218.748L221.508 219.661L216.351 221.499L211.195 223.337L211.032 222.88L210.869 222.424L210.383 222.597L209.896 222.77L209.733 222.314L209.571 221.857L209.109 222.022L208.646 222.187L208.475 221.706L208.304 221.225L207.866 221.381L207.428 221.537L207.599 222.018L207.771 222.499L203.538 224.007L199.306 225.516L199.135 225.035L198.964 224.554L198.501 224.719L198.039 224.884L197.876 224.427L197.714 223.971L197.252 224.135L196.789 224.3L196.301 222.93L195.813 221.561L195.351 221.725L194.889 221.89L193.57 218.189L192.251 214.489L191.764 214.662L191.278 214.835L188.477 206.977L185.676 199.119L186.163 198.946L186.649 198.772L186.315 197.835L185.981 196.898L186.444 196.733L186.906 196.569L178.683 173.499L170.461 150.43L170.923 150.265L171.386 150.1L171.231 149.668L171.077 149.235L170.615 149.4L170.153 149.565L169.656 148.171L169.159 146.777L168.697 146.942L168.235 147.107L165.768 140.186L163.302 133.265L163.764 133.1L164.226 132.935L163.729 131.542L163.233 130.148L163.695 129.983L164.157 129.818L163.994 129.362L163.831 128.905L164.294 128.741L164.756 128.576L164.259 127.182L163.762 125.788L164.224 125.624L164.687 125.459L164.361 124.546L164.036 123.633L164.522 123.459L165.009 123.286L164.675 122.349L164.341 121.411L164.803 121.247L165.265 121.082L165.102 120.625L164.939 120.169L165.402 120.004L165.864 119.839L165.701 119.383L165.538 118.926L166 118.761L166.463 118.597L166.137 117.684L165.812 116.77L166.274 116.606L166.736 116.441L166.565 115.96L166.393 115.48L166.88 115.306L167.366 115.133L167.204 114.676L167.041 114.22L167.503 114.055L167.965 113.89L167.802 113.434L167.64 112.977L168.102 112.813L168.564 112.648L168.401 112.191L168.239 111.735L168.701 111.57L169.163 111.405L169 110.949L168.837 110.492L169.786 110.154L170.735 109.816L170.084 107.99L169.433 106.163L168.484 106.501L167.535 106.839L167.03 105.422L166.525 104.004L166.987 103.839L167.449 103.674L167.124 102.761L166.798 101.848L167.285 101.675L167.771 101.501L167.437 100.564L167.103 99.6269L167.565 99.4621L168.027 99.2974L167.873 98.8649L167.719 98.4323L167.257 98.597L166.795 98.7618L166.127 96.8874L165.459 95.013L165.921 94.8483L166.383 94.6835L166.058 93.7704L165.732 92.8572L173.224 90.1871L180.716 87.5169L180.878 87.9735ZM178.408 128.423L178.905 129.816L179.367 129.652L179.829 129.487L180.317 130.857L180.805 132.226L179.881 132.556L178.957 132.885L178.785 132.405L178.614 131.924L178.152 132.089L177.69 132.253L177.21 130.908L176.731 129.562L177.193 129.397L177.655 129.233L177.321 128.295L176.987 127.358L177.449 127.194L177.911 127.029L178.408 128.423ZM201.688 134.669L201.851 135.126L200.002 135.784L198.153 136.443L197.991 135.987L197.828 135.53L199.677 134.871L201.525 134.212L201.688 134.669ZM193.597 138.582L193.76 139.038L193.322 139.194L192.884 139.35L192.722 138.894L192.559 138.437L192.997 138.281L193.435 138.125L193.597 138.582ZM203.068 179.921L203.222 180.353L202.784 180.51L202.346 180.666L202.192 180.233L202.038 179.8L202.476 179.644L202.913 179.488L203.068 179.921ZM205.738 181.569L206.064 182.482L205.626 182.638L205.188 182.794L205.026 182.338L204.863 181.881L204.401 182.046L203.939 182.211L203.776 181.754L203.613 181.297L204.513 180.977L205.413 180.656L205.738 181.569ZM204.061 182.708L204.215 183.141L203.777 183.297L203.34 183.453L203.185 183.021L203.031 182.588L203.469 182.432L203.907 182.276L204.061 182.708ZM209.716 183.807L209.879 184.264L209.417 184.429L208.955 184.594L209.28 185.507L209.606 186.42L204.011 188.414L198.417 190.408L198.263 189.975L198.108 189.543L198.57 189.378L199.033 189.213L198.861 188.733L198.69 188.252L201.025 187.42L203.36 186.587L203.197 186.131L203.035 185.674L206.294 184.513L209.554 183.351L209.716 183.807ZM210.966 184.391L211.129 184.848L210.691 185.004L210.253 185.16L210.09 184.703L209.928 184.247L210.365 184.091L210.803 183.935L210.966 184.391ZM212.224 184.999L212.379 185.432L211.941 185.588L211.503 185.744L211.349 185.311L211.195 184.879L211.632 184.722L212.07 184.566L212.224 184.999ZM209.199 191.277L209.353 191.71L208.915 191.866L208.477 192.022L208.323 191.589L208.169 191.157L208.607 191.001L209.044 190.845L209.199 191.277ZM207.35 191.936L207.504 192.369L207.066 192.525L206.629 192.681L206.474 192.248L206.32 191.816L206.758 191.66L207.196 191.504L207.35 191.936ZM211.43 191.538L211.593 191.995L212.979 191.501L214.366 191.007L214.52 191.439L214.674 191.872L212.825 192.531L210.977 193.189L210.66 192.3L210.343 191.411L210.805 191.246L211.267 191.082L211.43 191.538ZM216.417 190.763L216.571 191.196L216.109 191.36L215.647 191.525L215.493 191.092L215.339 190.66L215.801 190.495L216.263 190.33L216.417 190.763ZM211.482 194.607L211.645 195.064L211.183 195.229L210.72 195.393L210.558 194.937L210.395 194.48L210.857 194.315L211.319 194.151L211.482 194.607ZM209.585 195.283L209.747 195.74L209.31 195.896L208.872 196.052L208.709 195.596L208.546 195.139L208.984 194.983L209.422 194.827L209.585 195.283ZM214.65 197.649L214.812 198.106L214.35 198.27L213.888 198.435L214.051 198.892L214.213 199.348L212.341 200.016L210.468 200.683L210.63 201.14L210.793 201.597L210.355 201.753L209.917 201.909L209.429 200.539L208.941 199.169L209.841 198.848L210.741 198.528L210.904 198.984L211.066 199.441L211.553 199.267L212.039 199.094L211.877 198.637L211.714 198.181L213.1 197.687L214.487 197.193L214.65 197.649ZM215.899 198.233L216.062 198.689L215.624 198.846L215.186 199.002L215.024 198.545L214.861 198.088L215.299 197.932L215.737 197.776L215.899 198.233ZM215.96 201.326L216.114 201.758L215.652 201.923L215.19 202.088L215.687 203.482L216.183 204.875L215.721 205.04L215.259 205.205L214.762 203.811L214.266 202.417L213.803 202.582L213.341 202.747L213.187 202.314L213.033 201.882L214.419 201.387L215.806 200.893L215.96 201.326ZM210.374 203.344L210.537 203.8L210.999 203.636L211.461 203.471L211.624 203.928L211.787 204.384L212.249 204.219L212.711 204.055L213.036 204.968L213.362 205.881L212.462 206.202L211.562 206.523L211.399 206.066L211.236 205.609L210.75 205.783L210.263 205.956L210.101 205.5L209.938 205.043L209.476 205.208L209.014 205.372L208.688 204.459L208.363 203.546L209.287 203.217L210.211 202.887L210.374 203.344ZM208.537 207.113L208.692 207.546L208.254 207.702L207.816 207.858L207.662 207.425L207.508 206.993L207.945 206.836L208.383 206.68L208.537 207.113ZM231.085 205.306L231.239 205.738L230.777 205.903L230.315 206.068L230.161 205.635L230.007 205.203L230.469 205.038L230.931 204.873L231.085 205.306ZM229.42 209.556L229.754 210.493L230.216 210.328L230.678 210.163L230.833 210.596L230.987 211.028L230.525 211.193L230.062 211.358L230.396 212.295L230.73 213.232L230.293 213.388L229.855 213.544L229.358 212.151L228.861 210.757L227.913 211.095L226.964 211.433L226.81 211L226.656 210.568L227.118 210.403L227.58 210.238L227.409 209.758L227.237 209.277L228.162 208.948L229.086 208.618L229.42 209.556ZM219.644 214.584L219.798 215.016L218.873 215.346L217.949 215.675L217.795 215.243L217.641 214.81L218.565 214.481L219.489 214.151L219.644 214.584Z" fill="#DCDCDC"/>
</g>
<defs>
<clipPath id="clip0_863_4602">
<rect width="320.167" height="320.167" fill="white" transform="translate(0 0.194336)"/>
</clipPath>
</defs>
</svg>
