<svg width="388" height="389" viewBox="0 0 388 389" fill="none" xmlns="http://www.w3.org/2000/svg">
<rect width="387.202" height="387.202" transform="translate(0 0.974609)" fill="#FFFF00"/>
<path fill-rule="evenodd" clip-rule="evenodd" d="M225.718 54.2329L226.48 57.0731L217.797 59.3996L209.115 61.726L209.916 64.7157L210.717 67.7054L199.19 70.794L187.663 73.8826L188.424 76.7228L189.185 79.563L177.659 82.6516L166.132 85.7401L166.893 88.5803L167.654 91.4206L159.121 93.7069L150.588 95.9933L151.349 98.8335L152.111 101.674L140.584 104.762L129.057 107.851L129.818 110.691L130.579 113.531L119.052 116.62L107.526 119.708L108.327 122.698L109.128 125.688L97.6012 128.776L86.0744 131.865L86.8355 134.705L87.5965 137.545L79.0637 139.832L70.531 142.118L71.292 144.958L72.053 147.798L63.3706 150.125L54.6881 152.451L55.4491 155.292L56.2102 158.132L53.3659 158.894L50.5217 159.656L56.7301 182.826L62.9385 205.996L65.7828 205.234L68.627 204.472L89.3751 281.905L110.123 359.338L112.968 358.576L115.812 357.814L117.334 363.494L118.856 369.175L121.85 368.373L124.844 367.57L125.645 370.56L126.446 373.55L244.408 341.942L362.369 310.334L361.568 307.345L360.767 304.355L363.612 303.593L366.456 302.831L345.668 225.248L324.879 147.665L221.438 175.382L117.997 203.099L117.276 200.409L116.555 197.718L122.244 196.194L127.932 194.669L124.848 183.159L121.764 171.649L124.608 170.887L127.453 170.125L123.607 155.774L119.762 141.424L122.606 140.661L125.451 139.899L123.127 131.229L120.804 122.559L129.337 120.273L137.87 117.986L141.715 132.337L145.56 146.687L142.716 147.45L139.872 148.212L142.916 159.573L145.96 170.933L143.116 171.695L140.271 172.458L141.874 178.437L143.476 184.416L149.314 182.852L155.152 181.288L154.351 178.298L153.55 175.308L165.077 172.22L176.604 169.131L175.842 166.291L175.081 163.451L183.614 161.164L192.147 158.878L191.386 156.038L190.625 153.198L199.307 150.871L207.99 148.545L204.145 134.194L200.299 119.844L203.144 119.082L205.988 118.319L202.904 106.809L199.82 95.2988L202.664 94.5366L205.508 93.7745L203.225 85.2539L200.942 76.7333L209.475 74.4469L218.007 72.1606L221.052 83.5214L224.096 94.8822L221.251 95.6444L218.407 96.4065L222.252 110.757L226.098 125.108L223.253 125.87L220.409 126.632L221.971 132.462L223.533 138.292L229.372 136.727L235.21 135.163L234.449 132.323L233.688 129.482L245.214 126.394L256.741 123.305L255.94 120.316L255.139 117.326L263.672 115.04L272.204 112.753L271.443 109.913L270.682 107.073L282.209 103.984L293.736 100.896L292.975 98.0555L292.214 95.2153L298.052 93.6509L303.89 92.0866L302.328 86.2567L300.766 80.4268L297.772 81.229L294.778 82.0312L291.694 70.5209L288.61 59.0106L285.765 59.7727L282.921 60.5348L280.598 51.8647L278.275 43.1946L275.431 43.9567L272.586 44.7188L271.825 41.8786L271.064 39.0384L248.011 45.2155L224.957 51.3927L225.718 54.2329ZM217.466 68.9412L218.227 71.7814L220.921 71.0594L223.616 70.3374L222.855 67.4972L222.094 64.657L219.399 65.379L216.705 66.101L217.466 68.9412ZM137.408 115.066L138.169 117.906L140.864 117.184L143.558 116.462L142.797 113.622L142.036 110.782L139.342 111.504L136.647 112.226L137.408 115.066ZM151.403 305.019L152.925 310.699L155.77 309.937L158.614 309.175L159.375 312.015L160.136 314.855L177.202 310.282L194.267 305.71L193.506 302.87L192.745 300.029L195.739 299.227L198.733 298.425L197.211 292.745L195.689 287.064L172.785 293.201L149.881 299.338L151.403 305.019Z" fill="#DCDCDC"/>
<path d="M21.1693 43.4878H24.4621C24.5815 44.6093 25.0467 45.6353 25.858 46.5659C26.6693 47.4965 27.922 47.9618 29.6162 47.9618C33.5055 47.9618 35.4502 45.8978 35.4502 41.7698C35.4502 39.7177 34.9133 38.2264 33.8396 37.2958C32.8136 36.3414 31.5131 35.8642 29.9383 35.8642C29.0554 35.8642 28.1129 36.067 27.1107 36.4726C26.0847 36.8783 25.3927 37.4032 25.0348 38.0475H21.8851L23.6389 24.8403H37.1682V27.6679H26.1086L25.1064 35.0767C26.5619 33.8121 28.447 33.1798 30.7615 33.1798C33.0999 33.1798 34.9849 33.9553 36.4166 35.5063C37.8721 37.0334 38.5999 39.1093 38.5999 41.734C38.5999 44.4542 37.8244 46.6256 36.2734 48.2481C34.7224 49.8468 32.5034 50.6462 29.6162 50.6462C26.5381 50.6462 24.3548 49.7991 23.0663 48.1049C21.9448 46.6494 21.3125 45.1104 21.1693 43.4878ZM49.1039 49.8945V47.5681C50.8935 48.093 52.1582 47.2459 52.8978 45.0269C53.0887 44.478 53.22 43.798 53.2916 42.9867L53.4347 40.8034C53.4586 40.4217 53.4705 39.67 53.4705 38.5485V31.7123H66.0692V49.8945H62.9195V33.9314H56.4054V38.5485C56.4054 40.0518 56.3696 41.3164 56.2981 42.3425C56.2265 43.3446 56.0475 44.4423 55.7612 45.6353C55.3555 47.3295 54.6278 48.5344 53.5779 49.2503C52.528 49.9661 51.0367 50.1809 49.1039 49.8945ZM71.8887 56.4802V54.1537C72.7954 54.2731 73.3204 54.3327 73.4636 54.3327C74.3703 54.3327 75.0145 53.9987 75.3963 53.3305C75.6349 52.9726 75.79 52.6744 75.8616 52.4357C75.9332 52.3164 76.0883 51.9227 76.3269 51.2546L76.7564 49.8945L68.8822 31.7123H72.6403L78.4744 46.4227L83.3063 31.7123H86.456L79.226 52.042C78.6534 53.6646 78.1642 54.7264 77.7586 55.2275C76.9473 56.1819 75.8497 56.6592 74.4657 56.6592C73.392 56.6592 72.533 56.5995 71.8887 56.4802ZM88.0683 37.7969V31.7123H91.2179V37.2958C91.2179 38.2741 91.385 39.0019 91.719 39.4791C92.1247 40.0041 93.3296 40.2666 95.334 40.2666C95.5249 40.2666 96.2168 40.2427 97.4099 40.195C97.5292 40.1711 97.7798 40.1592 98.1615 40.1592H98.9132V31.7123H102.063V49.8945H98.9132V42.3783C97.8633 42.4498 96.4555 42.4856 94.6897 42.4856C91.6355 42.4856 89.7147 42.0084 88.9273 41.054C88.5693 40.5767 88.3307 40.1234 88.2114 39.6939C88.116 39.2644 88.0683 38.6321 88.0683 37.7969ZM110.36 31.7123V47.6754H117.948V31.7123H121.097V47.6754H128.685V31.7123H131.835V49.8945H107.21V31.7123H110.36ZM140.14 31.7123V46.208L149.624 31.7123H153.132V49.8945H149.982V35.3631L140.533 49.8945H136.99V31.7123H140.14ZM159.708 31.7123L164.361 38.4412L169.014 31.7123H172.521L166.15 40.4097L173.022 49.8945H169.515L164.361 42.4141L159.207 49.8945H155.699L162.571 40.4097L156.2 31.7123H159.708ZM197.174 56.516H194.024V50.3598C191.948 50.3121 190.159 50.0258 188.655 49.5008C187.176 48.952 186.031 48.2123 185.219 47.2817C184.408 46.3511 183.823 45.349 183.466 44.2752C183.108 43.2015 182.929 42.0084 182.929 40.6961C182.929 38.9542 183.299 37.3316 184.038 35.8284C185.494 32.7264 188.822 31.2112 194.024 31.2828V24.8403H197.174V31.2828C199.321 31.2351 201.218 31.5453 202.865 32.2134C203.938 32.6191 204.845 33.1559 205.585 33.824C206.396 34.4922 207.04 35.4347 207.518 36.6516C208.019 37.8446 208.269 39.1928 208.269 40.6961C208.269 43.7026 207.363 46.041 205.549 47.7112C203.736 49.3815 200.944 50.2644 197.174 50.3598V56.516ZM194.024 48.1407V33.5019C192.211 33.3826 190.528 33.7763 188.977 34.683C187.164 35.7807 186.257 37.7731 186.257 40.6603C186.257 43.0941 186.902 44.9195 188.19 46.1364C189.717 47.5203 191.662 48.1885 194.024 48.1407ZM197.174 33.5019V48.1407C200.252 48.1407 202.364 47.2698 203.509 45.5279C204.463 44.0724 204.941 42.4498 204.941 40.6603C204.941 40.0876 204.893 39.5149 204.797 38.9423C204.702 38.3457 204.475 37.6895 204.117 36.9737C203.783 36.2579 203.342 35.6494 202.793 35.1483C202.268 34.6234 201.517 34.2058 200.538 33.8956C199.584 33.5616 198.462 33.4303 197.174 33.5019ZM215.533 31.7123V46.208L225.018 31.7123H228.525V49.8945H225.376V35.3631L215.927 49.8945H212.383V31.7123H215.533ZM231.558 49.8945V47.5681C233.348 48.093 234.612 47.2459 235.352 45.0269C235.543 44.478 235.674 43.798 235.746 42.9867L235.889 40.8034C235.913 40.4217 235.925 39.67 235.925 38.5485V31.7123H248.523V49.8945H245.374V33.9314H238.859V38.5485C238.859 40.0518 238.824 41.3164 238.752 42.3425C238.68 43.3446 238.502 44.4423 238.215 45.6353C237.81 47.3295 237.082 48.5344 236.032 49.2503C234.982 49.9661 233.491 50.1809 231.558 49.8945ZM253.663 49.8945V31.7123H256.812V38.9423H261.358C263.147 38.9423 264.687 39.2047 265.975 39.7297C267.765 40.3739 268.659 41.8772 268.659 44.2394C268.659 46.1961 268.087 47.6516 266.941 48.606C266.464 48.9878 265.903 49.2741 265.259 49.465C264.4 49.7514 263.458 49.8945 262.432 49.8945H253.663ZM260.642 41.1613H256.812V47.6754H261.179C262.658 47.6754 263.744 47.3772 264.436 46.7806C265.128 46.0887 265.45 45.2416 265.402 44.2394C265.402 43.1418 265.044 42.3305 264.329 41.8056C264.09 41.6386 263.708 41.4954 263.183 41.3761C262.611 41.2329 261.859 41.1613 260.928 41.1613H260.642ZM283.788 49.8945H281.354L275.198 35.2915H275.126L275.198 36.2579V49.8945H272.048V31.7123H276.379L282.571 46.4943L288.763 31.7123H293.093V49.8945H289.944V36.2579L290.051 35.2915H289.944L283.788 49.8945ZM297.69 44.3826C297.069 41.8295 297.093 39.3598 297.761 36.9737C298.43 34.5876 299.837 32.8815 301.985 31.8555C303.178 31.2828 304.574 30.9965 306.172 30.9965C307.771 30.9965 309.167 31.2828 310.36 31.8555C312.508 32.8577 313.927 34.6472 314.619 37.2243C314.93 38.4173 315.085 39.6223 315.085 40.8392C315.109 42.0323 314.965 43.2134 314.655 44.3826C314.369 45.5279 313.856 46.5778 313.116 47.5323C312.4 48.4867 311.482 49.2383 310.36 49.7872C309.143 50.336 307.747 50.6104 306.172 50.6104C304.598 50.6104 303.202 50.336 301.985 49.7872C299.909 48.785 298.477 46.9835 297.69 44.3826ZM301.018 37.1885C300.708 38.1429 300.553 39.336 300.553 40.7676C300.553 42.1754 300.708 43.3804 301.018 44.3826C301.329 45.3848 301.687 46.1364 302.092 46.6375C302.951 47.5919 303.93 48.1527 305.027 48.3197C305.791 48.439 306.554 48.439 307.318 48.3197C307.652 48.2958 308.117 48.1288 308.714 47.8186C309.358 47.4846 309.883 47.067 310.289 46.5659C310.694 46.0648 311.04 45.337 311.327 44.3826C311.637 43.3804 311.792 42.1754 311.792 40.7676C311.792 39.336 311.637 38.1429 311.327 37.1885C310.992 36.1386 310.623 35.3869 310.217 34.9336C309.835 34.4802 309.358 34.0984 308.785 33.7882C308.213 33.4781 307.723 33.2872 307.318 33.2156C306.554 33.0963 305.791 33.0963 305.027 33.2156C304.693 33.2394 304.216 33.4184 303.595 33.7525C302.379 34.349 301.52 35.4943 301.018 37.1885ZM319.234 49.8945V31.7123H327.896C331.738 31.7123 333.658 33.1559 333.658 36.0431C333.658 38.119 332.561 39.5388 330.365 40.3023V40.4097C331.845 40.7676 332.871 41.3403 333.444 42.1277C334.04 42.9151 334.338 43.9292 334.338 45.17C334.338 47.1505 333.611 48.4629 332.155 49.1071C330.962 49.6321 329.506 49.8945 327.788 49.8945H319.234ZM326.894 33.9314H322.384V39.3002H326.751C328.015 39.3002 328.946 39.0496 329.542 38.5485C330.163 38.0236 330.473 37.3436 330.473 36.5084C330.473 34.7904 329.28 33.9314 326.894 33.9314ZM326.894 41.5193H322.384V47.6754H327.001C329.721 47.6754 331.081 46.7449 331.081 44.8837C331.081 42.6407 329.685 41.5193 326.894 41.5193ZM21.5272 83.3826C20.9068 80.8295 20.9307 78.3598 21.5988 75.9737C22.2669 73.5876 23.6747 71.8815 25.8222 70.8555C27.0153 70.2828 28.4112 69.9965 30.0099 69.9965C31.6086 69.9965 33.0044 70.2828 34.1975 70.8555C36.345 71.8577 37.7647 73.6472 38.4567 76.2243C38.7669 77.4173 38.922 78.6223 38.922 79.8392C38.9459 81.0323 38.8027 82.2134 38.4925 83.3826C38.2062 84.5279 37.6932 85.5778 36.9535 86.5323C36.2376 87.4867 35.319 88.2383 34.1975 88.7872C32.9806 89.336 31.5847 89.6104 30.0099 89.6104C28.435 89.6104 27.0392 89.336 25.8222 88.7872C23.7463 87.785 22.3146 85.9835 21.5272 83.3826ZM24.8559 76.1885C24.5457 77.1429 24.3906 78.336 24.3906 79.7676C24.3906 81.1754 24.5457 82.3804 24.8559 83.3826C25.1661 84.3848 25.524 85.1364 25.9296 85.6375C26.7886 86.5919 27.7669 87.1527 28.8645 87.3197C29.6281 87.439 30.3916 87.439 31.1552 87.3197C31.4893 87.2958 31.9546 87.1288 32.5511 86.8186C33.1953 86.4846 33.7203 86.067 34.1259 85.5659C34.5316 85.0648 34.8775 84.337 35.1639 83.3826C35.4741 82.3804 35.6292 81.1754 35.6292 79.7676C35.6292 78.336 35.4741 77.1429 35.1639 76.1885C34.8298 75.1386 34.46 74.3869 34.0543 73.9336C33.6726 73.4802 33.1953 73.0984 32.6227 72.7882C32.05 72.4781 31.5608 72.2872 31.1552 72.2156C30.3916 72.0963 29.6281 72.0963 28.8645 72.2156C28.5305 72.2394 28.0533 72.4184 27.4329 72.7525C26.2159 73.349 25.3569 74.4943 24.8559 76.1885ZM63.7735 72.9314H54.575V88.8945H51.4254V70.7123H66.9232V88.8945H63.7735V72.9314ZM85.1823 83.6331H88.1888C87.9024 85.2318 87.127 86.6277 85.8623 87.8208C84.5977 89.0138 82.7246 89.6104 80.243 89.6104C76.8786 89.6104 74.409 88.5008 72.8341 86.2817C72.0467 85.1125 71.5337 83.8598 71.2951 82.5236C71.1281 81.593 71.0445 80.7102 71.0445 79.875C71.0445 78.2763 71.2831 76.7731 71.7604 75.3653C72.0706 74.3631 72.5239 73.4922 73.1205 72.7525C73.7647 71.965 74.6834 71.3089 75.8764 70.7839C77.0695 70.259 78.4176 69.9965 79.9209 69.9965C82.5933 69.9965 84.6096 70.7362 85.9697 72.2156C86.5424 72.836 87.0077 73.6234 87.3656 74.5778C87.8905 75.9618 88.2126 77.644 88.3319 79.6245C88.3319 79.6961 88.3319 79.8512 88.3319 80.0898C88.3558 80.3284 88.3677 80.4715 88.3677 80.5193H74.3732C74.3732 82.3327 74.8504 83.9314 75.8048 85.3154C76.7593 86.6993 78.2029 87.3913 80.1356 87.3913C81.5196 87.3913 82.653 87.0453 83.5359 86.3533C84.4187 85.6613 84.9675 84.7546 85.1823 83.6331ZM74.3732 78.3002H85.0391C85.0152 76.8924 84.6812 75.5919 84.0369 74.3989C83.2972 72.9433 81.9491 72.2156 79.9925 72.2156C77.7734 72.2156 76.2463 72.9553 75.4111 74.4347C74.7192 75.6277 74.3732 76.9162 74.3732 78.3002ZM92.495 95.516V70.7123H95.4299V73.2177H95.5373C96.9689 71.0702 98.9733 69.9965 101.55 69.9965C103.913 69.9965 105.869 70.8197 107.42 72.4661C108.971 74.1364 109.747 76.5822 109.747 79.8034C109.747 83.0963 108.959 85.554 107.384 87.1765C105.833 88.7991 103.913 89.6104 101.622 89.6104C100.906 89.6104 100.035 89.4553 99.0091 89.1451C97.5058 88.6917 96.3843 87.7373 95.6446 86.2817V95.516H92.495ZM95.4299 79.875C95.4299 82.4043 96.0026 84.3013 97.1479 85.5659C98.341 86.7828 99.6414 87.3913 101.049 87.3913C102.529 87.3913 103.793 86.7947 104.843 85.6017C105.893 84.3609 106.418 82.4282 106.418 79.8034C106.418 77.4173 105.929 75.5561 104.951 74.2199C103.996 72.8837 102.636 72.2156 100.87 72.2156C99.9397 72.2156 99.0687 72.4661 98.2574 72.9672C96.3724 74.0887 95.4299 76.3913 95.4299 79.875ZM126.951 83.6331H129.957C129.671 85.2318 128.896 86.6277 127.631 87.8208C126.366 89.0138 124.493 89.6104 122.012 89.6104C118.647 89.6104 116.178 88.5008 114.603 86.2817C113.815 85.1125 113.302 83.8598 113.064 82.5236C112.897 81.593 112.813 80.7102 112.813 79.875C112.813 78.2763 113.052 76.7731 113.529 75.3653C113.839 74.3631 114.293 73.4922 114.889 72.7525C115.533 71.965 116.452 71.3089 117.645 70.7839C118.838 70.259 120.186 69.9965 121.69 69.9965C124.362 69.9965 126.378 70.7362 127.738 72.2156C128.311 72.836 128.776 73.6234 129.134 74.5778C129.659 75.9618 129.981 77.644 130.101 79.6245C130.101 79.6961 130.101 79.8512 130.101 80.0898C130.124 80.3284 130.136 80.4715 130.136 80.5193H116.142C116.142 82.3327 116.619 83.9314 117.574 85.3154C118.528 86.6993 119.972 87.3913 121.904 87.3913C123.288 87.3913 124.422 87.0453 125.305 86.3533C126.187 85.6613 126.736 84.7546 126.951 83.6331ZM116.142 78.3002H126.808C126.784 76.8924 126.45 75.5919 125.806 74.3989C125.066 72.9433 123.718 72.2156 121.761 72.2156C119.542 72.2156 118.015 72.9553 117.18 74.4347C116.488 75.6277 116.142 76.9162 116.142 78.3002ZM134.264 95.516V70.7123H137.199V73.2177H137.306C138.738 71.0702 140.742 69.9965 143.319 69.9965C145.681 69.9965 147.638 70.8197 149.189 72.4661C150.74 74.1364 151.515 76.5822 151.515 79.8034C151.515 83.0963 150.728 85.554 149.153 87.1765C147.602 88.7991 145.681 89.6104 143.391 89.6104C142.675 89.6104 141.804 89.4553 140.778 89.1451C139.275 88.6917 138.153 87.7373 137.413 86.2817V95.516H134.264ZM137.199 79.875C137.199 82.4043 137.771 84.3013 138.917 85.5659C140.11 86.7828 141.41 87.3913 142.818 87.3913C144.297 87.3913 145.562 86.7947 146.612 85.6017C147.662 84.3609 148.187 82.4282 148.187 79.8034C148.187 77.4173 147.697 75.5561 146.719 74.2199C145.765 72.8837 144.405 72.2156 142.639 72.2156C141.708 72.2156 140.837 72.4661 140.026 72.9672C138.141 74.0887 137.199 76.3913 137.199 79.875ZM158.018 76.0811H155.011C155.011 74.6494 155.489 73.3371 156.443 72.144C157.588 70.7123 159.688 69.9965 162.742 69.9965C164.532 69.9965 166.107 70.3544 167.467 71.0702C168.254 71.452 168.875 72.0843 169.328 72.9672C169.781 73.8501 169.996 74.9 169.972 76.1169L169.793 84.5279C169.793 85.2199 169.865 85.7568 170.008 86.1386C170.223 86.5203 170.784 86.6993 171.69 86.6754V88.8945C171.332 88.99 170.855 89.0377 170.259 89.0377C169.209 89.0377 168.445 88.8587 167.968 88.5008C167.515 88.1429 167.193 87.439 167.002 86.3891C165.832 88.5366 163.757 89.6104 160.774 89.6104C158.722 89.6104 157.135 89.157 156.014 88.2503C154.916 87.3197 154.367 85.9477 154.367 84.1342C154.367 82.4162 154.988 81.1158 156.228 80.2329C157.469 79.3023 159.819 78.682 163.279 78.3718C164.878 78.2525 165.832 78.0974 166.143 77.9065C166.596 77.5963 166.823 76.9162 166.823 75.8663C166.823 73.4325 165.463 72.2156 162.742 72.2156C159.521 72.2156 157.946 73.5041 158.018 76.0811ZM166.751 81.1277L166.823 79.5887C166.465 79.8512 165.94 80.0659 165.248 80.2329C164.198 80.3045 163.387 80.388 162.814 80.4835C160.834 80.8175 159.629 81.0919 159.199 81.3067C158.149 81.8078 157.624 82.7145 157.624 84.0269C157.624 85.0767 157.934 85.9 158.555 86.4965C159.199 87.093 160.058 87.3913 161.132 87.3913C161.824 87.3913 162.456 87.2958 163.029 87.1049C163.625 86.9141 164.198 86.6039 164.747 86.1744C165.319 85.721 165.773 85.0648 166.107 84.2058C166.465 83.3468 166.68 82.3208 166.751 81.1277ZM188.324 62.6592H191.008C190.913 64.401 190.102 65.5583 188.575 66.131C187.739 66.4173 187.024 66.6082 186.427 66.7037C183.755 67.0377 182.204 67.2644 181.774 67.3837C180.152 67.8371 178.911 68.6603 178.052 69.8533C177.193 71.0225 176.739 72.7047 176.692 74.9H176.763C177.909 71.8219 180.259 70.2828 183.814 70.2828C186.701 70.2828 188.861 71.2373 190.293 73.1462C191.748 75.0312 192.476 77.3457 192.476 80.0898C192.476 82.7145 191.724 84.9574 190.221 86.8186C188.718 88.6798 186.487 89.6104 183.528 89.6104C180.259 89.6104 177.837 88.3696 176.262 85.888C175.475 84.5279 174.938 83.0008 174.652 81.3067C174.461 79.9705 174.365 78.6462 174.365 77.3338C174.365 72.7286 175.069 69.5073 176.477 67.67C177.718 66.0713 179.4 65.0453 181.524 64.5919C183.528 64.1386 185.222 63.8761 186.606 63.8045C187.537 63.6852 188.109 63.3034 188.324 62.6592ZM177.694 80.3045C177.694 81.8793 178.052 83.3945 178.768 84.8501C179.603 86.5442 181.166 87.3913 183.456 87.3913C185.27 87.3913 186.666 86.7828 187.644 85.5659C188.646 84.3251 189.147 82.619 189.147 80.4477C189.147 78.6581 188.837 76.9997 188.217 75.4726C187.429 73.4922 185.842 72.5019 183.456 72.5019C181.07 72.5019 179.46 73.4683 178.624 75.401C178.004 76.8804 177.694 78.5149 177.694 80.3045ZM196.012 83.3826C195.392 80.8295 195.415 78.3598 196.084 75.9737C196.752 73.5876 198.159 71.8815 200.307 70.8555C201.5 70.2828 202.896 69.9965 204.495 69.9965C206.093 69.9965 207.489 70.2828 208.682 70.8555C210.83 71.8577 212.249 73.6472 212.941 76.2243C213.252 77.4173 213.407 78.6223 213.407 79.8392C213.431 81.0323 213.287 82.2134 212.977 83.3826C212.691 84.5279 212.178 85.5778 211.438 86.5323C210.722 87.4867 209.804 88.2383 208.682 88.7872C207.465 89.336 206.069 89.6104 204.495 89.6104C202.92 89.6104 201.524 89.336 200.307 88.7872C198.231 87.785 196.799 85.9835 196.012 83.3826ZM199.341 76.1885C199.03 77.1429 198.875 78.336 198.875 79.7676C198.875 81.1754 199.03 82.3804 199.341 83.3826C199.651 84.3848 200.009 85.1364 200.414 85.6375C201.273 86.5919 202.252 87.1527 203.349 87.3197C204.113 87.439 204.876 87.439 205.64 87.3197C205.974 87.2958 206.439 87.1288 207.036 86.8186C207.68 86.4846 208.205 86.067 208.611 85.5659C209.016 85.0648 209.362 84.337 209.649 83.3826C209.959 82.3804 210.114 81.1754 210.114 79.7676C210.114 78.336 209.959 77.1429 209.649 76.1885C209.315 75.1386 208.945 74.3869 208.539 73.9336C208.157 73.4802 207.68 73.0984 207.107 72.7882C206.535 72.4781 206.046 72.2872 205.64 72.2156C204.876 72.0963 204.113 72.0963 203.349 72.2156C203.015 72.2394 202.538 72.4184 201.918 72.7525C200.701 73.349 199.842 74.4943 199.341 76.1885ZM220.625 88.8945V72.9314H214.326V70.7123H230.075V72.9314H223.775V88.8945H220.625ZM235.841 70.7123V78.6581L243.607 70.7123H247.294L238.776 79.1592L247.759 88.8945H244.001L235.841 79.8034V88.8945H232.691V70.7123H235.841ZM263.302 83.6331H266.309C266.022 85.2318 265.247 86.6277 263.982 87.8208C262.718 89.0138 260.844 89.6104 258.363 89.6104C254.998 89.6104 252.529 88.5008 250.954 86.2817C250.167 85.1125 249.654 83.8598 249.415 82.5236C249.248 81.593 249.164 80.7102 249.164 79.875C249.164 78.2763 249.403 76.7731 249.88 75.3653C250.19 74.3631 250.644 73.4922 251.24 72.7525C251.885 71.965 252.803 71.3089 253.996 70.7839C255.189 70.259 256.537 69.9965 258.041 69.9965C260.713 69.9965 262.729 70.7362 264.09 72.2156C264.662 72.836 265.127 73.6234 265.485 74.5778C266.01 75.9618 266.332 77.644 266.452 79.6245C266.452 79.6961 266.452 79.8512 266.452 80.0898C266.476 80.3284 266.488 80.4715 266.488 80.5193H252.493C252.493 82.3327 252.97 83.9314 253.925 85.3154C254.879 86.6993 256.323 87.3913 258.255 87.3913C259.639 87.3913 260.773 87.0453 261.656 86.3533C262.539 85.6613 263.087 84.7546 263.302 83.6331ZM252.493 78.3002H263.159C263.135 76.8924 262.801 75.5919 262.157 74.3989C261.417 72.9433 260.069 72.2156 258.112 72.2156C255.893 72.2156 254.366 72.9553 253.531 74.4347C252.839 75.6277 252.493 76.9162 252.493 78.3002ZM34.448 111.931H25.2496V127.895H22.0999V109.712H37.5977V127.895H34.448V111.931ZM40.6453 127.895V125.568C42.4349 126.093 43.6996 125.246 44.4393 123.027C44.6301 122.478 44.7614 121.798 44.833 120.987L44.9761 118.803C45 118.422 45.0119 117.67 45.0119 116.549V109.712H57.6106V127.895H54.4609V111.931H47.9468V116.549C47.9468 118.052 47.9111 119.316 47.8395 120.342C47.7679 121.345 47.5889 122.442 47.3026 123.635C46.897 125.329 46.1692 126.534 45.1193 127.25C44.0694 127.966 42.5781 128.181 40.6453 127.895ZM65.1481 115.081H62.1416C62.1416 113.649 62.6188 112.337 63.5733 111.144C64.7186 109.712 66.8184 108.996 69.8726 108.996C71.6622 108.996 73.2371 109.354 74.5971 110.07C75.3846 110.452 76.005 111.084 76.4583 111.967C76.9117 112.85 77.1264 113.9 77.1026 115.117L76.9236 123.528C76.9236 124.22 76.9952 124.757 77.1384 125.139C77.3531 125.52 77.9138 125.699 78.8206 125.675V127.895C78.4627 127.99 77.9854 128.038 77.3889 128.038C76.339 128.038 75.5755 127.859 75.0982 127.501C74.6449 127.143 74.3227 126.439 74.1319 125.389C72.9627 127.537 70.8867 128.61 67.9041 128.61C65.852 128.61 64.2653 128.157 63.1438 127.25C62.0462 126.32 61.4974 124.948 61.4974 123.134C61.4974 121.416 62.1178 120.116 63.3585 119.233C64.5993 118.302 66.9496 117.682 70.4095 117.372C72.0082 117.252 72.9627 117.097 73.2729 116.906C73.7262 116.596 73.9529 115.916 73.9529 114.866C73.9529 112.432 72.5928 111.216 69.8726 111.216C66.6514 111.216 65.0765 112.504 65.1481 115.081ZM73.8813 120.128L73.9529 118.589C73.595 118.851 73.07 119.066 72.3781 119.233C71.3282 119.305 70.5169 119.388 69.9442 119.483C67.9637 119.818 66.7588 120.092 66.3293 120.307C65.2794 120.808 64.7544 121.714 64.7544 123.027C64.7544 124.077 65.0646 124.9 65.685 125.496C66.3293 126.093 67.1883 126.391 68.262 126.391C68.954 126.391 69.5863 126.296 70.159 126.105C70.7555 125.914 71.3282 125.604 71.877 125.174C72.4496 124.721 72.903 124.065 73.2371 123.206C73.595 122.347 73.8097 121.321 73.8813 120.128ZM95.2753 121.416H98.2818C98.1863 122.8 97.6614 124.256 96.7069 125.783C96.182 126.642 95.3588 127.334 94.2373 127.859C93.1397 128.36 91.8512 128.61 90.3718 128.61C89.8707 128.61 89.5128 128.598 89.298 128.575C88.2482 128.527 87.1744 128.252 86.0768 127.751C83.0226 126.224 81.4954 123.194 81.4954 118.66C81.4954 116.274 82.0443 114.151 83.1419 112.289C84.502 110.094 86.8403 108.996 90.157 108.996C92.4954 108.996 94.3566 109.593 95.7406 110.786C97.1245 111.955 97.9239 113.494 98.1386 115.403H95.1321C94.6549 112.611 93.0204 111.216 90.2286 111.216C88.4152 111.216 87.0551 111.884 86.1484 113.22C85.2655 114.532 84.8241 116.346 84.8241 118.66C84.8241 120.903 85.2894 122.752 86.22 124.208C87.1505 125.664 88.5584 126.391 90.4434 126.391C92.0659 126.391 93.2471 125.878 93.9868 124.852C94.7742 123.826 95.2037 122.681 95.2753 121.416ZM105.7 127.895V111.931H99.4011V109.712H115.149V111.931H108.85V127.895H105.7ZM120.706 109.712V124.208L130.191 109.712H133.698V127.895H130.549V113.363L121.1 127.895H117.556V109.712H120.706ZM141.992 109.712V117.658L149.759 109.712H153.446L144.927 118.159L153.911 127.895H150.153L141.992 118.803V127.895H138.842V109.712H141.992ZM158.752 115.081H155.745C155.745 113.649 156.223 112.337 157.177 111.144C158.322 109.712 160.422 108.996 163.476 108.996C165.266 108.996 166.841 109.354 168.201 110.07C168.988 110.452 169.609 111.084 170.062 111.967C170.515 112.85 170.73 113.9 170.706 115.117L170.527 123.528C170.527 124.22 170.599 124.757 170.742 125.139C170.957 125.52 171.518 125.699 172.424 125.675V127.895C172.066 127.99 171.589 128.038 170.993 128.038C169.943 128.038 169.179 127.859 168.702 127.501C168.249 127.143 167.927 126.439 167.736 125.389C166.566 127.537 164.491 128.61 161.508 128.61C159.456 128.61 157.869 128.157 156.748 127.25C155.65 126.32 155.101 124.948 155.101 123.134C155.101 121.416 155.722 120.116 156.962 119.233C158.203 118.302 160.553 117.682 164.013 117.372C165.612 117.252 166.566 117.097 166.877 116.906C167.33 116.596 167.557 115.916 167.557 114.866C167.557 112.432 166.197 111.216 163.476 111.216C160.255 111.216 158.68 112.504 158.752 115.081ZM167.485 120.128L167.557 118.589C167.199 118.851 166.674 119.066 165.982 119.233C164.932 119.305 164.121 119.388 163.548 119.483C161.568 119.818 160.363 120.092 159.933 120.307C158.883 120.808 158.358 121.714 158.358 123.027C158.358 124.077 158.668 124.9 159.289 125.496C159.933 126.093 160.792 126.391 161.866 126.391C162.558 126.391 163.19 126.296 163.763 126.105C164.359 125.914 164.932 125.604 165.481 125.174C166.053 124.721 166.507 124.065 166.841 123.206C167.199 122.347 167.414 121.321 167.485 120.128Z" fill="black"/>
</svg>
