<svg width="388" height="388" viewBox="0 0 388 388" fill="none" xmlns="http://www.w3.org/2000/svg">
<g clip-path="url(#clip0_895_7374)">
<rect width="387.202" height="387.202" transform="translate(0 0.0341797)" fill="white"/>
<path fill-rule="evenodd" clip-rule="evenodd" d="M227.185 86.5819L226.454 89.3107L215.407 86.3506L204.36 83.3905L203.629 86.1193L202.897 88.8481L197.302 87.3488L191.707 85.8495L190.976 88.5783L190.245 91.3071L184.793 89.8462L179.341 88.3854L178.571 91.2578L177.801 94.1302L175.076 93.3998L172.35 92.6694L171.618 95.3981L170.887 98.1269L168.161 97.3965L165.435 96.6661L164.704 99.3949L163.973 102.124L161.104 101.355L158.234 100.586L157.503 103.315L156.772 106.043L154.046 105.313L151.32 104.583L150.589 107.311L149.858 110.04L147.132 109.31L144.406 108.579L143.636 111.452L142.867 114.324L140.141 113.594L137.415 112.863L136.684 115.592L135.952 118.321L133.226 117.59L130.501 116.86L129.038 122.318L127.576 127.775L124.706 127.006L121.837 126.237L120.336 131.839L118.835 137.44L116.109 136.709L113.384 135.979L111.921 141.436L110.459 146.894L107.733 146.164L105.007 145.433L102.044 156.492L99.0807 167.55L96.3548 166.82L93.6288 166.09L86.9713 190.936L80.3138 215.782L83.0398 216.512L85.7657 217.243L82.8025 228.301L79.8394 239.36L82.5653 240.091L85.2912 240.821L83.7904 246.422L82.2896 252.023L85.0155 252.754L87.7414 253.484L86.2791 258.942L84.8167 264.399L87.6861 265.168L90.5555 265.937L89.0932 271.394L87.6309 276.852L90.3568 277.582L93.0827 278.313L92.3131 281.185L91.5434 284.057L94.2693 284.788L96.9953 285.518L96.2641 288.247L95.5329 290.976L98.2588 291.706L100.985 292.437L100.254 295.165L99.5224 297.894L102.248 298.625L104.974 299.355L104.243 302.084L103.512 304.813L106.381 305.581L109.251 306.35L108.52 309.079L107.788 311.808L113.24 313.269L118.692 314.729L117.922 317.602L117.153 320.474L119.879 321.205L122.605 321.935L121.873 324.664L121.142 327.393L126.738 328.892L132.333 330.391L131.602 333.12L130.871 335.849L139.048 338.04L147.226 340.231L146.495 342.96L145.764 345.689L156.811 348.649L167.858 351.609L167.127 354.338L166.396 357.066L185.764 362.256L205.133 367.446L205.864 364.717L206.595 361.988L220.368 365.679L234.141 369.369L234.872 366.64L235.604 363.912L241.199 365.411L246.794 366.91L247.525 364.181L248.257 361.453L253.708 362.914L259.16 364.374L259.891 361.646L260.623 358.917L266.075 360.378L271.526 361.838L272.296 358.966L273.066 356.094L275.935 356.863L278.804 357.631L279.536 354.903L280.267 352.174L282.993 352.904L285.719 353.635L286.45 350.906L287.181 348.177L289.907 348.908L292.633 349.638L293.364 346.909L294.095 344.18L296.821 344.911L299.547 345.641L300.278 342.912L301.009 340.184L303.735 340.914L306.461 341.645L307.231 338.772L308.001 335.9L310.87 336.669L313.739 337.437L315.202 331.98L316.664 326.522L319.39 327.253L322.116 327.983L323.578 322.526L325.041 317.068L327.766 317.799L330.492 318.529L331.993 312.928L333.494 307.327L336.22 308.057L338.946 308.788L341.139 300.601L343.333 292.415L346.014 293.133L348.695 293.852L350.095 289.378C351.917 283.554 363.03 242.083 364.149 236.931L365.013 232.957L362.331 232.239L359.65 231.52L362.613 220.462L365.576 209.403L362.85 208.673L360.124 207.942L361.625 202.341L363.126 196.74L360.4 196.009L357.674 195.279L359.136 189.821L360.599 184.364L357.873 183.634L355.147 182.903L355.878 180.174L356.609 177.446L353.74 176.677L350.87 175.908L351.601 173.179L352.333 170.45L349.607 169.72L346.881 168.99L348.382 163.388L349.882 157.787L347.156 157.057L344.431 156.326L345.162 153.598L345.893 150.869L340.441 149.408L334.989 147.947L335.72 145.218L336.452 142.49L333.582 141.721L330.713 140.952L331.444 138.223L332.175 135.494L329.449 134.764L326.723 134.034L327.493 131.161L328.263 128.289L322.811 126.828L317.359 125.367L318.09 122.638L318.821 119.91L313.226 118.41L307.63 116.911L308.362 114.182L309.093 111.454L298.189 108.532L287.285 105.61L288.017 102.882L288.748 100.153L258.332 92.003L227.917 83.8532L227.185 86.5819ZM248.036 118.953L246.535 124.554L243.809 123.823L241.083 123.093L239.621 128.551L238.158 134.008L235.432 133.278L232.706 132.547L230.474 140.877L228.242 149.207L225.516 148.477L222.791 147.746L220.597 155.933L218.404 164.119L215.678 163.388L212.952 162.658L212.22 165.387L211.489 168.116L236.166 174.728L260.843 181.34L262.305 175.882L263.768 170.425L260.898 169.656L258.029 168.887L260.222 160.701L262.416 152.514L259.69 151.784L256.964 151.054L258.465 145.452L259.966 139.851L257.24 139.121L254.514 138.391L255.976 132.933L257.438 127.475L254.713 126.745L251.987 126.015L253.487 120.413L254.988 114.812L252.262 114.082L249.536 113.352L248.036 118.953ZM208.816 111.522L208.085 114.251L202.633 112.79L197.181 111.33L196.45 114.058L195.719 116.787L190.123 115.288L184.528 113.789L183.797 116.517L183.066 119.246L180.34 118.516L177.614 117.785L176.883 120.514L176.152 123.243L173.426 122.512L170.7 121.782L169.93 124.654L169.16 127.527L166.435 126.796L163.709 126.066L162.977 128.795L162.246 131.523L159.377 130.755L156.507 129.986L155.776 132.715L155.045 135.443L152.319 134.713L149.593 133.982L148.862 136.711L148.131 139.44L145.405 138.71L142.679 137.979L141.217 143.437L139.754 148.894L164.431 155.506L189.108 162.119L191.34 153.789L193.572 145.459L196.298 146.189L199.024 146.92L201.217 138.733L203.411 130.547L206.137 131.277L208.863 132.008L211.095 123.678L213.327 115.348L216.196 116.117L219.066 116.886L219.758 114.3L220.451 111.715L214.999 110.254L209.547 108.794L208.816 111.522ZM280.589 130.6L279.897 133.185L282.623 133.916L285.349 134.646L283.886 140.104L282.424 145.561L285.15 146.292L287.876 147.022L284.913 158.081L281.949 169.139L284.675 169.87L287.401 170.6L285.169 178.93L282.937 187.26L307.614 193.872L332.291 200.484L333.753 195.027L335.216 189.569L332.49 188.839L329.764 188.108L330.495 185.38L331.226 182.651L328.5 181.92L325.774 181.19L326.505 178.461L327.237 175.732L324.511 175.002L321.785 174.272L322.516 171.543L323.247 168.814L320.378 168.045L317.508 167.276L318.278 164.404L319.048 161.532L316.322 160.801L313.596 160.071L314.327 157.342L315.058 154.613L312.332 153.883L309.606 153.152L310.337 150.424L311.069 147.695L305.617 146.234L300.165 144.773L300.896 142.045L301.627 139.316L296.032 137.817L290.437 136.317L291.168 133.588L291.899 130.86L286.591 129.437L281.282 128.015L280.589 130.6ZM121.424 173.691L119.923 179.292L117.053 178.523L114.184 177.755L109.797 194.127L105.41 210.5L108.279 211.269L111.149 212.037L108.917 220.367L106.685 228.697L134.087 236.04L161.49 243.382L169.61 213.079L177.73 182.775L150.327 175.433L122.924 168.09L121.424 173.691ZM191.704 218.999L183.584 249.303L213.857 257.414L244.129 265.525L252.249 235.222L260.368 204.918L230.096 196.807L199.824 188.695L191.704 218.999ZM274.343 241.142L266.223 271.446L293.769 278.827L321.316 286.207L322.816 280.606L324.317 275.005L327.043 275.736L329.769 276.466L335.618 254.636L341.468 232.806L338.742 232.075L336.016 231.345L336.786 228.473L337.555 225.6L310.009 218.219L282.463 210.838L274.343 241.142ZM87.1085 190.973C83.4257 204.717 81.9429 210.391 83.8135 203.582C85.6839 196.772 88.6971 185.527 90.5095 178.592C92.3219 171.657 90.7913 177.228 87.1085 190.973ZM110.931 256.465L110.2 259.194L112.926 259.924L115.652 260.655L114.189 266.112L112.727 271.57L115.453 272.3L118.179 273.031L117.448 275.759L116.716 278.488L119.586 279.257L122.455 280.026L121.686 282.898L120.916 285.771L123.642 286.501L126.368 287.231L125.637 289.96L124.905 292.689L127.631 293.419L130.357 294.15L129.626 296.879L128.895 299.607L134.347 301.068L139.799 302.529L139.067 305.258L138.336 307.986L143.932 309.486L149.527 310.985L148.796 313.714L148.065 316.443L153.516 317.903L158.968 319.364L158.199 322.237L157.429 325.109L160.155 325.839L162.881 326.57L164.343 321.112L165.806 315.655L162.936 314.886L160.067 314.117L161.529 308.659L162.991 303.202L160.265 302.471L157.54 301.741L160.503 290.682L163.466 279.624L160.74 278.893L158.014 278.163L159.515 272.562L161.016 266.961L136.339 260.348L111.662 253.736L110.931 256.465ZM182.666 275.686L181.935 278.415L184.661 279.146L187.386 279.876L185.193 288.062L182.999 296.249L185.725 296.979L188.451 297.709L186.219 306.039L183.987 314.369L186.713 315.1L189.439 315.83L187.977 321.288L186.514 326.745L189.24 327.476L191.966 328.206L191.197 331.078L190.427 333.951L193.153 334.681L195.879 335.412L196.649 332.539L197.418 329.667L200.144 330.397L202.87 331.128L204.332 325.67L205.795 320.213L208.521 320.943L211.247 321.673L212.709 316.216L214.171 310.758L216.897 311.489L219.623 312.219L221.855 303.889L224.087 295.559L226.957 296.328L229.826 297.097L231.288 291.639L232.751 286.182L208.074 279.57L183.397 272.958L182.666 275.686ZM252.613 300.432L250.381 308.762L247.655 308.032L244.929 307.301L242.697 315.631L240.465 323.961L237.739 323.231L235.013 322.5L232.858 330.543L230.703 338.585L236.012 340.008L241.32 341.43L242.051 338.701L242.782 335.973L248.378 337.472L253.973 338.971L254.704 336.242L255.435 333.514L260.887 334.974L266.339 336.435L267.07 333.707L267.801 330.978L270.527 331.708L273.253 332.439L273.984 329.71L274.716 326.981L277.585 327.75L280.454 328.519L281.224 325.646L281.994 322.774L284.72 323.504L287.446 324.235L288.177 321.506L288.908 318.777L291.634 319.508L294.36 320.238L295.822 314.781L297.284 309.323L300.01 310.053L302.736 310.784L303.467 308.055L304.199 305.326L279.522 298.714L254.845 292.102L252.613 300.432ZM224.443 340.141L223.712 342.869L226.294 343.561L228.877 344.253L229.608 341.525L230.339 338.796L227.757 338.104L225.174 337.412L224.443 340.141Z" fill="#DCDCDC"/>
<path d="M38.5283 26.7265H25.9296V48.9531H22.5652V23.8989H41.8927V48.9531H38.5283V26.7265ZM60.6104 43.6917H63.6169C63.3306 45.2904 62.5551 46.6863 61.2905 47.8794C60.0258 49.0724 58.1527 49.669 55.6711 49.669C52.3067 49.669 49.8371 48.5594 48.2623 46.3403C47.4748 45.1711 46.9618 43.9184 46.7232 42.5822C46.5562 41.6516 46.4727 40.7687 46.4727 39.9336C46.4727 38.3349 46.7113 36.8317 47.1885 35.4238C47.4987 34.4217 47.9521 33.5507 48.5486 32.811C49.1928 32.0236 50.1115 31.3674 51.3046 30.8425C52.4976 30.3176 53.8458 30.0551 55.349 30.0551C58.0215 30.0551 60.0377 30.7948 61.3978 32.2742C61.9705 32.8946 62.4358 33.682 62.7937 34.6364C63.3187 36.0204 63.6408 37.7026 63.7601 39.6831C63.7601 39.7546 63.7601 39.9097 63.7601 40.1484C63.7839 40.387 63.7959 40.5301 63.7959 40.5779H49.8013C49.8013 42.3913 50.2785 43.99 51.233 45.374C52.1874 46.7579 53.631 47.4499 55.5638 47.4499C56.9477 47.4499 58.0811 47.1039 58.964 46.4119C59.8469 45.7199 60.3957 44.8132 60.6104 43.6917ZM49.8013 38.3588H60.4672C60.4434 36.951 60.1093 35.6505 59.4651 34.4575C58.7254 33.0019 57.3772 32.2742 55.4206 32.2742C53.2015 32.2742 51.6744 33.0139 50.8393 34.4933C50.1473 35.6863 49.8013 36.9748 49.8013 38.3588ZM67.9231 55.5746V30.7709H70.858V33.2763H70.9654C72.3971 31.1288 74.4014 30.0551 76.9784 30.0551C79.3407 30.0551 81.2973 30.8783 82.8483 32.5247C84.3992 34.195 85.1747 36.6408 85.1747 39.862C85.1747 43.1549 84.3873 45.6126 82.8125 47.2351C81.2615 48.8577 79.3407 49.669 77.05 49.669C76.3342 49.669 75.4632 49.5139 74.4372 49.2037C72.934 48.7503 71.8125 47.7959 71.0728 46.3403V55.5746H67.9231ZM70.858 39.9336C70.858 42.4629 71.4307 44.3599 72.576 45.6245C73.7691 46.8414 75.0695 47.4499 76.4773 47.4499C77.9567 47.4499 79.2214 46.8533 80.2713 45.6603C81.3212 44.4195 81.8461 42.4868 81.8461 39.862C81.8461 37.4759 81.3569 35.6147 80.3786 34.2785C79.4242 32.9423 78.0641 32.2742 76.2984 32.2742C75.3678 32.2742 74.4969 32.5247 73.6856 33.0258C71.8005 34.1473 70.858 36.4499 70.858 39.9336ZM102.379 43.6917H105.386C105.099 45.2904 104.324 46.6863 103.059 47.8794C101.794 49.0724 99.9214 49.669 97.4398 49.669C94.0754 49.669 91.6058 48.5594 90.0309 46.3403C89.2435 45.1711 88.7305 43.9184 88.4919 42.5822C88.3249 41.6516 88.2414 40.7687 88.2414 39.9336C88.2414 38.3349 88.48 36.8317 88.9572 35.4238C89.2674 34.4217 89.7207 33.5507 90.3173 32.811C90.9615 32.0236 91.8802 31.3674 93.0732 30.8425C94.2663 30.3176 95.6145 30.0551 97.1177 30.0551C99.7902 30.0551 101.806 30.7948 103.167 32.2742C103.739 32.8946 104.204 33.682 104.562 34.6364C105.087 36.0204 105.409 37.7026 105.529 39.6831C105.529 39.7546 105.529 39.9097 105.529 40.1484C105.553 40.387 105.565 40.5301 105.565 40.5779H91.57C91.57 42.3913 92.0472 43.99 93.0017 45.374C93.9561 46.7579 95.3997 47.4499 97.3325 47.4499C98.7164 47.4499 99.8498 47.1039 100.733 46.4119C101.616 45.7199 102.164 44.8132 102.379 43.6917ZM91.57 38.3588H102.236C102.212 36.951 101.878 35.6505 101.234 34.4575C100.494 33.0019 99.1459 32.2742 97.1893 32.2742C94.9702 32.2742 93.4431 33.0139 92.6079 34.4933C91.916 35.6863 91.57 36.9748 91.57 38.3588ZM109.692 55.5746V30.7709H112.627V33.2763H112.734C114.166 31.1288 116.17 30.0551 118.747 30.0551C121.109 30.0551 123.066 30.8783 124.617 32.5247C126.168 34.195 126.943 36.6408 126.943 39.862C126.943 43.1549 126.156 45.6126 124.581 47.2351C123.03 48.8577 121.109 49.669 118.819 49.669C118.103 49.669 117.232 49.5139 116.206 49.2037C114.703 48.7503 113.581 47.7959 112.841 46.3403V55.5746H109.692ZM112.627 39.9336C112.627 42.4629 113.199 44.3599 114.345 45.6245C115.538 46.8414 116.838 47.4499 118.246 47.4499C119.725 47.4499 120.99 46.8533 122.04 45.6603C123.09 44.4195 123.615 42.4868 123.615 39.862C123.615 37.4759 123.126 35.6147 122.147 34.2785C121.193 32.9423 119.833 32.2742 118.067 32.2742C117.136 32.2742 116.266 32.5247 115.454 33.0258C113.569 34.1473 112.627 36.4499 112.627 39.9336ZM133.446 36.1397H130.44C130.44 34.708 130.917 33.3956 131.871 32.2026C133.017 30.7709 135.116 30.0551 138.171 30.0551C139.96 30.0551 141.535 30.413 142.895 31.1288C143.682 31.5106 144.303 32.1429 144.756 33.0258C145.21 33.9087 145.424 34.9586 145.4 36.1755L145.222 44.5865C145.222 45.2785 145.293 45.8154 145.436 46.1972C145.651 46.5789 146.212 46.7579 147.118 46.734V48.9531C146.761 49.0486 146.283 49.0963 145.687 49.0963C144.637 49.0963 143.873 48.9173 143.396 48.5594C142.943 48.2015 142.621 47.4976 142.43 46.4477C141.261 48.5952 139.185 49.669 136.202 49.669C134.15 49.669 132.563 49.2156 131.442 48.3089C130.344 47.3783 129.795 46.0063 129.795 44.1928C129.795 42.4748 130.416 41.1744 131.656 40.2915C132.897 39.3609 135.248 38.7405 138.707 38.4304C140.306 38.311 141.261 38.1559 141.571 37.9651C142.024 37.6549 142.251 36.9748 142.251 35.9249C142.251 33.4911 140.891 32.2742 138.171 32.2742C134.949 32.2742 133.374 33.5627 133.446 36.1397ZM142.179 41.1863L142.251 39.6473C141.893 39.9097 141.368 40.1245 140.676 40.2915C139.626 40.3631 138.815 40.4466 138.242 40.5421C136.262 40.8761 135.057 41.1505 134.627 41.3653C133.577 41.8664 133.052 42.7731 133.052 44.0854C133.052 45.1353 133.363 45.9585 133.983 46.5551C134.627 47.1516 135.486 47.4499 136.56 47.4499C137.252 47.4499 137.884 47.3544 138.457 47.1635C139.053 46.9726 139.626 46.6625 140.175 46.233C140.748 45.7796 141.201 45.1234 141.535 44.2644C141.893 43.4054 142.108 42.3794 142.179 41.1863ZM163.752 22.7178H166.437C166.341 24.4596 165.53 25.6169 164.003 26.1896C163.168 26.4759 162.452 26.6668 161.855 26.7622C159.183 27.0963 157.632 27.323 157.202 27.4423C155.58 27.8957 154.339 28.7189 153.48 29.9119C152.621 31.0811 152.168 32.7633 152.12 34.9586H152.191C153.337 31.8805 155.687 30.3414 159.242 30.3414C162.13 30.3414 164.289 31.2959 165.721 33.2048C167.176 35.0898 167.904 37.4043 167.904 40.1484C167.904 42.7731 167.152 45.016 165.649 46.8772C164.146 48.7384 161.915 49.669 158.956 49.669C155.687 49.669 153.265 48.4282 151.69 45.9466C150.903 44.5865 150.366 43.0594 150.08 41.3653C149.889 40.0291 149.793 38.7048 149.793 37.3924C149.793 32.7872 150.497 29.5659 151.905 27.7286C153.146 26.1299 154.828 25.1039 156.952 24.6505C158.956 24.1972 160.65 23.9347 162.034 23.8631C162.965 23.7438 163.537 23.362 163.752 22.7178ZM153.122 40.3631C153.122 41.9379 153.48 43.4531 154.196 44.9087C155.031 46.6028 156.594 47.4499 158.884 47.4499C160.698 47.4499 162.094 46.8414 163.072 45.6245C164.074 44.3837 164.575 42.6776 164.575 40.5063C164.575 38.7167 164.265 37.0583 163.645 35.5312C162.857 33.5507 161.271 32.5605 158.884 32.5605C156.498 32.5605 154.888 33.5269 154.053 35.4596C153.432 36.939 153.122 38.5735 153.122 40.3631ZM171.44 43.4412C170.82 40.8881 170.844 38.4184 171.512 36.0323C172.18 33.6462 173.588 31.9401 175.735 30.9141C176.928 30.3414 178.324 30.0551 179.923 30.0551C181.521 30.0551 182.917 30.3414 184.11 30.9141C186.258 31.9163 187.678 33.7058 188.37 36.2828C188.68 37.4759 188.835 38.6809 188.835 39.8978C188.859 41.0909 188.716 42.272 188.405 43.4412C188.119 44.5865 187.606 45.6364 186.866 46.5909C186.151 47.5453 185.232 48.2969 184.11 48.8457C182.893 49.3946 181.498 49.669 179.923 49.669C178.348 49.669 176.952 49.3946 175.735 48.8457C173.659 47.8436 172.228 46.0421 171.44 43.4412ZM174.769 36.2471C174.459 37.2015 174.303 38.3946 174.303 39.8262C174.303 41.234 174.459 42.439 174.769 43.4412C175.079 44.4434 175.437 45.195 175.842 45.6961C176.701 46.6505 177.68 47.2113 178.777 47.3783C179.541 47.4976 180.305 47.4976 181.068 47.3783C181.402 47.3544 181.867 47.1874 182.464 46.8772C183.108 46.5431 183.633 46.1256 184.039 45.6245C184.444 45.1234 184.79 44.3956 185.077 43.4412C185.387 42.439 185.542 41.234 185.542 39.8262C185.542 38.3946 185.387 37.2015 185.077 36.2471C184.743 35.1972 184.373 34.4455 183.967 33.9922C183.585 33.5388 183.108 33.157 182.536 32.8468C181.963 32.5366 181.474 32.3458 181.068 32.2742C180.305 32.1549 179.541 32.1549 178.777 32.2742C178.443 32.298 177.966 32.477 177.346 32.811C176.129 33.4076 175.27 34.5529 174.769 36.2471ZM196.054 48.9531V32.99H189.754V30.7709H205.503V32.99H199.203V48.9531H196.054ZM211.269 30.7709V38.7167L219.036 30.7709H222.722L214.204 39.2178L223.187 48.9531H219.429L211.269 39.862V48.9531H208.119V30.7709H211.269ZM228.029 36.1397H225.022C225.022 34.708 225.499 33.3956 226.454 32.2026C227.599 30.7709 229.699 30.0551 232.753 30.0551C234.543 30.0551 236.117 30.413 237.478 31.1288C238.265 31.5106 238.885 32.1429 239.339 33.0258C239.792 33.9087 240.007 34.9586 239.983 36.1755L239.804 44.5865C239.804 45.2785 239.876 45.8154 240.019 46.1972C240.234 46.5789 240.794 46.7579 241.701 46.734V48.9531C241.343 49.0486 240.866 49.0963 240.269 49.0963C239.219 49.0963 238.456 48.9173 237.979 48.5594C237.525 48.2015 237.203 47.4976 237.012 46.4477C235.843 48.5952 233.767 49.669 230.784 49.669C228.732 49.669 227.146 49.2156 226.024 48.3089C224.927 47.3783 224.378 46.0063 224.378 44.1928C224.378 42.4748 224.998 41.1744 226.239 40.2915C227.48 39.3609 229.83 38.7405 233.29 38.4304C234.889 38.311 235.843 38.1559 236.153 37.9651C236.607 37.6549 236.833 36.9748 236.833 35.9249C236.833 33.4911 235.473 32.2742 232.753 32.2742C229.532 32.2742 227.957 33.5627 228.029 36.1397ZM236.762 41.1863L236.833 39.6473C236.475 39.9097 235.95 40.1245 235.258 40.2915C234.209 40.3631 233.397 40.4466 232.825 40.5421C230.844 40.8761 229.639 41.1505 229.21 41.3653C228.16 41.8664 227.635 42.7731 227.635 44.0854C227.635 45.1353 227.945 45.9585 228.565 46.5551C229.21 47.1516 230.069 47.4499 231.142 47.4499C231.834 47.4499 232.467 47.3544 233.039 47.1635C233.636 46.9726 234.209 46.6625 234.757 46.233C235.33 45.7796 235.783 45.1234 236.117 44.2644C236.475 43.4054 236.69 42.3794 236.762 41.1863ZM34.448 71.99H25.2496V87.9531H22.0999V69.7709H37.5977V87.9531H34.448V71.99ZM42.1844 82.4412C41.564 79.8881 41.5878 77.4184 42.256 75.0323C42.9241 72.6462 44.3319 70.9401 46.4794 69.9141C47.6724 69.3414 49.0683 69.0551 50.667 69.0551C52.2657 69.0551 53.6616 69.3414 54.8546 69.9141C57.0022 70.9163 58.4219 72.7058 59.1139 75.2828C59.4241 76.4759 59.5792 77.6809 59.5792 78.8978C59.603 80.0909 59.4599 81.272 59.1497 82.4412C58.8633 83.5865 58.3503 84.6364 57.6106 85.5909C56.8948 86.5453 55.9761 87.2969 54.8546 87.8457C53.6377 88.3946 52.2419 88.669 50.667 88.669C49.0922 88.669 47.6963 88.3946 46.4794 87.8457C44.4035 86.8436 42.9718 85.0421 42.1844 82.4412ZM45.513 75.2471C45.2028 76.2015 45.0477 77.3946 45.0477 78.8262C45.0477 80.234 45.2028 81.439 45.513 82.4412C45.8232 83.4434 46.1811 84.195 46.5868 84.6961C47.4458 85.6505 48.4241 86.2113 49.5217 86.3783C50.2852 86.4976 51.0488 86.4976 51.8124 86.3783C52.1464 86.3544 52.6117 86.1874 53.2082 85.8772C53.8525 85.5431 54.3774 85.1256 54.7831 84.6245C55.1887 84.1234 55.5347 83.3956 55.821 82.4412C56.1312 81.439 56.2863 80.234 56.2863 78.8262C56.2863 77.3946 56.1312 76.2015 55.821 75.2471C55.487 74.1972 55.1171 73.4455 54.7115 72.9922C54.3297 72.5388 53.8525 72.157 53.2798 71.8468C52.7071 71.5366 52.218 71.3458 51.8124 71.2742C51.0488 71.1549 50.2852 71.1549 49.5217 71.2742C49.1876 71.298 48.7104 71.477 48.09 71.811C46.8731 72.4076 46.0141 73.5529 45.513 75.2471ZM73.4283 79.9H63.9793V76.8577H73.4283V79.9ZM81.2265 75.1397H78.2199C78.2199 73.708 78.6972 72.3956 79.6516 71.2026C80.797 69.7709 82.8967 69.0551 85.951 69.0551C87.7405 69.0551 89.3154 69.413 90.6755 70.1288C91.4629 70.5106 92.0833 71.1429 92.5366 72.0258C92.99 72.9087 93.2048 73.9586 93.1809 75.1755L93.0019 83.5865C93.0019 84.2785 93.0735 84.8154 93.2167 85.1972C93.4314 85.5789 93.9922 85.7579 94.8989 85.734V87.9531C94.541 88.0486 94.0638 88.0963 93.4672 88.0963C92.4173 88.0963 91.6538 87.9173 91.1766 87.5594C90.7232 87.2015 90.4011 86.4976 90.2102 85.4477C89.041 87.5952 86.9651 88.669 83.9824 88.669C81.9304 88.669 80.3436 88.2156 79.2221 87.3089C78.1245 86.3783 77.5757 85.0063 77.5757 83.1928C77.5757 81.4748 78.1961 80.1744 79.4369 79.2915C80.6776 78.3609 83.028 77.7405 86.4878 77.4304C88.0865 77.311 89.041 77.1559 89.3512 76.9651C89.8045 76.6549 90.0312 75.9748 90.0312 74.9249C90.0312 72.4911 88.6711 71.2742 85.951 71.2742C82.7297 71.2742 81.1549 72.5627 81.2265 75.1397ZM89.9596 80.1863L90.0312 78.6473C89.6733 78.9097 89.1484 79.1245 88.4564 79.2915C87.4065 79.3631 86.5952 79.4466 86.0225 79.5421C84.0421 79.8761 82.8371 80.1505 82.4076 80.3653C81.3577 80.8664 80.8327 81.7731 80.8327 83.0854C80.8327 84.1353 81.1429 84.9585 81.7633 85.5551C82.4076 86.1516 83.2666 86.4499 84.3403 86.4499C85.0323 86.4499 85.6646 86.3544 86.2373 86.1635C86.8338 85.9726 87.4065 85.6625 87.9553 85.233C88.528 84.7796 88.9813 84.1234 89.3154 83.2644C89.6733 82.4054 89.8881 81.3794 89.9596 80.1863ZM111.533 61.7178H114.217C114.121 63.4596 113.31 64.6169 111.783 65.1896C110.948 65.4759 110.232 65.6668 109.636 65.7622C106.963 66.0963 105.412 66.323 104.983 66.4423C103.36 66.8957 102.119 67.7189 101.26 68.9119C100.401 70.0811 99.948 71.7633 99.9002 73.9586H99.9718C101.117 70.8805 103.467 69.3414 107.023 69.3414C109.91 69.3414 112.069 70.2959 113.501 72.2048C114.957 74.0898 115.684 76.4043 115.684 79.1484C115.684 81.7731 114.933 84.016 113.43 85.8772C111.926 87.7384 109.695 88.669 106.736 88.669C103.467 88.669 101.046 87.4282 99.4707 84.9466C98.6833 83.5865 98.1464 82.0594 97.8601 80.3653C97.6692 79.0291 97.5738 77.7048 97.5738 76.3924C97.5738 71.7872 98.2777 68.5659 99.6855 66.7286C100.926 65.1299 102.608 64.1039 104.732 63.6505C106.736 63.1972 108.431 62.9347 109.815 62.8631C110.745 62.7438 111.318 62.362 111.533 61.7178ZM100.902 79.3631C100.902 80.9379 101.26 82.4531 101.976 83.9087C102.811 85.6028 104.374 86.4499 106.665 86.4499C108.478 86.4499 109.874 85.8414 110.853 84.6245C111.855 83.3837 112.356 81.6776 112.356 79.5063C112.356 77.7167 112.046 76.0583 111.425 74.5312C110.638 72.5507 109.051 71.5605 106.665 71.5605C104.279 71.5605 102.668 72.5269 101.833 74.4596C101.213 75.939 100.902 77.5735 100.902 79.3631ZM120.561 69.7709L125.214 76.4998L129.867 69.7709H133.374L127.003 78.4683L133.875 87.9531H130.368L125.214 80.4727L120.06 87.9531H116.552L123.424 78.4683L117.053 69.7709H120.561ZM138.864 75.1397H135.857C135.857 73.708 136.334 72.3956 137.289 71.2026C138.434 69.7709 140.534 69.0551 143.588 69.0551C145.378 69.0551 146.953 69.413 148.313 70.1288C149.1 70.5106 149.721 71.1429 150.174 72.0258C150.627 72.9087 150.842 73.9586 150.818 75.1755L150.639 83.5865C150.639 84.2785 150.711 84.8154 150.854 85.1972C151.069 85.5789 151.629 85.7579 152.536 85.734V87.9531C152.178 88.0486 151.701 88.0963 151.105 88.0963C150.055 88.0963 149.291 87.9173 148.814 87.5594C148.36 87.2015 148.038 86.4976 147.847 85.4477C146.678 87.5952 144.602 88.669 141.62 88.669C139.568 88.669 137.981 88.2156 136.859 87.3089C135.762 86.3783 135.213 85.0063 135.213 83.1928C135.213 81.4748 135.833 80.1744 137.074 79.2915C138.315 78.3609 140.665 77.7405 144.125 77.4304C145.724 77.311 146.678 77.1559 146.988 76.9651C147.442 76.6549 147.669 75.9748 147.669 74.9249C147.669 72.4911 146.308 71.2742 143.588 71.2742C140.367 71.2742 138.792 72.5627 138.864 75.1397ZM147.597 80.1863L147.669 78.6473C147.311 78.9097 146.786 79.1245 146.094 79.2915C145.044 79.3631 144.233 79.4466 143.66 79.5421C141.679 79.8761 140.474 80.1505 140.045 80.3653C138.995 80.8664 138.47 81.7731 138.47 83.0854C138.47 84.1353 138.78 84.9585 139.401 85.5551C140.045 86.1516 140.904 86.4499 141.978 86.4499C142.67 86.4499 143.302 86.3544 143.875 86.1635C144.471 85.9726 145.044 85.6625 145.593 85.233C146.165 84.7796 146.619 84.1234 146.953 83.2644C147.311 82.4054 147.525 81.3794 147.597 80.1863ZM154.817 82.3696H157.824C157.824 83.5627 158.253 84.541 159.112 85.3045C159.971 86.0681 161.152 86.4499 162.656 86.4499C164.135 86.4499 165.292 86.1516 166.128 85.5551C166.963 84.9347 167.38 84.0399 167.38 82.8707C167.38 80.6993 166.008 79.6136 163.264 79.6136H160.58V77.3946H162.906C165.436 77.3946 166.7 76.452 166.7 74.567C166.7 74.2568 166.652 73.9466 166.557 73.6364C166.485 73.3262 166.318 72.9802 166.056 72.5985C165.817 72.1928 165.4 71.8707 164.803 71.6321C164.207 71.3935 163.467 71.2742 162.584 71.2742C161.009 71.2742 159.9 71.644 159.256 72.3837C158.611 73.1234 158.289 73.9228 158.289 74.7818H155.283C155.354 73.541 155.676 72.503 156.249 71.6679C156.822 70.8327 157.561 70.2362 158.468 69.8783C159.947 69.3295 161.379 69.0551 162.763 69.0551C163.98 69.0551 165.054 69.1983 165.984 69.4846C166.915 69.7471 167.619 70.0692 168.096 70.451C168.597 70.8327 168.991 71.2861 169.277 71.811C169.587 72.336 169.778 72.8013 169.85 73.2069C169.921 73.5887 169.957 73.9705 169.957 74.3523C169.957 76.4759 168.907 77.8002 166.808 78.3251V78.4325C167.929 78.5996 168.848 79.0887 169.564 79.9C170.279 80.7113 170.637 81.7731 170.637 83.0854C170.637 84.4217 170.16 85.6386 169.206 86.7362C168.036 88.0247 165.937 88.669 162.906 88.669C160.353 88.669 158.408 88.1321 157.072 87.0583C155.569 85.746 154.817 84.1831 154.817 82.3696ZM187.481 81.4748H190.487C190.392 82.8588 189.867 84.3143 188.913 85.8414C188.388 86.7004 187.564 87.3924 186.443 87.9173C185.345 88.4184 184.057 88.669 182.577 88.669C182.076 88.669 181.718 88.657 181.504 88.6332C180.454 88.5854 179.38 88.311 178.282 87.81C175.228 86.2828 173.701 83.2525 173.701 78.7189C173.701 76.3327 174.25 74.2091 175.348 72.3479C176.708 70.1527 179.046 69.0551 182.363 69.0551C184.701 69.0551 186.562 69.6516 187.946 70.8447C189.33 72.0139 190.13 73.5529 190.344 75.4618H187.338C186.861 72.6701 185.226 71.2742 182.434 71.2742C180.621 71.2742 179.261 71.9423 178.354 73.2785C177.471 74.5909 177.03 76.4043 177.03 78.7189C177.03 80.9618 177.495 82.811 178.426 84.2666C179.356 85.7221 180.764 86.4499 182.649 86.4499C184.272 86.4499 185.453 85.9369 186.192 84.9108C186.98 83.8848 187.409 82.7395 187.481 81.4748ZM197.497 69.7709V77.7167L205.264 69.7709H208.951L200.432 78.2178L209.416 87.9531H205.658L197.497 78.862V87.9531H194.348V69.7709H197.497ZM215.009 69.7709V84.2666L224.494 69.7709H228.001V87.9531H224.851V73.4217L215.402 87.9531H211.859V69.7709H215.009ZM237.906 73.6722H234.362V69.7709H237.906V73.6722ZM237.906 87.9531H234.362V84.0518H237.906V87.9531ZM35.1997 121.692H38.2062C37.9198 123.29 37.1444 124.686 35.8797 125.879C34.6151 127.072 32.742 127.669 30.2604 127.669C26.896 127.669 24.4264 126.559 22.8515 124.34C22.0641 123.171 21.5511 121.918 21.3125 120.582C21.1454 119.652 21.0619 118.769 21.0619 117.934C21.0619 116.335 21.3005 114.832 21.7778 113.424C22.088 112.422 22.5413 111.551 23.1379 110.811C23.7821 110.024 24.7008 109.367 25.8938 108.843C27.0869 108.318 28.435 108.055 29.9383 108.055C32.6107 108.055 34.627 108.795 35.9871 110.274C36.5598 110.895 37.0251 111.682 37.383 112.636C37.9079 114.02 38.23 115.703 38.3493 117.683C38.3493 117.755 38.3493 117.91 38.3493 118.148C38.3732 118.387 38.3851 118.53 38.3851 118.578H24.3906C24.3906 120.391 24.8678 121.99 25.8222 123.374C26.7767 124.758 28.2203 125.45 30.153 125.45C31.537 125.45 32.6704 125.104 33.5533 124.412C34.4361 123.72 34.9849 122.813 35.1997 121.692ZM24.3906 116.359H35.0565C35.0326 114.951 34.6986 113.651 34.0543 112.457C33.3146 111.002 31.9665 110.274 30.0099 110.274C27.7908 110.274 26.2637 111.014 25.4285 112.493C24.7366 113.686 24.3906 114.975 24.3906 116.359ZM55.2542 120.475H58.2607C58.1653 121.859 57.6403 123.314 56.6859 124.841C56.161 125.7 55.3377 126.392 54.2163 126.917C53.1187 127.418 51.8302 127.669 50.3508 127.669C49.8497 127.669 49.4918 127.657 49.277 127.633C48.2271 127.585 47.1534 127.311 46.0558 126.81C43.0015 125.283 41.4744 122.252 41.4744 117.719C41.4744 115.333 42.0232 113.209 43.1208 111.348C44.4809 109.153 46.8193 108.055 50.136 108.055C52.4744 108.055 54.3356 108.652 55.7195 109.845C57.1035 111.014 57.9028 112.553 58.1176 114.462H55.1111C54.6338 111.67 52.9994 110.274 50.2076 110.274C48.3941 110.274 47.0341 110.942 46.1273 112.279C45.2445 113.591 44.803 115.404 44.803 117.719C44.803 119.962 45.2683 121.811 46.1989 123.267C47.1295 124.722 48.5373 125.45 50.4223 125.45C52.0449 125.45 53.226 124.937 53.9657 123.911C54.7531 122.885 55.1826 121.739 55.2542 120.475ZM65.6794 126.953V110.99H59.3801V108.771H75.1284V110.99H68.8291V126.953H65.6794ZM77.5352 126.953V108.771H80.6848V116.001H85.2304C87.02 116.001 88.559 116.263 89.8475 116.788C91.6371 117.433 92.5319 118.936 92.5319 121.298C92.5319 123.255 91.9592 124.71 90.8139 125.665C90.3367 126.046 89.7759 126.333 89.1317 126.524C88.2727 126.81 87.3302 126.953 86.3041 126.953H77.5352ZM84.5145 118.22H80.6848V124.734H85.0514C86.5308 124.734 87.6165 124.436 88.3085 123.839C89.0004 123.147 89.3226 122.3 89.2748 121.298C89.2748 120.2 88.9169 119.389 88.2011 118.864C87.9625 118.697 87.5807 118.554 87.0558 118.435C86.4831 118.292 85.7315 118.22 84.8009 118.22H84.5145ZM102.162 126.953V124.627C103.952 125.152 105.217 124.305 105.956 122.085C106.147 121.537 106.278 120.857 106.35 120.045L106.493 117.862C106.517 117.48 106.529 116.729 106.529 115.607V108.771H119.128V126.953H115.978V110.99H109.464V115.607C109.464 117.11 109.428 118.375 109.357 119.401C109.285 120.403 109.106 121.501 108.82 122.694C108.414 124.388 107.686 125.593 106.636 126.309C105.586 127.025 104.095 127.239 102.162 126.953ZM127.417 108.771V123.267L136.902 108.771H140.409V126.953H137.26V112.422L127.811 126.953H124.267V108.771H127.417ZM166.828 100.718H169.512C169.417 102.46 168.606 103.617 167.079 104.19C166.243 104.476 165.528 104.667 164.931 104.762C162.259 105.096 160.708 105.323 160.278 105.442C158.656 105.896 157.415 106.719 156.556 107.912C155.697 109.081 155.243 110.763 155.196 112.959H155.267C156.413 109.88 158.763 108.341 162.318 108.341C165.205 108.341 167.365 109.296 168.797 111.205C170.252 113.09 170.98 115.404 170.98 118.148C170.98 120.773 170.228 123.016 168.725 124.877C167.222 126.738 164.991 127.669 162.032 127.669C158.763 127.669 156.341 126.428 154.766 123.947C153.979 122.587 153.442 121.059 153.156 119.365C152.965 118.029 152.869 116.705 152.869 115.392C152.869 110.787 153.573 107.566 154.981 105.729C156.222 104.13 157.904 103.104 160.028 102.651C162.032 102.197 163.726 101.935 165.11 101.863C166.041 101.744 166.613 101.362 166.828 100.718ZM156.198 118.363C156.198 119.938 156.556 121.453 157.272 122.909C158.107 124.603 159.67 125.45 161.96 125.45C163.774 125.45 165.17 124.841 166.148 123.624C167.15 122.384 167.651 120.678 167.651 118.506C167.651 116.717 167.341 115.058 166.721 113.531C165.933 111.551 164.346 110.561 161.96 110.561C159.574 110.561 157.964 111.527 157.128 113.46C156.508 114.939 156.198 116.574 156.198 118.363ZM175.105 133.539V131.212C176.011 131.332 176.536 131.391 176.679 131.391C177.586 131.391 178.23 131.057 178.612 130.389C178.851 130.031 179.006 129.733 179.077 129.494C179.149 129.375 179.304 128.981 179.543 128.313L179.972 126.953L172.098 108.771H175.856L181.69 123.481L186.522 108.771H189.672L182.442 129.101C181.869 130.723 181.38 131.785 180.974 132.286C180.163 133.241 179.066 133.718 177.682 133.718C176.608 133.718 175.749 133.658 175.105 133.539ZM189.96 131.678L189.673 124.734H191.964C193.945 121.823 194.935 117.516 194.935 111.813V108.771H207.963V124.734H211.113L210.862 131.678H208.214V126.953H192.608V131.678H189.96ZM204.813 124.734V110.99H197.87V113.531C197.87 115.464 197.655 117.468 197.226 119.544C196.844 121.596 196.199 123.326 195.293 124.734H204.813ZM214.496 133.539V131.212C215.403 131.332 215.928 131.391 216.071 131.391C216.978 131.391 217.622 131.057 218.004 130.389C218.243 130.031 218.398 129.733 218.469 129.494C218.541 129.375 218.696 128.981 218.935 128.313L219.364 126.953L211.49 108.771H215.248L221.082 123.481L225.914 108.771H229.064L221.834 129.101C221.261 130.723 220.772 131.785 220.366 132.286C219.555 133.241 218.457 133.718 217.073 133.718C216 133.718 215.141 133.658 214.496 133.539ZM234.792 108.771V124.734H242.38V108.771H245.53V124.734H253.117V108.771H256.267V124.734H259.345L259.059 131.678H256.41V126.953H231.642V108.771H234.792ZM275.151 121.692H278.158C277.871 123.29 277.096 124.686 275.831 125.879C274.567 127.072 272.693 127.669 270.212 127.669C266.847 127.669 264.378 126.559 262.803 124.34C262.016 123.171 261.503 121.918 261.264 120.582C261.097 119.652 261.013 118.769 261.013 117.934C261.013 116.335 261.252 114.832 261.729 113.424C262.039 112.422 262.493 111.551 263.089 110.811C263.734 110.024 264.652 109.367 265.845 108.843C267.038 108.318 268.386 108.055 269.89 108.055C272.562 108.055 274.578 108.795 275.939 110.274C276.511 110.895 276.977 111.682 277.334 112.636C277.859 114.02 278.182 115.703 278.301 117.683C278.301 117.755 278.301 117.91 278.301 118.148C278.325 118.387 278.337 118.53 278.337 118.578H264.342C264.342 120.391 264.819 121.99 265.774 123.374C266.728 124.758 268.172 125.45 270.104 125.45C271.488 125.45 272.622 125.104 273.505 124.412C274.388 123.72 274.936 122.813 275.151 121.692ZM264.342 116.359H275.008C274.984 114.951 274.65 113.651 274.006 112.457C273.266 111.002 271.918 110.274 269.961 110.274C267.742 110.274 266.215 111.014 265.38 112.493C264.688 113.686 264.342 114.975 264.342 116.359ZM295.564 121.692H298.57C298.284 123.29 297.508 124.686 296.244 125.879C294.979 127.072 293.106 127.669 290.624 127.669C287.26 127.669 284.79 126.559 283.215 124.34C282.428 123.171 281.915 121.918 281.676 120.582C281.509 119.652 281.426 118.769 281.426 117.934C281.426 116.335 281.664 114.832 282.142 113.424C282.452 112.422 282.905 111.551 283.502 110.811C284.146 110.024 285.065 109.367 286.258 108.843C287.451 108.318 288.799 108.055 290.302 108.055C292.975 108.055 294.991 108.795 296.351 110.274C296.924 110.895 297.389 111.682 297.747 112.636C298.272 114.02 298.594 115.703 298.713 117.683C298.713 117.755 298.713 117.91 298.713 118.148C298.737 118.387 298.749 118.53 298.749 118.578H284.755C284.755 120.391 285.232 121.99 286.186 123.374C287.141 124.758 288.584 125.45 290.517 125.45C291.901 125.45 293.034 125.104 293.917 124.412C294.8 123.72 295.349 122.813 295.564 121.692ZM284.755 116.359H295.42C295.397 114.951 295.063 113.651 294.418 112.457C293.679 111.002 292.33 110.274 290.374 110.274C288.155 110.274 286.628 111.014 285.792 112.493C285.101 113.686 284.755 114.975 284.755 116.359ZM311.86 126.953H308.317V123.052H311.86V126.953ZM305.453 109.451H302.339C302.244 107.113 302.805 105.168 304.022 103.617C305.286 102.066 307.41 101.29 310.393 101.29C312.803 101.29 314.7 101.863 316.083 103.008C317.467 104.13 318.159 105.717 318.159 107.769C318.159 109.105 317.873 110.215 317.3 111.097C316.775 111.98 315.833 113.006 314.473 114.175C313.757 114.772 313.256 115.213 312.97 115.5C311.944 116.478 311.431 117.623 311.431 118.936V119.687H308.818C308.579 117.444 309.116 115.631 310.428 114.247C310.548 114.104 311.156 113.543 312.254 112.565C313.304 111.658 314.031 110.883 314.437 110.238C314.843 109.57 315.046 108.795 315.046 107.912C315.046 106.886 314.676 105.967 313.936 105.156C313.172 104.297 311.979 103.867 310.357 103.867C306.992 103.867 305.358 105.729 305.453 109.451Z" fill="black"/>
</g>
<defs>
<clipPath id="clip0_895_7374">
<rect width="387.202" height="387.202" fill="white" transform="translate(0 0.0341797)"/>
</clipPath>
</defs>
</svg>
