<svg width="321" height="321" viewBox="0 0 321 321" fill="none" xmlns="http://www.w3.org/2000/svg">
<g clip-path="url(#clip0_863_4614)">
<rect width="320.167" height="320.167" transform="translate(0 0.0273438)" fill="white"/>
<path fill-rule="evenodd" clip-rule="evenodd" d="M187.854 71.5919L187.249 73.8482L178.114 71.4006L168.98 68.953L168.375 71.2093L167.771 73.4657L163.144 72.226L158.517 70.9863L157.913 73.2426L157.308 75.4989L152.8 74.291L148.292 73.0831L147.656 75.4582L147.019 77.8333L144.765 77.2294L142.511 76.6254L141.907 78.8817L141.302 81.1381L139.048 80.5341L136.794 79.9302L136.19 82.1865L135.585 84.4429L133.212 83.8071L130.84 83.1714L130.235 85.4277L129.631 87.6841L127.377 87.0801L125.123 86.4762L124.518 88.7325L123.913 90.9888L121.659 90.3849L119.405 89.7809L118.769 92.156L118.133 94.5311L115.879 93.9272L113.625 93.3232L113.02 95.5796L112.415 97.8359L110.161 97.2319L107.907 96.628L106.698 101.141L105.489 105.653L103.116 105.018L100.744 104.382L99.5028 109.013L98.2618 113.645L96.0078 113.041L93.7538 112.437L92.5447 116.95L91.3355 121.462L89.0815 120.858L86.8275 120.254L84.3773 129.398L81.9272 138.543L79.6732 137.939L77.4192 137.335L71.9143 157.879L66.4094 178.424L68.6634 179.028L70.9174 179.632L68.4672 188.776L66.017 197.92L68.271 198.524L70.525 199.128L69.284 203.759L68.043 208.391L70.297 208.995L72.551 209.599L71.3419 214.111L70.1327 218.624L72.5053 219.26L74.878 219.896L73.6688 224.408L72.4596 228.921L74.7136 229.525L76.9676 230.129L76.3312 232.504L75.6948 234.879L77.9488 235.483L80.2028 236.087L79.5982 238.343L78.9936 240.6L81.2476 241.204L83.5016 241.808L82.897 244.064L82.2924 246.32L84.5464 246.924L86.8004 247.528L86.1958 249.785L85.5913 252.041L87.9639 252.677L90.3365 253.312L89.7319 255.569L89.1273 257.825L93.6353 259.033L98.1433 260.241L97.5069 262.616L96.8705 264.991L99.1245 265.595L101.379 266.199L100.774 268.455L100.169 270.712L104.796 271.951L109.423 273.191L108.818 275.447L108.213 277.704L114.975 279.516L121.737 281.328L121.133 283.584L120.528 285.84L129.663 288.288L138.797 290.735L138.193 292.992L137.588 295.248L153.604 299.539L169.619 303.831L170.223 301.574L170.828 299.318L182.217 302.37L193.605 305.421L194.21 303.165L194.814 300.908L199.441 302.148L204.068 303.388L204.672 301.132L205.277 298.875L209.785 300.083L214.293 301.291L214.897 299.035L215.502 296.778L220.01 297.986L224.518 299.194L225.154 296.819L225.791 294.444L228.163 295.08L230.536 295.715L231.141 293.459L231.745 291.203L233.999 291.807L236.253 292.411L236.858 290.154L237.462 287.898L239.716 288.502L241.97 289.106L242.575 286.85L243.179 284.593L245.433 285.197L247.687 285.801L248.292 283.545L248.897 281.288L251.151 281.892L253.405 282.496L254.041 280.121L254.677 277.746L257.05 278.382L259.423 279.018L260.632 274.505L261.841 269.992L264.095 270.596L266.349 271.2L267.558 266.687L268.767 262.175L271.021 262.779L273.275 263.383L274.516 258.751L275.757 254.12L278.011 254.724L280.265 255.328L282.079 248.559L283.893 241.79L286.11 242.384L288.327 242.978L289.484 239.278C290.991 234.463 300.18 200.172 301.105 195.911L301.819 192.626L299.602 192.032L297.385 191.438L299.835 182.293L302.285 173.149L300.031 172.545L297.777 171.941L299.018 167.31L300.259 162.678L298.005 162.075L295.751 161.471L296.96 156.958L298.169 152.445L295.915 151.841L293.661 151.237L294.266 148.981L294.871 146.725L292.498 146.089L290.125 145.453L290.73 143.197L291.334 140.94L289.08 140.336L286.826 139.733L288.067 135.101L289.308 130.47L287.054 129.866L284.8 129.262L285.405 127.005L286.01 124.749L281.502 123.541L276.994 122.333L277.598 120.077L278.203 117.821L275.83 117.185L273.458 116.549L274.062 114.293L274.667 112.036L272.413 111.432L270.159 110.828L270.795 108.453L271.432 106.078L266.924 104.87L262.416 103.662L263.02 101.406L263.625 99.1497L258.998 97.91L254.371 96.6703L254.976 94.414L255.581 92.1576L246.565 89.7418L237.549 87.326L238.153 85.0696L238.758 82.8133L213.608 76.0744L188.458 69.3355L187.854 71.5919ZM205.094 98.3584L203.853 102.99L201.599 102.386L199.345 101.782L198.136 106.295L196.927 110.807L194.673 110.203L192.419 109.599L190.573 116.487L188.728 123.375L186.474 122.771L184.22 122.167L182.406 128.936L180.592 135.705L178.338 135.101L176.084 134.497L175.479 136.754L174.875 139.01L195.279 144.477L215.684 149.945L216.893 145.432L218.102 140.919L215.73 140.284L213.357 139.648L215.171 132.879L216.985 126.11L214.731 125.506L212.477 124.902L213.718 120.27L214.959 115.639L212.705 115.035L210.451 114.431L211.66 109.918L212.869 105.406L210.615 104.802L208.361 104.198L209.602 99.5663L210.843 94.9348L208.589 94.3309L206.335 93.7269L205.094 98.3584ZM172.664 92.2145L172.06 94.4708L167.552 93.2629L163.044 92.055L162.439 94.3114L161.835 96.5677L157.208 95.328L152.581 94.0883L151.977 96.3446L151.372 98.601L149.118 97.997L146.864 97.3931L146.26 99.6494L145.655 101.906L143.401 101.302L141.147 100.698L140.511 103.073L139.874 105.448L137.62 104.844L135.366 104.24L134.762 106.496L134.157 108.753L131.784 108.117L129.412 107.481L128.807 109.738L128.203 111.994L125.949 111.39L123.695 110.786L123.09 113.042L122.486 115.299L120.232 114.695L117.978 114.091L116.768 118.604L115.559 123.116L135.964 128.584L156.368 134.051L158.214 127.163L160.06 120.275L162.314 120.879L164.568 121.483L166.381 114.714L168.195 107.945L170.449 108.549L172.703 109.153L174.549 102.265L176.394 95.3777L178.767 96.0134L181.139 96.6492L181.712 94.5116L182.285 92.374L177.777 91.1661L173.269 89.9581L172.664 92.2145ZM232.012 107.989L231.439 110.127L233.693 110.731L235.947 111.335L234.738 115.848L233.529 120.36L235.783 120.964L238.037 121.568L235.587 130.712L233.136 139.856L235.39 140.46L237.644 141.064L235.799 147.952L233.953 154.84L254.358 160.307L274.763 165.775L275.972 161.262L277.181 156.749L274.927 156.145L272.673 155.541L273.277 153.285L273.882 151.029L271.628 150.425L269.374 149.821L269.979 147.564L270.583 145.308L268.329 144.704L266.075 144.1L266.68 141.844L267.284 139.587L264.912 138.952L262.539 138.316L263.176 135.941L263.812 133.566L261.558 132.962L259.304 132.358L259.909 130.102L260.513 127.845L258.259 127.241L256.005 126.637L256.61 124.381L257.214 122.125L252.706 120.917L248.198 119.709L248.803 117.452L249.407 115.196L244.781 113.956L240.154 112.717L240.759 110.46L241.363 108.204L236.974 107.028L232.585 105.852L232.012 107.989ZM100.402 143.62L99.1609 148.252L96.7882 147.616L94.4156 146.98L90.7881 160.518L87.1606 174.056L89.5332 174.692L91.9058 175.328L90.0603 182.216L88.2147 189.103L110.873 195.175L133.532 201.246L140.246 176.189L146.96 151.131L124.301 145.06L101.643 138.989L100.402 143.62ZM158.515 181.084L151.801 206.141L176.832 212.848L201.864 219.555L208.578 194.498L215.292 169.441L190.261 162.734L165.229 156.027L158.515 181.084ZM226.847 199.393L220.133 224.451L242.91 230.554L265.687 236.657L266.928 232.025L268.169 227.394L270.423 227.998L272.677 228.602L277.514 210.551L282.351 192.5L280.097 191.896L277.843 191.293L278.479 188.917L279.115 186.542L256.338 180.439L233.561 174.336L226.847 199.393ZM72.0277 157.91C68.9825 169.275 67.7564 173.966 69.3032 168.336C70.8497 162.705 73.3413 153.407 74.8399 147.672C76.3385 141.938 75.0729 146.545 72.0277 157.91ZM91.7258 212.064L91.1212 214.32L93.3752 214.924L95.6292 215.528L94.42 220.041L93.2108 224.553L95.4648 225.157L97.7188 225.761L97.1142 228.018L96.5097 230.274L98.8823 230.91L101.255 231.545L100.619 233.921L99.9821 236.296L102.236 236.9L104.49 237.504L103.886 239.76L103.281 242.016L105.535 242.62L107.789 243.224L107.184 245.481L106.58 247.737L111.088 248.945L115.596 250.153L114.991 252.409L114.387 254.665L119.013 255.905L123.64 257.145L123.035 259.401L122.431 261.657L126.939 262.865L131.447 264.073L130.81 266.448L130.174 268.823L132.428 269.427L134.682 270.031L135.891 265.519L137.1 261.006L134.728 260.37L132.355 259.735L133.564 255.222L134.773 250.709L132.519 250.105L130.265 249.501L132.715 240.357L135.166 231.213L132.912 230.609L130.658 230.005L131.899 225.374L133.14 220.742L112.735 215.275L92.3304 209.807L91.7258 212.064ZM151.041 227.957L150.437 230.214L152.691 230.818L154.945 231.422L153.131 238.191L151.317 244.96L153.571 245.564L155.825 246.168L153.98 253.055L152.134 259.943L154.388 260.547L156.642 261.151L155.433 265.664L154.224 270.176L156.478 270.78L158.732 271.384L158.095 273.759L157.459 276.135L159.713 276.738L161.967 277.342L162.603 274.967L163.24 272.592L165.494 273.196L167.748 273.8L168.957 269.287L170.166 264.775L172.42 265.379L174.674 265.983L175.883 261.47L177.093 256.957L179.347 257.561L181.601 258.165L183.446 251.277L185.292 244.39L187.664 245.025L190.037 245.661L191.246 241.148L192.455 236.636L172.051 231.168L151.646 225.701L151.041 227.957ZM208.879 248.419L207.033 255.307L204.779 254.703L202.525 254.099L200.68 260.986L198.834 267.874L196.58 267.27L194.326 266.666L192.544 273.317L190.762 279.967L195.152 281.143L199.541 282.319L200.146 280.063L200.75 277.806L205.377 279.046L210.003 280.286L210.608 278.029L211.213 275.773L215.721 276.981L220.229 278.189L220.833 275.933L221.438 273.676L223.692 274.28L225.946 274.884L226.55 272.628L227.155 270.372L229.528 271.007L231.9 271.643L232.537 269.268L233.173 266.893L235.427 267.497L237.681 268.101L238.286 265.844L238.89 263.588L241.144 264.192L243.398 264.796L244.607 260.283L245.817 255.771L248.071 256.375L250.325 256.978L250.929 254.722L251.534 252.466L231.129 246.998L210.725 241.531L208.879 248.419ZM185.586 281.253L184.982 283.509L187.117 284.081L189.252 284.654L189.857 282.397L190.461 280.141L188.326 279.569L186.191 278.996L185.586 281.253Z" fill="#DCDCDC"/>
<path d="M31.8581 22.6389H21.4406V41.0176H18.6587V20.3009H34.6401V41.0176H31.8581V22.6389ZM50.1172 36.6671H52.6032C52.3665 37.989 51.7253 39.1432 50.6796 40.1297C49.6339 41.1162 48.085 41.6095 46.0331 41.6095C43.2511 41.6095 41.2091 40.692 39.9069 38.8571C39.2558 37.8903 38.8316 36.8545 38.6343 35.7496C38.4962 34.9801 38.4271 34.2501 38.4271 33.5596C38.4271 32.2377 38.6244 30.9947 39.019 29.8306C39.2755 29.0019 39.6504 28.2818 40.1436 27.6701C40.6764 27.019 41.436 26.4765 42.4225 26.0424C43.409 25.6083 44.5237 25.3913 45.7667 25.3913C47.9765 25.3913 49.6437 26.0029 50.7683 27.2262C51.2419 27.7392 51.6266 28.3903 51.9226 29.1795C52.3566 30.3238 52.623 31.7148 52.7216 33.3524C52.7216 33.4116 52.7216 33.5398 52.7216 33.7371C52.7414 33.9345 52.7512 34.0528 52.7512 34.0923H41.1795C41.1795 35.5918 41.5741 36.9137 42.3633 38.0581C43.1525 39.2024 44.3462 39.7746 45.9443 39.7746C47.0887 39.7746 48.0258 39.4885 48.7559 38.9163C49.4859 38.3441 49.9397 37.5944 50.1172 36.6671ZM41.1795 32.2574H49.9989C49.9791 31.0933 49.7029 30.018 49.1702 29.0315C48.5586 27.828 47.4438 27.2262 45.8259 27.2262C43.991 27.2262 42.7283 27.8378 42.0377 29.0611C41.4656 30.0476 41.1795 31.113 41.1795 32.2574ZM56.1639 46.4927V25.9832H58.5907V28.0549H58.6795C59.8633 26.2791 61.5207 25.3913 63.6515 25.3913C65.6048 25.3913 67.2227 26.072 68.5051 27.4334C69.7876 28.8145 70.4288 30.8368 70.4288 33.5004C70.4288 36.2231 69.7777 38.2554 68.4755 39.597C67.1931 40.9387 65.6048 41.6095 63.7107 41.6095C63.1188 41.6095 62.3987 41.4812 61.5503 41.2247C60.3073 40.8499 59.3799 40.0607 58.7683 38.8571V46.4927H56.1639ZM58.5907 33.5596C58.5907 35.651 59.0643 37.2195 60.0113 38.2652C60.9978 39.2715 62.0731 39.7746 63.2372 39.7746C64.4605 39.7746 65.5062 39.2813 66.3743 38.2948C67.2424 37.2688 67.6765 35.6707 67.6765 33.5004C67.6765 31.5274 67.272 29.9884 66.4631 28.8835C65.6739 27.7786 64.5492 27.2262 63.0892 27.2262C62.3197 27.2262 61.5996 27.4334 60.9288 27.8477C59.3701 28.775 58.5907 30.679 58.5907 33.5596ZM84.6547 36.6671H87.1407C86.9039 37.989 86.2627 39.1432 85.217 40.1297C84.1713 41.1162 82.6224 41.6095 80.5705 41.6095C77.7886 41.6095 75.7465 40.692 74.4443 38.8571C73.7932 37.8903 73.369 36.8545 73.1717 35.7496C73.0336 34.9801 72.9645 34.2501 72.9645 33.5596C72.9645 32.2377 73.1618 30.9947 73.5564 29.8306C73.8129 29.0019 74.1878 28.2818 74.6811 27.6701C75.2138 27.019 75.9734 26.4765 76.9599 26.0424C77.9464 25.6083 79.0612 25.3913 80.3042 25.3913C82.5139 25.3913 84.1811 26.0029 85.3057 27.2262C85.7793 27.7392 86.164 28.3903 86.46 29.1795C86.894 30.3238 87.1604 31.7148 87.259 33.3524C87.259 33.4116 87.259 33.5398 87.259 33.7371C87.2788 33.9345 87.2886 34.0528 87.2886 34.0923H75.7169C75.7169 35.5918 76.1115 36.9137 76.9007 38.0581C77.6899 39.2024 78.8836 39.7746 80.4817 39.7746C81.6261 39.7746 82.5633 39.4885 83.2933 38.9163C84.0233 38.3441 84.4771 37.5944 84.6547 36.6671ZM75.7169 32.2574H84.5363C84.5165 31.0933 84.2403 30.018 83.7076 29.0315C83.096 27.828 81.9812 27.2262 80.3633 27.2262C78.5284 27.2262 77.2657 27.8378 76.5752 29.0611C76.003 30.0476 75.7169 31.113 75.7169 32.2574ZM90.7013 46.4927V25.9832H93.1281V28.0549H93.2169C94.4007 26.2791 96.0581 25.3913 98.1889 25.3913C100.142 25.3913 101.76 26.072 103.043 27.4334C104.325 28.8145 104.966 30.8368 104.966 33.5004C104.966 36.2231 104.315 38.2554 103.013 39.597C101.73 40.9387 100.142 41.6095 98.2481 41.6095C97.6562 41.6095 96.9361 41.4812 96.0877 41.2247C94.8447 40.8499 93.9173 40.0607 93.3057 38.8571V46.4927H90.7013ZM93.1281 33.5596C93.1281 35.651 93.6017 37.2195 94.5487 38.2652C95.5352 39.2715 96.6105 39.7746 97.7746 39.7746C98.9979 39.7746 100.044 39.2813 100.912 38.2948C101.78 37.2688 102.214 35.6707 102.214 33.5004C102.214 31.5274 101.809 29.9884 101 28.8835C100.211 27.7786 99.0866 27.2262 97.6266 27.2262C96.8571 27.2262 96.137 27.4334 95.4662 27.8477C93.9075 28.775 93.1281 30.679 93.1281 33.5596ZM110.343 30.4225H107.857C107.857 29.2387 108.252 28.1535 109.041 27.167C109.988 25.9832 111.724 25.3913 114.25 25.3913C115.729 25.3913 117.032 25.6872 118.156 26.2791C118.807 26.5948 119.32 27.1177 119.695 27.8477C120.07 28.5777 120.248 29.4458 120.228 30.4521L120.08 37.407C120.08 37.9791 120.139 38.4231 120.257 38.7387C120.435 39.0544 120.899 39.2024 121.648 39.1827V41.0176C121.353 41.0965 120.958 41.136 120.465 41.136C119.597 41.136 118.965 40.988 118.571 40.692C118.196 40.3961 117.929 39.814 117.771 38.9459C116.805 40.7216 115.088 41.6095 112.622 41.6095C110.925 41.6095 109.613 41.2346 108.686 40.4849C107.778 39.7154 107.324 38.5809 107.324 37.0814C107.324 35.6608 107.837 34.5855 108.863 33.8555C109.889 33.0861 111.833 32.5731 114.694 32.3166C116.016 32.2179 116.805 32.0897 117.061 31.9318C117.436 31.6753 117.624 31.113 117.624 30.2449C117.624 28.2324 116.499 27.2262 114.25 27.2262C111.586 27.2262 110.284 28.2916 110.343 30.4225ZM117.564 34.5954L117.624 33.3228C117.328 33.5398 116.894 33.7174 116.321 33.8555C115.453 33.9147 114.782 33.9838 114.309 34.0627C112.671 34.3389 111.675 34.5658 111.32 34.7434C110.452 35.1577 110.018 35.9075 110.018 36.9926C110.018 37.8608 110.274 38.5414 110.787 39.0347C111.32 39.528 112.03 39.7746 112.918 39.7746C113.49 39.7746 114.013 39.6957 114.486 39.5378C114.98 39.38 115.453 39.1235 115.907 38.7683C116.381 38.3935 116.755 37.8509 117.032 37.1406C117.328 36.4303 117.505 35.5819 117.564 34.5954ZM135.402 19.3243H137.622C137.543 20.7646 136.872 21.7215 135.61 22.195C134.919 22.4318 134.327 22.5896 133.834 22.6685C131.624 22.9448 130.342 23.1322 129.986 23.2308C128.645 23.6057 127.619 24.2864 126.909 25.2729C126.198 26.2397 125.823 27.6307 125.784 29.4458H125.843C126.79 26.9006 128.734 25.6281 131.673 25.6281C134.061 25.6281 135.846 26.4173 137.03 27.9957C138.234 29.5544 138.835 31.4682 138.835 33.7371C138.835 35.9075 138.214 37.7621 136.971 39.3011C135.728 40.84 133.883 41.6095 131.437 41.6095C128.734 41.6095 126.731 40.5835 125.429 38.5316C124.778 37.407 124.334 36.1442 124.097 34.7434C123.939 33.6385 123.86 32.5435 123.86 31.4583C123.86 27.6504 124.442 24.9868 125.606 23.4676C126.632 22.1457 128.023 21.2973 129.779 20.9224C131.437 20.5475 132.837 20.3305 133.982 20.2713C134.751 20.1727 135.225 19.857 135.402 19.3243ZM126.613 33.9147C126.613 35.2169 126.909 36.4698 127.5 37.6733C128.191 39.0742 129.483 39.7746 131.377 39.7746C132.877 39.7746 134.031 39.2715 134.84 38.2652C135.669 37.2393 136.083 35.8285 136.083 34.0331C136.083 32.5533 135.827 31.1821 135.314 29.9194C134.663 28.2818 133.35 27.463 131.377 27.463C129.404 27.463 128.073 28.262 127.382 29.8602C126.869 31.0834 126.613 32.435 126.613 33.9147ZM141.759 36.4599C141.246 34.3488 141.266 32.3067 141.819 30.3337C142.371 28.3607 143.535 26.95 145.311 26.1016C146.297 25.6281 147.452 25.3913 148.773 25.3913C150.095 25.3913 151.25 25.6281 152.236 26.1016C154.012 26.9302 155.186 28.41 155.758 30.5409C156.014 31.5274 156.143 32.5237 156.143 33.53C156.162 34.5165 156.044 35.4931 155.788 36.4599C155.551 37.407 155.127 38.2751 154.515 39.0643C153.923 39.8535 153.163 40.475 152.236 40.9288C151.23 41.3826 150.076 41.6095 148.773 41.6095C147.471 41.6095 146.317 41.3826 145.311 40.9288C143.594 40.1001 142.41 38.6105 141.759 36.4599ZM144.512 30.5113C144.255 31.3005 144.127 32.287 144.127 33.4708C144.127 34.6349 144.255 35.6312 144.512 36.4599C144.768 37.2886 145.064 37.9101 145.4 38.3244C146.11 39.1136 146.919 39.5773 147.826 39.7154C148.458 39.814 149.089 39.814 149.72 39.7154C149.997 39.6957 150.381 39.5575 150.875 39.3011C151.407 39.0248 151.841 38.6796 152.177 38.2652C152.512 37.8509 152.798 37.2491 153.035 36.4599C153.292 35.6312 153.42 34.6349 153.42 33.4708C153.42 32.287 153.292 31.3005 153.035 30.5113C152.759 29.6431 152.453 29.0216 152.118 28.6468C151.802 28.2719 151.407 27.9562 150.934 27.6997C150.46 27.4432 150.056 27.2854 149.72 27.2262C149.089 27.1275 148.458 27.1275 147.826 27.2262C147.55 27.2459 147.156 27.3939 146.643 27.6701C145.636 28.1634 144.926 29.1104 144.512 30.5113ZM162.112 41.0176V27.8181H156.903V25.9832H169.925V27.8181H164.716V41.0176H162.112ZM174.693 25.9832V32.5533L181.115 25.9832H184.163L177.119 32.9677L184.548 41.0176H181.44L174.693 33.5004V41.0176H172.088V25.9832H174.693ZM188.551 30.4225H186.065C186.065 29.2387 186.459 28.1535 187.249 27.167C188.196 25.9832 189.932 25.3913 192.457 25.3913C193.937 25.3913 195.239 25.6872 196.364 26.2791C197.015 26.5948 197.528 27.1177 197.903 27.8477C198.278 28.5777 198.455 29.4458 198.436 30.4521L198.288 37.407C198.288 37.9791 198.347 38.4231 198.465 38.7387C198.643 39.0544 199.106 39.2024 199.856 39.1827V41.0176C199.56 41.0965 199.166 41.136 198.672 41.136C197.804 41.136 197.173 40.988 196.778 40.692C196.403 40.3961 196.137 39.814 195.979 38.9459C195.012 40.7216 193.296 41.6095 190.83 41.6095C189.133 41.6095 187.821 41.2346 186.893 40.4849C185.986 39.7154 185.532 38.5809 185.532 37.0814C185.532 35.6608 186.045 34.5855 187.071 33.8555C188.097 33.0861 190.04 32.5731 192.901 32.3166C194.223 32.2179 195.012 32.0897 195.269 31.9318C195.644 31.6753 195.831 31.113 195.831 30.2449C195.831 28.2324 194.707 27.2262 192.457 27.2262C189.794 27.2262 188.492 28.2916 188.551 30.4225ZM195.772 34.5954L195.831 33.3228C195.535 33.5398 195.101 33.7174 194.529 33.8555C193.661 33.9147 192.99 33.9838 192.517 34.0627C190.879 34.3389 189.883 34.5658 189.527 34.7434C188.659 35.1577 188.225 35.9075 188.225 36.9926C188.225 37.8608 188.482 38.5414 188.995 39.0347C189.527 39.528 190.238 39.7746 191.126 39.7746C191.698 39.7746 192.221 39.6957 192.694 39.5378C193.187 39.38 193.661 39.1235 194.115 38.7683C194.588 38.3935 194.963 37.8509 195.239 37.1406C195.535 36.4303 195.713 35.5819 195.772 34.5954ZM28.4843 60.8181H20.8783V74.0176H18.2739V58.9832H31.0887V74.0176H28.4843V60.8181ZM34.8812 69.4599C34.3683 67.3488 34.388 65.3067 34.9404 63.3337C35.4929 61.3607 36.657 59.95 38.4327 59.1016C39.4192 58.6281 40.5734 58.3913 41.8953 58.3913C43.2172 58.3913 44.3715 58.6281 45.358 59.1016C47.1337 59.9302 48.3076 61.41 48.8798 63.5409C49.1363 64.5274 49.2645 65.5237 49.2645 66.53C49.2843 67.5165 49.1659 68.4931 48.9094 69.4599C48.6726 70.407 48.2484 71.2751 47.6368 72.0643C47.0449 72.8535 46.2853 73.475 45.358 73.9288C44.3517 74.3826 43.1975 74.6095 41.8953 74.6095C40.5931 74.6095 39.4389 74.3826 38.4327 73.9288C36.7161 73.1001 35.5323 71.6105 34.8812 69.4599ZM37.6336 63.5113C37.3771 64.3005 37.2489 65.287 37.2489 66.4708C37.2489 67.6349 37.3771 68.6312 37.6336 69.4599C37.8901 70.2886 38.186 70.9101 38.5215 71.3244C39.2317 72.1136 40.0407 72.5773 40.9483 72.7154C41.5796 72.814 42.211 72.814 42.8424 72.7154C43.1186 72.6957 43.5033 72.5575 43.9966 72.3011C44.5293 72.0248 44.9634 71.6796 45.2988 71.2652C45.6342 70.8509 45.9203 70.2491 46.157 69.4599C46.4135 68.6312 46.5418 67.6349 46.5418 66.4708C46.5418 65.287 46.4135 64.3005 46.157 63.5113C45.8808 62.6431 45.575 62.0216 45.2396 61.6468C44.9239 61.2719 44.5293 60.9562 44.0558 60.6997C43.5822 60.4432 43.1778 60.2854 42.8424 60.2262C42.211 60.1275 41.5796 60.1275 40.9483 60.2262C40.672 60.2459 40.2774 60.3939 39.7645 60.6701C38.7582 61.1634 38.0479 62.1104 37.6336 63.5113ZM60.716 67.3586H52.9029V64.8431H60.716V67.3586ZM67.1641 63.4225H64.6781C64.6781 62.2387 65.0727 61.1535 65.8619 60.167C66.809 58.9832 68.5452 58.3913 71.0707 58.3913C72.5504 58.3913 73.8526 58.6872 74.9772 59.2791C75.6283 59.5948 76.1413 60.1177 76.5162 60.8477C76.8911 61.5777 77.0686 62.4458 77.0489 63.4521L76.9009 70.407C76.9009 70.9791 76.9601 71.4231 77.0785 71.7387C77.2561 72.0544 77.7197 72.2024 78.4695 72.1827V74.0176C78.1735 74.0965 77.7789 74.136 77.2857 74.136C76.4175 74.136 75.7862 73.988 75.3916 73.692C75.0167 73.3961 74.7503 72.814 74.5925 71.9459C73.6257 73.7216 71.9092 74.6095 69.4429 74.6095C67.7461 74.6095 66.4341 74.2346 65.5068 73.4849C64.5992 72.7154 64.1454 71.5809 64.1454 70.0814C64.1454 68.6608 64.6584 67.5855 65.6843 66.8555C66.7103 66.0861 68.6537 65.5731 71.5146 65.3166C72.8365 65.2179 73.6257 65.0897 73.8822 64.9318C74.2571 64.6753 74.4445 64.113 74.4445 63.2449C74.4445 61.2324 73.3199 60.2262 71.0707 60.2262C68.4071 60.2262 67.1049 61.2916 67.1641 63.4225ZM74.3853 67.5954L74.4445 66.3228C74.1486 66.5398 73.7145 66.7174 73.1423 66.8555C72.2742 66.9147 71.6034 66.9838 71.1299 67.0627C69.4923 67.3389 68.4959 67.5658 68.1407 67.7434C67.2726 68.1577 66.8386 68.9075 66.8386 69.9926C66.8386 70.8608 67.095 71.5414 67.608 72.0347C68.1407 72.528 68.851 72.7746 69.7389 72.7746C70.3111 72.7746 70.8339 72.6957 71.3074 72.5378C71.8007 72.38 72.2742 72.1235 72.728 71.7683C73.2015 71.3935 73.5764 70.8509 73.8526 70.1406C74.1486 69.4303 74.3261 68.5819 74.3853 67.5954ZM92.2234 52.3243H94.443C94.3641 53.7646 93.6933 54.7215 92.4306 55.195C91.74 55.4318 91.1481 55.5896 90.6549 55.6685C88.4451 55.9448 87.1626 56.1322 86.8075 56.2308C85.4658 56.6057 84.4399 57.2864 83.7296 58.2729C83.0193 59.2397 82.6444 60.6307 82.605 62.4458H82.6641C83.6112 59.9006 85.5546 58.6281 88.4944 58.6281C90.8818 58.6281 92.6673 59.4173 93.8511 60.9957C95.0547 62.5544 95.6565 64.4682 95.6565 66.7371C95.6565 68.9075 95.035 70.7621 93.792 72.3011C92.549 73.84 90.7042 74.6095 88.2576 74.6095C85.5546 74.6095 83.552 73.5835 82.2498 71.5316C81.5987 70.407 81.1548 69.1442 80.918 67.7434C80.7602 66.6385 80.6813 65.5435 80.6813 64.4583C80.6813 60.6504 81.2633 57.9868 82.4274 56.4676C83.4534 55.1457 84.8443 54.2973 86.6003 53.9224C88.2576 53.5475 89.6585 53.3305 90.8028 53.2713C91.5723 53.1727 92.0458 52.857 92.2234 52.3243ZM83.4336 66.9147C83.4336 68.2169 83.7296 69.4698 84.3215 70.6733C85.012 72.0742 86.3044 72.7746 88.1985 72.7746C89.6979 72.7746 90.8522 72.2715 91.6611 71.2652C92.4898 70.2393 92.9041 68.8285 92.9041 67.0331C92.9041 65.5533 92.6476 64.1821 92.1346 62.9194C91.4835 61.2818 90.1715 60.463 88.1985 60.463C86.2254 60.463 84.8937 61.262 84.2031 62.8602C83.6901 64.0834 83.4336 65.435 83.4336 66.9147ZM99.6886 58.9832L103.536 64.5471L107.383 58.9832H110.284L105.016 66.1748L110.698 74.0176H107.798L103.536 67.8322L99.2742 74.0176H96.3739L102.056 66.1748L96.7882 58.9832H99.6886ZM114.823 63.4225H112.337C112.337 62.2387 112.731 61.1535 113.521 60.167C114.468 58.9832 116.204 58.3913 118.729 58.3913C120.209 58.3913 121.511 58.6872 122.636 59.2791C123.287 59.5948 123.8 60.1177 124.175 60.8477C124.55 61.5777 124.727 62.4458 124.708 63.4521L124.56 70.407C124.56 70.9791 124.619 71.4231 124.737 71.7387C124.915 72.0544 125.378 72.2024 126.128 72.1827V74.0176C125.832 74.0965 125.438 74.136 124.944 74.136C124.076 74.136 123.445 73.988 123.05 73.692C122.675 73.3961 122.409 72.814 122.251 71.9459C121.284 73.7216 119.568 74.6095 117.102 74.6095C115.405 74.6095 114.093 74.2346 113.166 73.4849C112.258 72.7154 111.804 71.5809 111.804 70.0814C111.804 68.6608 112.317 67.5855 113.343 66.8555C114.369 66.0861 116.312 65.5731 119.173 65.3166C120.495 65.2179 121.284 65.0897 121.541 64.9318C121.916 64.6753 122.103 64.113 122.103 63.2449C122.103 61.2324 120.979 60.2262 118.729 60.2262C116.066 60.2262 114.764 61.2916 114.823 63.4225ZM122.044 67.5954L122.103 66.3228C121.807 66.5398 121.373 66.7174 120.801 66.8555C119.933 66.9147 119.262 66.9838 118.789 67.0627C117.151 67.3389 116.155 67.5658 115.799 67.7434C114.931 68.1577 114.497 68.9075 114.497 69.9926C114.497 70.8608 114.754 71.5414 115.267 72.0347C115.799 72.528 116.51 72.7746 117.398 72.7746C117.97 72.7746 118.493 72.6957 118.966 72.5378C119.459 72.38 119.933 72.1235 120.387 71.7683C120.86 71.3935 121.235 70.8509 121.511 70.1406C121.807 69.4303 121.985 68.5819 122.044 67.5954ZM128.014 69.4007H130.5C130.5 70.3872 130.856 71.1962 131.566 71.8275C132.276 72.4589 133.253 72.7746 134.496 72.7746C135.719 72.7746 136.676 72.528 137.367 72.0347C138.057 71.5217 138.402 70.7818 138.402 69.8151C138.402 68.0196 137.268 67.1219 134.999 67.1219H132.779V65.287H134.703C136.794 65.287 137.84 64.5076 137.84 62.949C137.84 62.6925 137.801 62.436 137.722 62.1795C137.663 61.923 137.524 61.6369 137.307 61.3212C137.11 60.9858 136.765 60.7195 136.272 60.5221C135.778 60.3248 135.167 60.2262 134.437 60.2262C133.134 60.2262 132.217 60.532 131.684 61.1436C131.152 61.7553 130.885 62.4162 130.885 63.1265H128.399C128.458 62.1006 128.725 61.2423 129.198 60.5517C129.672 59.8612 130.283 59.3679 131.033 59.072C132.256 58.6182 133.44 58.3913 134.585 58.3913C135.591 58.3913 136.479 58.5097 137.248 58.7464C138.018 58.9635 138.6 59.2298 138.994 59.5455C139.409 59.8612 139.734 60.2361 139.971 60.6701C140.227 61.1042 140.385 61.4889 140.444 61.8243C140.504 62.14 140.533 62.4557 140.533 62.7714C140.533 64.5274 139.665 65.6224 137.929 66.0565V66.1452C138.856 66.2834 139.616 66.6878 140.208 67.3586C140.8 68.0295 141.096 68.9075 141.096 69.9926C141.096 71.0975 140.701 72.1038 139.912 73.0113C138.945 74.0768 137.209 74.6095 134.703 74.6095C132.592 74.6095 130.984 74.1656 129.879 73.2777C128.636 72.1925 128.014 70.9002 128.014 69.4007ZM155.023 68.6608H157.509C157.43 69.8052 156.996 71.0087 156.207 72.2715C155.773 72.9817 155.092 73.5539 154.165 73.988C153.257 74.4023 152.192 74.6095 150.969 74.6095C150.554 74.6095 150.258 74.5996 150.081 74.5799C149.213 74.5404 148.325 74.3135 147.417 73.8992C144.892 72.6365 143.629 70.1307 143.629 66.382C143.629 64.409 144.083 62.653 144.99 61.1141C146.115 59.2989 148.049 58.3913 150.791 58.3913C152.725 58.3913 154.264 58.8845 155.408 59.8711C156.552 60.8378 157.213 62.1104 157.391 63.6888H154.905C154.51 61.3804 153.159 60.2262 150.85 60.2262C149.351 60.2262 148.226 60.7786 147.476 61.8835C146.746 62.9687 146.381 64.4682 146.381 66.382C146.381 68.2366 146.766 69.7657 147.536 70.9693C148.305 72.1728 149.469 72.7746 151.028 72.7746C152.369 72.7746 153.346 72.3504 153.958 71.502C154.609 70.6536 154.964 69.7065 155.023 68.6608ZM163.305 58.9832V65.5533L169.728 58.9832H172.776L165.732 65.9677L173.161 74.0176H170.053L163.305 66.5004V74.0176H160.701V58.9832H163.305ZM177.785 58.9832V70.9693L185.628 58.9832H188.528V74.0176H185.924V62.0019L178.111 74.0176H175.181V58.9832H177.785ZM196.718 62.2091H193.788V58.9832H196.718V62.2091ZM196.718 74.0176H193.788V70.7917H196.718V74.0176ZM29.1058 102.667H31.5918C31.355 103.989 30.7138 105.143 29.6681 106.13C28.6224 107.116 27.0736 107.609 25.0216 107.609C22.2397 107.609 20.1976 106.692 18.8954 104.857C18.2443 103.89 17.8201 102.855 17.6228 101.75C17.4847 100.98 17.4157 100.25 17.4157 99.5596C17.4157 98.2377 17.613 96.9947 18.0076 95.8306C18.2641 95.0019 18.6389 94.2818 19.1322 93.6701C19.6649 93.019 20.4245 92.4765 21.411 92.0424C22.3975 91.6083 23.5123 91.3913 24.7553 91.3913C26.9651 91.3913 28.6323 92.0029 29.7569 93.2262C30.2304 93.7392 30.6151 94.3903 30.9111 95.1795C31.3452 96.3238 31.6115 97.7148 31.7102 99.3524C31.7102 99.4116 31.7102 99.5398 31.7102 99.7371C31.7299 99.9345 31.7398 100.053 31.7398 100.092H20.168C20.168 101.592 20.5626 102.914 21.3518 104.058C22.141 105.202 23.3347 105.775 24.9329 105.775C26.0772 105.775 27.0144 105.488 27.7444 104.916C28.4744 104.344 28.9282 103.594 29.1058 102.667ZM20.168 98.2574H28.9874C28.9677 97.0933 28.6914 96.018 28.1587 95.0315C27.5471 93.828 26.4323 93.2262 24.8145 93.2262C22.9796 93.2262 21.7168 93.8378 21.0263 95.0611C20.4541 96.0476 20.168 97.113 20.168 98.2574ZM45.6884 101.661H48.1744C48.0954 102.805 47.6614 104.009 46.8722 105.271C46.4381 105.982 45.7574 106.554 44.8301 106.988C43.9225 107.402 42.8571 107.609 41.6338 107.609C41.2195 107.609 40.9235 107.6 40.746 107.58C39.8778 107.54 38.99 107.314 38.0824 106.899C35.5569 105.636 34.2942 103.131 34.2942 99.382C34.2942 97.409 34.748 95.653 35.6556 94.1141C36.7802 92.2989 38.7138 91.3913 41.4562 91.3913C43.3898 91.3913 44.9288 91.8845 46.0731 92.8711C47.2175 93.8378 47.8784 95.1104 48.056 96.6888H45.57C45.1754 94.3804 43.8239 93.2262 41.5154 93.2262C40.0159 93.2262 38.8913 93.7786 38.1416 94.8835C37.4116 95.9687 37.0466 97.4682 37.0466 99.382C37.0466 101.237 37.4313 102.766 38.2008 103.969C38.9702 105.173 40.1343 105.775 41.693 105.775C43.0347 105.775 44.0113 105.35 44.6229 104.502C45.274 103.654 45.6292 102.707 45.6884 101.661ZM54.3087 107.018V93.8181H49.0999V91.9832H62.1218V93.8181H56.913V107.018H54.3087ZM64.1119 107.018V91.9832H66.7162V97.9614H70.4748C71.9546 97.9614 73.2272 98.1785 74.2926 98.6125C75.7724 99.1452 76.5123 100.388 76.5123 102.342C76.5123 103.959 76.0387 105.163 75.0917 105.952C74.6971 106.268 74.2334 106.505 73.7007 106.662C72.9904 106.899 72.2111 107.018 71.3627 107.018H64.1119ZM69.8829 99.7963H66.7162V105.183H70.3269C71.5501 105.183 72.4479 104.936 73.02 104.443C73.5922 103.871 73.8586 103.17 73.8191 102.342C73.8191 101.434 73.5231 100.763 72.9312 100.329C72.7339 100.191 72.4183 100.073 71.9842 99.9739C71.5107 99.8555 70.8892 99.7963 70.1197 99.7963H69.8829ZM84.4755 107.018V105.094C85.9552 105.528 87.0009 104.828 87.6126 102.993C87.7704 102.539 87.8789 101.977 87.9381 101.306L88.0565 99.5004C88.0762 99.1847 88.0861 98.5632 88.0861 97.6359V91.9832H98.5036V107.018H95.8992V93.8181H90.5129V97.6359C90.5129 98.8789 90.4833 99.9246 90.4241 100.773C90.3649 101.602 90.2169 102.509 89.9802 103.496C89.6448 104.897 89.043 105.893 88.1749 106.485C87.3067 107.077 86.0736 107.254 84.4755 107.018ZM105.358 91.9832V103.969L113.2 91.9832H116.101V107.018H113.496V95.0019L105.683 107.018H102.753V91.9832H105.358ZM137.946 85.3243H140.165C140.086 86.7646 139.416 87.7215 138.153 88.195C137.462 88.4318 136.87 88.5896 136.377 88.6685C134.167 88.9448 132.885 89.1322 132.53 89.2308C131.188 89.6057 130.162 90.2864 129.452 91.2729C128.742 92.2397 128.367 93.6307 128.327 95.4458H128.386C129.334 92.9006 131.277 91.6281 134.217 91.6281C136.604 91.6281 138.39 92.4173 139.573 93.9957C140.777 95.5544 141.379 97.4682 141.379 99.7371C141.379 101.907 140.757 103.762 139.514 105.301C138.271 106.84 136.427 107.609 133.98 107.609C131.277 107.609 129.274 106.584 127.972 104.532C127.321 103.407 126.877 102.144 126.64 100.743C126.483 99.6385 126.404 98.5435 126.404 97.4583C126.404 93.6504 126.986 90.9868 128.15 89.4676C129.176 88.1457 130.567 87.2973 132.323 86.9224C133.98 86.5475 135.381 86.3305 136.525 86.2713C137.295 86.1727 137.768 85.857 137.946 85.3243ZM129.156 99.9147C129.156 101.217 129.452 102.47 130.044 103.673C130.734 105.074 132.027 105.775 133.921 105.775C135.42 105.775 136.574 105.271 137.383 104.265C138.212 103.239 138.626 101.829 138.626 100.033C138.626 98.5533 138.37 97.1821 137.857 95.9194C137.206 94.2818 135.894 93.463 133.921 93.463C131.948 93.463 130.616 94.262 129.925 95.8602C129.412 97.0834 129.156 98.435 129.156 99.9147ZM144.789 112.463V110.539C145.539 110.638 145.973 110.687 146.092 110.687C146.841 110.687 147.374 110.411 147.69 109.859C147.887 109.563 148.015 109.316 148.074 109.119C148.134 109.02 148.262 108.695 148.459 108.142L148.814 107.018L142.303 91.9832H145.411L150.235 104.147L154.23 91.9832H156.835L150.856 108.793C150.383 110.135 149.978 111.013 149.643 111.427C148.972 112.216 148.065 112.611 146.92 112.611C146.032 112.611 145.322 112.562 144.789 112.463ZM157.073 110.924L156.836 105.183H158.73C160.368 102.776 161.187 99.2143 161.187 94.4988V91.9832H171.959V105.183H174.564L174.356 110.924H172.166V107.018H159.263V110.924H157.073ZM169.355 105.183V93.8181H163.613V95.9194C163.613 97.5175 163.436 99.1748 163.081 100.891C162.765 102.588 162.232 104.019 161.483 105.183H169.355ZM177.362 112.463V110.539C178.111 110.638 178.545 110.687 178.664 110.687C179.413 110.687 179.946 110.411 180.262 109.859C180.459 109.563 180.587 109.316 180.647 109.119C180.706 109.02 180.834 108.695 181.031 108.142L181.386 107.018L174.876 91.9832H177.983L182.807 104.147L186.802 91.9832H189.407L183.429 108.793C182.955 110.135 182.551 111.013 182.215 111.427C181.544 112.216 180.637 112.611 179.492 112.611C178.605 112.611 177.894 112.562 177.362 112.463ZM194.143 91.9832V105.183H200.418V91.9832H203.022V105.183H209.296V91.9832H211.901V105.183H214.446L214.209 110.924H212.019V107.018H191.539V91.9832H194.143ZM227.515 102.667H230.001C229.765 103.989 229.123 105.143 228.078 106.13C227.032 107.116 225.483 107.609 223.431 107.609C220.649 107.609 218.607 106.692 217.305 104.857C216.654 103.89 216.23 102.855 216.032 101.75C215.894 100.98 215.825 100.25 215.825 99.5596C215.825 98.2377 216.022 96.9947 216.417 95.8306C216.674 95.0019 217.048 94.2818 217.542 93.6701C218.074 93.019 218.834 92.4765 219.821 92.0424C220.807 91.6083 221.922 91.3913 223.165 91.3913C225.375 91.3913 227.042 92.0029 228.166 93.2262C228.64 93.7392 229.025 94.3903 229.321 95.1795C229.755 96.3238 230.021 97.7148 230.12 99.3524C230.12 99.4116 230.12 99.5398 230.12 99.7371C230.139 99.9345 230.149 100.053 230.149 100.092H218.578C218.578 101.592 218.972 102.914 219.761 104.058C220.551 105.202 221.744 105.775 223.342 105.775C224.487 105.775 225.424 105.488 226.154 104.916C226.884 104.344 227.338 103.594 227.515 102.667ZM218.578 98.2574H227.397C227.377 97.0933 227.101 96.018 226.568 95.0315C225.957 93.828 224.842 93.2262 223.224 93.2262C221.389 93.2262 220.126 93.8378 219.436 95.0611C218.864 96.0476 218.578 97.113 218.578 98.2574ZM244.394 102.667H246.88C246.643 103.989 246.002 105.143 244.956 106.13C243.91 107.116 242.362 107.609 240.31 107.609C237.528 107.609 235.486 106.692 234.183 104.857C233.532 103.89 233.108 102.855 232.911 101.75C232.773 100.98 232.704 100.25 232.704 99.5596C232.704 98.2377 232.901 96.9947 233.296 95.8306C233.552 95.0019 233.927 94.2818 234.42 93.6701C234.953 93.019 235.713 92.4765 236.699 92.0424C237.686 91.6083 238.8 91.3913 240.043 91.3913C242.253 91.3913 243.92 92.0029 245.045 93.2262C245.518 93.7392 245.903 94.3903 246.199 95.1795C246.633 96.3238 246.9 97.7148 246.998 99.3524C246.998 99.4116 246.998 99.5398 246.998 99.7371C247.018 99.9345 247.028 100.053 247.028 100.092H235.456C235.456 101.592 235.851 102.914 236.64 104.058C237.429 105.202 238.623 105.775 240.221 105.775C241.365 105.775 242.302 105.488 243.032 104.916C243.762 104.344 244.216 103.594 244.394 102.667ZM235.456 98.2574H244.275C244.256 97.0933 243.979 96.018 243.447 95.0315C242.835 93.828 241.72 93.2262 240.102 93.2262C238.268 93.2262 237.005 93.8378 236.314 95.0611C235.742 96.0476 235.456 97.113 235.456 98.2574ZM257.869 107.018H254.939V103.792H257.869V107.018ZM252.571 92.5455H249.997C249.918 90.612 250.381 89.0039 251.388 87.7215C252.433 86.439 254.189 85.7978 256.655 85.7978C258.648 85.7978 260.217 86.2713 261.361 87.2184C262.505 88.1457 263.078 89.4577 263.078 91.1545C263.078 92.2594 262.841 93.1769 262.367 93.9069C261.933 94.6369 261.154 95.4853 260.029 96.4521C259.437 96.9453 259.023 97.3103 258.786 97.5471C257.938 98.356 257.514 99.3031 257.514 100.388V101.01H255.353C255.156 99.1551 255.6 97.6556 256.685 96.5113C256.784 96.3929 257.287 95.9292 258.194 95.1203C259.063 94.3705 259.664 93.7293 260 93.1966C260.335 92.6442 260.503 92.0029 260.503 91.2729C260.503 90.4245 260.197 89.6649 259.585 88.9941C258.954 88.2838 257.968 87.9286 256.626 87.9286C253.844 87.9286 252.492 89.4676 252.571 92.5455Z" fill="black"/>
</g>
<defs>
<clipPath id="clip0_863_4614">
<rect width="320.167" height="320.167" fill="white" transform="translate(0 0.0273438)"/>
</clipPath>
</defs>
</svg>
