<svg width="388" height="388" viewBox="0 0 388 388" fill="none" xmlns="http://www.w3.org/2000/svg">
<g clip-path="url(#clip0_895_7365)">
<rect width="387.202" height="387.202" transform="translate(0 0.503906)" fill="#D0D0D0"/>
<path fill-rule="evenodd" clip-rule="evenodd" d="M192.27 68.6069V72.2841H195.926H199.581V79.6384V86.9928H203.236H206.892V108.802V130.612H203.236H199.581V137.966V145.321H195.926H192.27V152.548V159.776H188.741H185.211V192.744V225.712H188.741H192.27V229.389V233.066H195.926H199.581V240.42V247.775H203.236H206.892V254.876V261.976H203.363H199.833V258.426V254.876H196.178H192.522V251.198V247.521H185.337H178.152V243.844V240.167H174.497H170.842V232.812V225.458H167.186H163.531V221.908V218.357H167.186H170.842V207.326V196.294H163.405H155.968V203.648V211.003H152.438H148.909V225.585V240.167H145.253H141.598V243.844V247.521H137.942H134.287V251.198V254.876H130.631H126.976V262.103V269.331H123.447H119.917V251.072V232.812H116.262H112.606V229.135V225.458H109.077H105.547V218.23V211.003H101.892H98.2365V207.326V203.648H90.9256H83.6147V199.971V196.294H79.9592H76.3038V189.067V181.839H72.7744H69.245V174.485V167.13H65.5895H61.934V159.903V152.675H65.5895H69.245V148.998V145.321H72.7744H76.3038V138.093V130.865H79.9592H83.6147V127.061V123.258H76.3038H68.9929V126.935V130.612H61.6819H54.371V134.289V137.966H50.7156H47.0601V145.194V152.421H43.5307H40.0013V178.162V203.902H43.5307H47.0601V211.13V218.357H39.8752H32.6904V225.585V232.812H29.0349H25.3795V262.103V291.394H29.0349H32.6904V298.748V306.103H36.3458H40.0013V309.78V313.457H43.5307H47.0601V320.685V327.912H50.7156H54.371V331.589V335.266H58.0265H61.6819V342.621V349.975H65.3374H68.9929V360.753V371.531H65.4635H61.934V364.304V357.076H58.2786H54.6231V353.399V349.722H50.9677H47.3122V346.044V342.367H36.3458H25.3795V346.171V349.975H29.0349H32.6904V357.203V364.43H36.3458H40.0013V367.981V371.531H36.3458H32.6904V382.563V393.594H29.0349H25.3795V455.726V517.858H199.707H374.035V459.403V400.949H377.69H381.345L381.334 393.538H374.161L366.724 393.609V397.279V400.949H363.194H359.665V393.594V386.24H356.009H352.354V378.886V371.531H348.699H345.043V360.753V349.975H348.699H352.354V346.298V342.621H356.009H359.665V338.817V335.013H348.699H337.732V327.912V320.811H341.388H345.043V306.103V291.394H341.388H337.732V273.135V254.876H341.388H345.043V251.198V247.521H337.732H330.421V229.262V211.003H326.892H323.362V203.648V196.294H316.052H308.741V192.617V188.94H305.085H301.43V185.389V181.839H297.774H294.119V189.193V196.548H297.648H301.178V203.902V211.256H304.833H308.488V222.034V232.812H304.833H301.178V236.49V240.167H297.648H294.119V243.844V247.521H286.808H279.497V251.198V254.876H275.841H272.186V287.717V320.558H261.472H250.757V317.007V313.457H254.287H257.816V306.103V298.748H261.472H265.127V265.78V232.812H261.472H257.816V225.585V218.357H254.287H250.757V207.326V196.294H247.102H243.447V189.067V181.839H247.102H250.757V174.611V167.384H254.287H257.816V159.903V152.421H250.631H243.447V126.935V101.448H239.791H236.136V94.0936V86.7392H232.48H228.825V83.062V79.3848H225.169H221.514V75.8345V72.2841H217.984H214.455V68.6069V64.9297H203.363H192.27V68.6069ZM47.3122 240.167V261.976H58.1525H68.9929V251.198V240.42H65.3374H61.6819V233.066V225.712H58.0265H54.371V222.034V218.357H50.8416H47.3122V240.167ZM141.85 269.457V284.039H145.379H148.909V287.717V291.394H159.749H170.589V284.166V276.939H166.934H163.279V269.584V262.23H159.623H155.968V258.553V254.876H148.909H141.85V269.457ZM207.144 269.457V276.685H210.673H214.203V269.457V262.23H210.673H207.144V269.457ZM287.06 276.812V284.039H290.589H294.119V276.812V269.584H290.589H287.06V276.812ZM112.606 287.843V291.394H109.077H105.547V298.748V306.103H101.892H98.2365V317.007V327.912H101.766H105.295V324.235V320.558H108.951H112.606V309.526V298.495H116.262H119.917V302.172V305.849H123.447H126.976V298.621V291.394H123.321H119.665V287.843V284.293H116.136H112.606V287.843ZM214.455 287.843V291.394H217.984H221.514V287.843V284.293H217.984H214.455V287.843ZM127.228 309.653V313.203H130.758H134.287V309.653V306.103H130.758H127.228V309.653ZM134.539 331.589V342.367H138.068H141.598V338.69V335.013H145.253H148.909V331.462V327.912H145.253H141.598V324.362V320.811H138.068H134.539V331.589ZM279.749 324.362V327.912H276.094H272.438V331.589V335.266H268.783H265.127V346.171V357.076H268.783H272.438V364.304V371.531H279.623H286.808V367.981V364.43H290.463H294.119V349.848V335.266H290.463H286.808V328.039V320.811H283.278H279.749V324.362ZM330.421 338.817V342.367H333.951H337.48V338.817V335.266H333.951H330.421V338.817ZM156.22 346.298V349.975H152.564H148.909V364.43V378.886H152.564H156.22V382.563V386.24H159.875H163.531V397.145V408.049H167.06H170.589V382.69V357.33H166.934H163.279V349.975V342.621H159.749H156.22V346.298ZM236.136 346.298V349.975H232.48H228.825V368.108V386.24H236.01H243.194V364.43V342.621H239.665H236.136V346.298ZM119.917 382.69V386.24H123.447H126.976V382.69V379.139H123.447H119.917V382.69ZM25.5035 455.726C25.5035 489.968 25.5327 503.976 25.5685 486.855C25.6043 469.734 25.6043 441.718 25.5685 424.597C25.5327 407.476 25.5035 421.484 25.5035 455.726ZM119.917 415.531V430.113H127.102H134.287V426.562V423.012H130.631H126.976V411.98V400.949H123.447H119.917V415.531ZM236.136 408.176V415.404H239.665H243.194V408.176V400.949H239.665H236.136V408.176ZM236.136 426.562V430.113H239.665H243.194V426.562V423.012H239.665H236.136V426.562Z" fill="#FFFF00"/>
<path d="M36.8101 49.4238H34.09L25.9295 28.3783H25.8579L25.9295 29.3447V49.4238H22.565V24.3696H27.6117L35.4501 44.9857L43.2885 24.3696H48.3351V49.4238H44.9707V29.3447L45.0422 28.3783H44.9349L36.8101 49.4238ZM53.3691 43.9119C52.7487 41.3588 52.7726 38.8891 53.4407 36.503C54.1088 34.1169 55.5166 32.4108 57.6641 31.3848C58.8572 30.8121 60.2531 30.5258 61.8518 30.5258C63.4505 30.5258 64.8464 30.8121 66.0394 31.3848C68.1869 32.387 69.6067 34.1765 70.2986 36.7536C70.6088 37.9466 70.7639 39.1516 70.7639 40.3685C70.7878 41.5616 70.6446 42.7427 70.3344 43.9119C70.0481 45.0572 69.5351 46.1071 68.7954 47.0616C68.0795 48.016 67.1609 48.7676 66.0394 49.3165C64.8225 49.8653 63.4266 50.1397 61.8518 50.1397C60.2769 50.1397 58.8811 49.8653 57.6641 49.3165C55.5882 48.3143 54.1566 46.5128 53.3691 43.9119ZM56.6978 36.7178C56.3876 37.6722 56.2325 38.8653 56.2325 40.2969C56.2325 41.7047 56.3876 42.9097 56.6978 43.9119C57.008 44.9141 57.3659 45.6657 57.7715 46.1668C58.6305 47.1212 59.6088 47.682 60.7064 47.849C61.47 47.9683 62.2336 47.9683 62.9971 47.849C63.3312 47.8251 63.7965 47.6581 64.393 47.3479C65.0372 47.0139 65.5622 46.5963 65.9678 46.0952C66.3735 45.5941 66.7195 44.8663 67.0058 43.9119C67.316 42.9097 67.4711 41.7047 67.4711 40.2969C67.4711 38.8653 67.316 37.6722 67.0058 36.7178C66.6717 35.6679 66.3019 34.9162 65.8962 34.4629C65.5145 34.0095 65.0372 33.6277 64.4646 33.3175C63.8919 33.0073 63.4028 32.8165 62.9971 32.7449C62.2336 32.6256 61.47 32.6256 60.7064 32.7449C60.3724 32.7687 59.8952 32.9477 59.2748 33.2818C58.0579 33.8783 57.1989 35.0236 56.6978 36.7178ZM86.0199 49.4238H82.8702V40.4401L75.6403 49.4238H71.739L80.0784 39.8674L72.2043 31.2416H75.9266L82.8702 39.4737V31.2416H86.0199V39.4737L92.9635 31.2416H96.6858L88.8116 39.8674L97.1511 49.4238H93.2498L86.0199 40.4401V49.4238ZM111.724 40.9412H102.74V49.4238H99.5903V31.2416H102.74V38.7221H111.724V31.2416H114.873V49.4238H111.724V40.9412ZM119.465 43.9119C118.845 41.3588 118.868 38.8891 119.537 36.503C120.205 34.1169 121.613 32.4108 123.76 31.3848C124.953 30.8121 126.349 30.5258 127.948 30.5258C129.546 30.5258 130.942 30.8121 132.135 31.3848C134.283 32.387 135.703 34.1765 136.395 36.7536C136.705 37.9466 136.86 39.1516 136.86 40.3685C136.884 41.5616 136.74 42.7427 136.43 43.9119C136.144 45.0572 135.631 46.1071 134.891 47.0616C134.175 48.016 133.257 48.7676 132.135 49.3165C130.918 49.8653 129.522 50.1397 127.948 50.1397C126.373 50.1397 124.977 49.8653 123.76 49.3165C121.684 48.3143 120.252 46.5128 119.465 43.9119ZM122.794 36.7178C122.483 37.6722 122.328 38.8653 122.328 40.2969C122.328 41.7047 122.483 42.9097 122.794 43.9119C123.104 44.9141 123.462 45.6657 123.867 46.1668C124.726 47.1212 125.705 47.682 126.802 47.849C127.566 47.9683 128.329 47.9683 129.093 47.849C129.427 47.8251 129.892 47.6581 130.489 47.3479C131.133 47.0139 131.658 46.5963 132.064 46.0952C132.469 45.5941 132.815 44.8663 133.102 43.9119C133.412 42.9097 133.567 41.7047 133.567 40.2969C133.567 38.8653 133.412 37.6722 133.102 36.7178C132.768 35.6679 132.398 34.9162 131.992 34.4629C131.61 34.0095 131.133 33.6277 130.56 33.3175C129.988 33.0073 129.499 32.8165 129.093 32.7449C128.329 32.6256 127.566 32.6256 126.802 32.7449C126.468 32.7687 125.991 32.9477 125.371 33.2818C124.154 33.8783 123.295 35.0236 122.794 36.7178ZM147.251 49.4238V47.0974C149.041 47.6223 150.306 46.7752 151.045 44.5562C151.236 44.0073 151.367 43.3273 151.439 42.516L151.582 40.3327C151.606 39.9509 151.618 39.1993 151.618 38.0778V31.2416H164.217V49.4238H161.067V33.4607H154.553V38.0778C154.553 39.5811 154.517 40.8457 154.446 41.8718C154.374 42.8739 154.195 43.9716 153.909 45.1646C153.503 46.8588 152.775 48.0637 151.725 48.7796C150.676 49.4954 149.184 49.7102 147.251 49.4238ZM172.506 31.2416V45.7373L181.991 31.2416H185.498V49.4238H182.349V34.8924L172.9 49.4238H169.356V31.2416H172.506ZM210.557 49.4238H207.407V40.4401L200.177 49.4238H196.276L204.616 39.8674L196.741 31.2416H200.464L207.407 39.4737V31.2416H210.557V39.4737L217.501 31.2416H221.223L213.349 39.8674L221.688 49.4238H217.787L210.557 40.4401V49.4238ZM237.227 44.1624H240.234C239.947 45.7611 239.172 47.157 237.907 48.3501C236.643 49.5431 234.769 50.1397 232.288 50.1397C228.923 50.1397 226.454 49.0301 224.879 46.811C224.092 45.6418 223.579 44.3891 223.34 43.0529C223.173 42.1223 223.089 41.2394 223.089 40.4043C223.089 38.8056 223.328 37.3024 223.805 35.8945C224.115 34.8924 224.569 34.0214 225.165 33.2818C225.81 32.4943 226.728 31.8382 227.921 31.3132C229.114 30.7883 230.462 30.5258 231.966 30.5258C234.638 30.5258 236.654 31.2655 238.015 32.7449C238.587 33.3653 239.053 34.1527 239.41 35.1071C239.935 36.4911 240.257 38.1733 240.377 40.1538C240.377 40.2254 240.377 40.3804 240.377 40.6191C240.401 40.8577 240.413 41.0008 240.413 41.0486H226.418C226.418 42.862 226.895 44.4607 227.85 45.8447C228.804 47.2286 230.248 47.9206 232.18 47.9206C233.564 47.9206 234.698 47.5746 235.581 46.8826C236.464 46.1906 237.012 45.2839 237.227 44.1624ZM226.418 38.8295H237.084C237.06 37.4217 236.726 36.1212 236.082 34.9282C235.342 33.4726 233.994 32.7449 232.037 32.7449C229.818 32.7449 228.291 33.4846 227.456 34.964C226.764 36.157 226.418 37.4455 226.418 38.8295ZM243.573 37.3262V31.2416H246.723V36.8251C246.723 37.8034 246.89 38.5312 247.224 39.0084C247.63 39.5334 248.835 39.7958 250.839 39.7958C251.03 39.7958 251.722 39.772 252.915 39.7243C253.034 39.7004 253.285 39.6885 253.667 39.6885H254.418V31.2416H257.568V49.4238H254.418V41.9076C253.368 41.9791 251.961 42.0149 250.195 42.0149C247.141 42.0149 245.22 41.5377 244.432 40.5833C244.075 40.106 243.836 39.6527 243.717 39.2232C243.621 38.7937 243.573 38.1614 243.573 37.3262ZM262.715 49.4238V31.2416H265.865V38.4716H270.411C272.2 38.4716 273.739 38.734 275.028 39.259C276.817 39.9032 277.712 41.4065 277.712 43.7687C277.712 45.7253 277.139 47.1809 275.994 48.1353C275.517 48.5171 274.956 48.8034 274.312 48.9943C273.453 49.2807 272.51 49.4238 271.484 49.4238H262.715ZM269.695 40.6906H265.865V47.2047H270.232C271.711 47.2047 272.797 46.9065 273.489 46.3099C274.181 45.618 274.503 44.7709 274.455 43.7687C274.455 42.6711 274.097 41.8598 273.381 41.3349C273.143 41.1679 272.761 41.0247 272.236 40.9054C271.663 40.7622 270.912 40.6906 269.981 40.6906H269.695ZM34.4479 72.4607H25.2494V88.4238H22.0997V70.2416H37.5976V88.4238H34.4479V72.4607ZM40.6452 88.4238V86.0974C42.4348 86.6223 43.6994 85.7752 44.4391 83.5562C44.63 83.0073 44.7612 82.3273 44.8328 81.516L44.976 79.3327C44.9998 78.9509 45.0118 78.1993 45.0118 77.0778V70.2416H57.6105V88.4238H54.4608V72.4607H47.9467V77.0778C47.9467 78.5811 47.9109 79.8457 47.8393 80.8718C47.7677 81.8739 47.5888 82.9716 47.3024 84.1646C46.8968 85.8588 46.169 87.0637 45.1191 87.7796C44.0693 88.4954 42.5779 88.7102 40.6452 88.4238ZM65.148 75.6104H62.1415C62.1415 74.1787 62.6187 72.8664 63.5731 71.6733C64.7185 70.2416 66.8183 69.5258 69.8725 69.5258C71.6621 69.5258 73.2369 69.8837 74.597 70.5995C75.3844 70.9813 76.0048 71.6136 76.4582 72.4965C76.9115 73.3794 77.1263 74.4293 77.1024 75.6462L76.9235 84.0572C76.9235 84.7492 76.995 85.2861 77.1382 85.6679C77.353 86.0496 77.9137 86.2286 78.8204 86.2047V88.4238C78.4625 88.5193 77.9853 88.567 77.3888 88.567C76.3389 88.567 75.5753 88.388 75.0981 88.0301C74.6447 87.6722 74.3226 86.9683 74.1317 85.9184C72.9625 88.0659 70.8866 89.1397 67.9039 89.1397C65.8519 89.1397 64.2651 88.6863 63.1436 87.7796C62.046 86.849 61.4972 85.477 61.4972 83.6635C61.4972 81.9455 62.1176 80.6451 63.3584 79.7622C64.5992 78.8316 66.9495 78.2113 70.4094 77.9011C72.0081 77.7818 72.9625 77.6267 73.2727 77.4358C73.7261 77.1256 73.9527 76.4455 73.9527 75.3956C73.9527 72.9618 72.5927 71.7449 69.8725 71.7449C66.6512 71.7449 65.0764 73.0334 65.148 75.6104ZM73.8812 80.657L73.9527 79.118C73.5948 79.3804 73.0699 79.5952 72.3779 79.7622C71.328 79.8338 70.5167 79.9173 69.9441 80.0128C67.9636 80.3468 66.7586 80.6212 66.3291 80.836C65.2792 81.3371 64.7543 82.2438 64.7543 83.5562C64.7543 84.606 65.0645 85.4293 65.6849 86.0258C66.3291 86.6223 67.1881 86.9206 68.2619 86.9206C68.9538 86.9206 69.5862 86.8251 70.1588 86.6342C70.7553 86.4434 71.328 86.1332 71.8768 85.7037C72.4495 85.2503 72.9029 84.5941 73.2369 83.7351C73.5948 82.8761 73.8096 81.8501 73.8812 80.657ZM95.2751 81.9455H98.2816C98.1862 83.3295 97.6612 84.785 96.7068 86.3121C96.1818 87.1711 95.3586 87.8631 94.2372 88.388C93.1395 88.8891 91.851 89.1397 90.3716 89.1397C89.8706 89.1397 89.5126 89.1277 89.2979 89.1039C88.248 89.0561 87.1743 88.7817 86.0766 88.2807C83.0224 86.7535 81.4953 83.7232 81.4953 79.1896C81.4953 76.8034 82.0441 74.6798 83.1417 72.8186C84.5018 70.6234 86.8402 69.5258 90.1569 69.5258C92.4953 69.5258 94.3565 70.1223 95.7404 71.3154C97.1244 72.4846 97.9237 74.0236 98.1385 75.9325H95.1319C94.6547 73.1408 93.0202 71.7449 90.2285 71.7449C88.415 71.7449 87.0549 72.413 86.1482 73.7492C85.2654 75.0616 84.8239 76.875 84.8239 79.1896C84.8239 81.4325 85.2892 83.2817 86.2198 84.7373C87.1504 86.1928 88.5582 86.9206 90.4432 86.9206C92.0658 86.9206 93.2469 86.4076 93.9866 85.3815C94.774 84.3555 95.2035 83.2102 95.2751 81.9455ZM105.7 88.4238V72.4607H99.401V70.2416H115.149V72.4607H108.85V88.4238H105.7ZM120.706 70.2416V84.7373L130.191 70.2416H133.698V88.4238H130.548V73.8924L121.099 88.4238H117.556V70.2416H120.706ZM141.992 70.2416V78.1874L149.759 70.2416H153.445L144.927 78.6885L153.911 88.4238H150.153L141.992 79.3327V88.4238H138.842V70.2416H141.992ZM176.841 79.9412H167.857V88.4238H164.707V70.2416H167.857V77.7221H176.841V70.2416H179.991V88.4238H176.841V79.9412ZM187.553 75.6104H184.546C184.546 74.1787 185.024 72.8664 185.978 71.6733C187.123 70.2416 189.223 69.5258 192.277 69.5258C194.067 69.5258 195.642 69.8837 197.002 70.5995C197.789 70.9813 198.41 71.6136 198.863 72.4965C199.316 73.3794 199.531 74.4293 199.507 75.6462L199.328 84.0572C199.328 84.7492 199.4 85.2861 199.543 85.6679C199.758 86.0496 200.319 86.2286 201.225 86.2047V88.4238C200.867 88.5193 200.39 88.567 199.794 88.567C198.744 88.567 197.98 88.388 197.503 88.0301C197.05 87.6722 196.728 86.9683 196.537 85.9184C195.367 88.0659 193.292 89.1397 190.309 89.1397C188.257 89.1397 186.67 88.6863 185.549 87.7796C184.451 86.849 183.902 85.477 183.902 83.6635C183.902 81.9455 184.523 80.6451 185.763 79.7622C187.004 78.8316 189.354 78.2113 192.814 77.9011C194.413 77.7818 195.367 77.6267 195.678 77.4358C196.131 77.1256 196.358 76.4455 196.358 75.3956C196.358 72.9618 194.998 71.7449 192.277 71.7449C189.056 71.7449 187.481 73.0334 187.553 75.6104ZM196.286 80.657L196.358 79.118C196 79.3804 195.475 79.5952 194.783 79.7622C193.733 79.8338 192.922 79.9173 192.349 80.0128C190.369 80.3468 189.164 80.6212 188.734 80.836C187.684 81.3371 187.159 82.2438 187.159 83.5562C187.159 84.606 187.469 85.4293 188.09 86.0258C188.734 86.6223 189.593 86.9206 190.667 86.9206C191.359 86.9206 191.991 86.8251 192.564 86.6342C193.16 86.4434 193.733 86.1332 194.282 85.7037C194.854 85.2503 195.308 84.5941 195.642 83.7351C196 82.8761 196.215 81.8501 196.286 80.657ZM216.442 70.2416V78.1874L224.208 70.2416H227.895L219.377 78.6885L228.36 88.4238H224.602L216.442 79.3327V88.4238H213.292V70.2416H216.442ZM229.567 82.9119C228.946 80.3588 228.97 77.8891 229.638 75.503C230.306 73.1169 231.714 71.4108 233.862 70.3848C235.055 69.8121 236.451 69.5258 238.049 69.5258C239.648 69.5258 241.044 69.8121 242.237 70.3848C244.384 71.387 245.804 73.1765 246.496 75.7536C246.806 76.9466 246.961 78.1516 246.961 79.3685C246.985 80.5616 246.842 81.7427 246.532 82.9119C246.246 84.0572 245.732 85.1071 244.993 86.0616C244.277 87.016 243.358 87.7676 242.237 88.3165C241.02 88.8653 239.624 89.1397 238.049 89.1397C236.474 89.1397 235.078 88.8653 233.862 88.3165C231.786 87.3143 230.354 85.5128 229.567 82.9119ZM232.895 75.7178C232.585 76.6722 232.43 77.8653 232.43 79.2969C232.43 80.7047 232.585 81.9097 232.895 82.9119C233.205 83.9141 233.563 84.6657 233.969 85.1668C234.828 86.1212 235.806 86.682 236.904 86.849C237.667 86.9683 238.431 86.9683 239.195 86.849C239.529 86.8251 239.994 86.6581 240.59 86.3479C241.235 86.0139 241.76 85.5963 242.165 85.0952C242.571 84.5941 242.917 83.8663 243.203 82.9119C243.513 81.9097 243.669 80.7047 243.669 79.2969C243.669 77.8653 243.513 76.6722 243.203 75.7178C242.869 74.6679 242.499 73.9162 242.094 73.4629C241.712 73.0095 241.235 72.6277 240.662 72.3175C240.089 72.0073 239.6 71.8165 239.195 71.7449C238.431 71.6256 237.667 71.6256 236.904 71.7449C236.57 71.7687 236.093 71.9477 235.472 72.2818C234.255 72.8783 233.396 74.0236 232.895 75.7178ZM263.853 81.9455H266.859C266.764 83.3295 266.239 84.785 265.284 86.3121C264.76 87.1711 263.936 87.8631 262.815 88.388C261.717 88.8891 260.429 89.1397 258.949 89.1397C258.448 89.1397 258.09 89.1277 257.876 89.1039C256.826 89.0561 255.752 88.7817 254.654 88.2807C251.6 86.7535 250.073 83.7232 250.073 79.1896C250.073 76.8034 250.622 74.6798 251.719 72.8186C253.08 70.6234 255.418 69.5258 258.735 69.5258C261.073 69.5258 262.934 70.1223 264.318 71.3154C265.702 72.4846 266.501 74.0236 266.716 75.9325H263.71C263.232 73.1408 261.598 71.7449 258.806 71.7449C256.993 71.7449 255.633 72.413 254.726 73.7492C253.843 75.0616 253.402 76.875 253.402 79.1896C253.402 81.4325 253.867 83.2817 254.798 84.7373C255.728 86.1928 257.136 86.9206 259.021 86.9206C260.643 86.9206 261.825 86.4076 262.564 85.3815C263.352 84.3555 263.781 83.2102 263.853 81.9455ZM274.278 88.4238V72.4607H267.979V70.2416H283.727V72.4607H277.428V88.4238H274.278ZM285.854 95.0453V70.2416H288.789V72.747H288.896C290.328 70.5995 292.332 69.5258 294.909 69.5258C297.272 69.5258 299.228 70.349 300.779 71.9954C302.33 73.6657 303.106 76.1115 303.106 79.3327C303.106 82.6256 302.318 85.0833 300.743 86.7058C299.192 88.3284 297.272 89.1397 294.981 89.1397C294.265 89.1397 293.394 88.9846 292.368 88.6744C290.865 88.221 289.743 87.2666 289.004 85.811V95.0453H285.854ZM288.789 79.4043C288.789 81.9336 289.362 83.8306 290.507 85.0952C291.7 86.3121 293.001 86.9206 294.408 86.9206C295.888 86.9206 297.152 86.324 298.202 85.131C299.252 83.8902 299.777 81.9575 299.777 79.3327C299.777 76.9466 299.288 75.0854 298.31 73.7492C297.355 72.413 295.995 71.7449 294.229 71.7449C293.299 71.7449 292.428 71.9954 291.617 72.4965C289.732 73.618 288.789 75.9206 288.789 79.4043ZM320.31 83.1624H323.317C323.03 84.7611 322.255 86.157 320.99 87.3501C319.725 88.5431 317.852 89.1397 315.371 89.1397C312.006 89.1397 309.537 88.0301 307.962 85.811C307.175 84.6418 306.661 83.3891 306.423 82.0529C306.256 81.1223 306.172 80.2394 306.172 79.4043C306.172 77.8056 306.411 76.3024 306.888 74.8945C307.198 73.8924 307.652 73.0214 308.248 72.2818C308.893 71.4943 309.811 70.8382 311.004 70.3132C312.197 69.7883 313.545 69.5258 315.049 69.5258C317.721 69.5258 319.737 70.2655 321.098 71.7449C321.67 72.3653 322.135 73.1527 322.493 74.1071C323.018 75.4911 323.34 77.1733 323.46 79.1538C323.46 79.2254 323.46 79.3804 323.46 79.6191C323.484 79.8577 323.496 80.0008 323.496 80.0486H309.501C309.501 81.862 309.978 83.4607 310.933 84.8447C311.887 86.2286 313.331 86.9206 315.263 86.9206C316.647 86.9206 317.781 86.5746 318.664 85.8826C319.547 85.1906 320.095 84.2839 320.31 83.1624ZM309.501 77.8295H320.167C320.143 76.4217 319.809 75.1212 319.165 73.9282C318.425 72.4726 317.077 71.7449 315.12 71.7449C312.901 71.7449 311.374 72.4846 310.539 73.964C309.847 75.157 309.501 76.4455 309.501 77.8295ZM336.607 88.4238H333.063V84.5225H336.607V88.4238ZM330.2 70.9217H327.086C326.99 68.5833 327.551 66.6386 328.768 65.0876C330.033 63.5366 332.156 62.7611 335.139 62.7611C337.549 62.7611 339.446 63.3338 340.83 64.4792C342.214 65.6006 342.906 67.1874 342.906 69.2395C342.906 70.5757 342.62 71.6852 342.047 72.5681C341.522 73.4509 340.579 74.477 339.219 75.6462C338.503 76.2427 338.002 76.6841 337.716 76.9705C336.69 77.9488 336.177 79.0941 336.177 80.4065V81.1581H333.564C333.326 78.9152 333.862 77.1017 335.175 75.7178C335.294 75.5746 335.903 75.0139 337 74.0355C338.05 73.1288 338.778 72.3533 339.184 71.7091C339.589 71.041 339.792 70.2655 339.792 69.3826C339.792 68.3566 339.422 67.4379 338.682 66.6267C337.919 65.7677 336.726 65.3382 335.103 65.3382C331.739 65.3382 330.104 67.1993 330.2 70.9217Z" fill="black"/>
</g>
<defs>
<clipPath id="clip0_895_7365">
<rect width="387.202" height="387.202" fill="white" transform="translate(0 0.503906)"/>
</clipPath>
</defs>
</svg>
