<svg width="243" height="703" viewBox="0 0 243 703" fill="none" xmlns="http://www.w3.org/2000/svg">
<path fill-rule="evenodd" clip-rule="evenodd" d="M75.9402 3.16437V5.62807L73.4465 5.62807H70.9527V15.7422V25.8563H73.4465H75.9402V30.654V35.4517H73.4465H70.9527V40.5087V45.5658H68.459H65.9652V52.9569V60.3479H63.4715H60.9777V65.5347V70.7214L68.459 70.7214H75.9402V75.5191V80.3168H73.4465H70.9527V85.3738V90.4309H68.459H65.9652V92.8946V95.3583H63.4715L60.9777 95.3583V97.822V100.286H58.3527H55.7277V102.749V105.213H53.234H50.7403V107.677V110.14H48.2465H45.7528V112.734V115.327H43.259H40.7653V117.791V120.255H38.2715H35.7778V125.182V130.109H33.1528H30.5278V132.573V135.037H28.034H25.5403V140.094L25.5403 145.151H23.0465H20.5528V150.078V155.006H18.0591H15.5653V160.063V165.12H13.0716H10.5778L10.5778 170.047V174.974H7.95282H5.32782L5.32782 182.495L5.32782 190.016H2.83408H0.340332L0.340332 227.36L0.340332 264.705H2.83408H5.32782V269.762L5.32782 274.819H7.95282H10.5778L10.5778 406.691L10.5778 538.563H7.95282H5.32782L5.32782 580.965L5.32782 623.366H7.95282H10.5778V633.351L10.5778 643.335H13.0716H15.5653L15.5653 653.19V663.044H18.0591H20.5528V670.565L20.5528 678.086H23.0465H25.5403V683.013V687.941H28.034H30.5278V690.534V693.127H33.1528H35.7778V695.591V698.055H55.9902H76.2027V695.591V693.127H81.1902H86.1777L86.1777 690.534V687.941H91.2964H96.4152V685.477V683.013H98.7777H101.14V688.07L101.14 693.127H103.634H106.128V698.055V702.982H133.953H161.778V700.519V698.055H164.403H167.028V695.591V693.127H169.521H172.015V690.534V687.941H174.378H176.74V690.534V693.127H199.578H222.415V690.534V687.941H224.909H227.402V685.477V683.013H229.896H232.39V675.622V668.231H234.884H237.377V648.262L237.377 628.294H240.002H242.627V585.892V543.491H240.002H237.377V538.434V533.377H234.884H232.39V408.895L232.39 284.414H229.896H227.402V282.08V279.746H229.896H232.39V272.225V264.705H234.884H237.377V227.36V190.016H234.884H232.39V182.495V174.974H229.896H227.402V172.511V170.047H224.909H222.415V162.526V155.006H219.921H217.428V150.078V145.151H214.803H212.178V140.094V135.037H209.684H207.19V132.573V130.109H204.696H202.203V127.646L202.203 125.182H199.709H197.215V120.255V115.327H194.721H192.228V112.734V110.14H189.603L186.978 110.14V107.677V105.213H184.484H181.99V102.749V100.286H179.496H177.003V97.822V95.3583H174.509H172.015V92.8946V90.4309H166.896H161.778V80.5761V70.7214H166.896H172.015V63.071V55.4206H169.521H167.028V50.4932V45.5658H164.403H161.778V40.5087V35.4517H159.284L156.79 35.4517V33.1177V30.7836H159.284H161.778V20.6695V10.5554H159.284H156.79V5.62807V0.700684L116.365 0.700684L75.9402 0.700684V3.16437ZM156.79 192.609V200.13H154.296H151.803V207.521V214.912H156.79H161.778V212.319V209.725H164.271H166.765V202.464V195.203H164.271H161.778V190.146V185.088H159.284H156.79V192.609ZM55.9902 262.241V264.705H65.9652H75.9402V262.241V259.777H65.9652H55.9902V262.241ZM101.403 267.168V269.632H103.765H106.128V267.168V264.705H103.765H101.403V267.168ZM126.603 481.25V483.584H128.965H131.328V481.25V478.916H128.965H126.603V481.25ZM116.628 493.698V498.626H118.99H121.353V496.162V493.698H123.846H126.34V491.234V488.771H121.484H116.628V493.698ZM126.603 496.292V498.626H128.965H131.328V496.292V493.958H128.965H126.603V496.292ZM101.403 511.203V513.667H103.896H106.39V518.594V523.522H136.578H166.765V521.188V518.854H164.271H161.778V516.26V513.667H149.178H136.578V511.203V508.74H118.99H101.403V511.203ZM96.4152 516.131V518.594H98.7777H101.14V516.131V513.667H98.7777H96.4152V516.131ZM91.4277 521.188V523.522H93.7902H96.1527V521.188V518.854H93.7902H91.4277V521.188ZM116.628 546.084V548.418H118.99H121.353V546.084V543.75H118.99H116.628V546.084ZM126.603 546.084V548.418H128.965H131.328V546.084V543.75H128.965H126.603V546.084ZM106.39 551.141V553.605H98.9089H91.4277V555.939V558.273H101.403H111.378V553.475V548.677H108.884H106.39V551.141ZM81.1902 555.939V558.273H83.684H86.1777V555.939V553.605H83.684H81.1902V555.939ZM111.378 565.923L111.378 568.387H113.871H116.365L116.365 565.923V563.46H113.871H111.378V565.923ZM121.615 565.923L121.615 568.387H123.978H126.34L126.34 565.923V563.46H123.978H121.615V565.923ZM101.403 585.892V588.356H103.896H106.39V590.819V593.283H116.496H126.603V595.747V598.211H128.965H131.328V590.819V583.428H126.471H121.615V585.892V588.356H118.99H116.365V585.892V583.428H108.884H101.403V585.892ZM96.4152 590.819V593.283H98.7777H101.14V590.819V588.356H98.7777H96.4152V590.819ZM101.403 605.731V608.065H103.896H106.39V615.586V623.107H108.884H111.378V615.586V608.065H113.871H116.365V605.731V603.397H108.884H101.403V605.731ZM131.59 605.861V608.325H129.096H126.603V610.788V613.252H124.109H121.615V618.179V623.107H126.471H131.328V620.643V618.179H133.953H136.578V615.716V613.252H139.071H141.565V608.325V603.397H136.578H131.59V605.861ZM146.815 620.773V623.107H149.178H151.54V620.773V618.439H149.178H146.815V620.773ZM35.7778 650.596V652.93H38.2715H40.7653V650.596V648.262H38.2715H35.7778V650.596ZM51.0028 668.102V673.159H48.509H46.0153V675.493V677.827H48.509H51.0028V682.884V687.941H53.3652H55.7277V680.42V672.899H60.8465H65.9652V670.565V668.231H63.4715H60.9777V665.638V663.044H55.9902H51.0028V668.102ZM106.39 675.493V677.827H111.378H116.365V675.493V673.159H111.378H106.39V675.493Z" fill="white"/>
</svg>
