<svg width="144" height="69" viewBox="0 0 144 69" fill="none" xmlns="http://www.w3.org/2000/svg">
<path d="M101.079 68.6859C99.5581 68.6859 98.2219 68.398 97.0703 67.8222C95.9186 67.2463 95.018 66.4343 94.3683 65.386C93.7335 64.3377 93.416 63.1196 93.416 61.7317V61.6874C93.416 59.7237 94.1469 58.1587 95.6086 56.9923C97.0703 55.8111 99.1226 55.1467 101.765 54.999L110.292 54.5118V57.5016L102.208 57.9889C100.673 58.0775 99.4769 58.4466 98.6206 59.0962C97.779 59.7459 97.3582 60.6096 97.3582 61.6874V61.7317C97.3582 62.8391 97.7716 63.7176 98.5984 64.3672C99.44 65.0169 100.555 65.3417 101.943 65.3417C103.153 65.3417 104.239 65.0907 105.198 64.5887C106.173 64.0719 106.94 63.3706 107.502 62.4847C108.077 61.5988 108.365 60.6022 108.365 59.4949V52.6957C108.365 51.2931 107.922 50.1931 107.036 49.3958C106.165 48.5838 104.925 48.1777 103.316 48.1777C101.839 48.1777 100.643 48.5026 99.7279 49.1522C98.8273 49.7871 98.2662 50.6213 98.0447 51.6548L98.0005 51.8541H94.2797L94.3019 51.6105C94.42 50.3408 94.8482 49.1891 95.5864 48.1556C96.3394 47.1221 97.373 46.3026 98.687 45.6973C100.001 45.0771 101.559 44.7671 103.36 44.7671C105.176 44.7671 106.741 45.0771 108.055 45.6973C109.384 46.3174 110.41 47.1959 111.134 48.3328C111.857 49.4549 112.219 50.7837 112.219 52.3192V68.2429H108.365V64.5001H108.277C107.834 65.3417 107.243 66.0799 106.505 66.7148C105.767 67.3349 104.932 67.8222 104.002 68.1765C103.087 68.5161 102.112 68.6859 101.079 68.6859Z" fill="black"/>
<path d="M72.8689 68.6859C70.0193 68.6859 67.5905 68.1913 65.5825 67.202C63.5892 66.198 62.0685 64.7732 61.0202 62.9277C59.9719 61.0673 59.4478 58.8526 59.4478 56.2835V56.2393C59.4478 54.2755 59.8759 52.4669 60.7323 50.8132C61.5886 49.1448 62.7846 47.7717 64.3201 46.6939C65.8556 45.6161 67.6348 44.9738 69.6575 44.7671V48.5099C68.3287 48.7314 67.1992 49.2039 66.269 49.9273C65.3389 50.6361 64.6228 51.5293 64.1208 52.6071C63.6335 53.685 63.3899 54.8883 63.3899 56.2171V56.2614C63.3899 58.2251 63.796 59.8787 64.608 61.2223C65.4348 62.5512 66.5643 63.5625 67.9965 64.2565C69.4287 64.9357 71.0602 65.2752 72.891 65.2752C73.7916 65.2752 74.6701 65.1793 75.5265 64.9873C76.3829 64.7954 77.1432 64.5149 77.8076 64.1457C79.2398 63.8209 80.4727 63.223 81.5062 62.3518C82.5397 61.4807 83.337 60.4398 83.8981 59.2291C84.4591 58.0036 84.7397 56.7117 84.7397 55.3534V55.3091C84.7397 54.2017 84.5182 53.2051 84.0753 52.3192C83.6323 51.4333 83.0343 50.7394 82.2813 50.2374C81.5283 49.7206 80.672 49.4623 79.7123 49.4623C78.7378 49.4623 77.8741 49.7133 77.1211 50.2153C76.3681 50.7025 75.7775 51.3817 75.3493 52.2528C74.9359 53.1239 74.7292 54.1353 74.7292 55.2869V55.3312C74.7292 56.5272 74.9728 57.7157 75.4601 58.8969C75.9621 60.0633 76.6781 61.119 77.6083 62.0639C78.5533 62.9941 79.6828 63.7102 80.9968 64.2122C81.7055 64.6699 82.4216 65.0021 83.1451 65.2088C83.8685 65.4007 84.6585 65.4967 85.5148 65.4967C86.3712 65.4967 87.1758 65.4081 87.9288 65.2309C88.6818 65.039 89.3979 64.788 90.0771 64.4779L91.1623 67.3571C90.2321 67.8148 89.2946 68.147 88.3496 68.3537C87.4047 68.5752 86.4524 68.6859 85.4927 68.6859C83.8833 68.6859 82.4142 68.4792 81.0854 68.0658C79.7566 67.6376 78.5385 67.0101 77.4311 66.1833C76.2057 65.5484 75.0836 64.7363 74.0648 63.7471C73.0608 62.7431 72.2635 61.5398 71.6729 60.1371C71.0823 58.7345 70.787 57.1325 70.787 55.3312V55.2869C70.787 53.5004 71.1635 51.9132 71.9165 50.5253C72.6695 49.1374 73.7178 48.0449 75.0614 47.2476C76.405 46.4503 77.9553 46.0516 79.7123 46.0516C81.4841 46.0516 83.0417 46.4503 84.3853 47.2476C85.7289 48.0301 86.7772 49.1153 87.5302 50.5032C88.298 51.8911 88.6818 53.4856 88.6818 55.2869V55.3312C88.6818 57.103 88.357 58.7493 87.7074 60.27C87.0577 61.776 86.1275 63.0827 84.9168 64.19C83.7061 65.2826 82.2518 66.1021 80.5539 66.6484C79.4465 67.2685 78.2358 67.7631 76.9218 68.1322C75.6225 68.5013 74.2715 68.6859 72.8689 68.6859Z" fill="black"/>
<path d="M23.6973 68.2429V45.21H27.5508V48.5764H27.6394C28.1562 47.4395 28.9683 46.5241 30.0756 45.8301C31.183 45.1214 32.4749 44.7671 33.9513 44.7671C34.9996 44.7671 35.9446 44.9443 36.7862 45.2986C37.6425 45.6382 38.3807 46.1402 39.0009 46.8046C39.621 47.4543 40.0935 48.2516 40.4183 49.1965H40.5069C40.935 48.2663 41.5035 47.4764 42.2122 46.8268C42.9357 46.1624 43.7625 45.653 44.6927 45.2986C45.6376 44.9443 46.649 44.7671 47.7268 44.7671C49.2476 44.7671 50.569 45.0845 51.6911 45.7194C52.8132 46.3395 53.6843 47.218 54.3045 48.3549C54.9246 49.477 55.2346 50.8058 55.2346 52.3414V68.2429H51.3811V53.2273C51.3811 51.6474 50.9603 50.4146 50.1187 49.5287C49.2919 48.6281 48.1181 48.1777 46.5973 48.1777C45.5785 48.1777 44.6779 48.414 43.8954 48.8864C43.1128 49.3441 42.5001 49.9864 42.0572 50.8132C41.6142 51.6253 41.3927 52.5555 41.3927 53.6038V68.2429H37.5392V52.8065C37.5392 51.4038 37.111 50.2817 36.2546 49.4401C35.3983 48.5985 34.254 48.1777 32.8218 48.1777C31.8031 48.1777 30.8951 48.4287 30.0978 48.9307C29.3152 49.418 28.6951 50.0824 28.2374 50.924C27.7797 51.7656 27.5508 52.7253 27.5508 53.8031V68.2429H23.6973Z" fill="black"/>
<path d="M7.66287 68.6859C6.14211 68.6859 4.80591 68.398 3.65426 67.8222C2.50261 67.2463 1.60197 66.4343 0.952322 65.386C0.317441 64.3377 0 63.1196 0 61.7317V61.6874C0 59.7237 0.730852 58.1587 2.19256 56.9923C3.65426 55.8111 5.70655 55.1467 8.34943 54.999L16.876 54.5118V57.5016L8.79237 57.9889C7.25684 58.0775 6.0609 58.4466 5.20455 59.0962C4.36297 59.7459 3.94217 60.6096 3.94217 61.6874V61.7317C3.94217 62.8391 4.35558 63.7176 5.18241 64.3672C6.02399 65.0169 7.13873 65.3417 8.52661 65.3417C9.73731 65.3417 10.8225 65.0907 11.7822 64.5887C12.7567 64.0719 13.5245 63.3706 14.0855 62.4847C14.6613 61.5988 14.9492 60.6022 14.9492 59.4949V52.6957C14.9492 51.2931 14.5063 50.1931 13.6204 49.3958C12.7493 48.5838 11.5091 48.1777 9.89972 48.1777C8.42325 48.1777 7.22731 48.5026 6.3119 49.1522C5.41126 49.7871 4.8502 50.6213 4.62873 51.6548L4.58444 51.8541H0.863734L0.885881 51.6105C1.004 50.3408 1.43217 49.1891 2.17041 48.1556C2.92341 47.1221 3.95694 46.3026 5.27099 45.6973C6.58505 45.0771 8.14272 44.7671 9.94402 44.7671C11.7601 44.7671 13.3251 45.0771 14.6392 45.6973C15.968 46.3174 16.9942 47.1959 17.7176 48.3328C18.4411 49.4549 18.8028 50.7837 18.8028 52.3192V68.2429H14.9492V64.5001H14.8607C14.4177 65.3417 13.8271 66.0799 13.0889 66.7148C12.3507 67.3349 11.5165 67.8222 10.5863 68.1765C9.67087 68.5161 8.6964 68.6859 7.66287 68.6859Z" fill="black"/>
<path d="M134.366 32.4012C132.196 32.4012 130.306 31.914 128.697 30.9395C127.102 29.9503 125.869 28.5624 124.998 26.7759C124.127 24.9746 123.691 22.8558 123.691 20.4197V20.3975C123.691 17.9761 124.134 15.8721 125.02 14.0856C125.906 12.2991 127.146 10.9186 128.741 9.94413C130.336 8.96966 132.196 8.48242 134.322 8.48242C136.241 8.48242 137.888 8.85892 139.261 9.61192C140.634 10.3502 141.712 11.3099 142.494 12.491C143.292 13.6722 143.771 14.9198 143.934 16.2339L143.956 16.4111H140.191L140.147 16.2339C139.866 15.0822 139.246 14.0709 138.286 13.1997C137.341 12.3286 136.02 11.8931 134.322 11.8931C132.993 11.8931 131.827 12.2474 130.823 12.9561C129.819 13.6501 129.036 14.6393 128.475 15.9238C127.914 17.1936 127.634 18.6996 127.634 20.4418V20.464C127.634 22.2505 127.914 23.7786 128.475 25.0484C129.051 26.3182 129.841 27.2926 130.845 27.9718C131.864 28.651 133.037 28.9906 134.366 28.9906C135.946 28.9906 137.223 28.5919 138.198 27.7946C139.187 26.9826 139.844 25.9343 140.169 24.6498L140.213 24.4726H144L143.978 24.6276C143.771 26.0893 143.232 27.4108 142.361 28.5919C141.505 29.7583 140.39 30.6885 139.017 31.3825C137.659 32.0616 136.109 32.4012 134.366 32.4012Z" fill="black"/>
<path d="M115.718 31.9582V8.92529H119.572V31.9582H115.718Z" fill="black"/>
<path d="M115.722 0.0473633V4.23372H119.567V0.0473633H115.722Z" fill="black"/>
<path d="M109.273 32.4013C107.162 32.4013 105.582 31.8993 104.534 30.8953C103.486 29.8913 102.962 28.2894 102.962 26.0894V12.1146H99.5952V8.92547H102.962V2.70215H106.948V8.92547H111.333V12.1146H106.948V26.0673C106.948 27.2927 107.214 28.1269 107.745 28.5699C108.277 28.9981 109.059 29.2121 110.093 29.2121C110.329 29.2121 110.551 29.2048 110.757 29.19C110.979 29.1605 111.171 29.1383 111.333 29.1236V32.2463C111.097 32.2758 110.787 32.3054 110.403 32.3349C110.034 32.3792 109.657 32.4013 109.273 32.4013Z" fill="black"/>
<path d="M88.8316 32.4012C87.0304 32.4012 85.4727 32.1133 84.1586 31.5375C82.8446 30.9617 81.8037 30.157 81.0359 29.1235C80.2829 28.0899 79.8252 26.8866 79.6628 25.5135L79.6406 25.3142H83.4942L83.5385 25.5356C83.7747 26.6873 84.3284 27.5879 85.1995 28.2376C86.0706 28.8725 87.2887 29.1899 88.8538 29.1899C89.9021 29.1899 90.7953 29.057 91.5336 28.7913C92.2718 28.5107 92.8403 28.1195 93.2389 27.6175C93.6375 27.1007 93.8369 26.4953 93.8369 25.8014V25.7793C93.8369 24.9524 93.5859 24.288 93.0839 23.786C92.5819 23.284 91.6738 22.8706 90.3598 22.5458L86.7055 21.6599C84.5351 21.1431 82.9184 20.368 81.8553 19.3345C80.7923 18.2862 80.2607 16.9352 80.2607 15.2816V15.2594C80.2607 13.9306 80.6151 12.7568 81.3238 11.738C82.0473 10.7193 83.0439 9.92198 84.3136 9.34616C85.5982 8.77033 87.0673 8.48242 88.7209 8.48242C90.4041 8.48242 91.8658 8.7851 93.106 9.39045C94.361 9.98104 95.3429 10.7931 96.0516 11.8266C96.775 12.8454 97.1811 13.997 97.2697 15.2816L97.2918 15.5695H93.6154L93.5933 15.4144C93.4456 14.2923 92.951 13.3917 92.1094 12.7125C91.2826 12.0333 90.1531 11.6937 88.7209 11.6937C87.7907 11.6937 86.9861 11.834 86.3069 12.1145C85.6277 12.3951 85.1036 12.7937 84.7344 13.3105C84.3801 13.8125 84.2029 14.4031 84.2029 15.0822V15.1044C84.2029 15.8869 84.4834 16.5513 85.0445 17.0976C85.6056 17.6439 86.521 18.0721 87.7907 18.3821L91.445 19.268C93.7778 19.8291 95.4167 20.6042 96.3616 21.5935C97.3066 22.5679 97.779 23.8746 97.779 25.5135V25.5356C97.779 26.8792 97.3878 28.0678 96.6053 29.1013C95.8375 30.1348 94.7744 30.9469 93.4161 31.5375C92.0725 32.1133 90.5443 32.4012 88.8316 32.4012Z" fill="black"/>
<path d="M64.6248 32.4012C63.104 32.4012 61.7678 32.1133 60.6162 31.5375C59.4645 30.9617 58.5639 30.1496 57.9142 29.1013C57.2794 28.053 56.9619 26.8349 56.9619 25.4471V25.4028C56.9619 23.4391 57.6928 21.874 59.1545 20.7076C60.6162 19.5264 62.6685 18.862 65.3113 18.7144L73.838 18.2271V21.217L65.7543 21.7042C64.2188 21.7928 63.0228 22.1619 62.1665 22.8116C61.3249 23.4612 60.9041 24.3249 60.9041 25.4028V25.4471C60.9041 26.5544 61.3175 27.4329 62.1443 28.0825C62.9859 28.7322 64.1006 29.057 65.4885 29.057C66.6992 29.057 67.7844 28.806 68.7441 28.304C69.7186 27.7873 70.4864 27.0859 71.0474 26.2C71.6232 25.3142 71.9112 24.3176 71.9112 23.2102V16.4111C71.9112 15.0084 71.4682 13.9084 70.5823 13.1112C69.7112 12.2991 68.471 11.8931 66.8616 11.8931C65.3852 11.8931 64.1892 12.2179 63.2738 12.8675C62.3732 13.5024 61.8121 14.3366 61.5906 15.3701L61.5463 15.5695H57.8256L57.8478 15.3259C57.9659 14.0561 58.3941 12.9044 59.1323 11.8709C59.8853 10.8374 60.9189 10.0179 62.2329 9.4126C63.547 8.79248 65.1046 8.48242 66.9059 8.48242C68.722 8.48242 70.287 8.79248 71.6011 9.4126C72.9299 10.0327 73.9561 10.9112 74.6795 12.0481C75.403 13.1702 75.7647 14.499 75.7647 16.0346V31.9583H71.9112V28.2154H71.8226C71.3796 29.057 70.789 29.7952 70.0508 30.4301C69.3126 31.0502 68.4784 31.5375 67.5482 31.8918C66.6328 32.2314 65.6583 32.4012 64.6248 32.4012Z" fill="black"/>
<path d="M48.834 31.9582V0H52.6876V31.9582H48.834Z" fill="black"/>
<path d="M23.6973 39.7097V8.92536H27.5508V12.8232H27.6394C28.1267 11.9226 28.7246 11.1548 29.4333 10.5199C30.1568 9.8703 30.9836 9.3683 31.9138 9.01395C32.844 8.6596 33.8554 8.48242 34.948 8.48242C36.9117 8.48242 38.6244 8.97704 40.0861 9.96627C41.5625 10.9407 42.7068 12.3286 43.5189 14.1299C44.3309 15.9164 44.7369 18.0204 44.7369 20.4418V20.464C44.7369 22.8854 44.3235 24.9893 43.4967 26.7759C42.6847 28.5624 41.5478 29.9503 40.0861 30.9395C38.6391 31.914 36.9486 32.4012 35.0144 32.4012C33.9366 32.4012 32.9252 32.2314 31.9803 31.8918C31.0353 31.5375 30.1937 31.0429 29.4555 30.408C28.732 29.7583 28.1267 28.9906 27.6394 28.1047H27.5508V39.7097H23.6973ZM34.195 28.9906C35.5533 28.9906 36.7271 28.6436 37.7163 27.9497C38.7056 27.2557 39.466 26.2739 39.9975 25.0041C40.529 23.7196 40.7948 22.2062 40.7948 20.464V20.4418C40.7948 18.6701 40.529 17.1493 39.9975 15.8795C39.466 14.595 38.7056 13.6132 37.7163 12.934C36.7271 12.24 35.5533 11.8931 34.195 11.8931C32.8957 11.8931 31.744 12.2474 30.74 12.9561C29.736 13.6648 28.9461 14.6614 28.3703 15.946C27.8092 17.2157 27.5287 18.7144 27.5287 20.4418V20.464C27.5287 22.1767 27.8166 23.6753 28.3924 24.9598C28.9683 26.2296 29.7508 27.2188 30.74 27.9275C31.744 28.6362 32.8957 28.9906 34.195 28.9906Z" fill="black"/>
<path d="M7.66287 32.4012C6.14211 32.4012 4.80591 32.1133 3.65426 31.5375C2.50261 30.9617 1.60197 30.1496 0.952322 29.1013C0.317441 28.053 0 26.8349 0 25.4471V25.4028C0 23.4391 0.730852 21.874 2.19256 20.7076C3.65426 19.5264 5.70655 18.862 8.34943 18.7144L16.876 18.2271V21.217L8.79237 21.7042C7.25684 21.7928 6.0609 22.1619 5.20455 22.8116C4.36297 23.4612 3.94217 24.3249 3.94217 25.4028V25.4471C3.94217 26.5544 4.35558 27.4329 5.18241 28.0825C6.02399 28.7322 7.13873 29.057 8.52661 29.057C9.73731 29.057 10.8225 28.806 11.7822 28.304C12.7567 27.7873 13.5245 27.0859 14.0855 26.2C14.6613 25.3142 14.9492 24.3176 14.9492 23.2102V16.4111C14.9492 15.0084 14.5063 13.9084 13.6204 13.1112C12.7493 12.2991 11.5091 11.8931 9.89972 11.8931C8.42325 11.8931 7.22731 12.2179 6.3119 12.8675C5.41126 13.5024 4.8502 14.3366 4.62873 15.3701L4.58444 15.5695H0.863734L0.885881 15.3259C1.004 14.0561 1.43217 12.9044 2.17041 11.8709C2.92341 10.8374 3.95694 10.0179 5.27099 9.4126C6.58505 8.79248 8.14272 8.48242 9.94402 8.48242C11.7601 8.48242 13.3251 8.79248 14.6392 9.4126C15.968 10.0327 16.9942 10.9112 17.7176 12.0481C18.4411 13.1702 18.8028 14.499 18.8028 16.0346V31.9583H14.9492V28.2154H14.8607C14.4177 29.057 13.8271 29.7952 13.0889 30.4301C12.3507 31.0502 11.5165 31.5375 10.5863 31.8918C9.67087 32.2314 8.6964 32.4012 7.66287 32.4012Z" fill="black"/>
</svg>
