<svg width="595" height="595" viewBox="0 0 595 595" fill="none" xmlns="http://www.w3.org/2000/svg">
<rect width="595" height="595" fill="#FFFF00"/>
<path d="M180.05 65V33.95H168.65V30H196.1V33.95H184.75V65H180.05ZM201.659 47.1H197.459C197.459 45.1 198.126 43.2667 199.459 41.6C201.059 39.6 203.992 38.6 208.259 38.6C210.759 38.6 212.959 39.1 214.859 40.1C215.959 40.6333 216.826 41.5167 217.459 42.75C218.092 43.9833 218.392 45.45 218.359 47.15L218.109 58.9C218.109 59.8667 218.209 60.6167 218.409 61.15C218.709 61.6833 219.492 61.9333 220.759 61.9V65C220.259 65.1333 219.592 65.2 218.759 65.2C217.292 65.2 216.226 64.95 215.559 64.45C214.926 63.95 214.476 62.9667 214.209 61.5C212.576 64.5 209.676 66 205.509 66C202.642 66 200.426 65.3667 198.859 64.1C197.326 62.8 196.559 60.8833 196.559 58.35C196.559 55.95 197.426 54.1333 199.159 52.9C200.892 51.6 204.176 50.7333 209.009 50.3C211.242 50.1333 212.576 49.9167 213.009 49.65C213.642 49.2167 213.959 48.2667 213.959 46.8C213.959 43.4 212.059 41.7 208.259 41.7C203.759 41.7 201.559 43.5 201.659 47.1ZM213.859 54.15L213.959 52C213.459 52.3667 212.726 52.6667 211.759 52.9C210.292 53 209.159 53.1167 208.359 53.25C205.592 53.7167 203.909 54.1 203.309 54.4C201.842 55.1 201.109 56.3667 201.109 58.2C201.109 59.6667 201.542 60.8167 202.409 61.65C203.309 62.4833 204.509 62.9 206.009 62.9C206.976 62.9 207.859 62.7667 208.659 62.5C209.492 62.2333 210.292 61.8 211.059 61.2C211.859 60.5667 212.492 59.65 212.959 58.45C213.459 57.25 213.759 55.8167 213.859 54.15ZM230.346 39.6V50.7L241.196 39.6H246.346L234.446 51.4L246.996 65H241.746L230.346 52.3V65H225.946V39.6H230.346ZM279.329 42.7H266.479V65H262.079V39.6H283.729V65H279.329V42.7ZM290.936 74.25V39.6H295.036V43.1H295.186C297.186 40.1 299.986 38.6 303.586 38.6C306.886 38.6 309.619 39.75 311.786 42.05C313.953 44.3833 315.036 47.8 315.036 52.3C315.036 56.9 313.936 60.3333 311.736 62.6C309.569 64.8667 306.886 66 303.686 66C302.686 66 301.469 65.7833 300.036 65.35C297.936 64.7167 296.369 63.3833 295.336 61.35V74.25H290.936ZM295.036 52.4C295.036 55.9333 295.836 58.5833 297.436 60.35C299.103 62.05 300.919 62.9 302.886 62.9C304.953 62.9 306.719 62.0667 308.186 60.4C309.653 58.6667 310.386 55.9667 310.386 52.3C310.386 48.9667 309.703 46.3667 308.336 44.5C307.003 42.6333 305.103 41.7 302.636 41.7C301.336 41.7 300.119 42.05 298.986 42.75C296.353 44.3167 295.036 47.5333 295.036 52.4ZM319.97 57.3C319.103 53.7333 319.137 50.2833 320.07 46.95C321.003 43.6167 322.97 41.2333 325.97 39.8C327.637 39 329.587 38.6 331.82 38.6C334.053 38.6 336.003 39 337.67 39.8C340.67 41.2 342.653 43.7 343.62 47.3C344.053 48.9667 344.27 50.65 344.27 52.35C344.303 54.0167 344.103 55.6667 343.67 57.3C343.27 58.9 342.553 60.3667 341.52 61.7C340.52 63.0333 339.237 64.0833 337.67 64.85C335.97 65.6167 334.02 66 331.82 66C329.62 66 327.67 65.6167 325.97 64.85C323.07 63.45 321.07 60.9333 319.97 57.3ZM324.62 47.25C324.187 48.5833 323.97 50.25 323.97 52.25C323.97 54.2167 324.187 55.9 324.62 57.3C325.053 58.7 325.553 59.75 326.12 60.45C327.32 61.7833 328.687 62.5667 330.22 62.8C331.287 62.9667 332.353 62.9667 333.42 62.8C333.887 62.7667 334.537 62.5333 335.37 62.1C336.27 61.6333 337.003 61.05 337.57 60.35C338.137 59.65 338.62 58.6333 339.02 57.3C339.453 55.9 339.67 54.2167 339.67 52.25C339.67 50.25 339.453 48.5833 339.02 47.25C338.553 45.7833 338.037 44.7333 337.47 44.1C336.937 43.4667 336.27 42.9333 335.47 42.5C334.67 42.0667 333.987 41.8 333.42 41.7C332.353 41.5333 331.287 41.5333 330.22 41.7C329.753 41.7333 329.087 41.9833 328.22 42.45C326.52 43.2833 325.32 44.8833 324.62 47.25ZM354.467 39.6V59.85L367.717 39.6H372.617V65H368.217V44.7L355.017 65H350.067V39.6H354.467ZM397.603 55.95H401.803C401.67 57.8833 400.936 59.9167 399.603 62.05C398.87 63.25 397.72 64.2167 396.153 64.95C394.62 65.65 392.82 66 390.753 66C390.053 66 389.553 65.9833 389.253 65.95C387.786 65.8833 386.286 65.5 384.753 64.8C380.486 62.6667 378.353 58.4333 378.353 52.1C378.353 48.7667 379.12 45.8 380.653 43.2C382.553 40.1333 385.82 38.6 390.453 38.6C393.72 38.6 396.32 39.4333 398.253 41.1C400.186 42.7333 401.303 44.8833 401.603 47.55H397.403C396.736 43.65 394.453 41.7 390.553 41.7C388.02 41.7 386.12 42.6333 384.853 44.5C383.62 46.3333 383.003 48.8667 383.003 52.1C383.003 55.2333 383.653 57.8167 384.953 59.85C386.253 61.8833 388.22 62.9 390.853 62.9C393.12 62.9 394.77 62.1833 395.803 60.75C396.903 59.3167 397.503 57.7167 397.603 55.95ZM409.196 39.6L415.696 49L422.196 39.6H427.096L418.196 51.75L427.796 65H422.896L415.696 54.55L408.496 65H403.596L413.196 51.75L404.296 39.6H409.196ZM430.614 57.3C429.748 53.7333 429.781 50.2833 430.714 46.95C431.648 43.6167 433.614 41.2333 436.614 39.8C438.281 39 440.231 38.6 442.464 38.6C444.698 38.6 446.648 39 448.314 39.8C451.314 41.2 453.298 43.7 454.264 47.3C454.698 48.9667 454.914 50.65 454.914 52.35C454.948 54.0167 454.748 55.6667 454.314 57.3C453.914 58.9 453.198 60.3667 452.164 61.7C451.164 63.0333 449.881 64.0833 448.314 64.85C446.614 65.6167 444.664 66 442.464 66C440.264 66 438.314 65.6167 436.614 64.85C433.714 63.45 431.714 60.9333 430.614 57.3ZM435.264 47.25C434.831 48.5833 434.614 50.25 434.614 52.25C434.614 54.2167 434.831 55.9 435.264 57.3C435.698 58.7 436.198 59.75 436.764 60.45C437.964 61.7833 439.331 62.5667 440.864 62.8C441.931 62.9667 442.998 62.9667 444.064 62.8C444.531 62.7667 445.181 62.5333 446.014 62.1C446.914 61.6333 447.648 61.05 448.214 60.35C448.781 59.65 449.264 58.6333 449.664 57.3C450.098 55.9 450.314 54.2167 450.314 52.25C450.314 50.25 450.098 48.5833 449.664 47.25C449.198 45.7833 448.681 44.7333 448.114 44.1C447.581 43.4667 446.914 42.9333 446.114 42.5C445.314 42.0667 444.631 41.8 444.064 41.7C442.998 41.5333 441.931 41.5333 440.864 41.7C440.398 41.7333 439.731 41.9833 438.864 42.45C437.164 43.2833 435.964 44.8833 435.264 47.25ZM457.511 71.6L457.111 61.9H460.311C463.078 57.8333 464.461 51.8167 464.461 43.85V39.6H482.661V61.9H487.061L486.711 71.6H483.011V65H461.211V71.6H457.511ZM478.261 61.9V42.7H468.561V46.25C468.561 48.95 468.261 51.75 467.661 54.65C467.128 57.5167 466.228 59.9333 464.961 61.9H478.261ZM495.238 39.6V59.85L508.488 39.6H513.388V65H508.988V44.7L495.788 65H490.838V39.6H495.238ZM526.425 65V42.7H517.625V39.6H539.625V42.7H530.825V65H526.425Z" fill="black"/>
<path d="M29.6 117V91.6H41.7C47.0667 91.6 49.75 93.6167 49.75 97.65C49.75 100.55 48.2167 102.533 45.15 103.6V103.75C47.2167 104.25 48.65 105.05 49.45 106.15C50.2833 107.25 50.7 108.667 50.7 110.4C50.7 113.167 49.6833 115 47.65 115.9C45.9833 116.633 43.95 117 41.55 117H29.6ZM40.3 94.7H34V102.2H40.1C41.8667 102.2 43.1667 101.85 44 101.15C44.8667 100.417 45.3 99.4667 45.3 98.3C45.3 95.9 43.6333 94.7 40.3 94.7ZM40.3 105.3H34V113.9H40.45C44.25 113.9 46.15 112.6 46.15 110C46.15 106.867 44.2 105.3 40.3 105.3ZM56.5531 117V91.6H60.9531V101.65H67.3531C69.3865 101.65 71.0865 101.85 72.4531 102.25C75.7198 103.083 77.4198 105.467 77.5531 109.4C77.5531 111.733 76.8365 113.583 75.4031 114.95C74.0031 116.317 71.8198 117 68.8531 117H56.5531ZM66.3031 104.75H60.9531V113.9H67.1031C71.0365 113.9 73.0031 112.3 73.0031 109.1C73.0031 107.533 72.4865 106.4 71.4531 105.7C71.1198 105.433 70.5698 105.217 69.8031 105.05C69.0031 104.85 67.8365 104.75 66.3031 104.75ZM80.6531 117V91.6H85.0531V117H80.6531ZM92.2465 126.25V91.6H96.3465V95.1H96.4965C98.4965 92.1 101.296 90.6 104.896 90.6C108.196 90.6 110.93 91.75 113.096 94.05C115.263 96.3833 116.346 99.8 116.346 104.3C116.346 108.9 115.246 112.333 113.046 114.6C110.88 116.867 108.196 118 104.996 118C103.996 118 102.78 117.783 101.346 117.35C99.2465 116.717 97.6798 115.383 96.6465 113.35V126.25H92.2465ZM96.3465 104.4C96.3465 107.933 97.1465 110.583 98.7465 112.35C100.413 114.05 102.23 114.9 104.196 114.9C106.263 114.9 108.03 114.067 109.496 112.4C110.963 110.667 111.696 107.967 111.696 104.3C111.696 100.967 111.013 98.3667 109.646 96.5C108.313 94.6333 106.413 93.7 103.946 93.7C102.646 93.7 101.43 94.05 100.296 94.75C97.6632 96.3167 96.3465 99.5333 96.3465 104.4ZM140.38 109.65H144.58C144.18 111.883 143.097 113.833 141.33 115.5C139.564 117.167 136.947 118 133.48 118C128.78 118 125.33 116.45 123.13 113.35C122.03 111.717 121.314 109.967 120.98 108.1C120.747 106.8 120.63 105.567 120.63 104.4C120.63 102.167 120.964 100.067 121.63 98.1C122.064 96.7 122.697 95.4833 123.53 94.45C124.43 93.35 125.714 92.4333 127.38 91.7C129.047 90.9667 130.93 90.6 133.03 90.6C136.764 90.6 139.58 91.6333 141.48 93.7C142.28 94.5667 142.93 95.6667 143.43 97C144.164 98.9333 144.614 101.283 144.78 104.05C144.78 104.15 144.78 104.367 144.78 104.7C144.814 105.033 144.83 105.233 144.83 105.3H125.28C125.28 107.833 125.947 110.067 127.28 112C128.614 113.933 130.63 114.9 133.33 114.9C135.264 114.9 136.847 114.417 138.08 113.45C139.314 112.483 140.08 111.217 140.38 109.65ZM125.28 102.2H140.18C140.147 100.233 139.68 98.4167 138.78 96.75C137.747 94.7167 135.864 93.7 133.13 93.7C130.03 93.7 127.897 94.7333 126.73 96.8C125.764 98.4667 125.28 100.267 125.28 102.2ZM148.596 109.2H152.796C152.796 110.867 153.396 112.233 154.596 113.3C155.796 114.367 157.446 114.9 159.546 114.9C161.613 114.9 163.229 114.483 164.396 113.65C165.563 112.783 166.146 111.533 166.146 109.9C166.146 106.867 164.229 105.35 160.396 105.35H156.646V102.25H159.896C163.429 102.25 165.196 100.933 165.196 98.3C165.196 97.8667 165.129 97.4333 164.996 97C164.896 96.5667 164.663 96.0833 164.296 95.55C163.963 94.9833 163.379 94.5333 162.546 94.2C161.713 93.8667 160.679 93.7 159.446 93.7C157.246 93.7 155.696 94.2167 154.796 95.25C153.896 96.2833 153.446 97.4 153.446 98.6H149.246C149.346 96.8667 149.796 95.4167 150.596 94.25C151.396 93.0833 152.429 92.25 153.696 91.75C155.763 90.9833 157.763 90.6 159.696 90.6C161.396 90.6 162.896 90.8 164.196 91.2C165.496 91.5667 166.479 92.0167 167.146 92.55C167.846 93.0833 168.396 93.7167 168.796 94.45C169.229 95.1833 169.496 95.8333 169.596 96.4C169.696 96.9333 169.746 97.4667 169.746 98C169.746 100.967 168.279 102.817 165.346 103.55V103.7C166.913 103.933 168.196 104.617 169.196 105.75C170.196 106.883 170.696 108.367 170.696 110.2C170.696 112.067 170.029 113.767 168.696 115.3C167.063 117.1 164.129 118 159.896 118C156.329 118 153.613 117.25 151.746 115.75C149.646 113.917 148.596 111.733 148.596 109.2ZM180.826 91.6V102.7L191.676 91.6H196.826L184.926 103.4L197.476 117H192.226L180.826 104.3V117H176.426V91.6H180.826ZM204.239 99.1H200.039C200.039 97.1 200.706 95.2667 202.039 93.6C203.639 91.6 206.572 90.6 210.839 90.6C213.339 90.6 215.539 91.1 217.439 92.1C218.539 92.6333 219.406 93.5167 220.039 94.75C220.672 95.9833 220.972 97.45 220.939 99.15L220.689 110.9C220.689 111.867 220.789 112.617 220.989 113.15C221.289 113.683 222.072 113.933 223.339 113.9V117C222.839 117.133 222.172 117.2 221.339 117.2C219.872 117.2 218.806 116.95 218.139 116.45C217.506 115.95 217.056 114.967 216.789 113.5C215.156 116.5 212.256 118 208.089 118C205.222 118 203.006 117.367 201.439 116.1C199.906 114.8 199.139 112.883 199.139 110.35C199.139 107.95 200.006 106.133 201.739 104.9C203.472 103.6 206.756 102.733 211.589 102.3C213.822 102.133 215.156 101.917 215.589 101.65C216.222 101.217 216.539 100.267 216.539 98.8C216.539 95.4 214.639 93.7 210.839 93.7C206.339 93.7 204.139 95.5 204.239 99.1ZM216.439 106.15L216.539 104C216.039 104.367 215.306 104.667 214.339 104.9C212.872 105 211.739 105.117 210.939 105.25C208.172 105.717 206.489 106.1 205.889 106.4C204.422 107.1 203.689 108.367 203.689 110.2C203.689 111.667 204.122 112.817 204.989 113.65C205.889 114.483 207.089 114.9 208.589 114.9C209.556 114.9 210.439 114.767 211.239 114.5C212.072 114.233 212.872 113.8 213.639 113.2C214.439 112.567 215.072 111.65 215.539 110.45C216.039 109.25 216.339 107.817 216.439 106.15ZM258.646 126.25H254.246V117.65C251.346 117.583 248.846 117.183 246.746 116.45C244.679 115.683 243.079 114.65 241.946 113.35C240.812 112.05 239.996 110.65 239.496 109.15C238.996 107.65 238.746 105.983 238.746 104.15C238.746 101.717 239.262 99.45 240.296 97.35C242.329 93.0167 246.979 90.9 254.246 91V82H258.646V91C261.646 90.9333 264.296 91.3667 266.596 92.3C268.096 92.8667 269.362 93.6167 270.396 94.55C271.529 95.4833 272.429 96.8 273.096 98.5C273.796 100.167 274.146 102.05 274.146 104.15C274.146 108.35 272.879 111.617 270.346 113.95C267.812 116.283 263.912 117.517 258.646 117.65V126.25ZM254.246 114.55V94.1C251.712 93.9333 249.362 94.4833 247.196 95.75C244.662 97.2833 243.396 100.067 243.396 104.1C243.396 107.5 244.296 110.05 246.096 111.75C248.229 113.683 250.946 114.617 254.246 114.55ZM258.646 94.1V114.55C262.946 114.55 265.896 113.333 267.496 110.9C268.829 108.867 269.496 106.6 269.496 104.1C269.496 103.3 269.429 102.5 269.296 101.7C269.162 100.867 268.846 99.95 268.346 98.95C267.879 97.95 267.262 97.1 266.496 96.4C265.762 95.6667 264.712 95.0833 263.346 94.65C262.012 94.1833 260.446 94 258.646 94.1ZM284.293 91.6V111.85L297.543 91.6H302.443V117H298.043V96.7L284.843 117H279.893V91.6H284.293ZM327.029 94.7H314.029V117H309.629V91.6H327.029V94.7ZM332.21 126.2V122.95C333.477 123.117 334.21 123.2 334.41 123.2C335.677 123.2 336.577 122.733 337.11 121.8C337.443 121.3 337.66 120.883 337.76 120.55C337.86 120.383 338.077 119.833 338.41 118.9L339.01 117L328.01 91.6H333.26L341.41 112.15L348.16 91.6H352.56L342.46 120C341.66 122.267 340.977 123.75 340.41 124.45C339.277 125.783 337.743 126.45 335.81 126.45C334.31 126.45 333.11 126.367 332.21 126.2ZM356.163 126.25V91.6H360.263V95.1H360.413C362.413 92.1 365.213 90.6 368.813 90.6C372.113 90.6 374.846 91.75 377.013 94.05C379.179 96.3833 380.263 99.8 380.263 104.3C380.263 108.9 379.163 112.333 376.963 114.6C374.796 116.867 372.113 118 368.913 118C367.913 118 366.696 117.783 365.263 117.35C363.163 116.717 361.596 115.383 360.563 113.35V126.25H356.163ZM360.263 104.4C360.263 107.933 361.063 110.583 362.663 112.35C364.329 114.05 366.146 114.9 368.113 114.9C370.179 114.9 371.946 114.067 373.413 112.4C374.879 110.667 375.613 107.967 375.613 104.3C375.613 100.967 374.929 98.3667 373.563 96.5C372.229 94.6333 370.329 93.7 367.863 93.7C366.563 93.7 365.346 94.05 364.213 94.75C361.579 96.3167 360.263 99.5333 360.263 104.4ZM34 141.6V161.85L47.25 141.6H52.15V167H47.75V146.7L34.55 167H29.6V141.6H34ZM57.3363 159.2H61.5363C61.5363 160.867 62.1363 162.233 63.3363 163.3C64.5363 164.367 66.1863 164.9 68.2863 164.9C70.353 164.9 71.9697 164.483 73.1363 163.65C74.303 162.783 74.8863 161.533 74.8863 159.9C74.8863 156.867 72.9697 155.35 69.1363 155.35H65.3863V152.25H68.6363C72.1697 152.25 73.9363 150.933 73.9363 148.3C73.9363 147.867 73.8697 147.433 73.7363 147C73.6363 146.567 73.403 146.083 73.0363 145.55C72.703 144.983 72.1197 144.533 71.2863 144.2C70.453 143.867 69.4197 143.7 68.1863 143.7C65.9863 143.7 64.4363 144.217 63.5363 145.25C62.6363 146.283 62.1863 147.4 62.1863 148.6H57.9863C58.0863 146.867 58.5363 145.417 59.3363 144.25C60.1363 143.083 61.1697 142.25 62.4363 141.75C64.503 140.983 66.503 140.6 68.4363 140.6C70.1363 140.6 71.6363 140.8 72.9363 141.2C74.2363 141.567 75.2197 142.017 75.8863 142.55C76.5863 143.083 77.1363 143.717 77.5363 144.45C77.9697 145.183 78.2363 145.833 78.3363 146.4C78.4363 146.933 78.4863 147.467 78.4863 148C78.4863 150.967 77.0197 152.817 74.0863 153.55V153.7C75.653 153.933 76.9363 154.617 77.9363 155.75C78.9363 156.883 79.4363 158.367 79.4363 160.2C79.4363 162.067 78.7697 163.767 77.4363 165.3C75.803 167.1 72.8697 168 68.6363 168C65.0697 168 62.353 167.25 60.4863 165.75C58.3863 163.917 57.3363 161.733 57.3363 159.2ZM114.086 144.7H101.236V167H96.8363V141.6H118.486V167H114.086V144.7ZM124.894 159.3C124.027 155.733 124.06 152.283 124.994 148.95C125.927 145.617 127.894 143.233 130.894 141.8C132.56 141 134.51 140.6 136.744 140.6C138.977 140.6 140.927 141 142.594 141.8C145.594 143.2 147.577 145.7 148.544 149.3C148.977 150.967 149.194 152.65 149.194 154.35C149.227 156.017 149.027 157.667 148.594 159.3C148.194 160.9 147.477 162.367 146.444 163.7C145.444 165.033 144.16 166.083 142.594 166.85C140.894 167.617 138.944 168 136.744 168C134.544 168 132.594 167.617 130.894 166.85C127.994 165.45 125.994 162.933 124.894 159.3ZM129.544 149.25C129.11 150.583 128.894 152.25 128.894 154.25C128.894 156.217 129.11 157.9 129.544 159.3C129.977 160.7 130.477 161.75 131.044 162.45C132.244 163.783 133.61 164.567 135.144 164.8C136.21 164.967 137.277 164.967 138.344 164.8C138.81 164.767 139.46 164.533 140.294 164.1C141.194 163.633 141.927 163.05 142.494 162.35C143.06 161.65 143.544 160.633 143.944 159.3C144.377 157.9 144.594 156.217 144.594 154.25C144.594 152.25 144.377 150.583 143.944 149.25C143.477 147.783 142.96 146.733 142.394 146.1C141.86 145.467 141.194 144.933 140.394 144.5C139.594 144.067 138.91 143.8 138.344 143.7C137.277 143.533 136.21 143.533 135.144 143.7C134.677 143.733 134.01 143.983 133.144 144.45C131.444 145.283 130.244 146.883 129.544 149.25ZM152.041 167V163.75C154.541 164.483 156.307 163.3 157.341 160.2C157.607 159.433 157.791 158.483 157.891 157.35L158.091 154.3C158.124 153.767 158.141 152.717 158.141 151.15V141.6H175.741V167H171.341V144.7H162.241V151.15C162.241 153.25 162.191 155.017 162.091 156.45C161.991 157.85 161.741 159.383 161.341 161.05C160.774 163.417 159.757 165.1 158.291 166.1C156.824 167.1 154.741 167.4 152.041 167ZM183.87 176.2V172.95C185.137 173.117 185.87 173.2 186.07 173.2C187.337 173.2 188.237 172.733 188.77 171.8C189.104 171.3 189.32 170.883 189.42 170.55C189.52 170.383 189.737 169.833 190.07 168.9L190.67 167L179.67 141.6H184.92L193.07 162.15L199.82 141.6H204.22L194.12 170C193.32 172.267 192.637 173.75 192.07 174.45C190.937 175.783 189.404 176.45 187.47 176.45C185.97 176.45 184.77 176.367 183.87 176.2ZM206.473 150.1V141.6H210.873V149.4C210.873 150.767 211.106 151.783 211.573 152.45C212.139 153.183 213.823 153.55 216.623 153.55C216.889 153.55 217.856 153.517 219.523 153.45C219.689 153.417 220.039 153.4 220.573 153.4H221.623V141.6H226.023V167H221.623V156.5C220.156 156.6 218.189 156.65 215.723 156.65C211.456 156.65 208.773 155.983 207.673 154.65C207.173 153.983 206.839 153.35 206.673 152.75C206.539 152.15 206.473 151.267 206.473 150.1ZM251.513 159.65H255.713C255.313 161.883 254.23 163.833 252.463 165.5C250.697 167.167 248.08 168 244.613 168C239.913 168 236.463 166.45 234.263 163.35C233.163 161.717 232.447 159.967 232.113 158.1C231.88 156.8 231.763 155.567 231.763 154.4C231.763 152.167 232.097 150.067 232.763 148.1C233.197 146.7 233.83 145.483 234.663 144.45C235.563 143.35 236.847 142.433 238.513 141.7C240.18 140.967 242.063 140.6 244.163 140.6C247.897 140.6 250.713 141.633 252.613 143.7C253.413 144.567 254.063 145.667 254.563 147C255.297 148.933 255.747 151.283 255.913 154.05C255.913 154.15 255.913 154.367 255.913 154.7C255.947 155.033 255.963 155.233 255.963 155.3H236.413C236.413 157.833 237.08 160.067 238.413 162C239.747 163.933 241.763 164.9 244.463 164.9C246.397 164.9 247.98 164.417 249.213 163.45C250.447 162.483 251.213 161.217 251.513 159.65ZM236.413 152.2H251.313C251.28 150.233 250.813 148.417 249.913 146.75C248.88 144.717 246.997 143.7 244.263 143.7C241.163 143.7 239.03 144.733 237.863 146.8C236.897 148.467 236.413 150.267 236.413 152.2ZM278.679 155.15H266.129V167H261.729V141.6H266.129V152.05H278.679V141.6H283.079V167H278.679V155.15ZM307.243 155.15H294.693V167H290.293V141.6H294.693V152.05H307.243V141.6H311.643V167H307.243V155.15ZM318.858 167V141.6H323.258V151.65H329.658C331.691 151.65 333.391 151.85 334.758 152.25C338.024 153.083 339.724 155.467 339.858 159.4C339.858 161.733 339.141 163.583 337.708 164.95C336.308 166.317 334.124 167 331.158 167H318.858ZM328.608 154.75H323.258V163.9H329.408C333.341 163.9 335.308 162.3 335.308 159.1C335.308 157.533 334.791 156.4 333.758 155.7C333.424 155.433 332.874 155.217 332.108 155.05C331.308 154.85 330.141 154.75 328.608 154.75ZM342.958 167V141.6H347.358V167H342.958ZM356.551 141.6L363.051 151L369.551 141.6H374.451L365.551 153.75L375.151 167H370.251L363.051 156.55L355.851 167H350.951L360.551 153.75L351.651 141.6H356.551ZM387.49 167V163.75C389.99 164.483 391.757 163.3 392.79 160.2C393.057 159.433 393.24 158.483 393.34 157.35L393.54 154.3C393.573 153.767 393.59 152.717 393.59 151.15V141.6H411.19V167H406.79V144.7H397.69V151.15C397.69 153.25 397.64 155.017 397.54 156.45C397.44 157.85 397.19 159.383 396.79 161.05C396.223 163.417 395.207 165.1 393.74 166.1C392.273 167.1 390.19 167.4 387.49 167ZM422.77 141.6V161.85L436.02 141.6H440.92V167H436.52V146.7L423.32 167H418.37V141.6H422.77ZM465.906 157.95H470.106C469.973 159.883 469.239 161.917 467.906 164.05C467.173 165.25 466.023 166.217 464.456 166.95C462.923 167.65 461.123 168 459.056 168C458.356 168 457.856 167.983 457.556 167.95C456.089 167.883 454.589 167.5 453.056 166.8C448.789 164.667 446.656 160.433 446.656 154.1C446.656 150.767 447.423 147.8 448.956 145.2C450.856 142.133 454.123 140.6 458.756 140.6C462.023 140.6 464.623 141.433 466.556 143.1C468.489 144.733 469.606 146.883 469.906 149.55H465.706C465.039 145.65 462.756 143.7 458.856 143.7C456.323 143.7 454.423 144.633 453.156 146.5C451.923 148.333 451.306 150.867 451.306 154.1C451.306 157.233 451.956 159.817 453.256 161.85C454.556 163.883 456.523 164.9 459.156 164.9C461.423 164.9 463.073 164.183 464.106 162.75C465.206 161.317 465.806 159.717 465.906 157.95ZM480.47 167V144.7H471.67V141.6H493.67V144.7H484.87V167H480.47ZM496.183 159.3C495.316 155.733 495.349 152.283 496.283 148.95C497.216 145.617 499.183 143.233 502.183 141.8C503.849 141 505.799 140.6 508.033 140.6C510.266 140.6 512.216 141 513.883 141.8C516.883 143.2 518.866 145.7 519.833 149.3C520.266 150.967 520.483 152.65 520.483 154.35C520.516 156.017 520.316 157.667 519.883 159.3C519.483 160.9 518.766 162.367 517.733 163.7C516.733 165.033 515.449 166.083 513.883 166.85C512.183 167.617 510.233 168 508.033 168C505.833 168 503.883 167.617 502.183 166.85C499.283 165.45 497.283 162.933 496.183 159.3ZM500.833 149.25C500.399 150.583 500.183 152.25 500.183 154.25C500.183 156.217 500.399 157.9 500.833 159.3C501.266 160.7 501.766 161.75 502.333 162.45C503.533 163.783 504.899 164.567 506.433 164.8C507.499 164.967 508.566 164.967 509.633 164.8C510.099 164.767 510.749 164.533 511.583 164.1C512.483 163.633 513.216 163.05 513.783 162.35C514.349 161.65 514.833 160.633 515.233 159.3C515.666 157.9 515.883 156.217 515.883 154.25C515.883 152.25 515.666 150.583 515.233 149.25C514.766 147.783 514.249 146.733 513.683 146.1C513.149 145.467 512.483 144.933 511.683 144.5C510.883 144.067 510.199 143.8 509.633 143.7C508.566 143.533 507.499 143.533 506.433 143.7C505.966 143.733 505.299 143.983 504.433 144.45C502.733 145.283 501.533 146.883 500.833 149.25ZM526.28 167V141.6H538.38C543.746 141.6 546.43 143.617 546.43 147.65C546.43 150.55 544.896 152.533 541.83 153.6V153.75C543.896 154.25 545.33 155.05 546.13 156.15C546.963 157.25 547.38 158.667 547.38 160.4C547.38 163.167 546.363 165 544.33 165.9C542.663 166.633 540.63 167 538.23 167H526.28ZM536.98 144.7H530.68V152.2H536.78C538.546 152.2 539.846 151.85 540.68 151.15C541.546 150.417 541.98 149.467 541.98 148.3C541.98 145.9 540.313 144.7 536.98 144.7ZM536.98 155.3H530.68V163.9H537.13C540.93 163.9 542.83 162.6 542.83 160C542.83 156.867 540.88 155.3 536.98 155.3Z" fill="black"/>
<rect x="139" y="30" width="10" height="10" fill="#D0D0D0"/>
<rect x="30" y="30" width="10" height="10" fill="#D0D0D0"/>
<rect x="170" y="298" width="10" height="10" fill="#D0D0D0"/>
<rect x="555" y="298" width="10" height="10" fill="#D0D0D0"/>
</svg>
