<svg width="595" height="595" viewBox="0 0 595 595" fill="none" xmlns="http://www.w3.org/2000/svg">
<rect width="595" height="595" fill="#FFFF00"/>
<path d="M180.05 65V33.95H168.65V30H196.1V33.95H184.75V65H180.05ZM201.659 47.1H197.459C197.459 45.1 198.126 43.2667 199.459 41.6C201.059 39.6 203.992 38.6 208.259 38.6C210.759 38.6 212.959 39.1 214.859 40.1C215.959 40.6333 216.826 41.5167 217.459 42.75C218.092 43.9833 218.392 45.45 218.359 47.15L218.109 58.9C218.109 59.8667 218.209 60.6167 218.409 61.15C218.709 61.6833 219.492 61.9333 220.759 61.9V65C220.259 65.1333 219.592 65.2 218.759 65.2C217.292 65.2 216.226 64.95 215.559 64.45C214.926 63.95 214.476 62.9667 214.209 61.5C212.576 64.5 209.676 66 205.509 66C202.642 66 200.426 65.3667 198.859 64.1C197.326 62.8 196.559 60.8833 196.559 58.35C196.559 55.95 197.426 54.1333 199.159 52.9C200.892 51.6 204.176 50.7333 209.009 50.3C211.242 50.1333 212.576 49.9167 213.009 49.65C213.642 49.2167 213.959 48.2667 213.959 46.8C213.959 43.4 212.059 41.7 208.259 41.7C203.759 41.7 201.559 43.5 201.659 47.1ZM213.859 54.15L213.959 52C213.459 52.3667 212.726 52.6667 211.759 52.9C210.292 53 209.159 53.1167 208.359 53.25C205.592 53.7167 203.909 54.1 203.309 54.4C201.842 55.1 201.109 56.3667 201.109 58.2C201.109 59.6667 201.542 60.8167 202.409 61.65C203.309 62.4833 204.509 62.9 206.009 62.9C206.976 62.9 207.859 62.7667 208.659 62.5C209.492 62.2333 210.292 61.8 211.059 61.2C211.859 60.5667 212.492 59.65 212.959 58.45C213.459 57.25 213.759 55.8167 213.859 54.15ZM230.346 39.6V50.7L241.196 39.6H246.346L234.446 51.4L246.996 65H241.746L230.346 52.3V65H225.946V39.6H230.346ZM279.329 42.7H266.479V65H262.079V39.6H283.729V65H279.329V42.7ZM290.936 74.25V39.6H295.036V43.1H295.186C297.186 40.1 299.986 38.6 303.586 38.6C306.886 38.6 309.619 39.75 311.786 42.05C313.953 44.3833 315.036 47.8 315.036 52.3C315.036 56.9 313.936 60.3333 311.736 62.6C309.569 64.8667 306.886 66 303.686 66C302.686 66 301.469 65.7833 300.036 65.35C297.936 64.7167 296.369 63.3833 295.336 61.35V74.25H290.936ZM295.036 52.4C295.036 55.9333 295.836 58.5833 297.436 60.35C299.103 62.05 300.919 62.9 302.886 62.9C304.953 62.9 306.719 62.0667 308.186 60.4C309.653 58.6667 310.386 55.9667 310.386 52.3C310.386 48.9667 309.703 46.3667 308.336 44.5C307.003 42.6333 305.103 41.7 302.636 41.7C301.336 41.7 300.119 42.05 298.986 42.75C296.353 44.3167 295.036 47.5333 295.036 52.4ZM319.97 57.3C319.103 53.7333 319.137 50.2833 320.07 46.95C321.003 43.6167 322.97 41.2333 325.97 39.8C327.637 39 329.587 38.6 331.82 38.6C334.053 38.6 336.003 39 337.67 39.8C340.67 41.2 342.653 43.7 343.62 47.3C344.053 48.9667 344.27 50.65 344.27 52.35C344.303 54.0167 344.103 55.6667 343.67 57.3C343.27 58.9 342.553 60.3667 341.52 61.7C340.52 63.0333 339.237 64.0833 337.67 64.85C335.97 65.6167 334.02 66 331.82 66C329.62 66 327.67 65.6167 325.97 64.85C323.07 63.45 321.07 60.9333 319.97 57.3ZM324.62 47.25C324.187 48.5833 323.97 50.25 323.97 52.25C323.97 54.2167 324.187 55.9 324.62 57.3C325.053 58.7 325.553 59.75 326.12 60.45C327.32 61.7833 328.687 62.5667 330.22 62.8C331.287 62.9667 332.353 62.9667 333.42 62.8C333.887 62.7667 334.537 62.5333 335.37 62.1C336.27 61.6333 337.003 61.05 337.57 60.35C338.137 59.65 338.62 58.6333 339.02 57.3C339.453 55.9 339.67 54.2167 339.67 52.25C339.67 50.25 339.453 48.5833 339.02 47.25C338.553 45.7833 338.037 44.7333 337.47 44.1C336.937 43.4667 336.27 42.9333 335.47 42.5C334.67 42.0667 333.987 41.8 333.42 41.7C332.353 41.5333 331.287 41.5333 330.22 41.7C329.753 41.7333 329.087 41.9833 328.22 42.45C326.52 43.2833 325.32 44.8833 324.62 47.25ZM354.467 39.6V59.85L367.717 39.6H372.617V65H368.217V44.7L355.017 65H350.067V39.6H354.467ZM397.603 55.95H401.803C401.67 57.8833 400.936 59.9167 399.603 62.05C398.87 63.25 397.72 64.2167 396.153 64.95C394.62 65.65 392.82 66 390.753 66C390.053 66 389.553 65.9833 389.253 65.95C387.786 65.8833 386.286 65.5 384.753 64.8C380.486 62.6667 378.353 58.4333 378.353 52.1C378.353 48.7667 379.12 45.8 380.653 43.2C382.553 40.1333 385.82 38.6 390.453 38.6C393.72 38.6 396.32 39.4333 398.253 41.1C400.186 42.7333 401.303 44.8833 401.603 47.55H397.403C396.736 43.65 394.453 41.7 390.553 41.7C388.02 41.7 386.12 42.6333 384.853 44.5C383.62 46.3333 383.003 48.8667 383.003 52.1C383.003 55.2333 383.653 57.8167 384.953 59.85C386.253 61.8833 388.22 62.9 390.853 62.9C393.12 62.9 394.77 62.1833 395.803 60.75C396.903 59.3167 397.503 57.7167 397.603 55.95ZM409.196 39.6L415.696 49L422.196 39.6H427.096L418.196 51.75L427.796 65H422.896L415.696 54.55L408.496 65H403.596L413.196 51.75L404.296 39.6H409.196ZM430.614 57.3C429.748 53.7333 429.781 50.2833 430.714 46.95C431.648 43.6167 433.614 41.2333 436.614 39.8C438.281 39 440.231 38.6 442.464 38.6C444.698 38.6 446.648 39 448.314 39.8C451.314 41.2 453.298 43.7 454.264 47.3C454.698 48.9667 454.914 50.65 454.914 52.35C454.948 54.0167 454.748 55.6667 454.314 57.3C453.914 58.9 453.198 60.3667 452.164 61.7C451.164 63.0333 449.881 64.0833 448.314 64.85C446.614 65.6167 444.664 66 442.464 66C440.264 66 438.314 65.6167 436.614 64.85C433.714 63.45 431.714 60.9333 430.614 57.3ZM435.264 47.25C434.831 48.5833 434.614 50.25 434.614 52.25C434.614 54.2167 434.831 55.9 435.264 57.3C435.698 58.7 436.198 59.75 436.764 60.45C437.964 61.7833 439.331 62.5667 440.864 62.8C441.931 62.9667 442.998 62.9667 444.064 62.8C444.531 62.7667 445.181 62.5333 446.014 62.1C446.914 61.6333 447.648 61.05 448.214 60.35C448.781 59.65 449.264 58.6333 449.664 57.3C450.098 55.9 450.314 54.2167 450.314 52.25C450.314 50.25 450.098 48.5833 449.664 47.25C449.198 45.7833 448.681 44.7333 448.114 44.1C447.581 43.4667 446.914 42.9333 446.114 42.5C445.314 42.0667 444.631 41.8 444.064 41.7C442.998 41.5333 441.931 41.5333 440.864 41.7C440.398 41.7333 439.731 41.9833 438.864 42.45C437.164 43.2833 435.964 44.8833 435.264 47.25ZM457.511 71.6L457.111 61.9H460.311C463.078 57.8333 464.461 51.8167 464.461 43.85V39.6H482.661V61.9H487.061L486.711 71.6H483.011V65H461.211V71.6H457.511ZM478.261 61.9V42.7H468.561V46.25C468.561 48.95 468.261 51.75 467.661 54.65C467.128 57.5167 466.228 59.9333 464.961 61.9H478.261ZM495.238 39.6V59.85L508.488 39.6H513.388V65H508.988V44.7L495.788 65H490.838V39.6H495.238ZM526.425 65V42.7H517.625V39.6H539.625V42.7H530.825V65H526.425Z" fill="black"/>
<path d="M34 90.6V110.85L47.25 90.6H52.15V116H47.75V95.7L34.55 116H29.6V90.6H34ZM57.3363 108.2H61.5363C61.5363 109.867 62.1363 111.233 63.3363 112.3C64.5363 113.367 66.1863 113.9 68.2863 113.9C70.353 113.9 71.9697 113.483 73.1363 112.65C74.303 111.783 74.8863 110.533 74.8863 108.9C74.8863 105.867 72.9697 104.35 69.1363 104.35H65.3863V101.25H68.6363C72.1697 101.25 73.9363 99.9333 73.9363 97.3C73.9363 96.8667 73.8697 96.4333 73.7363 96C73.6363 95.5667 73.403 95.0833 73.0363 94.55C72.703 93.9833 72.1197 93.5333 71.2863 93.2C70.453 92.8667 69.4197 92.7 68.1863 92.7C65.9863 92.7 64.4363 93.2167 63.5363 94.25C62.6363 95.2833 62.1863 96.4 62.1863 97.6H57.9863C58.0863 95.8667 58.5363 94.4167 59.3363 93.25C60.1363 92.0833 61.1697 91.25 62.4363 90.75C64.503 89.9833 66.503 89.6 68.4363 89.6C70.1363 89.6 71.6363 89.8 72.9363 90.2C74.2363 90.5667 75.2197 91.0167 75.8863 91.55C76.5863 92.0833 77.1363 92.7167 77.5363 93.45C77.9697 94.1833 78.2363 94.8333 78.3363 95.4C78.4363 95.9333 78.4863 96.4667 78.4863 97C78.4863 99.9667 77.0197 101.817 74.0863 102.55V102.7C75.653 102.933 76.9363 103.617 77.9363 104.75C78.9363 105.883 79.4363 107.367 79.4363 109.2C79.4363 111.067 78.7697 112.767 77.4363 114.3C75.803 116.1 72.8697 117 68.6363 117C65.0697 117 62.353 116.25 60.4863 114.75C58.3863 112.917 57.3363 110.733 57.3363 108.2ZM101.566 116H98.1664L89.5664 95.6H89.4664L89.5664 96.95V116H85.1664V90.6H91.2164L99.8664 111.25L108.516 90.6H114.566V116H110.166V96.95L110.316 95.6H110.166L101.566 116ZM140.088 108.65H144.288C143.888 110.883 142.804 112.833 141.038 114.5C139.271 116.167 136.654 117 133.188 117C128.488 117 125.038 115.45 122.838 112.35C121.738 110.717 121.021 108.967 120.688 107.1C120.454 105.8 120.338 104.567 120.338 103.4C120.338 101.167 120.671 99.0667 121.338 97.1C121.771 95.7 122.404 94.4833 123.238 93.45C124.138 92.35 125.421 91.4333 127.088 90.7C128.754 89.9667 130.638 89.6 132.738 89.6C136.471 89.6 139.288 90.6333 141.188 92.7C141.988 93.5667 142.638 94.6667 143.138 96C143.871 97.9333 144.321 100.283 144.488 103.05C144.488 103.15 144.488 103.367 144.488 103.7C144.521 104.033 144.538 104.233 144.538 104.3H124.988C124.988 106.833 125.654 109.067 126.988 111C128.321 112.933 130.338 113.9 133.038 113.9C134.971 113.9 136.554 113.417 137.788 112.45C139.021 111.483 139.788 110.217 140.088 108.65ZM124.988 101.2H139.888C139.854 99.2333 139.388 97.4167 138.488 95.75C137.454 93.7167 135.571 92.7 132.838 92.7C129.738 92.7 127.604 93.7333 126.438 95.8C125.471 97.4667 124.988 99.2667 124.988 101.2ZM147.353 116V112.75C149.853 113.483 151.62 112.3 152.653 109.2C152.92 108.433 153.103 107.483 153.203 106.35L153.403 103.3C153.436 102.767 153.453 101.717 153.453 100.15V90.6H171.053V116H166.653V93.7H157.553V100.15C157.553 102.25 157.503 104.017 157.403 105.45C157.303 106.85 157.053 108.383 156.653 110.05C156.086 112.417 155.07 114.1 153.603 115.1C152.136 116.1 150.053 116.4 147.353 116ZM178.233 116V90.6H182.633V100.7H188.983C191.483 100.7 193.633 101.067 195.433 101.8C197.933 102.7 199.183 104.8 199.183 108.1C199.183 110.833 198.383 112.867 196.783 114.2C196.116 114.733 195.333 115.133 194.433 115.4C193.233 115.8 191.916 116 190.483 116H178.233ZM187.983 103.8H182.633V112.9H188.733C190.799 112.9 192.316 112.483 193.283 111.65C194.249 110.683 194.699 109.5 194.633 108.1C194.633 106.567 194.133 105.433 193.133 104.7C192.799 104.467 192.266 104.267 191.533 104.1C190.733 103.9 189.683 103.8 188.383 103.8H187.983ZM200.662 99.1V90.6H205.062V98.4C205.062 99.7667 205.295 100.783 205.762 101.45C206.329 102.183 208.012 102.55 210.812 102.55C211.079 102.55 212.045 102.517 213.712 102.45C213.879 102.417 214.229 102.4 214.762 102.4H215.812V90.6H220.212V116H215.812V105.5C214.345 105.6 212.379 105.65 209.912 105.65C205.645 105.65 202.962 104.983 201.862 103.65C201.362 102.983 201.029 102.35 200.862 101.75C200.729 101.15 200.662 100.267 200.662 99.1ZM245.703 108.65H249.903C249.503 110.883 248.419 112.833 246.653 114.5C244.886 116.167 242.269 117 238.803 117C234.103 117 230.653 115.45 228.453 112.35C227.353 110.717 226.636 108.967 226.303 107.1C226.069 105.8 225.953 104.567 225.953 103.4C225.953 101.167 226.286 99.0667 226.953 97.1C227.386 95.7 228.019 94.4833 228.853 93.45C229.753 92.35 231.036 91.4333 232.703 90.7C234.369 89.9667 236.253 89.6 238.353 89.6C242.086 89.6 244.903 90.6333 246.803 92.7C247.603 93.5667 248.253 94.6667 248.753 96C249.486 97.9333 249.936 100.283 250.103 103.05C250.103 103.15 250.103 103.367 250.103 103.7C250.136 104.033 250.153 104.233 250.153 104.3H230.603C230.603 106.833 231.269 109.067 232.603 111C233.936 112.933 235.953 113.9 238.653 113.9C240.586 113.9 242.169 113.417 243.403 112.45C244.636 111.483 245.403 110.217 245.703 108.65ZM230.603 101.2H245.503C245.469 99.2333 245.003 97.4167 244.103 95.75C243.069 93.7167 241.186 92.7 238.453 92.7C235.353 92.7 233.219 93.7333 232.053 95.8C231.086 97.4667 230.603 99.2667 230.603 101.2ZM272.868 104.15H260.318V116H255.918V90.6H260.318V101.05H272.868V90.6H277.268V116H272.868V104.15ZM288.883 90.6V110.85L302.133 90.6H307.033V116H302.633V95.7L289.433 116H284.483V90.6H288.883ZM332.519 108.65H336.719C336.319 110.883 335.236 112.833 333.469 114.5C331.702 116.167 329.086 117 325.619 117C320.919 117 317.469 115.45 315.269 112.35C314.169 110.717 313.452 108.967 313.119 107.1C312.886 105.8 312.769 104.567 312.769 103.4C312.769 101.167 313.102 99.0667 313.769 97.1C314.202 95.7 314.836 94.4833 315.669 93.45C316.569 92.35 317.852 91.4333 319.519 90.7C321.186 89.9667 323.069 89.6 325.169 89.6C328.902 89.6 331.719 90.6333 333.619 92.7C334.419 93.5667 335.069 94.6667 335.569 96C336.302 97.9333 336.752 100.283 336.919 103.05C336.919 103.15 336.919 103.367 336.919 103.7C336.952 104.033 336.969 104.233 336.969 104.3H317.419C317.419 106.833 318.086 109.067 319.419 111C320.752 112.933 322.769 113.9 325.469 113.9C327.402 113.9 328.986 113.417 330.219 112.45C331.452 111.483 332.219 110.217 332.519 108.65ZM317.419 101.2H332.319C332.286 99.2333 331.819 97.4167 330.919 95.75C329.886 93.7167 328.002 92.7 325.269 92.7C322.169 92.7 320.036 93.7333 318.869 95.8C317.902 97.4667 317.419 99.2667 317.419 101.2ZM46.85 143.7H34V166H29.6V140.6H51.25V166H46.85V143.7ZM55.5074 166V162.75C58.0074 163.483 59.7741 162.3 60.8074 159.2C61.0741 158.433 61.2574 157.483 61.3574 156.35L61.5574 153.3C61.5908 152.767 61.6074 151.717 61.6074 150.15V140.6H79.2074V166H74.8074V143.7H65.7074V150.15C65.7074 152.25 65.6574 154.017 65.5574 155.45C65.4574 156.85 65.2074 158.383 64.8074 160.05C64.2408 162.417 63.2241 164.1 61.7574 165.1C60.2908 166.1 58.2074 166.4 55.5074 166ZM89.7371 148.1H85.5371C85.5371 146.1 86.2038 144.267 87.5371 142.6C89.1371 140.6 92.0704 139.6 96.3371 139.6C98.8371 139.6 101.037 140.1 102.937 141.1C104.037 141.633 104.904 142.517 105.537 143.75C106.17 144.983 106.47 146.45 106.437 148.15L106.187 159.9C106.187 160.867 106.287 161.617 106.487 162.15C106.787 162.683 107.57 162.933 108.837 162.9V166C108.337 166.133 107.67 166.2 106.837 166.2C105.37 166.2 104.304 165.95 103.637 165.45C103.004 164.95 102.554 163.967 102.287 162.5C100.654 165.5 97.7538 167 93.5871 167C90.7204 167 88.5038 166.367 86.9371 165.1C85.4038 163.8 84.6371 161.883 84.6371 159.35C84.6371 156.95 85.5038 155.133 87.2371 153.9C88.9704 152.6 92.2538 151.733 97.0871 151.3C99.3204 151.133 100.654 150.917 101.087 150.65C101.72 150.217 102.037 149.267 102.037 147.8C102.037 144.4 100.137 142.7 96.3371 142.7C91.8371 142.7 89.6371 144.5 89.7371 148.1ZM101.937 155.15L102.037 153C101.537 153.367 100.804 153.667 99.8371 153.9C98.3704 154 97.2371 154.117 96.4371 154.25C93.6704 154.717 91.9871 155.1 91.3871 155.4C89.9204 156.1 89.1871 157.367 89.1871 159.2C89.1871 160.667 89.6204 161.817 90.4871 162.65C91.3871 163.483 92.5871 163.9 94.0871 163.9C95.0538 163.9 95.9371 163.767 96.7371 163.5C97.5704 163.233 98.3704 162.8 99.1371 162.2C99.9371 161.567 100.57 160.65 101.037 159.45C101.537 158.25 101.837 156.817 101.937 155.15ZM131.824 156.95H136.024C135.89 158.883 135.157 160.917 133.824 163.05C133.09 164.25 131.94 165.217 130.374 165.95C128.84 166.65 127.04 167 124.974 167C124.274 167 123.774 166.983 123.474 166.95C122.007 166.883 120.507 166.5 118.974 165.8C114.707 163.667 112.574 159.433 112.574 153.1C112.574 149.767 113.34 146.8 114.874 144.2C116.774 141.133 120.04 139.6 124.674 139.6C127.94 139.6 130.54 140.433 132.474 142.1C134.407 143.733 135.524 145.883 135.824 148.55H131.624C130.957 144.65 128.674 142.7 124.774 142.7C122.24 142.7 120.34 143.633 119.074 145.5C117.84 147.333 117.224 149.867 117.224 153.1C117.224 156.233 117.874 158.817 119.174 160.85C120.474 162.883 122.44 163.9 125.074 163.9C127.34 163.9 128.99 163.183 130.024 161.75C131.124 160.317 131.724 158.717 131.824 156.95ZM146.388 166V143.7H137.588V140.6H159.588V143.7H150.788V166H146.388ZM167.35 140.6V160.85L180.6 140.6H185.5V166H181.1V145.7L167.9 166H162.95V140.6H167.35ZM197.086 140.6V151.7L207.936 140.6H213.086L201.186 152.4L213.736 166H208.486L197.086 153.3V166H192.686V140.6H197.086ZM215.421 158.3C214.554 154.733 214.588 151.283 215.521 147.95C216.454 144.617 218.421 142.233 221.421 140.8C223.088 140 225.038 139.6 227.271 139.6C229.504 139.6 231.454 140 233.121 140.8C236.121 142.2 238.104 144.7 239.071 148.3C239.504 149.967 239.721 151.65 239.721 153.35C239.754 155.017 239.554 156.667 239.121 158.3C238.721 159.9 238.004 161.367 236.971 162.7C235.971 164.033 234.688 165.083 233.121 165.85C231.421 166.617 229.471 167 227.271 167C225.071 167 223.121 166.617 221.421 165.85C218.521 164.45 216.521 161.933 215.421 158.3ZM220.071 148.25C219.638 149.583 219.421 151.25 219.421 153.25C219.421 155.217 219.638 156.9 220.071 158.3C220.504 159.7 221.004 160.75 221.571 161.45C222.771 162.783 224.138 163.567 225.671 163.8C226.738 163.967 227.804 163.967 228.871 163.8C229.338 163.767 229.988 163.533 230.821 163.1C231.721 162.633 232.454 162.05 233.021 161.35C233.588 160.65 234.071 159.633 234.471 158.3C234.904 156.9 235.121 155.217 235.121 153.25C235.121 151.25 234.904 149.583 234.471 148.25C234.004 146.783 233.488 145.733 232.921 145.1C232.388 144.467 231.721 143.933 230.921 143.5C230.121 143.067 229.438 142.8 228.871 142.7C227.804 142.533 226.738 142.533 225.671 142.7C225.204 142.733 224.538 142.983 223.671 143.45C221.971 144.283 220.771 145.883 220.071 148.25ZM245.518 166V140.6H257.618C262.985 140.6 265.668 142.617 265.668 146.65C265.668 149.55 264.135 151.533 261.068 152.6V152.75C263.135 153.25 264.568 154.05 265.368 155.15C266.201 156.25 266.618 157.667 266.618 159.4C266.618 162.167 265.601 164 263.568 164.9C261.901 165.633 259.868 166 257.468 166H245.518ZM256.218 143.7H249.918V151.2H256.018C257.785 151.2 259.085 150.85 259.918 150.15C260.785 149.417 261.218 148.467 261.218 147.3C261.218 144.9 259.551 143.7 256.218 143.7ZM256.218 154.3H249.918V162.9H256.368C260.168 162.9 262.068 161.6 262.068 159C262.068 155.867 260.118 154.3 256.218 154.3ZM272.471 166V140.6H276.871V150.65H283.271C285.304 150.65 287.004 150.85 288.371 151.25C291.638 152.083 293.338 154.467 293.471 158.4C293.471 160.733 292.754 162.583 291.321 163.95C289.921 165.317 287.738 166 284.771 166H272.471ZM282.221 153.75H276.871V162.9H283.021C286.954 162.9 288.921 161.3 288.921 158.1C288.921 156.533 288.404 155.4 287.371 154.7C287.038 154.433 286.488 154.217 285.721 154.05C284.921 153.85 283.754 153.75 282.221 153.75ZM296.571 166V140.6H300.971V166H296.571ZM310.164 140.6L316.664 150L323.164 140.6H328.064L319.164 152.75L328.764 166H323.864L316.664 155.55L309.464 166H304.564L314.164 152.75L305.264 140.6H310.164ZM343.253 158.3C342.386 154.733 342.42 151.283 343.353 147.95C344.286 144.617 346.253 142.233 349.253 140.8C350.92 140 352.87 139.6 355.103 139.6C357.336 139.6 359.286 140 360.953 140.8C363.953 142.2 365.936 144.7 366.903 148.3C367.336 149.967 367.553 151.65 367.553 153.35C367.586 155.017 367.386 156.667 366.953 158.3C366.553 159.9 365.836 161.367 364.803 162.7C363.803 164.033 362.52 165.083 360.953 165.85C359.253 166.617 357.303 167 355.103 167C352.903 167 350.953 166.617 349.253 165.85C346.353 164.45 344.353 161.933 343.253 158.3ZM347.903 148.25C347.47 149.583 347.253 151.25 347.253 153.25C347.253 155.217 347.47 156.9 347.903 158.3C348.336 159.7 348.836 160.75 349.403 161.45C350.603 162.783 351.97 163.567 353.503 163.8C354.57 163.967 355.636 163.967 356.703 163.8C357.17 163.767 357.82 163.533 358.653 163.1C359.553 162.633 360.286 162.05 360.853 161.35C361.42 160.65 361.903 159.633 362.303 158.3C362.736 156.9 362.953 155.217 362.953 153.25C362.953 151.25 362.736 149.583 362.303 148.25C361.836 146.783 361.32 145.733 360.753 145.1C360.22 144.467 359.553 143.933 358.753 143.5C357.953 143.067 357.27 142.8 356.703 142.7C355.636 142.533 354.57 142.533 353.503 142.7C353.036 142.733 352.37 142.983 351.503 143.45C349.803 144.283 348.603 145.883 347.903 148.25ZM377.638 166V143.7H368.838V140.6H390.838V143.7H382.038V166H377.638ZM397.079 140.6L403.579 150L410.079 140.6H414.979L406.079 152.75L415.679 166H410.779L403.579 155.55L396.379 166H391.479L401.079 152.75L392.179 140.6H397.079ZM418.497 158.3C417.631 154.733 417.664 151.283 418.597 147.95C419.531 144.617 421.497 142.233 424.497 140.8C426.164 140 428.114 139.6 430.347 139.6C432.581 139.6 434.531 140 436.197 140.8C439.197 142.2 441.181 144.7 442.147 148.3C442.581 149.967 442.797 151.65 442.797 153.35C442.831 155.017 442.631 156.667 442.197 158.3C441.797 159.9 441.081 161.367 440.047 162.7C439.047 164.033 437.764 165.083 436.197 165.85C434.497 166.617 432.547 167 430.347 167C428.147 167 426.197 166.617 424.497 165.85C421.597 164.45 419.597 161.933 418.497 158.3ZM423.147 148.25C422.714 149.583 422.497 151.25 422.497 153.25C422.497 155.217 422.714 156.9 423.147 158.3C423.581 159.7 424.081 160.75 424.647 161.45C425.847 162.783 427.214 163.567 428.747 163.8C429.814 163.967 430.881 163.967 431.947 163.8C432.414 163.767 433.064 163.533 433.897 163.1C434.797 162.633 435.531 162.05 436.097 161.35C436.664 160.65 437.147 159.633 437.547 158.3C437.981 156.9 438.197 155.217 438.197 153.25C438.197 151.25 437.981 149.583 437.547 148.25C437.081 146.783 436.564 145.733 435.997 145.1C435.464 144.467 434.797 143.933 433.997 143.5C433.197 143.067 432.514 142.8 431.947 142.7C430.881 142.533 429.814 142.533 428.747 142.7C428.281 142.733 427.614 142.983 426.747 143.45C425.047 144.283 423.847 145.883 423.147 148.25ZM445.394 172.6L444.994 162.9H448.194C450.961 158.833 452.344 152.817 452.344 144.85V140.6H470.544V162.9H474.944L474.594 172.6H470.894V166H449.094V172.6H445.394ZM466.144 162.9V143.7H456.444V147.25C456.444 149.95 456.144 152.75 455.544 155.65C455.011 158.517 454.111 160.933 452.844 162.9H466.144ZM477.921 158.3C477.054 154.733 477.088 151.283 478.021 147.95C478.954 144.617 480.921 142.233 483.921 140.8C485.588 140 487.538 139.6 489.771 139.6C492.004 139.6 493.954 140 495.621 140.8C498.621 142.2 500.604 144.7 501.571 148.3C502.004 149.967 502.221 151.65 502.221 153.35C502.254 155.017 502.054 156.667 501.621 158.3C501.221 159.9 500.504 161.367 499.471 162.7C498.471 164.033 497.188 165.083 495.621 165.85C493.921 166.617 491.971 167 489.771 167C487.571 167 485.621 166.617 483.921 165.85C481.021 164.45 479.021 161.933 477.921 158.3ZM482.571 148.25C482.138 149.583 481.921 151.25 481.921 153.25C481.921 155.217 482.138 156.9 482.571 158.3C483.004 159.7 483.504 160.75 484.071 161.45C485.271 162.783 486.638 163.567 488.171 163.8C489.238 163.967 490.304 163.967 491.371 163.8C491.838 163.767 492.488 163.533 493.321 163.1C494.221 162.633 494.954 162.05 495.521 161.35C496.088 160.65 496.571 159.633 496.971 158.3C497.404 156.9 497.621 155.217 497.621 153.25C497.621 151.25 497.404 149.583 496.971 148.25C496.504 146.783 495.988 145.733 495.421 145.1C494.888 144.467 494.221 143.933 493.421 143.5C492.621 143.067 491.938 142.8 491.371 142.7C490.304 142.533 489.238 142.533 488.171 142.7C487.704 142.733 487.038 142.983 486.171 143.45C484.471 144.283 483.271 145.883 482.571 148.25ZM508.018 166V140.6H520.118C525.485 140.6 528.168 142.617 528.168 146.65C528.168 149.55 526.635 151.533 523.568 152.6V152.75C525.635 153.25 527.068 154.05 527.868 155.15C528.701 156.25 529.118 157.667 529.118 159.4C529.118 162.167 528.101 164 526.068 164.9C524.401 165.633 522.368 166 519.968 166H508.018ZM518.718 143.7H512.418V151.2H518.518C520.285 151.2 521.585 150.85 522.418 150.15C523.285 149.417 523.718 148.467 523.718 147.3C523.718 144.9 522.051 143.7 518.718 143.7ZM518.718 154.3H512.418V162.9H518.868C522.668 162.9 524.568 161.6 524.568 159C524.568 155.867 522.618 154.3 518.718 154.3Z" fill="black"/>
<rect x="139" y="30" width="10" height="10" fill="#D0D0D0"/>
<rect x="30" y="30" width="10" height="10" fill="#D0D0D0"/>
<rect x="170" y="278" width="10" height="10" fill="#D0D0D0"/>
<rect x="555" y="278" width="10" height="10" fill="#D0D0D0"/>
</svg>
