<svg width="595" height="595" viewBox="0 0 595 595" fill="none" xmlns="http://www.w3.org/2000/svg">
<rect width="595" height="595" fill="#FFFF00"/>
<path d="M180.05 65V33.95H168.65V30H196.1V33.95H184.75V65H180.05ZM201.659 47.1H197.459C197.459 45.1 198.126 43.2667 199.459 41.6C201.059 39.6 203.992 38.6 208.259 38.6C210.759 38.6 212.959 39.1 214.859 40.1C215.959 40.6333 216.826 41.5167 217.459 42.75C218.092 43.9833 218.392 45.45 218.359 47.15L218.109 58.9C218.109 59.8667 218.209 60.6167 218.409 61.15C218.709 61.6833 219.492 61.9333 220.759 61.9V65C220.259 65.1333 219.592 65.2 218.759 65.2C217.292 65.2 216.226 64.95 215.559 64.45C214.926 63.95 214.476 62.9667 214.209 61.5C212.576 64.5 209.676 66 205.509 66C202.642 66 200.426 65.3667 198.859 64.1C197.326 62.8 196.559 60.8833 196.559 58.35C196.559 55.95 197.426 54.1333 199.159 52.9C200.892 51.6 204.176 50.7333 209.009 50.3C211.242 50.1333 212.576 49.9167 213.009 49.65C213.642 49.2167 213.959 48.2667 213.959 46.8C213.959 43.4 212.059 41.7 208.259 41.7C203.759 41.7 201.559 43.5 201.659 47.1ZM213.859 54.15L213.959 52C213.459 52.3667 212.726 52.6667 211.759 52.9C210.292 53 209.159 53.1167 208.359 53.25C205.592 53.7167 203.909 54.1 203.309 54.4C201.842 55.1 201.109 56.3667 201.109 58.2C201.109 59.6667 201.542 60.8167 202.409 61.65C203.309 62.4833 204.509 62.9 206.009 62.9C206.976 62.9 207.859 62.7667 208.659 62.5C209.492 62.2333 210.292 61.8 211.059 61.2C211.859 60.5667 212.492 59.65 212.959 58.45C213.459 57.25 213.759 55.8167 213.859 54.15ZM230.346 39.6V50.7L241.196 39.6H246.346L234.446 51.4L246.996 65H241.746L230.346 52.3V65H225.946V39.6H230.346ZM279.329 42.7H266.479V65H262.079V39.6H283.729V65H279.329V42.7ZM290.936 74.25V39.6H295.036V43.1H295.186C297.186 40.1 299.986 38.6 303.586 38.6C306.886 38.6 309.619 39.75 311.786 42.05C313.953 44.3833 315.036 47.8 315.036 52.3C315.036 56.9 313.936 60.3333 311.736 62.6C309.569 64.8667 306.886 66 303.686 66C302.686 66 301.469 65.7833 300.036 65.35C297.936 64.7167 296.369 63.3833 295.336 61.35V74.25H290.936ZM295.036 52.4C295.036 55.9333 295.836 58.5833 297.436 60.35C299.103 62.05 300.919 62.9 302.886 62.9C304.953 62.9 306.719 62.0667 308.186 60.4C309.653 58.6667 310.386 55.9667 310.386 52.3C310.386 48.9667 309.703 46.3667 308.336 44.5C307.003 42.6333 305.103 41.7 302.636 41.7C301.336 41.7 300.119 42.05 298.986 42.75C296.353 44.3167 295.036 47.5333 295.036 52.4ZM319.97 57.3C319.103 53.7333 319.137 50.2833 320.07 46.95C321.003 43.6167 322.97 41.2333 325.97 39.8C327.637 39 329.587 38.6 331.82 38.6C334.053 38.6 336.003 39 337.67 39.8C340.67 41.2 342.653 43.7 343.62 47.3C344.053 48.9667 344.27 50.65 344.27 52.35C344.303 54.0167 344.103 55.6667 343.67 57.3C343.27 58.9 342.553 60.3667 341.52 61.7C340.52 63.0333 339.237 64.0833 337.67 64.85C335.97 65.6167 334.02 66 331.82 66C329.62 66 327.67 65.6167 325.97 64.85C323.07 63.45 321.07 60.9333 319.97 57.3ZM324.62 47.25C324.187 48.5833 323.97 50.25 323.97 52.25C323.97 54.2167 324.187 55.9 324.62 57.3C325.053 58.7 325.553 59.75 326.12 60.45C327.32 61.7833 328.687 62.5667 330.22 62.8C331.287 62.9667 332.353 62.9667 333.42 62.8C333.887 62.7667 334.537 62.5333 335.37 62.1C336.27 61.6333 337.003 61.05 337.57 60.35C338.137 59.65 338.62 58.6333 339.02 57.3C339.453 55.9 339.67 54.2167 339.67 52.25C339.67 50.25 339.453 48.5833 339.02 47.25C338.553 45.7833 338.037 44.7333 337.47 44.1C336.937 43.4667 336.27 42.9333 335.47 42.5C334.67 42.0667 333.987 41.8 333.42 41.7C332.353 41.5333 331.287 41.5333 330.22 41.7C329.753 41.7333 329.087 41.9833 328.22 42.45C326.52 43.2833 325.32 44.8833 324.62 47.25ZM354.467 39.6V59.85L367.717 39.6H372.617V65H368.217V44.7L355.017 65H350.067V39.6H354.467ZM397.603 55.95H401.803C401.67 57.8833 400.936 59.9167 399.603 62.05C398.87 63.25 397.72 64.2167 396.153 64.95C394.62 65.65 392.82 66 390.753 66C390.053 66 389.553 65.9833 389.253 65.95C387.786 65.8833 386.286 65.5 384.753 64.8C380.486 62.6667 378.353 58.4333 378.353 52.1C378.353 48.7667 379.12 45.8 380.653 43.2C382.553 40.1333 385.82 38.6 390.453 38.6C393.72 38.6 396.32 39.4333 398.253 41.1C400.186 42.7333 401.303 44.8833 401.603 47.55H397.403C396.736 43.65 394.453 41.7 390.553 41.7C388.02 41.7 386.12 42.6333 384.853 44.5C383.62 46.3333 383.003 48.8667 383.003 52.1C383.003 55.2333 383.653 57.8167 384.953 59.85C386.253 61.8833 388.22 62.9 390.853 62.9C393.12 62.9 394.77 62.1833 395.803 60.75C396.903 59.3167 397.503 57.7167 397.603 55.95ZM409.196 39.6L415.696 49L422.196 39.6H427.096L418.196 51.75L427.796 65H422.896L415.696 54.55L408.496 65H403.596L413.196 51.75L404.296 39.6H409.196ZM430.614 57.3C429.748 53.7333 429.781 50.2833 430.714 46.95C431.648 43.6167 433.614 41.2333 436.614 39.8C438.281 39 440.231 38.6 442.464 38.6C444.698 38.6 446.648 39 448.314 39.8C451.314 41.2 453.298 43.7 454.264 47.3C454.698 48.9667 454.914 50.65 454.914 52.35C454.948 54.0167 454.748 55.6667 454.314 57.3C453.914 58.9 453.198 60.3667 452.164 61.7C451.164 63.0333 449.881 64.0833 448.314 64.85C446.614 65.6167 444.664 66 442.464 66C440.264 66 438.314 65.6167 436.614 64.85C433.714 63.45 431.714 60.9333 430.614 57.3ZM435.264 47.25C434.831 48.5833 434.614 50.25 434.614 52.25C434.614 54.2167 434.831 55.9 435.264 57.3C435.698 58.7 436.198 59.75 436.764 60.45C437.964 61.7833 439.331 62.5667 440.864 62.8C441.931 62.9667 442.998 62.9667 444.064 62.8C444.531 62.7667 445.181 62.5333 446.014 62.1C446.914 61.6333 447.648 61.05 448.214 60.35C448.781 59.65 449.264 58.6333 449.664 57.3C450.098 55.9 450.314 54.2167 450.314 52.25C450.314 50.25 450.098 48.5833 449.664 47.25C449.198 45.7833 448.681 44.7333 448.114 44.1C447.581 43.4667 446.914 42.9333 446.114 42.5C445.314 42.0667 444.631 41.8 444.064 41.7C442.998 41.5333 441.931 41.5333 440.864 41.7C440.398 41.7333 439.731 41.9833 438.864 42.45C437.164 43.2833 435.964 44.8833 435.264 47.25ZM457.511 71.6L457.111 61.9H460.311C463.078 57.8333 464.461 51.8167 464.461 43.85V39.6H482.661V61.9H487.061L486.711 71.6H483.011V65H461.211V71.6H457.511ZM478.261 61.9V42.7H468.561V46.25C468.561 48.95 468.261 51.75 467.661 54.65C467.128 57.5167 466.228 59.9333 464.961 61.9H478.261ZM495.238 39.6V59.85L508.488 39.6H513.388V65H508.988V44.7L495.788 65H490.838V39.6H495.238ZM526.425 65V42.7H517.625V39.6H539.625V42.7H530.825V65H526.425Z" fill="black"/>
<path d="M29.6 116V90.6H41.7C47.0667 90.6 49.75 92.6167 49.75 96.65C49.75 99.55 48.2167 101.533 45.15 102.6V102.75C47.2167 103.25 48.65 104.05 49.45 105.15C50.2833 106.25 50.7 107.667 50.7 109.4C50.7 112.167 49.6833 114 47.65 114.9C45.9833 115.633 43.95 116 41.55 116H29.6ZM40.3 93.7H34V101.2H40.1C41.8667 101.2 43.1667 100.85 44 100.15C44.8667 99.4167 45.3 98.4667 45.3 97.3C45.3 94.9 43.6333 93.7 40.3 93.7ZM40.3 104.3H34V112.9H40.45C44.25 112.9 46.15 111.6 46.15 109C46.15 105.867 44.2 104.3 40.3 104.3ZM56.5531 116V90.6H60.9531V100.65H67.3531C69.3865 100.65 71.0865 100.85 72.4531 101.25C75.7198 102.083 77.4198 104.467 77.5531 108.4C77.5531 110.733 76.8365 112.583 75.4031 113.95C74.0031 115.317 71.8198 116 68.8531 116H56.5531ZM66.3031 103.75H60.9531V112.9H67.1031C71.0365 112.9 73.0031 111.3 73.0031 108.1C73.0031 106.533 72.4865 105.4 71.4531 104.7C71.1198 104.433 70.5698 104.217 69.8031 104.05C69.0031 103.85 67.8365 103.75 66.3031 103.75ZM80.6531 116V90.6H85.0531V116H80.6531ZM92.2465 125.25V90.6H96.3465V94.1H96.4965C98.4965 91.1 101.296 89.6 104.896 89.6C108.196 89.6 110.93 90.75 113.096 93.05C115.263 95.3833 116.346 98.8 116.346 103.3C116.346 107.9 115.246 111.333 113.046 113.6C110.88 115.867 108.196 117 104.996 117C103.996 117 102.78 116.783 101.346 116.35C99.2465 115.717 97.6798 114.383 96.6465 112.35V125.25H92.2465ZM96.3465 103.4C96.3465 106.933 97.1465 109.583 98.7465 111.35C100.413 113.05 102.23 113.9 104.196 113.9C106.263 113.9 108.03 113.067 109.496 111.4C110.963 109.667 111.696 106.967 111.696 103.3C111.696 99.9667 111.013 97.3667 109.646 95.5C108.313 93.6333 106.413 92.7 103.946 92.7C102.646 92.7 101.43 93.05 100.296 93.75C97.6632 95.3167 96.3465 98.5333 96.3465 103.4ZM140.38 108.65H144.58C144.18 110.883 143.097 112.833 141.33 114.5C139.564 116.167 136.947 117 133.48 117C128.78 117 125.33 115.45 123.13 112.35C122.03 110.717 121.314 108.967 120.98 107.1C120.747 105.8 120.63 104.567 120.63 103.4C120.63 101.167 120.964 99.0667 121.63 97.1C122.064 95.7 122.697 94.4833 123.53 93.45C124.43 92.35 125.714 91.4333 127.38 90.7C129.047 89.9667 130.93 89.6 133.03 89.6C136.764 89.6 139.58 90.6333 141.48 92.7C142.28 93.5667 142.93 94.6667 143.43 96C144.164 97.9333 144.614 100.283 144.78 103.05C144.78 103.15 144.78 103.367 144.78 103.7C144.814 104.033 144.83 104.233 144.83 104.3H125.28C125.28 106.833 125.947 109.067 127.28 111C128.614 112.933 130.63 113.9 133.33 113.9C135.264 113.9 136.847 113.417 138.08 112.45C139.314 111.483 140.08 110.217 140.38 108.65ZM125.28 101.2H140.18C140.147 99.2333 139.68 97.4167 138.78 95.75C137.747 93.7167 135.864 92.7 133.13 92.7C130.03 92.7 127.897 93.7333 126.73 95.8C125.764 97.4667 125.28 99.2667 125.28 101.2ZM148.596 108.2H152.796C152.796 109.867 153.396 111.233 154.596 112.3C155.796 113.367 157.446 113.9 159.546 113.9C161.613 113.9 163.229 113.483 164.396 112.65C165.563 111.783 166.146 110.533 166.146 108.9C166.146 105.867 164.229 104.35 160.396 104.35H156.646V101.25H159.896C163.429 101.25 165.196 99.9333 165.196 97.3C165.196 96.8667 165.129 96.4333 164.996 96C164.896 95.5667 164.663 95.0833 164.296 94.55C163.963 93.9833 163.379 93.5333 162.546 93.2C161.713 92.8667 160.679 92.7 159.446 92.7C157.246 92.7 155.696 93.2167 154.796 94.25C153.896 95.2833 153.446 96.4 153.446 97.6H149.246C149.346 95.8667 149.796 94.4167 150.596 93.25C151.396 92.0833 152.429 91.25 153.696 90.75C155.763 89.9833 157.763 89.6 159.696 89.6C161.396 89.6 162.896 89.8 164.196 90.2C165.496 90.5667 166.479 91.0167 167.146 91.55C167.846 92.0833 168.396 92.7167 168.796 93.45C169.229 94.1833 169.496 94.8333 169.596 95.4C169.696 95.9333 169.746 96.4667 169.746 97C169.746 99.9667 168.279 101.817 165.346 102.55V102.7C166.913 102.933 168.196 103.617 169.196 104.75C170.196 105.883 170.696 107.367 170.696 109.2C170.696 111.067 170.029 112.767 168.696 114.3C167.063 116.1 164.129 117 159.896 117C156.329 117 153.613 116.25 151.746 114.75C149.646 112.917 148.596 110.733 148.596 108.2ZM180.826 90.6V101.7L191.676 90.6H196.826L184.926 102.4L197.476 116H192.226L180.826 103.3V116H176.426V90.6H180.826ZM204.239 98.1H200.039C200.039 96.1 200.706 94.2667 202.039 92.6C203.639 90.6 206.572 89.6 210.839 89.6C213.339 89.6 215.539 90.1 217.439 91.1C218.539 91.6333 219.406 92.5167 220.039 93.75C220.672 94.9833 220.972 96.45 220.939 98.15L220.689 109.9C220.689 110.867 220.789 111.617 220.989 112.15C221.289 112.683 222.072 112.933 223.339 112.9V116C222.839 116.133 222.172 116.2 221.339 116.2C219.872 116.2 218.806 115.95 218.139 115.45C217.506 114.95 217.056 113.967 216.789 112.5C215.156 115.5 212.256 117 208.089 117C205.222 117 203.006 116.367 201.439 115.1C199.906 113.8 199.139 111.883 199.139 109.35C199.139 106.95 200.006 105.133 201.739 103.9C203.472 102.6 206.756 101.733 211.589 101.3C213.822 101.133 215.156 100.917 215.589 100.65C216.222 100.217 216.539 99.2667 216.539 97.8C216.539 94.4 214.639 92.7 210.839 92.7C206.339 92.7 204.139 94.5 204.239 98.1ZM216.439 105.15L216.539 103C216.039 103.367 215.306 103.667 214.339 103.9C212.872 104 211.739 104.117 210.939 104.25C208.172 104.717 206.489 105.1 205.889 105.4C204.422 106.1 203.689 107.367 203.689 109.2C203.689 110.667 204.122 111.817 204.989 112.65C205.889 113.483 207.089 113.9 208.589 113.9C209.556 113.9 210.439 113.767 211.239 113.5C212.072 113.233 212.872 112.8 213.639 112.2C214.439 111.567 215.072 110.65 215.539 109.45C216.039 108.25 216.339 106.817 216.439 105.15ZM258.646 125.25H254.246V116.65C251.346 116.583 248.846 116.183 246.746 115.45C244.679 114.683 243.079 113.65 241.946 112.35C240.812 111.05 239.996 109.65 239.496 108.15C238.996 106.65 238.746 104.983 238.746 103.15C238.746 100.717 239.262 98.45 240.296 96.35C242.329 92.0167 246.979 89.9 254.246 90V81H258.646V90C261.646 89.9333 264.296 90.3667 266.596 91.3C268.096 91.8667 269.362 92.6167 270.396 93.55C271.529 94.4833 272.429 95.8 273.096 97.5C273.796 99.1667 274.146 101.05 274.146 103.15C274.146 107.35 272.879 110.617 270.346 112.95C267.812 115.283 263.912 116.517 258.646 116.65V125.25ZM254.246 113.55V93.1C251.712 92.9333 249.362 93.4833 247.196 94.75C244.662 96.2833 243.396 99.0667 243.396 103.1C243.396 106.5 244.296 109.05 246.096 110.75C248.229 112.683 250.946 113.617 254.246 113.55ZM258.646 93.1V113.55C262.946 113.55 265.896 112.333 267.496 109.9C268.829 107.867 269.496 105.6 269.496 103.1C269.496 102.3 269.429 101.5 269.296 100.7C269.162 99.8667 268.846 98.95 268.346 97.95C267.879 96.95 267.262 96.1 266.496 95.4C265.762 94.6667 264.712 94.0833 263.346 93.65C262.012 93.1833 260.446 93 258.646 93.1ZM284.293 90.6V110.85L297.543 90.6H302.443V116H298.043V95.7L284.843 116H279.893V90.6H284.293ZM327.029 93.7H314.029V116H309.629V90.6H327.029V93.7ZM332.21 125.2V121.95C333.477 122.117 334.21 122.2 334.41 122.2C335.677 122.2 336.577 121.733 337.11 120.8C337.443 120.3 337.66 119.883 337.76 119.55C337.86 119.383 338.077 118.833 338.41 117.9L339.01 116L328.01 90.6H333.26L341.41 111.15L348.16 90.6H352.56L342.46 119C341.66 121.267 340.977 122.75 340.41 123.45C339.277 124.783 337.743 125.45 335.81 125.45C334.31 125.45 333.11 125.367 332.21 125.2ZM356.163 125.25V90.6H360.263V94.1H360.413C362.413 91.1 365.213 89.6 368.813 89.6C372.113 89.6 374.846 90.75 377.013 93.05C379.179 95.3833 380.263 98.8 380.263 103.3C380.263 107.9 379.163 111.333 376.963 113.6C374.796 115.867 372.113 117 368.913 117C367.913 117 366.696 116.783 365.263 116.35C363.163 115.717 361.596 114.383 360.563 112.35V125.25H356.163ZM360.263 103.4C360.263 106.933 361.063 109.583 362.663 111.35C364.329 113.05 366.146 113.9 368.113 113.9C370.179 113.9 371.946 113.067 373.413 111.4C374.879 109.667 375.613 106.967 375.613 103.3C375.613 99.9667 374.929 97.3667 373.563 95.5C372.229 93.6333 370.329 92.7 367.863 92.7C366.563 92.7 365.346 93.05 364.213 93.75C361.579 95.3167 360.263 98.5333 360.263 103.4ZM34 140.6V160.85L47.25 140.6H52.15V166H47.75V145.7L34.55 166H29.6V140.6H34ZM57.3363 158.2H61.5363C61.5363 159.867 62.1363 161.233 63.3363 162.3C64.5363 163.367 66.1863 163.9 68.2863 163.9C70.353 163.9 71.9697 163.483 73.1363 162.65C74.303 161.783 74.8863 160.533 74.8863 158.9C74.8863 155.867 72.9697 154.35 69.1363 154.35H65.3863V151.25H68.6363C72.1697 151.25 73.9363 149.933 73.9363 147.3C73.9363 146.867 73.8697 146.433 73.7363 146C73.6363 145.567 73.403 145.083 73.0363 144.55C72.703 143.983 72.1197 143.533 71.2863 143.2C70.453 142.867 69.4197 142.7 68.1863 142.7C65.9863 142.7 64.4363 143.217 63.5363 144.25C62.6363 145.283 62.1863 146.4 62.1863 147.6H57.9863C58.0863 145.867 58.5363 144.417 59.3363 143.25C60.1363 142.083 61.1697 141.25 62.4363 140.75C64.503 139.983 66.503 139.6 68.4363 139.6C70.1363 139.6 71.6363 139.8 72.9363 140.2C74.2363 140.567 75.2197 141.017 75.8863 141.55C76.5863 142.083 77.1363 142.717 77.5363 143.45C77.9697 144.183 78.2363 144.833 78.3363 145.4C78.4363 145.933 78.4863 146.467 78.4863 147C78.4863 149.967 77.0197 151.817 74.0863 152.55V152.7C75.653 152.933 76.9363 153.617 77.9363 154.75C78.9363 155.883 79.4363 157.367 79.4363 159.2C79.4363 161.067 78.7697 162.767 77.4363 164.3C75.803 166.1 72.8697 167 68.6363 167C65.0697 167 62.353 166.25 60.4863 164.75C58.3863 162.917 57.3363 160.733 57.3363 158.2ZM114.086 143.7H101.236V166H96.8363V140.6H118.486V166H114.086V143.7ZM122.744 166V162.75C125.244 163.483 127.01 162.3 128.044 159.2C128.31 158.433 128.494 157.483 128.594 156.35L128.794 153.3C128.827 152.767 128.844 151.717 128.844 150.15V140.6H146.444V166H142.044V143.7H132.944V150.15C132.944 152.25 132.894 154.017 132.794 155.45C132.694 156.85 132.444 158.383 132.044 160.05C131.477 162.417 130.46 164.1 128.994 165.1C127.527 166.1 125.444 166.4 122.744 166ZM156.973 148.1H152.773C152.773 146.1 153.44 144.267 154.773 142.6C156.373 140.6 159.307 139.6 163.573 139.6C166.073 139.6 168.273 140.1 170.173 141.1C171.273 141.633 172.14 142.517 172.773 143.75C173.407 144.983 173.707 146.45 173.673 148.15L173.423 159.9C173.423 160.867 173.523 161.617 173.723 162.15C174.023 162.683 174.807 162.933 176.073 162.9V166C175.573 166.133 174.907 166.2 174.073 166.2C172.607 166.2 171.54 165.95 170.873 165.45C170.24 164.95 169.79 163.967 169.523 162.5C167.89 165.5 164.99 167 160.823 167C157.957 167 155.74 166.367 154.173 165.1C152.64 163.8 151.873 161.883 151.873 159.35C151.873 156.95 152.74 155.133 154.473 153.9C156.207 152.6 159.49 151.733 164.323 151.3C166.557 151.133 167.89 150.917 168.323 150.65C168.957 150.217 169.273 149.267 169.273 147.8C169.273 144.4 167.373 142.7 163.573 142.7C159.073 142.7 156.873 144.5 156.973 148.1ZM169.173 155.15L169.273 153C168.773 153.367 168.04 153.667 167.073 153.9C165.607 154 164.473 154.117 163.673 154.25C160.907 154.717 159.223 155.1 158.623 155.4C157.157 156.1 156.423 157.367 156.423 159.2C156.423 160.667 156.857 161.817 157.723 162.65C158.623 163.483 159.823 163.9 161.323 163.9C162.29 163.9 163.173 163.767 163.973 163.5C164.807 163.233 165.607 162.8 166.373 162.2C167.173 161.567 167.807 160.65 168.273 159.45C168.773 158.25 169.073 156.817 169.173 155.15ZM199.06 156.95H203.26C203.127 158.883 202.393 160.917 201.06 163.05C200.327 164.25 199.177 165.217 197.61 165.95C196.077 166.65 194.277 167 192.21 167C191.51 167 191.01 166.983 190.71 166.95C189.243 166.883 187.743 166.5 186.21 165.8C181.943 163.667 179.81 159.433 179.81 153.1C179.81 149.767 180.577 146.8 182.11 144.2C184.01 141.133 187.277 139.6 191.91 139.6C195.177 139.6 197.777 140.433 199.71 142.1C201.643 143.733 202.76 145.883 203.06 148.55H198.86C198.193 144.65 195.91 142.7 192.01 142.7C189.477 142.7 187.577 143.633 186.31 145.5C185.077 147.333 184.46 149.867 184.46 153.1C184.46 156.233 185.11 158.817 186.41 160.85C187.71 162.883 189.677 163.9 192.31 163.9C194.577 163.9 196.227 163.183 197.26 161.75C198.36 160.317 198.96 158.717 199.06 156.95ZM213.624 166V143.7H204.824V140.6H226.824V143.7H218.024V166H213.624ZM246.586 166H243.186L234.586 145.6H234.486L234.586 146.95V166H230.186V140.6H236.236L244.886 161.25L253.536 140.6H259.586V166H255.186V146.95L255.336 145.6H255.186L246.586 166ZM270.157 148.1H265.957C265.957 146.1 266.624 144.267 267.957 142.6C269.557 140.6 272.49 139.6 276.757 139.6C279.257 139.6 281.457 140.1 283.357 141.1C284.457 141.633 285.324 142.517 285.957 143.75C286.59 144.983 286.89 146.45 286.857 148.15L286.607 159.9C286.607 160.867 286.707 161.617 286.907 162.15C287.207 162.683 287.99 162.933 289.257 162.9V166C288.757 166.133 288.09 166.2 287.257 166.2C285.79 166.2 284.724 165.95 284.057 165.45C283.424 164.95 282.974 163.967 282.707 162.5C281.074 165.5 278.174 167 274.007 167C271.14 167 268.924 166.367 267.357 165.1C265.824 163.8 265.057 161.883 265.057 159.35C265.057 156.95 265.924 155.133 267.657 153.9C269.39 152.6 272.674 151.733 277.507 151.3C279.74 151.133 281.074 150.917 281.507 150.65C282.14 150.217 282.457 149.267 282.457 147.8C282.457 144.4 280.557 142.7 276.757 142.7C272.257 142.7 270.057 144.5 270.157 148.1ZM282.357 155.15L282.457 153C281.957 153.367 281.224 153.667 280.257 153.9C278.79 154 277.657 154.117 276.857 154.25C274.09 154.717 272.407 155.1 271.807 155.4C270.34 156.1 269.607 157.367 269.607 159.2C269.607 160.667 270.04 161.817 270.907 162.65C271.807 163.483 273.007 163.9 274.507 163.9C275.474 163.9 276.357 163.767 277.157 163.5C277.99 163.233 278.79 162.8 279.557 162.2C280.357 161.567 280.99 160.65 281.457 159.45C281.957 158.25 282.257 156.817 282.357 155.15ZM312.244 156.95H316.444C316.31 158.883 315.577 160.917 314.244 163.05C313.51 164.25 312.36 165.217 310.794 165.95C309.26 166.65 307.46 167 305.394 167C304.694 167 304.194 166.983 303.894 166.95C302.427 166.883 300.927 166.5 299.394 165.8C295.127 163.667 292.994 159.433 292.994 153.1C292.994 149.767 293.76 146.8 295.294 144.2C297.194 141.133 300.46 139.6 305.094 139.6C308.36 139.6 310.96 140.433 312.894 142.1C314.827 143.733 315.944 145.883 316.244 148.55H312.044C311.377 144.65 309.094 142.7 305.194 142.7C302.66 142.7 300.76 143.633 299.494 145.5C298.26 147.333 297.644 149.867 297.644 153.1C297.644 156.233 298.294 158.817 299.594 160.85C300.894 162.883 302.86 163.9 305.494 163.9C307.76 163.9 309.41 163.183 310.444 161.75C311.544 160.317 312.144 158.717 312.244 156.95ZM339.636 156.95H343.836C343.703 158.883 342.97 160.917 341.636 163.05C340.903 164.25 339.753 165.217 338.186 165.95C336.653 166.65 334.853 167 332.786 167C332.086 167 331.586 166.983 331.286 166.95C329.82 166.883 328.32 166.5 326.786 165.8C322.52 163.667 320.386 159.433 320.386 153.1C320.386 149.767 321.153 146.8 322.686 144.2C324.586 141.133 327.853 139.6 332.486 139.6C335.753 139.6 338.353 140.433 340.286 142.1C342.22 143.733 343.336 145.883 343.636 148.55H339.436C338.77 144.65 336.486 142.7 332.586 142.7C330.053 142.7 328.153 143.633 326.886 145.5C325.653 147.333 325.036 149.867 325.036 153.1C325.036 156.233 325.686 158.817 326.986 160.85C328.286 162.883 330.253 163.9 332.886 163.9C335.153 163.9 336.803 163.183 337.836 161.75C338.936 160.317 339.536 158.717 339.636 156.95ZM349.229 166V140.6H353.629V150.65H360.029C362.062 150.65 363.762 150.85 365.129 151.25C368.396 152.083 370.096 154.467 370.229 158.4C370.229 160.733 369.512 162.583 368.079 163.95C366.679 165.317 364.496 166 361.529 166H349.229ZM358.979 153.75H353.629V162.9H359.779C363.712 162.9 365.679 161.3 365.679 158.1C365.679 156.533 365.162 155.4 364.129 154.7C363.796 154.433 363.246 154.217 362.479 154.05C361.679 153.85 360.512 153.75 358.979 153.75ZM373.329 166V140.6H377.729V166H373.329Z" fill="black"/>
<rect x="139" y="30" width="10" height="10" fill="#D0D0D0"/>
<rect x="30" y="30" width="10" height="10" fill="#D0D0D0"/>
<rect x="170" y="278" width="10" height="10" fill="#D0D0D0"/>
<rect x="555" y="278" width="10" height="10" fill="#D0D0D0"/>
</svg>
