<svg width="595" height="595" viewBox="0 0 595 595" fill="none" xmlns="http://www.w3.org/2000/svg">
<rect width="595" height="595" fill="#FFFF00"/>
<path d="M180.05 65V33.95H168.65V30H196.1V33.95H184.75V65H180.05ZM201.659 47.1H197.459C197.459 45.1 198.126 43.2667 199.459 41.6C201.059 39.6 203.992 38.6 208.259 38.6C210.759 38.6 212.959 39.1 214.859 40.1C215.959 40.6333 216.826 41.5167 217.459 42.75C218.092 43.9833 218.392 45.45 218.359 47.15L218.109 58.9C218.109 59.8667 218.209 60.6167 218.409 61.15C218.709 61.6833 219.492 61.9333 220.759 61.9V65C220.259 65.1333 219.592 65.2 218.759 65.2C217.292 65.2 216.226 64.95 215.559 64.45C214.926 63.95 214.476 62.9667 214.209 61.5C212.576 64.5 209.676 66 205.509 66C202.642 66 200.426 65.3667 198.859 64.1C197.326 62.8 196.559 60.8833 196.559 58.35C196.559 55.95 197.426 54.1333 199.159 52.9C200.892 51.6 204.176 50.7333 209.009 50.3C211.242 50.1333 212.576 49.9167 213.009 49.65C213.642 49.2167 213.959 48.2667 213.959 46.8C213.959 43.4 212.059 41.7 208.259 41.7C203.759 41.7 201.559 43.5 201.659 47.1ZM213.859 54.15L213.959 52C213.459 52.3667 212.726 52.6667 211.759 52.9C210.292 53 209.159 53.1167 208.359 53.25C205.592 53.7167 203.909 54.1 203.309 54.4C201.842 55.1 201.109 56.3667 201.109 58.2C201.109 59.6667 201.542 60.8167 202.409 61.65C203.309 62.4833 204.509 62.9 206.009 62.9C206.976 62.9 207.859 62.7667 208.659 62.5C209.492 62.2333 210.292 61.8 211.059 61.2C211.859 60.5667 212.492 59.65 212.959 58.45C213.459 57.25 213.759 55.8167 213.859 54.15ZM230.346 39.6V50.7L241.196 39.6H246.346L234.446 51.4L246.996 65H241.746L230.346 52.3V65H225.946V39.6H230.346ZM279.329 42.7H266.479V65H262.079V39.6H283.729V65H279.329V42.7ZM290.936 74.25V39.6H295.036V43.1H295.186C297.186 40.1 299.986 38.6 303.586 38.6C306.886 38.6 309.619 39.75 311.786 42.05C313.953 44.3833 315.036 47.8 315.036 52.3C315.036 56.9 313.936 60.3333 311.736 62.6C309.569 64.8667 306.886 66 303.686 66C302.686 66 301.469 65.7833 300.036 65.35C297.936 64.7167 296.369 63.3833 295.336 61.35V74.25H290.936ZM295.036 52.4C295.036 55.9333 295.836 58.5833 297.436 60.35C299.103 62.05 300.919 62.9 302.886 62.9C304.953 62.9 306.719 62.0667 308.186 60.4C309.653 58.6667 310.386 55.9667 310.386 52.3C310.386 48.9667 309.703 46.3667 308.336 44.5C307.003 42.6333 305.103 41.7 302.636 41.7C301.336 41.7 300.119 42.05 298.986 42.75C296.353 44.3167 295.036 47.5333 295.036 52.4ZM319.97 57.3C319.103 53.7333 319.137 50.2833 320.07 46.95C321.003 43.6167 322.97 41.2333 325.97 39.8C327.637 39 329.587 38.6 331.82 38.6C334.053 38.6 336.003 39 337.67 39.8C340.67 41.2 342.653 43.7 343.62 47.3C344.053 48.9667 344.27 50.65 344.27 52.35C344.303 54.0167 344.103 55.6667 343.67 57.3C343.27 58.9 342.553 60.3667 341.52 61.7C340.52 63.0333 339.237 64.0833 337.67 64.85C335.97 65.6167 334.02 66 331.82 66C329.62 66 327.67 65.6167 325.97 64.85C323.07 63.45 321.07 60.9333 319.97 57.3ZM324.62 47.25C324.187 48.5833 323.97 50.25 323.97 52.25C323.97 54.2167 324.187 55.9 324.62 57.3C325.053 58.7 325.553 59.75 326.12 60.45C327.32 61.7833 328.687 62.5667 330.22 62.8C331.287 62.9667 332.353 62.9667 333.42 62.8C333.887 62.7667 334.537 62.5333 335.37 62.1C336.27 61.6333 337.003 61.05 337.57 60.35C338.137 59.65 338.62 58.6333 339.02 57.3C339.453 55.9 339.67 54.2167 339.67 52.25C339.67 50.25 339.453 48.5833 339.02 47.25C338.553 45.7833 338.037 44.7333 337.47 44.1C336.937 43.4667 336.27 42.9333 335.47 42.5C334.67 42.0667 333.987 41.8 333.42 41.7C332.353 41.5333 331.287 41.5333 330.22 41.7C329.753 41.7333 329.087 41.9833 328.22 42.45C326.52 43.2833 325.32 44.8833 324.62 47.25ZM354.467 39.6V59.85L367.717 39.6H372.617V65H368.217V44.7L355.017 65H350.067V39.6H354.467ZM397.603 55.95H401.803C401.67 57.8833 400.936 59.9167 399.603 62.05C398.87 63.25 397.72 64.2167 396.153 64.95C394.62 65.65 392.82 66 390.753 66C390.053 66 389.553 65.9833 389.253 65.95C387.786 65.8833 386.286 65.5 384.753 64.8C380.486 62.6667 378.353 58.4333 378.353 52.1C378.353 48.7667 379.12 45.8 380.653 43.2C382.553 40.1333 385.82 38.6 390.453 38.6C393.72 38.6 396.32 39.4333 398.253 41.1C400.186 42.7333 401.303 44.8833 401.603 47.55H397.403C396.736 43.65 394.453 41.7 390.553 41.7C388.02 41.7 386.12 42.6333 384.853 44.5C383.62 46.3333 383.003 48.8667 383.003 52.1C383.003 55.2333 383.653 57.8167 384.953 59.85C386.253 61.8833 388.22 62.9 390.853 62.9C393.12 62.9 394.77 62.1833 395.803 60.75C396.903 59.3167 397.503 57.7167 397.603 55.95ZM409.196 39.6L415.696 49L422.196 39.6H427.096L418.196 51.75L427.796 65H422.896L415.696 54.55L408.496 65H403.596L413.196 51.75L404.296 39.6H409.196ZM430.614 57.3C429.748 53.7333 429.781 50.2833 430.714 46.95C431.648 43.6167 433.614 41.2333 436.614 39.8C438.281 39 440.231 38.6 442.464 38.6C444.698 38.6 446.648 39 448.314 39.8C451.314 41.2 453.298 43.7 454.264 47.3C454.698 48.9667 454.914 50.65 454.914 52.35C454.948 54.0167 454.748 55.6667 454.314 57.3C453.914 58.9 453.198 60.3667 452.164 61.7C451.164 63.0333 449.881 64.0833 448.314 64.85C446.614 65.6167 444.664 66 442.464 66C440.264 66 438.314 65.6167 436.614 64.85C433.714 63.45 431.714 60.9333 430.614 57.3ZM435.264 47.25C434.831 48.5833 434.614 50.25 434.614 52.25C434.614 54.2167 434.831 55.9 435.264 57.3C435.698 58.7 436.198 59.75 436.764 60.45C437.964 61.7833 439.331 62.5667 440.864 62.8C441.931 62.9667 442.998 62.9667 444.064 62.8C444.531 62.7667 445.181 62.5333 446.014 62.1C446.914 61.6333 447.648 61.05 448.214 60.35C448.781 59.65 449.264 58.6333 449.664 57.3C450.098 55.9 450.314 54.2167 450.314 52.25C450.314 50.25 450.098 48.5833 449.664 47.25C449.198 45.7833 448.681 44.7333 448.114 44.1C447.581 43.4667 446.914 42.9333 446.114 42.5C445.314 42.0667 444.631 41.8 444.064 41.7C442.998 41.5333 441.931 41.5333 440.864 41.7C440.398 41.7333 439.731 41.9833 438.864 42.45C437.164 43.2833 435.964 44.8833 435.264 47.25ZM457.511 71.6L457.111 61.9H460.311C463.078 57.8333 464.461 51.8167 464.461 43.85V39.6H482.661V61.9H487.061L486.711 71.6H483.011V65H461.211V71.6H457.511ZM478.261 61.9V42.7H468.561V46.25C468.561 48.95 468.261 51.75 467.661 54.65C467.128 57.5167 466.228 59.9333 464.961 61.9H478.261ZM495.238 39.6V59.85L508.488 39.6H513.388V65H508.988V44.7L495.788 65H490.838V39.6H495.238ZM526.425 65V42.7H517.625V39.6H539.625V42.7H530.825V65H526.425Z" fill="black"/>
<path d="M47.4 106.95H51.6C51.4667 108.883 50.7333 110.917 49.4 113.05C48.6667 114.25 47.5167 115.217 45.95 115.95C44.4167 116.65 42.6167 117 40.55 117C39.85 117 39.35 116.983 39.05 116.95C37.5833 116.883 36.0833 116.5 34.55 115.8C30.2833 113.667 28.15 109.433 28.15 103.1C28.15 99.7667 28.9167 96.8 30.45 94.2C32.35 91.1333 35.6167 89.6 40.25 89.6C43.5167 89.6 46.1167 90.4333 48.05 92.1C49.9833 93.7333 51.1 95.8833 51.4 98.55H47.2C46.5333 94.65 44.25 92.7 40.35 92.7C37.8167 92.7 35.9167 93.6333 34.65 95.5C33.4167 97.3333 32.8 99.8667 32.8 103.1C32.8 106.233 33.45 108.817 34.75 110.85C36.05 112.883 38.0167 113.9 40.65 113.9C42.9167 113.9 44.5667 113.183 45.6 111.75C46.7 110.317 47.3 108.717 47.4 106.95ZM75.0426 79.35H78.7926C78.6592 81.7833 77.5259 83.4 75.3926 84.2C74.2259 84.6 73.2259 84.8667 72.3926 85C68.6592 85.4667 66.4926 85.7833 65.8926 85.95C63.6259 86.5833 61.8926 87.7333 60.6926 89.4C59.4926 91.0333 58.8592 93.3833 58.7926 96.45H58.8926C60.4926 92.15 63.7759 90 68.7426 90C72.7759 90 75.7926 91.3333 77.7926 94C79.8259 96.6333 80.8426 99.8667 80.8426 103.7C80.8426 107.367 79.7926 110.5 77.6926 113.1C75.5926 115.7 72.4759 117 68.3426 117C63.7759 117 60.3926 115.267 58.1926 111.8C57.0926 109.9 56.3426 107.767 55.9426 105.4C55.6759 103.533 55.5426 101.683 55.5426 99.85C55.5426 93.4167 56.5259 88.9167 58.4926 86.35C60.2259 84.1167 62.5759 82.6833 65.5426 82.05C68.3426 81.4167 70.7092 81.05 72.6426 80.95C73.9426 80.7833 74.7426 80.25 75.0426 79.35ZM60.1926 104C60.1926 106.2 60.6926 108.317 61.6926 110.35C62.8592 112.717 65.0426 113.9 68.2426 113.9C70.7759 113.9 72.7259 113.05 74.0926 111.35C75.4926 109.617 76.1926 107.233 76.1926 104.2C76.1926 101.7 75.7592 99.3833 74.8926 97.25C73.7926 94.4833 71.5759 93.1 68.2426 93.1C64.9092 93.1 62.6592 94.45 61.4926 97.15C60.6259 99.2167 60.1926 101.5 60.1926 104ZM85.7824 108.3C84.9158 104.733 84.9491 101.283 85.8824 97.95C86.8158 94.6167 88.7824 92.2333 91.7824 90.8C93.4491 90 95.3991 89.6 97.6324 89.6C99.8658 89.6 101.816 90 103.482 90.8C106.482 92.2 108.466 94.7 109.432 98.3C109.866 99.9667 110.082 101.65 110.082 103.35C110.116 105.017 109.916 106.667 109.482 108.3C109.082 109.9 108.366 111.367 107.332 112.7C106.332 114.033 105.049 115.083 103.482 115.85C101.782 116.617 99.8324 117 97.6324 117C95.4324 117 93.4824 116.617 91.7824 115.85C88.8824 114.45 86.8824 111.933 85.7824 108.3ZM90.4324 98.25C89.9991 99.5833 89.7824 101.25 89.7824 103.25C89.7824 105.217 89.9991 106.9 90.4324 108.3C90.8658 109.7 91.3658 110.75 91.9324 111.45C93.1324 112.783 94.4991 113.567 96.0324 113.8C97.0991 113.967 98.1658 113.967 99.2324 113.8C99.6991 113.767 100.349 113.533 101.182 113.1C102.082 112.633 102.816 112.05 103.382 111.35C103.949 110.65 104.432 109.633 104.832 108.3C105.266 106.9 105.482 105.217 105.482 103.25C105.482 101.25 105.266 99.5833 104.832 98.25C104.366 96.7833 103.849 95.7333 103.282 95.1C102.749 94.4667 102.082 93.9333 101.282 93.5C100.482 93.0667 99.7991 92.8 99.2324 92.7C98.1658 92.5333 97.0991 92.5333 96.0324 92.7C95.5658 92.7333 94.8991 92.9833 94.0324 93.45C92.3324 94.2833 91.1324 95.8833 90.4324 98.25ZM115.879 125.25V90.6H119.979V94.1H120.129C122.129 91.1 124.929 89.6 128.529 89.6C131.829 89.6 134.563 90.75 136.729 93.05C138.896 95.3833 139.979 98.8 139.979 103.3C139.979 107.9 138.879 111.333 136.679 113.6C134.513 115.867 131.829 117 128.629 117C127.629 117 126.413 116.783 124.979 116.35C122.879 115.717 121.313 114.383 120.279 112.35V125.25H115.879ZM119.979 103.4C119.979 106.933 120.779 109.583 122.379 111.35C124.046 113.05 125.863 113.9 127.829 113.9C129.896 113.9 131.663 113.067 133.129 111.4C134.596 109.667 135.329 106.967 135.329 103.3C135.329 99.9667 134.646 97.3667 133.279 95.5C131.946 93.6333 130.046 92.7 127.579 92.7C126.279 92.7 125.063 93.05 123.929 93.75C121.296 95.3167 119.979 98.5333 119.979 103.4ZM161.783 90.6V110.85L175.033 90.6H179.933V116H175.533V95.7L162.333 116H157.383V90.6H161.783ZM216.589 106.95H220.789C220.656 108.883 219.923 110.917 218.589 113.05C217.856 114.25 216.706 115.217 215.139 115.95C213.606 116.65 211.806 117 209.739 117C209.039 117 208.539 116.983 208.239 116.95C206.773 116.883 205.273 116.5 203.739 115.8C199.473 113.667 197.339 109.433 197.339 103.1C197.339 99.7667 198.106 96.8 199.639 94.2C201.539 91.1333 204.806 89.6 209.439 89.6C212.706 89.6 215.306 90.4333 217.239 92.1C219.173 93.7333 220.289 95.8833 220.589 98.55H216.389C215.723 94.65 213.439 92.7 209.539 92.7C207.006 92.7 205.106 93.6333 203.839 95.5C202.606 97.3333 201.989 99.8667 201.989 103.1C201.989 106.233 202.639 108.817 203.939 110.85C205.239 112.883 207.206 113.9 209.839 113.9C212.106 113.9 213.756 113.183 214.789 111.75C215.889 110.317 216.489 108.717 216.589 106.95ZM225.382 108.3C224.515 104.733 224.549 101.283 225.482 97.95C226.415 94.6167 228.382 92.2333 231.382 90.8C233.049 90 234.999 89.6 237.232 89.6C239.465 89.6 241.415 90 243.082 90.8C246.082 92.2 248.065 94.7 249.032 98.3C249.465 99.9667 249.682 101.65 249.682 103.35C249.715 105.017 249.515 106.667 249.082 108.3C248.682 109.9 247.965 111.367 246.932 112.7C245.932 114.033 244.649 115.083 243.082 115.85C241.382 116.617 239.432 117 237.232 117C235.032 117 233.082 116.617 231.382 115.85C228.482 114.45 226.482 111.933 225.382 108.3ZM230.032 98.25C229.599 99.5833 229.382 101.25 229.382 103.25C229.382 105.217 229.599 106.9 230.032 108.3C230.465 109.7 230.965 110.75 231.532 111.45C232.732 112.783 234.099 113.567 235.632 113.8C236.699 113.967 237.765 113.967 238.832 113.8C239.299 113.767 239.949 113.533 240.782 113.1C241.682 112.633 242.415 112.05 242.982 111.35C243.549 110.65 244.032 109.633 244.432 108.3C244.865 106.9 245.082 105.217 245.082 103.25C245.082 101.25 244.865 99.5833 244.432 98.25C243.965 96.7833 243.449 95.7333 242.882 95.1C242.349 94.4667 241.682 93.9333 240.882 93.5C240.082 93.0667 239.399 92.8 238.832 92.7C237.765 92.5333 236.699 92.5333 235.632 92.7C235.165 92.7333 234.499 92.9833 233.632 93.45C231.932 94.2833 230.732 95.8833 230.032 98.25ZM255.479 125.25V90.6H259.579V94.1H259.729C261.729 91.1 264.529 89.6 268.129 89.6C271.429 89.6 274.162 90.75 276.329 93.05C278.496 95.3833 279.579 98.8 279.579 103.3C279.579 107.9 278.479 111.333 276.279 113.6C274.112 115.867 271.429 117 268.229 117C267.229 117 266.012 116.783 264.579 116.35C262.479 115.717 260.912 114.383 259.879 112.35V125.25H255.479ZM259.579 103.4C259.579 106.933 260.379 109.583 261.979 111.35C263.646 113.05 265.462 113.9 267.429 113.9C269.496 113.9 271.262 113.067 272.729 111.4C274.196 109.667 274.929 106.967 274.929 103.3C274.929 99.9667 274.246 97.3667 272.879 95.5C271.546 93.6333 269.646 92.7 267.179 92.7C265.879 92.7 264.662 93.05 263.529 93.75C260.896 95.3167 259.579 98.5333 259.579 103.4ZM290.528 116V93.7H281.728V90.6H303.728V93.7H294.928V116H290.528ZM311.49 90.6V110.85L324.74 90.6H329.64V116H325.24V95.7L312.04 116H307.09V90.6H311.49ZM336.827 125.25V90.6H340.927V94.1H341.077C343.077 91.1 345.877 89.6 349.477 89.6C352.777 89.6 355.51 90.75 357.677 93.05C359.843 95.3833 360.927 98.8 360.927 103.3C360.927 107.9 359.827 111.333 357.627 113.6C355.46 115.867 352.777 117 349.577 117C348.577 117 347.36 116.783 345.927 116.35C343.827 115.717 342.26 114.383 341.227 112.35V125.25H336.827ZM340.927 103.4C340.927 106.933 341.727 109.583 343.327 111.35C344.993 113.05 346.81 113.9 348.777 113.9C350.843 113.9 352.61 113.067 354.077 111.4C355.543 109.667 356.277 106.967 356.277 103.3C356.277 99.9667 355.593 97.3667 354.227 95.5C352.893 93.6333 350.993 92.7 348.527 92.7C347.227 92.7 346.01 93.05 344.877 93.75C342.243 95.3167 340.927 98.5333 340.927 103.4ZM365.861 108.3C364.994 104.733 365.027 101.283 365.961 97.95C366.894 94.6167 368.861 92.2333 371.861 90.8C373.527 90 375.477 89.6 377.711 89.6C379.944 89.6 381.894 90 383.561 90.8C386.561 92.2 388.544 94.7 389.511 98.3C389.944 99.9667 390.161 101.65 390.161 103.35C390.194 105.017 389.994 106.667 389.561 108.3C389.161 109.9 388.444 111.367 387.411 112.7C386.411 114.033 385.127 115.083 383.561 115.85C381.861 116.617 379.911 117 377.711 117C375.511 117 373.561 116.617 371.861 115.85C368.961 114.45 366.961 111.933 365.861 108.3ZM370.511 98.25C370.077 99.5833 369.861 101.25 369.861 103.25C369.861 105.217 370.077 106.9 370.511 108.3C370.944 109.7 371.444 110.75 372.011 111.45C373.211 112.783 374.577 113.567 376.111 113.8C377.177 113.967 378.244 113.967 379.311 113.8C379.777 113.767 380.427 113.533 381.261 113.1C382.161 112.633 382.894 112.05 383.461 111.35C384.027 110.65 384.511 109.633 384.911 108.3C385.344 106.9 385.561 105.217 385.561 103.25C385.561 101.25 385.344 99.5833 384.911 98.25C384.444 96.7833 383.927 95.7333 383.361 95.1C382.827 94.4667 382.161 93.9333 381.361 93.5C380.561 93.0667 379.877 92.8 379.311 92.7C378.244 92.5333 377.177 92.5333 376.111 92.7C375.644 92.7333 374.977 92.9833 374.111 93.45C372.411 94.2833 371.211 95.8833 370.511 98.25ZM395.957 116V90.6H408.057C413.424 90.6 416.107 92.6167 416.107 96.65C416.107 99.55 414.574 101.533 411.507 102.6V102.75C413.574 103.25 415.007 104.05 415.807 105.15C416.641 106.25 417.057 107.667 417.057 109.4C417.057 112.167 416.041 114 414.007 114.9C412.341 115.633 410.307 116 407.907 116H395.957ZM406.657 93.7H400.357V101.2H406.457C408.224 101.2 409.524 100.85 410.357 100.15C411.224 99.4167 411.657 98.4667 411.657 97.3C411.657 94.9 409.991 93.7 406.657 93.7ZM406.657 104.3H400.357V112.9H406.807C410.607 112.9 412.507 111.6 412.507 109C412.507 105.867 410.557 104.3 406.657 104.3ZM427.311 90.6V101.7L438.161 90.6H443.311L431.411 102.4L443.961 116H438.711L427.311 103.3V116H422.911V90.6H427.311ZM450.723 98.1H446.523C446.523 96.1 447.19 94.2667 448.523 92.6C450.123 90.6 453.057 89.6 457.323 89.6C459.823 89.6 462.023 90.1 463.923 91.1C465.023 91.6333 465.89 92.5167 466.523 93.75C467.157 94.9833 467.457 96.45 467.423 98.15L467.173 109.9C467.173 110.867 467.273 111.617 467.473 112.15C467.773 112.683 468.557 112.933 469.823 112.9V116C469.323 116.133 468.657 116.2 467.823 116.2C466.357 116.2 465.29 115.95 464.623 115.45C463.99 114.95 463.54 113.967 463.273 112.5C461.64 115.5 458.74 117 454.573 117C451.707 117 449.49 116.367 447.923 115.1C446.39 113.8 445.623 111.883 445.623 109.35C445.623 106.95 446.49 105.133 448.223 103.9C449.957 102.6 453.24 101.733 458.073 101.3C460.307 101.133 461.64 100.917 462.073 100.65C462.707 100.217 463.023 99.2667 463.023 97.8C463.023 94.4 461.123 92.7 457.323 92.7C452.823 92.7 450.623 94.5 450.723 98.1ZM462.923 105.15L463.023 103C462.523 103.367 461.79 103.667 460.823 103.9C459.357 104 458.223 104.117 457.423 104.25C454.657 104.717 452.973 105.1 452.373 105.4C450.907 106.1 450.173 107.367 450.173 109.2C450.173 110.667 450.607 111.817 451.473 112.65C452.373 113.483 453.573 113.9 455.073 113.9C456.04 113.9 456.923 113.767 457.723 113.5C458.557 113.233 459.357 112.8 460.123 112.2C460.923 111.567 461.557 110.65 462.023 109.45C462.523 108.25 462.823 106.817 462.923 105.15ZM46.85 143.7H34V166H29.6V140.6H51.25V166H46.85V143.7ZM55.5074 166V162.75C58.0074 163.483 59.7741 162.3 60.8074 159.2C61.0741 158.433 61.2574 157.483 61.3574 156.35L61.5574 153.3C61.5908 152.767 61.6074 151.717 61.6074 150.15V140.6H79.2074V166H74.8074V143.7H65.7074V150.15C65.7074 152.25 65.6574 154.017 65.5574 155.45C65.4574 156.85 65.2074 158.383 64.8074 160.05C64.2408 162.417 63.2241 164.1 61.7574 165.1C60.2908 166.1 58.2074 166.4 55.5074 166ZM89.7371 148.1H85.5371C85.5371 146.1 86.2038 144.267 87.5371 142.6C89.1371 140.6 92.0704 139.6 96.3371 139.6C98.8371 139.6 101.037 140.1 102.937 141.1C104.037 141.633 104.904 142.517 105.537 143.75C106.17 144.983 106.47 146.45 106.437 148.15L106.187 159.9C106.187 160.867 106.287 161.617 106.487 162.15C106.787 162.683 107.57 162.933 108.837 162.9V166C108.337 166.133 107.67 166.2 106.837 166.2C105.37 166.2 104.304 165.95 103.637 165.45C103.004 164.95 102.554 163.967 102.287 162.5C100.654 165.5 97.7538 167 93.5871 167C90.7204 167 88.5038 166.367 86.9371 165.1C85.4038 163.8 84.6371 161.883 84.6371 159.35C84.6371 156.95 85.5038 155.133 87.2371 153.9C88.9704 152.6 92.2538 151.733 97.0871 151.3C99.3204 151.133 100.654 150.917 101.087 150.65C101.72 150.217 102.037 149.267 102.037 147.8C102.037 144.4 100.137 142.7 96.3371 142.7C91.8371 142.7 89.6371 144.5 89.7371 148.1ZM101.937 155.15L102.037 153C101.537 153.367 100.804 153.667 99.8371 153.9C98.3704 154 97.2371 154.117 96.4371 154.25C93.6704 154.717 91.9871 155.1 91.3871 155.4C89.9204 156.1 89.1871 157.367 89.1871 159.2C89.1871 160.667 89.6204 161.817 90.4871 162.65C91.3871 163.483 92.5871 163.9 94.0871 163.9C95.0538 163.9 95.9371 163.767 96.7371 163.5C97.5704 163.233 98.3704 162.8 99.1371 162.2C99.9371 161.567 100.57 160.65 101.037 159.45C101.537 158.25 101.837 156.817 101.937 155.15ZM131.824 156.95H136.024C135.89 158.883 135.157 160.917 133.824 163.05C133.09 164.25 131.94 165.217 130.374 165.95C128.84 166.65 127.04 167 124.974 167C124.274 167 123.774 166.983 123.474 166.95C122.007 166.883 120.507 166.5 118.974 165.8C114.707 163.667 112.574 159.433 112.574 153.1C112.574 149.767 113.34 146.8 114.874 144.2C116.774 141.133 120.04 139.6 124.674 139.6C127.94 139.6 130.54 140.433 132.474 142.1C134.407 143.733 135.524 145.883 135.824 148.55H131.624C130.957 144.65 128.674 142.7 124.774 142.7C122.24 142.7 120.34 143.633 119.074 145.5C117.84 147.333 117.224 149.867 117.224 153.1C117.224 156.233 117.874 158.817 119.174 160.85C120.474 162.883 122.44 163.9 125.074 163.9C127.34 163.9 128.99 163.183 130.024 161.75C131.124 160.317 131.724 158.717 131.824 156.95ZM146.388 166V143.7H137.588V140.6H159.588V143.7H150.788V166H146.388ZM167.35 140.6V160.85L180.6 140.6H185.5V166H181.1V145.7L167.9 166H162.95V140.6H167.35ZM197.086 140.6V151.7L207.936 140.6H213.086L201.186 152.4L213.736 166H208.486L197.086 153.3V166H192.686V140.6H197.086ZM215.421 158.3C214.554 154.733 214.588 151.283 215.521 147.95C216.454 144.617 218.421 142.233 221.421 140.8C223.088 140 225.038 139.6 227.271 139.6C229.504 139.6 231.454 140 233.121 140.8C236.121 142.2 238.104 144.7 239.071 148.3C239.504 149.967 239.721 151.65 239.721 153.35C239.754 155.017 239.554 156.667 239.121 158.3C238.721 159.9 238.004 161.367 236.971 162.7C235.971 164.033 234.688 165.083 233.121 165.85C231.421 166.617 229.471 167 227.271 167C225.071 167 223.121 166.617 221.421 165.85C218.521 164.45 216.521 161.933 215.421 158.3ZM220.071 148.25C219.638 149.583 219.421 151.25 219.421 153.25C219.421 155.217 219.638 156.9 220.071 158.3C220.504 159.7 221.004 160.75 221.571 161.45C222.771 162.783 224.138 163.567 225.671 163.8C226.738 163.967 227.804 163.967 228.871 163.8C229.338 163.767 229.988 163.533 230.821 163.1C231.721 162.633 232.454 162.05 233.021 161.35C233.588 160.65 234.071 159.633 234.471 158.3C234.904 156.9 235.121 155.217 235.121 153.25C235.121 151.25 234.904 149.583 234.471 148.25C234.004 146.783 233.488 145.733 232.921 145.1C232.388 144.467 231.721 143.933 230.921 143.5C230.121 143.067 229.438 142.8 228.871 142.7C227.804 142.533 226.738 142.533 225.671 142.7C225.204 142.733 224.538 142.983 223.671 143.45C221.971 144.283 220.771 145.883 220.071 148.25ZM245.518 166V140.6H257.618C262.985 140.6 265.668 142.617 265.668 146.65C265.668 149.55 264.135 151.533 261.068 152.6V152.75C263.135 153.25 264.568 154.05 265.368 155.15C266.201 156.25 266.618 157.667 266.618 159.4C266.618 162.167 265.601 164 263.568 164.9C261.901 165.633 259.868 166 257.468 166H245.518ZM256.218 143.7H249.918V151.2H256.018C257.785 151.2 259.085 150.85 259.918 150.15C260.785 149.417 261.218 148.467 261.218 147.3C261.218 144.9 259.551 143.7 256.218 143.7ZM256.218 154.3H249.918V162.9H256.368C260.168 162.9 262.068 161.6 262.068 159C262.068 155.867 260.118 154.3 256.218 154.3ZM272.471 166V140.6H276.871V150.65H283.271C285.304 150.65 287.004 150.85 288.371 151.25C291.638 152.083 293.338 154.467 293.471 158.4C293.471 160.733 292.754 162.583 291.321 163.95C289.921 165.317 287.738 166 284.771 166H272.471ZM282.221 153.75H276.871V162.9H283.021C286.954 162.9 288.921 161.3 288.921 158.1C288.921 156.533 288.404 155.4 287.371 154.7C287.038 154.433 286.488 154.217 285.721 154.05C284.921 153.85 283.754 153.75 282.221 153.75ZM296.571 166V140.6H300.971V166H296.571ZM310.164 140.6L316.664 150L323.164 140.6H328.064L319.164 152.75L328.764 166H323.864L316.664 155.55L309.464 166H304.564L314.164 152.75L305.264 140.6H310.164ZM343.253 158.3C342.386 154.733 342.42 151.283 343.353 147.95C344.286 144.617 346.253 142.233 349.253 140.8C350.92 140 352.87 139.6 355.103 139.6C357.336 139.6 359.286 140 360.953 140.8C363.953 142.2 365.936 144.7 366.903 148.3C367.336 149.967 367.553 151.65 367.553 153.35C367.586 155.017 367.386 156.667 366.953 158.3C366.553 159.9 365.836 161.367 364.803 162.7C363.803 164.033 362.52 165.083 360.953 165.85C359.253 166.617 357.303 167 355.103 167C352.903 167 350.953 166.617 349.253 165.85C346.353 164.45 344.353 161.933 343.253 158.3ZM347.903 148.25C347.47 149.583 347.253 151.25 347.253 153.25C347.253 155.217 347.47 156.9 347.903 158.3C348.336 159.7 348.836 160.75 349.403 161.45C350.603 162.783 351.97 163.567 353.503 163.8C354.57 163.967 355.636 163.967 356.703 163.8C357.17 163.767 357.82 163.533 358.653 163.1C359.553 162.633 360.286 162.05 360.853 161.35C361.42 160.65 361.903 159.633 362.303 158.3C362.736 156.9 362.953 155.217 362.953 153.25C362.953 151.25 362.736 149.583 362.303 148.25C361.836 146.783 361.32 145.733 360.753 145.1C360.22 144.467 359.553 143.933 358.753 143.5C357.953 143.067 357.27 142.8 356.703 142.7C355.636 142.533 354.57 142.533 353.503 142.7C353.036 142.733 352.37 142.983 351.503 143.45C349.803 144.283 348.603 145.883 347.903 148.25ZM377.638 166V143.7H368.838V140.6H390.838V143.7H382.038V166H377.638ZM397.079 140.6L403.579 150L410.079 140.6H414.979L406.079 152.75L415.679 166H410.779L403.579 155.55L396.379 166H391.479L401.079 152.75L392.179 140.6H397.079ZM418.497 158.3C417.631 154.733 417.664 151.283 418.597 147.95C419.531 144.617 421.497 142.233 424.497 140.8C426.164 140 428.114 139.6 430.347 139.6C432.581 139.6 434.531 140 436.197 140.8C439.197 142.2 441.181 144.7 442.147 148.3C442.581 149.967 442.797 151.65 442.797 153.35C442.831 155.017 442.631 156.667 442.197 158.3C441.797 159.9 441.081 161.367 440.047 162.7C439.047 164.033 437.764 165.083 436.197 165.85C434.497 166.617 432.547 167 430.347 167C428.147 167 426.197 166.617 424.497 165.85C421.597 164.45 419.597 161.933 418.497 158.3ZM423.147 148.25C422.714 149.583 422.497 151.25 422.497 153.25C422.497 155.217 422.714 156.9 423.147 158.3C423.581 159.7 424.081 160.75 424.647 161.45C425.847 162.783 427.214 163.567 428.747 163.8C429.814 163.967 430.881 163.967 431.947 163.8C432.414 163.767 433.064 163.533 433.897 163.1C434.797 162.633 435.531 162.05 436.097 161.35C436.664 160.65 437.147 159.633 437.547 158.3C437.981 156.9 438.197 155.217 438.197 153.25C438.197 151.25 437.981 149.583 437.547 148.25C437.081 146.783 436.564 145.733 435.997 145.1C435.464 144.467 434.797 143.933 433.997 143.5C433.197 143.067 432.514 142.8 431.947 142.7C430.881 142.533 429.814 142.533 428.747 142.7C428.281 142.733 427.614 142.983 426.747 143.45C425.047 144.283 423.847 145.883 423.147 148.25ZM445.394 172.6L444.994 162.9H448.194C450.961 158.833 452.344 152.817 452.344 144.85V140.6H470.544V162.9H474.944L474.594 172.6H470.894V166H449.094V172.6H445.394ZM466.144 162.9V143.7H456.444V147.25C456.444 149.95 456.144 152.75 455.544 155.65C455.011 158.517 454.111 160.933 452.844 162.9H466.144ZM477.921 158.3C477.054 154.733 477.088 151.283 478.021 147.95C478.954 144.617 480.921 142.233 483.921 140.8C485.588 140 487.538 139.6 489.771 139.6C492.004 139.6 493.954 140 495.621 140.8C498.621 142.2 500.604 144.7 501.571 148.3C502.004 149.967 502.221 151.65 502.221 153.35C502.254 155.017 502.054 156.667 501.621 158.3C501.221 159.9 500.504 161.367 499.471 162.7C498.471 164.033 497.188 165.083 495.621 165.85C493.921 166.617 491.971 167 489.771 167C487.571 167 485.621 166.617 483.921 165.85C481.021 164.45 479.021 161.933 477.921 158.3ZM482.571 148.25C482.138 149.583 481.921 151.25 481.921 153.25C481.921 155.217 482.138 156.9 482.571 158.3C483.004 159.7 483.504 160.75 484.071 161.45C485.271 162.783 486.638 163.567 488.171 163.8C489.238 163.967 490.304 163.967 491.371 163.8C491.838 163.767 492.488 163.533 493.321 163.1C494.221 162.633 494.954 162.05 495.521 161.35C496.088 160.65 496.571 159.633 496.971 158.3C497.404 156.9 497.621 155.217 497.621 153.25C497.621 151.25 497.404 149.583 496.971 148.25C496.504 146.783 495.988 145.733 495.421 145.1C494.888 144.467 494.221 143.933 493.421 143.5C492.621 143.067 491.938 142.8 491.371 142.7C490.304 142.533 489.238 142.533 488.171 142.7C487.704 142.733 487.038 142.983 486.171 143.45C484.471 144.283 483.271 145.883 482.571 148.25ZM508.018 166V140.6H520.118C525.485 140.6 528.168 142.617 528.168 146.65C528.168 149.55 526.635 151.533 523.568 152.6V152.75C525.635 153.25 527.068 154.05 527.868 155.15C528.701 156.25 529.118 157.667 529.118 159.4C529.118 162.167 528.101 164 526.068 164.9C524.401 165.633 522.368 166 519.968 166H508.018ZM518.718 143.7H512.418V151.2H518.518C520.285 151.2 521.585 150.85 522.418 150.15C523.285 149.417 523.718 148.467 523.718 147.3C523.718 144.9 522.051 143.7 518.718 143.7ZM518.718 154.3H512.418V162.9H518.868C522.668 162.9 524.568 161.6 524.568 159C524.568 155.867 522.618 154.3 518.718 154.3Z" fill="black"/>
<rect x="139" y="30" width="10" height="10" fill="#D0D0D0"/>
<rect x="30" y="30" width="10" height="10" fill="#D0D0D0"/>
<rect x="170" y="278" width="10" height="10" fill="#D0D0D0"/>
<rect x="555" y="278" width="10" height="10" fill="#D0D0D0"/>
</svg>
