<svg width="595" height="595" viewBox="0 0 595 595" fill="none" xmlns="http://www.w3.org/2000/svg">
<rect width="595" height="595" fill="#FFFF00"/>
<path d="M180.05 65V33.95H168.65V30H196.1V33.95H184.75V65H180.05ZM201.659 47.1H197.459C197.459 45.1 198.126 43.2667 199.459 41.6C201.059 39.6 203.992 38.6 208.259 38.6C210.759 38.6 212.959 39.1 214.859 40.1C215.959 40.6333 216.826 41.5167 217.459 42.75C218.092 43.9833 218.392 45.45 218.359 47.15L218.109 58.9C218.109 59.8667 218.209 60.6167 218.409 61.15C218.709 61.6833 219.492 61.9333 220.759 61.9V65C220.259 65.1333 219.592 65.2 218.759 65.2C217.292 65.2 216.226 64.95 215.559 64.45C214.926 63.95 214.476 62.9667 214.209 61.5C212.576 64.5 209.676 66 205.509 66C202.642 66 200.426 65.3667 198.859 64.1C197.326 62.8 196.559 60.8833 196.559 58.35C196.559 55.95 197.426 54.1333 199.159 52.9C200.892 51.6 204.176 50.7333 209.009 50.3C211.242 50.1333 212.576 49.9167 213.009 49.65C213.642 49.2167 213.959 48.2667 213.959 46.8C213.959 43.4 212.059 41.7 208.259 41.7C203.759 41.7 201.559 43.5 201.659 47.1ZM213.859 54.15L213.959 52C213.459 52.3667 212.726 52.6667 211.759 52.9C210.292 53 209.159 53.1167 208.359 53.25C205.592 53.7167 203.909 54.1 203.309 54.4C201.842 55.1 201.109 56.3667 201.109 58.2C201.109 59.6667 201.542 60.8167 202.409 61.65C203.309 62.4833 204.509 62.9 206.009 62.9C206.976 62.9 207.859 62.7667 208.659 62.5C209.492 62.2333 210.292 61.8 211.059 61.2C211.859 60.5667 212.492 59.65 212.959 58.45C213.459 57.25 213.759 55.8167 213.859 54.15ZM230.346 39.6V50.7L241.196 39.6H246.346L234.446 51.4L246.996 65H241.746L230.346 52.3V65H225.946V39.6H230.346ZM279.329 42.7H266.479V65H262.079V39.6H283.729V65H279.329V42.7ZM290.936 74.25V39.6H295.036V43.1H295.186C297.186 40.1 299.986 38.6 303.586 38.6C306.886 38.6 309.619 39.75 311.786 42.05C313.953 44.3833 315.036 47.8 315.036 52.3C315.036 56.9 313.936 60.3333 311.736 62.6C309.569 64.8667 306.886 66 303.686 66C302.686 66 301.469 65.7833 300.036 65.35C297.936 64.7167 296.369 63.3833 295.336 61.35V74.25H290.936ZM295.036 52.4C295.036 55.9333 295.836 58.5833 297.436 60.35C299.103 62.05 300.919 62.9 302.886 62.9C304.953 62.9 306.719 62.0667 308.186 60.4C309.653 58.6667 310.386 55.9667 310.386 52.3C310.386 48.9667 309.703 46.3667 308.336 44.5C307.003 42.6333 305.103 41.7 302.636 41.7C301.336 41.7 300.119 42.05 298.986 42.75C296.353 44.3167 295.036 47.5333 295.036 52.4ZM319.97 57.3C319.103 53.7333 319.137 50.2833 320.07 46.95C321.003 43.6167 322.97 41.2333 325.97 39.8C327.637 39 329.587 38.6 331.82 38.6C334.053 38.6 336.003 39 337.67 39.8C340.67 41.2 342.653 43.7 343.62 47.3C344.053 48.9667 344.27 50.65 344.27 52.35C344.303 54.0167 344.103 55.6667 343.67 57.3C343.27 58.9 342.553 60.3667 341.52 61.7C340.52 63.0333 339.237 64.0833 337.67 64.85C335.97 65.6167 334.02 66 331.82 66C329.62 66 327.67 65.6167 325.97 64.85C323.07 63.45 321.07 60.9333 319.97 57.3ZM324.62 47.25C324.187 48.5833 323.97 50.25 323.97 52.25C323.97 54.2167 324.187 55.9 324.62 57.3C325.053 58.7 325.553 59.75 326.12 60.45C327.32 61.7833 328.687 62.5667 330.22 62.8C331.287 62.9667 332.353 62.9667 333.42 62.8C333.887 62.7667 334.537 62.5333 335.37 62.1C336.27 61.6333 337.003 61.05 337.57 60.35C338.137 59.65 338.62 58.6333 339.02 57.3C339.453 55.9 339.67 54.2167 339.67 52.25C339.67 50.25 339.453 48.5833 339.02 47.25C338.553 45.7833 338.037 44.7333 337.47 44.1C336.937 43.4667 336.27 42.9333 335.47 42.5C334.67 42.0667 333.987 41.8 333.42 41.7C332.353 41.5333 331.287 41.5333 330.22 41.7C329.753 41.7333 329.087 41.9833 328.22 42.45C326.52 43.2833 325.32 44.8833 324.62 47.25ZM354.467 39.6V59.85L367.717 39.6H372.617V65H368.217V44.7L355.017 65H350.067V39.6H354.467ZM397.603 55.95H401.803C401.67 57.8833 400.936 59.9167 399.603 62.05C398.87 63.25 397.72 64.2167 396.153 64.95C394.62 65.65 392.82 66 390.753 66C390.053 66 389.553 65.9833 389.253 65.95C387.786 65.8833 386.286 65.5 384.753 64.8C380.486 62.6667 378.353 58.4333 378.353 52.1C378.353 48.7667 379.12 45.8 380.653 43.2C382.553 40.1333 385.82 38.6 390.453 38.6C393.72 38.6 396.32 39.4333 398.253 41.1C400.186 42.7333 401.303 44.8833 401.603 47.55H397.403C396.736 43.65 394.453 41.7 390.553 41.7C388.02 41.7 386.12 42.6333 384.853 44.5C383.62 46.3333 383.003 48.8667 383.003 52.1C383.003 55.2333 383.653 57.8167 384.953 59.85C386.253 61.8833 388.22 62.9 390.853 62.9C393.12 62.9 394.77 62.1833 395.803 60.75C396.903 59.3167 397.503 57.7167 397.603 55.95ZM409.196 39.6L415.696 49L422.196 39.6H427.096L418.196 51.75L427.796 65H422.896L415.696 54.55L408.496 65H403.596L413.196 51.75L404.296 39.6H409.196ZM430.614 57.3C429.748 53.7333 429.781 50.2833 430.714 46.95C431.648 43.6167 433.614 41.2333 436.614 39.8C438.281 39 440.231 38.6 442.464 38.6C444.698 38.6 446.648 39 448.314 39.8C451.314 41.2 453.298 43.7 454.264 47.3C454.698 48.9667 454.914 50.65 454.914 52.35C454.948 54.0167 454.748 55.6667 454.314 57.3C453.914 58.9 453.198 60.3667 452.164 61.7C451.164 63.0333 449.881 64.0833 448.314 64.85C446.614 65.6167 444.664 66 442.464 66C440.264 66 438.314 65.6167 436.614 64.85C433.714 63.45 431.714 60.9333 430.614 57.3ZM435.264 47.25C434.831 48.5833 434.614 50.25 434.614 52.25C434.614 54.2167 434.831 55.9 435.264 57.3C435.698 58.7 436.198 59.75 436.764 60.45C437.964 61.7833 439.331 62.5667 440.864 62.8C441.931 62.9667 442.998 62.9667 444.064 62.8C444.531 62.7667 445.181 62.5333 446.014 62.1C446.914 61.6333 447.648 61.05 448.214 60.35C448.781 59.65 449.264 58.6333 449.664 57.3C450.098 55.9 450.314 54.2167 450.314 52.25C450.314 50.25 450.098 48.5833 449.664 47.25C449.198 45.7833 448.681 44.7333 448.114 44.1C447.581 43.4667 446.914 42.9333 446.114 42.5C445.314 42.0667 444.631 41.8 444.064 41.7C442.998 41.5333 441.931 41.5333 440.864 41.7C440.398 41.7333 439.731 41.9833 438.864 42.45C437.164 43.2833 435.964 44.8833 435.264 47.25ZM457.511 71.6L457.111 61.9H460.311C463.078 57.8333 464.461 51.8167 464.461 43.85V39.6H482.661V61.9H487.061L486.711 71.6H483.011V65H461.211V71.6H457.511ZM478.261 61.9V42.7H468.561V46.25C468.561 48.95 468.261 51.75 467.661 54.65C467.128 57.5167 466.228 59.9333 464.961 61.9H478.261ZM495.238 39.6V59.85L508.488 39.6H513.388V65H508.988V44.7L495.788 65H490.838V39.6H495.238ZM526.425 65V42.7H517.625V39.6H539.625V42.7H530.825V65H526.425Z" fill="black"/>
<path d="M35.45 116V93.7H26.65V90.6H48.65V93.7H39.85V116H35.45ZM69.9215 108.65H74.1215C73.7215 110.883 72.6382 112.833 70.8715 114.5C69.1048 116.167 66.4882 117 63.0215 117C58.3215 117 54.8715 115.45 52.6715 112.35C51.5715 110.717 50.8548 108.967 50.5215 107.1C50.2882 105.8 50.1715 104.567 50.1715 103.4C50.1715 101.167 50.5048 99.0667 51.1715 97.1C51.6048 95.7 52.2382 94.4833 53.0715 93.45C53.9715 92.35 55.2548 91.4333 56.9215 90.7C58.5882 89.9667 60.4715 89.6 62.5715 89.6C66.3048 89.6 69.1215 90.6333 71.0215 92.7C71.8215 93.5667 72.4715 94.6667 72.9715 96C73.7048 97.9333 74.1548 100.283 74.3215 103.05C74.3215 103.15 74.3215 103.367 74.3215 103.7C74.3548 104.033 74.3715 104.233 74.3715 104.3H54.8215C54.8215 106.833 55.4882 109.067 56.8215 111C58.1548 112.933 60.1715 113.9 62.8715 113.9C64.8048 113.9 66.3882 113.417 67.6215 112.45C68.8548 111.483 69.6215 110.217 69.9215 108.65ZM54.8215 101.2H69.7215C69.6882 99.2333 69.2215 97.4167 68.3215 95.75C67.2882 93.7167 65.4048 92.7 62.6715 92.7C59.5715 92.7 57.4382 93.7333 56.2715 95.8C55.3048 97.4667 54.8215 99.2667 54.8215 101.2ZM80.1371 125.25V90.6H84.2371V94.1H84.3871C86.3871 91.1 89.1871 89.6 92.7871 89.6C96.0871 89.6 98.8204 90.75 100.987 93.05C103.154 95.3833 104.237 98.8 104.237 103.3C104.237 107.9 103.137 111.333 100.937 113.6C98.7704 115.867 96.0871 117 92.8871 117C91.8871 117 90.6704 116.783 89.2371 116.35C87.1371 115.717 85.5704 114.383 84.5371 112.35V125.25H80.1371ZM84.2371 103.4C84.2371 106.933 85.0371 109.583 86.6371 111.35C88.3038 113.05 90.1204 113.9 92.0871 113.9C94.1538 113.9 95.9204 113.067 97.3871 111.4C98.8538 109.667 99.5871 106.967 99.5871 103.3C99.5871 99.9667 98.9038 97.3667 97.5371 95.5C96.2038 93.6333 94.3038 92.7 91.8371 92.7C90.5371 92.7 89.3204 93.05 88.1871 93.75C85.5538 95.3167 84.2371 98.5333 84.2371 103.4ZM126.371 116H122.971L114.371 95.6H114.271L114.371 96.95V116H109.971V90.6H116.021L124.671 111.25L133.321 90.6H139.371V116H134.971V96.95L135.121 95.6H134.971L126.371 116ZM145.792 108.3C144.926 104.733 144.959 101.283 145.892 97.95C146.826 94.6167 148.792 92.2333 151.792 90.8C153.459 90 155.409 89.6 157.642 89.6C159.876 89.6 161.826 90 163.492 90.8C166.492 92.2 168.476 94.7 169.442 98.3C169.876 99.9667 170.092 101.65 170.092 103.35C170.126 105.017 169.926 106.667 169.492 108.3C169.092 109.9 168.376 111.367 167.342 112.7C166.342 114.033 165.059 115.083 163.492 115.85C161.792 116.617 159.842 117 157.642 117C155.442 117 153.492 116.617 151.792 115.85C148.892 114.45 146.892 111.933 145.792 108.3ZM150.442 98.25C150.009 99.5833 149.792 101.25 149.792 103.25C149.792 105.217 150.009 106.9 150.442 108.3C150.876 109.7 151.376 110.75 151.942 111.45C153.142 112.783 154.509 113.567 156.042 113.8C157.109 113.967 158.176 113.967 159.242 113.8C159.709 113.767 160.359 113.533 161.192 113.1C162.092 112.633 162.826 112.05 163.392 111.35C163.959 110.65 164.442 109.633 164.842 108.3C165.276 106.9 165.492 105.217 165.492 103.25C165.492 101.25 165.276 99.5833 164.842 98.25C164.376 96.7833 163.859 95.7333 163.292 95.1C162.759 94.4667 162.092 93.9333 161.292 93.5C160.492 93.0667 159.809 92.8 159.242 92.7C158.176 92.5333 157.109 92.5333 156.042 92.7C155.576 92.7333 154.909 92.9833 154.042 93.45C152.342 94.2833 151.142 95.8833 150.442 98.25ZM193.139 93.7H180.289V116H175.889V90.6H197.539V116H193.139V93.7ZM204.746 125.25V90.6H208.846V94.1H208.996C210.996 91.1 213.796 89.6 217.396 89.6C220.696 89.6 223.43 90.75 225.596 93.05C227.763 95.3833 228.846 98.8 228.846 103.3C228.846 107.9 227.746 111.333 225.546 113.6C223.38 115.867 220.696 117 217.496 117C216.496 117 215.28 116.783 213.846 116.35C211.746 115.717 210.18 114.383 209.146 112.35V125.25H204.746ZM208.846 103.4C208.846 106.933 209.646 109.583 211.246 111.35C212.913 113.05 214.73 113.9 216.696 113.9C218.763 113.9 220.53 113.067 221.996 111.4C223.463 109.667 224.196 106.967 224.196 103.3C224.196 99.9667 223.513 97.3667 222.146 95.5C220.813 93.6333 218.913 92.7 216.446 92.7C215.146 92.7 213.93 93.05 212.796 93.75C210.163 95.3167 208.846 98.5333 208.846 103.4ZM252.88 108.65H257.08C256.68 110.883 255.597 112.833 253.83 114.5C252.064 116.167 249.447 117 245.98 117C241.28 117 237.83 115.45 235.63 112.35C234.53 110.717 233.814 108.967 233.48 107.1C233.247 105.8 233.13 104.567 233.13 103.4C233.13 101.167 233.464 99.0667 234.13 97.1C234.564 95.7 235.197 94.4833 236.03 93.45C236.93 92.35 238.214 91.4333 239.88 90.7C241.547 89.9667 243.43 89.6 245.53 89.6C249.264 89.6 252.08 90.6333 253.98 92.7C254.78 93.5667 255.43 94.6667 255.93 96C256.664 97.9333 257.114 100.283 257.28 103.05C257.28 103.15 257.28 103.367 257.28 103.7C257.314 104.033 257.33 104.233 257.33 104.3H237.78C237.78 106.833 238.447 109.067 239.78 111C241.114 112.933 243.13 113.9 245.83 113.9C247.764 113.9 249.347 113.417 250.58 112.45C251.814 111.483 252.58 110.217 252.88 108.65ZM237.78 101.2H252.68C252.647 99.2333 252.18 97.4167 251.28 95.75C250.247 93.7167 248.364 92.7 245.63 92.7C242.53 92.7 240.397 93.7333 239.23 95.8C238.264 97.4667 237.78 99.2667 237.78 101.2ZM280.896 106.95H285.096C284.963 108.883 284.229 110.917 282.896 113.05C282.163 114.25 281.013 115.217 279.446 115.95C277.913 116.65 276.113 117 274.046 117C273.346 117 272.846 116.983 272.546 116.95C271.079 116.883 269.579 116.5 268.046 115.8C263.779 113.667 261.646 109.433 261.646 103.1C261.646 99.7667 262.413 96.8 263.946 94.2C265.846 91.1333 269.113 89.6 273.746 89.6C277.013 89.6 279.613 90.4333 281.546 92.1C283.479 93.7333 284.596 95.8833 284.896 98.55H280.696C280.029 94.65 277.746 92.7 273.846 92.7C271.313 92.7 269.413 93.6333 268.146 95.5C266.913 97.3333 266.296 99.8667 266.296 103.1C266.296 106.233 266.946 108.817 268.246 110.85C269.546 112.883 271.513 113.9 274.146 113.9C276.413 113.9 278.063 113.183 279.096 111.75C280.196 110.317 280.796 108.717 280.896 106.95ZM308.289 106.95H312.489C312.355 108.883 311.622 110.917 310.289 113.05C309.555 114.25 308.405 115.217 306.839 115.95C305.305 116.65 303.505 117 301.439 117C300.739 117 300.239 116.983 299.939 116.95C298.472 116.883 296.972 116.5 295.439 115.8C291.172 113.667 289.039 109.433 289.039 103.1C289.039 99.7667 289.805 96.8 291.339 94.2C293.239 91.1333 296.505 89.6 301.139 89.6C304.405 89.6 307.005 90.4333 308.939 92.1C310.872 93.7333 311.989 95.8833 312.289 98.55H308.089C307.422 94.65 305.139 92.7 301.239 92.7C298.705 92.7 296.805 93.6333 295.539 95.5C294.305 97.3333 293.689 99.8667 293.689 103.1C293.689 106.233 294.339 108.817 295.639 110.85C296.939 112.883 298.905 113.9 301.539 113.9C303.805 113.9 305.455 113.183 306.489 111.75C307.589 110.317 308.189 108.717 308.289 106.95ZM317.081 108.3C316.215 104.733 316.248 101.283 317.181 97.95C318.115 94.6167 320.081 92.2333 323.081 90.8C324.748 90 326.698 89.6 328.931 89.6C331.165 89.6 333.115 90 334.781 90.8C337.781 92.2 339.765 94.7 340.731 98.3C341.165 99.9667 341.381 101.65 341.381 103.35C341.415 105.017 341.215 106.667 340.781 108.3C340.381 109.9 339.665 111.367 338.631 112.7C337.631 114.033 336.348 115.083 334.781 115.85C333.081 116.617 331.131 117 328.931 117C326.731 117 324.781 116.617 323.081 115.85C320.181 114.45 318.181 111.933 317.081 108.3ZM321.731 98.25C321.298 99.5833 321.081 101.25 321.081 103.25C321.081 105.217 321.298 106.9 321.731 108.3C322.165 109.7 322.665 110.75 323.231 111.45C324.431 112.783 325.798 113.567 327.331 113.8C328.398 113.967 329.465 113.967 330.531 113.8C330.998 113.767 331.648 113.533 332.481 113.1C333.381 112.633 334.115 112.05 334.681 111.35C335.248 110.65 335.731 109.633 336.131 108.3C336.565 106.9 336.781 105.217 336.781 103.25C336.781 101.25 336.565 99.5833 336.131 98.25C335.665 96.7833 335.148 95.7333 334.581 95.1C334.048 94.4667 333.381 93.9333 332.581 93.5C331.781 93.0667 331.098 92.8 330.531 92.7C329.465 92.5333 328.398 92.5333 327.331 92.7C326.865 92.7333 326.198 92.9833 325.331 93.45C323.631 94.2833 322.431 95.8833 321.731 98.25ZM347.178 116V90.6H359.278C364.645 90.6 367.328 92.6167 367.328 96.65C367.328 99.55 365.795 101.533 362.728 102.6V102.75C364.795 103.25 366.228 104.05 367.028 105.15C367.861 106.25 368.278 107.667 368.278 109.4C368.278 112.167 367.261 114 365.228 114.9C363.561 115.633 361.528 116 359.128 116H347.178ZM357.878 93.7H351.578V101.2H357.678C359.445 101.2 360.745 100.85 361.578 100.15C362.445 99.4167 362.878 98.4667 362.878 97.3C362.878 94.9 361.211 93.7 357.878 93.7ZM357.878 104.3H351.578V112.9H358.028C361.828 112.9 363.728 111.6 363.728 109C363.728 105.867 361.778 104.3 357.878 104.3ZM377.481 98.1H373.281C373.281 96.1 373.948 94.2667 375.281 92.6C376.881 90.6 379.815 89.6 384.081 89.6C386.581 89.6 388.781 90.1 390.681 91.1C391.781 91.6333 392.648 92.5167 393.281 93.75C393.915 94.9833 394.215 96.45 394.181 98.15L393.931 109.9C393.931 110.867 394.031 111.617 394.231 112.15C394.531 112.683 395.315 112.933 396.581 112.9V116C396.081 116.133 395.415 116.2 394.581 116.2C393.115 116.2 392.048 115.95 391.381 115.45C390.748 114.95 390.298 113.967 390.031 112.5C388.398 115.5 385.498 117 381.331 117C378.465 117 376.248 116.367 374.681 115.1C373.148 113.8 372.381 111.883 372.381 109.35C372.381 106.95 373.248 105.133 374.981 103.9C376.715 102.6 379.998 101.733 384.831 101.3C387.065 101.133 388.398 100.917 388.831 100.65C389.465 100.217 389.781 99.2667 389.781 97.8C389.781 94.4 387.881 92.7 384.081 92.7C379.581 92.7 377.381 94.5 377.481 98.1ZM389.681 105.15L389.781 103C389.281 103.367 388.548 103.667 387.581 103.9C386.115 104 384.981 104.117 384.181 104.25C381.415 104.717 379.731 105.1 379.131 105.4C377.665 106.1 376.931 107.367 376.931 109.2C376.931 110.667 377.365 111.817 378.231 112.65C379.131 113.483 380.331 113.9 381.831 113.9C382.798 113.9 383.681 113.767 384.481 113.5C385.315 113.233 386.115 112.8 386.881 112.2C387.681 111.567 388.315 110.65 388.781 109.45C389.281 108.25 389.581 106.817 389.681 105.15ZM418.718 104.15H406.168V116H401.768V90.6H406.168V101.05H418.718V90.6H423.118V116H418.718V104.15ZM434.732 90.6V110.85L447.982 90.6H452.882V116H448.482V95.7L435.282 116H430.332V90.6H434.732ZM478.369 108.65H482.569C482.169 110.883 481.085 112.833 479.319 114.5C477.552 116.167 474.935 117 471.469 117C466.769 117 463.319 115.45 461.119 112.35C460.019 110.717 459.302 108.967 458.969 107.1C458.735 105.8 458.619 104.567 458.619 103.4C458.619 101.167 458.952 99.0667 459.619 97.1C460.052 95.7 460.685 94.4833 461.519 93.45C462.419 92.35 463.702 91.4333 465.369 90.7C467.035 89.9667 468.919 89.6 471.019 89.6C474.752 89.6 477.569 90.6333 479.469 92.7C480.269 93.5667 480.919 94.6667 481.419 96C482.152 97.9333 482.602 100.283 482.769 103.05C482.769 103.15 482.769 103.367 482.769 103.7C482.802 104.033 482.819 104.233 482.819 104.3H463.269C463.269 106.833 463.935 109.067 465.269 111C466.602 112.933 468.619 113.9 471.319 113.9C473.252 113.9 474.835 113.417 476.069 112.45C477.302 111.483 478.069 110.217 478.369 108.65ZM463.269 101.2H478.169C478.135 99.2333 477.669 97.4167 476.769 95.75C475.735 93.7167 473.852 92.7 471.119 92.7C468.019 92.7 465.885 93.7333 464.719 95.8C463.752 97.4667 463.269 99.2667 463.269 101.2ZM46.85 143.7H34V166H29.6V140.6H51.25V166H46.85V143.7ZM57.6574 158.3C56.7908 154.733 56.8241 151.283 57.7574 147.95C58.6908 144.617 60.6574 142.233 63.6574 140.8C65.3241 140 67.2741 139.6 69.5074 139.6C71.7408 139.6 73.6908 140 75.3574 140.8C78.3574 142.2 80.3408 144.7 81.3074 148.3C81.7408 149.967 81.9574 151.65 81.9574 153.35C81.9908 155.017 81.7908 156.667 81.3574 158.3C80.9574 159.9 80.2408 161.367 79.2074 162.7C78.2074 164.033 76.9241 165.083 75.3574 165.85C73.6574 166.617 71.7074 167 69.5074 167C67.3074 167 65.3574 166.617 63.6574 165.85C60.7574 164.45 58.7574 161.933 57.6574 158.3ZM62.3074 148.25C61.8741 149.583 61.6574 151.25 61.6574 153.25C61.6574 155.217 61.8741 156.9 62.3074 158.3C62.7408 159.7 63.2408 160.75 63.8074 161.45C65.0074 162.783 66.3741 163.567 67.9074 163.8C68.9741 163.967 70.0408 163.967 71.1074 163.8C71.5741 163.767 72.2241 163.533 73.0574 163.1C73.9574 162.633 74.6908 162.05 75.2574 161.35C75.8241 160.65 76.3074 159.633 76.7074 158.3C77.1408 156.9 77.3574 155.217 77.3574 153.25C77.3574 151.25 77.1408 149.583 76.7074 148.25C76.2408 146.783 75.7241 145.733 75.1574 145.1C74.6241 144.467 73.9574 143.933 73.1574 143.5C72.3574 143.067 71.6741 142.8 71.1074 142.7C70.0408 142.533 68.9741 142.533 67.9074 142.7C67.4408 142.733 66.7741 142.983 65.9074 143.45C64.2074 144.283 63.0074 145.883 62.3074 148.25ZM84.8043 166V162.75C87.3043 163.483 89.071 162.3 90.1043 159.2C90.371 158.433 90.5543 157.483 90.6543 156.35L90.8543 153.3C90.8876 152.767 90.9043 151.717 90.9043 150.15V140.6H108.504V166H104.104V143.7H95.0043V150.15C95.0043 152.25 94.9543 154.017 94.8543 155.45C94.7543 156.85 94.5043 158.383 94.1043 160.05C93.5376 162.417 92.521 164.1 91.0543 165.1C89.5876 166.1 87.5043 166.4 84.8043 166ZM120.084 140.6V160.85L133.334 140.6H138.234V166H133.834V145.7L120.634 166H115.684V140.6H120.084ZM161.82 166H158.42L149.82 145.6H149.72L149.82 146.95V166H145.42V140.6H151.47L160.12 161.25L168.77 140.6H174.82V166H170.42V146.95L170.57 145.6H170.42L161.82 166ZM200.341 158.65H204.541C204.141 160.883 203.058 162.833 201.291 164.5C199.525 166.167 196.908 167 193.441 167C188.741 167 185.291 165.45 183.091 162.35C181.991 160.717 181.275 158.967 180.941 157.1C180.708 155.8 180.591 154.567 180.591 153.4C180.591 151.167 180.925 149.067 181.591 147.1C182.025 145.7 182.658 144.483 183.491 143.45C184.391 142.35 185.675 141.433 187.341 140.7C189.008 139.967 190.891 139.6 192.991 139.6C196.725 139.6 199.541 140.633 201.441 142.7C202.241 143.567 202.891 144.667 203.391 146C204.125 147.933 204.575 150.283 204.741 153.05C204.741 153.15 204.741 153.367 204.741 153.7C204.775 154.033 204.791 154.233 204.791 154.3H185.241C185.241 156.833 185.908 159.067 187.241 161C188.575 162.933 190.591 163.9 193.291 163.9C195.225 163.9 196.808 163.417 198.041 162.45C199.275 161.483 200.041 160.217 200.341 158.65ZM185.241 151.2H200.141C200.108 149.233 199.641 147.417 198.741 145.75C197.708 143.717 195.825 142.7 193.091 142.7C189.991 142.7 187.858 143.733 186.691 145.8C185.725 147.467 185.241 149.267 185.241 151.2ZM210.557 175.25V140.6H214.657V144.1H214.807C216.807 141.1 219.607 139.6 223.207 139.6C226.507 139.6 229.24 140.75 231.407 143.05C233.574 145.383 234.657 148.8 234.657 153.3C234.657 157.9 233.557 161.333 231.357 163.6C229.19 165.867 226.507 167 223.307 167C222.307 167 221.09 166.783 219.657 166.35C217.557 165.717 215.99 164.383 214.957 162.35V175.25H210.557ZM214.657 153.4C214.657 156.933 215.457 159.583 217.057 161.35C218.724 163.05 220.54 163.9 222.507 163.9C224.574 163.9 226.34 163.067 227.807 161.4C229.274 159.667 230.007 156.967 230.007 153.3C230.007 149.967 229.324 147.367 227.957 145.5C226.624 143.633 224.724 142.7 222.257 142.7C220.957 142.7 219.74 143.05 218.607 143.75C215.974 145.317 214.657 148.533 214.657 153.4ZM239.591 158.3C238.724 154.733 238.758 151.283 239.691 147.95C240.624 144.617 242.591 142.233 245.591 140.8C247.258 140 249.208 139.6 251.441 139.6C253.674 139.6 255.624 140 257.291 140.8C260.291 142.2 262.274 144.7 263.241 148.3C263.674 149.967 263.891 151.65 263.891 153.35C263.924 155.017 263.724 156.667 263.291 158.3C262.891 159.9 262.174 161.367 261.141 162.7C260.141 164.033 258.858 165.083 257.291 165.85C255.591 166.617 253.641 167 251.441 167C249.241 167 247.291 166.617 245.591 165.85C242.691 164.45 240.691 161.933 239.591 158.3ZM244.241 148.25C243.808 149.583 243.591 151.25 243.591 153.25C243.591 155.217 243.808 156.9 244.241 158.3C244.674 159.7 245.174 160.75 245.741 161.45C246.941 162.783 248.308 163.567 249.841 163.8C250.908 163.967 251.974 163.967 253.041 163.8C253.508 163.767 254.158 163.533 254.991 163.1C255.891 162.633 256.624 162.05 257.191 161.35C257.758 160.65 258.241 159.633 258.641 158.3C259.074 156.9 259.291 155.217 259.291 153.25C259.291 151.25 259.074 149.583 258.641 148.25C258.174 146.783 257.658 145.733 257.091 145.1C256.558 144.467 255.891 143.933 255.091 143.5C254.291 143.067 253.608 142.8 253.041 142.7C251.974 142.533 250.908 142.533 249.841 142.7C249.374 142.733 248.708 142.983 247.841 143.45C246.141 144.283 244.941 145.883 244.241 148.25ZM269.688 166V140.6H281.788C287.155 140.6 289.838 142.617 289.838 146.65C289.838 149.55 288.305 151.533 285.238 152.6V152.75C287.305 153.25 288.738 154.05 289.538 155.15C290.371 156.25 290.788 157.667 290.788 159.4C290.788 162.167 289.771 164 287.738 164.9C286.071 165.633 284.038 166 281.638 166H269.688ZM280.388 143.7H274.088V151.2H280.188C281.955 151.2 283.255 150.85 284.088 150.15C284.955 149.417 285.388 148.467 285.388 147.3C285.388 144.9 283.721 143.7 280.388 143.7ZM280.388 154.3H274.088V162.9H280.538C284.338 162.9 286.238 161.6 286.238 159C286.238 155.867 284.288 154.3 280.388 154.3Z" fill="black"/>
<rect x="139" y="30" width="10" height="10" fill="#D0D0D0"/>
<rect x="30" y="30" width="10" height="10" fill="#D0D0D0"/>
<rect x="170" y="278" width="10" height="10" fill="#D0D0D0"/>
<rect x="555" y="278" width="10" height="10" fill="#D0D0D0"/>
</svg>
