<svg width="595" height="595" viewBox="0 0 595 595" fill="none" xmlns="http://www.w3.org/2000/svg">
<path fill-rule="evenodd" clip-rule="evenodd" d="M344.512 162.429V164.858H340.807H337.103V166.072V167.287H330.972H324.84V168.501V169.716H321.264H317.687V166.072V162.429H315.132H312.578V163.643V164.858H307.724H302.87V163.643V162.429H300.379H297.888V163.707V164.986H300.379H302.87V166.2V167.415H306.51H310.151V169.844V172.273H294.248H278.345V173.487V174.702H277.131H275.918V173.487V172.273H266.146H256.374V171.058V169.844H260.015H263.655V168.629V167.415H272.277H280.899V166.2V164.986H287.031H293.162V163.707V162.429H282.049H270.936V163.643V164.858H259.887H248.838V166.072V167.287H240.28H231.721V168.501V169.716H224.377H217.032V170.994V172.273H210.901H204.769V173.487V174.702H198.638H192.507V175.916V177.131H190.016H187.525V178.345V179.56H186.312H185.098V180.838V182.116H187.589H190.08V180.902V179.688H191.293H192.507V180.902V182.116H194.934H197.361V183.331V184.545H181.394H165.427V185.76V186.974H164.213H163V190.682V194.389H164.213H165.427V195.604V196.818H170.345H175.263V222.642V248.466H176.476H177.69V258.246V268.026H178.967H180.244V276.655V285.284H181.458H182.671V295.064V304.844H183.885H185.098V314.688V324.531H186.312H187.525V334.311V344.091H188.739H189.952V352.72V361.349H191.229H192.507V371.129V380.909H193.72H194.934V390.753V400.597H196.147H197.361V406.733V412.869H198.574H199.788V415.298V417.727H201.001H202.215V419.006V420.284H204.705H207.196V421.499V422.713H213.328H219.459V423.928V425.142H226.804H234.148V426.357V427.571H245.198H256.247V428.785V430H267.296H278.345V425.078V420.156H277.131H275.918V411.527V402.898H274.704H273.491V393.118V383.338H272.277H271.064V374.709V366.08H269.85H268.637V360.007V353.935H269.85H271.064V352.72V351.506H277.195H283.326V350.291V349.077H288.18H293.034V351.506V353.935H294.248H295.461V362.564V371.193H296.675H297.888V379.759V388.324H299.102H300.315V393.246V398.168H301.593H302.87V400.597V403.026H305.297H307.724V404.24V405.455H313.855H319.986V406.733V408.011H326.118H332.249V409.226V410.44H338.38H344.512V411.655V412.869H358.051H371.591V411.655V410.44H375.296H379V396.889V383.338H377.723H376.445V374.709V366.08H375.232H374.018V356.3V346.52H372.805H371.591V337.891V329.261H370.378H369.164V319.482V309.702H367.951H366.737V301.072V292.443H365.46H364.183V282.663V272.884H362.969H361.756V264.254V255.625H360.542H359.329V247.06V238.494H358.115H356.902V231.143V223.793H355.688H354.475V217.656V211.52H353.198H351.92V206.598V201.676H350.707H349.493V197.969V194.261H348.28H347.066V190.618V186.974H345.853H344.639V184.482V181.989H343.426H342.212V178.409V174.83H345.853H349.493V173.551V172.273H350.707H351.92V167.351V162.429H350.707H349.493V161.214V160H347.002H344.512V162.429ZM244.112 171.058V172.273H239.194H234.276V173.551V174.83H226.931H219.587V176.044V177.259H218.309H217.032V178.473V179.688H215.818H214.605V180.838V181.989H217.096H219.587V183.267V184.545H220.736H221.886V183.267V181.989H226.804H231.721V180.774V179.56H234.148H236.575V178.345V177.131H241.493H246.411V175.916V174.702H248.902H251.393V175.916V177.131H252.606H253.82V175.916V174.702H255.033H256.247V173.487V172.273H251.329H246.411V171.058V169.844H245.261H244.112V171.058ZM263.655 175.98V177.131H264.869H266.082V175.98V174.83H264.869H263.655V175.98ZM271.064 175.98V177.131H272.213H273.363V175.98V174.83H272.213H271.064V175.98ZM197.488 179.624V181.989H199.852H202.215V180.774V179.56H207.132H212.05V178.409V177.259H204.769H197.488V179.624ZM256.374 178.409V179.56H258.737H261.101V178.409V177.259H258.737H256.374V178.409ZM244.112 180.838V181.989H245.261H246.411V180.838V179.688H245.261H244.112V180.838ZM273.491 205.447V206.662H266.146H258.801V207.876V209.091H252.67H246.539V213.949V218.807H247.752H248.966V224.943V231.08H250.179H251.393V238.494V245.909H252.606H253.82V253.26V260.611H255.097H256.374V267.962V275.312H257.588H258.801V283.878V292.443H260.015H261.228V293.722V295H264.869H268.509V293.722V292.443H274.64H280.772V291.229V290.014H284.412H288.053V286.371V282.727H286.839H285.626V274.162V265.597H284.412H283.199V258.246V250.895H281.985H280.772V242.266V233.636H279.558H278.345V226.286V218.935H277.067H275.79V211.584V204.233H274.64H273.491V205.447ZM236.703 409.162V410.312H237.853H239.002V409.162V408.011H237.853H236.703V409.162Z" fill="#FFFF00"/>
</svg>
