<svg width="595" height="595" viewBox="0 0 595 595" fill="none" xmlns="http://www.w3.org/2000/svg">
<path fill-rule="evenodd" clip-rule="evenodd" d="M345.692 336.495V337.99H330.562H315.432V339.564V341.138H300.303H285.173V342.633V344.128H274.535H263.897V345.623V347.119H260.902H257.908V348.614V350.109H253.338H248.767V351.604V353.099H245.773H242.778V354.673V356.247H238.208H233.637V357.742V359.237H230.643H227.649V360.732V362.228H223.078H218.508V363.723V365.218H215.513H212.519V366.713V368.208H209.446H206.372V369.782V371.356H203.378H200.384V372.851V374.346H195.813H191.243V375.841V377.337H188.248H185.254V378.832V380.327H176.271H167.287V378.832V377.337H162.638H157.989V378.832V380.327H154.994H152V487.663V595H156.57H161.141V592.01V589.019H162.638H164.135V587.524V586.029H165.632H167.13V590.515V595H171.7H176.271V593.505V592.01H182.338H188.406V590.515V589.019H189.824H191.243V592.01V595H195.892H200.541V588.941V582.881H202.038H203.536V576.901V570.92H205.033H206.53V567.851V564.782H208.027H209.524V561.792V558.801H211.1H212.676V555.732V552.663H214.174H215.671V549.673V546.683H217.168H218.665V545.188V543.693H220.162H221.66V540.623V537.554H223.157H224.654V536.059V534.564H226.151H227.649V564.782V595H251.919H276.19V587.446V579.891H277.687H279.184V575.406V570.92H280.681H282.179V564.861V558.801H283.676H285.173V554.237V549.673H286.749H288.325V545.188V540.702H289.822H291.319V537.633V534.564H292.817H294.314V531.574V528.584H295.811H297.308V525.515V522.446H298.805H300.303V520.95V519.455H301.879H303.455V516.465V513.475H304.952H306.449V511.979V510.484H307.946H309.444V508.91V507.337H312.438H315.432V505.841V504.346H316.93H318.427V505.841V507.337H321.421H324.416V508.91V510.484H325.913H327.41V511.979V513.475H328.986H330.562V516.465V519.455H332.059H333.556V522.524V525.593H335.054H336.551V530.079V534.564H338.048H339.545V542.119V549.673H341.043H342.54V560.297V570.92H344.116H345.692V582.96V595H360.821H375.951V564.782V534.564H377.448H378.946V536.059V537.554H380.443H381.94V539.128V540.702H383.437H384.934V542.197V543.693H386.432H387.929V545.188V546.683H389.505H391.081V548.178V549.673H392.578H394.075V551.168V552.663H395.573H397.07V554.237V555.811H398.567H400.064V558.801V561.792H401.561H403.059V563.287V564.782H404.635H406.211V567.851V570.92H407.708H409.205V572.415V573.91H410.702H412.199V578.396V582.881H413.697H415.194V585.95V589.019H416.691H418.188V592.01V595H442.459H466.729V591.931V588.862H465.232H463.735V587.446V586.029H465.232H466.729V584.455V582.881H468.227H469.724V585.95V589.019H471.221H472.718V590.436V591.852H471.221H469.724V593.426V595H475.792H481.859V578.396V561.792H483.435H485.011V480.109V398.426H483.435H481.859V396.931V395.436H477.368H472.876V393.941V392.446H471.379H469.881V390.95V389.455H466.808H463.735V387.96V386.465H462.238H460.741V384.891V383.317H459.243H457.746V380.327V377.337H456.249H454.752V374.346V371.356H453.176H451.6V368.366V365.375H457.667H463.735V363.88V362.385H474.373H485.011V360.89V359.395H488.006H491V348.692V337.99H488.006H485.011V336.495V335H415.351H345.692V336.495ZM327.568 348.692V350.109H329.065H330.562V348.692V347.276H329.065H327.568V348.692ZM315.432 351.683V353.099H319.924H324.416V351.683V350.266H319.924H315.432V351.683ZM336.709 351.683V353.099H339.624H342.54V351.683V350.266H339.624H336.709V351.683ZM372.957 351.683V353.099H374.454H375.951V351.683V350.266H374.454H372.957V351.683ZM369.962 369.861V371.356H371.46H372.957V372.851V374.346H375.951H378.946V372.851V371.356H380.443H381.94V369.861V368.366H375.951H369.962V369.861ZM466.729 400.079V401.574H468.227H469.724V400.079V398.584H468.227H466.729V400.079ZM466.729 419.673V422.663H471.3H475.87V424.159V425.654H477.289H478.707V422.742V419.831H475.713H472.718V418.257V416.683H469.724H466.729V419.673ZM448.605 442.415V443.91H447.108H445.611V445.406V446.901H444.114H442.616V449.97V453.039H439.543H436.47V454.455V455.872H439.543H442.616V457.367V458.862H444.035H445.453V457.367V455.872H447.029H448.605V457.367V458.862H450.103H451.6V457.367V455.872H453.097H454.594V452.96V450.048H453.097H451.6V445.484V440.92H450.103H448.605V442.415ZM427.487 460.515V465H428.905H430.324V461.931V458.862H431.821H433.318V457.446V456.029H430.402H427.487V460.515ZM457.746 466.574V467.99H460.662H463.577V466.574V465.157H460.662H457.746V466.574ZM451.6 469.643V471.138H450.103H448.605V474.128V477.119H447.108H445.611V478.614V480.109H447.108H448.605V483.099V486.09H450.103H451.6V487.585V489.08H453.097H454.594V486.09V483.099H456.091H457.589V481.683V480.266H456.091H454.594V474.207V468.148H453.097H451.6V469.643ZM430.481 481.683V483.099H434.973H439.464V481.683V480.266H434.973H430.481V481.683ZM460.741 484.673V486.09H462.238H463.735V487.585V489.08H465.232H466.729V490.654V492.228H471.221H475.713V489.237V486.247H471.221H466.729V484.752V483.257H463.735H460.741V484.673ZM454.752 493.723V495.218H456.17H457.589V493.723V492.228H456.17H454.752V493.723ZM409.363 511.979V513.475H407.787H406.211V517.96V522.446H412.199H418.188V516.465V510.484H413.775H409.363V511.979ZM382.098 516.386V519.298H385.013H387.929V516.386V513.475H385.013H382.098V516.386ZM427.487 548.099V549.516H428.905H430.324V548.099V546.683H428.905H427.487V548.099ZM415.351 575.327V576.743H416.849H418.346V578.239V579.734H419.843H421.34V576.822V573.91H418.346H415.351V575.327Z" fill="#FFFF00"/>
</svg>
