<svg width="595" height="595" viewBox="0 0 595 595" fill="none" xmlns="http://www.w3.org/2000/svg">
<g clip-path="url(#clip0_813_4398)">
<path fill-rule="evenodd" clip-rule="evenodd" d="M389.622 170.619V172.239H384.702H379.781V173.858V175.477H373.248H366.716V177.182V178.886H360.183H353.651V180.505V182.125H347.203H340.755V183.744V185.363H334.223H327.69V186.982V188.602H322.769H317.849V190.221V191.84H311.316H304.784V193.545V195.249H298.336H291.888V196.868V198.488H286.967H282.047V200.107V201.726H280.435H278.823V205.05V208.374H280.435H282.047V211.698V215.021H283.659H285.271V219.879V224.737H286.883H288.495V228.061V231.385H290.191H291.888V234.623V237.862H293.5H295.112V242.805V247.748H296.724H298.336V252.52V257.293H296.724H295.112V258.997V260.702H293.5H291.888V262.321V263.94H285.355H278.823V265.56V267.179H272.29H265.758V268.798V270.417H259.225H252.693V272.037V273.656H246.16H239.627V275.36V277.065H233.18H226.732V278.684V280.304H220.199H213.667V281.923V283.542H207.134H200.601V285.161V286.781H192.457H184.312V288.4V290.019H182.701H181.089V291.724V293.428H179.477H177.865V298.286V303.144H176.168H174.471V306.468V309.791H172.859H171.247V314.649V319.507H169.635H168.023V324.45V329.393H166.411H164.799V332.632V335.87H161.491H158.182V337.489V339.109H151.734H145.287V340.813V342.518H138.754H132.221V344.137V345.756H127.301H122.38V347.375V348.995H115.847H109.315V350.614V352.233H102.867H96.4194V353.852V355.472H91.4988H86.5781V357.176V358.881H80.0455H73.5129V360.5V362.119H68.6771H63.8413V363.739V365.358H58.9207H54V372.005V378.653H55.6119H57.2239V432.6V486.547H88.2749H119.326V483.309V480.07H125.774H132.221V481.69V483.309H135.445H138.669V484.928V486.547H143.59H148.51V488.167V489.786H151.734H154.958V491.49V493.195H159.879H164.799V494.814V496.433H169.635H174.471V517.654V538.875H176.168H177.865V545.438V552H184.397H190.93V522.597V493.195H198.99H207.049V494.814V496.433H221.726H236.403V498.053V499.672H251.081H265.758V501.291V502.911H280.435H295.112V504.53V506.149H309.789H324.466V507.854V509.558H334.307H344.149V483.309V457.06H345.761H347.373V444.02V430.981H348.985H350.597V429.362V427.742H361.965H373.333V426.038V424.333H383.175H393.016V422.714V421.095H404.384H415.753V419.476V417.856H422.201H428.648V419.476V421.095H430.26H431.872V422.714V424.333H433.484H435.096V426.038V427.742H438.405H441.713V429.362V430.981H443.325H444.937V432.6V434.219H446.549H448.161V435.839V437.458H451.47H454.779V424.419V411.379H469.371H483.963V412.998V414.618H500.252H516.541V416.237V417.856H523.159H529.776V360.585V303.314H531.388H533V298.371V293.428H524.771H516.541V295.047V296.667H470.983H425.424V298.286V299.905H422.201H418.977V296.667V293.428H417.365H415.753V291.809V290.19H420.673H425.594V288.57V286.951H430.43H435.266V285.332V283.713H438.574H441.883V280.389V277.065H440.186H438.49V270.503V263.94H436.878H435.266V258.997V254.054H433.654H432.042V249.196V244.339H430.43H428.818V239.396V234.453H427.206H425.594V229.51V224.567H423.897H422.201V219.709V214.851H420.589H418.977V208.289V201.726H417.365H415.753V196.783V191.84H414.141H412.529V186.982V182.125H410.917H409.305V177.182V172.239H407.608H405.911V170.619V169H397.767H389.622V170.619ZM340.755 198.488V201.726H343.979H347.203V200.192V198.658H345.591H343.979V196.954V195.249H342.367H340.755V198.488ZM373.333 201.812V204.965H374.945H376.557V201.812V198.658H374.945H373.333V201.812ZM409.305 205.05V208.203H410.832H412.359V205.05V201.897H410.832H409.305V205.05ZM396.24 221.413V224.567H397.767H399.294V222.947V221.328H400.906H402.518V219.794V218.26H399.379H396.24V221.413ZM412.529 285.247V286.781H414.056H415.583V285.247V283.713H414.056H412.529V285.247ZM373.333 298.371V299.905H374.945H376.557V298.371V296.837H374.945H373.333V298.371ZM389.622 301.695V303.314H386.398H383.175V304.933V306.553H378.254H373.333V308.172V309.791H368.498H363.662V311.496V313.2H358.741H353.82V314.734V316.268H355.432H357.044V317.888V319.507H358.741H360.438V321.126V322.745H363.577H366.716V321.126V319.507H371.637H376.557V317.888V316.268H379.781H383.005V314.649V313.03H387.926H392.846V311.411V309.791H394.458H396.07V304.933V300.076H392.846H389.622V301.695ZM142.063 347.461V348.995H143.675H145.287V347.461V345.927H143.675H142.063V347.461ZM116.102 353.938V355.472H117.629H119.156V353.938V352.404H117.629H116.102V353.938ZM109.485 357.261V358.881H111.097H112.708V357.261V355.642H111.097H109.485V357.261ZM96.4194 373.625V375.244H98.0313H99.6433V373.625V372.005H98.0313H96.4194V373.625ZM132.391 396.55V398.084H133.918H135.445V396.55V395.016H133.918H132.391V396.55ZM116.102 416.152V417.686H117.629H119.156V416.152V414.618H117.629H116.102V416.152ZM125.774 419.39V420.924H127.386H128.998V419.39V417.856H127.386H125.774V419.39ZM142.063 425.953V427.572H143.675H145.287V425.953V424.333H143.675H142.063V425.953Z" fill="#FFFF00"/>
</g>
<defs>
<clipPath id="clip0_813_4398">
<rect width="595" height="595" fill="white"/>
</clipPath>
</defs>
</svg>
