<svg width="595" height="595" viewBox="0 0 595 595" fill="none" xmlns="http://www.w3.org/2000/svg">
<path fill-rule="evenodd" clip-rule="evenodd" d="M366.709 189.025V190.05H361.396H356.083V191.14V192.229L353.938 192.267L351.792 192.305L351.755 194.389L351.717 196.473H347.497H343.278V197.566V198.659H342.256H341.234V199.684V200.709H339.123H337.011V201.802V202.896H335.921H334.832V203.989V205.082H333.742H332.652V206.107V207.132H331.63H330.608V208.151V209.17L329.553 209.21L328.497 209.25L328.457 210.309L328.417 211.368H327.401H326.385V212.462V213.555H325.295H324.206V214.574V215.593L323.15 215.633L322.094 215.673L322.056 217.757L322.019 219.841H321.001H319.982V220.934V222.028H318.893H317.803V224.146V226.264H316.781H315.759V228.382V230.5H314.738H313.716V231.594V232.687H312.558H311.4V234.805V236.923H310.378H309.356V240.066V243.21H308.335H307.313V245.396V247.583H306.223H305.133V250.726V253.869H304.112H303.09V258.174V262.478H302H300.91V269.926V277.374H299.82H298.73V282.704V288.033H297.709H296.687V291.313V294.593H297.709H298.73V296.643V298.693H297.709H296.687V309.42V320.148H297.709H298.73V328.62V337.093H299.82H300.91V338.187V339.28H302H303.09V346.728V354.175H304.112H305.133V357.387V360.598H306.223H307.313V362.648V364.698H308.335H309.356V366.885V369.071H310.378H311.4V371.189V373.307H312.558H313.716V375.426V377.544H314.738H315.759V379.662V381.78H316.781H317.803V383.898V386.017H318.893H319.982V388.203V390.39H321.004H322.026V391.415V392.44H323.11H324.194L324.234 393.499L324.274 394.558L325.329 394.598L326.385 394.638V395.657V396.676H327.401H328.417L328.457 397.735L328.497 398.794L329.553 398.834L330.608 398.874V399.961V401.049H331.63H332.652V402.074V403.099H334.832H337.011V404.192V405.285H338.033H339.055V406.31V407.335H342.256H345.458V408.36V409.385H346.547H347.637V410.547V411.708H349.675H351.712L351.752 412.699L351.792 413.69L356.049 413.726L360.307 413.762V414.785V415.808H370.933H381.559V414.783V413.758H385.85H390.141V412.736V411.713L393.308 411.676L396.476 411.64L396.515 410.512L396.555 409.385H398.661H400.767V408.36V407.335H402.879H404.99V406.316V405.297L406.046 405.257L407.102 405.217L407.142 404.158L407.181 403.099H409.287H411.393V402.074V401.049H412.415H413.437V399.956V398.862H414.526H415.616V397.769V396.676H416.706H417.796V395.651V394.626H418.818H419.839V393.533V392.44H420.861H421.883V391.415V390.39H423.923H425.963L426 392.474L426.038 394.558L427.094 394.598L428.149 394.638V396.75V398.862H441.977H455.804V397.769V396.676H500.42H545.035V395.651V394.626H552.46H559.884V393.533V392.44H560.906H561.928V388.135V383.83H560.909H559.891L559.854 381.678L559.816 379.525L558.76 379.485L557.705 379.446V378.426V377.407H556.683H555.661V374.196V370.984H554.571H553.481V368.866V366.748H552.392H551.302V365.723V364.698H544.967H538.632V363.605V362.512H535.499H532.366V361.418V360.325H529.164H525.963V359.3V358.275H523.851H521.74V357.182V356.089H519.56H517.38V355.064V354.039H515.269H513.157V352.946V351.852H512.135H511.114V350.759V349.666H508.934H506.754V348.641V347.616H505.733H504.711V346.523V345.429H502.599H500.488V344.404V343.38H499.398H498.308V342.355V341.33H497.218H496.128V340.168V339.006H494.085H492.042V337.982V336.957H490.952H489.862V335.932V334.907H488.772H487.682V333.813V332.72H486.66H485.639V331.695V330.67H484.549H483.459V329.509V328.347H482.437H481.416V327.322V326.297H480.326H479.236V324.179V322.061H478.146H477.056V321.036V320.011H476.034H475.013V318.918V317.825H473.923H472.833V315.706V313.588H471.811H470.79V312.495V311.402H469.7H468.61V309.283V307.165H467.52H466.43V306.209V305.252H467.52H468.61V304.159V303.066H469.7H470.79V301.972V300.879H471.811H472.833V299.854V298.829H473.923H475.013V297.736V296.643H477.124H479.236V295.618V294.593H480.326H481.416V293.5V292.406H483.527H485.639V291.313V290.22H486.66H487.682V289.195V288.17H489.862H492.042V287.077V285.983H493.063H494.085V284.958V283.934H496.197H498.308V282.84V281.747H500.42H502.531V280.654V279.56H504.643H506.754V278.536V277.511H508.934H511.114V276.486V275.461H513.225H515.337V274.368V273.274H517.448H519.56V272.181V271.088H523.783H528.006V270.063V269.038H531.208H534.409V267.945V266.851H537.542H540.676V265.826V264.801H551.302H561.928V263.708V262.615H564.107H566.287V261.522V260.428H567.309H568.331V259.409V258.39L569.386 258.35L570.442 258.31L570.482 257.251L570.522 256.192H571.538H572.554V255.167V254.142H573.644H574.733V253.049V251.956H575.823H576.913V250.862V249.769H577.935H578.957V248.744V247.719H579.978H581V245.464V243.21H579.978H578.957V242.185V241.16H577.938H576.92L576.883 239.076L576.845 236.992L563.052 236.957L549.258 236.922V235.898V234.874H536.521H523.783V233.78V232.687H507.918H492.053L492.013 231.628L491.973 230.569L484.515 230.533L477.056 230.498V228.381V226.264H476.034H475.013V225.239V224.214H469.7H464.387V223.121V222.028H461.117H457.848V223.121V224.214H456.826H455.804V223.121V222.028H447.358H438.912V220.934V219.841H434.688H430.465V218.816V217.791H429.375H428.286V215.673V213.555H427.264H426.242V212.462V211.368H425.152H424.062V210.275V209.182H421.951H419.839V208.157V207.132H418.818H417.796V205.014V202.896H416.706H415.616V201.802V200.709H413.505H411.393V199.684V198.659H409.281H407.17V197.566V196.473H404.99H402.811V195.448V194.423H398.587H394.364V193.33V192.236H392.253H390.141V191.143V190.05H387.008H383.875V189.025V188H375.292H366.709V189.025ZM392.185 195.448V196.473H393.206H394.228V195.448V194.423H393.206H392.185V195.448ZM152.374 200.8C152.324 200.85 152.283 201.342 152.283 201.894V202.896H137.502H122.721V205.014V207.132H120.677H118.634V206.107V205.082H117.544H116.454V203.989V202.896H108.961H101.469V203.989V205.082H86.6196H71.7705V206.107V207.132H65.4358H59.1011V208.157V209.182H58.0793H57.0576V208.157V207.132H51.6765H46.2954V209.25V211.368H40.9824H35.6694V212.462V213.555H33.5579H31.4463V214.58V215.605H28.2449H25.0435V216.698V217.791H24.0217H23V224.283V230.774H24.0217H25.0435V231.799V232.824H26.1333H27.2231V234.942V237.06H28.313H29.4028V238.085V239.11H31.5144H33.626V241.296V243.483H34.6477H35.6694V244.508V245.533H36.7593H37.8491V247.651V249.769H38.939H40.0288V250.862V251.956H41.0505H42.0723V253.049V254.142H43.094H44.1157V255.167V256.192H45.2056H46.2954V257.285V258.379H47.3853H48.4751V259.404V260.428H49.4968H50.5186V305.184V349.939H51.6084H52.6982V350.89V351.841L51.6425 351.881L50.5867 351.921V361.555V371.189L51.6425 371.229L52.6982 371.269V372.22V373.171H51.6084H50.5186V388.135V403.099H51.6084H52.6982V406.242V409.385H51.6084H50.5186V417.926V426.467H52.6301H54.7417V427.56V428.654H60.0547H65.3677V430.772V432.89H67.5474H69.7271V431.797V430.704H70.8169H71.9067V429.679V428.654H77.2197H82.5327V427.56V426.467H83.5544H84.5762V422.231V417.994H85.5979H86.6196V449.904V481.813H91.9326H97.2456V482.907V484H100.447H103.648V482.907V481.813H104.738H105.828V480.789V479.764H107.94H110.051V478.67V477.577H111.141H112.231V476.552V475.527H113.253H114.274V474.434V473.341H115.364H116.454V462.681V452.022H117.544H118.634V446.693V441.363H119.656H120.677V437.126V432.89H121.767H122.857V428.654V424.417H123.879H124.9V421.206V417.994H125.99H127.08V415.876V413.758H128.17H129.26V411.572V409.385H130.281H131.303V406.242V403.099H132.393H133.483V400.981V398.862H134.505H135.526V397.769V396.676H136.548H137.57V394.558V392.44H138.728H139.886V390.321V388.203H140.907H141.929V387.11V386.017H143.019H144.109V383.898V381.78H145.131H146.152V380.759V379.737L148.298 379.7L150.444 379.662L150.483 378.603L150.523 377.544H151.539H152.555V376.451V375.357H153.577H154.599V374.332V373.307H155.688H156.778V372.283V371.258H157.8H158.822V370.164V369.071H159.838H160.854L160.894 370.13L160.933 371.189L164.101 371.226L167.268 371.263V372.285V373.307H169.38H171.491V374.332V375.357H173.603H175.714V376.451V377.544H177.826H179.938V378.637V379.73H181.027H182.117V380.755V381.78H183.139H184.161V382.874V383.967H185.25H186.34V388.203V392.44H187.43H188.52V403.099V413.758H189.542H190.563V414.783V415.808H192.675H194.787V416.901V417.994H195.876H196.966V419.019V420.044H200.236H203.505V417.926V415.808H204.527H205.549V414.783V413.758H206.639H207.729V412.733V411.708H208.75H209.772V410.547V409.385H210.794H211.815V410.547V411.708H212.837H213.859V412.733V413.758H214.949H216.039V415.876V417.994H217.125H218.211L218.249 420.147L218.286 422.299L219.274 422.339L220.262 422.38V424.423V426.467H221.352H222.441V429.679V432.89H223.463H224.485V437.126V441.363H225.505H226.525L226.561 446.658L226.596 451.954L227.72 451.993L228.844 452.033V459.475V466.918H229.866H230.888V468.011V469.104H236.201H241.514V470.129V471.154H247.848H254.183V472.251V473.348L256.397 473.31L258.611 473.272L258.65 472.213L258.69 471.154H260.728H262.766V470.129V469.104H263.855H264.945V449.904V430.704H266.035H267.125V383.898V337.093H268.147H269.168V306.14V275.187H265.967H262.766V274.163V273.138H261.744H260.722V272.044V270.951H258.611H256.499V269.926V268.901H255.409H254.319V266.851V264.801H257.521H260.722V263.708V262.615H267.057H273.392V261.522V260.428H277.683H281.974V259.404V258.379H285.176H288.377V257.285V256.192H289.399H290.42V255.167V254.142H292.532H294.644V245.533V236.923H293.622H292.6V235.898V234.874H289.399H286.197V233.849V232.824H287.287H288.377V231.662V230.5H286.197H284.018V229.476V228.451H281.906H279.794V227.357V226.264H278.773H277.751V225.239V224.214H276.661H275.571V223.121V222.028H273.46H271.348V220.934V219.841H269.237H267.125V218.816V217.791H263.924H260.722V215.673V213.555H258.611H256.499V212.462V211.368H255.409H254.319V210.275V209.182H252.208H250.096V208.157V207.132H245.873H241.65V206.107V205.082H235.247H228.844V203.989V202.896H218.286H207.729V201.802V200.709H201.258H194.787V201.802V202.896H191.653H188.52V201.802V200.709H186.34H184.161V201.802V202.896H176.804H169.448V201.802V200.709H166.178H162.909V201.802V202.896H159.844H156.778V201.802V200.709H154.621C153.435 200.709 152.423 200.75 152.374 200.8ZM108.008 206.107V207.132H108.961H109.915V206.107V205.082H108.961H108.008V206.107ZM339.191 208.225V211.368H340.213H341.234V208.225V205.082H340.213H339.191V208.225ZM184.433 208.225V209.182H185.387H186.34V208.225V207.269H185.387H184.433V208.225ZM379.515 208.225V209.182H381.559H383.602V208.225V207.269H381.559H379.515V208.225ZM409.213 209.319V211.368H412.347H415.48V210.412V209.455H414.39H413.3V208.362V207.269H411.257H409.213V209.319ZM199.146 212.53V213.555H200.168H201.189V212.53V211.505H200.168H199.146V212.53ZM343.55 212.53V213.555H344.572H345.594V214.58V215.605H346.615H347.637V213.555V211.505H345.594H343.55V212.53ZM95.2021 214.648V215.605H96.2239H97.2456V214.648V213.692H96.2239H95.2021V214.648ZM171.627 214.642V215.593L172.683 215.633L173.739 215.673L173.779 216.732L173.819 217.791H174.766H175.714V215.741V213.692H173.671H171.627V214.642ZM334.968 217.791V219.841H337.011H339.055V218.885V217.928H338.033H337.011V216.835V215.741H335.99H334.968V217.791ZM163.181 218.885V219.841H165.225H167.268V218.885V217.928H165.225H163.181V218.885ZM381.559 218.885V219.841H382.58H383.602V218.885V217.928H382.58H381.559V218.885ZM65.6401 221.071V222.028H68.7734H71.9067V223.121V224.214H72.9285H73.9502V222.164V220.114H69.7952H65.6401V221.071ZM194.923 221.071V222.028H196.966H199.01V221.071V220.114H196.966H194.923V221.071ZM228.844 221.071V222.028H230.888H232.931V221.071V220.114H230.888H228.844V221.071ZM373.249 223.189V226.264H374.202H375.156V224.146V222.028H376.246H377.335V221.071V220.114H375.292H373.249V223.189ZM379.515 222.164V224.214H380.537H381.559V222.164V220.114H380.537H379.515V222.164ZM402.811 223.189V224.214H403.832H404.854V223.189V222.164H403.832H402.811V223.189ZM169.448 225.376V226.401H168.426H167.404V227.426V228.451H169.516H171.627V229.476V230.5H174.761H177.894V229.476V228.451H176.804H175.714V227.426V226.401H173.603H171.491V225.376V224.351H170.469H169.448V225.376ZM398.587 225.307V226.264H399.609H400.631V225.307V224.351H399.609H398.587V225.307ZM368.889 228.451V230.5H369.911H370.933V228.451V226.401H369.911H368.889V228.451ZM451.717 227.426V228.451H452.671H453.625V227.426V226.401H452.671H451.717V227.426ZM84.5762 229.476V230.5H85.5979H86.6196V229.476V228.451H85.5979H84.5762V229.476ZM194.923 229.476V230.5H195.945H196.966V229.476V228.451H195.945H194.923V229.476ZM245.873 231.73V232.687H250.028H254.183V231.73V230.774H250.028H245.873V231.73ZM127.08 233.849V234.874H129.124H131.167V233.849V232.824H129.124H127.08V233.849ZM161.001 233.849V234.874H164.135H167.268V233.849V232.824H164.135H161.001V233.849ZM63.3242 237.06V239.11H65.4358H67.5474V238.085V237.06H66.4575H65.3677V236.035V235.01H64.3459H63.3242V237.06ZM110.051 235.967V236.923H111.073H112.095V235.967V235.01H111.073H110.051V235.967ZM131.303 235.967V236.923H132.325H133.347V235.967V235.01H132.325H131.303V235.967ZM146.152 235.967V236.923H147.174H148.196V235.967V235.01H147.174H146.152V235.967ZM192.879 235.967V236.923H193.833H194.787V235.967V235.01H193.833H192.879V235.967ZM254.319 238.085V241.16H256.363H258.406V238.085V235.01H256.363H254.319V238.085ZM417.796 242.321V245.533H418.744H419.692L419.732 244.405L419.771 243.278L420.827 243.238L421.883 243.198V241.154V239.11H419.839H417.796V242.321ZM95.2021 242.321V243.21H96.2239H97.2456V242.321V241.433H96.2239H95.2021V242.321ZM116.454 242.321V243.21H118.498H120.541V242.321V241.433H118.498H116.454V242.321ZM139.886 242.321V243.21H140.839H141.793V242.321V241.433H140.839H139.886V242.321ZM156.778 242.321V243.21H158.822H160.865V242.321V241.433H158.822H156.778V242.321ZM248.053 242.321V243.21H249.006H249.96V242.321V241.433H249.006H248.053V242.321ZM375.292 242.321V243.21H376.314H377.335V242.321V241.433H376.314H375.292V242.321ZM326.521 244.508V245.533H325.432H324.342V246.558V247.583H325.432H326.521V248.608V249.633H327.475H328.429V246.558V243.483H327.475H326.521V244.508ZM377.472 244.508V245.533H378.425H379.379V244.508V243.483H378.425H377.472V244.508ZM392.185 244.508V245.533H393.206H394.228V244.508V243.483H393.206H392.185V244.508ZM95.2021 246.558V247.583H96.2239H97.2456V246.558V245.533H96.2239H95.2021V246.558ZM345.594 246.558V247.583H346.615H347.637V246.558V245.533H346.615H345.594V246.558ZM385.918 250.862V256.192H386.94H387.961V250.862V245.533H386.94H385.918V250.862ZM171.627 249.769V251.819H174.761H177.894V249.769V247.719H174.761H171.627V249.769ZM275.571 248.744V249.769H272.37H269.168V250.794V251.819H270.258H271.348V252.844V253.869H272.37H273.392V252.844V251.819H275.429H277.467L277.507 250.76L277.547 249.701L278.602 249.661L279.658 249.621V248.67V247.719H277.615H275.571V248.744ZM248.053 250.794V251.819H252.208H256.363V250.794V249.769H252.208H248.053V250.794ZM356.22 250.862V251.956H355.13H354.04V252.912V253.869H356.083H358.127V251.819V249.769H357.173H356.22V250.862ZM144.109 252.912V253.869H145.062H146.016V252.912V251.956H145.062H144.109V252.912ZM413.437 252.912V253.869H414.458H415.48V252.912V251.956H414.458H413.437V252.912ZM364.666 255.167V256.192H366.709H368.753V255.167V254.142H366.709H364.666V255.167ZM173.807 259.335V260.292H175.851H177.894V259.335V258.379H175.851H173.807V259.335ZM243.693 259.335V260.292H244.715H245.737V259.335V258.379H244.715H243.693V259.335ZM428.286 259.335V260.292H429.307H430.329V259.335V258.379H429.307H428.286V259.335ZM436.868 260.428V262.478H438.912H440.955V261.453V260.428H439.865H438.775V259.404V258.379H437.822H436.868V260.428ZM430.465 263.572V266.715H431.487H432.509V263.572V260.428H431.487H430.465V263.572ZM317.939 263.572V264.528H318.961H319.982V263.572V262.615H318.961H317.939V263.572ZM332.924 264.665V266.715H333.878H334.832V264.665V262.615H333.878H332.924V264.665ZM387.961 267.945V269.038H386.94H385.918V271.088V273.138H388.983H392.048V272.113V271.088H391.027H390.005V268.97V266.851H388.983H387.961V267.945ZM315.896 278.536V279.56H316.849H317.803V278.536V277.511H316.849H315.896V278.536ZM103.648 287.008V288.033H104.67H105.692V287.008V285.983H104.67H103.648V287.008ZM324.342 287.008V288.033H325.364H326.385V287.008V285.983H325.364H324.342V287.008ZM373.249 289.195V290.22H374.202H375.156V289.195V288.17H374.202H373.249V289.195ZM407.17 291.245V292.27H408.124H409.077V291.245V290.22H408.124H407.17V291.245ZM404.99 293.363V294.319H405.944H406.897V293.363V292.406H405.944H404.99V293.363ZM307.313 299.786V302.929H308.335H309.356V299.786V296.643H308.335H307.313V299.786ZM390.141 301.904V302.929H391.095H392.048V301.904V300.879H391.095H390.141V301.904ZM313.716 304.022V304.979H314.738H315.759V304.022V303.066H314.738H313.716V304.022ZM315.896 308.327V309.352H316.849H317.803V308.327V307.302H316.849H315.896V308.327ZM398.587 309.42V311.538H397.566H396.544V313.588V315.638H397.566H398.587V314.613V313.588H399.609H400.631V310.445V307.302H399.609H398.587V309.42ZM424.062 310.445V313.588H425.152H426.242V314.613V315.638H427.196H428.149V313.594V311.55L427.094 311.51L426.038 311.47L426 309.386L425.963 307.302H425.013H424.062V310.445ZM326.521 313.725V315.911H325.432H324.342V316.868V317.825H326.385H328.429V315.706V313.588H329.519H330.608V312.563V311.538H328.565H326.521V313.725ZM413.437 313.588V315.638H414.458H415.48V313.588V311.538H414.458H413.437V313.588ZM311.672 322.198V324.247H312.694H313.716V322.198V320.148H312.694H311.672V322.198ZM326.521 326.297V328.347H327.475H328.429V326.297V324.247H327.475H326.521V326.297ZM396.544 330.67V332.72H397.566H398.587V330.67V328.62H397.566H396.544V330.67ZM434.688 329.645V330.67H435.642H436.596V329.645V328.62H435.642H434.688V329.645ZM419.839 331.695V332.72H422.905H425.97V331.695V330.67H422.905H419.839V331.695ZM362.623 338.187V339.28H361.533H360.443V342.355V345.429H361.396H362.35V344.404V343.38H363.44H364.53V341.193V339.006H365.62H366.709V338.05V337.093H364.666H362.623V338.187ZM80.353 341.33V343.38H81.3748H82.3965V342.355V341.33H83.4182H84.4399V340.305V339.28H82.3965H80.353V341.33ZM426.242 347.616V349.666H427.196H428.149V347.616V345.566H427.196H426.242V347.616ZM390.141 348.709V349.666H391.095H392.048V348.709V347.753H391.095H390.141V348.709ZM351.997 350.896V351.852H352.95H353.904V350.896V349.939H352.95H351.997V350.896ZM354.04 360.462V362.512H355.062H356.083V360.462V358.412H355.062H354.04V360.462ZM334.968 363.673V364.698H335.99H337.011V363.673V362.648H335.99H334.968V363.673ZM379.515 363.673V364.698H378.493H377.472V366.816V368.934H378.425H379.379V367.841V366.748H380.469H381.559V364.698V362.648H380.537H379.515V363.673ZM337.011 372.214V375.357H335.99H334.968V376.382V377.407H335.99H337.011V376.382V375.357H338.033H339.055V372.214V369.071H338.033H337.011V372.214ZM324.342 376.382V379.457H325.364H326.385V376.382V373.307H325.364H324.342V376.382ZM424.062 374.332V375.357H425.016H425.97V374.332V373.307H425.016H424.062V374.332ZM385.918 379.594V381.644H387.961H390.005V379.594V377.544H387.961H385.918V379.594ZM413.437 381.78V383.83H414.458H415.48V381.78V379.73H414.458H413.437V381.78ZM381.559 388.066V390.116H382.58H383.602V388.066V386.017H382.58H381.559V388.066ZM354.04 393.464V394.489H357.173H360.307V393.464V392.44H357.173H354.04V393.464ZM343.55 395.583V396.539H344.504H345.458V395.583V394.626H344.504H343.55V395.583ZM373.249 396.676V398.726H374.202H375.156V396.676V394.626H374.202H373.249V396.676ZM78.3096 397.701V398.726H79.3313H80.353V397.701V396.676H79.3313H78.3096V397.701ZM360.443 397.701V398.726H361.396H362.35V397.701V396.676H361.396H360.443V397.701ZM390.141 402.006V402.962H391.095H392.048V402.006V401.049H391.095H390.141V402.006ZM385.918 408.36V409.385H386.94H387.961V408.36V407.335H386.94H385.918V408.36Z" fill="#FFFF00"/>
</svg>
