<svg width="595" height="595" viewBox="0 0 595 595" fill="none" xmlns="http://www.w3.org/2000/svg">
<g clip-path="url(#clip0_813_4405)">
<path fill-rule="evenodd" clip-rule="evenodd" d="M392.507 122.207V124.414L385.826 124.476L379.146 124.537L379.079 126.806L379.013 129.075H372.398H365.784V131.286V133.496H361.253H356.722V135.707V137.917H350.099H343.477V140.128V142.338H338.945H334.414V144.549V146.76H327.792H321.169V149.086V151.413H314.43H307.691V153.624V155.834H303.276H298.861V158.045V160.256H289.915H280.969V162.466V164.677H274.23H267.491V166.887V169.098H263.076H258.661V171.425V173.752H251.922H245.184V175.962V178.173H238.561H231.938V180.383V182.594H225.2H218.461V184.805V187.015H214.046H209.631V189.226V191.436H202.892H196.153V193.763V196.09H189.531H182.908V198.301V200.511H178.377H173.846V202.722V204.932H167.223H160.601V207.143V209.353H156.069H151.538V211.561V213.769L142.65 213.83L133.762 213.891L133.695 216.16L133.629 218.428H127.015H120.4V220.639V222.85H115.869H111.338V225.06V227.271H104.715H98.0928V229.481V231.692H91.354H84.6152V233.902V236.113H82.4077H80.2002V238.44V240.767H75.7851H71.3701V242.977V245.188H62.4238H53.4775V247.398V249.609H46.7388H40V258.684V267.759H44.5312H49.0625V310.109V352.459H51.27H53.4775V399.462V446.466H55.685H57.8926V459.846V473.225H60.1001H62.3076V475.32V477.414H60.1001H57.8926V479.741V482.068H60.1001H62.3076V484.278V486.489H60.1001H57.8926V488.816V491.143H60.1001H62.3076V493.353V495.564H64.6313H66.955V493.237V490.91H64.7475H62.54V488.699V486.489H64.7475H66.955V484.278V482.068H69.1626H71.3701V484.278V486.489H73.7022H76.0342L75.9678 484.22L75.9013 481.951L73.6357 481.885L71.3701 481.818V479.732V477.647H73.6938H76.0175V475.436V473.225H78.1088H80.2002V475.436V477.647H82.4077H84.6152V479.741V481.835H82.4077H80.2002V484.162V486.489H82.5239H84.8476V484.278V482.068H87.0551H89.2627V479.741V477.414H87.0551H84.8476V475.32V473.225H87.0551H89.2627V408.305V343.384H87.0551H84.8476V325.583V307.782H93.6777H102.508V310.109V312.436H111.454H120.4V314.646V316.857H127.023H133.646V319.067V321.278H142.592H151.538V323.489V325.699H160.484H169.431V327.91V330.12H176.169H182.908V332.447V334.774H191.738H200.568V336.985V339.195H209.515H218.461V341.406V343.616H220.668H222.876V352.459V361.301H220.668H218.461V459.729V558.158H227.407H236.354V560.368V562.579H238.677H241.001V560.368V558.158H243.092H245.184V560.368V562.579H247.507H249.831V564.789V567H252.155H254.478V564.673V562.346H252.155H249.831V560.26V558.174L252.097 558.108L254.362 558.041L254.429 555.773L254.495 553.504H252.163H249.831V551.293V549.083H252.155H254.478V506.617V464.15H256.686H258.894V401.673V339.195H261.101H263.309V336.985V334.774H265.516H267.724V332.447V330.12H272.255H276.786V327.91V325.699H278.994H281.201V323.489V321.278H285.616H290.031V319.067V316.857H292.239H294.446V314.646V312.436H298.978H303.509V310.109V307.782H307.924H312.339V305.571V303.361H314.546H316.754V301.15V298.94H321.285H325.816V296.729V294.518H328.024H330.231V292.308V290.097H334.646H339.062V287.77V285.444H341.385H343.709V283.233V281.022H348.124H352.539V278.812V276.601H354.747H356.954V274.391V272.18H361.485H366.017V269.97V267.759H370.432H374.847V265.432V263.105H377.054H379.262V260.895V258.684H383.793H388.324V256.473V254.263H390.532H392.739V252.052V249.842H397.154H401.569V247.631V245.421H403.777H405.984V243.094V240.767H410.516H415.047V238.556V236.346H417.254H419.462V234.135V231.925H423.877H428.292V229.714V227.503H432.823H437.354V225.293V223.082H439.562H441.77V220.755V218.428H446.185H450.6V216.218V214.007H452.923H455.247V211.797V209.586H459.662H464.077V207.376V205.165H466.285H468.492V202.96V200.754L472.965 200.691L477.438 200.628L477.505 198.359L477.571 196.09H479.771H481.97V193.879V191.669H486.385H490.8V189.458V187.248H495.331H499.862V185.037V182.827H501.954H504.045V191.669V200.511H501.837H499.63V220.639V240.767H497.422H495.215V254.271V267.776L497.48 267.709L499.746 267.643L499.813 265.374L499.879 263.105H501.962H504.045V265.432V267.759H506.252H508.46V269.97V272.18H510.784H513.107V269.853V267.526H510.9H508.692V265.316V263.105H513.107H517.522V243.102V223.099L519.788 223.032L522.054 222.966L522.113 198.359L522.172 173.752H524.379H526.585V162.583V151.413H528.792H531V144.665V137.917H528.792H526.585V135.707V133.496H510.9H495.215V131.286V129.075H479.646H464.077V126.748V124.421H450.716H437.354V122.211V120H414.931H392.507V122.207ZM93.6777 242.977V245.188H95.8852H98.0928V242.977V240.767H95.8852H93.6777V242.977ZM80.4326 247.515V249.609H87.0551H93.6777V247.515V245.421H87.0551H80.4326V247.515ZM111.57 247.515V249.609H113.778H115.985V247.515V245.421H113.778H111.57V247.515ZM249.831 247.515V249.609H252.039H254.246V247.515V245.421H252.039H249.831V247.515ZM58.1249 251.936V254.03H60.2163H62.3076V251.936V249.842H60.2163H58.1249V251.936ZM151.77 251.936V254.03H153.862H155.953V251.936V249.842H153.862H151.77V251.936ZM71.3701 256.357V258.451H77.9927H84.6152V256.357V254.263H77.9927H71.3701V256.357ZM102.74 256.473V258.684H100.533H98.3251V260.895V263.105H100.533H102.74V265.316V267.526H104.832H106.923V260.895V254.263H104.832H102.74V256.473ZM165.248 256.357V258.451H167.339H169.431V256.357V254.263H167.339H165.248V256.357ZM174.078 256.357V258.451H176.169H178.261V256.357V254.263H176.169H174.078V256.357ZM218.693 256.357V258.451H223.108H227.523V256.357V254.263H223.108H218.693V256.357ZM245.416 256.357V258.451H247.624H249.831V256.357V254.263H247.624H245.416V256.357ZM178.493 260.895V263.105H180.701H182.908V260.895V258.684H180.701H178.493V260.895ZM209.863 260.895V263.105H211.955H214.046V260.895V258.684H211.955H209.863V260.895ZM120.633 265.316V267.526H122.724H124.815V265.316V263.105H122.724H120.633V265.316ZM151.77 265.432V267.759H145.032H138.293V272.064V276.369H149.447H160.601V274.158V271.947H162.808H165.016V269.858V267.769L160.542 267.706L156.069 267.643L156.003 265.374L155.936 263.105H153.853H151.77V265.432ZM178.493 269.97V272.18H176.286H174.078V274.391V276.601H171.871H169.663V278.695V280.79H174.078H178.493V283.117V285.444H180.701H182.908V283.117V280.79H185.116H187.323V278.695V276.601H185.116H182.908V272.18V267.759H180.701H178.493V269.97ZM187.556 269.853V271.947H194.062H200.568V269.853V267.759H194.062H187.556V269.853ZM205.216 274.274V276.369H207.423H209.631V274.274V272.18H207.423H205.216V274.274ZM232.171 274.274V276.369H236.47H240.769V274.274V272.18H236.47H232.171V274.274ZM258.894 278.812V285.444H260.985H263.076V283.117V280.79H265.284H267.491V278.695V276.601H265.284H263.076V274.391V272.18H260.985H258.894V278.812ZM214.278 278.812V281.022H212.071H209.863V283.233V285.444H214.278H218.693V287.654V289.865H220.785H222.876V283.233V276.601H218.577H214.278V278.812ZM272.139 283.233V285.444H274.346H276.554V283.233V281.022H274.346H272.139V283.233ZM187.556 287.654V289.865H191.854H196.153V287.654V285.444H191.854H187.556V287.654ZM232.171 287.654V289.865H234.262H236.354V287.654V285.444H234.262H232.171V287.654ZM245.416 287.654V289.865H252.039H258.661V287.654V285.444H252.039H245.416V287.654ZM227.523 292.192V294.286H229.731H231.938V292.192V290.097H229.731H227.523V292.192ZM258.894 292.192V294.286H260.985H263.076V292.192V290.097H260.985H258.894V292.192ZM241.001 296.613V298.707H243.092H245.184V296.613V294.518H243.092H241.001V296.613ZM62.54 461.94V464.15H64.6313H66.7227V461.94V459.729H64.6313H62.54V461.94ZM71.3701 461.94V464.15H69.1626H66.955V466.361V468.572H69.1626H71.3701V466.361V464.15H73.5776H75.7851V461.94V459.729H73.5776H71.3701V461.94ZM80.4326 461.94V464.15H82.5239H84.6152V461.94V459.729H82.5239H80.4326V461.94ZM62.54 470.898V472.993H64.6313H66.7227V470.898V468.804H64.6313H62.54V470.898ZM71.3701 470.898V472.993H73.5776H75.7851V470.898V468.804H73.5776H71.3701V470.898ZM80.4326 470.898V472.993H82.5239H84.6152V470.898V468.804H82.5239H80.4326V470.898ZM66.955 475.32V477.414H69.1626H71.3701V475.32V473.225H69.1626H66.955V475.32ZM62.54 479.741V481.835H64.6313H66.7227V479.741V477.647H64.6313H62.54V479.741ZM80.2002 493.237V495.564H82.5239H84.8476V493.237V490.91H82.5239H80.2002V493.237ZM89.0303 493.237V495.564H91.354H93.6777V493.237V490.91H91.354H89.0303V493.237ZM89.08 511.096L89.1465 513.365L91.4121 513.431L93.6777 513.498V511.162V508.827H91.3456H89.0136L89.08 511.096ZM89.0303 519.996V522.323H91.354H93.6777V519.996V517.669H91.354H89.0303V519.996ZM62.3076 528.839V531.166H64.6313H66.955V528.839V526.512H64.6313H62.3076V528.839ZM80.2002 528.839V531.166H82.5239H84.8476V528.839V526.512H82.5239H80.2002V528.839ZM80.2002 537.914V540.24H82.5239H84.8476V537.914V535.587H82.5239H80.2002V537.914ZM89.0303 546.756V549.083H91.354H93.6777V546.756V544.429H91.354H89.0303V546.756ZM223.108 551.293V553.504H225.316H227.523V551.293V549.083H225.316H223.108V551.293ZM232.171 551.293V553.504H234.262H236.354V551.293V549.083H234.262H232.171V551.293ZM241.001 551.293V553.504H243.092H245.184V551.293V549.083H243.092H241.001V551.293ZM236.586 555.714V557.925H238.677H240.769V555.714V553.504H238.677H236.586V555.714Z" fill="#FFFF00"/>
</g>
<defs>
<clipPath id="clip0_813_4405">
<rect width="595" height="595" fill="white"/>
</clipPath>
</defs>
</svg>
