<svg width="320" height="320" viewBox="0 0 320 320" fill="none" xmlns="http://www.w3.org/2000/svg">
<rect width="319.694" height="319.694" transform="translate(0.305664)" fill="white"/>
<path d="M79.0071 34.5368C79.0071 30.9906 79.9035 28.2817 81.6963 26.4101C83.5088 24.5188 85.9024 23.5732 88.8773 23.5732C90.9262 23.5732 92.7387 24.0559 94.3148 25.0212C95.6742 25.8093 96.7479 27.0012 97.5359 28.597C98.324 30.173 98.7278 32.153 98.7475 34.5368C98.7475 35.975 98.5801 37.3147 98.2452 38.5558C97.6147 40.723 96.61 42.3384 95.2309 43.4023C93.9897 44.348 92.6993 44.9488 91.3596 45.205C90.5125 45.402 89.685 45.5005 88.8773 45.5005C88.4242 45.5005 88.0893 45.4906 87.8725 45.4709C86.789 45.4118 85.6365 45.1261 84.415 44.6139C82.7995 43.8456 81.5584 42.7916 80.6915 41.4519C79.5685 39.6591 79.0071 37.3541 79.0071 34.5368ZM81.9622 34.5368C81.9622 36.1523 82.2085 37.6397 82.701 38.9991C83.7058 41.777 85.7645 43.1659 88.8773 43.1659C89.2516 43.1659 89.5274 43.156 89.7047 43.1363C90.5519 43.0969 91.3793 42.8507 92.1871 42.3975C94.5906 41.1367 95.7924 38.5164 95.7924 34.5368C95.7924 31.956 95.2112 29.8775 94.0488 28.3014C92.9062 26.7057 91.1823 25.9078 88.8773 25.9078C87.7346 25.9078 86.7102 26.1343 85.8039 26.5875C84.8977 27.0406 84.1884 27.6119 83.6762 28.3014C83.2034 28.9516 82.8389 29.7002 82.5828 30.5474C82.1691 31.8279 81.9622 33.1578 81.9622 34.5368ZM102.2 50.3469V29.8677H104.623V31.9363H104.711C105.893 30.1632 107.548 29.2766 109.676 29.2766C111.626 29.2766 113.242 29.9563 114.523 31.3157C115.803 32.6948 116.443 34.7141 116.443 37.3738C116.443 40.0925 115.793 42.1217 114.493 43.4614C113.212 44.8011 111.626 45.4709 109.735 45.4709C109.144 45.4709 108.425 45.3429 107.578 45.0867C106.337 44.7124 105.411 43.9244 104.8 42.7226V50.3469H102.2ZM104.623 37.4329C104.623 39.5212 105.096 41.0874 106.041 42.1316C107.026 43.1363 108.1 43.6387 109.262 43.6387C110.484 43.6387 111.528 43.1462 112.395 42.1611C113.262 41.1367 113.695 39.5409 113.695 37.3738C113.695 35.4037 113.291 33.867 112.483 32.7637C111.695 31.6605 110.572 31.1088 109.115 31.1088C108.346 31.1088 107.627 31.3157 106.957 31.7294C105.401 32.6554 104.623 34.5565 104.623 37.4329ZM121.812 34.3004H119.33C119.33 33.1184 119.724 32.0348 120.512 31.0497C121.458 29.8677 123.191 29.2766 125.713 29.2766C127.191 29.2766 128.491 29.5722 129.614 30.1632C130.264 30.4784 130.776 31.0005 131.151 31.7294C131.525 32.4584 131.702 33.3252 131.683 34.33L131.535 41.2746C131.535 41.8459 131.594 42.2892 131.712 42.6044C131.889 42.9196 132.352 43.0674 133.101 43.0477V44.8799C132.806 44.9587 132.411 44.9981 131.919 44.9981C131.052 44.9981 130.422 44.8503 130.028 44.5548C129.653 44.2593 129.387 43.6781 129.23 42.8113C128.264 44.5844 126.55 45.4709 124.088 45.4709C122.393 45.4709 121.083 45.0966 120.157 44.348C119.251 43.5796 118.798 42.4468 118.798 40.9495C118.798 39.531 119.31 38.4573 120.335 37.7284C121.359 36.9601 123.3 36.4478 126.156 36.1917C127.476 36.0932 128.264 35.9652 128.521 35.8075C128.895 35.5514 129.082 34.99 129.082 34.1231C129.082 32.1136 127.959 31.1088 125.713 31.1088C123.053 31.1088 121.753 32.1727 121.812 34.3004ZM129.023 38.4672L129.082 37.1965C128.786 37.4132 128.353 37.5905 127.782 37.7284C126.915 37.7875 126.245 37.8565 125.772 37.9353C124.137 38.2111 123.142 38.4376 122.788 38.6149C121.921 39.0287 121.487 39.7773 121.487 40.8609C121.487 41.7277 121.743 42.4074 122.256 42.8999C122.788 43.3925 123.497 43.6387 124.383 43.6387C124.955 43.6387 125.477 43.5599 125.95 43.4023C126.442 43.2447 126.915 42.9886 127.368 42.634C127.841 42.2596 128.215 41.7179 128.491 41.0086C128.786 40.2994 128.964 39.4522 129.023 38.4672ZM137.171 32.1431V24.1938H140.097V32.1431L139.358 38.94H137.91L137.171 32.1431ZM140.097 44.8799H137.171V41.6588H140.097V44.8799ZM152.625 44.8799V24.1938H161.697C162.88 24.1938 163.894 24.3514 164.741 24.6666C165.588 24.9621 166.229 25.3857 166.662 25.9373C167.096 26.4692 167.401 27.0209 167.578 27.5922C167.775 28.1635 167.874 28.7841 167.874 29.454C167.874 30.5572 167.539 31.5324 166.869 32.3796C166.219 33.2267 165.401 33.7291 164.416 33.8867V33.9753C164.909 34.0542 165.382 34.1921 165.835 34.3891C166.288 34.5861 166.741 34.8717 167.194 35.2461C167.667 35.6204 168.041 36.1425 168.317 36.8123C168.613 37.4821 168.76 38.2505 168.76 39.1173C168.76 42.959 166.298 44.8799 161.372 44.8799H152.625ZM161.077 26.5283H155.403V32.9706H160.988C162.348 32.9706 163.362 32.6849 164.032 32.1136C164.702 31.5226 165.037 30.7345 165.037 29.7495C165.037 29.3949 164.988 29.0599 164.889 28.7447C164.791 28.4098 164.613 28.065 164.357 27.7104C164.101 27.3558 163.687 27.0701 163.116 26.8534C162.564 26.6367 161.885 26.5283 161.077 26.5283ZM161.166 35.3052H155.403V42.5453H161.166C162.072 42.5453 162.899 42.437 163.648 42.2202C165.165 41.7671 165.923 40.654 165.923 38.8809C165.923 36.4971 164.337 35.3052 161.166 35.3052ZM172.143 40.3289C171.63 38.2209 171.65 36.1819 172.202 34.2118C172.753 32.2417 173.916 30.833 175.689 29.9859C176.674 29.5131 177.826 29.2766 179.146 29.2766C180.466 29.2766 181.619 29.5131 182.604 29.9859C184.377 30.8133 185.549 32.2909 186.12 34.4186C186.377 35.4037 186.505 36.3986 186.505 37.4033C186.524 38.3884 186.406 39.3636 186.15 40.3289C185.914 41.2746 185.49 42.1414 184.879 42.9295C184.288 43.7175 183.53 44.3381 182.604 44.7912C181.599 45.2444 180.447 45.4709 179.146 45.4709C177.846 45.4709 176.694 45.2444 175.689 44.7912C173.975 43.9638 172.793 42.4764 172.143 40.3289ZM174.891 34.3891C174.635 35.1771 174.507 36.1622 174.507 37.3442C174.507 38.5066 174.635 39.5015 174.891 40.3289C175.147 41.1564 175.443 41.777 175.777 42.1907C176.487 42.9787 177.294 43.4417 178.201 43.5796C178.831 43.6781 179.462 43.6781 180.092 43.5796C180.368 43.5599 180.752 43.422 181.244 43.1659C181.776 42.8901 182.21 42.5453 182.545 42.1316C182.88 41.7179 183.165 41.117 183.402 40.3289C183.658 39.5015 183.786 38.5066 183.786 37.3442C183.786 36.1622 183.658 35.1771 183.402 34.3891C183.126 33.5222 182.821 32.9016 182.486 32.5273C182.17 32.153 181.776 31.8378 181.304 31.5817C180.831 31.3256 180.427 31.1679 180.092 31.1088C179.462 31.0103 178.831 31.0103 178.201 31.1088C177.925 31.1285 177.531 31.2763 177.019 31.5521C176.014 32.0446 175.305 32.9903 174.891 34.3891ZM189.931 50.3469V29.8677H192.354V31.9363H192.443C193.625 30.1632 195.28 29.2766 197.407 29.2766C199.358 29.2766 200.973 29.9563 202.254 31.3157C203.534 32.6948 204.175 34.7141 204.175 37.3738C204.175 40.0925 203.525 42.1217 202.224 43.4614C200.944 44.8011 199.358 45.4709 197.466 45.4709C196.875 45.4709 196.156 45.3429 195.309 45.0867C194.068 44.7124 193.142 43.9244 192.531 42.7226V50.3469H189.931ZM192.354 37.4329C192.354 39.5212 192.827 41.0874 193.772 42.1316C194.758 43.1363 195.831 43.6387 196.994 43.6387C198.215 43.6387 199.259 43.1462 200.126 42.1611C200.993 41.1367 201.426 39.5409 201.426 37.3738C201.426 35.4037 201.022 33.867 200.215 32.7637C199.427 31.6605 198.304 31.1088 196.846 31.1088C196.078 31.1088 195.358 31.3157 194.689 31.7294C193.132 32.6554 192.354 34.5565 192.354 37.4329ZM210.164 29.8677V36.4281L216.577 29.8677H219.621L212.587 36.8419L220.005 44.8799H216.902L210.164 37.3738V44.8799H207.564V29.8677H210.164ZM224.623 29.8677V43.0477H230.887V29.8677H233.488V43.0477H239.753V29.8677H242.353V44.8799H222.022V29.8677H224.623ZM246.137 40.3289C245.625 38.2209 245.644 36.1819 246.196 34.2118C246.748 32.2417 247.91 30.833 249.683 29.9859C250.668 29.5131 251.821 29.2766 253.141 29.2766C254.461 29.2766 255.613 29.5131 256.598 29.9859C258.371 30.8133 259.544 32.2909 260.115 34.4186C260.371 35.4037 260.499 36.3986 260.499 37.4033C260.519 38.3884 260.401 39.3636 260.144 40.3289C259.908 41.2746 259.484 42.1414 258.874 42.9295C258.283 43.7175 257.524 44.3381 256.598 44.7912C255.593 45.2444 254.441 45.4709 253.141 45.4709C251.84 45.4709 250.688 45.2444 249.683 44.7912C247.969 43.9638 246.787 42.4764 246.137 40.3289ZM248.885 34.3891C248.629 35.1771 248.501 36.1622 248.501 37.3442C248.501 38.5066 248.629 39.5015 248.885 40.3289C249.141 41.1564 249.437 41.777 249.772 42.1907C250.481 42.9787 251.289 43.4417 252.195 43.5796C252.825 43.6781 253.456 43.6781 254.086 43.5796C254.362 43.5599 254.746 43.422 255.239 43.1659C255.771 42.8901 256.204 42.5453 256.539 42.1316C256.874 41.7179 257.16 41.117 257.396 40.3289C257.652 39.5015 257.78 38.5066 257.78 37.3442C257.78 36.1622 257.652 35.1771 257.396 34.3891C257.12 33.5222 256.815 32.9016 256.48 32.5273C256.165 32.153 255.771 31.8378 255.298 31.5817C254.825 31.3256 254.421 31.1679 254.086 31.1088C253.456 31.0103 252.825 31.0103 252.195 31.1088C251.919 31.1285 251.525 31.2763 251.013 31.5521C250.008 32.0446 249.299 32.9903 248.885 34.3891ZM274.12 31.6999H266.526V44.8799H263.925V29.8677H276.721V44.8799H274.12V31.6999ZM77.9137 78.7807L77.6772 73.0477H79.5685C81.2037 70.6442 82.0213 67.0881 82.0213 62.3796V59.8677H92.7781V73.0477H95.3786L95.1718 78.7807H92.985V74.8799H80.1005V78.7807H77.9137ZM90.1776 73.0477V61.6999H84.4446V63.798C84.4446 65.3938 84.2673 67.0487 83.9126 68.7627C83.5974 70.457 83.0655 71.8853 82.3168 73.0477H90.1776ZM96.6177 74.8799V72.959C98.0953 73.3925 99.1395 72.6931 99.7502 70.8609C99.9078 70.4077 100.016 69.8463 100.075 69.1764L100.193 67.3738C100.213 67.0586 100.223 66.438 100.223 65.512V59.8677H110.625V74.8799H108.025V61.6999H102.646V65.512C102.646 66.7532 102.617 67.7974 102.558 68.6445C102.499 69.4719 102.351 70.3782 102.114 71.3632C101.779 72.762 101.179 73.7569 100.312 74.348C99.4448 74.939 98.2135 75.1163 96.6177 74.8799ZM124.059 68.9696H120.631L116.701 74.8799H113.834L117.972 68.94C116.829 68.8218 115.903 68.3785 115.194 67.6102C114.484 66.8419 114.13 65.8371 114.13 64.5959C114.13 63.4336 114.435 62.419 115.046 61.5521C115.775 60.4292 117.154 59.8677 119.183 59.8677H126.66V74.8799H124.059V68.9696ZM124.059 67.1374V61.6999H120.306C117.981 61.6999 116.819 62.6357 116.819 64.5073C116.819 65.2756 117.105 65.9061 117.676 66.3986C118.247 66.8911 119.154 67.1374 120.395 67.1374H124.059ZM135.92 78.7807L135.684 73.0477H137.575C139.21 70.6442 140.028 67.0881 140.028 62.3796V59.8677H150.785V73.0477H153.385L153.178 78.7807H150.991V74.8799H138.107V78.7807H135.92ZM148.184 73.0477V61.6999H142.451V63.798C142.451 65.3938 142.274 67.0487 141.919 68.7627C141.604 70.457 141.072 71.8853 140.323 73.0477H148.184ZM158.218 59.8677V71.8361L166.049 59.8677H168.945V74.8799H166.345V62.8819L158.543 74.8799H155.617V59.8677H158.218ZM172.011 70.2698H174.493C174.493 71.2549 174.847 72.0626 175.557 72.6931C176.266 73.3235 177.241 73.6387 178.482 73.6387C179.704 73.6387 180.659 73.3925 181.349 72.8999C182.038 72.3877 182.383 71.6489 182.383 70.6836C182.383 68.8908 181.25 67.9944 178.985 67.9944H176.768V66.1622H178.689C180.777 66.1622 181.822 65.384 181.822 63.8276C181.822 63.5715 181.782 63.3154 181.703 63.0592C181.644 62.8031 181.506 62.5175 181.29 62.2023C181.093 61.8673 180.748 61.6014 180.255 61.4044C179.763 61.2073 179.152 61.1088 178.423 61.1088C177.123 61.1088 176.207 61.4142 175.675 62.0249C175.143 62.6357 174.877 63.2957 174.877 64.0049H172.395C172.454 62.9804 172.72 62.1234 173.193 61.4339C173.665 60.7444 174.276 60.2518 175.025 59.9563C176.246 59.5032 177.428 59.2766 178.571 59.2766C179.576 59.2766 180.462 59.3949 181.231 59.6313C181.999 59.848 182.58 60.1139 182.974 60.4292C183.388 60.7444 183.713 61.1187 183.949 61.5521C184.205 61.9855 184.363 62.3697 184.422 62.7046C184.481 63.0198 184.511 63.3351 184.511 63.6503C184.511 65.4037 183.644 66.4971 181.91 66.9305V67.0192C182.836 67.1571 183.595 67.5609 184.186 68.2308C184.777 68.9006 185.072 69.7773 185.072 70.8609C185.072 71.9641 184.678 72.9689 183.89 73.8751C182.925 74.939 181.191 75.4709 178.689 75.4709C176.581 75.4709 174.976 75.0276 173.872 74.1411C172.631 73.0575 172.011 71.7671 172.011 70.2698ZM190.439 64.3004H187.957C187.957 63.1184 188.351 62.0348 189.139 61.0497C190.084 59.8677 191.818 59.2766 194.34 59.2766C195.817 59.2766 197.118 59.5722 198.241 60.1632C198.891 60.4784 199.403 61.0005 199.777 61.7294C200.152 62.4584 200.329 63.3252 200.309 64.33L200.161 71.2746C200.161 71.8459 200.221 72.2892 200.339 72.6044C200.516 72.9196 200.979 73.0674 201.728 73.0477V74.8799C201.432 74.9587 201.038 74.9981 200.546 74.9981C199.679 74.9981 199.048 74.8503 198.654 74.5548C198.28 74.2593 198.014 73.6781 197.856 72.8113C196.891 74.5844 195.177 75.4709 192.714 75.4709C191.02 75.4709 189.71 75.0966 188.784 74.348C187.878 73.5796 187.425 72.4468 187.425 70.9495C187.425 69.531 187.937 68.4573 188.961 67.7284C189.986 66.9601 191.926 66.4478 194.783 66.1917C196.103 66.0932 196.891 65.9652 197.147 65.8075C197.521 65.5514 197.709 64.99 197.709 64.1231C197.709 62.1136 196.586 61.1088 194.34 61.1088C191.68 61.1088 190.38 62.1727 190.439 64.3004ZM197.65 68.4672L197.709 67.1965C197.413 67.4132 196.98 67.5905 196.408 67.7284C195.542 67.7875 194.872 67.8565 194.399 67.9353C192.764 68.2111 191.769 68.4376 191.414 68.6149C190.547 69.0287 190.114 69.7773 190.114 70.8609C190.114 71.7277 190.37 72.4074 190.882 72.8999C191.414 73.3925 192.123 73.6387 193.01 73.6387C193.581 73.6387 194.103 73.5599 194.576 73.4023C195.069 73.2447 195.542 72.9886 195.995 72.634C196.467 72.2596 196.842 71.7179 197.118 71.0086C197.413 70.2994 197.59 69.4522 197.65 68.4672ZM207.394 59.8677V71.8361L215.225 59.8677H218.121V74.8799H215.52V62.8819L207.719 74.8799H204.793V59.8677H207.394ZM214.25 54.1938H216.466C216.052 56.3609 214.752 57.6316 212.565 58.0059C212.191 58.065 211.797 58.0946 211.383 58.0946C208.842 58.0946 207.216 57.0603 206.507 54.9917C206.448 54.8538 206.379 54.5878 206.3 54.1938H208.517C208.458 54.706 208.635 55.1887 209.049 55.6418C209.344 55.957 209.689 56.1934 210.083 56.351C210.438 56.4692 210.871 56.5283 211.383 56.5283C212.23 56.5283 212.93 56.3215 213.481 55.9078C214.033 55.4743 214.289 54.903 214.25 54.1938ZM232.386 67.8762H224.969V74.8799H222.368V59.8677H224.969V66.044H232.386V59.8677H234.987V74.8799H232.386V67.8762ZM250.067 70.5358H252.549C252.313 71.8558 251.672 73.0083 250.628 73.9933C249.584 74.9784 248.037 75.4709 245.989 75.4709C243.211 75.4709 241.172 74.5548 239.871 72.7226C239.221 71.7573 238.798 70.723 238.601 69.6197C238.463 68.8514 238.394 68.1224 238.394 67.4329C238.394 66.1129 238.591 64.8717 238.985 63.7094C239.241 62.8819 239.615 62.1628 240.108 61.5521C240.64 60.902 241.398 60.3602 242.383 59.9268C243.368 59.4934 244.481 59.2766 245.723 59.2766C247.929 59.2766 249.594 59.8874 250.717 61.1088C251.19 61.6211 251.574 62.2712 251.869 63.0592C252.303 64.2019 252.569 65.5908 252.667 67.226C252.667 67.2851 252.667 67.4132 252.667 67.6102C252.687 67.8072 252.697 67.9254 252.697 67.9648H241.142C241.142 69.4621 241.536 70.7821 242.324 71.9247C243.112 73.0674 244.304 73.6387 245.9 73.6387C247.043 73.6387 247.978 73.3531 248.707 72.7817C249.436 72.2104 249.889 71.4617 250.067 70.5358ZM241.142 66.1326H249.948C249.929 64.9703 249.653 63.8965 249.121 62.9115C248.51 61.7097 247.397 61.1088 245.782 61.1088C243.949 61.1088 242.689 61.7196 241.999 62.941C241.428 63.9261 241.142 64.99 241.142 66.1326ZM256.104 80.3469V59.8677H258.528V61.9363H258.616C259.798 60.1632 261.453 59.2766 263.581 59.2766C265.531 59.2766 267.147 59.9563 268.427 61.3157C269.708 62.6948 270.348 64.7141 270.348 67.3738C270.348 70.0925 269.698 72.1217 268.398 73.4614C267.117 74.8011 265.531 75.4709 263.64 75.4709C263.049 75.4709 262.33 75.3429 261.483 75.0867C260.242 74.7124 259.316 73.9244 258.705 72.7226V80.3469H256.104ZM258.528 67.4329C258.528 69.5212 259 71.0874 259.946 72.1316C260.931 73.1363 262.005 73.6387 263.167 73.6387C264.389 73.6387 265.433 73.1462 266.3 72.1611C267.167 71.1367 267.6 69.5409 267.6 67.3738C267.6 65.4037 267.196 63.867 266.388 62.7637C265.6 61.6605 264.477 61.1088 263.019 61.1088C262.251 61.1088 261.532 61.3157 260.862 61.7294C259.306 62.6554 258.528 64.5565 258.528 67.4329ZM273.264 70.3289C272.752 68.2209 272.772 66.1819 273.324 64.2118C273.875 62.2417 275.038 60.833 276.811 59.9859C277.796 59.5131 278.948 59.2766 280.268 59.2766C281.588 59.2766 282.741 59.5131 283.726 59.9859C285.499 60.8133 286.671 62.2909 287.242 64.4186C287.498 65.4037 287.626 66.3986 287.626 67.4033C287.646 68.3884 287.528 69.3636 287.272 70.3289C287.035 71.2746 286.612 72.1414 286.001 72.9295C285.41 73.7175 284.652 74.3381 283.726 74.7912C282.721 75.2444 281.568 75.4709 280.268 75.4709C278.968 75.4709 277.815 75.2444 276.811 74.7912C275.097 73.9638 273.915 72.4764 273.264 70.3289ZM276.013 64.3891C275.757 65.1771 275.629 66.1622 275.629 67.3442C275.629 68.5066 275.757 69.5015 276.013 70.3289C276.269 71.1564 276.564 71.777 276.899 72.1907C277.608 72.9787 278.416 73.4417 279.322 73.5796C279.953 73.6781 280.583 73.6781 281.214 73.5796C281.49 73.5599 281.874 73.422 282.366 73.1659C282.898 72.8901 283.332 72.5453 283.667 72.1316C284.001 71.7179 284.287 71.117 284.524 70.3289C284.78 69.5015 284.908 68.5066 284.908 67.3442C284.908 66.1622 284.78 65.1771 284.524 64.3891C284.248 63.5222 283.942 62.9016 283.607 62.5273C283.292 62.153 282.898 61.8378 282.425 61.5817C281.953 61.3256 281.549 61.1679 281.214 61.1088C280.583 61.0103 279.953 61.0103 279.322 61.1088C279.047 61.1285 278.653 61.2763 278.14 61.5521C277.136 62.0446 276.426 62.9903 276.013 64.3891ZM291.053 74.8799V59.8677H298.204C301.376 59.8677 302.962 61.0596 302.962 63.4434C302.962 65.1574 302.056 66.3296 300.243 66.9601V67.0487C301.465 67.3442 302.312 67.8171 302.785 68.4672C303.277 69.1173 303.523 69.9546 303.523 70.9791C303.523 72.6143 302.923 73.6978 301.721 74.2297C300.736 74.6632 299.534 74.8799 298.115 74.8799H291.053ZM297.377 61.6999H293.653V66.1326H297.258C298.303 66.1326 299.071 65.9258 299.563 65.512C300.076 65.0786 300.332 64.5171 300.332 63.8276C300.332 62.4091 299.347 61.6999 297.377 61.6999ZM297.377 67.9648H293.653V73.0477H297.465C299.711 73.0477 300.834 72.2793 300.834 70.7427C300.834 68.8908 299.682 67.9648 297.377 67.9648Z" fill="black"/>
<path d="M15.4577 113.27H18.1173L18.206 113.95C18.6197 116.629 20.0579 117.969 22.5205 117.969C24.0966 117.969 25.2688 117.585 26.0372 116.817C26.8252 116.029 27.2192 114.955 27.2192 113.596C27.2192 112.453 26.8745 111.547 26.1849 110.877C25.5151 110.207 24.599 109.872 23.4366 109.872H21.3089V107.626H22.1364C22.7865 107.626 23.4366 107.547 24.0868 107.39C25.8008 106.917 26.6578 105.804 26.6578 104.05C26.6578 102.987 26.3228 102.13 25.653 101.479C25.0029 100.81 23.9784 100.475 22.5796 100.475C19.9003 100.475 18.5606 102.041 18.5606 105.173H15.9896C15.9896 104.05 16.1669 102.987 16.5216 101.982C17.3096 99.5782 19.3585 98.3371 22.6683 98.2582C24.8354 98.2582 26.4312 98.7705 27.4556 99.7949C28.6377 100.878 29.2287 102.258 29.2287 103.932C29.2287 105.055 28.9135 106.03 28.2831 106.858C27.6724 107.685 26.8548 108.237 25.8303 108.513V108.572C26.9927 108.749 27.9482 109.301 28.6968 110.227C29.4454 111.153 29.8198 112.345 29.8198 113.802C29.8198 115.792 29.1598 117.358 27.8398 118.501C26.5198 119.624 24.8059 120.186 22.6978 120.186C20.4913 120.186 18.7773 119.644 17.5559 118.56C16.1571 117.142 15.4577 115.378 15.4577 113.27ZM37.2751 104.021H32.5468V102.573H33.1674C34.4677 102.573 35.5709 102.238 36.4772 101.568C37.4031 100.878 37.9449 99.9821 38.1025 98.8788H40.0529V119.565H37.2751V104.021ZM50.9242 119.565H47.9986V116.344H50.9242V119.565ZM63.9726 120.067C63.0861 120.225 62.17 120.225 61.2243 120.067C60.7909 120.008 60.19 119.772 59.4217 119.358C58.6139 118.925 57.9441 118.343 57.4122 117.615C56.8802 116.886 56.4074 115.822 55.9937 114.423C55.58 112.945 55.3731 111.212 55.3731 109.222C55.3731 107.212 55.58 105.489 55.9937 104.05C56.4468 102.553 56.9295 101.46 57.4417 100.77C57.9343 100.12 58.5548 99.5782 59.3035 99.1448C60.0718 98.7114 60.7121 98.4553 61.2243 98.3765C62.17 98.2188 63.0861 98.2188 63.9726 98.3765C64.4258 98.4356 65.0365 98.672 65.8048 99.0857C66.6323 99.5191 67.3021 100.1 67.8143 100.829C68.3463 101.558 68.8092 102.632 69.2033 104.05C69.6367 105.469 69.8534 107.193 69.8534 109.222C69.8534 111.251 69.6367 112.985 69.2033 114.423C68.7698 115.901 68.2872 116.984 67.7552 117.674C67.2233 118.383 66.5732 118.944 65.8048 119.358C65.0365 119.772 64.4258 120.008 63.9726 120.067ZM59.1853 115.457C59.9339 117.053 61.0766 117.851 62.6133 117.851C64.1696 117.851 65.3025 117.053 66.0117 115.457C66.7406 113.881 67.1051 111.803 67.1051 109.222C67.1051 106.641 66.7406 104.563 66.0117 102.987C65.3025 101.391 64.1696 100.593 62.6133 100.593C61.0766 100.593 59.9339 101.391 59.1853 102.987C58.476 104.582 58.1214 106.661 58.1214 109.222C58.1214 111.783 58.476 113.861 59.1853 115.457ZM72.5449 114.275H75.2636C75.3621 115.201 75.7463 116.048 76.4162 116.817C77.086 117.585 78.1203 117.969 79.5191 117.969C82.7303 117.969 84.336 116.265 84.336 112.857C84.336 111.162 83.8927 109.931 83.0062 109.163C82.159 108.375 81.0853 107.981 79.785 107.981C79.0561 107.981 78.2779 108.148 77.4505 108.483C76.6033 108.818 76.032 109.251 75.7365 109.783H73.1359L74.584 98.8788H85.7545V101.213H76.623L75.7956 107.331C76.9973 106.286 78.5537 105.764 80.4647 105.764C82.3954 105.764 83.9518 106.405 85.1339 107.685C86.3356 108.946 86.9365 110.66 86.9365 112.827C86.9365 115.073 86.2962 116.866 85.0157 118.206C83.7351 119.526 81.9029 120.186 79.5191 120.186C76.9776 120.186 75.175 119.486 74.1111 118.087C73.1852 116.886 72.6631 115.615 72.5449 114.275ZM94.3858 119.565H91.4602V116.344H94.3858V119.565ZM102.263 117.23H113.197V119.565H99.1893C99.0711 117.516 99.7213 115.644 101.14 113.95C101.435 113.576 101.928 113.123 102.617 112.591C103.425 111.96 103.967 111.556 104.243 111.379L106.193 110.138L106.784 109.783L107.434 109.34L107.966 108.956C108.34 108.7 108.577 108.522 108.675 108.424C109.286 107.734 109.631 107.321 109.71 107.183C110.183 106.158 110.419 105.282 110.419 104.553C110.419 103.292 110.045 102.317 109.296 101.627C108.567 100.938 107.552 100.593 106.252 100.593C104.932 100.593 103.888 100.967 103.12 101.716C102.351 102.464 101.967 103.459 101.967 104.7V105.469H99.2484V104.848C99.2484 103.784 99.475 102.75 99.9281 101.745C100.893 99.4797 103.031 98.3173 106.341 98.2582C108.469 98.2582 110.153 98.8197 111.394 99.9427C112.635 101.046 113.256 102.573 113.256 104.523C113.354 106.139 112.852 107.606 111.749 108.926C111.512 109.222 111.069 109.616 110.419 110.108C109.848 110.542 109.306 110.936 108.794 111.29C108.439 111.527 107.71 112 106.607 112.709C105.208 113.596 104.184 114.384 103.533 115.073C102.883 115.743 102.46 116.462 102.263 117.23ZM124.576 120.067C123.69 120.225 122.774 120.225 121.828 120.067C121.395 120.008 120.794 119.772 120.026 119.358C119.218 118.925 118.548 118.343 118.016 117.615C117.484 116.886 117.011 115.822 116.598 114.423C116.184 112.945 115.977 111.212 115.977 109.222C115.977 107.212 116.184 105.489 116.598 104.05C117.051 102.553 117.533 101.46 118.046 100.77C118.538 100.12 119.159 99.5782 119.907 99.1448C120.676 98.7114 121.316 98.4553 121.828 98.3765C122.774 98.2188 123.69 98.2188 124.576 98.3765C125.03 98.4356 125.64 98.672 126.409 99.0857C127.236 99.5191 127.906 100.1 128.418 100.829C128.95 101.558 129.413 102.632 129.807 104.05C130.241 105.469 130.457 107.193 130.457 109.222C130.457 111.251 130.241 112.985 129.807 114.423C129.374 115.901 128.891 116.984 128.359 117.674C127.827 118.383 127.177 118.944 126.409 119.358C125.64 119.772 125.03 120.008 124.576 120.067ZM119.789 115.457C120.538 117.053 121.68 117.851 123.217 117.851C124.773 117.851 125.906 117.053 126.616 115.457C127.344 113.881 127.709 111.803 127.709 109.222C127.709 106.641 127.344 104.563 126.616 102.987C125.906 101.391 124.773 100.593 123.217 100.593C121.68 100.593 120.538 101.391 119.789 102.987C119.08 104.582 118.725 106.661 118.725 109.222C118.725 111.783 119.08 113.861 119.789 115.457ZM136.547 117.23H147.481V119.565H133.474C133.356 117.516 134.006 115.644 135.424 113.95C135.72 113.576 136.212 113.123 136.902 112.591C137.71 111.96 138.251 111.556 138.527 111.379L140.478 110.138L141.069 109.783L141.719 109.34L142.251 108.956C142.625 108.7 142.861 108.522 142.96 108.424C143.571 107.734 143.915 107.321 143.994 107.183C144.467 106.158 144.703 105.282 144.703 104.553C144.703 103.292 144.329 102.317 143.58 101.627C142.852 100.938 141.837 100.593 140.537 100.593C139.217 100.593 138.173 100.967 137.404 101.716C136.636 102.464 136.252 103.459 136.252 104.7V105.469H133.533V104.848C133.533 103.784 133.759 102.75 134.213 101.745C135.178 99.4797 137.316 98.3173 140.625 98.2582C142.753 98.2582 144.437 98.8197 145.679 99.9427C146.92 101.046 147.54 102.573 147.54 104.523C147.639 106.139 147.136 107.606 146.033 108.926C145.797 109.222 145.354 109.616 144.703 110.108C144.132 110.542 143.59 110.936 143.078 111.29C142.723 111.527 141.995 112 140.891 112.709C139.492 113.596 138.468 114.384 137.818 115.073C137.168 115.743 136.744 116.462 136.547 117.23ZM150.291 114.275H153.01C153.108 115.201 153.492 116.048 154.162 116.817C154.832 117.585 155.866 117.969 157.265 117.969C160.476 117.969 162.082 116.265 162.082 112.857C162.082 111.162 161.639 109.931 160.752 109.163C159.905 108.375 158.831 107.981 157.531 107.981C156.802 107.981 156.024 108.148 155.197 108.483C154.349 108.818 153.778 109.251 153.483 109.783H150.882L152.33 98.8788H163.501V101.213H154.369L153.542 107.331C154.743 106.286 156.3 105.764 158.211 105.764C160.141 105.764 161.698 106.405 162.88 107.685C164.082 108.946 164.683 110.66 164.683 112.827C164.683 115.073 164.042 116.866 162.762 118.206C161.481 119.526 159.649 120.186 157.265 120.186C154.724 120.186 152.921 119.486 151.857 118.087C150.931 116.886 150.409 115.615 150.291 114.275ZM19.0334 147.23H29.9675V149.565H15.9601C15.8419 147.516 16.492 145.644 17.9105 143.95C18.206 143.576 18.6985 143.123 19.3881 142.591C20.1958 141.96 20.7376 141.556 21.0134 141.379L22.9638 140.138L23.5548 139.783L24.205 139.34L24.7369 138.956C25.1112 138.7 25.3476 138.522 25.4461 138.424C26.0569 137.734 26.4016 137.321 26.4804 137.183C26.9533 136.158 27.1897 135.282 27.1897 134.553C27.1897 133.292 26.8154 132.317 26.0667 131.627C25.3378 130.938 24.3232 130.593 23.0229 130.593C21.7029 130.593 20.6588 130.967 19.8904 131.716C19.1221 132.464 18.7379 133.459 18.7379 134.7V135.469H16.0192V134.848C16.0192 133.784 16.2457 132.75 16.6989 131.745C17.6642 129.48 19.8018 128.317 23.1116 128.258C25.2393 128.258 26.9237 128.82 28.1649 129.943C29.406 131.046 30.0266 132.573 30.0266 134.523C30.1251 136.139 29.6228 137.606 28.5195 138.926C28.2831 139.222 27.8398 139.616 27.1897 140.108C26.6183 140.542 26.0766 140.936 25.5643 141.29C25.2097 141.527 24.4808 142 23.3775 142.709C21.9787 143.596 20.9543 144.384 20.3042 145.073C19.654 145.743 19.2305 146.462 19.0334 147.23ZM41.3472 150.067C40.4606 150.225 39.5446 150.225 38.5989 150.067C38.1655 150.008 37.5646 149.772 36.7963 149.358C35.9885 148.925 35.3187 148.343 34.7867 147.615C34.2548 146.886 33.782 145.822 33.3683 144.423C32.9545 142.945 32.7477 141.212 32.7477 139.222C32.7477 137.212 32.9545 135.489 33.3683 134.05C33.8214 132.553 34.3041 131.46 34.8163 130.77C35.3088 130.12 35.9294 129.578 36.678 129.145C37.4464 128.711 38.0867 128.455 38.5989 128.376C39.5446 128.219 40.4606 128.219 41.3472 128.376C41.8003 128.436 42.4111 128.672 43.1794 129.086C44.0068 129.519 44.6767 130.1 45.1889 130.829C45.7208 131.558 46.1838 132.632 46.5778 134.05C47.0113 135.469 47.228 137.193 47.228 139.222C47.228 141.251 47.0113 142.985 46.5778 144.423C46.1444 145.901 45.6617 146.984 45.1298 147.674C44.5979 148.383 43.9477 148.944 43.1794 149.358C42.4111 149.772 41.8003 150.008 41.3472 150.067ZM36.5598 145.457C37.3085 147.053 38.4511 147.851 39.9878 147.851C41.5442 147.851 42.677 147.053 43.3863 145.457C44.1152 143.881 44.4797 141.803 44.4797 139.222C44.4797 136.641 44.1152 134.563 43.3863 132.987C42.677 131.391 41.5442 130.593 39.9878 130.593C38.4511 130.593 37.3085 131.391 36.5598 132.987C35.8506 134.582 35.496 136.661 35.496 139.222C35.496 141.783 35.8506 143.861 36.5598 145.457ZM54.6182 137.774H51.6926V134.553H54.6182V137.774ZM54.6182 149.565H51.6926V146.344H54.6182V149.565ZM67.6666 150.067C66.78 150.225 65.8639 150.225 64.9183 150.067C64.4849 150.008 63.884 149.772 63.1156 149.358C62.3079 148.925 61.6381 148.343 61.1061 147.615C60.5742 146.886 60.1014 145.822 59.6876 144.423C59.2739 142.945 59.0671 141.212 59.0671 139.222C59.0671 137.212 59.2739 135.489 59.6876 134.05C60.1408 132.553 60.6234 131.46 61.1357 130.77C61.6282 130.12 62.2488 129.578 62.9974 129.145C63.7658 128.711 64.4061 128.455 64.9183 128.376C65.8639 128.219 66.78 128.219 67.6666 128.376C68.1197 128.436 68.7304 128.672 69.4988 129.086C70.3262 129.519 70.9961 130.1 71.5083 130.829C72.0402 131.558 72.5032 132.632 72.8972 134.05C73.3306 135.469 73.5473 137.193 73.5473 139.222C73.5473 141.251 73.3306 142.985 72.8972 144.423C72.4638 145.901 71.9811 146.984 71.4492 147.674C70.9173 148.383 70.2671 148.944 69.4988 149.358C68.7304 149.772 68.1197 150.008 67.6666 150.067ZM62.8792 145.457C63.6279 147.053 64.7705 147.851 66.3072 147.851C67.8636 147.851 68.9964 147.053 69.7056 145.457C70.4346 143.881 70.799 141.803 70.799 139.222C70.799 136.641 70.4346 134.563 69.7056 132.987C68.9964 131.391 67.8636 130.593 66.3072 130.593C64.7705 130.593 63.6279 131.391 62.8792 132.987C62.17 134.582 61.8154 136.661 61.8154 139.222C61.8154 141.783 62.17 143.861 62.8792 145.457ZM84.8088 150.067C83.9223 150.225 83.0062 150.225 82.0605 150.067C81.6271 150.008 81.0262 149.772 80.2579 149.358C79.4501 148.925 78.7803 148.343 78.2484 147.615C77.7164 146.886 77.2436 145.822 76.8299 144.423C76.4162 142.945 76.2093 141.212 76.2093 139.222C76.2093 137.212 76.4162 135.489 76.8299 134.05C77.283 132.553 77.7657 131.46 78.2779 130.77C78.7704 130.12 79.391 129.578 80.1397 129.145C80.908 128.711 81.5483 128.455 82.0605 128.376C83.0062 128.219 83.9223 128.219 84.8088 128.376C85.2619 128.436 85.8727 128.672 86.641 129.086C87.4685 129.519 88.1383 130.1 88.6505 130.829C89.1824 131.558 89.6454 132.632 90.0394 134.05C90.4729 135.469 90.6896 137.193 90.6896 139.222C90.6896 141.251 90.4729 142.985 90.0394 144.423C89.606 145.901 89.1233 146.984 88.5914 147.674C88.0595 148.383 87.4093 148.944 86.641 149.358C85.8727 149.772 85.2619 150.008 84.8088 150.067ZM80.0215 145.457C80.7701 147.053 81.9128 147.851 83.4494 147.851C85.0058 147.851 86.1386 147.053 86.8479 145.457C87.5768 143.881 87.9413 141.803 87.9413 139.222C87.9413 136.641 87.5768 134.563 86.8479 132.987C86.1386 131.391 85.0058 130.593 83.4494 130.593C81.9128 130.593 80.7701 131.391 80.0215 132.987C79.3122 134.582 78.9576 136.661 78.9576 139.222C78.9576 141.783 79.3122 143.861 80.0215 145.457Z" fill="black"/>
<path d="M99.2096 249.487H98.1887L95.1261 241.589H95.0992L95.1261 241.952V249.487H93.8634V240.085H95.7574L98.6992 247.822L101.641 240.085H103.535V249.487H102.272V241.952L102.299 241.589H102.259L99.2096 249.487ZM105.639 249.487V242.664H106.821V245.364H108.54C109.087 245.364 109.543 245.417 109.911 245.525C110.788 245.749 111.245 246.389 111.281 247.446C111.281 248.072 111.088 248.569 110.703 248.937C110.327 249.304 109.74 249.487 108.943 249.487H105.639ZM108.258 246.196H106.821V248.654H108.473C109.53 248.654 110.058 248.225 110.058 247.365C110.058 246.944 109.92 246.64 109.642 246.452C109.552 246.38 109.405 246.322 109.199 246.277C108.984 246.223 108.67 246.196 108.258 246.196ZM112.114 249.487V242.664H113.296V249.487H112.114ZM118.148 247.419C117.915 246.461 117.924 245.534 118.175 244.638C118.426 243.743 118.954 243.102 119.76 242.717C120.208 242.502 120.732 242.395 121.332 242.395C121.932 242.395 122.456 242.502 122.903 242.717C123.709 243.093 124.242 243.765 124.502 244.732C124.618 245.18 124.677 245.632 124.677 246.089C124.685 246.537 124.632 246.98 124.515 247.419C124.408 247.849 124.215 248.243 123.938 248.601C123.669 248.959 123.324 249.241 122.903 249.447C122.447 249.653 121.923 249.756 121.332 249.756C120.741 249.756 120.217 249.653 119.76 249.447C118.981 249.071 118.444 248.395 118.148 247.419ZM119.398 244.719C119.281 245.077 119.223 245.525 119.223 246.062C119.223 246.59 119.281 247.043 119.398 247.419C119.514 247.795 119.648 248.077 119.801 248.265C120.123 248.623 120.49 248.834 120.902 248.896C121.189 248.941 121.475 248.941 121.762 248.896C121.887 248.887 122.062 248.825 122.286 248.708C122.527 248.583 122.724 248.426 122.877 248.238C123.029 248.05 123.159 247.777 123.266 247.419C123.383 247.043 123.441 246.59 123.441 246.062C123.441 245.525 123.383 245.077 123.266 244.719C123.141 244.325 123.002 244.043 122.85 243.873C122.706 243.702 122.527 243.559 122.312 243.443C122.097 243.326 121.914 243.255 121.762 243.228C121.475 243.183 121.189 243.183 120.902 243.228C120.777 243.237 120.598 243.304 120.365 243.429C119.908 243.653 119.586 244.083 119.398 244.719ZM126.234 251.972V242.664H127.335V243.604H127.376C127.913 242.798 128.665 242.395 129.632 242.395C130.519 242.395 131.253 242.704 131.835 243.322C132.417 243.949 132.708 244.867 132.708 246.075C132.708 247.311 132.413 248.234 131.822 248.843C131.24 249.451 130.519 249.756 129.659 249.756C129.391 249.756 129.064 249.698 128.679 249.581C128.114 249.411 127.694 249.053 127.416 248.507V251.972H126.234ZM127.335 246.102C127.335 247.052 127.55 247.763 127.98 248.238C128.428 248.695 128.916 248.923 129.444 248.923C129.999 248.923 130.474 248.699 130.868 248.252C131.262 247.786 131.459 247.06 131.459 246.075C131.459 245.18 131.276 244.481 130.908 243.98C130.55 243.478 130.04 243.228 129.377 243.228C129.028 243.228 128.701 243.322 128.397 243.51C127.689 243.931 127.335 244.795 127.335 246.102ZM138.923 243.496H135.431V249.487H134.249V242.664H138.923V243.496ZM140.54 244.678H139.412C139.412 244.141 139.591 243.649 139.949 243.201C140.379 242.664 141.167 242.395 142.313 242.395C142.985 242.395 143.576 242.529 144.086 242.798C144.382 242.941 144.615 243.178 144.785 243.51C144.955 243.841 145.036 244.235 145.027 244.692L144.959 247.849C144.959 248.108 144.986 248.31 145.04 248.453C145.121 248.596 145.331 248.663 145.671 248.654V249.487C145.537 249.523 145.358 249.541 145.134 249.541C144.74 249.541 144.454 249.474 144.274 249.34C144.104 249.205 143.983 248.941 143.912 248.547C143.473 249.353 142.694 249.756 141.574 249.756C140.804 249.756 140.209 249.586 139.788 249.246C139.376 248.896 139.17 248.381 139.17 247.701C139.17 247.056 139.403 246.568 139.869 246.237C140.334 245.887 141.216 245.655 142.515 245.538C143.115 245.493 143.473 245.435 143.589 245.364C143.759 245.247 143.845 244.992 143.845 244.598C143.845 243.684 143.334 243.228 142.313 243.228C141.104 243.228 140.513 243.711 140.54 244.678ZM143.818 246.572L143.845 245.995C143.71 246.093 143.513 246.174 143.254 246.237C142.86 246.263 142.555 246.295 142.34 246.331C141.597 246.456 141.145 246.559 140.983 246.64C140.589 246.828 140.392 247.168 140.392 247.66C140.392 248.055 140.509 248.363 140.742 248.587C140.983 248.811 141.306 248.923 141.709 248.923C141.968 248.923 142.206 248.887 142.421 248.816C142.645 248.744 142.86 248.628 143.065 248.466C143.28 248.296 143.451 248.05 143.576 247.728C143.71 247.405 143.791 247.02 143.818 246.572ZM151.618 246.304H148.247V249.487H147.065V242.664H148.247V245.471H151.618V242.664H152.8V249.487H151.618V246.304ZM155.921 242.664V248.104L159.48 242.664H160.797V249.487H159.615V244.034L156.068 249.487H154.739V242.664H155.921ZM162.19 247.392H163.318C163.318 247.84 163.48 248.207 163.802 248.493C164.124 248.78 164.568 248.923 165.132 248.923C165.687 248.923 166.121 248.811 166.435 248.587C166.748 248.354 166.905 248.019 166.905 247.58C166.905 246.765 166.39 246.358 165.36 246.358H164.353V245.525H165.226C166.175 245.525 166.65 245.171 166.65 244.464C166.65 244.347 166.632 244.231 166.596 244.114C166.569 243.998 166.506 243.868 166.408 243.725C166.318 243.573 166.162 243.452 165.938 243.362C165.714 243.273 165.436 243.228 165.105 243.228C164.514 243.228 164.097 243.367 163.856 243.644C163.614 243.922 163.493 244.222 163.493 244.544H162.365C162.392 244.078 162.512 243.689 162.727 243.375C162.942 243.062 163.22 242.838 163.56 242.704C164.115 242.498 164.653 242.395 165.172 242.395C165.629 242.395 166.032 242.449 166.381 242.556C166.73 242.655 166.994 242.776 167.174 242.919C167.362 243.062 167.509 243.232 167.617 243.429C167.733 243.626 167.805 243.801 167.832 243.953C167.859 244.096 167.872 244.24 167.872 244.383C167.872 245.18 167.478 245.677 166.69 245.874V245.914C167.111 245.977 167.456 246.161 167.724 246.465C167.993 246.769 168.127 247.168 168.127 247.66C168.127 248.162 167.948 248.619 167.59 249.031C167.151 249.514 166.363 249.756 165.226 249.756C164.268 249.756 163.538 249.554 163.036 249.151C162.472 248.659 162.19 248.072 162.19 247.392ZM169.452 247.419C169.219 246.461 169.228 245.534 169.479 244.638C169.729 243.743 170.258 243.102 171.064 242.717C171.511 242.502 172.035 242.395 172.635 242.395C173.235 242.395 173.759 242.502 174.207 242.717C175.013 243.093 175.546 243.765 175.805 244.732C175.922 245.18 175.98 245.632 175.98 246.089C175.989 246.537 175.935 246.98 175.819 247.419C175.711 247.849 175.519 248.243 175.241 248.601C174.972 248.959 174.628 249.241 174.207 249.447C173.75 249.653 173.226 249.756 172.635 249.756C172.044 249.756 171.52 249.653 171.064 249.447C170.285 249.071 169.747 248.395 169.452 247.419ZM170.701 244.719C170.585 245.077 170.526 245.525 170.526 246.062C170.526 246.59 170.585 247.043 170.701 247.419C170.817 247.795 170.952 248.077 171.104 248.265C171.426 248.623 171.793 248.834 172.205 248.896C172.492 248.941 172.778 248.941 173.065 248.896C173.19 248.887 173.365 248.825 173.589 248.708C173.831 248.583 174.028 248.426 174.18 248.238C174.332 248.05 174.462 247.777 174.569 247.419C174.686 247.043 174.744 246.59 174.744 246.062C174.744 245.525 174.686 245.077 174.569 244.719C174.444 244.325 174.305 244.043 174.153 243.873C174.01 243.702 173.831 243.559 173.616 243.443C173.401 243.326 173.217 243.255 173.065 243.228C172.778 243.183 172.492 243.183 172.205 243.228C172.08 243.237 171.901 243.304 171.668 243.429C171.211 243.653 170.889 244.083 170.701 244.719ZM177.537 249.487V242.664H180.788C182.23 242.664 182.951 243.205 182.951 244.289C182.951 245.068 182.539 245.601 181.715 245.887V245.928C182.27 246.062 182.655 246.277 182.87 246.572C183.094 246.868 183.206 247.249 183.206 247.714C183.206 248.457 182.933 248.95 182.386 249.192C181.939 249.389 181.392 249.487 180.748 249.487H177.537ZM180.412 243.496H178.719V245.511H180.358C180.833 245.511 181.182 245.417 181.406 245.229C181.639 245.032 181.755 244.777 181.755 244.464C181.755 243.819 181.307 243.496 180.412 243.496ZM180.412 246.344H178.719V248.654H180.452C181.473 248.654 181.983 248.305 181.983 247.607C181.983 246.765 181.46 246.344 180.412 246.344ZM184.778 249.487V242.664H185.96V245.364H187.68C188.226 245.364 188.683 245.417 189.05 245.525C189.927 245.749 190.384 246.389 190.42 247.446C190.42 248.072 190.227 248.569 189.842 248.937C189.466 249.304 188.88 249.487 188.083 249.487H184.778ZM187.398 246.196H185.96V248.654H187.612C188.669 248.654 189.198 248.225 189.198 247.365C189.198 246.944 189.059 246.64 188.781 246.452C188.692 246.38 188.544 246.322 188.338 246.277C188.123 246.223 187.81 246.196 187.398 246.196ZM191.253 249.487V242.664H192.435V249.487H191.253ZM194.367 249.487V242.664H197.618C199.06 242.664 199.781 243.205 199.781 244.289C199.781 245.068 199.369 245.601 198.545 245.887V245.928C199.1 246.062 199.485 246.277 199.7 246.572C199.924 246.868 200.036 247.249 200.036 247.714C200.036 248.457 199.763 248.95 199.216 249.192C198.769 249.389 198.222 249.487 197.578 249.487H194.367ZM197.242 243.496H195.549V245.511H197.188C197.663 245.511 198.012 245.417 198.236 245.229C198.469 245.032 198.585 244.777 198.585 244.464C198.585 243.819 198.137 243.496 197.242 243.496ZM197.242 246.344H195.549V248.654H197.282C198.303 248.654 198.813 248.305 198.813 247.607C198.813 246.765 198.29 246.344 197.242 246.344ZM202.508 244.678H201.38C201.38 244.141 201.559 243.649 201.917 243.201C202.347 242.664 203.135 242.395 204.281 242.395C204.953 242.395 205.544 242.529 206.054 242.798C206.35 242.941 206.583 243.178 206.753 243.51C206.923 243.841 207.004 244.235 206.995 244.692L206.928 247.849C206.928 248.108 206.954 248.31 207.008 248.453C207.089 248.596 207.299 248.663 207.639 248.654V249.487C207.505 249.523 207.326 249.541 207.102 249.541C206.708 249.541 206.422 249.474 206.242 249.34C206.072 249.205 205.951 248.941 205.88 248.547C205.441 249.353 204.662 249.756 203.543 249.756C202.772 249.756 202.177 249.586 201.756 249.246C201.344 248.896 201.138 248.381 201.138 247.701C201.138 247.056 201.371 246.568 201.837 246.237C202.302 245.887 203.184 245.655 204.483 245.538C205.083 245.493 205.441 245.435 205.557 245.364C205.728 245.247 205.813 244.992 205.813 244.598C205.813 243.684 205.302 243.228 204.281 243.228C203.072 243.228 202.481 243.711 202.508 244.678ZM205.786 246.572L205.813 245.995C205.678 246.093 205.481 246.174 205.222 246.237C204.828 246.263 204.523 246.295 204.308 246.331C203.565 246.456 203.113 246.559 202.952 246.64C202.557 246.828 202.36 247.168 202.36 247.66C202.36 248.055 202.477 248.363 202.71 248.587C202.952 248.811 203.274 248.923 203.677 248.923C203.937 248.923 204.174 248.887 204.389 248.816C204.613 248.744 204.828 248.628 205.034 248.466C205.248 248.296 205.419 248.05 205.544 247.728C205.678 247.405 205.759 247.02 205.786 246.572ZM213.949 247.513H215.078C214.97 248.113 214.679 248.637 214.204 249.084C213.73 249.532 213.027 249.756 212.095 249.756C210.833 249.756 209.906 249.34 209.315 248.507C209.019 248.068 208.827 247.598 208.737 247.096C208.675 246.747 208.643 246.416 208.643 246.102C208.643 245.502 208.733 244.938 208.912 244.41C209.028 244.034 209.199 243.707 209.422 243.429C209.664 243.134 210.009 242.887 210.457 242.69C210.904 242.493 211.41 242.395 211.975 242.395C212.978 242.395 213.734 242.673 214.245 243.228C214.46 243.461 214.634 243.756 214.769 244.114C214.966 244.634 215.086 245.265 215.131 246.008C215.131 246.035 215.131 246.093 215.131 246.183C215.14 246.272 215.145 246.326 215.145 246.344H209.893C209.893 247.025 210.072 247.625 210.43 248.144C210.788 248.663 211.33 248.923 212.055 248.923C212.575 248.923 213 248.793 213.331 248.534C213.663 248.274 213.869 247.934 213.949 247.513ZM209.893 245.511H213.895C213.887 244.983 213.761 244.495 213.519 244.047C213.242 243.501 212.736 243.228 212.001 243.228C211.169 243.228 210.596 243.505 210.282 244.061C210.022 244.508 209.893 244.992 209.893 245.511ZM221.099 249.487H220.186L217.876 244.007H217.849L217.876 244.37V249.487H216.694V242.664H218.319L220.643 248.211L222.967 242.664H224.592V249.487H223.41V244.37L223.45 244.007H223.41L221.099 249.487ZM234.301 243.496H230.849V249.487H229.667V242.664H235.483V249.487H234.301V243.496ZM242.336 247.513H243.464C243.357 248.113 243.066 248.637 242.591 249.084C242.117 249.532 241.414 249.756 240.482 249.756C239.22 249.756 238.293 249.34 237.702 248.507C237.406 248.068 237.214 247.598 237.124 247.096C237.061 246.747 237.03 246.416 237.03 246.102C237.03 245.502 237.12 244.938 237.299 244.41C237.415 244.034 237.585 243.707 237.809 243.429C238.051 243.134 238.396 242.887 238.843 242.69C239.291 242.493 239.797 242.395 240.361 242.395C241.364 242.395 242.121 242.673 242.631 243.228C242.846 243.461 243.021 243.756 243.155 244.114C243.352 244.634 243.473 245.265 243.518 246.008C243.518 246.035 243.518 246.093 243.518 246.183C243.527 246.272 243.531 246.326 243.531 246.344H238.279C238.279 247.025 238.458 247.625 238.817 248.144C239.175 248.663 239.717 248.923 240.442 248.923C240.961 248.923 241.387 248.793 241.718 248.534C242.049 248.274 242.255 247.934 242.336 247.513ZM238.279 245.511H242.282C242.273 244.983 242.148 244.495 241.906 244.047C241.628 243.501 241.123 243.228 240.388 243.228C239.555 243.228 238.982 243.505 238.669 244.061C238.409 244.508 238.279 244.992 238.279 245.511ZM245.08 251.972V242.664H246.182V243.604H246.222C246.759 242.798 247.512 242.395 248.479 242.395C249.365 242.395 250.1 242.704 250.682 243.322C251.264 243.949 251.555 244.867 251.555 246.075C251.555 247.311 251.259 248.234 250.668 248.843C250.086 249.451 249.365 249.756 248.506 249.756C248.237 249.756 247.91 249.698 247.525 249.581C246.961 249.411 246.54 249.053 246.262 248.507V251.972H245.08ZM246.182 246.102C246.182 247.052 246.397 247.763 246.827 248.238C247.274 248.695 247.762 248.923 248.291 248.923C248.846 248.923 249.321 248.699 249.715 248.252C250.109 247.786 250.306 247.06 250.306 246.075C250.306 245.18 250.122 244.481 249.755 243.98C249.397 243.478 248.886 243.228 248.224 243.228C247.874 243.228 247.547 243.322 247.243 243.51C246.536 243.931 246.182 244.795 246.182 246.102ZM253.095 249.487V242.664H256.346C257.788 242.664 258.509 243.205 258.509 244.289C258.509 245.068 258.097 245.601 257.273 245.887V245.928C257.828 246.062 258.213 246.277 258.428 246.572C258.652 246.868 258.764 247.249 258.764 247.714C258.764 248.457 258.491 248.95 257.944 249.192C257.497 249.389 256.95 249.487 256.306 249.487H253.095ZM255.97 243.496H254.277V245.511H255.916C256.391 245.511 256.74 245.417 256.964 245.229C257.197 245.032 257.313 244.777 257.313 244.464C257.313 243.819 256.865 243.496 255.97 243.496ZM255.97 246.344H254.277V248.654H256.01C257.031 248.654 257.541 248.305 257.541 247.607C257.541 246.765 257.018 246.344 255.97 246.344ZM260.336 249.487V242.664H261.518V245.364H263.238C263.784 245.364 264.241 245.417 264.608 245.525C265.485 245.749 265.942 246.389 265.978 247.446C265.978 248.072 265.785 248.569 265.4 248.937C265.024 249.304 264.438 249.487 263.641 249.487H260.336ZM262.956 246.196H261.518V248.654H263.171C264.227 248.654 264.756 248.225 264.756 247.365C264.756 246.944 264.617 246.64 264.339 246.452C264.25 246.38 264.102 246.322 263.896 246.277C263.681 246.223 263.368 246.196 262.956 246.196ZM266.811 249.487V242.664H267.993V249.487H266.811ZM271.107 242.664V248.104L274.667 242.664H275.983V249.487H274.801V244.034L271.255 249.487H269.925V242.664H271.107ZM274.224 240.085H275.231C275.043 241.07 274.452 241.647 273.458 241.817C273.288 241.844 273.109 241.858 272.921 241.858C271.766 241.858 271.027 241.387 270.704 240.447C270.678 240.385 270.646 240.264 270.61 240.085H271.618C271.591 240.317 271.672 240.537 271.86 240.743C271.994 240.886 272.151 240.993 272.33 241.065C272.491 241.119 272.688 241.146 272.921 241.146C273.306 241.146 273.624 241.052 273.874 240.864C274.125 240.667 274.242 240.407 274.224 240.085ZM93.6888 264.487V257.664H96.9395C98.3813 257.664 99.1021 258.205 99.1021 259.289C99.1021 260.068 98.6902 260.601 97.8663 260.887V260.928C98.4216 261.062 98.8066 261.277 99.0215 261.572C99.2454 261.868 99.3574 262.249 99.3574 262.714C99.3574 263.457 99.0842 263.95 98.538 264.192C98.0902 264.389 97.544 264.487 96.8992 264.487H93.6888ZM96.5634 258.496H94.8709V260.511H96.5097C96.9843 260.511 97.3335 260.417 97.5574 260.229C97.7902 260.032 97.9066 259.777 97.9066 259.464C97.9066 258.819 97.4589 258.496 96.5634 258.496ZM96.5634 261.344H94.8709V263.654H96.6037C97.6246 263.654 98.135 263.305 98.135 262.607C98.135 261.765 97.6111 261.344 96.5634 261.344ZM109.263 262.056H105.287L104.401 264.487H103.044L106.604 255.085H107.947L111.507 264.487H110.15L109.263 262.056ZM107.275 256.361L105.637 260.995H108.914L107.275 256.361ZM117.27 254.641H118.278C118.242 255.295 117.937 255.729 117.364 255.944C117.051 256.052 116.782 256.123 116.558 256.159C115.555 256.285 114.973 256.37 114.812 256.414C114.203 256.584 113.737 256.893 113.415 257.341C113.093 257.78 112.922 258.411 112.904 259.235H112.931C113.361 258.08 114.243 257.502 115.578 257.502C116.661 257.502 117.472 257.861 118.009 258.577C118.555 259.284 118.828 260.153 118.828 261.183C118.828 262.168 118.546 263.01 117.982 263.708C117.418 264.407 116.581 264.756 115.47 264.756C114.243 264.756 113.334 264.29 112.743 263.359C112.448 262.849 112.246 262.275 112.139 261.64C112.067 261.138 112.031 260.641 112.031 260.149C112.031 258.42 112.296 257.211 112.824 256.522C113.29 255.922 113.921 255.537 114.718 255.367C115.47 255.196 116.106 255.098 116.625 255.071C116.975 255.026 117.189 254.883 117.27 254.641ZM113.281 261.263C113.281 261.855 113.415 262.423 113.684 262.969C113.997 263.605 114.584 263.923 115.443 263.923C116.124 263.923 116.648 263.695 117.015 263.238C117.391 262.772 117.579 262.132 117.579 261.317C117.579 260.646 117.463 260.023 117.23 259.45C116.934 258.707 116.339 258.335 115.443 258.335C114.548 258.335 113.943 258.698 113.63 259.423C113.397 259.978 113.281 260.592 113.281 261.263ZM120.658 257.664L122.405 260.189L124.151 257.664H125.467L123.076 260.928L125.655 264.487H124.339L122.405 261.68L120.47 264.487H119.154L121.733 260.928L119.342 257.664H120.658ZM127.527 259.678H126.399C126.399 259.141 126.578 258.649 126.936 258.201C127.366 257.664 128.154 257.395 129.3 257.395C129.972 257.395 130.563 257.529 131.074 257.798C131.369 257.941 131.602 258.178 131.772 258.51C131.942 258.841 132.023 259.235 132.014 259.692L131.947 262.849C131.947 263.108 131.974 263.31 132.027 263.453C132.108 263.596 132.318 263.663 132.659 263.654V264.487C132.524 264.523 132.345 264.541 132.121 264.541C131.727 264.541 131.441 264.474 131.262 264.34C131.091 264.205 130.971 263.941 130.899 263.547C130.46 264.353 129.681 264.756 128.562 264.756C127.792 264.756 127.196 264.586 126.775 264.246C126.363 263.896 126.157 263.381 126.157 262.701C126.157 262.056 126.39 261.568 126.856 261.237C127.321 260.887 128.203 260.655 129.502 260.538C130.102 260.493 130.46 260.435 130.577 260.364C130.747 260.247 130.832 259.992 130.832 259.598C130.832 258.684 130.321 258.228 129.3 258.228C128.092 258.228 127.501 258.711 127.527 259.678ZM130.805 261.572L130.832 260.995C130.697 261.093 130.5 261.174 130.241 261.237C129.847 261.263 129.542 261.295 129.327 261.331C128.584 261.456 128.132 261.559 127.971 261.64C127.577 261.828 127.38 262.168 127.38 262.66C127.38 263.055 127.496 263.363 127.729 263.587C127.971 263.811 128.293 263.923 128.696 263.923C128.956 263.923 129.193 263.887 129.408 263.816C129.632 263.744 129.847 263.628 130.053 263.466C130.268 263.296 130.438 263.05 130.563 262.728C130.697 262.405 130.778 262.02 130.805 261.572ZM133.515 262.392H134.643C134.643 262.84 134.804 263.207 135.127 263.493C135.449 263.78 135.892 263.923 136.456 263.923C137.012 263.923 137.446 263.811 137.759 263.587C138.073 263.354 138.23 263.019 138.23 262.58C138.23 261.765 137.715 261.358 136.685 261.358H135.677V260.525H136.55C137.5 260.525 137.974 260.171 137.974 259.464C137.974 259.347 137.956 259.231 137.921 259.114C137.894 258.998 137.831 258.868 137.733 258.725C137.643 258.573 137.486 258.452 137.262 258.362C137.039 258.273 136.761 258.228 136.43 258.228C135.839 258.228 135.422 258.367 135.18 258.644C134.939 258.922 134.818 259.222 134.818 259.544H133.689C133.716 259.078 133.837 258.689 134.052 258.375C134.267 258.062 134.545 257.838 134.885 257.704C135.44 257.498 135.977 257.395 136.497 257.395C136.953 257.395 137.356 257.449 137.706 257.556C138.055 257.655 138.319 257.776 138.498 257.919C138.686 258.062 138.834 258.232 138.941 258.429C139.058 258.626 139.13 258.801 139.156 258.953C139.183 259.096 139.197 259.24 139.197 259.383C139.197 260.18 138.803 260.677 138.015 260.874V260.914C138.436 260.977 138.78 261.161 139.049 261.465C139.318 261.769 139.452 262.168 139.452 262.66C139.452 263.162 139.273 263.619 138.915 264.031C138.476 264.514 137.688 264.756 136.55 264.756C135.592 264.756 134.862 264.554 134.361 264.151C133.797 263.659 133.515 263.072 133.515 262.392ZM142.173 257.664V263.104L145.733 257.664H147.049V264.487H145.867V259.034L142.321 264.487H140.991V257.664H142.173ZM150.162 257.664V263.104L153.722 257.664H155.038V264.487H153.856V259.034L150.31 264.487H148.98V257.664H150.162ZM159.244 266.26L159.137 263.654H159.996C160.74 262.562 161.111 260.946 161.111 258.805V257.664H166.001V263.654H167.183L167.089 266.26H166.095V264.487H160.238V266.26H159.244ZM164.819 263.654V258.496H162.213V259.45C162.213 260.175 162.132 260.928 161.971 261.707C161.828 262.477 161.586 263.126 161.246 263.654H164.819ZM169.379 257.664V263.104L172.939 257.664H174.256V264.487H173.073V259.034L169.527 264.487H168.197V257.664H169.379ZM175.649 262.392H176.777C176.777 262.84 176.938 263.207 177.261 263.493C177.583 263.78 178.026 263.923 178.591 263.923C179.146 263.923 179.58 263.811 179.894 263.587C180.207 263.354 180.364 263.019 180.364 262.58C180.364 261.765 179.849 261.358 178.819 261.358H177.811V260.525H178.685C179.634 260.525 180.108 260.171 180.108 259.464C180.108 259.347 180.091 259.231 180.055 259.114C180.028 258.998 179.965 258.868 179.867 258.725C179.777 258.573 179.62 258.452 179.396 258.362C179.173 258.273 178.895 258.228 178.564 258.228C177.973 258.228 177.556 258.367 177.314 258.644C177.073 258.922 176.952 259.222 176.952 259.544H175.823C175.85 259.078 175.971 258.689 176.186 258.375C176.401 258.062 176.679 257.838 177.019 257.704C177.574 257.498 178.111 257.395 178.631 257.395C179.088 257.395 179.491 257.449 179.84 257.556C180.189 257.655 180.453 257.776 180.632 257.919C180.82 258.062 180.968 258.232 181.076 258.429C181.192 258.626 181.264 258.801 181.29 258.953C181.317 259.096 181.331 259.24 181.331 259.383C181.331 260.18 180.937 260.677 180.149 260.874V260.914C180.57 260.977 180.914 261.161 181.183 261.465C181.452 261.769 181.586 262.168 181.586 262.66C181.586 263.162 181.407 263.619 181.049 264.031C180.61 264.514 179.822 264.756 178.685 264.756C177.726 264.756 176.997 264.554 176.495 264.151C175.931 263.659 175.649 263.072 175.649 262.392ZM184.025 259.678H182.897C182.897 259.141 183.076 258.649 183.434 258.201C183.864 257.664 184.652 257.395 185.798 257.395C186.47 257.395 187.061 257.529 187.572 257.798C187.867 257.941 188.1 258.178 188.27 258.51C188.44 258.841 188.521 259.235 188.512 259.692L188.445 262.849C188.445 263.108 188.472 263.31 188.525 263.453C188.606 263.596 188.816 263.663 189.157 263.654V264.487C189.022 264.523 188.843 264.541 188.619 264.541C188.225 264.541 187.939 264.474 187.76 264.34C187.589 264.205 187.469 263.941 187.397 263.547C186.958 264.353 186.179 264.756 185.06 264.756C184.29 264.756 183.694 264.586 183.273 264.246C182.861 263.896 182.655 263.381 182.655 262.701C182.655 262.056 182.888 261.568 183.354 261.237C183.819 260.887 184.701 260.655 186 260.538C186.6 260.493 186.958 260.435 187.075 260.364C187.245 260.247 187.33 259.992 187.33 259.598C187.33 258.684 186.819 258.228 185.798 258.228C184.59 258.228 183.999 258.711 184.025 259.678ZM187.303 261.572L187.33 260.995C187.195 261.093 186.998 261.174 186.739 261.237C186.345 261.263 186.04 261.295 185.825 261.331C185.082 261.456 184.63 261.559 184.469 261.64C184.075 261.828 183.878 262.168 183.878 262.66C183.878 263.055 183.994 263.363 184.227 263.587C184.469 263.811 184.791 263.923 185.194 263.923C185.454 263.923 185.691 263.887 185.906 263.816C186.13 263.744 186.345 263.628 186.551 263.466C186.766 263.296 186.936 263.05 187.061 262.728C187.195 262.405 187.276 262.02 187.303 261.572ZM191.732 257.664V263.104L195.292 257.664H196.608V264.487H195.426V259.034L191.88 264.487H190.55V257.664H191.732ZM194.848 255.085H195.856C195.668 256.07 195.077 256.647 194.083 256.817C193.913 256.844 193.734 256.858 193.545 256.858C192.39 256.858 191.651 256.387 191.329 255.447C191.302 255.385 191.271 255.264 191.235 255.085H192.243C192.216 255.317 192.296 255.537 192.484 255.743C192.619 255.886 192.775 255.993 192.954 256.065C193.116 256.119 193.313 256.146 193.545 256.146C193.931 256.146 194.248 256.052 194.499 255.864C194.75 255.667 194.866 255.407 194.848 255.085ZM203.092 261.304H199.721V264.487H198.539V257.664H199.721V260.471H203.092V257.664H204.274V264.487H203.092V261.304ZM211.129 262.513H212.257C212.15 263.113 211.859 263.637 211.384 264.084C210.909 264.532 210.207 264.756 209.275 264.756C208.013 264.756 207.086 264.34 206.495 263.507C206.199 263.068 206.007 262.598 205.917 262.096C205.854 261.747 205.823 261.416 205.823 261.102C205.823 260.502 205.913 259.938 206.092 259.41C206.208 259.034 206.378 258.707 206.602 258.429C206.844 258.134 207.189 257.887 207.636 257.69C208.084 257.493 208.59 257.395 209.154 257.395C210.157 257.395 210.914 257.673 211.424 258.228C211.639 258.461 211.814 258.756 211.948 259.114C212.145 259.634 212.266 260.265 212.311 261.008C212.311 261.035 212.311 261.093 212.311 261.183C212.32 261.272 212.324 261.326 212.324 261.344H207.072C207.072 262.025 207.251 262.625 207.61 263.144C207.968 263.663 208.51 263.923 209.235 263.923C209.754 263.923 210.18 263.793 210.511 263.534C210.842 263.274 211.048 262.934 211.129 262.513ZM207.072 260.511H211.075C211.066 259.983 210.941 259.495 210.699 259.047C210.421 258.501 209.915 258.228 209.181 258.228C208.348 258.228 207.775 258.505 207.462 259.061C207.202 259.508 207.072 259.992 207.072 260.511ZM213.873 266.972V257.664H214.975V258.604H215.015C215.552 257.798 216.305 257.395 217.272 257.395C218.158 257.395 218.893 257.704 219.475 258.322C220.057 258.949 220.348 259.867 220.348 261.075C220.348 262.311 220.052 263.234 219.461 263.843C218.879 264.451 218.158 264.756 217.299 264.756C217.03 264.756 216.703 264.698 216.318 264.581C215.754 264.411 215.333 264.053 215.055 263.507V266.972H213.873ZM214.975 261.102C214.975 262.052 215.19 262.763 215.62 263.238C216.067 263.695 216.555 263.923 217.084 263.923C217.639 263.923 218.114 263.699 218.508 263.252C218.902 262.786 219.099 262.06 219.099 261.075C219.099 260.18 218.915 259.481 218.548 258.98C218.19 258.478 217.679 258.228 217.017 258.228C216.667 258.228 216.34 258.322 216.036 258.51C215.329 258.931 214.975 259.795 214.975 261.102ZM226.67 262.056H227.799C227.763 262.575 227.566 263.122 227.208 263.695C227.011 264.017 226.702 264.277 226.281 264.474C225.869 264.662 225.385 264.756 224.83 264.756C224.642 264.756 224.508 264.751 224.427 264.743C224.033 264.725 223.63 264.622 223.218 264.434C222.072 263.86 221.499 262.723 221.499 261.022C221.499 260.126 221.705 259.329 222.117 258.631C222.627 257.807 223.505 257.395 224.749 257.395C225.627 257.395 226.325 257.619 226.845 258.067C227.364 258.505 227.664 259.083 227.745 259.799H226.616C226.437 258.752 225.824 258.228 224.776 258.228C224.096 258.228 223.585 258.478 223.245 258.98C222.914 259.472 222.748 260.153 222.748 261.022C222.748 261.863 222.923 262.557 223.272 263.104C223.621 263.65 224.149 263.923 224.857 263.923C225.466 263.923 225.909 263.731 226.187 263.346C226.482 262.96 226.643 262.531 226.67 262.056ZM230.429 257.664V260.646L233.344 257.664H234.728L231.531 260.834L234.902 264.487H233.492L230.429 261.075V264.487H229.247V257.664H230.429ZM237.001 257.664V263.104L240.561 257.664H241.877V264.487H240.695V259.034L237.149 264.487H235.819V257.664H237.001ZM244.99 257.664V263.104L248.55 257.664H249.866V264.487H248.684V259.034L245.138 264.487H243.808V257.664H244.99ZM248.106 255.085H249.114C248.926 256.07 248.335 256.647 247.341 256.817C247.171 256.844 246.991 256.858 246.803 256.858C245.648 256.858 244.909 256.387 244.587 255.447C244.56 255.385 244.529 255.264 244.493 255.085H245.5C245.474 255.317 245.554 255.537 245.742 255.743C245.877 255.886 246.033 255.993 246.212 256.065C246.374 256.119 246.571 256.146 246.803 256.146C247.188 256.146 247.506 256.052 247.757 255.864C248.008 255.667 248.124 255.407 248.106 255.085ZM93.6888 279.487V272.664H96.9395C98.3813 272.664 99.1021 273.205 99.1021 274.289C99.1021 275.068 98.6902 275.601 97.8663 275.887V275.928C98.4216 276.062 98.8066 276.277 99.0215 276.572C99.2454 276.868 99.3574 277.249 99.3574 277.714C99.3574 278.457 99.0842 278.95 98.538 279.192C98.0902 279.389 97.544 279.487 96.8992 279.487H93.6888ZM96.5634 273.496H94.8709V275.511H96.5097C96.9843 275.511 97.3335 275.417 97.5574 275.229C97.7902 275.032 97.9066 274.777 97.9066 274.464C97.9066 273.819 97.4589 273.496 96.5634 273.496ZM96.5634 276.344H94.8709V278.654H96.6037C97.6246 278.654 98.135 278.305 98.135 277.607C98.135 276.765 97.6111 276.344 96.5634 276.344ZM100.715 277.419C100.482 276.461 100.491 275.534 100.742 274.638C100.992 273.743 101.521 273.102 102.327 272.717C102.775 272.502 103.298 272.395 103.898 272.395C104.498 272.395 105.022 272.502 105.47 272.717C106.276 273.093 106.809 273.765 107.068 274.732C107.185 275.18 107.243 275.632 107.243 276.089C107.252 276.537 107.198 276.98 107.082 277.419C106.974 277.849 106.782 278.243 106.504 278.601C106.236 278.959 105.891 279.241 105.47 279.447C105.013 279.653 104.489 279.756 103.898 279.756C103.307 279.756 102.783 279.653 102.327 279.447C101.548 279.071 101.01 278.395 100.715 277.419ZM101.964 274.719C101.848 275.077 101.789 275.525 101.789 276.062C101.789 276.59 101.848 277.043 101.964 277.419C102.081 277.795 102.215 278.077 102.367 278.265C102.689 278.623 103.057 278.834 103.469 278.896C103.755 278.941 104.042 278.941 104.328 278.896C104.454 278.887 104.628 278.825 104.852 278.708C105.094 278.583 105.291 278.426 105.443 278.238C105.595 278.05 105.725 277.777 105.833 277.419C105.949 277.043 106.007 276.59 106.007 276.062C106.007 275.525 105.949 275.077 105.833 274.719C105.707 274.325 105.569 274.043 105.416 273.873C105.273 273.702 105.094 273.559 104.879 273.443C104.664 273.326 104.48 273.255 104.328 273.228C104.042 273.183 103.755 273.183 103.469 273.228C103.343 273.237 103.164 273.304 102.931 273.429C102.475 273.653 102.152 274.083 101.964 274.719ZM108.8 281.972V272.664H109.902V273.604H109.942C110.479 272.798 111.232 272.395 112.199 272.395C113.085 272.395 113.82 272.704 114.402 273.322C114.984 273.949 115.275 274.867 115.275 276.075C115.275 277.311 114.979 278.234 114.388 278.843C113.806 279.451 113.085 279.756 112.226 279.756C111.957 279.756 111.63 279.698 111.245 279.581C110.681 279.411 110.26 279.053 109.982 278.507V281.972H108.8ZM109.902 276.102C109.902 277.052 110.117 277.763 110.547 278.238C110.994 278.695 111.482 278.923 112.011 278.923C112.566 278.923 113.041 278.699 113.435 278.252C113.829 277.786 114.026 277.06 114.026 276.075C114.026 275.18 113.842 274.481 113.475 273.98C113.117 273.478 112.606 273.228 111.944 273.228C111.594 273.228 111.268 273.322 110.963 273.51C110.256 273.931 109.902 274.795 109.902 276.102ZM117.997 272.664V275.646L120.912 272.664H122.296L119.099 275.834L122.47 279.487H121.06L117.997 276.075V279.487H116.815V272.664H117.997ZM124.569 272.664V278.654H127.417V272.664H128.599V278.654H131.447V272.664H132.629V279.487H123.387V272.664H124.569ZM134.349 277.419C134.116 276.461 134.125 275.534 134.376 274.638C134.626 273.743 135.155 273.102 135.961 272.717C136.408 272.502 136.932 272.395 137.532 272.395C138.132 272.395 138.656 272.502 139.104 272.717C139.91 273.093 140.443 273.765 140.702 274.732C140.819 275.18 140.877 275.632 140.877 276.089C140.886 276.537 140.832 276.98 140.716 277.419C140.608 277.849 140.416 278.243 140.138 278.601C139.869 278.959 139.525 279.241 139.104 279.447C138.647 279.653 138.123 279.756 137.532 279.756C136.941 279.756 136.417 279.653 135.961 279.447C135.182 279.071 134.644 278.395 134.349 277.419ZM135.598 274.719C135.482 275.077 135.423 275.525 135.423 276.062C135.423 276.59 135.482 277.043 135.598 277.419C135.714 277.795 135.849 278.077 136.001 278.265C136.323 278.623 136.69 278.834 137.102 278.896C137.389 278.941 137.675 278.941 137.962 278.896C138.087 278.887 138.262 278.825 138.486 278.708C138.728 278.583 138.925 278.426 139.077 278.238C139.229 278.05 139.359 277.777 139.466 277.419C139.583 277.043 139.641 276.59 139.641 276.062C139.641 275.525 139.583 275.077 139.466 274.719C139.341 274.325 139.202 274.043 139.05 273.873C138.907 273.702 138.728 273.559 138.513 273.443C138.298 273.326 138.114 273.255 137.962 273.228C137.675 273.183 137.389 273.183 137.102 273.228C136.977 273.237 136.798 273.304 136.565 273.429C136.108 273.653 135.786 274.083 135.598 274.719ZM147.068 273.496H143.616V279.487H142.434V272.664H148.251V279.487H147.068V273.496ZM150.644 279.487V278.023H151.973V279.904C151.973 280.351 151.848 280.705 151.597 280.965C151.346 281.225 151.029 281.395 150.644 281.475V280.737C150.832 280.719 150.988 280.625 151.114 280.454C151.248 280.293 151.315 280.11 151.315 279.904V279.487H150.644ZM162.128 273.496H158.675V279.487H157.493V272.664H163.31V279.487H162.128V273.496ZM165.031 277.419C164.798 276.461 164.807 275.534 165.058 274.638C165.309 273.743 165.837 273.102 166.643 272.717C167.091 272.502 167.615 272.395 168.215 272.395C168.815 272.395 169.338 272.502 169.786 272.717C170.592 273.093 171.125 273.765 171.385 274.732C171.501 275.18 171.559 275.632 171.559 276.089C171.568 276.537 171.514 276.98 171.398 277.419C171.291 277.849 171.098 278.243 170.82 278.601C170.552 278.959 170.207 279.241 169.786 279.447C169.329 279.653 168.806 279.756 168.215 279.756C167.624 279.756 167.1 279.653 166.643 279.447C165.864 279.071 165.327 278.395 165.031 277.419ZM166.28 274.719C166.164 275.077 166.106 275.525 166.106 276.062C166.106 276.59 166.164 277.043 166.28 277.419C166.397 277.795 166.531 278.077 166.683 278.265C167.006 278.623 167.373 278.834 167.785 278.896C168.071 278.941 168.358 278.941 168.644 278.896C168.77 278.887 168.944 278.825 169.168 278.708C169.41 278.583 169.607 278.426 169.759 278.238C169.912 278.05 170.041 277.777 170.149 277.419C170.265 277.043 170.323 276.59 170.323 276.062C170.323 275.525 170.265 275.077 170.149 274.719C170.023 274.325 169.885 274.043 169.732 273.873C169.589 273.702 169.41 273.559 169.195 273.443C168.98 273.326 168.797 273.255 168.644 273.228C168.358 273.183 168.071 273.183 167.785 273.228C167.659 273.237 167.48 273.304 167.247 273.429C166.791 273.653 166.468 274.083 166.28 274.719ZM177.899 277.056H179.027C178.991 277.575 178.794 278.122 178.436 278.695C178.239 279.017 177.93 279.277 177.509 279.474C177.097 279.662 176.614 279.756 176.058 279.756C175.87 279.756 175.736 279.751 175.655 279.743C175.261 279.725 174.858 279.622 174.446 279.434C173.3 278.86 172.727 277.723 172.727 276.022C172.727 275.126 172.933 274.329 173.345 273.631C173.855 272.807 174.733 272.395 175.978 272.395C176.855 272.395 177.554 272.619 178.073 273.067C178.593 273.505 178.893 274.083 178.973 274.799H177.845C177.666 273.752 177.052 273.228 176.005 273.228C175.324 273.228 174.814 273.478 174.473 273.98C174.142 274.472 173.976 275.153 173.976 276.022C173.976 276.863 174.151 277.557 174.5 278.104C174.849 278.65 175.378 278.923 176.085 278.923C176.694 278.923 177.137 278.731 177.415 278.346C177.711 277.96 177.872 277.531 177.899 277.056ZM180.476 279.487V272.664H183.726C185.168 272.664 185.889 273.205 185.889 274.289C185.889 275.068 185.477 275.601 184.653 275.887V275.928C185.208 276.062 185.593 276.277 185.808 276.572C186.032 276.868 186.144 277.249 186.144 277.714C186.144 278.457 185.871 278.95 185.325 279.192C184.877 279.389 184.331 279.487 183.686 279.487H180.476ZM183.35 273.496H181.658V275.511H183.296C183.771 275.511 184.12 275.417 184.344 275.229C184.577 275.032 184.693 274.777 184.693 274.464C184.693 273.819 184.246 273.496 183.35 273.496ZM183.35 276.344H181.658V278.654H183.39C184.411 278.654 184.922 278.305 184.922 277.607C184.922 276.765 184.398 276.344 183.35 276.344ZM191.894 276.801H190.336L188.549 279.487H187.246L189.127 276.787C188.608 276.734 188.187 276.532 187.864 276.183C187.542 275.834 187.381 275.377 187.381 274.813C187.381 274.284 187.52 273.823 187.797 273.429C188.129 272.919 188.755 272.664 189.678 272.664H193.076V279.487H191.894V276.801ZM191.894 275.968V273.496H190.188C189.131 273.496 188.603 273.922 188.603 274.772C188.603 275.122 188.733 275.408 188.993 275.632C189.252 275.856 189.664 275.968 190.228 275.968H191.894ZM196.192 272.664V278.654H199.04V272.664H200.222V278.654H203.07V272.664H204.252V278.654H205.407L205.299 281.26H204.305V279.487H195.01V272.664H196.192ZM211.339 277.513H212.467C212.36 278.113 212.069 278.637 211.594 279.084C211.119 279.532 210.416 279.756 209.485 279.756C208.222 279.756 207.296 279.34 206.705 278.507C206.409 278.068 206.216 277.598 206.127 277.096C206.064 276.747 206.033 276.416 206.033 276.102C206.033 275.502 206.122 274.938 206.302 274.41C206.418 274.034 206.588 273.707 206.812 273.429C207.054 273.134 207.399 272.887 207.846 272.69C208.294 272.493 208.8 272.395 209.364 272.395C210.367 272.395 211.124 272.673 211.634 273.228C211.849 273.461 212.024 273.756 212.158 274.114C212.355 274.634 212.476 275.265 212.521 276.008C212.521 276.035 212.521 276.093 212.521 276.183C212.53 276.272 212.534 276.326 212.534 276.344H207.282C207.282 277.025 207.461 277.625 207.819 278.144C208.178 278.663 208.719 278.923 209.445 278.923C209.964 278.923 210.39 278.793 210.721 278.534C211.052 278.274 211.258 277.934 211.339 277.513ZM207.282 275.511H211.285C211.276 274.983 211.151 274.495 210.909 274.047C210.631 273.501 210.125 273.228 209.391 273.228C208.558 273.228 207.985 273.505 207.672 274.061C207.412 274.508 207.282 274.992 207.282 275.511ZM218.637 276.304H215.265V279.487H214.083V272.664H215.265V275.471H218.637V272.664H219.819V279.487H218.637V276.304ZM226.311 276.304H222.939V279.487H221.757V272.664H222.939V275.471H226.311V272.664H227.493V279.487H226.311V276.304ZM229.431 279.487V272.664H230.613V275.364H232.332C232.879 275.364 233.335 275.417 233.702 275.525C234.58 275.749 235.037 276.389 235.073 277.446C235.073 278.072 234.88 278.569 234.495 278.937C234.119 279.304 233.532 279.487 232.735 279.487H229.431ZM232.05 276.196H230.613V278.654H232.265C233.322 278.654 233.85 278.225 233.85 277.365C233.85 276.944 233.711 276.64 233.434 276.452C233.344 276.38 233.197 276.322 232.991 276.277C232.776 276.223 232.462 276.196 232.05 276.196ZM235.905 279.487V272.664H237.087V279.487H235.905ZM240.202 272.664V278.104L243.762 272.664H245.078V279.487H243.896V274.034L240.35 279.487H239.02V272.664H240.202ZM243.318 270.085H244.326C244.138 271.07 243.547 271.647 242.553 271.817C242.383 271.844 242.203 271.858 242.015 271.858C240.86 271.858 240.121 271.387 239.799 270.447C239.772 270.385 239.741 270.264 239.705 270.085H240.712C240.686 270.317 240.766 270.537 240.954 270.743C241.089 270.886 241.245 270.993 241.424 271.065C241.586 271.119 241.783 271.146 242.015 271.146C242.4 271.146 242.718 271.052 242.969 270.864C243.22 270.667 243.336 270.407 243.318 270.085ZM250.144 281.972V272.664H251.245V273.604H251.286C251.823 272.798 252.575 272.395 253.542 272.395C254.429 272.395 255.163 272.704 255.745 273.322C256.327 273.949 256.618 274.867 256.618 276.075C256.618 277.311 256.323 278.234 255.732 278.843C255.15 279.451 254.429 279.756 253.569 279.756C253.3 279.756 252.974 279.698 252.589 279.581C252.024 279.411 251.603 279.053 251.326 278.507V281.972H250.144ZM251.245 276.102C251.245 277.052 251.46 277.763 251.89 278.238C252.338 278.695 252.826 278.923 253.354 278.923C253.909 278.923 254.384 278.699 254.778 278.252C255.172 277.786 255.369 277.06 255.369 276.075C255.369 275.18 255.185 274.481 254.818 273.98C254.46 273.478 253.95 273.228 253.287 273.228C252.938 273.228 252.611 273.322 252.306 273.51C251.599 273.931 251.245 274.795 251.245 276.102ZM259.059 274.678H257.93C257.93 274.141 258.109 273.649 258.468 273.201C258.898 272.664 259.686 272.395 260.832 272.395C261.503 272.395 262.094 272.529 262.605 272.798C262.9 272.941 263.133 273.178 263.303 273.51C263.474 273.841 263.554 274.235 263.545 274.692L263.478 277.849C263.478 278.108 263.505 278.31 263.559 278.453C263.639 278.596 263.85 278.663 264.19 278.654V279.487C264.056 279.523 263.877 279.541 263.653 279.541C263.259 279.541 262.972 279.474 262.793 279.34C262.623 279.205 262.502 278.941 262.43 278.547C261.991 279.353 261.212 279.756 260.093 279.756C259.323 279.756 258.727 279.586 258.306 279.246C257.895 278.896 257.689 278.381 257.689 277.701C257.689 277.056 257.921 276.568 258.387 276.237C258.853 275.887 259.735 275.655 261.033 275.538C261.633 275.493 261.991 275.435 262.108 275.364C262.278 275.247 262.363 274.992 262.363 274.598C262.363 273.684 261.853 273.228 260.832 273.228C259.623 273.228 259.032 273.711 259.059 274.678ZM262.336 276.572L262.363 275.995C262.229 276.093 262.032 276.174 261.772 276.237C261.378 276.263 261.074 276.295 260.859 276.331C260.115 276.456 259.663 276.559 259.502 276.64C259.108 276.828 258.911 277.168 258.911 277.66C258.911 278.055 259.027 278.363 259.26 278.587C259.502 278.811 259.824 278.923 260.227 278.923C260.487 278.923 260.724 278.887 260.939 278.816C261.163 278.744 261.378 278.628 261.584 278.466C261.799 278.296 261.969 278.05 262.094 277.728C262.229 277.405 262.309 277.02 262.336 276.572ZM270.432 269.641H271.44C271.404 270.295 271.1 270.729 270.527 270.944C270.213 271.052 269.944 271.123 269.721 271.159C268.718 271.285 268.136 271.37 267.974 271.414C267.365 271.584 266.9 271.893 266.577 272.341C266.255 272.78 266.085 273.411 266.067 274.235H266.094C266.524 273.08 267.406 272.502 268.74 272.502C269.824 272.502 270.634 272.861 271.171 273.577C271.718 274.284 271.991 275.153 271.991 276.183C271.991 277.168 271.709 278.01 271.144 278.708C270.58 279.407 269.743 279.756 268.633 279.756C267.406 279.756 266.497 279.29 265.906 278.359C265.61 277.849 265.409 277.275 265.301 276.64C265.23 276.138 265.194 275.641 265.194 275.149C265.194 273.42 265.458 272.211 265.986 271.522C266.452 270.922 267.083 270.537 267.88 270.367C268.633 270.196 269.268 270.098 269.788 270.071C270.137 270.026 270.352 269.883 270.432 269.641ZM266.443 276.263C266.443 276.855 266.577 277.423 266.846 277.969C267.159 278.605 267.746 278.923 268.606 278.923C269.286 278.923 269.81 278.695 270.177 278.238C270.553 277.772 270.741 277.132 270.741 276.317C270.741 275.646 270.625 275.023 270.392 274.45C270.097 273.707 269.501 273.335 268.606 273.335C267.71 273.335 267.106 273.698 266.792 274.423C266.559 274.978 266.443 275.592 266.443 276.263ZM273.318 277.419C273.085 276.461 273.094 275.534 273.345 274.638C273.595 273.743 274.124 273.102 274.93 272.717C275.377 272.502 275.901 272.395 276.501 272.395C277.101 272.395 277.625 272.502 278.073 272.717C278.879 273.093 279.412 273.765 279.671 274.732C279.788 275.18 279.846 275.632 279.846 276.089C279.855 276.537 279.801 276.98 279.685 277.419C279.577 277.849 279.385 278.243 279.107 278.601C278.839 278.959 278.494 279.241 278.073 279.447C277.616 279.653 277.092 279.756 276.501 279.756C275.91 279.756 275.386 279.653 274.93 279.447C274.151 279.071 273.613 278.395 273.318 277.419ZM274.567 274.719C274.451 275.077 274.392 275.525 274.392 276.062C274.392 276.59 274.451 277.043 274.567 277.419C274.683 277.795 274.818 278.077 274.97 278.265C275.292 278.623 275.659 278.834 276.071 278.896C276.358 278.941 276.645 278.941 276.931 278.896C277.056 278.887 277.231 278.825 277.455 278.708C277.697 278.583 277.894 278.426 278.046 278.238C278.198 278.05 278.328 277.777 278.436 277.419C278.552 277.043 278.61 276.59 278.61 276.062C278.61 275.525 278.552 275.077 278.436 274.719C278.31 274.325 278.171 274.043 278.019 273.873C277.876 273.702 277.697 273.559 277.482 273.443C277.267 273.326 277.083 273.255 276.931 273.228C276.645 273.183 276.358 273.183 276.071 273.228C275.946 273.237 275.767 273.304 275.534 273.429C275.077 273.653 274.755 274.083 274.567 274.719ZM282.555 279.487V273.496H280.191V272.664H286.101V273.496H283.737V279.487H282.555ZM291.816 277.513H292.944C292.837 278.113 292.546 278.637 292.071 279.084C291.597 279.532 290.894 279.756 289.962 279.756C288.7 279.756 287.773 279.34 287.182 278.507C286.886 278.068 286.694 277.598 286.604 277.096C286.541 276.747 286.51 276.416 286.51 276.102C286.51 275.502 286.6 274.938 286.779 274.41C286.895 274.034 287.065 273.707 287.289 273.429C287.531 273.134 287.876 272.887 288.323 272.69C288.771 272.493 289.277 272.395 289.841 272.395C290.844 272.395 291.601 272.673 292.111 273.228C292.326 273.461 292.501 273.756 292.635 274.114C292.832 274.634 292.953 275.265 292.998 276.008C292.998 276.035 292.998 276.093 292.998 276.183C293.007 276.272 293.011 276.326 293.011 276.344H287.759C287.759 277.025 287.938 277.625 288.297 278.144C288.655 278.663 289.197 278.923 289.922 278.923C290.441 278.923 290.867 278.793 291.198 278.534C291.529 278.274 291.735 277.934 291.816 277.513ZM287.759 275.511H291.762C291.753 274.983 291.628 274.495 291.386 274.047C291.108 273.501 290.603 273.228 289.868 273.228C289.035 273.228 288.462 273.505 288.149 274.061C287.889 274.508 287.759 274.992 287.759 275.511ZM98.4708 292.056H99.5991C99.5633 292.575 99.3663 293.122 99.0081 293.695C98.8111 294.017 98.5021 294.277 98.0813 294.474C97.6693 294.662 97.1858 294.756 96.6305 294.756C96.4425 294.756 96.3082 294.751 96.2276 294.743C95.8336 294.725 95.4306 294.622 95.0186 294.434C93.8724 293.86 93.2993 292.723 93.2993 291.022C93.2993 290.126 93.5052 289.329 93.9172 288.631C94.4276 287.807 95.3052 287.395 96.55 287.395C97.4275 287.395 98.126 287.619 98.6454 288.067C99.1648 288.505 99.4648 289.083 99.5454 289.799H98.4171C98.238 288.752 97.6246 288.228 96.5768 288.228C95.8962 288.228 95.3858 288.478 95.0455 288.98C94.7142 289.472 94.5485 290.153 94.5485 291.022C94.5485 291.863 94.7231 292.557 95.0724 293.104C95.4216 293.65 95.95 293.923 96.6574 293.923C97.2664 293.923 97.7096 293.731 97.9872 293.346C98.2828 292.96 98.4439 292.531 98.4708 292.056ZM108.817 288.496H105.365V294.487H104.183V287.664H109.999V294.487H108.817V288.496ZM116.852 292.513H117.98C117.873 293.113 117.582 293.637 117.107 294.084C116.632 294.532 115.93 294.756 114.998 294.756C113.736 294.756 112.809 294.34 112.218 293.507C111.922 293.068 111.73 292.598 111.64 292.096C111.577 291.747 111.546 291.416 111.546 291.102C111.546 290.502 111.636 289.938 111.815 289.41C111.931 289.034 112.101 288.707 112.325 288.429C112.567 288.134 112.912 287.887 113.359 287.69C113.807 287.493 114.313 287.395 114.877 287.395C115.88 287.395 116.637 287.673 117.147 288.228C117.362 288.461 117.537 288.756 117.671 289.114C117.868 289.634 117.989 290.265 118.034 291.008C118.034 291.035 118.034 291.093 118.034 291.183C118.043 291.272 118.047 291.326 118.047 291.344H112.795C112.795 292.025 112.974 292.625 113.333 293.144C113.691 293.663 114.233 293.923 114.958 293.923C115.477 293.923 115.903 293.793 116.234 293.534C116.565 293.274 116.771 292.934 116.852 292.513ZM112.795 290.511H116.798C116.789 289.983 116.664 289.495 116.422 289.047C116.144 288.501 115.638 288.228 114.904 288.228C114.071 288.228 113.498 288.505 113.185 289.061C112.925 289.508 112.795 289.992 112.795 290.511ZM119.596 296.972V287.664H120.698V288.604H120.738C121.275 287.798 122.028 287.395 122.995 287.395C123.881 287.395 124.616 287.704 125.198 288.322C125.78 288.949 126.071 289.867 126.071 291.075C126.071 292.311 125.775 293.234 125.184 293.843C124.602 294.451 123.881 294.756 123.022 294.756C122.753 294.756 122.426 294.698 122.041 294.581C121.477 294.411 121.056 294.053 120.778 293.507V296.972H119.596ZM120.698 291.102C120.698 292.052 120.913 292.763 121.343 293.238C121.79 293.695 122.278 293.923 122.807 293.923C123.362 293.923 123.837 293.699 124.231 293.252C124.625 292.786 124.822 292.06 124.822 291.075C124.822 290.18 124.638 289.481 124.271 288.98C123.913 288.478 123.402 288.228 122.74 288.228C122.39 288.228 122.063 288.322 121.759 288.51C121.051 288.931 120.698 289.795 120.698 291.102ZM132.528 292.513H133.656C133.548 293.113 133.257 293.637 132.783 294.084C132.308 294.532 131.605 294.756 130.674 294.756C129.411 294.756 128.484 294.34 127.893 293.507C127.598 293.068 127.405 292.598 127.316 292.096C127.253 291.747 127.222 291.416 127.222 291.102C127.222 290.502 127.311 289.938 127.49 289.41C127.607 289.034 127.777 288.707 128.001 288.429C128.243 288.134 128.587 287.887 129.035 287.69C129.483 287.493 129.989 287.395 130.553 287.395C131.556 287.395 132.313 287.673 132.823 288.228C133.038 288.461 133.213 288.756 133.347 289.114C133.544 289.634 133.665 290.265 133.71 291.008C133.71 291.035 133.71 291.093 133.71 291.183C133.719 291.272 133.723 291.326 133.723 291.344H128.471C128.471 292.025 128.65 292.625 129.008 293.144C129.366 293.663 129.908 293.923 130.634 293.923C131.153 293.923 131.578 293.793 131.91 293.534C132.241 293.274 132.447 292.934 132.528 292.513ZM128.471 290.511H132.474C132.465 289.983 132.339 289.495 132.098 289.047C131.82 288.501 131.314 288.228 130.58 288.228C129.747 288.228 129.174 288.505 128.86 289.061C128.601 289.508 128.471 289.992 128.471 290.511ZM135.272 296.972V287.664H136.373V288.604H136.414C136.951 287.798 137.703 287.395 138.67 287.395C139.557 287.395 140.291 287.704 140.873 288.322C141.455 288.949 141.746 289.867 141.746 291.075C141.746 292.311 141.451 293.234 140.86 293.843C140.278 294.451 139.557 294.756 138.697 294.756C138.429 294.756 138.102 294.698 137.717 294.581C137.153 294.411 136.732 294.053 136.454 293.507V296.972H135.272ZM136.373 291.102C136.373 292.052 136.588 292.763 137.018 293.238C137.466 293.695 137.954 293.923 138.482 293.923C139.038 293.923 139.512 293.699 139.906 293.252C140.3 292.786 140.497 292.06 140.497 291.075C140.497 290.18 140.314 289.481 139.946 288.98C139.588 288.478 139.078 288.228 138.415 288.228C138.066 288.228 137.739 288.322 137.435 288.51C136.727 288.931 136.373 289.795 136.373 291.102ZM144.187 289.678H143.059C143.059 289.141 143.238 288.649 143.596 288.201C144.026 287.664 144.814 287.395 145.96 287.395C146.632 287.395 147.223 287.529 147.733 287.798C148.029 287.941 148.261 288.178 148.432 288.51C148.602 288.841 148.682 289.235 148.673 289.692L148.606 292.849C148.606 293.108 148.633 293.31 148.687 293.453C148.767 293.596 148.978 293.663 149.318 293.654V294.487C149.184 294.523 149.005 294.541 148.781 294.541C148.387 294.541 148.1 294.474 147.921 294.34C147.751 294.205 147.63 293.941 147.558 293.547C147.12 294.353 146.341 294.756 145.221 294.756C144.451 294.756 143.856 294.586 143.435 294.246C143.023 293.896 142.817 293.381 142.817 292.701C142.817 292.056 143.05 291.568 143.515 291.237C143.981 290.887 144.863 290.655 146.161 290.538C146.761 290.493 147.12 290.435 147.236 290.364C147.406 290.247 147.491 289.992 147.491 289.598C147.491 288.684 146.981 288.228 145.96 288.228C144.751 288.228 144.16 288.711 144.187 289.678ZM147.464 291.572L147.491 290.995C147.357 291.093 147.16 291.174 146.9 291.237C146.506 291.263 146.202 291.295 145.987 291.331C145.244 291.456 144.791 291.559 144.63 291.64C144.236 291.828 144.039 292.168 144.039 292.66C144.039 293.055 144.156 293.363 144.388 293.587C144.63 293.811 144.953 293.923 145.356 293.923C145.615 293.923 145.853 293.887 146.067 293.816C146.291 293.744 146.506 293.628 146.712 293.466C146.927 293.296 147.097 293.05 147.223 292.728C147.357 292.405 147.438 292.02 147.464 291.572ZM155.561 284.641H156.568C156.532 285.295 156.228 285.729 155.655 285.944C155.341 286.052 155.073 286.123 154.849 286.159C153.846 286.285 153.264 286.37 153.103 286.414C152.494 286.584 152.028 286.893 151.706 287.341C151.383 287.78 151.213 288.411 151.195 289.235H151.222C151.652 288.08 152.534 287.502 153.868 287.502C154.952 287.502 155.762 287.861 156.299 288.577C156.846 289.284 157.119 290.153 157.119 291.183C157.119 292.168 156.837 293.01 156.273 293.708C155.708 294.407 154.871 294.756 153.761 294.756C152.534 294.756 151.625 294.29 151.034 293.359C150.738 292.849 150.537 292.275 150.429 291.64C150.358 291.138 150.322 290.641 150.322 290.149C150.322 288.42 150.586 287.211 151.115 286.522C151.58 285.922 152.211 285.537 153.008 285.367C153.761 285.196 154.397 285.098 154.916 285.071C155.265 285.026 155.48 284.883 155.561 284.641ZM151.571 291.263C151.571 291.855 151.706 292.423 151.974 292.969C152.288 293.605 152.874 293.923 153.734 293.923C154.414 293.923 154.938 293.695 155.305 293.238C155.682 292.772 155.87 292.132 155.87 291.317C155.87 290.646 155.753 290.023 155.52 289.45C155.225 288.707 154.629 288.335 153.734 288.335C152.838 288.335 152.234 288.698 151.92 289.423C151.688 289.978 151.571 290.592 151.571 291.263ZM158.446 292.419C158.213 291.461 158.222 290.534 158.473 289.638C158.724 288.743 159.252 288.102 160.058 287.717C160.506 287.502 161.029 287.395 161.629 287.395C162.229 287.395 162.753 287.502 163.201 287.717C164.007 288.093 164.54 288.765 164.8 289.732C164.916 290.18 164.974 290.632 164.974 291.089C164.983 291.537 164.929 291.98 164.813 292.419C164.706 292.849 164.513 293.243 164.235 293.601C163.967 293.959 163.622 294.241 163.201 294.447C162.744 294.653 162.22 294.756 161.629 294.756C161.038 294.756 160.515 294.653 160.058 294.447C159.279 294.071 158.741 293.395 158.446 292.419ZM159.695 289.719C159.579 290.077 159.521 290.525 159.521 291.062C159.521 291.59 159.579 292.043 159.695 292.419C159.812 292.795 159.946 293.077 160.098 293.265C160.421 293.623 160.788 293.834 161.2 293.896C161.486 293.941 161.773 293.941 162.059 293.896C162.185 293.887 162.359 293.825 162.583 293.708C162.825 293.583 163.022 293.426 163.174 293.238C163.326 293.05 163.456 292.777 163.564 292.419C163.68 292.043 163.738 291.59 163.738 291.062C163.738 290.525 163.68 290.077 163.564 289.719C163.438 289.325 163.3 289.043 163.147 288.873C163.004 288.702 162.825 288.559 162.61 288.443C162.395 288.326 162.212 288.255 162.059 288.228C161.773 288.183 161.486 288.183 161.2 288.228C161.074 288.237 160.895 288.304 160.662 288.429C160.206 288.653 159.883 289.083 159.695 289.719ZM167.683 294.487V288.496H165.319V287.664H171.23V288.496H168.865V294.487H167.683ZM172.928 289.678H171.799C171.799 289.141 171.979 288.649 172.337 288.201C172.767 287.664 173.555 287.395 174.701 287.395C175.373 287.395 175.964 287.529 176.474 287.798C176.769 287.941 177.002 288.178 177.172 288.51C177.343 288.841 177.423 289.235 177.414 289.692L177.347 292.849C177.347 293.108 177.374 293.31 177.428 293.453C177.508 293.596 177.719 293.663 178.059 293.654V294.487C177.925 294.523 177.746 294.541 177.522 294.541C177.128 294.541 176.841 294.474 176.662 294.34C176.492 294.205 176.371 293.941 176.299 293.547C175.861 294.353 175.081 294.756 173.962 294.756C173.192 294.756 172.596 294.586 172.176 294.246C171.764 293.896 171.558 293.381 171.558 292.701C171.558 292.056 171.791 291.568 172.256 291.237C172.722 290.887 173.604 290.655 174.902 290.538C175.502 290.493 175.861 290.435 175.977 290.364C176.147 290.247 176.232 289.992 176.232 289.598C176.232 288.684 175.722 288.228 174.701 288.228C173.492 288.228 172.901 288.711 172.928 289.678ZM176.205 291.572L176.232 290.995C176.098 291.093 175.901 291.174 175.641 291.237C175.247 291.263 174.943 291.295 174.728 291.331C173.984 291.456 173.532 291.559 173.371 291.64C172.977 291.828 172.78 292.168 172.78 292.66C172.78 293.055 172.896 293.363 173.129 293.587C173.371 293.811 173.693 293.923 174.096 293.923C174.356 293.923 174.593 293.887 174.808 293.816C175.032 293.744 175.247 293.628 175.453 293.466C175.668 293.296 175.838 293.05 175.964 292.728C176.098 292.405 176.178 292.02 176.205 291.572ZM184.006 291.304H180.634V294.487H179.452V287.664H180.634V290.471H184.006V287.664H185.188V294.487H184.006V291.304ZM191.68 291.304H188.308V294.487H187.126V287.664H188.308V290.471H191.68V287.664H192.862V294.487H191.68V291.304ZM194.8 294.487V287.664H195.982V290.364H197.702C198.248 290.364 198.705 290.417 199.072 290.525C199.949 290.749 200.406 291.389 200.442 292.446C200.442 293.072 200.249 293.569 199.864 293.937C199.488 294.304 198.902 294.487 198.105 294.487H194.8ZM197.42 291.196H195.982V293.654H197.634C198.691 293.654 199.219 293.225 199.219 292.365C199.219 291.944 199.081 291.64 198.803 291.452C198.714 291.38 198.566 291.322 198.36 291.277C198.145 291.223 197.831 291.196 197.42 291.196ZM201.275 294.487V287.664H202.457V294.487H201.275ZM208.795 294.487H207.882L205.571 289.007H205.544L205.571 289.37V294.487H204.389V287.664H206.015L208.338 293.211L210.662 287.664H212.288V294.487H211.105V289.37L211.146 289.007H211.105L208.795 294.487ZM221.997 288.496H218.545V294.487H217.363V287.664H223.179V294.487H221.997V288.496ZM224.323 294.487V293.614C224.994 293.811 225.469 293.493 225.747 292.66C225.818 292.455 225.867 292.199 225.894 291.895L225.948 291.075C225.957 290.932 225.961 290.65 225.961 290.229V287.664H230.69V294.487H229.508V288.496H227.063V290.229C227.063 290.793 227.049 291.268 227.023 291.653C226.996 292.029 226.929 292.441 226.821 292.889C226.669 293.525 226.396 293.977 226.002 294.246C225.608 294.514 225.048 294.595 224.323 294.487ZM233.519 289.678H232.39C232.39 289.141 232.569 288.649 232.927 288.201C233.357 287.664 234.145 287.395 235.292 287.395C235.963 287.395 236.554 287.529 237.065 287.798C237.36 287.941 237.593 288.178 237.763 288.51C237.933 288.841 238.014 289.235 238.005 289.692L237.938 292.849C237.938 293.108 237.965 293.31 238.018 293.453C238.099 293.596 238.309 293.663 238.65 293.654V294.487C238.515 294.523 238.336 294.541 238.112 294.541C237.718 294.541 237.432 294.474 237.253 294.34C237.083 294.205 236.962 293.941 236.89 293.547C236.451 294.353 235.672 294.756 234.553 294.756C233.783 294.756 233.187 294.586 232.766 294.246C232.354 293.896 232.148 293.381 232.148 292.701C232.148 292.056 232.381 291.568 232.847 291.237C233.313 290.887 234.195 290.655 235.493 290.538C236.093 290.493 236.451 290.435 236.568 290.364C236.738 290.247 236.823 289.992 236.823 289.598C236.823 288.684 236.312 288.228 235.292 288.228C234.083 288.228 233.492 288.711 233.519 289.678ZM236.796 291.572L236.823 290.995C236.689 291.093 236.492 291.174 236.232 291.237C235.838 291.263 235.533 291.295 235.318 291.331C234.575 291.456 234.123 291.559 233.962 291.64C233.568 291.828 233.371 292.168 233.371 292.66C233.371 293.055 233.487 293.363 233.72 293.587C233.962 293.811 234.284 293.923 234.687 293.923C234.947 293.923 235.184 293.887 235.399 293.816C235.623 293.744 235.838 293.628 236.044 293.466C236.259 293.296 236.429 293.05 236.554 292.728C236.689 292.405 236.769 292.02 236.796 291.572ZM244.825 292.056H245.953C245.918 292.575 245.721 293.122 245.362 293.695C245.165 294.017 244.856 294.277 244.436 294.474C244.024 294.662 243.54 294.756 242.985 294.756C242.797 294.756 242.662 294.751 242.582 294.743C242.188 294.725 241.785 294.622 241.373 294.434C240.227 293.86 239.654 292.723 239.654 291.022C239.654 290.126 239.86 289.329 240.272 288.631C240.782 287.807 241.66 287.395 242.904 287.395C243.782 287.395 244.48 287.619 245 288.067C245.519 288.505 245.819 289.083 245.9 289.799H244.771C244.592 288.752 243.979 288.228 242.931 288.228C242.251 288.228 241.74 288.478 241.4 288.98C241.068 289.472 240.903 290.153 240.903 291.022C240.903 291.863 241.077 292.557 241.427 293.104C241.776 293.65 242.304 293.923 243.012 293.923C243.621 293.923 244.064 293.731 244.342 293.346C244.637 292.96 244.798 292.531 244.825 292.056ZM248.738 294.487V288.496H246.374V287.664H252.284V288.496H249.92V294.487H248.738ZM254.369 287.664V293.104L257.929 287.664H259.245V294.487H258.063V289.034L254.517 294.487H253.187V287.664H254.369ZM262.358 287.664V290.646L265.273 287.664H266.656L263.459 290.834L266.831 294.487H265.42L262.358 291.075V294.487H261.176V287.664H262.358ZM267.284 292.419C267.051 291.461 267.06 290.534 267.31 289.638C267.561 288.743 268.09 288.102 268.896 287.717C269.343 287.502 269.867 287.395 270.467 287.395C271.067 287.395 271.591 287.502 272.039 287.717C272.845 288.093 273.378 288.765 273.637 289.732C273.754 290.18 273.812 290.632 273.812 291.089C273.821 291.537 273.767 291.98 273.651 292.419C273.543 292.849 273.351 293.243 273.073 293.601C272.804 293.959 272.46 294.241 272.039 294.447C271.582 294.653 271.058 294.756 270.467 294.756C269.876 294.756 269.352 294.653 268.896 294.447C268.116 294.071 267.579 293.395 267.284 292.419ZM268.533 289.719C268.416 290.077 268.358 290.525 268.358 291.062C268.358 291.59 268.416 292.043 268.533 292.419C268.649 292.795 268.784 293.077 268.936 293.265C269.258 293.623 269.625 293.834 270.037 293.896C270.324 293.941 270.61 293.941 270.897 293.896C271.022 293.887 271.197 293.825 271.421 293.708C271.663 293.583 271.86 293.426 272.012 293.238C272.164 293.05 272.294 292.777 272.401 292.419C272.518 292.043 272.576 291.59 272.576 291.062C272.576 290.525 272.518 290.077 272.401 289.719C272.276 289.325 272.137 289.043 271.985 288.873C271.842 288.702 271.663 288.559 271.448 288.443C271.233 288.326 271.049 288.255 270.897 288.228C270.61 288.183 270.324 288.183 270.037 288.228C269.912 288.237 269.733 288.304 269.5 288.429C269.043 288.653 268.721 289.083 268.533 289.719ZM279.775 294.487H278.862L276.551 289.007H276.524L276.551 289.37V294.487H275.369V287.664H276.994L279.318 293.211L281.642 287.664H283.267V294.487H282.085V289.37L282.126 289.007H282.085L279.775 294.487Z" fill="black"/>
<rect x="16.9622" y="16.1191" width="5.37302" height="5.37302" fill="black"/>
<rect x="16.9622" y="223.517" width="5.37302" height="5.37302" fill="black"/>
<rect x="299.045" y="16.1191" width="5.37302" height="5.37302" fill="black"/>
<rect x="75.5281" y="223.517" width="5.37302" height="5.37302" fill="black"/>
<rect x="299.045" y="223.517" width="5.37302" height="5.37302" fill="black"/>
</svg>
