<svg width="320" height="320" viewBox="0 0 320 320" fill="none" xmlns="http://www.w3.org/2000/svg">
<rect width="319.694" height="319.694" fill="#FFFF00"/>
<path d="M95.0055 23.6567L100.945 36.0979L105.91 23.6567H108.836L101.832 40.6488C101.024 42.5204 100.128 43.6828 99.1427 44.1359C98.4137 44.4708 97.5567 44.6383 96.5717 44.6383C95.7048 44.6383 94.9365 44.5398 94.2667 44.3428V41.9195C94.9168 42.1363 95.5669 42.2446 96.2171 42.2446C96.6899 42.2446 97.0839 42.1954 97.3991 42.0969C97.7341 41.9983 98.0985 41.7127 98.4925 41.2399C98.8866 40.767 99.2116 40.0873 99.4678 39.2008L91.607 23.6567H95.0055ZM109.619 39.7918C109.106 37.6838 109.126 35.6448 109.678 33.6746C110.229 31.7045 111.392 30.2959 113.165 29.4488C114.15 28.9759 115.302 28.7395 116.622 28.7395C117.942 28.7395 119.095 28.9759 120.08 29.4488C121.853 30.2762 123.025 31.7538 123.597 33.8815C123.853 34.8666 123.981 35.8615 123.981 36.8662C124 37.8513 123.882 38.8265 123.626 39.7918C123.39 40.7375 122.966 41.6043 122.355 42.3924C121.764 43.1804 121.006 43.801 120.08 44.2541C119.075 44.7072 117.923 44.9338 116.622 44.9338C115.322 44.9338 114.17 44.7072 113.165 44.2541C111.451 43.4267 110.269 41.9392 109.619 39.7918ZM112.367 33.852C112.111 34.64 111.983 35.6251 111.983 36.8071C111.983 37.9695 112.111 38.9644 112.367 39.7918C112.623 40.6193 112.919 41.2399 113.254 41.6536C113.963 42.4416 114.771 42.9046 115.677 43.0425C116.307 43.141 116.938 43.141 117.568 43.0425C117.844 43.0228 118.228 42.8849 118.721 42.6288C119.253 42.353 119.686 42.0082 120.021 41.5945C120.356 41.1808 120.641 40.5799 120.878 39.7918C121.134 38.9644 121.262 37.9695 121.262 36.8071C121.262 35.6251 121.134 34.64 120.878 33.852C120.602 32.9851 120.297 32.3645 119.962 31.9902C119.647 31.6159 119.253 31.3007 118.78 31.0446C118.307 30.7884 117.903 30.6308 117.568 30.5717C116.938 30.4732 116.307 30.4732 115.677 30.5717C115.401 30.5914 115.007 30.7392 114.495 31.015C113.49 31.5075 112.781 32.4532 112.367 33.852ZM127.42 49.7803V47.8594C128.169 47.9579 128.602 48.0072 128.72 48.0072C129.469 48.0072 130.001 47.7314 130.316 47.1797C130.513 46.8842 130.641 46.6379 130.7 46.4409C130.759 46.3424 130.887 46.0174 131.084 45.4657L131.439 44.3428L124.938 29.3306H128.041L132.858 41.4763L136.847 29.3306H139.448L133.478 46.1159C133.005 47.4555 132.601 48.3322 132.267 48.746C131.597 49.534 130.69 49.928 129.548 49.928C128.661 49.928 127.952 49.8788 127.42 49.7803ZM142.581 44.3428V41.1217H145.507V45.2589C145.507 46.2439 145.231 47.0221 144.68 47.5934C144.128 48.1648 143.429 48.5391 142.581 48.7164V47.0911C142.995 47.0517 143.34 46.8448 143.616 46.4705C143.911 46.1159 144.059 45.712 144.059 45.2589V44.3428H142.581ZM158.213 49.7803V47.8594C158.961 47.9579 159.395 48.0072 159.513 48.0072C160.262 48.0072 160.793 47.7314 161.109 47.1797C161.306 46.8842 161.434 46.6379 161.493 46.4409C161.552 46.3424 161.68 46.0174 161.877 45.4657L162.232 44.3428L155.73 29.3306H158.833L163.65 41.4763L167.64 29.3306H170.24L164.271 46.1159C163.798 47.4555 163.394 48.3322 163.059 48.746C162.389 49.534 161.483 49.928 160.34 49.928C159.454 49.928 158.745 49.8788 158.213 49.7803ZM170.626 44.3428V42.4219C172.103 42.8553 173.147 42.156 173.758 40.3238C173.916 39.8706 174.024 39.3092 174.083 38.6393L174.201 36.8367C174.221 36.5215 174.231 35.9009 174.231 34.9749V29.3306H184.633V44.3428H182.033V31.1628H176.654V34.9749C176.654 36.2161 176.625 37.2602 176.566 38.1074C176.506 38.9348 176.359 39.8411 176.122 40.8261C175.787 42.2249 175.186 43.2198 174.32 43.8108C173.453 44.4019 172.221 44.5792 170.626 44.3428ZM191.477 29.3306V41.299L199.308 29.3306H202.204V44.3428H199.604V32.3448L191.802 44.3428H188.877V29.3306H191.477ZM205.654 34.3543V29.3306H208.254V33.9406C208.254 34.7484 208.392 35.3492 208.668 35.7433C209.003 36.1767 209.998 36.3934 211.653 36.3934C211.81 36.3934 212.382 36.3737 213.367 36.3343C213.465 36.3146 213.672 36.3047 213.987 36.3047H214.608V29.3306H217.208V44.3428H214.608V38.1369C213.741 38.196 212.579 38.2256 211.121 38.2256C208.599 38.2256 207.013 37.8316 206.363 37.0435C206.067 36.6495 205.87 36.2752 205.772 35.9206C205.693 35.566 205.654 35.0439 205.654 34.3543ZM231.476 37.339H224.059V44.3428H221.458V29.3306H224.059V35.5068H231.476V29.3306H234.077V44.3428H231.476V37.339ZM238.341 44.3428V29.3306H240.941V35.2704H244.724C245.926 35.2704 246.93 35.3886 247.738 35.6251C249.669 36.1176 250.674 37.5262 250.752 39.8509C250.752 41.23 250.329 42.3234 249.482 43.1312C248.654 43.9389 247.364 44.3428 245.611 44.3428H238.341ZM244.103 37.1026H240.941V42.5106H244.576C246.901 42.5106 248.063 41.5649 248.063 39.6736C248.063 38.7477 247.758 38.0778 247.147 37.6641C246.95 37.5065 246.625 37.3784 246.172 37.2799C245.699 37.1617 245.01 37.1026 244.103 37.1026ZM252.585 44.3428V29.3306H255.185V44.3428H252.585ZM262.037 29.3306V41.299L269.868 29.3306H272.764V44.3428H270.164V32.3448L262.362 44.3428H259.437V29.3306H262.037ZM268.893 23.6567H271.11C270.696 25.8238 269.396 27.0945 267.209 27.4688C266.834 27.5279 266.44 27.5575 266.027 27.5575C263.485 27.5575 261.86 26.5232 261.151 24.4546C261.092 24.3166 261.023 24.0507 260.944 23.6567H263.16C263.101 24.1689 263.278 24.6516 263.692 25.1047C263.988 25.4199 264.332 25.6563 264.726 25.8139C265.081 25.9321 265.514 25.9912 266.027 25.9912C266.874 25.9912 267.573 25.7844 268.125 25.3707C268.677 24.9372 268.933 24.3659 268.893 23.6567ZM103.664 67.4573H97.1923V65.6251H103.664C103.644 64.7385 103.516 63.9702 103.28 63.32C103.043 62.6699 102.768 62.1774 102.452 61.8425C102.137 61.5075 101.763 61.2416 101.33 61.0446C100.896 60.8278 100.532 60.6998 100.236 60.6604C99.9603 60.6013 99.6845 60.5717 99.4086 60.5717C98.1281 60.5717 97.0938 60.8968 96.3057 61.5469C95.5374 62.1774 95.1138 63.0048 95.035 64.0293H92.5527C92.8088 61.9607 93.784 60.4535 95.4783 59.5079C95.9117 59.2321 96.3845 59.0548 96.8968 58.9759C97.7045 58.8183 98.4531 58.7395 99.1427 58.7395C103.989 58.7395 106.412 61.478 106.412 66.9549C106.412 72.2742 104.038 74.9338 99.2904 74.9338C98.1281 74.9338 97.1135 74.786 96.2466 74.4905C94.2371 73.8601 92.9664 72.0772 92.4345 69.1417H94.9168C95.2517 71.7816 96.7096 73.1016 99.2904 73.1016C100.236 73.1016 101.034 72.8947 101.684 72.481C102.334 72.0476 102.787 71.4763 103.043 70.767C103.457 69.6047 103.664 68.5014 103.664 67.4573ZM112.403 59.3306V65.891L118.816 59.3306H121.86L114.827 66.3047L122.244 74.3428H119.141L112.403 66.8367V74.3428H109.803V59.3306H112.403ZM123.24 69.7918C122.728 67.6838 122.748 65.6448 123.299 63.6746C123.851 61.7045 125.013 60.2959 126.786 59.4488C127.771 58.9759 128.924 58.7395 130.244 58.7395C131.564 58.7395 132.716 58.9759 133.701 59.4488C135.475 60.2762 136.647 61.7538 137.218 63.8815C137.474 64.8666 137.602 65.8615 137.602 66.8662C137.622 67.8513 137.504 68.8265 137.248 69.7918C137.011 70.7375 136.588 71.6043 135.977 72.3924C135.386 73.1804 134.627 73.801 133.701 74.2541C132.697 74.7072 131.544 74.9338 130.244 74.9338C128.944 74.9338 127.791 74.7072 126.786 74.2541C125.072 73.4267 123.89 71.9392 123.24 69.7918ZM125.988 63.852C125.732 64.64 125.604 65.6251 125.604 66.8071C125.604 67.9695 125.732 68.9644 125.988 69.7918C126.245 70.6193 126.54 71.2399 126.875 71.6536C127.584 72.4416 128.392 72.9046 129.298 73.0425C129.929 73.141 130.559 73.141 131.19 73.0425C131.465 73.0228 131.85 72.8849 132.342 72.6288C132.874 72.353 133.307 72.0082 133.642 71.5945C133.977 71.1808 134.263 70.5799 134.499 69.7918C134.755 68.9644 134.883 67.9695 134.883 66.8071C134.883 65.6251 134.755 64.64 134.499 63.852C134.223 62.9851 133.918 62.3645 133.583 61.9902C133.268 61.6159 132.874 61.3007 132.401 61.0446C131.928 60.7884 131.524 60.6308 131.19 60.5717C130.559 60.4732 129.929 60.4732 129.298 60.5717C129.022 60.5914 128.628 60.7392 128.116 61.015C127.111 61.5075 126.402 62.4532 125.988 63.852ZM149.037 67.6937H141.235V65.1818H149.037V67.6937ZM156.096 59.3306V65.891L162.509 59.3306H165.552L158.519 66.3047L165.937 74.3428H162.834L156.096 66.8367V74.3428H153.495V59.3306H156.096ZM167.954 74.3428V59.3306H175.105C178.277 59.3306 179.863 60.5225 179.863 62.9063C179.863 64.6203 178.957 65.7925 177.144 66.4229V66.5116C178.366 66.8071 179.213 67.2799 179.686 67.9301C180.178 68.5802 180.425 69.4175 180.425 70.442C180.425 72.0772 179.824 73.1607 178.622 73.6926C177.637 74.1261 176.435 74.3428 175.017 74.3428H167.954ZM174.278 61.1628H170.554V65.5955H174.16C175.204 65.5955 175.972 65.3886 176.465 64.9749C176.977 64.5415 177.233 63.98 177.233 63.2905C177.233 61.872 176.248 61.1628 174.278 61.1628ZM174.278 67.4277H170.554V72.5106H174.366C176.612 72.5106 177.735 71.7422 177.735 70.2056C177.735 68.3537 176.583 67.4277 174.278 67.4277ZM194.7 69.9987H197.182C196.946 71.3187 196.305 72.4712 195.261 73.4562C194.217 74.4413 192.671 74.9338 190.622 74.9338C187.844 74.9338 185.805 74.0177 184.505 72.1855C183.854 71.2202 183.431 70.1859 183.234 69.0826C183.096 68.3142 183.027 67.5853 183.027 66.8958C183.027 65.5758 183.224 64.3346 183.618 63.1723C183.874 62.3448 184.248 61.6257 184.741 61.015C185.273 60.3649 186.031 59.8231 187.016 59.3897C188.001 58.9562 189.115 58.7395 190.356 58.7395C192.562 58.7395 194.227 59.3503 195.35 60.5717C195.823 61.084 196.207 61.7341 196.502 62.5221C196.936 63.6648 197.202 65.0537 197.3 66.6889C197.3 66.748 197.3 66.8761 197.3 67.0731C197.32 67.2701 197.33 67.3883 197.33 67.4277H185.775C185.775 68.925 186.169 70.245 186.957 71.3876C187.745 72.5303 188.937 73.1016 190.533 73.1016C191.676 73.1016 192.612 72.8159 193.34 72.2446C194.069 71.6733 194.523 70.9246 194.7 69.9987ZM185.775 65.5955H194.582C194.562 64.4331 194.286 63.3594 193.754 62.3744C193.143 61.1726 192.03 60.5717 190.415 60.5717C188.583 60.5717 187.322 61.1825 186.632 62.4039C186.061 63.389 185.775 64.4528 185.775 65.5955ZM211.258 68.9939H213.74C213.661 70.1366 213.228 71.3384 212.44 72.5992C212.007 73.3085 211.327 73.8798 210.401 74.3132C209.495 74.7269 208.431 74.9338 207.209 74.9338C206.796 74.9338 206.5 74.924 206.323 74.9043C205.456 74.8649 204.569 74.6383 203.663 74.2246C201.141 72.9637 199.881 70.4617 199.881 66.7185C199.881 64.7484 200.334 62.995 201.24 61.4583C202.363 59.6458 204.294 58.7395 207.032 58.7395C208.963 58.7395 210.499 59.2321 211.642 60.2171C212.785 61.1825 213.445 62.4532 213.622 64.0293H211.14C210.746 61.7242 209.396 60.5717 207.091 60.5717C205.594 60.5717 204.471 61.1234 203.722 62.2266C202.993 63.3102 202.629 64.8075 202.629 66.7185C202.629 68.5704 203.013 70.0972 203.781 71.299C204.55 72.5007 205.712 73.1016 207.268 73.1016C208.608 73.1016 209.583 72.678 210.194 71.8309C210.844 70.9837 211.199 70.0381 211.258 68.9939ZM219.866 74.3428V61.1628H214.664V59.3306H227.667V61.1628H222.466V74.3428H219.866Z" fill="black"/>
<path d="M20.9279 104.021H16.1996V102.573H16.8202C18.1205 102.573 19.2237 102.238 20.13 101.568C21.0559 100.878 21.5977 99.9821 21.7553 98.8788H23.7057V119.565H20.9279V104.021ZM32.2667 117.23H43.2008V119.565H29.1933C29.0751 117.516 29.7252 115.644 31.1437 113.95C31.4392 113.576 31.9318 113.123 32.6213 112.591C33.429 111.96 33.9708 111.556 34.2466 111.379L36.197 110.138L36.7881 109.783L37.4382 109.34L37.9701 108.956C38.3445 108.7 38.5809 108.522 38.6794 108.424C39.2901 107.734 39.6349 107.321 39.7137 107.183C40.1865 106.158 40.4229 105.282 40.4229 104.553C40.4229 103.292 40.0486 102.317 39.3 101.627C38.571 100.938 37.5564 100.593 36.2561 100.593C34.9362 100.593 33.892 100.967 33.1237 101.716C32.3553 102.464 31.9712 103.459 31.9712 104.7V105.469H29.2524V104.848C29.2524 103.784 29.479 102.75 29.9321 101.745C30.8975 99.4797 33.035 98.3173 36.3448 98.2582C38.4725 98.2582 40.1569 98.8197 41.3981 99.9427C42.6393 101.046 43.2599 102.573 43.2599 104.523C43.3584 106.139 42.856 107.606 41.7527 108.926C41.5163 109.222 41.073 109.616 40.4229 110.108C39.8516 110.542 39.3098 110.936 38.7976 111.29C38.443 111.527 37.714 112 36.6108 112.709C35.212 113.596 34.1875 114.384 33.5374 115.073C32.8873 115.743 32.4637 116.462 32.2667 117.23ZM50.7092 119.565H47.7836V116.344H50.7092V119.565ZM63.7576 120.067C62.871 120.225 61.9549 120.225 61.0093 120.067C60.5759 120.008 59.975 119.772 59.2066 119.358C58.3989 118.925 57.7291 118.343 57.1971 117.615C56.6652 116.886 56.1924 115.822 55.7787 114.423C55.3649 112.945 55.1581 111.212 55.1581 109.222C55.1581 107.212 55.3649 105.489 55.7787 104.05C56.2318 102.553 56.7145 101.46 57.2267 100.77C57.7192 100.12 58.3398 99.5782 59.0884 99.1448C59.8568 98.7114 60.4971 98.4553 61.0093 98.3765C61.9549 98.2188 62.871 98.2188 63.7576 98.3765C64.2107 98.4356 64.8214 98.672 65.5898 99.0857C66.4172 99.5191 67.0871 100.1 67.5993 100.829C68.1312 101.558 68.5942 102.632 68.9882 104.05C69.4216 105.469 69.6384 107.193 69.6384 109.222C69.6384 111.251 69.4216 112.985 68.9882 114.423C68.5548 115.901 68.0721 116.984 67.5402 117.674C67.0083 118.383 66.3581 118.944 65.5898 119.358C64.8214 119.772 64.2107 120.008 63.7576 120.067ZM58.9702 115.457C59.7189 117.053 60.8615 117.851 62.3982 117.851C63.9546 117.851 65.0874 117.053 65.7966 115.457C66.5256 113.881 66.8901 111.803 66.8901 109.222C66.8901 106.641 66.5256 104.563 65.7966 102.987C65.0874 101.391 63.9546 100.593 62.3982 100.593C60.8615 100.593 59.7189 101.391 58.9702 102.987C58.261 104.582 57.9064 106.661 57.9064 109.222C57.9064 111.783 58.261 113.861 58.9702 115.457ZM86.4851 103.43H84.0027C83.5299 101.46 82.2099 100.475 80.0428 100.475C76.6936 100.475 75.019 103.026 75.019 108.128H75.0782C76.1814 106.671 77.8659 105.942 80.1315 105.942C82.0622 105.942 83.6481 106.572 84.8893 107.833C86.1501 109.074 86.7806 110.759 86.7806 112.886C86.7806 115.093 86.1501 116.856 84.8893 118.176C83.6087 119.516 81.875 120.186 79.6882 120.186C78.4864 120.186 77.4521 120.008 76.5853 119.654C75.7184 119.319 74.9501 118.757 74.2803 117.969C73.6104 117.161 73.108 116.058 72.7731 114.659C72.4382 113.241 72.2708 111.517 72.2708 109.488C72.3299 105.134 73.1573 102.12 74.7531 100.445C75.6199 99.4994 76.6148 98.869 77.7378 98.5538C78.4273 98.3568 79.2055 98.2582 80.0724 98.2582C80.9195 98.2582 81.747 98.3863 82.5547 98.6424C83.1851 98.8591 83.7368 99.1251 84.2096 99.4403C85.4114 100.307 86.1698 101.637 86.4851 103.43ZM75.1964 112.945C75.1964 114.364 75.5904 115.556 76.3784 116.521C77.1665 117.486 78.3091 117.969 79.8064 117.969C81.2052 117.969 82.2789 117.477 83.0275 116.492C83.7565 115.526 84.1209 114.315 84.1209 112.857C84.1209 111.478 83.7269 110.355 82.9389 109.488C82.1705 108.601 81.1067 108.158 79.7473 108.158C78.3288 108.158 77.2157 108.591 76.408 109.458C75.6002 110.305 75.1964 111.468 75.1964 112.945ZM94.1708 119.565H91.2452V116.344H94.1708V119.565ZM102.048 117.23H112.982V119.565H98.9743C98.8561 117.516 99.5062 115.644 100.925 113.95C101.22 113.576 101.713 113.123 102.402 112.591C103.21 111.96 103.752 111.556 104.028 111.379L105.978 110.138L106.569 109.783L107.219 109.34L107.751 108.956C108.125 108.7 108.362 108.522 108.46 108.424C109.071 107.734 109.416 107.321 109.495 107.183C109.967 106.158 110.204 105.282 110.204 104.553C110.204 103.292 109.83 102.317 109.081 101.627C108.352 100.938 107.337 100.593 106.037 100.593C104.717 100.593 103.673 100.967 102.905 101.716C102.136 102.464 101.752 103.459 101.752 104.7V105.469H99.0334V104.848C99.0334 103.784 99.26 102.75 99.7131 101.745C100.678 99.4797 102.816 98.3173 106.126 98.2582C108.254 98.2582 109.938 98.8197 111.179 99.9427C112.42 101.046 113.041 102.573 113.041 104.523C113.139 106.139 112.637 107.606 111.534 108.926C111.297 109.222 110.854 109.616 110.204 110.108C109.633 110.542 109.091 110.936 108.579 111.29C108.224 111.527 107.495 112 106.392 112.709C104.993 113.596 103.969 114.384 103.318 115.073C102.668 115.743 102.245 116.462 102.048 117.23ZM124.361 120.067C123.475 120.225 122.559 120.225 121.613 120.067C121.18 120.008 120.579 119.772 119.81 119.358C119.003 118.925 118.333 118.343 117.801 117.615C117.269 116.886 116.796 115.822 116.382 114.423C115.969 112.945 115.762 111.212 115.762 109.222C115.762 107.212 115.969 105.489 116.382 104.05C116.836 102.553 117.318 101.46 117.831 100.77C118.323 100.12 118.944 99.5782 119.692 99.1448C120.461 98.7114 121.101 98.4553 121.613 98.3765C122.559 98.2188 123.475 98.2188 124.361 98.3765C124.815 98.4356 125.425 98.672 126.194 99.0857C127.021 99.5191 127.691 100.1 128.203 100.829C128.735 101.558 129.198 102.632 129.592 104.05C130.025 105.469 130.242 107.193 130.242 109.222C130.242 111.251 130.025 112.985 129.592 114.423C129.159 115.901 128.676 116.984 128.144 117.674C127.612 118.383 126.962 118.944 126.194 119.358C125.425 119.772 124.815 120.008 124.361 120.067ZM119.574 115.457C120.323 117.053 121.465 117.851 123.002 117.851C124.558 117.851 125.691 117.053 126.4 115.457C127.129 113.881 127.494 111.803 127.494 109.222C127.494 106.641 127.129 104.563 126.4 102.987C125.691 101.391 124.558 100.593 123.002 100.593C121.465 100.593 120.323 101.391 119.574 102.987C118.865 104.582 118.51 106.661 118.51 109.222C118.51 111.783 118.865 113.861 119.574 115.457ZM136.332 117.23H147.266V119.565H133.259C133.141 117.516 133.791 115.644 135.209 113.95C135.505 113.576 135.997 113.123 136.687 112.591C137.494 111.96 138.036 111.556 138.312 111.379L140.262 110.138L140.854 109.783L141.504 109.34L142.036 108.956C142.41 108.7 142.646 108.522 142.745 108.424C143.356 107.734 143.7 107.321 143.779 107.183C144.252 106.158 144.488 105.282 144.488 104.553C144.488 103.292 144.114 102.317 143.365 101.627C142.636 100.938 141.622 100.593 140.322 100.593C139.002 100.593 137.957 100.967 137.189 101.716C136.421 102.464 136.037 103.459 136.037 104.7V105.469H133.318V104.848C133.318 103.784 133.544 102.75 133.998 101.745C134.963 99.4797 137.1 98.3173 140.41 98.2582C142.538 98.2582 144.222 98.8197 145.464 99.9427C146.705 101.046 147.325 102.573 147.325 104.523C147.424 106.139 146.921 107.606 145.818 108.926C145.582 109.222 145.138 109.616 144.488 110.108C143.917 110.542 143.375 110.936 142.863 111.29C142.508 111.527 141.779 112 140.676 112.709C139.277 113.596 138.253 114.384 137.603 115.073C136.953 115.743 136.529 116.462 136.332 117.23ZM150.076 114.275H152.795C152.893 115.201 153.277 116.048 153.947 116.817C154.617 117.585 155.651 117.969 157.05 117.969C160.261 117.969 161.867 116.265 161.867 112.857C161.867 111.162 161.424 109.931 160.537 109.163C159.69 108.375 158.616 107.981 157.316 107.981C156.587 107.981 155.809 108.148 154.981 108.483C154.134 108.818 153.563 109.251 153.267 109.783H150.667L152.115 98.8788H163.285V101.213H154.154L153.327 107.331C154.528 106.286 156.085 105.764 157.996 105.764C159.926 105.764 161.483 106.405 162.665 107.685C163.867 108.946 164.468 110.66 164.468 112.827C164.468 115.073 163.827 116.866 162.547 118.206C161.266 119.526 159.434 120.186 157.05 120.186C154.509 120.186 152.706 119.486 151.642 118.087C150.716 116.886 150.194 115.615 150.076 114.275ZM20.9279 134.021H16.1996V132.573H16.8202C18.1205 132.573 19.2237 132.238 20.13 131.568C21.0559 130.878 21.5977 129.982 21.7553 128.879H23.7057V149.565H20.9279V134.021ZM32.2667 147.23H43.2008V149.565H29.1933C29.0751 147.516 29.7252 145.644 31.1437 143.95C31.4392 143.576 31.9318 143.123 32.6213 142.591C33.429 141.96 33.9708 141.556 34.2466 141.379L36.197 140.138L36.7881 139.783L37.4382 139.34L37.9701 138.956C38.3445 138.7 38.5809 138.522 38.6794 138.424C39.2901 137.734 39.6349 137.321 39.7137 137.183C40.1865 136.158 40.4229 135.282 40.4229 134.553C40.4229 133.292 40.0486 132.317 39.3 131.627C38.571 130.938 37.5564 130.593 36.2561 130.593C34.9362 130.593 33.892 130.967 33.1237 131.716C32.3553 132.464 31.9712 133.459 31.9712 134.7V135.469H29.2524V134.848C29.2524 133.784 29.479 132.75 29.9321 131.745C30.8975 129.48 33.035 128.317 36.3448 128.258C38.4725 128.258 40.1569 128.82 41.3981 129.943C42.6393 131.046 43.2599 132.573 43.2599 134.523C43.3584 136.139 42.856 137.606 41.7527 138.926C41.5163 139.222 41.073 139.616 40.4229 140.108C39.8516 140.542 39.3098 140.936 38.7976 141.29C38.443 141.527 37.714 142 36.6108 142.709C35.212 143.596 34.1875 144.384 33.5374 145.073C32.8873 145.743 32.4637 146.462 32.2667 147.23ZM50.7092 137.774H47.7836V134.553H50.7092V137.774ZM50.7092 149.565H47.7836V146.344H50.7092V149.565ZM63.7576 150.067C62.871 150.225 61.9549 150.225 61.0093 150.067C60.5759 150.008 59.975 149.772 59.2066 149.358C58.3989 148.925 57.7291 148.343 57.1971 147.615C56.6652 146.886 56.1924 145.822 55.7787 144.423C55.3649 142.945 55.1581 141.212 55.1581 139.222C55.1581 137.212 55.3649 135.489 55.7787 134.05C56.2318 132.553 56.7145 131.46 57.2267 130.77C57.7192 130.12 58.3398 129.578 59.0884 129.145C59.8568 128.711 60.4971 128.455 61.0093 128.376C61.9549 128.219 62.871 128.219 63.7576 128.376C64.2107 128.436 64.8214 128.672 65.5898 129.086C66.4172 129.519 67.0871 130.1 67.5993 130.829C68.1312 131.558 68.5942 132.632 68.9882 134.05C69.4216 135.469 69.6384 137.193 69.6384 139.222C69.6384 141.251 69.4216 142.985 68.9882 144.423C68.5548 145.901 68.0721 146.984 67.5402 147.674C67.0083 148.383 66.3581 148.944 65.5898 149.358C64.8214 149.772 64.2107 150.008 63.7576 150.067ZM58.9702 145.457C59.7189 147.053 60.8615 147.851 62.3982 147.851C63.9546 147.851 65.0874 147.053 65.7966 145.457C66.5256 143.881 66.8901 141.803 66.8901 139.222C66.8901 136.641 66.5256 134.563 65.7966 132.987C65.0874 131.391 63.9546 130.593 62.3982 130.593C60.8615 130.593 59.7189 131.391 58.9702 132.987C58.261 134.582 57.9064 136.661 57.9064 139.222C57.9064 141.783 58.261 143.861 58.9702 145.457ZM80.8998 150.067C80.0133 150.225 79.0972 150.225 78.1515 150.067C77.7181 150.008 77.1172 149.772 76.3489 149.358C75.5411 148.925 74.8713 148.343 74.3394 147.615C73.8074 146.886 73.3346 145.822 72.9209 144.423C72.5072 142.945 72.3003 141.212 72.3003 139.222C72.3003 137.212 72.5072 135.489 72.9209 134.05C73.374 132.553 73.8567 131.46 74.3689 130.77C74.8614 130.12 75.482 129.578 76.2307 129.145C76.999 128.711 77.6393 128.455 78.1515 128.376C79.0972 128.219 80.0133 128.219 80.8998 128.376C81.3529 128.436 81.9637 128.672 82.732 129.086C83.5595 129.519 84.2293 130.1 84.7415 130.829C85.2735 131.558 85.7364 132.632 86.1304 134.05C86.5639 135.469 86.7806 137.193 86.7806 139.222C86.7806 141.251 86.5639 142.985 86.1304 144.423C85.697 145.901 85.2143 146.984 84.6824 147.674C84.1505 148.383 83.5004 148.944 82.732 149.358C81.9637 149.772 81.3529 150.008 80.8998 150.067ZM76.1125 145.457C76.8611 147.053 78.0038 147.851 79.5404 147.851C81.0968 147.851 82.2296 147.053 82.9389 145.457C83.6678 143.881 84.0323 141.803 84.0323 139.222C84.0323 136.641 83.6678 134.563 82.9389 132.987C82.2296 131.391 81.0968 130.593 79.5404 130.593C78.0038 130.593 76.8611 131.391 76.1125 132.987C75.4032 134.582 75.0486 136.661 75.0486 139.222C75.0486 141.783 75.4032 143.861 76.1125 145.457Z" fill="black"/>
<path d="M98.9039 249.487H97.8831L94.8204 241.589H94.7936L94.8204 241.952V249.487H93.5578V240.085H95.4518L98.3935 247.822L101.335 240.085H103.229V249.487H101.967V241.952L101.993 241.589H101.953L98.9039 249.487ZM105.333 249.487V242.664H106.515V245.364H108.235C108.781 245.364 109.238 245.417 109.605 245.525C110.483 245.749 110.939 246.389 110.975 247.446C110.975 248.072 110.783 248.569 110.397 248.937C110.021 249.304 109.435 249.487 108.638 249.487H105.333ZM107.953 246.196H106.515V248.654H108.168C109.224 248.654 109.753 248.225 109.753 247.365C109.753 246.944 109.614 246.64 109.336 246.452C109.247 246.38 109.099 246.322 108.893 246.277C108.678 246.223 108.365 246.196 107.953 246.196ZM111.808 249.487V242.664H112.99V249.487H111.808ZM117.52 247.392H118.649C118.649 247.84 118.81 248.207 119.132 248.493C119.455 248.78 119.898 248.923 120.462 248.923C121.017 248.923 121.452 248.811 121.765 248.587C122.078 248.354 122.235 248.019 122.235 247.58C122.235 246.765 121.72 246.358 120.69 246.358H119.683V245.525H120.556C121.505 245.525 121.98 245.171 121.98 244.464C121.98 244.347 121.962 244.231 121.926 244.114C121.899 243.998 121.837 243.868 121.738 243.725C121.649 243.573 121.492 243.452 121.268 243.362C121.044 243.273 120.766 243.228 120.435 243.228C119.844 243.228 119.428 243.367 119.186 243.644C118.944 243.922 118.823 244.222 118.823 244.544H117.695C117.722 244.078 117.843 243.689 118.058 243.375C118.272 243.062 118.55 242.838 118.89 242.704C119.446 242.498 119.983 242.395 120.502 242.395C120.959 242.395 121.362 242.449 121.711 242.556C122.06 242.655 122.325 242.776 122.504 242.919C122.692 243.062 122.84 243.232 122.947 243.429C123.063 243.626 123.135 243.801 123.162 243.953C123.189 244.096 123.202 244.24 123.202 244.383C123.202 245.18 122.808 245.677 122.02 245.874V245.914C122.441 245.977 122.786 246.161 123.054 246.465C123.323 246.769 123.457 247.168 123.457 247.66C123.457 248.162 123.278 248.619 122.92 249.031C122.481 249.514 121.693 249.756 120.556 249.756C119.598 249.756 118.868 249.554 118.367 249.151C117.802 248.659 117.52 248.072 117.52 247.392ZM125.897 244.678H124.768C124.768 244.141 124.948 243.649 125.306 243.201C125.736 242.664 126.524 242.395 127.67 242.395C128.342 242.395 128.933 242.529 129.443 242.798C129.739 242.941 129.971 243.178 130.142 243.51C130.312 243.841 130.392 244.235 130.383 244.692L130.316 247.849C130.316 248.108 130.343 248.31 130.397 248.453C130.477 248.596 130.688 248.663 131.028 248.654V249.487C130.894 249.523 130.715 249.541 130.491 249.541C130.097 249.541 129.81 249.474 129.631 249.34C129.461 249.205 129.34 248.941 129.268 248.547C128.83 249.353 128.051 249.756 126.931 249.756C126.161 249.756 125.565 249.586 125.145 249.246C124.733 248.896 124.527 248.381 124.527 247.701C124.527 247.056 124.76 246.568 125.225 246.237C125.691 245.887 126.573 245.655 127.871 245.538C128.471 245.493 128.83 245.435 128.946 245.364C129.116 245.247 129.201 244.992 129.201 244.598C129.201 243.684 128.691 243.228 127.67 243.228C126.461 243.228 125.87 243.711 125.897 244.678ZM129.174 246.572L129.201 245.995C129.067 246.093 128.87 246.174 128.61 246.237C128.216 246.263 127.912 246.295 127.697 246.331C126.954 246.456 126.501 246.559 126.34 246.64C125.946 246.828 125.749 247.168 125.749 247.66C125.749 248.055 125.865 248.363 126.098 248.587C126.34 248.811 126.662 248.923 127.065 248.923C127.325 248.923 127.562 248.887 127.777 248.816C128.001 248.744 128.216 248.628 128.422 248.466C128.637 248.296 128.807 248.05 128.933 247.728C129.067 247.405 129.148 247.02 129.174 246.572ZM137.056 243.496H133.604V249.487H132.421V242.664H138.238V249.487H137.056V243.496ZM140.429 251.959V251.086C140.77 251.131 140.967 251.153 141.02 251.153C141.361 251.153 141.602 251.028 141.746 250.777C141.835 250.643 141.893 250.531 141.92 250.441C141.947 250.396 142.005 250.248 142.095 249.998L142.256 249.487L139.301 242.664H140.711L142.901 248.184L144.714 242.664H145.896L143.183 250.293C142.968 250.902 142.784 251.301 142.632 251.489C142.328 251.847 141.916 252.026 141.396 252.026C140.993 252.026 140.671 252.004 140.429 251.959ZM151.646 247.056H152.774C152.739 247.575 152.542 248.122 152.183 248.695C151.986 249.017 151.677 249.277 151.257 249.474C150.845 249.662 150.361 249.756 149.806 249.756C149.618 249.756 149.483 249.751 149.403 249.743C149.009 249.725 148.606 249.622 148.194 249.434C147.048 248.86 146.475 247.723 146.475 246.022C146.475 245.126 146.68 244.329 147.092 243.631C147.603 242.807 148.48 242.395 149.725 242.395C150.603 242.395 151.301 242.619 151.821 243.067C152.34 243.505 152.64 244.083 152.721 244.799H151.592C151.413 243.752 150.8 243.228 149.752 243.228C149.071 243.228 148.561 243.478 148.221 243.98C147.889 244.472 147.724 245.153 147.724 246.022C147.724 246.863 147.898 247.557 148.248 248.104C148.597 248.65 149.125 248.923 149.833 248.923C150.442 248.923 150.885 248.731 151.162 248.346C151.458 247.96 151.619 247.531 151.646 247.056ZM155.405 242.664V245.646L158.32 242.664H159.704L156.507 245.834L159.878 249.487H158.468L155.405 246.075V249.487H154.223V242.664H155.405ZM161.695 244.678H160.567C160.567 244.141 160.746 243.649 161.104 243.201C161.534 242.664 162.322 242.395 163.468 242.395C164.14 242.395 164.731 242.529 165.241 242.798C165.537 242.941 165.77 243.178 165.94 243.51C166.11 243.841 166.19 244.235 166.182 244.692L166.114 247.849C166.114 248.108 166.141 248.31 166.195 248.453C166.276 248.596 166.486 248.663 166.826 248.654V249.487C166.692 249.523 166.513 249.541 166.289 249.541C165.895 249.541 165.608 249.474 165.429 249.34C165.259 249.205 165.138 248.941 165.067 248.547C164.628 249.353 163.849 249.756 162.729 249.756C161.959 249.756 161.364 249.586 160.943 249.246C160.531 248.896 160.325 248.381 160.325 247.701C160.325 247.056 160.558 246.568 161.023 246.237C161.489 245.887 162.371 245.655 163.67 245.538C164.27 245.493 164.628 245.435 164.744 245.364C164.914 245.247 164.999 244.992 164.999 244.598C164.999 243.684 164.489 243.228 163.468 243.228C162.259 243.228 161.668 243.711 161.695 244.678ZM164.973 246.572L164.999 245.995C164.865 246.093 164.668 246.174 164.408 246.237C164.014 246.263 163.71 246.295 163.495 246.331C162.752 246.456 162.3 246.559 162.138 246.64C161.744 246.828 161.547 247.168 161.547 247.66C161.547 248.055 161.664 248.363 161.897 248.587C162.138 248.811 162.461 248.923 162.864 248.923C163.123 248.923 163.361 248.887 163.576 248.816C163.8 248.744 164.014 248.628 164.22 248.466C164.435 248.296 164.605 248.05 164.731 247.728C164.865 247.405 164.946 247.02 164.973 246.572ZM173.136 247.513H174.264C174.157 248.113 173.866 248.637 173.391 249.084C172.917 249.532 172.214 249.756 171.282 249.756C170.02 249.756 169.093 249.34 168.502 248.507C168.206 248.068 168.014 247.598 167.924 247.096C167.862 246.747 167.83 246.416 167.83 246.102C167.83 245.502 167.92 244.938 168.099 244.41C168.215 244.034 168.385 243.707 168.609 243.429C168.851 243.134 169.196 242.887 169.644 242.69C170.091 242.493 170.597 242.395 171.161 242.395C172.164 242.395 172.921 242.673 173.432 243.228C173.646 243.461 173.821 243.756 173.955 244.114C174.152 244.634 174.273 245.265 174.318 246.008C174.318 246.035 174.318 246.093 174.318 246.183C174.327 246.272 174.332 246.326 174.332 246.344H169.079C169.079 247.025 169.258 247.625 169.617 248.144C169.975 248.663 170.517 248.923 171.242 248.923C171.761 248.923 172.187 248.793 172.518 248.534C172.849 248.274 173.055 247.934 173.136 247.513ZM169.079 245.511H173.082C173.073 244.983 172.948 244.495 172.706 244.047C172.429 243.501 171.923 243.228 171.188 243.228C170.355 243.228 169.782 243.505 169.469 244.061C169.209 244.508 169.079 244.992 169.079 245.511ZM180.286 249.487H179.373L177.063 244.007H177.036L177.063 244.37V249.487H175.88V242.664H177.506L179.83 248.211L182.153 242.664H183.779V249.487H182.597V244.37L182.637 244.007H182.597L180.286 249.487ZM193.488 243.496H190.036V249.487H188.854V242.664H194.67V249.487H193.488V243.496ZM201.523 247.513H202.651C202.544 248.113 202.253 248.637 201.778 249.084C201.303 249.532 200.6 249.756 199.669 249.756C198.406 249.756 197.48 249.34 196.889 248.507C196.593 248.068 196.4 247.598 196.311 247.096C196.248 246.747 196.217 246.416 196.217 246.102C196.217 245.502 196.306 244.938 196.486 244.41C196.602 244.034 196.772 243.707 196.996 243.429C197.238 243.134 197.583 242.887 198.03 242.69C198.478 242.493 198.984 242.395 199.548 242.395C200.551 242.395 201.308 242.673 201.818 243.228C202.033 243.461 202.208 243.756 202.342 244.114C202.539 244.634 202.66 245.265 202.705 246.008C202.705 246.035 202.705 246.093 202.705 246.183C202.714 246.272 202.718 246.326 202.718 246.344H197.466C197.466 247.025 197.645 247.625 198.003 248.144C198.362 248.663 198.903 248.923 199.629 248.923C200.148 248.923 200.574 248.793 200.905 248.534C201.236 248.274 201.442 247.934 201.523 247.513ZM197.466 245.511H201.469C201.46 244.983 201.335 244.495 201.093 244.047C200.815 243.501 200.309 243.228 199.575 243.228C198.742 243.228 198.169 243.505 197.856 244.061C197.596 244.508 197.466 244.992 197.466 245.511ZM204.267 251.972V242.664H205.369V243.604H205.409C205.946 242.798 206.698 242.395 207.666 242.395C208.552 242.395 209.286 242.704 209.869 243.322C210.451 243.949 210.742 244.867 210.742 246.075C210.742 247.311 210.446 248.234 209.855 248.843C209.273 249.451 208.552 249.756 207.692 249.756C207.424 249.756 207.097 249.698 206.712 249.581C206.148 249.411 205.727 249.053 205.449 248.507V251.972H204.267ZM205.369 246.102C205.369 247.052 205.584 247.763 206.013 248.238C206.461 248.695 206.949 248.923 207.478 248.923C208.033 248.923 208.507 248.699 208.901 248.252C209.295 247.786 209.492 247.06 209.492 246.075C209.492 245.18 209.309 244.481 208.942 243.98C208.584 243.478 208.073 243.228 207.41 243.228C207.061 243.228 206.734 243.322 206.43 243.51C205.722 243.931 205.369 244.795 205.369 246.102ZM212.282 249.487V242.664H215.533C216.975 242.664 217.695 243.205 217.695 244.289C217.695 245.068 217.283 245.601 216.46 245.887V245.928C217.015 246.062 217.4 246.277 217.615 246.572C217.839 246.868 217.951 247.249 217.951 247.714C217.951 248.457 217.678 248.95 217.131 249.192C216.684 249.389 216.137 249.487 215.492 249.487H212.282ZM215.157 243.496H213.464V245.511H215.103C215.578 245.511 215.927 245.417 216.151 245.229C216.384 245.032 216.5 244.777 216.5 244.464C216.5 243.819 216.052 243.496 215.157 243.496ZM215.157 246.344H213.464V248.654H215.197C216.218 248.654 216.728 248.305 216.728 247.607C216.728 246.765 216.204 246.344 215.157 246.344ZM219.523 249.487V242.664H220.705V245.364H222.425C222.971 245.364 223.427 245.417 223.795 245.525C224.672 245.749 225.129 246.389 225.165 247.446C225.165 248.072 224.972 248.569 224.587 248.937C224.211 249.304 223.624 249.487 222.828 249.487H219.523ZM222.142 246.196H220.705V248.654H222.357C223.414 248.654 223.942 248.225 223.942 247.365C223.942 246.944 223.804 246.64 223.526 246.452C223.436 246.38 223.289 246.322 223.083 246.277C222.868 246.223 222.554 246.196 222.142 246.196ZM225.998 249.487V242.664H227.18V249.487H225.998ZM230.294 242.664V248.104L233.854 242.664H235.17V249.487H233.988V244.034L230.442 249.487H229.112V242.664H230.294ZM233.411 240.085H234.418C234.23 241.07 233.639 241.647 232.645 241.817C232.475 241.844 232.296 241.858 232.108 241.858C230.952 241.858 230.214 241.387 229.891 240.447C229.864 240.385 229.833 240.264 229.797 240.085H230.805C230.778 240.317 230.858 240.537 231.046 240.743C231.181 240.886 231.337 240.993 231.517 241.065C231.678 241.119 231.875 241.146 232.108 241.146C232.493 241.146 232.811 241.052 233.061 240.864C233.312 240.667 233.428 240.407 233.411 240.085ZM248.22 239.641H249.228C249.192 240.295 248.887 240.729 248.314 240.944C248.001 241.052 247.732 241.123 247.508 241.159C246.505 241.285 245.923 241.37 245.762 241.414C245.153 241.584 244.687 241.893 244.365 242.341C244.043 242.78 243.873 243.411 243.855 244.235H243.882C244.311 243.08 245.193 242.502 246.528 242.502C247.611 242.502 248.422 242.861 248.959 243.577C249.505 244.284 249.778 245.153 249.778 246.183C249.778 247.168 249.496 248.01 248.932 248.708C248.368 249.407 247.531 249.756 246.42 249.756C245.193 249.756 244.285 249.29 243.693 248.359C243.398 247.849 243.196 247.275 243.089 246.64C243.017 246.138 242.982 245.641 242.982 245.149C242.982 243.42 243.246 242.211 243.774 241.522C244.24 240.922 244.871 240.537 245.668 240.367C246.42 240.196 247.056 240.098 247.575 240.071C247.925 240.026 248.14 239.883 248.22 239.641ZM244.231 246.263C244.231 246.855 244.365 247.423 244.634 247.969C244.947 248.605 245.534 248.923 246.393 248.923C247.074 248.923 247.598 248.695 247.965 248.238C248.341 247.772 248.529 247.132 248.529 246.317C248.529 245.646 248.413 245.023 248.18 244.45C247.884 243.707 247.289 243.335 246.393 243.335C245.498 243.335 244.893 243.698 244.58 244.423C244.347 244.978 244.231 245.592 244.231 246.263ZM251.106 247.419C250.873 246.461 250.882 245.534 251.132 244.638C251.383 243.743 251.911 243.102 252.717 242.717C253.165 242.502 253.689 242.395 254.289 242.395C254.889 242.395 255.413 242.502 255.861 242.717C256.667 243.093 257.199 243.765 257.459 244.732C257.576 245.18 257.634 245.632 257.634 246.089C257.643 246.537 257.589 246.98 257.473 247.419C257.365 247.849 257.173 248.243 256.895 248.601C256.626 248.959 256.282 249.241 255.861 249.447C255.404 249.653 254.88 249.756 254.289 249.756C253.698 249.756 253.174 249.653 252.717 249.447C251.938 249.071 251.401 248.395 251.106 247.419ZM252.355 244.719C252.238 245.077 252.18 245.525 252.18 246.062C252.18 246.59 252.238 247.043 252.355 247.419C252.471 247.795 252.605 248.077 252.758 248.265C253.08 248.623 253.447 248.834 253.859 248.896C254.146 248.941 254.432 248.941 254.719 248.896C254.844 248.887 255.019 248.825 255.243 248.708C255.485 248.583 255.682 248.426 255.834 248.238C255.986 248.05 256.116 247.777 256.223 247.419C256.34 247.043 256.398 246.59 256.398 246.062C256.398 245.525 256.34 245.077 256.223 244.719C256.098 244.325 255.959 244.043 255.807 243.873C255.664 243.702 255.485 243.559 255.27 243.443C255.055 243.326 254.871 243.255 254.719 243.228C254.432 243.183 254.146 243.183 253.859 243.228C253.734 243.237 253.555 243.304 253.322 243.429C252.865 243.653 252.543 244.083 252.355 244.719ZM258.399 249.487V248.614C259.07 248.811 259.545 248.493 259.822 247.66C259.894 247.455 259.943 247.199 259.97 246.895L260.024 246.075C260.033 245.932 260.037 245.65 260.037 245.229V242.664H264.766V249.487H263.584V243.496H261.139V245.229C261.139 245.793 261.125 246.268 261.098 246.653C261.072 247.029 261.004 247.441 260.897 247.889C260.745 248.525 260.472 248.977 260.078 249.246C259.684 249.514 259.124 249.595 258.399 249.487ZM266.694 249.487V242.664H267.876V245.377H269.582C270.254 245.377 270.832 245.475 271.315 245.672C271.987 245.914 272.323 246.478 272.323 247.365C272.323 248.099 272.108 248.646 271.678 249.004C271.499 249.147 271.288 249.254 271.047 249.326C270.724 249.434 270.37 249.487 269.985 249.487H266.694ZM269.314 246.21H267.876V248.654H269.515C270.07 248.654 270.478 248.543 270.738 248.319C270.997 248.059 271.118 247.741 271.1 247.365C271.1 246.953 270.966 246.649 270.697 246.452C270.608 246.389 270.464 246.335 270.267 246.29C270.053 246.237 269.77 246.21 269.421 246.21H269.314ZM274.776 242.664V248.654H277.624V242.664H278.806V248.654H281.654V242.664H282.836V249.487H273.594V242.664H274.776ZM284.556 247.419C284.323 246.461 284.332 245.534 284.583 244.638C284.833 243.743 285.362 243.102 286.168 242.717C286.615 242.502 287.139 242.395 287.739 242.395C288.339 242.395 288.863 242.502 289.311 242.717C290.117 243.093 290.65 243.765 290.909 244.732C291.026 245.18 291.084 245.632 291.084 246.089C291.093 246.537 291.039 246.98 290.923 247.419C290.815 247.849 290.623 248.243 290.345 248.601C290.076 248.959 289.732 249.241 289.311 249.447C288.854 249.653 288.33 249.756 287.739 249.756C287.148 249.756 286.624 249.653 286.168 249.447C285.388 249.071 284.851 248.395 284.556 247.419ZM285.805 244.719C285.688 245.077 285.63 245.525 285.63 246.062C285.63 246.59 285.688 247.043 285.805 247.419C285.921 247.795 286.056 248.077 286.208 248.265C286.53 248.623 286.897 248.834 287.309 248.896C287.596 248.941 287.882 248.941 288.169 248.896C288.294 248.887 288.469 248.825 288.693 248.708C288.935 248.583 289.132 248.426 289.284 248.238C289.436 248.05 289.566 247.777 289.673 247.419C289.79 247.043 289.848 246.59 289.848 246.062C289.848 245.525 289.79 245.077 289.673 244.719C289.548 244.325 289.409 244.043 289.257 243.873C289.114 243.702 288.935 243.559 288.72 243.443C288.505 243.326 288.321 243.255 288.169 243.228C287.882 243.183 287.596 243.183 287.309 243.228C287.184 243.237 287.005 243.304 286.772 243.429C286.315 243.653 285.993 244.083 285.805 244.719ZM293.823 242.664V248.104L297.383 242.664H298.699V249.487H297.517V244.034L293.971 249.487H292.641V242.664H293.823ZM296.94 240.085H297.947C297.759 241.07 297.168 241.647 296.174 241.817C296.004 241.844 295.825 241.858 295.637 241.858C294.481 241.858 293.743 241.387 293.42 240.447C293.393 240.385 293.362 240.264 293.326 240.085H294.334C294.307 240.317 294.387 240.537 294.576 240.743C294.71 240.886 294.867 240.993 295.046 241.065C295.207 241.119 295.404 241.146 295.637 241.146C296.022 241.146 296.34 241.052 296.59 240.864C296.841 240.667 296.958 240.407 296.94 240.085ZM98.0577 258.496H94.5652V264.487H93.3832V257.664H98.0577V258.496ZM98.6383 262.419C98.4055 261.461 98.4144 260.534 98.6652 259.638C98.9159 258.743 99.4443 258.102 100.25 257.717C100.698 257.502 101.222 257.395 101.822 257.395C102.422 257.395 102.946 257.502 103.393 257.717C104.199 258.093 104.732 258.765 104.992 259.732C105.108 260.18 105.167 260.632 105.167 261.089C105.175 261.537 105.122 261.98 105.005 262.419C104.898 262.849 104.705 263.243 104.428 263.601C104.159 263.959 103.814 264.241 103.393 264.447C102.937 264.653 102.413 264.756 101.822 264.756C101.231 264.756 100.707 264.653 100.25 264.447C99.4711 264.071 98.9338 263.395 98.6383 262.419ZM99.8876 259.719C99.7711 260.077 99.7129 260.525 99.7129 261.062C99.7129 261.59 99.7711 262.043 99.8876 262.419C100.004 262.795 100.138 263.077 100.291 263.265C100.613 263.623 100.98 263.834 101.392 263.896C101.679 263.941 101.965 263.941 102.252 263.896C102.377 263.887 102.552 263.825 102.776 263.708C103.017 263.583 103.214 263.426 103.367 263.238C103.519 263.05 103.649 262.777 103.756 262.419C103.873 262.043 103.931 261.59 103.931 261.062C103.931 260.525 103.873 260.077 103.756 259.719C103.631 259.325 103.492 259.043 103.34 258.873C103.196 258.702 103.017 258.559 102.802 258.443C102.587 258.326 102.404 258.255 102.252 258.228C101.965 258.183 101.679 258.183 101.392 258.228C101.267 258.237 101.088 258.304 100.855 258.429C100.398 258.653 100.076 259.083 99.8876 259.719ZM106.724 266.972V257.664H107.825V258.604H107.866C108.403 257.798 109.155 257.395 110.122 257.395C111.009 257.395 111.743 257.704 112.325 258.322C112.907 258.949 113.198 259.867 113.198 261.075C113.198 262.311 112.903 263.234 112.312 263.843C111.73 264.451 111.009 264.756 110.149 264.756C109.881 264.756 109.554 264.698 109.169 264.581C108.604 264.411 108.184 264.053 107.906 263.507V266.972H106.724ZM107.825 261.102C107.825 262.052 108.04 262.763 108.47 263.238C108.918 263.695 109.406 263.923 109.934 263.923C110.489 263.923 110.964 263.699 111.358 263.252C111.752 262.786 111.949 262.06 111.949 261.075C111.949 260.18 111.766 259.481 111.398 258.98C111.04 258.478 110.53 258.228 109.867 258.228C109.518 258.228 109.191 258.322 108.887 258.51C108.179 258.931 107.825 259.795 107.825 261.102ZM114.524 262.419C114.291 261.461 114.3 260.534 114.551 259.638C114.801 258.743 115.33 258.102 116.136 257.717C116.584 257.502 117.107 257.395 117.707 257.395C118.307 257.395 118.831 257.502 119.279 257.717C120.085 258.093 120.618 258.765 120.877 259.732C120.994 260.18 121.052 260.632 121.052 261.089C121.061 261.537 121.007 261.98 120.891 262.419C120.783 262.849 120.591 263.243 120.313 263.601C120.045 263.959 119.7 264.241 119.279 264.447C118.822 264.653 118.298 264.756 117.707 264.756C117.116 264.756 116.592 264.653 116.136 264.447C115.357 264.071 114.819 263.395 114.524 262.419ZM115.773 259.719C115.657 260.077 115.598 260.525 115.598 261.062C115.598 261.59 115.657 262.043 115.773 262.419C115.89 262.795 116.024 263.077 116.176 263.265C116.498 263.623 116.866 263.834 117.278 263.896C117.564 263.941 117.851 263.941 118.137 263.896C118.263 263.887 118.437 263.825 118.661 263.708C118.903 263.583 119.1 263.426 119.252 263.238C119.404 263.05 119.534 262.777 119.642 262.419C119.758 262.043 119.816 261.59 119.816 261.062C119.816 260.525 119.758 260.077 119.642 259.719C119.516 259.325 119.378 259.043 119.225 258.873C119.082 258.702 118.903 258.559 118.688 258.443C118.473 258.326 118.289 258.255 118.137 258.228C117.851 258.183 117.564 258.183 117.278 258.228C117.152 258.237 116.973 258.304 116.74 258.429C116.284 258.653 115.961 259.083 115.773 259.719ZM121.75 266.26L121.642 263.654H122.502C123.245 262.562 123.617 260.946 123.617 258.805V257.664H128.506V263.654H129.688L129.594 266.26H128.6V264.487H122.744V266.26H121.75ZM127.324 263.654V258.496H124.718V259.45C124.718 260.175 124.638 260.928 124.477 261.707C124.333 262.477 124.091 263.126 123.751 263.654H127.324ZM135.485 262.056H136.613C136.578 262.575 136.381 263.122 136.022 263.695C135.825 264.017 135.516 264.277 135.095 264.474C134.684 264.662 134.2 264.756 133.645 264.756C133.457 264.756 133.322 264.751 133.242 264.743C132.848 264.725 132.445 264.622 132.033 264.434C130.887 263.86 130.314 262.723 130.314 261.022C130.314 260.126 130.519 259.329 130.931 258.631C131.442 257.807 132.319 257.395 133.564 257.395C134.442 257.395 135.14 257.619 135.66 258.067C136.179 258.505 136.479 259.083 136.56 259.799H135.431C135.252 258.752 134.639 258.228 133.591 258.228C132.91 258.228 132.4 258.478 132.06 258.98C131.728 259.472 131.563 260.153 131.563 261.022C131.563 261.863 131.737 262.557 132.087 263.104C132.436 263.65 132.964 263.923 133.672 263.923C134.281 263.923 134.724 263.731 135.001 263.346C135.297 262.96 135.458 262.531 135.485 262.056ZM139.244 257.664V260.646L142.159 257.664H143.543L140.346 260.834L143.717 264.487H142.307L139.244 261.075V264.487H138.062V257.664H139.244ZM144.17 262.419C143.937 261.461 143.946 260.534 144.197 259.638C144.448 258.743 144.976 258.102 145.782 257.717C146.23 257.502 146.753 257.395 147.353 257.395C147.953 257.395 148.477 257.502 148.925 257.717C149.731 258.093 150.264 258.765 150.524 259.732C150.64 260.18 150.698 260.632 150.698 261.089C150.707 261.537 150.653 261.98 150.537 262.419C150.429 262.849 150.237 263.243 149.959 263.601C149.691 263.959 149.346 264.241 148.925 264.447C148.468 264.653 147.944 264.756 147.353 264.756C146.762 264.756 146.239 264.653 145.782 264.447C145.003 264.071 144.465 263.395 144.17 262.419ZM145.419 259.719C145.303 260.077 145.245 260.525 145.245 261.062C145.245 261.59 145.303 262.043 145.419 262.419C145.536 262.795 145.67 263.077 145.822 263.265C146.144 263.623 146.512 263.834 146.924 263.896C147.21 263.941 147.497 263.941 147.783 263.896C147.909 263.887 148.083 263.825 148.307 263.708C148.549 263.583 148.746 263.426 148.898 263.238C149.05 263.05 149.18 262.777 149.288 262.419C149.404 262.043 149.462 261.59 149.462 261.062C149.462 260.525 149.404 260.077 149.288 259.719C149.162 259.325 149.024 259.043 148.871 258.873C148.728 258.702 148.549 258.559 148.334 258.443C148.119 258.326 147.935 258.255 147.783 258.228C147.497 258.183 147.21 258.183 146.924 258.228C146.798 258.237 146.619 258.304 146.386 258.429C145.93 258.653 145.607 259.083 145.419 259.719ZM153.438 257.664V263.104L156.997 257.664H158.314V264.487H157.131V259.034L153.585 264.487H152.255V257.664H153.438ZM156.554 255.085H157.561C157.373 256.07 156.782 256.647 155.788 256.817C155.618 256.844 155.439 256.858 155.251 256.858C154.096 256.858 153.357 256.387 153.035 255.447C153.008 255.385 152.976 255.264 152.941 255.085H153.948C153.921 255.317 154.002 255.537 154.19 255.743C154.324 255.886 154.481 255.993 154.66 256.065C154.821 256.119 155.018 256.146 155.251 256.146C155.636 256.146 155.954 256.052 156.205 255.864C156.455 255.667 156.572 255.407 156.554 255.085ZM168.014 261.358H165.072V260.525H168.014C168.005 260.122 167.946 259.772 167.839 259.477C167.731 259.181 167.606 258.958 167.463 258.805C167.319 258.653 167.149 258.532 166.952 258.443C166.755 258.344 166.59 258.286 166.455 258.268C166.33 258.241 166.205 258.228 166.079 258.228C165.497 258.228 165.027 258.375 164.669 258.671C164.32 258.958 164.127 259.334 164.091 259.799H162.963C163.079 258.859 163.523 258.174 164.293 257.744C164.49 257.619 164.705 257.538 164.937 257.502C165.305 257.431 165.645 257.395 165.958 257.395C168.161 257.395 169.263 258.64 169.263 261.129C169.263 263.547 168.184 264.756 166.025 264.756C165.497 264.756 165.036 264.689 164.642 264.554C163.729 264.268 163.151 263.457 162.909 262.123H164.037C164.19 263.323 164.852 263.923 166.025 263.923C166.455 263.923 166.818 263.829 167.114 263.641C167.409 263.444 167.615 263.184 167.731 262.862C167.919 262.334 168.014 261.832 168.014 261.358ZM171.986 257.664V260.646L174.901 257.664H176.284L173.087 260.834L176.459 264.487H175.049L171.986 261.075V264.487H170.804V257.664H171.986ZM176.912 262.419C176.679 261.461 176.688 260.534 176.939 259.638C177.189 258.743 177.718 258.102 178.524 257.717C178.971 257.502 179.495 257.395 180.095 257.395C180.695 257.395 181.219 257.502 181.667 257.717C182.473 258.093 183.006 258.765 183.265 259.732C183.382 260.18 183.44 260.632 183.44 261.089C183.449 261.537 183.395 261.98 183.279 262.419C183.171 262.849 182.979 263.243 182.701 263.601C182.432 263.959 182.088 264.241 181.667 264.447C181.21 264.653 180.686 264.756 180.095 264.756C179.504 264.756 178.98 264.653 178.524 264.447C177.745 264.071 177.207 263.395 176.912 262.419ZM178.161 259.719C178.045 260.077 177.986 260.525 177.986 261.062C177.986 261.59 178.045 262.043 178.161 262.419C178.277 262.795 178.412 263.077 178.564 263.265C178.886 263.623 179.253 263.834 179.665 263.896C179.952 263.941 180.239 263.941 180.525 263.896C180.65 263.887 180.825 263.825 181.049 263.708C181.291 263.583 181.488 263.426 181.64 263.238C181.792 263.05 181.922 262.777 182.03 262.419C182.146 262.043 182.204 261.59 182.204 261.062C182.204 260.525 182.146 260.077 182.03 259.719C181.904 259.325 181.765 259.043 181.613 258.873C181.47 258.702 181.291 258.559 181.076 258.443C180.861 258.326 180.677 258.255 180.525 258.228C180.239 258.183 179.952 258.183 179.665 258.228C179.54 258.237 179.361 258.304 179.128 258.429C178.671 258.653 178.349 259.083 178.161 259.719ZM188.637 261.465H185.091V260.323H188.637V261.465ZM191.846 257.664V260.646L194.761 257.664H196.145L192.948 260.834L196.319 264.487H194.909L191.846 261.075V264.487H190.664V257.664H191.846ZM197.236 264.487V257.664H200.487C201.929 257.664 202.649 258.205 202.649 259.289C202.649 260.068 202.237 260.601 201.414 260.887V260.928C201.969 261.062 202.354 261.277 202.569 261.572C202.793 261.868 202.905 262.249 202.905 262.714C202.905 263.457 202.632 263.95 202.085 264.192C201.637 264.389 201.091 264.487 200.446 264.487H197.236ZM200.111 258.496H198.418V260.511H200.057C200.532 260.511 200.881 260.417 201.105 260.229C201.338 260.032 201.454 259.777 201.454 259.464C201.454 258.819 201.006 258.496 200.111 258.496ZM200.111 261.344H198.418V263.654H200.151C201.172 263.654 201.682 263.305 201.682 262.607C201.682 261.765 201.158 261.344 200.111 261.344ZM209.393 262.513H210.522C210.414 263.113 210.123 263.637 209.649 264.084C209.174 264.532 208.471 264.756 207.54 264.756C206.277 264.756 205.35 264.34 204.759 263.507C204.464 263.068 204.271 262.598 204.182 262.096C204.119 261.747 204.088 261.416 204.088 261.102C204.088 260.502 204.177 259.938 204.356 259.41C204.473 259.034 204.643 258.707 204.867 258.429C205.108 258.134 205.453 257.887 205.901 257.69C206.349 257.493 206.855 257.395 207.419 257.395C208.422 257.395 209.178 257.673 209.689 258.228C209.904 258.461 210.078 258.756 210.213 259.114C210.41 259.634 210.531 260.265 210.575 261.008C210.575 261.035 210.575 261.093 210.575 261.183C210.584 261.272 210.589 261.326 210.589 261.344H205.337C205.337 262.025 205.516 262.625 205.874 263.144C206.232 263.663 206.774 263.923 207.499 263.923C208.019 263.923 208.444 263.793 208.775 263.534C209.107 263.274 209.313 262.934 209.393 262.513ZM205.337 260.511H209.34C209.331 259.983 209.205 259.495 208.964 259.047C208.686 258.501 208.18 258.228 207.446 258.228C206.613 258.228 206.04 258.505 205.726 259.061C205.467 259.508 205.337 259.992 205.337 260.511ZM216.92 262.056H218.048C218.012 262.575 217.815 263.122 217.457 263.695C217.26 264.017 216.951 264.277 216.53 264.474C216.118 264.662 215.635 264.756 215.08 264.756C214.891 264.756 214.757 264.751 214.677 264.743C214.283 264.725 213.88 264.622 213.468 264.434C212.321 263.86 211.748 262.723 211.748 261.022C211.748 260.126 211.954 259.329 212.366 258.631C212.877 257.807 213.754 257.395 214.999 257.395C215.877 257.395 216.575 257.619 217.094 258.067C217.614 258.505 217.914 259.083 217.994 259.799H216.866C216.687 258.752 216.074 258.228 215.026 258.228C214.345 258.228 213.835 258.478 213.495 258.98C213.163 259.472 212.998 260.153 212.998 261.022C212.998 261.863 213.172 262.557 213.521 263.104C213.871 263.65 214.399 263.923 215.106 263.923C215.715 263.923 216.159 263.731 216.436 263.346C216.732 262.96 216.893 262.531 216.92 262.056ZM220.832 264.487V258.496H218.468V257.664H224.379V258.496H222.014V264.487H220.832ZM228.653 264.487V257.664H231.904C233.345 257.664 234.066 258.205 234.066 259.289C234.066 260.068 233.654 260.601 232.831 260.887V260.928C233.386 261.062 233.771 261.277 233.986 261.572C234.21 261.868 234.322 262.249 234.322 262.714C234.322 263.457 234.048 263.95 233.502 264.192C233.054 264.389 232.508 264.487 231.863 264.487H228.653ZM231.528 258.496H229.835V260.511H231.474C231.948 260.511 232.298 260.417 232.522 260.229C232.754 260.032 232.871 259.777 232.871 259.464C232.871 258.819 232.423 258.496 231.528 258.496ZM231.528 261.344H229.835V263.654H231.568C232.589 263.654 233.099 263.305 233.099 262.607C233.099 261.765 232.575 261.344 231.528 261.344ZM244.228 262.056H240.252L239.365 264.487H238.008L241.568 255.085H242.911L246.471 264.487H245.114L244.228 262.056ZM242.24 256.361L240.601 260.995H243.878L242.24 256.361ZM252.234 254.641H253.242C253.206 255.295 252.901 255.729 252.328 255.944C252.015 256.052 251.746 256.123 251.522 256.159C250.519 256.285 249.937 256.37 249.776 256.414C249.167 256.584 248.702 256.893 248.379 257.341C248.057 257.78 247.887 258.411 247.869 259.235H247.896C248.325 258.08 249.207 257.502 250.542 257.502C251.625 257.502 252.436 257.861 252.973 258.577C253.519 259.284 253.792 260.153 253.792 261.183C253.792 262.168 253.51 263.01 252.946 263.708C252.382 264.407 251.545 264.756 250.434 264.756C249.207 264.756 248.299 264.29 247.708 263.359C247.412 262.849 247.211 262.275 247.103 261.64C247.031 261.138 246.996 260.641 246.996 260.149C246.996 258.42 247.26 257.211 247.788 256.522C248.254 255.922 248.885 255.537 249.682 255.367C250.434 255.196 251.07 255.098 251.59 255.071C251.939 255.026 252.154 254.883 252.234 254.641ZM248.245 261.263C248.245 261.855 248.379 262.423 248.648 262.969C248.961 263.605 249.548 263.923 250.407 263.923C251.088 263.923 251.612 263.695 251.979 263.238C252.355 262.772 252.543 262.132 252.543 261.317C252.543 260.646 252.427 260.023 252.194 259.45C251.898 258.707 251.303 258.335 250.407 258.335C249.512 258.335 248.907 258.698 248.594 259.423C248.361 259.978 248.245 260.592 248.245 261.263ZM255.623 257.664L257.369 260.189L259.115 257.664H260.431L258.04 260.928L260.619 264.487H259.303L257.369 261.68L255.434 264.487H254.118L256.697 260.928L254.306 257.664H255.623ZM262.492 259.678H261.363C261.363 259.141 261.542 258.649 261.901 258.201C262.33 257.664 263.118 257.395 264.265 257.395C264.936 257.395 265.527 257.529 266.038 257.798C266.333 257.941 266.566 258.178 266.736 258.51C266.906 258.841 266.987 259.235 266.978 259.692L266.911 262.849C266.911 263.108 266.938 263.31 266.991 263.453C267.072 263.596 267.283 263.663 267.623 263.654V264.487C267.488 264.523 267.309 264.541 267.086 264.541C266.691 264.541 266.405 264.474 266.226 264.34C266.056 264.205 265.935 263.941 265.863 263.547C265.424 264.353 264.645 264.756 263.526 264.756C262.756 264.756 262.16 264.586 261.739 264.246C261.327 263.896 261.121 263.381 261.121 262.701C261.121 262.056 261.354 261.568 261.82 261.237C262.286 260.887 263.168 260.655 264.466 260.538C265.066 260.493 265.424 260.435 265.541 260.364C265.711 260.247 265.796 259.992 265.796 259.598C265.796 258.684 265.286 258.228 264.265 258.228C263.056 258.228 262.465 258.711 262.492 259.678ZM265.769 261.572L265.796 260.995C265.662 261.093 265.465 261.174 265.205 261.237C264.811 261.263 264.506 261.295 264.292 261.331C263.548 261.456 263.096 261.559 262.935 261.64C262.541 261.828 262.344 262.168 262.344 262.66C262.344 263.055 262.46 263.363 262.693 263.587C262.935 263.811 263.257 263.923 263.66 263.923C263.92 263.923 264.157 263.887 264.372 263.816C264.596 263.744 264.811 263.628 265.017 263.466C265.232 263.296 265.402 263.05 265.527 262.728C265.662 262.405 265.742 262.02 265.769 261.572ZM268.479 262.392H269.607C269.607 262.84 269.768 263.207 270.091 263.493C270.413 263.78 270.856 263.923 271.421 263.923C271.976 263.923 272.41 263.811 272.724 263.587C273.037 263.354 273.194 263.019 273.194 262.58C273.194 261.765 272.679 261.358 271.649 261.358H270.642V260.525H271.515C272.464 260.525 272.939 260.171 272.939 259.464C272.939 259.347 272.921 259.231 272.885 259.114C272.858 258.998 272.795 258.868 272.697 258.725C272.607 258.573 272.45 258.452 272.227 258.362C272.003 258.273 271.725 258.228 271.394 258.228C270.803 258.228 270.386 258.367 270.145 258.644C269.903 258.922 269.782 259.222 269.782 259.544H268.654C268.68 259.078 268.801 258.689 269.016 258.375C269.231 258.062 269.509 257.838 269.849 257.704C270.404 257.498 270.942 257.395 271.461 257.395C271.918 257.395 272.321 257.449 272.67 257.556C273.019 257.655 273.283 257.776 273.462 257.919C273.65 258.062 273.798 258.232 273.906 258.429C274.022 258.626 274.094 258.801 274.121 258.953C274.147 259.096 274.161 259.24 274.161 259.383C274.161 260.18 273.767 260.677 272.979 260.874V260.914C273.4 260.977 273.744 261.161 274.013 261.465C274.282 261.769 274.416 262.168 274.416 262.66C274.416 263.162 274.237 263.619 273.879 264.031C273.44 264.514 272.652 264.756 271.515 264.756C270.556 264.756 269.827 264.554 269.325 264.151C268.761 263.659 268.479 263.072 268.479 262.392ZM277.138 257.664V263.104L280.697 257.664H282.014V264.487H280.832V259.034L277.285 264.487H275.956V257.664H277.138ZM285.126 257.664V263.104L288.686 257.664H290.002V264.487H288.82V259.034L285.274 264.487H283.944V257.664H285.126ZM292.39 264.487V263.023H293.719V264.904C293.719 265.351 293.594 265.705 293.343 265.965C293.093 266.225 292.775 266.395 292.39 266.475V265.737C292.578 265.719 292.734 265.625 292.86 265.454C292.994 265.293 293.061 265.11 293.061 264.904V264.487H292.39ZM98.0174 273.496H94.5652V279.487H93.3832V272.664H99.1994V279.487H98.0174V273.496ZM100.921 277.419C100.688 276.461 100.697 275.534 100.948 274.638C101.198 273.743 101.727 273.102 102.533 272.717C102.98 272.502 103.504 272.395 104.104 272.395C104.704 272.395 105.228 272.502 105.676 272.717C106.482 273.093 107.015 273.765 107.274 274.732C107.391 275.18 107.449 275.632 107.449 276.089C107.458 276.537 107.404 276.98 107.288 277.419C107.18 277.849 106.988 278.243 106.71 278.601C106.442 278.959 106.097 279.241 105.676 279.447C105.219 279.653 104.695 279.756 104.104 279.756C103.513 279.756 102.989 279.653 102.533 279.447C101.754 279.071 101.216 278.395 100.921 277.419ZM102.17 274.719C102.054 275.077 101.995 275.525 101.995 276.062C101.995 276.59 102.054 277.043 102.17 277.419C102.286 277.795 102.421 278.077 102.573 278.265C102.895 278.623 103.263 278.834 103.674 278.896C103.961 278.941 104.248 278.941 104.534 278.896C104.66 278.887 104.834 278.825 105.058 278.708C105.3 278.583 105.497 278.426 105.649 278.238C105.801 278.05 105.931 277.777 106.039 277.419C106.155 277.043 106.213 276.59 106.213 276.062C106.213 275.525 106.155 275.077 106.039 274.719C105.913 274.325 105.774 274.043 105.622 273.873C105.479 273.702 105.3 273.559 105.085 273.443C104.87 273.326 104.686 273.255 104.534 273.228C104.248 273.183 103.961 273.183 103.674 273.228C103.549 273.237 103.37 273.304 103.137 273.429C102.68 273.653 102.358 274.083 102.17 274.719ZM113.788 277.056H114.917C114.881 277.575 114.684 278.122 114.326 278.695C114.129 279.017 113.82 279.277 113.399 279.474C112.987 279.662 112.503 279.756 111.948 279.756C111.76 279.756 111.626 279.751 111.545 279.743C111.151 279.725 110.748 279.622 110.336 279.434C109.19 278.86 108.617 277.723 108.617 276.022C108.617 275.126 108.823 274.329 109.235 273.631C109.745 272.807 110.623 272.395 111.867 272.395C112.745 272.395 113.444 272.619 113.963 273.067C114.482 273.505 114.782 274.083 114.863 274.799H113.735C113.556 273.752 112.942 273.228 111.894 273.228C111.214 273.228 110.703 273.478 110.363 273.98C110.032 274.472 109.866 275.153 109.866 276.022C109.866 276.863 110.041 277.557 110.39 278.104C110.739 278.65 111.268 278.923 111.975 278.923C112.584 278.923 113.027 278.731 113.305 278.346C113.6 277.96 113.761 277.531 113.788 277.056ZM116.365 279.487V272.664H119.616C121.058 272.664 121.779 273.205 121.779 274.289C121.779 275.068 121.367 275.601 120.543 275.887V275.928C121.098 276.062 121.483 276.277 121.698 276.572C121.922 276.868 122.034 277.249 122.034 277.714C122.034 278.457 121.761 278.95 121.215 279.192C120.767 279.389 120.221 279.487 119.576 279.487H116.365ZM119.24 273.496H117.547V275.511H119.186C119.661 275.511 120.01 275.417 120.234 275.229C120.467 275.032 120.583 274.777 120.583 274.464C120.583 273.819 120.135 273.496 119.24 273.496ZM119.24 276.344H117.547V278.654H119.28C120.301 278.654 120.812 278.305 120.812 277.607C120.812 276.765 120.288 276.344 119.24 276.344ZM127.784 276.801H126.226L124.439 279.487H123.136L125.017 276.787C124.497 276.734 124.077 276.532 123.754 276.183C123.432 275.834 123.271 275.377 123.271 274.813C123.271 274.284 123.409 273.823 123.687 273.429C124.018 272.919 124.645 272.664 125.568 272.664H128.966V279.487H127.784V276.801ZM127.784 275.968V273.496H126.078C125.021 273.496 124.493 273.922 124.493 274.772C124.493 275.122 124.623 275.408 124.882 275.632C125.142 275.856 125.554 275.968 126.118 275.968H127.784ZM132.082 272.664V278.654H134.93V272.664H136.112V278.654H138.959V272.664H140.141V278.654H141.297L141.189 281.26H140.195V279.487H130.9V272.664H132.082ZM147.229 277.513H148.357C148.249 278.113 147.958 278.637 147.484 279.084C147.009 279.532 146.306 279.756 145.375 279.756C144.112 279.756 143.185 279.34 142.594 278.507C142.299 278.068 142.106 277.598 142.017 277.096C141.954 276.747 141.923 276.416 141.923 276.102C141.923 275.502 142.012 274.938 142.191 274.41C142.308 274.034 142.478 273.707 142.702 273.429C142.944 273.134 143.288 272.887 143.736 272.69C144.184 272.493 144.69 272.395 145.254 272.395C146.257 272.395 147.014 272.673 147.524 273.228C147.739 273.461 147.914 273.756 148.048 274.114C148.245 274.634 148.366 275.265 148.411 276.008C148.411 276.035 148.411 276.093 148.411 276.183C148.42 276.272 148.424 276.326 148.424 276.344H143.172C143.172 277.025 143.351 277.625 143.709 278.144C144.067 278.663 144.609 278.923 145.335 278.923C145.854 278.923 146.279 278.793 146.611 278.534C146.942 278.274 147.148 277.934 147.229 277.513ZM143.172 275.511H147.175C147.166 274.983 147.04 274.495 146.799 274.047C146.521 273.501 146.015 273.228 145.281 273.228C144.448 273.228 143.875 273.505 143.561 274.061C143.302 274.508 143.172 274.992 143.172 275.511ZM154.527 276.304H151.155V279.487H149.973V272.664H151.155V275.471H154.527V272.664H155.709V279.487H154.527V276.304ZM162.2 276.304H158.829V279.487H157.647V272.664H158.829V275.471H162.2V272.664H163.383V279.487H162.2V276.304ZM165.321 279.487V272.664H166.503V275.364H168.222C168.768 275.364 169.225 275.417 169.592 275.525C170.47 275.749 170.927 276.389 170.962 277.446C170.962 278.072 170.77 278.569 170.385 278.937C170.009 279.304 169.422 279.487 168.625 279.487H165.321ZM167.94 276.196H166.503V278.654H168.155C169.212 278.654 169.74 278.225 169.74 277.365C169.74 276.944 169.601 276.64 169.324 276.452C169.234 276.38 169.086 276.322 168.88 276.277C168.665 276.223 168.352 276.196 167.94 276.196ZM171.795 279.487V272.664H172.977V279.487H171.795ZM176.092 272.664V278.104L179.651 272.664H180.968V279.487H179.786V274.034L176.24 279.487H174.91V272.664H176.092ZM179.208 270.085H180.216C180.028 271.07 179.437 271.647 178.443 271.817C178.272 271.844 178.093 271.858 177.905 271.858C176.75 271.858 176.011 271.387 175.689 270.447C175.662 270.385 175.631 270.264 175.595 270.085H176.602C176.575 270.317 176.656 270.537 176.844 270.743C176.978 270.886 177.135 270.993 177.314 271.065C177.475 271.119 177.672 271.146 177.905 271.146C178.29 271.146 178.608 271.052 178.859 270.864C179.11 270.667 179.226 270.407 179.208 270.085ZM190.816 277.056H191.944C191.908 277.575 191.711 278.122 191.353 278.695C191.156 279.017 190.847 279.277 190.426 279.474C190.014 279.662 189.531 279.756 188.975 279.756C188.787 279.756 188.653 279.751 188.572 279.743C188.178 279.725 187.775 279.622 187.363 279.434C186.217 278.86 185.644 277.723 185.644 276.022C185.644 275.126 185.85 274.329 186.262 273.631C186.772 272.807 187.65 272.395 188.895 272.395C189.772 272.395 190.471 272.619 190.99 273.067C191.51 273.505 191.81 274.083 191.89 274.799H190.762C190.583 273.752 189.969 273.228 188.922 273.228C188.241 273.228 187.731 273.478 187.39 273.98C187.059 274.472 186.893 275.153 186.893 276.022C186.893 276.863 187.068 277.557 187.417 278.104C187.766 278.65 188.295 278.923 189.002 278.923C189.611 278.923 190.054 278.731 190.332 278.346C190.628 277.96 190.789 277.531 190.816 277.056ZM193.178 277.419C192.945 276.461 192.954 275.534 193.205 274.638C193.455 273.743 193.984 273.102 194.79 272.717C195.237 272.502 195.761 272.395 196.361 272.395C196.961 272.395 197.485 272.502 197.933 272.717C198.739 273.093 199.272 273.765 199.531 274.732C199.648 275.18 199.706 275.632 199.706 276.089C199.715 276.537 199.661 276.98 199.545 277.419C199.437 277.849 199.245 278.243 198.967 278.601C198.698 278.959 198.354 279.241 197.933 279.447C197.476 279.653 196.952 279.756 196.361 279.756C195.77 279.756 195.246 279.653 194.79 279.447C194.011 279.071 193.473 278.395 193.178 277.419ZM194.427 274.719C194.31 275.077 194.252 275.525 194.252 276.062C194.252 276.59 194.31 277.043 194.427 277.419C194.543 277.795 194.678 278.077 194.83 278.265C195.152 278.623 195.519 278.834 195.931 278.896C196.218 278.941 196.504 278.941 196.791 278.896C196.916 278.887 197.091 278.825 197.315 278.708C197.557 278.583 197.754 278.426 197.906 278.238C198.058 278.05 198.188 277.777 198.295 277.419C198.412 277.043 198.47 276.59 198.47 276.062C198.47 275.525 198.412 275.077 198.295 274.719C198.17 274.325 198.031 274.043 197.879 273.873C197.736 273.702 197.557 273.559 197.342 273.443C197.127 273.326 196.943 273.255 196.791 273.228C196.504 273.183 196.218 273.183 195.931 273.228C195.806 273.237 195.627 273.304 195.394 273.429C194.937 273.653 194.615 274.083 194.427 274.719ZM201.263 281.972V272.664H202.365V273.604H202.405C202.942 272.798 203.695 272.395 204.662 272.395C205.548 272.395 206.283 272.704 206.865 273.322C207.447 273.949 207.738 274.867 207.738 276.075C207.738 277.311 207.442 278.234 206.851 278.843C206.269 279.451 205.548 279.756 204.689 279.756C204.42 279.756 204.093 279.698 203.708 279.581C203.144 279.411 202.723 279.053 202.445 278.507V281.972H201.263ZM202.365 276.102C202.365 277.052 202.58 277.763 203.009 278.238C203.457 278.695 203.945 278.923 204.474 278.923C205.029 278.923 205.503 278.699 205.897 278.252C206.291 277.786 206.488 277.06 206.488 276.075C206.488 275.18 206.305 274.481 205.938 273.98C205.58 273.478 205.069 273.228 204.406 273.228C204.057 273.228 203.73 273.322 203.426 273.51C202.718 273.931 202.365 274.795 202.365 276.102ZM210.679 279.487V273.496H208.315V272.664H214.225V273.496H211.861V279.487H210.679ZM216.311 272.664V278.104L219.87 272.664H221.187V279.487H220.005V274.034L216.458 279.487H215.129V272.664H216.311ZM223.117 281.972V272.664H224.219V273.604H224.259C224.796 272.798 225.549 272.395 226.516 272.395C227.402 272.395 228.137 272.704 228.719 273.322C229.301 273.949 229.592 274.867 229.592 276.075C229.592 277.311 229.296 278.234 228.705 278.843C228.123 279.451 227.402 279.756 226.543 279.756C226.274 279.756 225.947 279.698 225.562 279.581C224.998 279.411 224.577 279.053 224.299 278.507V281.972H223.117ZM224.219 276.102C224.219 277.052 224.434 277.763 224.864 278.238C225.311 278.695 225.799 278.923 226.328 278.923C226.883 278.923 227.358 278.699 227.752 278.252C228.146 277.786 228.343 277.06 228.343 276.075C228.343 275.18 228.159 274.481 227.792 273.98C227.434 273.478 226.923 273.228 226.261 273.228C225.911 273.228 225.584 273.322 225.28 273.51C224.573 273.931 224.219 274.795 224.219 276.102ZM230.917 277.419C230.685 276.461 230.693 275.534 230.944 274.638C231.195 273.743 231.723 273.102 232.529 272.717C232.977 272.502 233.501 272.395 234.101 272.395C234.701 272.395 235.225 272.502 235.672 272.717C236.478 273.093 237.011 273.765 237.271 274.732C237.387 275.18 237.446 275.632 237.446 276.089C237.455 276.537 237.401 276.98 237.284 277.419C237.177 277.849 236.984 278.243 236.707 278.601C236.438 278.959 236.093 279.241 235.672 279.447C235.216 279.653 234.692 279.756 234.101 279.756C233.51 279.756 232.986 279.653 232.529 279.447C231.75 279.071 231.213 278.395 230.917 277.419ZM232.167 274.719C232.05 275.077 231.992 275.525 231.992 276.062C231.992 276.59 232.05 277.043 232.167 277.419C232.283 277.795 232.417 278.077 232.57 278.265C232.892 278.623 233.259 278.834 233.671 278.896C233.958 278.941 234.244 278.941 234.531 278.896C234.656 278.887 234.831 278.825 235.055 278.708C235.296 278.583 235.493 278.426 235.646 278.238C235.798 278.05 235.928 277.777 236.035 277.419C236.152 277.043 236.21 276.59 236.21 276.062C236.21 275.525 236.152 275.077 236.035 274.719C235.91 274.325 235.771 274.043 235.619 273.873C235.475 273.702 235.296 273.559 235.081 273.443C234.867 273.326 234.683 273.255 234.531 273.228C234.244 273.183 233.958 273.183 233.671 273.228C233.546 273.237 233.367 273.304 233.134 273.429C232.677 273.653 232.355 274.083 232.167 274.719ZM239.003 279.487V272.664H242.254C243.695 272.664 244.416 273.205 244.416 274.289C244.416 275.068 244.004 275.601 243.18 275.887V275.928C243.736 276.062 244.121 276.277 244.336 276.572C244.559 276.868 244.671 277.249 244.671 277.714C244.671 278.457 244.398 278.95 243.852 279.192C243.404 279.389 242.858 279.487 242.213 279.487H239.003ZM241.877 273.496H240.185V275.511H241.824C242.298 275.511 242.648 275.417 242.871 275.229C243.104 275.032 243.221 274.777 243.221 274.464C243.221 273.819 242.773 273.496 241.877 273.496ZM241.877 276.344H240.185V278.654H241.918C242.939 278.654 243.449 278.305 243.449 277.607C243.449 276.765 242.925 276.344 241.877 276.344ZM247.426 272.664V275.646L250.341 272.664H251.724L248.527 275.834L251.899 279.487H250.489L247.426 276.075V279.487H246.244V272.664H247.426ZM257.732 277.513H258.86C258.753 278.113 258.462 278.637 257.987 279.084C257.513 279.532 256.81 279.756 255.878 279.756C254.616 279.756 253.689 279.34 253.098 278.507C252.802 278.068 252.61 277.598 252.52 277.096C252.458 276.747 252.426 276.416 252.426 276.102C252.426 275.502 252.516 274.938 252.695 274.41C252.811 274.034 252.982 273.707 253.205 273.429C253.447 273.134 253.792 272.887 254.24 272.69C254.687 272.493 255.193 272.395 255.758 272.395C256.761 272.395 257.517 272.673 258.028 273.228C258.243 273.461 258.417 273.756 258.552 274.114C258.749 274.634 258.869 275.265 258.914 276.008C258.914 276.035 258.914 276.093 258.914 276.183C258.923 276.272 258.928 276.326 258.928 276.344H253.676C253.676 277.025 253.855 277.625 254.213 278.144C254.571 278.663 255.113 278.923 255.838 278.923C256.358 278.923 256.783 278.793 257.114 278.534C257.446 278.274 257.652 277.934 257.732 277.513ZM253.676 275.511H257.678C257.669 274.983 257.544 274.495 257.302 274.047C257.025 273.501 256.519 273.228 255.784 273.228C254.952 273.228 254.379 273.505 254.065 274.061C253.805 274.508 253.676 274.992 253.676 275.511ZM94.5652 287.664V293.104L98.1248 287.664H99.4412V294.487H98.2592V289.034L94.713 294.487H93.3832V287.664H94.5652ZM109.289 292.056H110.417C110.381 292.575 110.184 293.122 109.826 293.695C109.629 294.017 109.32 294.277 108.899 294.474C108.487 294.662 108.004 294.756 107.449 294.756C107.261 294.756 107.126 294.751 107.046 294.743C106.652 294.725 106.249 294.622 105.837 294.434C104.691 293.86 104.117 292.723 104.117 291.022C104.117 290.126 104.323 289.329 104.735 288.631C105.246 287.807 106.123 287.395 107.368 287.395C108.246 287.395 108.944 287.619 109.464 288.067C109.983 288.505 110.283 289.083 110.364 289.799H109.235C109.056 288.752 108.443 288.228 107.395 288.228C106.714 288.228 106.204 288.478 105.864 288.98C105.532 289.472 105.367 290.153 105.367 291.022C105.367 291.863 105.541 292.557 105.891 293.104C106.24 293.65 106.768 293.923 107.476 293.923C108.085 293.923 108.528 293.731 108.805 293.346C109.101 292.96 109.262 292.531 109.289 292.056ZM116.715 284.641H117.723C117.687 285.295 117.382 285.729 116.809 285.944C116.496 286.052 116.227 286.123 116.003 286.159C115 286.285 114.418 286.37 114.257 286.414C113.648 286.584 113.182 286.893 112.86 287.341C112.538 287.78 112.367 288.411 112.35 289.235H112.376C112.806 288.08 113.688 287.502 115.023 287.502C116.106 287.502 116.917 287.861 117.454 288.577C118 289.284 118.273 290.153 118.273 291.183C118.273 292.168 117.991 293.01 117.427 293.708C116.863 294.407 116.026 294.756 114.915 294.756C113.688 294.756 112.779 294.29 112.188 293.359C111.893 292.849 111.691 292.275 111.584 291.64C111.512 291.138 111.476 290.641 111.476 290.149C111.476 288.42 111.741 287.211 112.269 286.522C112.735 285.922 113.366 285.537 114.163 285.367C114.915 285.196 115.551 285.098 116.07 285.071C116.42 285.026 116.635 284.883 116.715 284.641ZM112.726 291.263C112.726 291.855 112.86 292.423 113.129 292.969C113.442 293.605 114.029 293.923 114.888 293.923C115.569 293.923 116.093 293.695 116.46 293.238C116.836 292.772 117.024 292.132 117.024 291.317C117.024 290.646 116.908 290.023 116.675 289.45C116.379 288.707 115.784 288.335 114.888 288.335C113.993 288.335 113.388 288.698 113.075 289.423C112.842 289.978 112.726 290.592 112.726 291.263ZM119.6 292.419C119.368 291.461 119.377 290.534 119.627 289.638C119.878 288.743 120.406 288.102 121.212 287.717C121.66 287.502 122.184 287.395 122.784 287.395C123.384 287.395 123.908 287.502 124.356 287.717C125.162 288.093 125.694 288.765 125.954 289.732C126.07 290.18 126.129 290.632 126.129 291.089C126.138 291.537 126.084 291.98 125.967 292.419C125.86 292.849 125.667 293.243 125.39 293.601C125.121 293.959 124.776 294.241 124.356 294.447C123.899 294.653 123.375 294.756 122.784 294.756C122.193 294.756 121.669 294.653 121.212 294.447C120.433 294.071 119.896 293.395 119.6 292.419ZM120.85 289.719C120.733 290.077 120.675 290.525 120.675 291.062C120.675 291.59 120.733 292.043 120.85 292.419C120.966 292.795 121.1 293.077 121.253 293.265C121.575 293.623 121.942 293.834 122.354 293.896C122.641 293.941 122.927 293.941 123.214 293.896C123.339 293.887 123.514 293.825 123.738 293.708C123.979 293.583 124.176 293.426 124.329 293.238C124.481 293.05 124.611 292.777 124.718 292.419C124.835 292.043 124.893 291.59 124.893 291.062C124.893 290.525 124.835 290.077 124.718 289.719C124.593 289.325 124.454 289.043 124.302 288.873C124.159 288.702 123.979 288.559 123.765 288.443C123.55 288.326 123.366 288.255 123.214 288.228C122.927 288.183 122.641 288.183 122.354 288.228C122.229 288.237 122.05 288.304 121.817 288.429C121.36 288.653 121.038 289.083 120.85 289.719ZM127.686 296.972V287.664H128.787V288.604H128.828C129.365 287.798 130.117 287.395 131.084 287.395C131.971 287.395 132.705 287.704 133.287 288.322C133.869 288.949 134.16 289.867 134.16 291.075C134.16 292.311 133.865 293.234 133.274 293.843C132.692 294.451 131.971 294.756 131.111 294.756C130.843 294.756 130.516 294.698 130.131 294.581C129.567 294.411 129.146 294.053 128.868 293.507V296.972H127.686ZM128.787 291.102C128.787 292.052 129.002 292.763 129.432 293.238C129.88 293.695 130.368 293.923 130.896 293.923C131.452 293.923 131.926 293.699 132.32 293.252C132.714 292.786 132.911 292.06 132.911 291.075C132.911 290.18 132.728 289.481 132.361 288.98C132.002 288.478 131.492 288.228 130.829 288.228C130.48 288.228 130.153 288.322 129.849 288.51C129.141 288.931 128.787 289.795 128.787 291.102ZM135.707 296.959V296.086C136.047 296.131 136.244 296.153 136.298 296.153C136.638 296.153 136.88 296.028 137.023 295.777C137.113 295.643 137.171 295.531 137.198 295.441C137.225 295.396 137.283 295.248 137.373 294.998L137.534 294.487L134.579 287.664H135.989L138.178 293.184L139.992 287.664H141.174L138.461 295.293C138.246 295.902 138.062 296.301 137.91 296.489C137.605 296.847 137.193 297.026 136.674 297.026C136.271 297.026 135.949 297.004 135.707 296.959ZM149.911 288.496H146.459V294.487H145.277V287.664H151.093V294.487H149.911V288.496ZM152.237 294.487V293.614C152.909 293.811 153.383 293.493 153.661 292.66C153.732 292.455 153.782 292.199 153.808 291.895L153.862 291.075C153.871 290.932 153.876 290.65 153.876 290.229V287.664H158.604V294.487H157.422V288.496H154.977V290.229C154.977 290.793 154.964 291.268 154.937 291.653C154.91 292.029 154.843 292.441 154.735 292.889C154.583 293.525 154.31 293.977 153.916 294.246C153.522 294.514 152.962 294.595 152.237 294.487ZM161.433 289.678H160.304C160.304 289.141 160.483 288.649 160.842 288.201C161.272 287.664 162.06 287.395 163.206 287.395C163.877 287.395 164.468 287.529 164.979 287.798C165.274 287.941 165.507 288.178 165.677 288.51C165.848 288.841 165.928 289.235 165.919 289.692L165.852 292.849C165.852 293.108 165.879 293.31 165.933 293.453C166.013 293.596 166.224 293.663 166.564 293.654V294.487C166.43 294.523 166.251 294.541 166.027 294.541C165.633 294.541 165.346 294.474 165.167 294.34C164.997 294.205 164.876 293.941 164.804 293.547C164.365 294.353 163.586 294.756 162.467 294.756C161.697 294.756 161.101 294.586 160.68 294.246C160.269 293.896 160.063 293.381 160.063 292.701C160.063 292.056 160.295 291.568 160.761 291.237C161.227 290.887 162.109 290.655 163.407 290.538C164.007 290.493 164.365 290.435 164.482 290.364C164.652 290.247 164.737 289.992 164.737 289.598C164.737 288.684 164.227 288.228 163.206 288.228C161.997 288.228 161.406 288.711 161.433 289.678ZM164.71 291.572L164.737 290.995C164.603 291.093 164.406 291.174 164.146 291.237C163.752 291.263 163.448 291.295 163.233 291.331C162.489 291.456 162.037 291.559 161.876 291.64C161.482 291.828 161.285 292.168 161.285 292.66C161.285 293.055 161.401 293.363 161.634 293.587C161.876 293.811 162.198 293.923 162.601 293.923C162.861 293.923 163.098 293.887 163.313 293.816C163.537 293.744 163.752 293.628 163.958 293.466C164.173 293.296 164.343 293.05 164.468 292.728C164.603 292.405 164.683 292.02 164.71 291.572ZM172.739 292.056H173.868C173.832 292.575 173.635 293.122 173.277 293.695C173.08 294.017 172.771 294.277 172.35 294.474C171.938 294.662 171.454 294.756 170.899 294.756C170.711 294.756 170.577 294.751 170.496 294.743C170.102 294.725 169.699 294.622 169.287 294.434C168.141 293.86 167.568 292.723 167.568 291.022C167.568 290.126 167.774 289.329 168.186 288.631C168.696 287.807 169.574 287.395 170.818 287.395C171.696 287.395 172.395 287.619 172.914 288.067C173.433 288.505 173.733 289.083 173.814 289.799H172.686C172.507 288.752 171.893 288.228 170.845 288.228C170.165 288.228 169.654 288.478 169.314 288.98C168.983 289.472 168.817 290.153 168.817 291.022C168.817 291.863 168.992 292.557 169.341 293.104C169.69 293.65 170.219 293.923 170.926 293.923C171.535 293.923 171.978 293.731 172.256 293.346C172.551 292.96 172.712 292.531 172.739 292.056ZM176.652 294.487V288.496H174.288V287.664H180.198V288.496H177.834V294.487H176.652ZM182.283 287.664V293.104L185.843 287.664H187.159V294.487H185.977V289.034L182.431 294.487H181.101V287.664H182.283ZM190.272 287.664V290.646L193.187 287.664H194.57L191.374 290.834L194.745 294.487H193.335L190.272 291.075V294.487H189.09V287.664H190.272ZM195.198 292.419C194.965 291.461 194.974 290.534 195.225 289.638C195.475 288.743 196.004 288.102 196.81 287.717C197.257 287.502 197.781 287.395 198.381 287.395C198.981 287.395 199.505 287.502 199.953 287.717C200.759 288.093 201.292 288.765 201.551 289.732C201.668 290.18 201.726 290.632 201.726 291.089C201.735 291.537 201.681 291.98 201.565 292.419C201.457 292.849 201.265 293.243 200.987 293.601C200.719 293.959 200.374 294.241 199.953 294.447C199.496 294.653 198.972 294.756 198.381 294.756C197.79 294.756 197.266 294.653 196.81 294.447C196.031 294.071 195.493 293.395 195.198 292.419ZM196.447 289.719C196.331 290.077 196.272 290.525 196.272 291.062C196.272 291.59 196.331 292.043 196.447 292.419C196.563 292.795 196.698 293.077 196.85 293.265C197.172 293.623 197.54 293.834 197.951 293.896C198.238 293.941 198.525 293.941 198.811 293.896C198.937 293.887 199.111 293.825 199.335 293.708C199.577 293.583 199.774 293.426 199.926 293.238C200.078 293.05 200.208 292.777 200.316 292.419C200.432 292.043 200.49 291.59 200.49 291.062C200.49 290.525 200.432 290.077 200.316 289.719C200.19 289.325 200.051 289.043 199.899 288.873C199.756 288.702 199.577 288.559 199.362 288.443C199.147 288.326 198.963 288.255 198.811 288.228C198.525 288.183 198.238 288.183 197.951 288.228C197.826 288.237 197.647 288.304 197.414 288.429C196.957 288.653 196.635 289.083 196.447 289.719ZM203.283 294.487V287.664H206.534C207.976 287.664 208.697 288.205 208.697 289.289C208.697 290.068 208.285 290.601 207.461 290.887V290.928C208.016 291.062 208.401 291.277 208.616 291.572C208.84 291.868 208.952 292.249 208.952 292.714C208.952 293.457 208.679 293.95 208.133 294.192C207.685 294.389 207.139 294.487 206.494 294.487H203.283ZM206.158 288.496H204.465V290.511H206.104C206.579 290.511 206.928 290.417 207.152 290.229C207.385 290.032 207.501 289.777 207.501 289.464C207.501 288.819 207.053 288.496 206.158 288.496ZM206.158 291.344H204.465V293.654H206.198C207.219 293.654 207.73 293.305 207.73 292.607C207.73 291.765 207.206 291.344 206.158 291.344ZM210.524 294.487V287.664H211.706V290.364H213.426C213.972 290.364 214.429 290.417 214.796 290.525C215.673 290.749 216.13 291.389 216.166 292.446C216.166 293.072 215.973 293.569 215.588 293.937C215.212 294.304 214.626 294.487 213.829 294.487H210.524ZM213.144 291.196H211.706V293.654H213.359C214.415 293.654 214.944 293.225 214.944 292.365C214.944 291.944 214.805 291.64 214.527 291.452C214.438 291.38 214.29 291.322 214.084 291.277C213.869 291.223 213.556 291.196 213.144 291.196ZM216.999 294.487V287.664H218.181V294.487H216.999ZM220.651 287.664L222.397 290.189L224.143 287.664H225.46L223.069 290.928L225.648 294.487H224.331L222.397 291.68L220.463 294.487H219.146L221.725 290.928L219.334 287.664H220.651ZM229.54 292.419C229.307 291.461 229.316 290.534 229.567 289.638C229.818 288.743 230.346 288.102 231.152 287.717C231.6 287.502 232.124 287.395 232.723 287.395C233.323 287.395 233.847 287.502 234.295 287.717C235.101 288.093 235.634 288.765 235.894 289.732C236.01 290.18 236.068 290.632 236.068 291.089C236.077 291.537 236.023 291.98 235.907 292.419C235.8 292.849 235.607 293.243 235.329 293.601C235.061 293.959 234.716 294.241 234.295 294.447C233.838 294.653 233.315 294.756 232.723 294.756C232.132 294.756 231.609 294.653 231.152 294.447C230.373 294.071 229.836 293.395 229.54 292.419ZM230.789 289.719C230.673 290.077 230.615 290.525 230.615 291.062C230.615 291.59 230.673 292.043 230.789 292.419C230.906 292.795 231.04 293.077 231.192 293.265C231.515 293.623 231.882 293.834 232.294 293.896C232.58 293.941 232.867 293.941 233.153 293.896C233.279 293.887 233.453 293.825 233.677 293.708C233.919 293.583 234.116 293.426 234.268 293.238C234.42 293.05 234.55 292.777 234.658 292.419C234.774 292.043 234.832 291.59 234.832 291.062C234.832 290.525 234.774 290.077 234.658 289.719C234.532 289.325 234.394 289.043 234.241 288.873C234.098 288.702 233.919 288.559 233.704 288.443C233.489 288.326 233.306 288.255 233.153 288.228C232.867 288.183 232.58 288.183 232.294 288.228C232.168 288.237 231.989 288.304 231.756 288.429C231.3 288.653 230.977 289.083 230.789 289.719ZM238.777 294.487V288.496H236.413V287.664H242.324V288.496H239.959V294.487H238.777ZM244 287.664L245.746 290.189L247.493 287.664H248.809L246.418 290.928L248.997 294.487H247.681L245.746 291.68L243.812 294.487H242.496L245.075 290.928L242.684 287.664H244ZM249.754 292.419C249.522 291.461 249.531 290.534 249.781 289.638C250.032 288.743 250.56 288.102 251.366 287.717C251.814 287.502 252.338 287.395 252.938 287.395C253.538 287.395 254.062 287.502 254.51 287.717C255.315 288.093 255.848 288.765 256.108 289.732C256.224 290.18 256.283 290.632 256.283 291.089C256.292 291.537 256.238 291.98 256.121 292.419C256.014 292.849 255.821 293.243 255.544 293.601C255.275 293.959 254.93 294.241 254.51 294.447C254.053 294.653 253.529 294.756 252.938 294.756C252.347 294.756 251.823 294.653 251.366 294.447C250.587 294.071 250.05 293.395 249.754 292.419ZM251.004 289.719C250.887 290.077 250.829 290.525 250.829 291.062C250.829 291.59 250.887 292.043 251.004 292.419C251.12 292.795 251.254 293.077 251.407 293.265C251.729 293.623 252.096 293.834 252.508 293.896C252.795 293.941 253.081 293.941 253.368 293.896C253.493 293.887 253.668 293.825 253.892 293.708C254.133 293.583 254.33 293.426 254.483 293.238C254.635 293.05 254.765 292.777 254.872 292.419C254.989 292.043 255.047 291.59 255.047 291.062C255.047 290.525 254.989 290.077 254.872 289.719C254.747 289.325 254.608 289.043 254.456 288.873C254.312 288.702 254.133 288.559 253.918 288.443C253.704 288.326 253.52 288.255 253.368 288.228C253.081 288.183 252.795 288.183 252.508 288.228C252.383 288.237 252.204 288.304 251.971 288.429C251.514 288.653 251.192 289.083 251.004 289.719ZM256.98 296.26L256.873 293.654H257.732C258.476 292.562 258.847 290.946 258.847 288.805V287.664H263.737V293.654H264.919L264.825 296.26H263.831V294.487H257.974V296.26H256.98ZM262.555 293.654V288.496H259.949V289.45C259.949 290.175 259.868 290.928 259.707 291.707C259.564 292.477 259.322 293.126 258.982 293.654H262.555ZM265.719 292.419C265.486 291.461 265.495 290.534 265.746 289.638C265.996 288.743 266.525 288.102 267.331 287.717C267.778 287.502 268.302 287.395 268.902 287.395C269.502 287.395 270.026 287.502 270.474 287.717C271.28 288.093 271.813 288.765 272.072 289.732C272.189 290.18 272.247 290.632 272.247 291.089C272.256 291.537 272.202 291.98 272.086 292.419C271.978 292.849 271.786 293.243 271.508 293.601C271.239 293.959 270.895 294.241 270.474 294.447C270.017 294.653 269.493 294.756 268.902 294.756C268.311 294.756 267.787 294.653 267.331 294.447C266.551 294.071 266.014 293.395 265.719 292.419ZM266.968 289.719C266.851 290.077 266.793 290.525 266.793 291.062C266.793 291.59 266.851 292.043 266.968 292.419C267.084 292.795 267.219 293.077 267.371 293.265C267.693 293.623 268.06 293.834 268.472 293.896C268.759 293.941 269.045 293.941 269.332 293.896C269.457 293.887 269.632 293.825 269.856 293.708C270.098 293.583 270.295 293.426 270.447 293.238C270.599 293.05 270.729 292.777 270.836 292.419C270.953 292.043 271.011 291.59 271.011 291.062C271.011 290.525 270.953 290.077 270.836 289.719C270.711 289.325 270.572 289.043 270.42 288.873C270.277 288.702 270.098 288.559 269.883 288.443C269.668 288.326 269.484 288.255 269.332 288.228C269.045 288.183 268.759 288.183 268.472 288.228C268.347 288.237 268.168 288.304 267.935 288.429C267.478 288.653 267.156 289.083 266.968 289.719ZM273.804 294.487V287.664H277.055C278.497 287.664 279.218 288.205 279.218 289.289C279.218 290.068 278.806 290.601 277.982 290.887V290.928C278.537 291.062 278.922 291.277 279.137 291.572C279.361 291.868 279.473 292.249 279.473 292.714C279.473 293.457 279.2 293.95 278.653 294.192C278.206 294.389 277.659 294.487 277.015 294.487H273.804ZM276.679 288.496H274.986V290.511H276.625C277.1 290.511 277.449 290.417 277.673 290.229C277.906 290.032 278.022 289.777 278.022 289.464C278.022 288.819 277.574 288.496 276.679 288.496ZM276.679 291.344H274.986V293.654H276.719C277.74 293.654 278.25 293.305 278.25 292.607C278.25 291.765 277.726 291.344 276.679 291.344Z" fill="black"/>
<rect x="16.6562" y="16.1191" width="5.37302" height="5.37302" fill="black"/>
<rect x="16.6562" y="223.517" width="5.37302" height="5.37302" fill="black"/>
<rect x="298.74" y="16.1191" width="5.37302" height="5.37302" fill="black"/>
<rect x="75.2222" y="223.517" width="5.37302" height="5.37302" fill="black"/>
<rect x="298.74" y="223.517" width="5.37302" height="5.37302" fill="black"/>
</svg>
