<svg width="155" height="204" viewBox="0 0 155 204" fill="none" xmlns="http://www.w3.org/2000/svg">
<g clip-path="url(#clip0_930_7920)">
<path fill-rule="evenodd" clip-rule="evenodd" d="M31.0609 31.4266L31.2888 32.2771L22.7376 34.5928L14.1864 36.9086L14.3949 37.7887L14.6033 38.6689L11.2104 39.578L7.81755 40.4871L8.04554 41.338L8.27354 42.1889L6.5308 42.6558L4.78807 43.1228L5.01606 43.9737L5.24406 44.8246L4.39503 45.0521L3.54601 45.2796L3.774 46.1305L4.002 46.9813L3.15297 47.2088L2.30395 47.4363L2.77194 49.1829L3.23992 50.9295L4.93797 50.4745L6.63602 50.0195L6.87602 50.9151L7.11601 51.8108L8.85875 51.3438L10.6015 50.8769L11.0575 52.5787L11.5135 54.2804L12.3625 54.0529L13.2115 53.8254L14.5915 58.9756L15.9714 64.1257L16.8205 63.8982L17.6695 63.6707L19.7455 71.4182L21.8214 79.1658L22.6704 78.9383L23.5195 78.7108L25.1274 84.7118L26.7354 90.7128L27.5844 90.4853L28.4334 90.2578L30.0534 96.3036L31.6734 102.349L32.5671 102.11L33.4608 101.87L35.2967 108.722L37.1327 115.574L37.9817 115.347L38.8307 115.119L40.2227 120.314L41.6147 125.509L42.4637 125.282L43.3127 125.054L45.1487 131.906L46.9846 138.758L47.8337 138.53L48.6827 138.303L50.5306 145.199L52.3786 152.096L53.2276 151.869L54.0767 151.641L55.6846 157.642L57.2926 163.643L58.1863 163.404L59.08 163.164L61.156 170.912L63.2319 178.659L64.0809 178.432L64.93 178.204L66.0819 182.504L67.2339 186.803L68.0829 186.575L68.932 186.348L69.6279 188.945L70.3239 191.543L71.1729 191.315L72.022 191.088L72.478 192.789L72.9339 194.491L74.6767 194.024L76.4194 193.557L76.6474 194.408L76.8754 195.259L78.5735 194.804L80.2715 194.349L80.4995 195.2L80.7275 196.051L83.3193 195.356L85.911 194.662L86.151 195.558L86.391 196.453L89.7871 195.543L93.1832 194.633L93.4112 195.484L93.6392 196.335L114.284 190.803L134.929 185.272L134.701 184.421L134.473 183.57L137.913 182.648L141.354 181.726L141.114 180.83L140.874 179.935L143.421 179.252L145.968 178.57L145.74 177.719L145.512 176.868L147.255 176.401L148.998 175.934L148.77 175.083L148.542 174.232L149.391 174.005L150.24 173.777L150.012 172.926L149.784 172.075L150.633 171.848L151.482 171.62L150.786 169.023L150.09 166.425L150.939 166.198L151.788 165.97L150.864 162.522L149.94 159.074L150.834 158.834L151.728 158.595L149.892 151.743L148.056 144.891L148.905 144.664L149.754 144.436L148.134 138.39L146.514 132.345L147.363 132.117L148.212 131.89L146.832 126.739L145.452 121.589L146.301 121.362L147.15 121.134L145.542 115.133L143.934 109.132L144.783 108.905L145.632 108.677L144.253 103.53L142.874 98.3836L143.738 98.1245L144.603 97.8654L143.24 92.6867L141.877 87.508L142.725 87.2807L143.574 87.0534L141.966 81.0524L140.358 75.0514L141.207 74.8239L142.056 74.5964L140.676 69.4463L139.296 64.2962L140.145 64.0687L140.994 63.8412L139.614 58.6911L138.234 53.541L139.083 53.3135L139.932 53.086L138.54 47.8911L137.148 42.6962L138.042 42.4568L138.935 42.2173L137.327 36.2163L135.72 30.2153L136.569 29.9878L137.418 29.7603L136.038 24.6102L134.658 19.4601L137.205 18.7776L139.752 18.0951L139.524 17.2442L139.296 16.3933L140.14 16.1673C140.604 16.0429 140.996 15.8982 141.012 15.8455C141.028 15.7929 140.755 14.5807 140.407 13.1517L139.773 10.5537L138.828 10.837L137.883 11.1204L137.653 10.2637L137.424 9.40711L136.575 9.6346L135.726 9.8621L135.498 9.01121L135.27 8.16032L131.829 9.08228L128.388 10.0042L128.16 9.15335L127.932 8.30246L123.642 9.45191L119.353 10.6014L119.113 9.70569L118.873 8.81002L110.293 11.1089L101.713 13.4078L101.485 12.5569L101.257 11.706L66.0452 21.1411L30.833 30.5762L31.0609 31.4266ZM54.4411 28.9543L54.6811 29.85L40.9627 33.5258L27.2442 37.2017L27.4722 38.0526L27.7002 38.9035L23.4104 40.0529L19.1206 41.2024L19.5646 42.8594L20.0086 44.5164L23.4047 43.6064L26.8008 42.6964L27.0407 43.5921L27.2807 44.4877L35.0113 42.4163L42.7419 40.3449L42.9699 41.1958L43.1979 42.0467L74.9247 33.5455L106.651 25.0444L106.423 24.1935L106.195 23.3426L107.893 22.8876L109.591 22.4326L109.363 21.5818L109.135 20.7309L104.846 21.8803L100.556 23.0298L100.328 22.1789L100.1 21.328L95.8101 22.4774L91.5203 23.6269L91.2803 22.7312L91.0403 21.8355L94.4811 20.9136L97.9218 19.9916L97.7059 19.1855L97.4899 18.3794L84.6204 21.8278L71.751 25.2761L71.511 24.3805L71.271 23.4848L62.7361 25.7717L54.2011 28.0587L54.4411 28.9543ZM2.80947 49.1728C3.07338 50.1581 3.19769 50.5698 3.08578 50.0879C2.97379 49.6059 2.75789 48.7998 2.60588 48.2965C2.45397 47.7932 2.54557 48.1876 2.80947 49.1728ZM31.8281 54.309L32.2841 56.0108L37.4229 54.6338L42.5618 53.2569L42.7898 54.1078L43.0177 54.9587L43.8668 54.7312L44.7158 54.5037L44.9558 55.3994L45.1958 56.295L39.2079 57.8995L33.2201 59.5039L33.4481 60.3548L33.6761 61.2057L35.3741 60.7507L37.0722 60.2957L37.3001 61.1466L37.5281 61.9975L40.9689 61.0755L44.4097 60.1536L44.6497 61.0492L44.8897 61.9449L39.7509 63.3219L34.612 64.6988L35.056 66.3558L35.5 68.0128L38.0471 67.3303L40.5942 66.6478L40.8342 67.5435L41.0742 68.4392L42.8201 67.9713L44.5661 67.5035L44.7745 68.3836L44.9829 69.2638L40.7217 70.4305L36.4604 71.5972L36.6762 72.4025L36.892 73.2077L37.741 72.9802L38.59 72.7527L38.818 73.6036L39.046 74.4545L42.4868 73.5325L45.9276 72.6106L46.1556 73.4614L46.3836 74.3123L48.9307 73.6298L51.4777 72.9474L51.7177 73.843L51.9577 74.7387L45.1208 76.5706L38.2839 78.4026L38.5119 79.2535L38.7399 80.1044L41.287 79.4219L43.8341 78.7394L44.0621 79.5903L44.2901 80.4412L48.5799 79.2917L52.8697 78.1423L53.3377 79.8888L53.8057 81.6354L50.3649 82.5573L46.9241 83.4793L46.6961 82.6284L46.4681 81.7775L44.7701 82.2325L43.072 82.6875L43.528 84.3893L43.984 86.091L46.5758 85.3966L49.1675 84.7021L49.3955 85.553L49.6235 86.4039L54.7623 85.0269L59.9012 83.65L60.1292 84.5009L60.3572 85.3518L62.0552 84.8968L63.7533 84.4418L63.9933 85.3375L64.2333 86.2331L59.0497 87.6221L53.8662 89.011L53.6382 88.1601L53.4102 87.3092L48.3161 88.6742L43.2219 90.0392L43.4379 90.8453L43.6539 91.6514L45.352 91.1964L47.05 90.7414L47.278 91.5923L47.506 92.4432L50.9468 91.5212L54.3876 90.5992L54.6276 91.4949L54.8676 92.3906L68.586 88.7147L82.3045 85.0389L82.5325 85.8898L82.7605 86.7407L85.3075 86.0582L87.8546 85.3757L87.6266 84.5248L87.3986 83.6739L89.9904 82.9795L92.5822 82.285L92.1262 80.5832L91.6702 78.8814L86.4866 80.2704L81.3031 81.6593L81.0631 80.7636L80.8231 79.8679L86.0067 78.479L91.1902 77.0901L90.9622 76.2392L90.7342 75.3883L92.4322 74.9333L94.1303 74.4783L93.9023 73.6274L93.6743 72.7766L87.6864 74.381L81.6986 75.9854L81.2306 74.2389L80.7626 72.4923L88.4485 70.4329L96.1344 68.3735L95.6904 66.7165L95.2464 65.0595L91.8503 65.9695L88.4542 66.8794L88.2143 65.9838L87.9743 65.0881L88.8233 64.8606L89.6723 64.6331L89.4323 63.7374L89.1923 62.8418L92.6331 61.9198L96.0739 60.9979L95.8579 60.1917L95.6419 59.3856L93.8992 59.8526L92.1564 60.3196L91.9284 59.4687L91.7004 58.6178L90.8514 58.8453L90.0024 59.0728L89.7624 58.1771L89.5224 57.2814L91.2204 56.8265L92.9185 56.3715L92.6905 55.5206L92.4625 54.6697L93.3562 54.4302L94.2499 54.1908L94.0219 53.3399L93.7939 52.489L90.3532 53.4109L86.9124 54.3329L86.6844 53.482L86.4564 52.6311L85.6074 52.8586L84.7583 53.0861L84.5183 52.1904L84.2783 51.2948L87.6744 50.3848L91.0705 49.4748L90.8425 48.6239L90.6146 47.773L91.5083 47.5336L92.402 47.2941L92.174 46.4432L91.946 45.5923L86.7592 46.9821L81.5725 48.3719L81.3641 47.4917L81.1556 46.6116L82.8695 46.1263L84.5834 45.641L84.3559 44.792L84.1284 43.9431L87.5692 43.0211L91.01 42.0992L90.782 41.2483L90.554 40.3974L93.1011 39.7149L95.6482 39.0324L95.4322 38.2266L95.2163 37.4207L78.9224 41.7624L62.6284 46.1041L62.3689 45.2377L62.1093 44.3712L61.3082 44.5859L60.5071 44.8006L60.7471 45.6962L60.9871 46.5919L52.3628 48.9028L43.7384 51.2136L43.4985 50.318L43.2585 49.4223L37.3153 51.0148L31.3721 52.6072L31.8281 54.309ZM69.3632 50.6834L69.6032 51.579L71.346 51.1121L73.0887 50.6451L72.8487 49.7494L72.6087 48.8538L70.866 49.3207L69.1232 49.7877L69.3632 50.6834ZM46.4083 67.9699L46.6483 68.8655L48.391 68.3986L50.1338 67.9316L49.8938 67.0359L49.6538 66.1403L47.911 66.6072L46.1683 67.0742L46.4083 67.9699ZM70.6356 76.1658L70.8755 77.0615L72.663 76.5826L74.4504 76.1036L74.2104 75.208L73.9704 74.3123L72.183 74.7912L70.3956 75.2702L70.6356 76.1658ZM65.6913 84.8825L65.9313 85.7781L69.3721 84.8562L72.8129 83.9342L72.5729 83.0386L72.3329 82.1429L68.8921 83.0648L65.4513 83.9868L65.6913 84.8825ZM75.969 82.1286L76.209 83.0243L77.1027 82.7848L77.9964 82.5453L77.7564 81.6496L77.5164 80.754L76.6227 80.9934L75.729 81.2329L75.969 82.1286ZM48.682 96.8319L48.898 97.638L51.4897 96.9436L54.0815 96.2491L54.3095 97.1L54.5375 97.9509L57.9783 97.0289L61.4191 96.107L61.647 96.9579L61.875 97.8088L76.3978 93.9174L90.9206 90.026L90.4766 88.369L90.0327 86.712L77.1632 90.1604L64.2938 93.6087L64.0658 92.7579L63.8378 91.907L56.1519 93.9664L48.466 96.0258L48.682 96.8319ZM57.3995 101.84L57.6275 102.691L58.4765 102.463L59.3255 102.236L59.5535 103.087L59.7815 103.938L75.198 99.8067L90.6146 95.6759L90.3986 94.8698L90.1826 94.0637L81.6029 96.3626L73.0233 98.6615L72.7833 97.7658L72.5433 96.8702L64.8574 98.9296L57.1715 100.989L57.3995 101.84ZM57.0814 107.445L57.2974 108.251L58.1018 108.036L58.9061 107.82L58.6901 107.014L58.4741 106.208L57.6698 106.423L56.8654 106.639L57.0814 107.445ZM60.9455 108.282L61.1735 109.132L62.9162 108.666L64.659 108.199L64.887 109.049L65.115 109.9L66.7683 109.457L68.4217 109.014L68.1937 108.163L67.9657 107.313L70.6022 106.606L73.2386 105.9L73.4666 106.751L73.6946 107.601L75.348 107.158L77.0013 106.715L76.7733 105.865L76.5453 105.014L80.8798 103.852L85.2143 102.691L85.4423 103.542L85.6703 104.393L87.3684 103.938L89.0664 103.483L88.8384 102.632L88.6104 101.781L90.3085 101.326L92.0065 100.871L91.7785 100.02L91.5505 99.169L76.134 103.3L60.7175 107.431L60.9455 108.282ZM67.965 113.745L68.181 114.551L75.0179 112.719L81.8548 110.887L81.6388 110.081L81.4228 109.275L74.5859 111.107L67.749 112.938L67.965 113.745ZM85.1242 109.147L85.3402 109.953L86.9936 109.51L88.647 109.067L88.431 108.261L88.215 107.455L86.5616 107.898L84.9082 108.341L85.1242 109.147ZM67.6589 119.394L67.8749 120.201L69.5283 119.758L71.1816 119.315L70.9656 118.508L70.7496 117.702L69.0963 118.145L67.4429 118.588L67.6589 119.394ZM74.9071 119.276L75.1231 120.082L75.9721 119.855L76.8211 119.627L76.6051 118.821L76.3892 118.015L75.5401 118.243L74.6911 118.47L74.9071 119.276Z" fill="#DCDCDC"/>
</g>
<defs>
<clipPath id="clip0_930_7920">
<rect width="155" height="204" fill="white"/>
</clipPath>
</defs>
</svg>
