<svg width="204" height="204" viewBox="0 0 204 204" fill="none" xmlns="http://www.w3.org/2000/svg">
<g clip-path="url(#clip0_930_7915)">
<path fill-rule="evenodd" clip-rule="evenodd" d="M135.747 32.1188L135.119 32.7462L126.852 24.4785L118.584 16.2108L117.956 16.8383L117.329 17.4658L113.526 13.6627L109.723 9.85951L109.095 10.487L108.468 11.1145L106.583 9.22943L104.698 7.3444L104.037 8.0049L103.377 8.66541L102.715 8.00399L102.054 7.34257L101.426 7.97005L100.799 8.59753L100.17 7.96919L99.5421 7.34084L97.6266 9.2563L95.7112 11.1718L97.0009 12.4615L98.2907 13.7513L97.6632 14.3788L97.0357 15.0062L98.2924 16.2629L99.5491 17.5196L95.7182 21.3506L91.8873 25.1815L92.5156 25.8098L93.144 26.4382L88.7186 30.8636L84.2932 35.2889L84.9215 35.9173L85.5499 36.5456L81.752 40.3435L77.9541 44.1414L78.6155 44.8028L79.2769 45.4643L78.6494 46.0917L78.022 46.7192L77.3605 46.0578L76.6991 45.3964L76.0386 46.0569L75.3781 46.7174L76.0395 47.3788L76.701 48.0402L76.0735 48.6677L75.446 49.2952L76.0743 49.9235L76.7027 50.5519L76.1082 51.1463L75.5138 51.7408L74.8854 51.1124L74.2571 50.4841L73.5966 51.1446L72.9361 51.8051L73.5644 52.4334L74.1928 53.0618L73.5653 53.6893L72.9378 54.3167L73.5992 54.9782L74.2606 55.6396L74.9211 54.9791L75.5817 54.3186L74.9533 53.6902L74.325 53.0619L74.9194 52.4674L75.5139 51.873L76.1422 52.5013L76.7706 53.1297L77.398 52.5022L78.0255 51.8747L78.6208 52.47L79.2161 53.0653L78.5886 53.6927L77.9611 54.3202L78.6225 54.9816L79.2839 55.643L79.9114 55.0156L80.5389 54.3881L81.1672 55.0164L81.7956 55.6448L81.1681 56.2723L80.5406 56.8997L81.202 57.5612L81.8635 58.2226L82.4909 57.5951L83.1184 56.9676L83.7137 57.5629L84.309 58.1582L83.6815 58.7856L83.054 59.4131L83.6824 60.0415L84.3107 60.6698L83.7163 61.2643L83.1218 61.8587L82.4935 61.2304L81.8651 60.602L81.2046 61.2625L80.5441 61.923L81.2055 62.5845L81.8669 63.2459L82.4944 62.6184L83.1219 61.9909L83.7172 62.5862L84.3124 63.1815L83.685 63.8089L83.0575 64.4364L83.7189 65.0978L84.3803 65.7592L83.7198 66.4198L83.0593 67.0803L83.7207 67.7417L84.3821 68.4031L85.0426 67.7426L85.7031 67.0821L86.2984 67.6774L86.8937 68.2726L86.2332 68.9331L85.5727 69.5936L86.2341 70.2551L86.8955 70.9165L87.556 70.256L88.2165 69.5955L88.8118 70.1907L89.4071 70.786L88.7466 71.4465L88.0861 72.107L91.9223 75.9432L95.7585 79.7794L96.419 79.1189L97.0795 78.4584L93.9047 75.2836L90.7299 72.1088L91.3904 71.4483L92.0509 70.7878L89.5045 68.2414L86.958 65.6949L86.2975 66.3554L85.637 67.0159L85.0087 66.3876L84.3803 65.7592L85.0408 65.0987L85.7013 64.4382L85.073 63.8099L84.4446 63.1815L85.0721 62.5541L85.6996 61.9266L85.0712 61.2982L84.4429 60.6699L85.0374 60.0754L85.6318 59.481L86.2601 60.1093L86.8885 60.7377L87.516 60.1102L88.1435 59.4827L88.7718 60.1111L89.4001 60.7394L88.7727 61.3669L88.1452 61.9944L88.8066 62.6558L89.468 63.3172L90.0955 62.6897L90.723 62.0622L91.3183 62.6575L91.9135 63.2528L91.286 63.8803L90.6586 64.5078L92.5767 66.4259L94.4948 68.344L95.1553 67.6835L95.8158 67.023L93.9308 65.1379L92.0457 63.2529L92.6732 62.6254L93.3007 61.9979L91.3495 60.0468L89.3983 58.0956L88.7708 58.7231L88.1434 59.3505L87.5481 58.7553L86.9528 58.16L87.5803 57.5325L88.2078 56.905L87.5794 56.2767L86.9511 55.6483L87.5786 55.0209L88.206 54.3934L88.8344 55.0217L89.4627 55.6501L90.0902 55.0226L90.7177 54.3951L95.1492 58.8266L99.5807 63.2581L100.241 62.5976L100.902 61.9371L97.7269 58.7623L94.5521 55.5875L95.1796 54.96L95.807 54.3325L93.922 52.4475L92.037 50.5624L93.2919 49.3075L94.5469 48.0525L96.4319 49.9376L98.317 51.8226L97.6895 52.4501L97.062 53.0776L98.3518 54.3673L99.6415 55.6571L100.93 54.3691L102.217 53.0811L99.671 50.5347L97.1246 47.9882L97.7521 47.3607L98.3795 46.7333L97.7512 46.1049L97.1228 45.4766L97.7173 44.8821L98.3118 44.2877L102.115 48.0908L105.918 51.8939L106.579 51.2334L107.239 50.5729L105.982 49.3162L104.726 48.0596L105.386 47.3991L106.047 46.7385L104.129 44.8204L102.21 42.9023L102.838 42.2749L103.465 41.6474L102.837 41.019L102.209 40.3907L102.803 39.7962L103.398 39.2018L107.829 43.6333L112.261 48.0648L112.921 47.4042L113.582 46.7437L110.407 43.5689L107.232 40.3941L107.86 39.7667L108.487 39.1392L107.23 37.8825L105.974 36.6258L107.229 35.3708L108.484 34.1159L109.707 35.3395L110.931 36.5631L110.303 37.1906L109.676 37.8181L119.233 47.3756L128.791 56.933L129.418 56.3055L130.046 55.6781L130.674 56.3064L131.302 56.9348L130.675 57.5622L130.047 58.1897L133.222 61.3645L136.397 64.5393L135.77 65.1668L135.142 65.7943L142.748 73.4006L150.355 81.0068L149.727 81.6343L149.1 82.2618L148.471 81.6335L147.843 81.0051L147.216 81.6326L146.588 82.2601L143.413 79.0853L140.238 75.9105L139.578 76.571L138.917 77.2315L141.464 79.7779L144.01 82.3244L142.128 84.2068L140.245 86.0893L138.327 84.1712L136.409 82.253L135.749 82.9135L135.088 83.5741L137.635 86.1205L140.181 88.667L138.959 89.8889L137.737 91.1108L135.819 89.1927L133.901 87.2746L132.58 88.5956L131.259 89.9166L133.177 91.8347L135.095 93.7528L134.501 94.3473L133.906 94.9417L133.278 94.3134L132.65 93.6851L132.022 94.3125L131.395 94.94L128.848 92.3936L126.302 89.8471L125.014 91.1351L123.726 92.4231L126.272 94.9695L128.819 97.516L128.191 98.1435L127.564 98.7709L125.017 96.2245L122.471 93.678L121.843 94.3055L121.216 94.933L118.669 92.3865L116.123 89.8401L115.462 90.5006L114.802 91.1611L119.233 95.5926L123.665 100.024L123.071 100.619L122.476 101.213L121.848 100.585L121.219 99.9563L120.559 100.617L119.898 101.277L116.095 97.4742L112.292 93.671L111.665 94.2985L111.037 94.926L109.78 93.6693L108.524 92.4126L107.863 93.0731L107.203 93.7336L111.006 97.5367L114.809 101.34L113.587 102.562L112.365 103.784L101.584 93.0027L90.803 82.2216L91.4305 81.5941L92.0579 80.9666L88.2548 77.1635L84.4517 73.3603L85.0791 72.7329L85.7066 72.1054L85.0452 71.444L84.3838 70.7825L83.7563 71.41L83.1288 72.0375L82.5005 71.4092L81.8721 70.7808L81.2116 71.4413L80.5511 72.1018L81.2125 72.7632L81.874 73.4247L82.5014 72.7972L83.1289 72.1697L83.7242 72.765L84.3195 73.3602L83.692 73.9877L83.0645 74.6152L83.6928 75.2436L84.3212 75.8719L83.6937 76.4994L83.0662 77.1269L94.5087 88.5694L105.951 100.012L105.291 100.672L104.63 101.333L106.548 103.251L108.466 105.169L107.872 105.764L107.278 106.358L102.813 101.893L98.3484 97.4289L97.7209 98.0563L97.0935 98.6838L95.8698 97.4602L94.6462 96.2366L95.2737 95.6091L95.9012 94.9816L94.5783 93.6588L93.2555 92.336L92.628 92.9634L92.0006 93.5909L91.4053 92.9956L90.81 92.4004L91.4375 91.7729L92.065 91.1454L85.7154 84.7958L79.3658 78.4462L79.9932 77.8187L80.6207 77.1913L79.9924 76.5629L79.364 75.9346L79.9915 75.3071L80.619 74.6796L79.9576 74.0182L79.2962 73.3568L78.6357 74.0173L77.9752 74.6778L78.6035 75.3061L79.2318 75.9345L78.6374 76.5289L78.0429 77.1234L77.4146 76.495L76.7862 75.8667L76.1588 76.4942L75.5313 77.1217L74.9029 76.4933L74.2746 75.865L74.9021 75.2375L75.5296 74.61L74.8681 73.9486L74.2067 73.2872L73.5462 73.9477L72.8857 74.6082L73.5471 75.2696L74.2085 75.931L73.6141 76.5255L73.0196 77.1199L72.3582 76.4585L71.6968 75.7971L71.0363 76.4576L70.3758 77.1181L71.0372 77.7795L71.6986 78.4409L71.0711 79.0684L70.4437 79.6959L69.7823 79.0345L69.1208 78.3731L68.4934 79.0005L67.8659 79.628L67.2706 79.0327L66.6753 78.4375L67.3028 77.81L67.9303 77.1825L67.2689 76.5211L66.6075 75.8597L65.98 76.4872L65.3525 77.1146L64.7572 76.5194L64.1619 75.9241L64.7894 75.2966L65.4169 74.6691L64.7555 74.0077L64.0941 73.3463L63.4666 73.9738L62.8391 74.6013L62.2108 73.9729L61.5824 73.3446L62.2099 72.7171L62.8374 72.0896L62.176 71.4282L61.5145 70.7668L60.8871 71.3942L60.2596 72.0217L59.6312 71.3934L59.0029 70.765L58.3424 71.4255L57.6819 72.086L58.3102 72.7144L58.9386 73.3427L58.3441 73.9372L57.7497 74.5316L57.1213 73.9033L56.493 73.275L53.917 75.8509L51.341 78.4269L51.9694 79.0552L52.5977 79.6836L47.5119 84.7695L42.426 89.8553L43.0543 90.4837L43.6827 91.112L39.8848 94.9099L36.0869 98.7078L36.7483 99.3693L37.4097 100.031L32.3568 105.084L27.304 110.136L27.9323 110.765L28.5607 111.393L23.4748 116.479L18.3889 121.565L19.0172 122.193L19.6456 122.822L15.2202 127.247L10.7948 131.672L11.4232 132.301L12.0515 132.929L9.50858 135.472L6.96564 138.015L7.59399 138.643L8.22233 139.272L6.93435 140.56L5.64637 141.848L6.30778 142.509L6.9692 143.17L6.34172 143.798L5.71424 144.425L6.97093 145.682L8.22762 146.939L7.60014 147.566L6.97266 148.194L8.22935 149.45L9.48604 150.707L8.85857 151.335L8.23109 151.962L10.7775 154.508L13.324 157.055L12.6965 157.682L12.069 158.31L15.2438 161.485L18.4186 164.659L17.7581 165.32L17.0976 165.98L27.9118 176.795L38.7259 187.609L39.3864 186.948L40.0469 186.288L40.7084 186.949L41.3698 187.611L41.9973 186.983L42.6247 186.356L43.22 186.951L43.8153 187.546L43.1878 188.174L42.5603 188.801L43.2217 189.463L43.8832 190.124L44.5106 189.497L45.1381 188.869L45.7665 189.497L46.3948 190.126L47.0553 189.465L47.7158 188.805L47.0544 188.143L46.393 187.482L45.7655 188.109L45.138 188.737L44.5427 188.142L43.9475 187.546L44.575 186.919L45.2024 186.291L44.5741 185.663L43.9457 185.035L44.5402 184.44L45.1346 183.846L45.763 184.474L46.3913 185.102L47.0518 184.442L47.7123 183.781L47.084 183.153L46.4557 182.525L47.0831 181.897L47.7106 181.27L48.339 181.898L48.9673 182.526L49.6278 181.866L50.2883 181.205L49.6269 180.544L48.9655 179.883L48.305 180.543L47.6445 181.204L47.0161 180.575L46.3878 179.947L47.0483 179.286L47.7088 178.626L47.0804 177.998L46.4521 177.369L47.0466 176.775L47.641 176.18L48.2694 176.809L48.8977 177.437L49.5582 176.777L50.2187 176.116L49.5904 175.488L48.962 174.859L49.5565 174.265L50.1509 173.67L50.7793 174.299L51.4076 174.927L52.0681 174.267L52.7286 173.606L53.357 174.234L53.9853 174.863L53.3248 175.523L52.6643 176.184L53.3257 176.845L53.9871 177.507L54.6476 176.846L55.3081 176.186L54.6798 175.557L54.0515 174.929L54.6789 174.301L55.3064 173.674L55.9348 174.302L56.5631 174.931L57.2236 174.27L57.8841 173.61L57.2558 172.981L56.6274 172.353L57.2219 171.758L57.8163 171.164L58.4447 171.792L59.073 172.421L59.7005 171.793L60.328 171.166L60.9233 171.761L61.5185 172.356L60.8911 172.984L60.2636 173.611L60.925 174.273L61.5864 174.934L62.2469 174.274L62.9074 173.613L62.2791 172.985L61.6507 172.356L62.2782 171.729L62.9057 171.101L63.534 171.73L64.1624 172.358L64.7899 171.731L65.4173 171.103L66.0457 171.732L66.674 172.36L66.0465 172.987L65.4191 173.615L66.0805 174.276L66.7419 174.938L67.3694 174.31L67.9969 173.683L68.5921 174.278L69.1874 174.873L68.5599 175.501L67.9324 176.128L68.5939 176.79L69.2553 177.451L69.9158 176.791L70.5763 176.13L69.9479 175.502L69.3196 174.873L69.9141 174.279L70.5085 173.684L71.1369 174.313L71.7652 174.941L72.3927 174.314L73.0202 173.686L73.6154 174.281L74.2107 174.877L73.5832 175.504L72.9557 176.132L73.6172 176.793L74.2786 177.455L73.6841 178.049L73.0897 178.643L72.4283 177.982L71.7668 177.321L71.1063 177.981L70.4458 178.642L71.1072 179.303L71.7687 179.964L72.3961 179.337L73.0236 178.709L73.652 179.338L74.2803 179.966L73.6528 180.594L73.0254 181.221L73.6868 181.883L74.3482 182.544L75.0087 181.883L75.6692 181.223L75.0408 180.595L74.4125 179.966L75.007 179.372L75.6014 178.777L76.2298 179.406L76.8581 180.034L77.5186 179.374L78.1791 178.713L77.5177 178.052L76.8563 177.39L76.2288 178.018L75.6013 178.645L74.973 178.017L74.3446 177.388L74.9721 176.761L75.5996 176.134L74.9712 175.505L74.3429 174.877L74.9373 174.282L75.5318 173.688L76.1601 174.316L76.7885 174.945L77.449 174.284L78.1095 173.624L77.4812 172.995L76.8528 172.367L77.4803 171.739L78.1078 171.112L78.7361 171.74L79.3645 172.369L79.9919 171.741L80.6194 171.114L81.2478 171.742L81.8761 172.37L81.2486 172.998L80.6212 173.625L81.2495 174.254L81.8778 174.882L81.2504 175.509L80.6229 176.137L79.9945 175.509L79.3662 174.88L78.7057 175.541L78.0452 176.201L78.7066 176.863L79.368 177.524L80.0285 176.864L80.689 176.203L81.2843 176.798L81.8796 177.394L81.2191 178.054L80.5586 178.715L81.22 179.376L81.8814 180.038L82.5419 179.377L83.2024 178.717L82.5741 178.088L81.9457 177.46L82.5732 176.832L83.2007 176.205L83.829 176.833L84.4574 177.462L85.0848 176.834L85.7123 176.207L86.3407 176.835L86.969 177.463L86.3415 178.091L85.7141 178.718L86.3424 179.347L86.9707 179.975L86.3433 180.602L85.7158 181.23L85.0874 180.602L84.4591 179.973L83.7986 180.634L83.1381 181.294L83.7995 181.956L84.4609 182.617L85.1214 181.957L85.7819 181.296L86.3772 181.891L86.9725 182.487L86.312 183.147L85.6515 183.808L86.3129 184.469L86.9743 185.13L87.6348 184.47L88.2953 183.809L87.667 183.181L87.0386 182.553L87.6661 181.925L88.2936 181.298L88.9219 181.926L89.5503 182.554L90.2108 181.894L90.8713 181.233L90.2099 180.572L89.5484 179.911L88.921 180.538L88.2935 181.166L87.6982 180.57L87.1029 179.975L87.7304 179.348L88.3579 178.72L87.6965 178.059L87.0351 177.397L87.6295 176.803L88.224 176.208L88.8854 176.87L89.5468 177.531L90.2073 176.871L90.8678 176.21L90.2064 175.549L89.545 174.887L90.1725 174.26L90.7999 173.632L91.4614 174.294L92.1228 174.955L92.7503 174.328L93.3777 173.7L93.973 174.295L94.5683 174.891L93.9408 175.518L93.3133 176.146L93.9747 176.807L94.6362 177.469L95.2967 176.808L95.9572 176.148L95.3288 175.519L94.7005 174.891L95.2949 174.296L95.8894 173.702L96.5177 174.33L97.1461 174.959L97.8066 174.298L98.4671 173.638L97.8387 173.009L97.2104 172.381L97.8048 171.786L98.3993 171.192L99.0276 171.82L99.656 172.449L100.316 171.788L100.977 171.128L100.316 170.466L99.6542 169.805L99.0267 170.432L98.3992 171.06L97.8039 170.465L97.2087 169.869L97.8361 169.242L98.4636 168.614L97.8022 167.953L97.1408 167.292L97.7683 166.664L98.3957 166.037L99.0572 166.698L99.7186 167.359L100.346 166.732L100.974 166.104L101.569 166.7L102.164 167.295L101.537 167.922L100.909 168.55L101.571 169.211L102.232 169.873L102.859 169.245L103.487 168.618L104.115 169.246L104.744 169.874L105.371 169.247L105.999 168.62L106.627 169.248L107.255 169.876L107.916 169.216L108.576 168.555L107.948 167.927L107.32 167.299L107.947 166.671L108.575 166.044L109.203 166.672L109.831 167.3L110.492 166.64L111.152 165.979L110.524 165.351L109.896 164.723L110.49 164.128L111.084 163.534L111.713 164.162L112.341 164.79L113.002 164.13L113.662 163.469L113.034 162.841L112.405 162.213L113 161.618L113.594 161.024L114.223 161.652L114.851 162.28L115.512 161.62L116.172 160.959L116.833 161.621L117.495 162.282L121.293 158.484L125.091 154.686L125.719 155.315L126.347 155.943L130.145 152.145L133.943 148.347L134.572 148.976L135.2 149.604L138.998 145.806L142.796 142.008L143.424 142.637L144.052 143.265L147.85 139.467L151.648 135.669L152.277 136.297L152.905 136.926L157.363 132.467L161.822 128.009L162.483 128.67L163.145 129.332L166.942 125.534L170.74 121.736L171.369 122.364L171.997 122.993L176.422 118.567L180.848 114.142L181.476 114.77L182.104 115.399L185.275 112.228L188.445 109.058L189.702 110.315L190.959 111.571L191.619 110.911L192.28 110.25L193.569 111.54L194.859 112.83L196.775 110.914L198.69 108.999L198.062 108.37L197.433 107.742L198.688 106.487L199.943 105.232L198.025 103.314L196.107 101.396L196.768 100.735L197.428 100.075L194.882 97.5285L192.335 94.9821L192.963 94.3546L193.59 93.7271L189.159 89.2956L184.727 84.8641L185.355 84.2366L185.982 83.6092L176.458 74.0848L166.933 64.5604L167.561 63.9329L168.188 63.3054L152.281 47.3984L136.374 31.4913L135.747 32.1188ZM125.632 29.6662L125.005 30.2937L119.912 25.2008L114.819 20.1079L114.159 20.7684L113.498 21.4289L111.613 19.5439L109.728 17.6588L109.134 18.2533L108.539 18.8478L109.796 20.1044L111.052 21.3611L110.425 21.9886L109.798 22.6161L114.229 27.0476L118.66 31.4791L118.033 32.1066L117.406 32.734L127.591 42.9198L137.777 53.1057L137.117 53.7662L136.456 54.4267L145.947 63.918L155.439 73.4093L156.099 72.7488L156.76 72.0883L165.656 80.9843L174.552 89.8804L175.146 89.2859L175.741 88.6915L173.823 86.7734L171.905 84.8553L172.532 84.2278L173.16 83.6003L169.356 79.7972L165.553 75.994L166.181 75.3665L166.808 74.7391L166.18 74.1107L165.552 73.4824L166.84 72.1944L168.127 70.9064L147.194 49.9726L126.26 29.0388L125.632 29.6662ZM130.649 67.6419L129.988 68.3024L130.65 68.9638L131.311 69.6252L131.972 68.9647L132.632 68.3042L131.971 67.6428L131.309 66.9813L130.649 67.6419ZM101.493 56.1871L100.832 56.8476L101.493 57.5091L102.155 58.1705L102.815 57.51L103.476 56.8495L102.814 56.188L102.153 55.5266L101.493 56.1871ZM79.9723 47.4146L79.3448 48.042L79.9401 48.6373L80.5353 49.2326L81.1628 48.6051L81.7903 47.9776L81.195 47.3824L80.5998 46.7871L79.9723 47.4146ZM82.4857 49.9279L81.8582 50.5554L82.4534 51.1507L83.0487 51.746L83.6762 51.1185L84.3037 50.491L83.7084 49.8957L83.1131 49.3005L82.4857 49.9279ZM84.999 52.4413L84.3716 53.0688L83.7432 52.4405L83.1149 51.8121L82.4874 52.4396L81.8599 53.0671L82.4883 53.6954L83.1166 54.3238L83.7441 53.6963L84.3716 53.0688L84.9999 53.6972L85.6282 54.3255L86.2557 53.698L86.8832 53.0705L86.2549 52.4422L85.6265 51.8139L84.999 52.4413ZM77.3945 47.3467L76.767 47.9742L77.3953 48.6025L78.0237 49.2309L78.6512 48.6034L79.2787 47.9759L78.6503 47.3476L78.022 46.7192L77.3945 47.3467ZM79.974 49.9262L79.3465 50.5537L79.9418 51.149L80.5371 51.7442L81.1646 51.1168L81.792 50.4893L81.1968 49.894L80.6015 49.2987L79.974 49.9262ZM85.0669 55.0191L84.4394 55.6466L85.0347 56.2419L85.63 56.8372L86.2575 56.2097L86.8849 55.5822L86.2897 54.9869L85.6944 54.3916L85.0669 55.0191ZM77.4293 49.9575L76.8349 50.552L77.4302 51.1472L78.0254 51.7425L78.6199 51.1481L79.2143 50.5536L78.6191 49.9583L78.0238 49.3631L77.4293 49.9575ZM79.9427 52.4709L79.3483 53.0653L79.9435 53.6606L80.5388 54.2559L81.1333 53.6614L81.7277 53.067L81.1324 52.4717L80.5372 51.8764L79.9427 52.4709ZM82.4561 54.9843L81.8616 55.5787L82.49 56.2071L83.1183 56.8354L83.7128 56.241L84.3072 55.6465L83.6789 55.0182L83.0505 54.3898L82.4561 54.9843ZM85.0356 57.5638L84.4412 58.1582L85.0364 58.7535L85.6317 59.3488L86.2262 58.7543L86.8206 58.1599L86.2253 57.5646L85.6301 56.9693L85.0356 57.5638ZM106.6 81.6376L105.939 82.2981L107.229 83.5879L108.519 84.8776L109.179 84.2171L109.84 83.5566L108.55 82.2669L107.26 80.9771L106.6 81.6376ZM78.6912 58.7491L78.0307 59.4097L78.6921 60.0711L79.3535 60.7325L80.0141 60.072L80.6746 59.4115L80.0131 58.7501L79.3517 58.0886L78.6912 58.7491ZM97.6757 80.3756L97.0152 81.0361L99.5616 83.5826L102.108 86.129L102.769 85.4685L103.429 84.808L100.883 82.2616L98.3362 79.7151L97.6757 80.3756ZM73.5357 58.7456L72.8752 59.4061L73.5366 60.0675L74.1981 60.7289L74.8586 60.0684L75.5191 59.4079L74.8576 58.7465L74.1962 58.0851L73.5357 58.7456ZM78.6286 63.8385L77.9681 64.499L78.6295 65.1604L79.291 65.8218L79.9515 65.1613L80.612 64.5008L79.9506 63.8394L79.2891 63.178L78.6286 63.8385ZM104.027 89.2369L103.367 89.8974L104.028 90.5588L104.689 91.2202L105.35 90.5597L106.01 89.8992L105.349 89.2378L104.688 88.5764L104.027 89.2369ZM65.9365 61.3181L65.276 61.9786L65.9374 62.64L66.5988 63.3014L67.2593 62.6409L67.9198 61.9804L67.2584 61.319L66.597 60.6576L65.9365 61.3181ZM76.0561 71.4378L75.3956 72.0983L76.057 72.7597L76.7185 73.4211L77.379 72.7606L78.0395 72.1001L77.3781 71.4387L76.7166 70.7773L76.0561 71.4378ZM63.4265 63.828L62.766 64.4885L63.4275 65.1499L64.0889 65.8113L64.7494 65.1508L65.4099 64.4903L64.7485 63.8289L64.0871 63.1675L63.4265 63.828ZM77.4486 77.85L76.8541 78.4445L77.4494 79.0398L78.0447 79.635L78.6391 79.0406L79.2336 78.4461L78.6383 77.8509L78.043 77.2556L77.4486 77.85ZM74.9369 77.8483L74.3425 78.4428L74.9377 79.038L75.533 79.6333L76.1275 79.0389L76.7219 78.4444L76.1267 77.8491L75.5314 77.2538L74.9369 77.8483ZM77.4503 80.3617L76.8559 80.9561L77.4842 81.5845L78.1125 82.2128L77.452 82.8733L76.7915 83.5338L80.5947 87.337L84.3978 91.1401L83.7703 91.7676L83.1429 92.3951L84.3996 93.6518L85.6562 94.9085L86.2837 94.281L86.9112 93.6535L89.4907 96.233L92.0702 98.8126L91.4428 99.44L90.8153 100.068L93.3287 102.581L95.8421 105.094L96.4695 104.467L97.097 103.839L99.6104 106.353L102.124 108.866L102.751 108.239L103.379 107.611L92.5976 96.83L81.8166 86.049L82.444 85.4215L83.0715 84.794L80.5581 82.2806L78.0448 79.7672L77.4503 80.3617ZM60.9166 66.3379L60.2561 66.9984L60.9175 67.6598L61.579 68.3213L62.2395 67.6608L62.9 67.0003L62.2386 66.3388L61.5771 65.6774L60.9166 66.3379ZM63.43 68.8513L62.7695 69.5118L63.4309 70.1732L64.0923 70.8346L64.7528 70.1741L65.4133 69.5136L64.7519 68.8522L64.0905 68.1908L63.43 68.8513ZM66.0095 71.4308L65.349 72.0913L66.0104 72.7528L66.6719 73.4142L67.3324 72.7537L67.9929 72.0932L67.3315 71.4317L66.67 70.7703L66.0095 71.4308ZM68.5229 73.9442L67.8624 74.6047L68.5238 75.2661L69.1852 75.9276L69.8457 75.267L70.5063 74.6065L69.8448 73.9451L69.1834 73.2837L68.5229 73.9442ZM72.3261 77.8135L71.6986 78.4409L72.327 79.0693L72.9553 79.6976L73.5828 79.0701L74.2103 78.4427L73.5819 77.8143L72.9536 77.186L72.3261 77.8135ZM74.9056 80.393L74.2782 81.0205L74.8734 81.6157L75.4687 82.211L76.0962 81.5835L76.7237 80.956L76.1284 80.3608L75.5331 79.7655L74.9056 80.393ZM72.394 80.3912L71.7665 81.0187L72.3618 81.614L72.9571 82.2093L73.5845 81.5818L74.212 80.9543L73.6167 80.359L73.0215 79.7638L72.394 80.3912ZM74.9074 82.9046L74.2799 83.5321L74.8752 84.1274L75.4704 84.7227L76.0979 84.0952L76.7254 83.4677L76.1301 82.8724L75.5348 82.2771L74.9074 82.9046ZM69.7832 80.3564L69.1887 80.9508L69.8171 81.5792L70.4454 82.2075L71.0399 81.6131L71.6343 81.0186L71.006 80.3903L70.3776 79.7619L69.7832 80.3564ZM59.6652 72.7484L59.0708 73.3428L59.666 73.9381L60.2613 74.5334L60.8558 73.9389L61.4502 73.3445L60.855 72.7492L60.2597 72.1539L59.6652 72.7484ZM62.1786 75.2618L61.5842 75.8562L62.2125 76.4846L62.8408 77.1129L63.4353 76.5184L64.0298 75.924L63.4014 75.2956L62.7731 74.6673L62.1786 75.2618ZM64.7581 77.8413L64.1637 78.4357L64.759 79.031L65.3542 79.6263L65.9487 79.0318L66.5431 78.4374L65.9479 77.8421L65.3526 77.2468L64.7581 77.8413ZM67.2715 80.3547L66.6771 80.9491L67.3054 81.5775L67.9338 82.2058L68.5282 81.6114L69.1227 81.0169L68.4943 80.3886L67.866 79.7602L67.2715 80.3547ZM69.851 82.9342L69.2566 83.5286L69.8519 84.1239L70.4471 84.7192L71.0416 84.1247L71.636 83.5303L71.0408 82.935L70.4455 82.3397L69.851 82.9342ZM73.6211 86.7043L73.0267 87.2987L74.3164 88.5885L75.6062 89.8782L74.9787 90.5057L74.3512 91.1332L80.6677 97.4497L86.9843 103.766L87.5787 103.172L88.1732 102.577L85.6267 100.031L83.0803 97.4844L83.7078 96.857L84.3352 96.2295L79.2754 91.1696L74.2156 86.1098L73.6211 86.7043ZM59.667 75.26L59.0725 75.8545L59.7009 76.4828L60.3292 77.1112L60.9237 76.5167L61.5181 75.9223L60.8898 75.2939L60.2614 74.6656L59.667 75.26ZM62.2465 77.8395L61.652 78.434L62.2473 79.0293L62.8426 79.6246L63.437 79.0301L64.0315 78.4356L63.4362 77.8404L62.8409 77.2451L62.2465 77.8395ZM91.4149 107.008L90.8205 107.602L93.3339 110.116L95.8473 112.629L96.4417 112.035L97.0362 111.44L94.5228 108.927L92.0094 106.414L91.4149 107.008ZM57.1223 75.2913L56.4948 75.9188L57.0901 76.5141L57.6854 77.1093L58.3128 76.4819L58.9403 75.8544L58.345 75.2591L57.7498 74.6638L57.1223 75.2913ZM59.6357 77.8047L59.0082 78.4322L59.6365 79.0605L60.2649 79.6889L60.8924 79.0614L61.5198 78.4339L60.8915 77.8056L60.2631 77.1772L59.6357 77.8047ZM62.2152 80.3842L61.5877 81.0117L62.183 81.607L62.7783 82.2023L63.4057 81.5748L64.0332 80.9473L63.4379 80.352L62.8427 79.7567L62.2152 80.3842ZM64.7286 82.8976L64.1011 83.5251L64.7294 84.1534L65.3578 84.7818L65.9853 84.1543L66.6127 83.5268L65.9844 82.8985L65.3561 82.2701L64.7286 82.8976ZM73.6281 96.883L73.0337 97.4775L74.9518 99.3956L76.8699 101.314L76.2424 101.941L75.6149 102.569L76.8386 103.792L78.0622 105.016L78.6897 104.388L79.3171 103.761L81.8636 106.307L84.41 108.854L85.0045 108.259L85.5989 107.665L79.9108 101.977L74.2226 96.2886L73.6281 96.883ZM86.3291 112.094L85.7346 112.688L86.9913 113.945L88.248 115.202L88.8424 114.607L89.4369 114.013L88.1802 112.756L86.9235 111.499L86.3291 112.094ZM67.3186 100.679L66.6911 101.307L68.5761 103.192L70.4612 105.077L71.0887 104.449L71.7161 103.822L69.8311 101.937L67.9461 100.052L67.3186 100.679ZM72.4115 105.772L71.784 106.4L73.0076 107.623L74.2312 108.847L74.8587 108.219L75.4862 107.592L74.2626 106.368L73.039 105.145L72.4115 105.772ZM107.907 156.525L107.313 157.12L107.941 157.748L108.569 158.376L109.164 157.782L109.758 157.188L109.13 156.559L108.501 155.931L107.907 156.525ZM110.487 159.105L109.892 159.699L110.487 160.295L111.083 160.89L111.677 160.295L112.272 159.701L111.676 159.106L111.081 158.51L110.487 159.105ZM102.884 156.522L102.289 157.116L102.885 157.712L103.48 158.307L104.074 157.712L104.669 157.118L104.073 156.523L103.478 155.927L102.884 156.522ZM105.397 159.035L104.803 159.63L105.431 160.258L106.059 160.886L106.654 160.292L107.248 159.697L106.62 159.069L105.992 158.441L105.397 159.035ZM107.977 161.615L107.382 162.209L107.977 162.804L108.573 163.4L109.167 162.805L109.762 162.211L109.166 161.616L108.571 161.02L107.977 161.615ZM107.945 164.159L107.318 164.787L107.913 165.382L108.508 165.977L109.136 165.35L109.763 164.722L109.168 164.127L108.573 163.532L107.945 164.159ZM100.341 159.065L99.7133 159.692L100.309 160.288L100.904 160.883L101.531 160.255L102.159 159.628L101.564 159.033L100.968 158.437L100.341 159.065ZM102.854 161.578L102.227 162.206L102.855 162.834L103.483 163.462L104.111 162.835L104.738 162.207L104.11 161.579L103.482 160.951L102.854 161.578ZM105.434 164.158L104.806 164.785L105.401 165.38L105.997 165.976L106.624 165.348L107.252 164.721L106.656 164.125L106.061 163.53L105.434 164.158ZM100.309 161.609L99.715 162.204L100.343 162.832L100.972 163.461L101.566 162.866L102.161 162.272L101.532 161.643L100.904 161.015L100.309 161.609ZM102.889 164.189L102.295 164.783L102.89 165.379L103.485 165.974L104.08 165.38L104.674 164.785L104.079 164.19L103.483 163.595L102.889 164.189ZM105.402 166.702L104.808 167.297L105.403 167.892L105.998 168.487L106.593 167.893L107.187 167.298L106.592 166.703L105.997 166.108L105.402 166.702ZM95.2844 159.094L94.69 159.689L95.2853 160.284L95.8805 160.879L96.475 160.285L97.0694 159.69L96.4742 159.095L95.8789 158.5L95.2844 159.094ZM97.7978 161.608L97.2034 162.202L97.7986 162.797L98.3939 163.393L98.9884 162.798L99.5828 162.204L98.9876 161.609L98.3923 161.013L97.7978 161.608ZM100.311 164.121L99.7168 164.716L100.345 165.344L100.973 165.972L101.568 165.378L102.162 164.783L101.534 164.155L100.906 163.527L100.311 164.121ZM102.891 166.701L102.296 167.295L102.892 167.89L103.487 168.486L104.081 167.891L104.676 167.297L104.08 166.701L103.485 166.106L102.891 166.701ZM87.6486 156.544L87.0211 157.172L87.6164 157.767L88.2117 158.362L88.8391 157.735L89.4666 157.107L88.8713 156.512L88.2761 155.917L87.6486 156.544ZM90.162 159.058L89.5345 159.685L90.1628 160.314L90.7912 160.942L91.4187 160.314L92.0461 159.687L91.4178 159.059L90.7895 158.43L90.162 159.058ZM92.7415 161.637L92.114 162.265L92.7093 162.86L93.3046 163.455L93.932 162.828L94.5595 162.2L93.9643 161.605L93.369 161.01L92.7415 161.637ZM95.2549 164.151L94.6274 164.778L95.2227 165.373L95.818 165.969L96.4454 165.341L97.0729 164.714L96.4776 164.118L95.8824 163.523L95.2549 164.151ZM92.7432 164.149L92.1158 164.776L92.711 165.372L93.3063 165.967L93.9338 165.339L94.5613 164.712L93.966 164.117L93.3707 163.521L92.7432 164.149ZM95.2566 166.662L94.6291 167.29L95.2575 167.918L95.8858 168.546L96.5133 167.919L97.1408 167.292L96.5124 166.663L95.8841 166.035L95.2566 166.662ZM87.619 161.601L87.0246 162.195L87.6529 162.823L88.2813 163.452L88.8757 162.857L89.4702 162.263L88.8418 161.635L88.2135 161.006L87.619 161.601ZM90.1986 164.18L89.6041 164.775L90.1994 165.37L90.7947 165.965L91.3891 165.371L91.9836 164.776L91.3883 164.181L90.793 163.586L90.1986 164.18ZM92.7119 166.694L92.1175 167.288L92.7128 167.883L93.308 168.479L93.9025 167.884L94.4969 167.29L93.9017 166.694L93.3064 166.099L92.7119 166.694ZM95.2253 169.207L94.6309 169.801L95.2592 170.43L95.8876 171.058L96.482 170.464L97.0765 169.869L96.4481 169.241L95.8198 168.613L95.2253 169.207ZM92.7137 169.205L92.1192 169.8L92.7476 170.428L93.3759 171.056L93.9704 170.462L94.5648 169.867L93.9365 169.239L93.3081 168.611L92.7137 169.205ZM95.2932 171.785L94.6987 172.379L95.294 172.974L95.8893 173.57L96.4837 172.975L97.0782 172.381L96.4829 171.786L95.8876 171.19L95.2932 171.785ZM80.0162 159.018L79.4218 159.612L80.0501 160.24L80.6784 160.869L81.2729 160.274L81.8674 159.68L81.239 159.052L80.6107 158.423L80.0162 159.018ZM82.5957 161.597L82.0013 162.192L82.5966 162.787L83.1918 163.382L83.7863 162.788L84.3807 162.193L83.7855 161.598L83.1902 161.003L82.5957 161.597ZM85.1091 164.111L84.5147 164.705L85.143 165.333L85.7714 165.962L86.3658 165.367L86.9603 164.773L86.3319 164.144L85.7036 163.516L85.1091 164.111ZM87.6886 166.69L87.0942 167.285L87.6895 167.88L88.2847 168.475L88.8792 167.881L89.4736 167.286L88.8784 166.691L88.2831 166.096L87.6886 166.69ZM90.202 169.204L89.6076 169.798L90.2028 170.393L90.7981 170.989L91.3926 170.394L91.987 169.8L91.3918 169.204L90.7965 168.609L90.202 169.204ZM92.7154 171.717L92.1209 172.311L92.7493 172.94L93.3776 173.568L93.9721 172.974L94.5665 172.379L93.9382 171.751L93.3099 171.122L92.7154 171.717ZM85.0778 166.655L84.4503 167.283L83.822 166.654L83.1937 166.026L82.5662 166.654L81.9387 167.281L82.567 167.909L83.1954 168.538L83.8229 167.91L84.4503 167.283L85.0787 167.911L85.707 168.539L86.3345 167.912L86.962 167.284L86.3336 166.656L85.7053 166.028L85.0778 166.655ZM87.6573 169.235L87.0299 169.862L87.6251 170.458L88.2204 171.053L88.8479 170.425L89.4754 169.798L88.8801 169.203L88.2848 168.607L87.6573 169.235ZM90.1707 171.748L89.5433 172.376L90.1716 173.004L90.7999 173.632L91.4274 173.005L92.0549 172.377L91.4266 171.749L90.7982 171.121L90.1707 171.748ZM80.0528 164.14L79.4253 164.768L80.0206 165.363L80.6159 165.958L81.2433 165.331L81.8708 164.703L81.2755 164.108L80.6803 163.513L80.0528 164.14ZM85.1457 169.233L84.5182 169.861L85.1135 170.456L85.7088 171.051L86.3362 170.424L86.9637 169.796L86.3685 169.201L85.7732 168.606L85.1457 169.233ZM87.6591 171.746L87.0316 172.374L87.6269 172.969L88.2222 173.564L88.8496 172.937L89.4771 172.31L88.8818 171.714L88.2866 171.119L87.6591 171.746ZM91.3979 178.061L90.7374 178.722L91.3988 179.383L92.0602 180.045L92.7207 179.384L93.3812 178.724L92.7198 178.062L92.0584 177.401L91.3979 178.061ZM80.0215 166.685L79.427 167.279L80.0223 167.875L80.6176 168.47L81.212 167.875L81.8065 167.281L81.2112 166.686L80.616 166.09L80.0215 166.685ZM85.0814 171.811L84.4539 172.438L83.8256 171.81L83.1972 171.182L82.6028 171.776L82.0083 172.37L82.6366 172.999L83.265 173.627L82.6375 174.255L82.01 174.882L82.6053 175.477L83.2006 176.073L83.8281 175.445L84.4555 174.818L85.0839 175.446L85.7122 176.074L86.3067 175.48L86.9011 174.885L86.2728 174.257L85.6445 173.629L86.2719 173.001L86.8994 172.374L86.3041 171.779L85.7089 171.183L85.0814 171.811ZM87.6278 174.291L87.0333 174.886L87.6617 175.514L88.29 176.142L88.8845 175.548L89.4789 174.953L88.8506 174.325L88.2222 173.697L87.6278 174.291ZM67.324 156.497L66.7296 157.092L67.3579 157.72L67.9863 158.348L68.5807 157.754L69.1752 157.16L68.5468 156.531L67.9185 155.903L67.324 156.497ZM72.4169 161.59L71.8225 162.185L72.4178 162.78L73.013 163.375L73.6075 162.781L74.2019 162.186L73.6067 161.591L73.0114 160.996L72.4169 161.59ZM74.9303 164.104L74.3359 164.698L74.9642 165.326L75.5926 165.955L76.187 165.36L76.7815 164.766L76.1531 164.137L75.5248 163.509L74.9303 164.104ZM77.5099 166.683L76.9154 167.278L77.5107 167.873L78.1059 168.468L78.7004 167.874L79.2949 167.279L78.6996 166.684L78.1043 166.089L77.5099 166.683ZM80.0232 169.196L79.4288 169.791L80.0571 170.419L80.6855 171.048L81.2799 170.453L81.8744 169.859L81.246 169.23L80.6177 168.602L80.0232 169.196ZM72.4187 164.102L71.8242 164.696L72.4526 165.325L73.0809 165.953L73.6754 165.359L74.2698 164.764L73.6415 164.136L73.0131 163.507L72.4187 164.102ZM74.9982 166.681L74.4037 167.276L74.999 167.871L75.5943 168.466L76.1888 167.872L76.7832 167.277L76.1879 166.682L75.5927 166.087L74.9982 166.681ZM77.5116 169.195L76.9171 169.789L77.5124 170.384L78.1077 170.98L78.7021 170.385L79.2966 169.791L78.7013 169.196L78.106 168.6L77.5116 169.195ZM67.3606 161.62L66.7331 162.247L67.3284 162.843L67.9237 163.438L68.5512 162.81L69.1787 162.183L68.5834 161.588L67.9881 160.992L67.3606 161.62ZM69.874 164.133L69.2465 164.761L69.8418 165.356L70.4371 165.951L71.0646 165.324L71.692 164.696L71.0968 164.101L70.5015 163.506L69.874 164.133ZM72.3874 166.647L71.7599 167.274L72.3883 167.902L73.0166 168.531L73.6441 167.903L74.2716 167.276L73.6432 166.647L73.0149 166.019L72.3874 166.647ZM74.9669 169.226L74.3394 169.854L74.9347 170.449L75.53 171.044L76.1575 170.417L76.7849 169.789L76.1897 169.194L75.5944 168.599L74.9669 169.226ZM72.4553 169.224L71.8278 169.852L72.4231 170.447L73.0183 171.042L73.6458 170.415L74.2733 169.787L73.678 169.192L73.0827 168.597L72.4553 169.224ZM74.9686 171.738L74.3412 172.365L74.9364 172.96L75.5317 173.556L76.1592 172.928L76.7867 172.301L76.1914 171.705L75.5961 171.11L74.9686 171.738ZM59.7248 159.07L59.1303 159.664L59.7256 160.26L60.3209 160.855L60.9153 160.26L61.5098 159.666L60.9145 159.071L60.3192 158.475L59.7248 159.07ZM62.2382 161.583L61.6437 162.178L62.272 162.806L62.9004 163.434L63.4948 162.84L64.0893 162.245L63.461 161.617L62.8326 160.989L62.2382 161.583ZM64.8177 164.163L64.2232 164.757L64.8185 165.352L65.4138 165.948L66.0082 165.353L66.6027 164.759L66.0074 164.164L65.4121 163.568L64.8177 164.163ZM67.3311 166.676L66.7366 167.271L67.3319 167.866L67.9272 168.461L68.5216 167.867L69.1161 167.272L68.5208 166.677L67.9255 166.082L67.3311 166.676ZM69.8444 169.189L69.25 169.784L69.8783 170.412L70.5067 171.041L71.1011 170.446L71.6956 169.852L71.0672 169.223L70.4389 168.595L69.8444 169.189ZM72.424 171.769L71.8295 172.363L72.4248 172.959L73.0201 173.554L73.6145 172.96L74.209 172.365L73.6137 171.77L73.0184 171.175L72.424 171.769ZM78.7092 180.564L78.0487 181.225L78.7101 181.886L79.3715 182.547L80.032 181.887L80.6925 181.226L80.0311 180.565L79.3697 179.904L78.7092 180.564ZM81.2887 183.144L80.6282 183.804L81.2896 184.466L81.951 185.127L82.6115 184.466L83.272 183.806L82.6106 183.145L81.9492 182.483L81.2887 183.144ZM64.8194 166.674L64.225 167.269L64.8202 167.864L65.4155 168.459L66.01 167.865L66.6044 167.27L66.0091 166.675L65.4139 166.08L64.8194 166.674ZM67.3328 169.188L66.7383 169.782L67.3667 170.411L67.995 171.039L68.5895 170.444L69.1839 169.85L68.5556 169.222L67.9272 168.593L67.3328 169.188ZM69.9123 171.767L69.3179 172.362L69.9131 172.957L70.5084 173.552L71.1029 172.958L71.6973 172.363L71.102 171.768L70.5068 171.173L69.9123 171.767ZM54.6353 159L54.0409 159.595L54.6692 160.223L55.2976 160.851L55.892 160.257L56.4865 159.662L55.8581 159.034L55.2298 158.406L54.6353 159ZM59.7282 164.093L59.1338 164.688L59.7621 165.316L60.3905 165.944L60.9849 165.35L61.5794 164.755L60.951 164.127L60.3227 163.499L59.7282 164.093ZM62.3078 166.673L61.7133 167.267L62.3086 167.862L62.9039 168.458L63.4983 167.863L64.0928 167.269L63.4975 166.673L62.9022 166.078L62.3078 166.673ZM64.8211 169.186L64.2267 169.78L64.822 170.376L65.4172 170.971L66.0117 170.377L66.6061 169.782L66.0109 169.187L65.4156 168.592L64.8211 169.186ZM67.3345 171.699L66.7401 172.294L67.3684 172.922L67.9968 173.551L68.5912 172.956L69.1857 172.362L68.5573 171.733L67.929 171.105L67.3345 171.699ZM76.1992 183.074L75.5387 183.735L76.2001 184.396L76.8616 185.057L77.5221 184.397L78.1826 183.736L77.5212 183.075L76.8597 182.414L76.1992 183.074ZM78.7788 185.654L78.1183 186.314L78.7797 186.975L79.4411 187.637L80.1016 186.976L80.7621 186.316L80.1007 185.654L79.4393 184.993L78.7788 185.654ZM59.6969 166.638L59.0695 167.265L58.4411 166.637L57.8128 166.009L57.1853 166.636L56.5578 167.264L57.1862 167.892L57.8145 168.52L58.442 167.893L59.0695 167.265L59.6978 167.894L60.3262 168.522L60.9536 167.894L61.5811 167.267L60.9528 166.639L60.3244 166.01L59.6969 166.638ZM62.2765 169.217L61.649 169.845L62.2443 170.44L62.8395 171.035L63.467 170.408L64.0945 169.78L63.4992 169.185L62.904 168.59L62.2765 169.217ZM52.0924 161.543L51.4649 162.171L52.0933 162.799L52.7216 163.427L53.3491 162.8L53.9766 162.172L53.3482 161.544L52.7199 160.916L52.0924 161.543ZM54.6719 164.123L54.0444 164.75L54.6397 165.345L55.235 165.941L55.8625 165.313L56.4899 164.686L55.8947 164.09L55.2994 163.495L54.6719 164.123ZM59.7648 169.216L59.1373 169.843L59.7326 170.438L60.3279 171.034L60.9554 170.406L61.5829 169.779L60.9876 169.183L60.3923 168.588L59.7648 169.216ZM63.5036 175.53L62.8431 176.191L63.5045 176.852L64.1659 177.514L64.8264 176.853L65.4869 176.193L64.8255 175.531L64.1641 174.87L63.5036 175.53ZM66.017 178.044L65.3565 178.704L66.0179 179.366L66.6793 180.027L67.3398 179.367L68.0003 178.706L67.3389 178.045L66.6775 177.383L66.017 178.044ZM71.1099 183.137L70.4494 183.797L71.1108 184.459L71.7722 185.12L72.4327 184.459L73.0932 183.799L72.4318 183.138L71.7704 182.476L71.1099 183.137ZM76.2028 188.229L75.5423 188.89L76.2037 189.551L76.8651 190.213L77.5256 189.552L78.1861 188.892L77.5247 188.23L76.8633 187.569L76.2028 188.229ZM52.1272 164.154L51.5328 164.748L52.1281 165.344L52.7233 165.939L53.3178 165.344L53.9122 164.75L53.317 164.155L52.7217 163.559L52.1272 164.154ZM54.6406 166.667L54.0462 167.262L54.6414 167.857L55.2367 168.452L55.8312 167.858L56.4256 167.263L55.8304 166.668L55.2351 166.073L54.6406 166.667ZM57.154 169.181L56.5596 169.775L57.1879 170.404L57.8162 171.032L58.4107 170.437L59.0052 169.843L58.3768 169.215L57.7485 168.586L57.154 169.181ZM47.0361 161.573L46.4416 162.167L47.0369 162.762L47.6322 163.358L48.2266 162.763L48.8211 162.169L48.2258 161.574L47.6305 160.978L47.0361 161.573ZM49.5495 164.086L48.955 164.681L49.5833 165.309L50.2117 165.937L50.8061 165.343L51.4006 164.748L50.7723 164.12L50.1439 163.492L49.5495 164.086ZM52.129 166.666L51.5345 167.26L52.1298 167.855L52.7251 168.451L53.3195 167.856L53.914 167.262L53.3187 166.666L52.7234 166.071L52.129 166.666ZM54.6424 169.179L54.0479 169.773L54.6762 170.402L55.3046 171.03L55.899 170.436L56.4935 169.841L55.8652 169.213L55.2368 168.585L54.6424 169.179ZM58.4142 175.461L57.7537 176.121L58.4151 176.783L59.0765 177.444L59.737 176.784L60.3975 176.123L59.7361 175.462L59.0747 174.8L58.4142 175.461ZM60.9937 178.04L60.3332 178.701L60.9946 179.362L61.656 180.024L62.3165 179.363L62.977 178.703L62.3156 178.041L61.6542 177.38L60.9937 178.04ZM66.0204 183.067L65.3599 183.727L66.0214 184.389L66.6828 185.05L67.3433 184.39L68.0038 183.729L67.3424 183.068L66.681 182.406L66.0204 183.067ZM71.1134 188.16L70.4528 188.82L71.1143 189.482L71.7757 190.143L72.4362 189.483L73.0967 188.822L72.4353 188.161L71.7739 187.499L71.1134 188.16ZM52.1307 169.177L51.5363 169.772L52.1315 170.367L52.7268 170.962L53.3213 170.368L53.9157 169.773L53.3204 169.178L52.7252 168.583L52.1307 169.177ZM54.6441 171.691L54.0496 172.285L54.678 172.913L55.3063 173.542L55.9008 172.947L56.4952 172.353L55.8669 171.725L55.2385 171.096L54.6441 171.691ZM44.4931 164.116L43.8656 164.743L44.4609 165.338L45.0562 165.934L45.6837 165.306L46.3112 164.679L45.7159 164.083L45.1206 163.488L44.4931 164.116ZM47.0065 166.629L46.379 167.256L47.0074 167.885L47.6357 168.513L48.2632 167.886L48.8907 167.258L48.2623 166.63L47.634 166.002L47.0065 166.629ZM49.586 169.209L48.9586 169.836L49.5538 170.431L50.1491 171.027L50.7766 170.399L51.4041 169.772L50.8088 169.176L50.2135 168.581L49.586 169.209ZM52.0994 171.722L51.4719 172.349L52.1003 172.978L52.7286 173.606L53.3561 172.979L53.9836 172.351L53.3552 171.723L52.7269 171.094L52.0994 171.722ZM49.5878 171.72L48.9603 172.348L49.5556 172.943L50.1508 173.538L50.7783 172.911L51.4058 172.283L50.8105 171.688L50.2152 171.093L49.5878 171.72ZM55.8382 178.037L55.1777 178.697L55.8391 179.359L56.5005 180.02L57.161 179.359L57.8215 178.699L57.1601 178.038L56.4987 177.376L55.8382 178.037ZM58.4177 180.616L57.7572 181.277L58.4186 181.938L59.08 182.6L59.7406 181.939L60.4011 181.279L59.7396 180.617L59.0782 179.956L58.4177 180.616ZM44.4636 169.172L43.8691 169.766L44.4975 170.395L45.1258 171.023L45.7203 170.429L46.3147 169.834L45.6864 169.206L45.058 168.578L44.4636 169.172ZM47.0431 171.751L46.4486 172.346L47.0439 172.941L47.6392 173.536L48.2336 172.942L48.8281 172.348L48.2328 171.752L47.6375 171.157L47.0431 171.751ZM50.8149 178.033L50.1544 178.694L50.8158 179.355L51.4772 180.017L52.1377 179.356L52.7982 178.696L52.1368 178.034L51.4754 177.373L50.8149 178.033ZM53.3283 180.547L52.6678 181.207L53.3292 181.869L53.9906 182.53L54.6511 181.869L55.3116 181.209L54.6502 180.547L53.9888 179.886L53.3283 180.547ZM58.4212 185.639L57.7607 186.3L58.4221 186.961L59.0835 187.623L59.744 186.962L60.4045 186.302L59.7431 185.64L59.0817 184.979L58.4212 185.639ZM63.5141 190.732L62.8536 191.393L63.515 192.054L64.1764 192.716L64.8369 192.055L65.4974 191.395L64.836 190.733L64.1746 190.072L63.5141 190.732ZM44.5314 171.75L43.937 172.344L44.5323 172.939L45.1275 173.535L45.722 172.94L46.3164 172.346L45.7212 171.751L45.1259 171.155L44.5314 171.75ZM47.0448 174.263L46.4504 174.858L47.0456 175.453L47.6409 176.048L48.2354 175.454L48.8298 174.859L48.2346 174.264L47.6393 173.669L47.0448 174.263ZM36.9269 166.655L36.3324 167.25L36.9277 167.845L37.523 168.44L38.1174 167.846L38.7119 167.251L38.1166 166.656L37.5213 166.061L36.9269 166.655ZM39.4403 169.168L38.8458 169.763L39.4411 170.358L40.0364 170.953L40.6308 170.359L41.2253 169.765L40.63 169.169L40.0347 168.574L39.4403 169.168ZM41.9537 171.682L41.3592 172.276L41.9875 172.905L42.6159 173.533L43.2103 172.939L43.8048 172.344L43.1765 171.716L42.5481 171.087L41.9537 171.682ZM44.5332 174.261L43.9387 174.856L44.534 175.451L45.1293 176.046L45.7237 175.452L46.3182 174.857L45.7229 174.262L45.1276 173.667L44.5332 174.261ZM50.8184 183.056L50.1579 183.717L50.8193 184.378L51.4807 185.04L52.1412 184.379L52.8017 183.719L52.1403 183.057L51.4789 182.396L50.8184 183.056ZM41.9885 174.293L41.361 174.92L41.9563 175.515L42.5516 176.111L43.179 175.483L43.8065 174.856L43.2113 174.26L42.616 173.665L41.9885 174.293ZM44.5019 176.806L43.8744 177.434L44.4697 178.029L45.065 178.624L45.6924 177.997L46.3199 177.369L45.7246 176.774L45.1294 176.179L44.5019 176.806ZM36.8973 171.711L36.2698 172.339L36.8651 172.934L37.4604 173.529L38.0879 172.902L38.7154 172.275L38.1201 171.679L37.5248 171.084L36.8973 171.711ZM39.4107 174.225L38.7832 174.852L39.4116 175.481L40.0399 176.109L40.6674 175.482L41.2949 174.854L40.6665 174.226L40.0382 173.597L39.4107 174.225ZM41.9902 176.804L41.3628 177.432L41.958 178.027L42.5533 178.622L43.1808 177.995L43.8083 177.367L43.213 176.772L42.6177 176.177L41.9902 176.804ZM44.5036 179.318L43.8761 179.945L44.5045 180.574L45.1328 181.202L45.7603 180.574L46.3878 179.947L45.7594 179.319L45.1311 178.69L44.5036 179.318ZM48.2424 185.632L47.5819 186.293L48.2433 186.954L48.9047 187.616L49.5652 186.955L50.2257 186.295L49.5643 185.633L48.9029 184.972L48.2424 185.632ZM50.8219 188.212L50.1614 188.872L50.8228 189.534L51.4842 190.195L52.1448 189.535L52.8053 188.874L52.1438 188.213L51.4824 187.551L50.8219 188.212ZM41.9589 179.349L41.3645 179.943L41.9598 180.539L42.555 181.134L43.1495 180.54L43.7439 179.945L43.1487 179.35L42.5534 178.755L41.9589 179.349ZM44.4723 181.862L43.8779 182.457L44.5062 183.085L45.1346 183.714L45.729 183.119L46.3235 182.525L45.6951 181.896L45.0668 181.268L44.4723 181.862ZM34.3544 174.254L33.7599 174.849L34.3552 175.444L34.9505 176.039L35.5449 175.445L36.1394 174.85L35.5441 174.255L34.9488 173.66L34.3544 174.254ZM36.8678 176.768L36.2733 177.362L36.9017 177.991L37.53 178.619L38.1245 178.024L38.7189 177.43L38.0906 176.802L37.4622 176.173L36.8678 176.768ZM39.4473 179.347L38.8528 179.942L39.4481 180.537L40.0434 181.132L40.6378 180.538L41.2323 179.943L40.637 179.348L40.0417 178.753L39.4473 179.347ZM41.9607 181.861L41.3662 182.455L41.9946 183.083L42.6229 183.712L43.2174 183.117L43.8118 182.523L43.1835 181.895L42.5551 181.266L41.9607 181.861ZM48.312 190.722L47.6515 191.382L48.3129 192.044L48.9743 192.705L49.6348 192.045L50.2953 191.384L49.6339 190.723L48.9725 190.061L48.312 190.722ZM39.449 181.859L38.8546 182.453L39.4498 183.049L40.0451 183.644L40.6396 183.049L41.234 182.455L40.6388 181.86L40.0435 181.264L39.449 181.859ZM41.9624 184.372L41.368 184.967L41.9963 185.595L42.6246 186.223L43.2191 185.629L43.8135 185.035L43.1852 184.406L42.5569 183.778L41.9624 184.372ZM34.3248 179.311L33.6973 179.938L34.3257 180.567L34.954 181.195L35.5815 180.567L36.209 179.94L35.5806 179.312L34.9523 178.683L34.3248 179.311ZM36.9043 181.89L36.2769 182.518L36.8721 183.113L37.4674 183.708L38.0949 183.081L38.7224 182.453L38.1271 181.858L37.5318 181.263L36.9043 181.89ZM39.4177 184.404L38.7903 185.031L39.4186 185.659L40.0469 186.288L40.6744 185.66L41.3019 185.033L40.6736 184.404L40.0452 183.776L39.4177 184.404Z" fill="#DCDCDC"/>
</g>
<defs>
<clipPath id="clip0_930_7915">
<rect width="204" height="204" fill="white"/>
</clipPath>
</defs>
</svg>
