<svg width="562" height="730" viewBox="0 0 562 730" fill="none" xmlns="http://www.w3.org/2000/svg">
<path fill-rule="evenodd" clip-rule="evenodd" d="M67.4674 85.6501L68.6993 87.7837L66.5396 89.0306L64.38 90.2774L69.437 99.0365L74.4941 107.796L76.6537 106.549L78.8134 105.302L81.2122 109.457L83.6111 113.612L81.4514 114.859L79.2918 116.105L81.8203 120.485L84.3488 124.865L82.1892 126.111L80.0295 127.358L83.7251 133.759L87.4206 140.16L85.261 141.407L83.1013 142.654L85.6947 147.146L88.288 151.637L94.767 147.897L101.246 144.156L103.645 148.311L106.044 152.466L103.884 153.713L101.724 154.96L104.253 159.339L106.781 163.719L104.622 164.966L102.462 166.213L103.694 168.346L104.926 170.48L102.766 171.727L100.606 172.974L101.838 175.107L103.07 177.241L100.797 178.553L98.5236 179.866L99.7554 181.999L100.987 184.133L98.8276 185.38L96.668 186.627L97.8998 188.76L99.1316 190.894L96.972 192.141L94.8123 193.388L96.109 195.634L97.4057 197.88L95.2461 199.126L93.0864 200.373L94.3183 202.507L95.5501 204.641L93.3905 205.887L91.2308 207.134L93.6945 211.402L96.1582 215.669L93.8849 216.981L91.6116 218.294L92.8434 220.427L94.0753 222.561L91.9156 223.808L89.756 225.055L92.2845 229.434L94.813 233.814L92.6534 235.061L90.4937 236.308L92.9574 240.575L95.4211 244.842L93.2614 246.089L91.1018 247.336L93.6303 251.715L96.1588 256.095L93.9992 257.342L91.8396 258.589L94.3032 262.856L96.7669 267.123L94.4936 268.436L92.2203 269.748L95.9807 276.261L99.741 282.774L97.5814 284.021L95.4218 285.268L114.094 317.609L132.766 349.95L134.926 348.704L137.085 347.457L139.614 351.836L142.142 356.216L144.416 354.903L146.689 353.591L212.625 467.796L278.561 582L276.288 583.313L274.015 584.625L295.215 621.346L316.416 658.067L318.69 656.754L320.963 655.442L325.955 664.088L330.947 672.735L333.107 671.488L335.267 670.242L340.194 678.776L345.121 687.31L347.281 686.064L349.441 684.817L353.201 691.33L356.961 697.843L359.121 696.596L361.281 695.349L363.744 699.617L366.208 703.884L368.368 702.637L370.527 701.39L371.824 703.636L373.121 705.882L375.394 704.569L377.667 703.257L378.899 705.391L380.131 707.524L397.635 697.418L415.14 687.312L413.908 685.178L412.676 683.044L416.996 680.551L421.315 678.057L420.018 675.811L418.722 673.565L423.154 671.006L427.587 668.446L426.356 666.313L425.124 664.179L427.17 662.998L429.216 661.817L431.744 666.196L434.273 670.576L436.432 669.329L438.592 668.082L441.056 672.349L443.519 676.616L467.617 662.704L491.714 648.791L490.482 646.658L489.25 644.524L491.523 643.212L493.797 641.899L492.565 639.766L491.333 637.632L493.493 636.385L495.652 635.138L494.356 632.892L493.059 630.646L495.105 629.465L497.151 628.284L498.448 630.53L499.744 632.776L519.522 621.357L539.3 609.938L538.003 607.692L536.706 605.446L538.866 604.2L541.026 602.953L539.794 600.819L538.562 598.685L540.722 597.439L542.881 596.192L539.186 589.791L535.49 583.39L537.65 582.143L539.81 580.896L529.825 563.603L519.841 546.309L522.114 544.997L524.387 543.684L503.187 506.963L481.986 470.243L479.713 471.555L477.439 472.868L474.911 468.488L472.382 464.109L470.223 465.356L468.063 466.602L405.822 358.799L343.582 250.995L341.422 252.241L339.262 253.488L338.095 251.467L336.928 249.446L339.088 248.199L341.248 246.952L337.487 240.439L333.727 233.926L335.887 232.679L338.046 231.432L319.374 199.091L300.702 166.75L298.542 167.996L296.383 169.243L292.622 162.73L288.862 156.217L286.702 157.464L284.543 158.711L283.311 156.577L282.079 154.444L279.919 155.69L277.76 156.937L273.999 150.424L270.239 143.911L268.079 145.158L265.92 146.405L263.456 142.138L260.992 137.87L258.719 139.183L256.446 140.495L253.917 136.116L251.389 131.736L249.229 132.983L247.069 134.23L245.837 132.096L244.606 129.963L242.446 131.21L240.286 132.456L239.054 130.323L237.823 128.189L235.663 129.436L233.503 130.683L231.04 126.416L228.576 122.148L226.416 123.395L224.257 124.642L222.96 122.396L221.663 120.15L219.39 121.463L217.117 122.775L215.885 120.642L214.653 118.508L212.493 119.755L210.334 121.002L209.102 118.868L207.87 116.735L205.71 117.982L203.551 119.228L202.319 117.095L201.087 114.961L198.927 116.208L196.768 117.455L195.536 115.321L194.304 113.188L189.871 115.747L185.438 118.306L180.511 109.772L175.583 101.237L180.016 98.6781L184.449 96.1187L180.624 89.4933L176.799 82.8678L174.639 84.1147L172.479 85.3616L170.016 81.0943L167.552 76.8271L165.279 78.1396L163.005 79.4521L160.477 75.0726L157.948 70.693L155.789 71.9399L153.629 73.1868L152.462 71.1655L151.295 69.1441L153.455 67.8973L155.614 66.6504L150.557 57.8913L145.5 49.1323L143.341 50.3791L141.181 51.626L138.717 47.3588L136.254 43.0915L101.245 63.304L66.2356 83.5165L67.4674 85.6501ZM232.208 209.289L235.968 215.802L233.809 217.049L231.649 218.296L235.345 224.697L239.04 231.098L243.359 228.604L247.679 226.11L246.382 223.864L245.085 221.618L247.245 220.372L249.405 219.125L245.774 212.836L242.143 206.548L239.984 207.794L237.824 209.041L235.295 204.662L232.767 200.282L230.607 201.529L228.448 202.776L232.208 209.289ZM179.729 319.992L180.96 322.126L189.599 317.138L198.238 312.151L197.006 310.017L195.774 307.883L187.135 312.871L178.497 317.858L179.729 319.992ZM221.521 301.553L222.752 303.687L224.798 302.505L226.844 301.324L225.612 299.19L224.381 297.057L222.335 298.238L220.289 299.419L221.521 301.553ZM350.385 474.353L351.552 476.375L353.598 475.193L355.644 474.012L354.477 471.991L353.31 469.969L351.264 471.151L349.218 472.332L350.385 474.353ZM347.971 490.121L350.434 494.388L352.48 493.207L354.526 492.026L353.294 489.892L352.063 487.759L354.222 486.512L356.382 485.265L355.15 483.131L353.918 480.998L349.713 483.426L345.507 485.854L347.971 490.121ZM357.906 487.38L359.073 489.401L361.119 488.22L363.165 487.038L361.998 485.017L360.831 482.996L358.785 484.177L356.739 485.358L357.906 487.38ZM343.538 512.894L344.77 515.027L346.93 513.78L349.089 512.533L351.553 516.801L354.017 521.068L380.16 505.974L406.303 490.88L405.136 488.859L403.969 486.838L401.809 488.085L399.649 489.331L398.353 487.086L397.056 484.84L386.144 491.14L375.232 497.44L374 495.306L372.769 493.172L357.537 501.966L342.306 510.76L343.538 512.894ZM341.682 519.654L342.914 521.788L344.96 520.607L347.006 519.426L345.774 517.292L344.543 515.158L342.497 516.34L340.451 517.521L341.682 519.654ZM339.892 526.528L341.059 528.549L343.105 527.368L345.151 526.187L343.984 524.165L342.817 522.144L340.771 523.325L338.725 524.506L339.892 526.528ZM374.164 535.489L375.331 537.51L377.377 536.329L379.423 535.147L378.256 533.126L377.089 531.105L375.043 532.286L372.997 533.467L374.164 535.489ZM382.802 530.501L383.969 532.522L386.015 531.341L388.061 530.16L386.894 528.139L385.727 526.117L383.681 527.299L381.635 528.48L382.802 530.501ZM367.826 544.987L369.058 547.12L362.579 550.861L356.1 554.602L357.267 556.623L358.434 558.644L367.073 553.657L375.711 548.669L373.313 544.514L370.914 540.359L368.754 541.606L366.594 542.853L367.826 544.987ZM348.401 561.742L349.568 563.763L351.728 562.516L353.888 561.269L352.721 559.248L351.554 557.227L349.394 558.474L347.234 559.72L348.401 561.742ZM379.537 555.295L380.768 557.428L382.928 556.182L385.088 554.935L383.856 552.801L382.624 550.667L380.464 551.914L378.305 553.161L379.537 555.295ZM388.402 550.176L389.634 552.31L391.68 551.128L393.726 549.947L392.494 547.814L391.263 545.68L389.217 546.861L387.171 548.042L388.402 550.176ZM380.882 577.576L382.114 579.709L384.274 578.463L386.434 577.216L387.665 579.349L388.897 581.483L397.649 576.43L406.402 571.377L407.634 573.51L408.865 575.644L410.911 574.463L412.957 573.281L409.262 566.881L405.566 560.48L401.361 562.908L397.155 565.336L398.387 567.47L399.619 569.603L397.345 570.916L395.072 572.228L393.84 570.095L392.608 567.961L386.13 571.702L379.651 575.442L380.882 577.576ZM379.027 584.337L380.259 586.47L382.305 585.289L384.351 584.108L383.119 581.974L381.887 579.841L379.841 581.022L377.795 582.203L379.027 584.337ZM390.802 594.757L391.969 596.778L394.129 595.532L396.288 594.285L400.049 600.798L403.809 607.311L405.969 606.064L408.128 604.817L404.368 598.304L400.608 591.791L402.767 590.544L404.927 589.297L403.76 587.276L402.593 585.255L396.114 588.995L389.635 592.736L390.802 594.757ZM417.01 579.776L418.242 581.909L416.082 583.156L413.923 584.403L415.154 586.537L416.386 588.67L414.227 589.917L412.067 591.164L414.531 595.431L416.994 599.699L421.2 597.27L425.406 594.842L424.174 592.709L422.942 590.575L425.215 589.262L427.488 587.95L426.257 585.816L425.025 583.683L427.184 582.436L429.344 581.189L426.88 576.922L424.417 572.655L420.097 575.148L415.778 577.642L417.01 579.776ZM437.651 585.077L438.818 587.099L440.864 585.917L442.91 584.736L441.743 582.715L440.576 580.693L438.53 581.875L436.484 583.056L437.651 585.077ZM356.402 666.424L357.569 668.445L359.728 667.198L361.888 665.951L360.721 663.93L359.554 661.909L357.394 663.156L355.235 664.403L356.402 666.424ZM378.34 673.971L380.868 678.351L378.708 679.598L376.549 680.845L377.716 682.866L378.883 684.887L381.042 683.64L383.202 682.393L385.731 686.773L388.259 691.153L390.305 689.971L392.351 688.79L388.591 682.277L384.83 675.764L389.263 673.204L393.696 670.645L392.529 668.624L391.362 666.602L389.203 667.849L387.043 669.096L385.746 666.85L384.45 664.604L380.13 667.098L375.811 669.592L378.34 673.971ZM430.002 652.678L431.169 654.7L435.488 652.206L439.808 649.712L438.641 647.691L437.474 645.67L433.154 648.163L428.835 650.657L430.002 652.678Z" fill="#DCDCDC"/>
</svg>
